<svg width="1000" height="532" viewBox="0 0 809 532" fill="none" xmlns="http://www.w3.org/2000/svg">
<path d="M168.019 316.31C131.427 280.288 115.973 242.708 124.501 210.494C135.445 169.154 184.066 140.57 257.895 132.073L258.168 134.444C185.366 142.823 137.487 170.765 126.808 211.104C118.508 242.455 133.739 279.214 169.694 314.61L168.019 316.31Z" fill="#F0F0F0"/>
<path d="M521.067 444.177C475.399 444.177 425.771 437.39 376.478 424.34C315.519 408.202 259.627 383.844 214.843 353.897L216.169 351.914C260.737 381.715 316.382 405.962 377.088 422.033C431.948 436.557 487.218 443.287 536.905 441.511L536.991 443.895C531.744 444.084 526.436 444.178 521.067 444.177Z" fill="#F0F0F0"/>
<path d="M625.837 429.169L625.073 426.908C665.917 413.098 691.464 390.853 698.951 362.573C708.467 326.624 687.792 284.907 640.732 245.106C593.432 205.104 525.224 171.912 448.67 151.646L449.281 149.338C526.169 169.694 594.709 203.057 642.272 243.284C690.076 283.713 711.024 326.294 701.258 363.184C693.556 392.274 667.476 415.091 625.837 429.169Z" fill="#F0F0F0"/>
<path d="M250.79 445.174C161.053 405.375 91.9049 353.741 56.0829 299.781L58.0709 298.461C93.6452 352.047 162.431 403.375 251.757 442.993L250.79 445.174Z" fill="#F0F0F0"/>
<path d="M566.296 514.123C557.04 514.123 547.626 513.916 538.054 513.503L538.156 511.119C609.589 514.211 672.616 505.663 720.435 486.393L721.328 488.607C679.614 505.415 626.446 514.123 566.296 514.123Z" fill="#F0F0F0"/>
<path d="M514.229 134.213C499.398 129.384 484.142 124.888 468.886 120.849C381.094 97.6074 294.793 89.3554 219.311 96.9898L219.071 94.6149C294.835 86.9555 381.431 95.2273 469.497 118.542C484.796 122.592 500.095 127.101 514.968 131.944L514.229 134.213Z" fill="#F0F0F0"/>
<path d="M111.936 319.89C75.3445 283.868 59.8899 246.288 68.418 214.074C79.3624 172.733 127.983 144.15 201.812 135.653L202.085 138.024C129.283 146.403 81.4045 174.344 70.7253 214.684C62.4255 246.035 77.6558 282.794 113.611 318.19L111.936 319.89Z" fill="#F0F0F0"/>
<path d="M464.984 447.756C419.316 447.756 369.689 440.97 320.395 427.92C259.436 411.782 203.544 387.423 158.76 357.476L160.086 355.493C204.654 385.295 260.299 409.542 321.005 425.612C375.865 440.137 431.135 446.866 480.822 445.09L480.908 447.474C475.661 447.663 470.353 447.757 464.984 447.756Z" fill="#F0F0F0"/>
<path d="M569.754 432.749L568.99 430.488C609.834 416.678 635.381 394.432 642.868 366.153C652.385 330.204 631.709 288.486 584.649 248.686C537.349 208.684 469.141 175.492 392.588 155.225L393.198 152.918C470.086 173.273 538.626 206.637 586.189 246.864C633.993 287.293 654.941 329.874 645.175 366.764C637.474 395.854 611.393 418.671 569.754 432.749Z" fill="#F0F0F0"/>
<path d="M194.707 448.754C104.971 408.955 35.822 357.32 0 303.361L1.98799 302.041C37.5624 355.627 106.348 406.955 195.674 446.573L194.707 448.754Z" fill="#F0F0F0"/>
<path d="M510.213 517.703C500.957 517.703 491.543 517.496 481.971 517.083L482.073 514.699C553.507 517.792 616.533 509.243 664.352 489.973L665.245 492.187C623.531 508.995 570.364 517.703 510.213 517.703Z" fill="#F0F0F0"/>
<path d="M458.147 137.793C443.315 132.964 428.059 128.468 412.803 124.429C325.011 101.187 238.71 92.9353 163.228 100.57L162.988 98.1948C238.752 90.5353 325.348 98.8071 413.414 122.122C428.713 126.172 444.012 130.681 458.885 135.524L458.147 137.793Z" fill="#F0F0F0"/>
<path d="M40.6767 255.969C57.8265 236.741 85.1832 225.021 109.975 232.037C87.1035 248.222 70.6945 271.975 63.6509 299.094C60.9724 309.563 59.0833 321.485 50.3771 327.886C44.96 331.869 37.7822 332.82 31.1203 331.913C24.4581 331.006 18.1587 328.415 11.9444 325.848L10.2722 325.993C15.0799 300.68 23.5269 275.197 40.6767 255.969Z" fill="#F2F2F2"/>
<path d="M109.899 232.572C89.1716 237.59 70.5525 249.012 56.6864 265.215C53.6393 268.65 51.1529 272.544 49.3184 276.754C47.6639 280.912 47.1532 285.437 47.8392 289.86C48.396 293.996 49.4445 298.163 48.9861 302.362C48.7195 304.509 48.0023 306.574 46.8815 308.424C45.7606 310.273 44.2614 311.865 42.4822 313.095C38.1288 316.274 32.8926 317.699 27.7237 318.914C21.9846 320.264 16.0021 321.575 11.3238 325.39C10.757 325.852 10.0731 324.945 10.6391 324.484C18.7785 317.848 30.0904 318.7 39.0959 313.88C43.298 311.631 46.8478 308.102 47.7109 303.259C48.4656 299.025 47.388 294.727 46.7881 290.544C46.0556 286.24 46.3883 281.821 47.757 277.675C49.3712 273.386 51.7036 269.403 54.6542 265.896C61.171 257.895 68.9052 250.969 77.5736 245.371C87.4313 238.927 98.3187 234.217 109.765 231.444C110.473 231.273 110.603 232.402 109.899 232.572Z" fill="white"/>
<path d="M60.8441 259.735C58.4415 257.04 57.0752 253.578 56.9893 249.968C56.9034 246.358 58.1034 242.835 60.3751 240.029C60.8368 239.462 61.7385 240.153 61.2763 240.72C59.156 243.33 58.0385 246.612 58.1253 249.973C58.2122 253.334 59.4978 256.554 61.75 259.051C62.2388 259.594 61.3301 260.275 60.8441 259.735Z" fill="white"/>
<path d="M47.2806 287.8C54.6458 288.289 61.9247 285.984 67.666 281.345C68.2345 280.885 68.9186 281.791 68.3508 282.251C62.3673 287.067 54.7875 289.45 47.1243 288.925C46.3939 288.874 46.5542 287.749 47.2806 287.8Z" fill="white"/>
<path d="M87.6866 240.411C88.3989 241.647 89.4072 242.688 90.621 243.438C91.8347 244.189 93.216 244.627 94.6406 244.712C95.3712 244.753 95.2101 245.877 94.4842 245.836C92.9107 245.735 91.3859 245.25 90.043 244.424C88.7002 243.597 87.5801 242.455 86.7807 241.096C86.6946 240.974 86.6582 240.824 86.6787 240.676C86.6992 240.528 86.7752 240.394 86.8912 240.3C87.0116 240.21 87.1627 240.171 87.3117 240.192C87.4606 240.213 87.5953 240.291 87.6866 240.411Z" fill="white"/>
<path d="M145.166 311.859C144.709 311.846 144.252 311.833 143.79 311.828C137.645 311.687 131.499 312.046 125.413 312.9C124.941 312.959 124.464 313.025 123.995 313.097C109.353 315.312 95.25 320.226 82.4021 327.589C77.2923 330.524 72.4132 333.843 67.807 337.518C61.446 342.594 54.9528 348.603 47.5057 351.205C46.7318 351.485 45.9413 351.717 45.1387 351.899L10.5787 328.021C10.5274 327.928 10.4703 327.842 10.4186 327.748L8.99512 326.857C9.21944 326.651 9.45653 326.442 9.68085 326.236C9.81048 326.116 9.94784 326.001 10.0774 325.881C10.1663 325.803 10.2556 325.725 10.3313 325.649C10.3607 325.623 10.3906 325.597 10.4147 325.578C10.4904 325.502 10.5687 325.44 10.639 325.372C11.961 324.2 13.2936 323.036 14.6367 321.879C14.6422 321.871 14.6422 321.871 14.6553 321.868C24.9117 313.077 35.9921 305.065 47.9363 298.989C48.2957 298.806 48.6602 298.615 49.0354 298.444C54.4346 295.735 60.046 293.472 65.8138 291.677C68.9752 290.705 72.1839 289.893 75.4274 289.245C83.8113 287.586 92.404 287.257 100.89 288.269C117.807 290.289 133.89 297.696 144.375 310.846C144.643 311.183 144.904 311.514 145.166 311.859Z" fill="#F2F2F2"/>
<path d="M144.786 312.244C125.215 303.772 103.472 301.681 82.6449 306.27C78.1438 307.178 73.8141 308.79 69.815 311.047C65.9905 313.371 62.858 316.677 60.7432 320.621C58.6974 324.259 57.0261 328.217 54.1316 331.294C52.6266 332.847 50.8103 334.064 48.8018 334.866C46.7932 335.668 44.6379 336.036 42.477 335.947C37.087 335.864 32.0483 333.85 27.1892 331.708C21.7942 329.331 16.2281 326.776 10.1965 327.004C9.46563 327.032 9.46537 325.896 10.1951 325.869C20.6891 325.471 29.2082 332.962 39.3004 334.535C44.0097 335.27 48.9687 334.589 52.5733 331.242C55.7254 328.315 57.4524 324.235 59.492 320.534C61.4987 316.656 64.4244 313.329 68.0136 310.842C71.8848 308.39 76.1452 306.613 80.6124 305.59C90.6327 303.126 100.978 302.252 111.27 303.001C123.02 303.791 134.549 306.585 145.358 311.263C146.026 311.552 145.45 312.532 144.786 312.244Z" fill="white"/>
<path d="M89.264 304.398C88.9685 300.799 89.9618 297.212 92.0666 294.278C94.1714 291.344 97.2506 289.254 100.754 288.381C101.464 288.206 101.768 289.301 101.057 289.475C97.7933 290.282 94.9252 292.23 92.9708 294.966C91.0164 297.702 90.1045 301.047 90.3995 304.396C90.4628 305.124 89.3269 305.121 89.264 304.398Z" fill="white"/>
<path d="M61.5375 318.639C67.1236 323.464 74.3231 326.006 81.7003 325.759C82.4312 325.734 82.4317 326.869 81.7016 326.894C74.0243 327.138 66.5375 324.477 60.7355 319.443C60.1828 318.963 60.9878 318.162 61.5375 318.639Z" fill="white"/>
<path d="M122.331 305.129C122.155 306.545 122.334 307.983 122.851 309.313C123.368 310.643 124.207 311.824 125.294 312.75C125.852 313.223 125.047 314.024 124.492 313.554C123.296 312.526 122.371 311.22 121.796 309.752C121.222 308.284 121.015 306.697 121.195 305.13C121.2 304.981 121.261 304.84 121.366 304.734C121.472 304.628 121.613 304.567 121.762 304.562C121.913 304.563 122.057 304.622 122.163 304.729C122.27 304.835 122.33 304.979 122.331 305.129Z" fill="white"/>
<path d="M712.665 413.593C702.975 389.719 681.149 369.487 655.442 367.762C671.543 390.692 679.013 418.579 676.533 446.488C675.537 457.248 673.309 469.111 679.357 478.066C683.121 483.637 689.561 486.946 696.141 488.331C702.72 489.716 709.524 489.393 716.239 489.063L717.766 489.762C721.745 464.306 722.354 437.466 712.665 413.593Z" fill="#F2F2F2"/>
<path d="M655.333 368.291C673.168 379.984 686.865 397 694.479 416.92C696.194 421.18 697.227 425.683 697.54 430.264C697.701 434.736 696.661 439.17 694.528 443.105C692.614 446.813 690.226 450.385 689.246 454.495C688.776 456.606 688.757 458.792 689.191 460.911C689.625 463.029 690.502 465.033 691.764 466.789C694.796 471.246 699.249 474.348 703.708 477.23C708.66 480.43 713.854 483.676 716.978 488.84C717.356 489.466 718.305 488.842 717.927 488.217C712.492 479.232 701.551 476.232 694.69 468.666C691.488 465.136 689.331 460.619 690.146 455.768C690.858 451.526 693.317 447.841 695.288 444.103C697.425 440.295 698.597 436.022 698.701 431.657C698.622 427.075 697.764 422.539 696.164 418.245C692.715 408.519 687.759 399.396 681.476 391.21C674.358 381.828 665.687 373.733 655.839 367.274C655.229 366.875 654.728 367.895 655.333 368.291Z" fill="white"/>
<path d="M692.405 410.362C695.574 408.631 698.024 405.829 699.318 402.458C700.612 399.087 700.666 395.366 699.47 391.959C699.225 391.271 698.144 391.618 698.389 392.308C699.509 395.478 699.458 398.944 698.247 402.081C697.035 405.218 694.742 407.818 691.782 409.412C691.139 409.76 691.766 410.707 692.405 410.362Z" fill="white"/>
<path d="M695.747 441.352C688.646 439.338 682.565 434.72 678.717 428.421C678.336 427.797 677.387 428.421 677.767 429.044C681.784 435.592 688.122 440.384 695.516 442.464C696.221 442.662 696.448 441.549 695.747 441.352Z" fill="white"/>
<path d="M673.619 383.14C672.532 384.065 671.233 384.706 669.837 385.005C668.442 385.304 666.994 385.252 665.624 384.853C664.922 384.646 664.696 385.76 665.393 385.965C666.909 386.399 668.508 386.454 670.051 386.127C671.593 385.8 673.032 385.101 674.242 384.089C674.364 384.003 674.449 383.874 674.479 383.728C674.509 383.582 674.483 383.43 674.405 383.303C674.322 383.178 674.193 383.09 674.045 383.06C673.898 383.029 673.745 383.058 673.619 383.14Z" fill="white"/>
<path d="M595.469 431.112C595.904 431.254 596.339 431.395 596.776 431.546C602.611 433.478 608.279 435.882 613.724 438.732C614.148 438.946 614.575 439.169 614.993 439.394C628.038 446.401 639.67 455.769 649.295 467.023C653.121 471.504 656.601 476.27 659.704 481.279C663.989 488.198 668.085 496.04 674.224 500.993C674.859 501.517 675.526 502.001 676.22 502.443L716.795 491.569C716.875 491.498 716.958 491.437 717.038 491.365L718.678 491.005C718.536 490.736 718.383 490.459 718.241 490.19C718.159 490.033 718.068 489.879 717.987 489.722C717.929 489.618 717.872 489.515 717.826 489.418C717.807 489.383 717.787 489.349 717.771 489.324C717.725 489.227 717.672 489.142 717.629 489.054C716.778 487.506 715.914 485.961 715.038 484.42C715.035 484.411 715.035 484.411 715.024 484.404C708.319 472.677 700.576 461.407 691.369 451.67C691.092 451.377 690.812 451.075 690.517 450.787C686.342 446.421 681.818 442.404 676.989 438.775C674.338 436.796 671.589 434.953 668.752 433.253C661.413 428.873 653.431 425.675 645.098 423.776C628.487 419.992 610.85 421.563 596.555 430.424C596.189 430.651 595.832 430.876 595.469 431.112Z" fill="#F2F2F2"/>
<path d="M595.698 431.603C616.978 430.201 638.159 435.54 656.232 446.862C660.166 449.23 663.702 452.204 666.71 455.673C669.531 459.147 671.37 463.313 672.036 467.739C672.74 471.853 672.984 476.142 674.676 480.013C675.571 481.982 676.873 483.739 678.495 485.169C680.117 486.6 682.023 487.671 684.089 488.313C689.193 490.047 694.616 489.843 699.912 489.459C705.792 489.033 711.893 488.497 717.497 490.74C718.176 491.012 718.558 489.942 717.88 489.671C708.13 485.769 697.589 489.961 687.555 488.051C682.873 487.16 678.431 484.852 676.161 480.488C674.176 476.673 673.921 472.249 673.244 468.078C672.657 463.751 671.02 459.634 668.475 456.086C665.654 452.475 662.238 449.37 658.375 446.905C649.766 441.216 640.316 436.916 630.371 434.162C619.038 430.957 607.241 429.713 595.489 430.486C594.762 430.534 594.976 431.65 595.698 431.603Z" fill="white"/>
<path d="M650.627 442.874C652.115 439.584 652.385 435.872 651.389 432.402C650.392 428.931 648.195 425.927 645.189 423.927C644.579 423.525 643.925 424.453 644.535 424.856C647.338 426.714 649.385 429.512 650.306 432.745C651.227 435.979 650.962 439.436 649.558 442.491C649.254 443.156 650.325 443.535 650.627 442.874Z" fill="white"/>
<path d="M671.954 465.606C665.071 468.273 657.436 468.247 650.571 465.535C649.891 465.266 649.509 466.335 650.188 466.604C657.337 469.413 665.283 469.424 672.439 466.633C673.121 466.366 672.632 465.341 671.954 465.606Z" fill="white"/>
<path d="M619.238 432.449C618.928 433.842 618.276 435.136 617.342 436.215C616.408 437.294 615.22 438.124 613.886 438.631C613.201 438.888 613.691 439.913 614.371 439.657C615.843 439.091 617.153 438.173 618.188 436.983C619.223 435.793 619.95 434.368 620.307 432.832C620.353 432.69 620.343 432.536 620.279 432.401C620.215 432.266 620.103 432.161 619.964 432.106C619.822 432.056 619.666 432.064 619.531 432.128C619.395 432.193 619.29 432.308 619.238 432.449Z" fill="white"/>
<path d="M524.682 494.886C529.955 494.886 534.229 490.612 534.229 485.34C534.229 480.068 529.955 475.794 524.682 475.794C519.41 475.794 515.136 480.068 515.136 485.34C515.136 490.612 519.41 494.886 524.682 494.886Z" fill="#FD6584"/>
<path d="M558.496 332.296C563.768 332.296 568.042 328.022 568.042 322.75C568.042 317.478 563.768 313.204 558.496 313.204C553.224 313.204 548.95 317.478 548.95 322.75C548.95 328.022 553.224 332.296 558.496 332.296Z" fill="#E6E6E6"/>
<path d="M380.867 67.5076C386.14 67.5076 390.413 63.2337 390.413 57.9615C390.413 52.6894 386.14 48.4155 380.867 48.4155C375.595 48.4155 371.321 52.6894 371.321 57.9615C371.321 63.2337 375.595 67.5076 380.867 67.5076Z" fill="#E6E6E6"/>
<path d="M180.826 424.146C180.826 426.576 180.906 429.006 181.076 431.416C181.256 434.296 181.566 437.156 181.986 439.996C183.397 449.558 186.095 458.886 190.006 467.726C190.205 468.166 190.405 468.606 190.606 469.046L190.906 469.706C191.006 469.926 191.116 470.146 191.216 470.356C191.356 470.646 191.486 470.926 191.626 471.206C191.796 471.556 191.966 471.906 192.146 472.256C192.166 472.296 192.186 472.346 192.216 472.396C192.366 472.696 192.506 472.986 192.666 473.286C192.695 473.351 192.728 473.414 192.766 473.476C192.936 473.816 193.116 474.166 193.296 474.506C193.496 474.866 193.686 475.236 193.886 475.596C194.366 476.486 194.866 477.366 195.376 478.246C195.526 478.506 195.676 478.766 195.836 479.026C195.976 479.266 196.116 479.506 196.266 479.746C196.366 479.906 196.466 480.076 196.566 480.236C196.726 480.506 196.886 480.766 197.056 481.036C197.426 481.626 197.806 482.216 198.176 482.806H198.186C198.356 483.076 198.536 483.346 198.716 483.606V483.616C199.246 484.416 199.796 485.216 200.346 486.006L200.349 486.006L200.353 486.008L200.355 486.012L200.356 486.016C200.796 486.656 201.256 487.276 201.706 487.896V487.906C202.006 488.296 202.296 488.696 202.596 489.086C202.836 489.406 203.086 489.736 203.336 490.056C203.386 490.126 203.446 490.186 203.496 490.256V490.266C203.566 490.356 203.636 490.436 203.706 490.526C204.766 491.886 205.859 493.216 206.986 494.516L207.166 494.726C207.226 494.796 207.296 494.866 207.356 494.946C207.456 495.056 207.546 495.166 207.646 495.276C207.736 495.386 207.836 495.496 207.936 495.606C213.809 502.221 220.468 508.095 227.766 513.096C228.736 513.766 229.726 514.416 230.716 515.046C230.966 515.206 231.216 515.366 231.466 515.516C231.536 515.566 231.616 515.616 231.686 515.666C231.826 515.746 231.956 515.826 232.096 515.916C232.226 515.996 232.356 516.076 232.496 516.156C233.026 516.486 233.566 516.806 234.106 517.126C234.236 517.206 234.376 517.286 234.516 517.366C234.646 517.436 234.786 517.516 234.926 517.596C234.926 517.606 234.926 517.606 234.936 517.606H234.946V517.616H234.956C235.626 518.006 236.306 518.386 236.996 518.756C237.366 518.956 237.746 519.166 238.126 519.356C238.986 519.826 239.856 520.276 240.726 520.706C241.036 520.856 241.356 521.006 241.666 521.166C241.926 521.286 242.186 521.416 242.446 521.536C242.526 521.576 242.596 521.606 242.666 521.646C242.886 521.746 243.096 521.846 243.316 521.946C243.556 522.056 243.796 522.166 244.026 522.276C244.296 522.396 244.556 522.516 244.826 522.626C245.826 523.076 246.836 523.506 247.846 523.916C251.465 525.399 255.164 526.681 258.926 527.756C259.096 527.806 259.276 527.856 259.456 527.906C261.066 528.356 262.686 528.766 264.316 529.136C267.166 529.796 270.042 530.336 272.946 530.756H272.966C273.316 530.806 273.656 530.856 274.006 530.906C274.036 530.906 274.066 530.916 274.106 530.916C274.106 530.926 274.106 530.926 274.116 530.916C274.496 530.966 274.886 531.016 275.266 531.066C275.292 531.073 275.319 531.077 275.346 531.076C275.706 531.126 276.076 531.166 276.436 531.206C276.826 531.246 277.216 531.286 277.606 531.326C277.906 531.356 278.206 531.386 278.506 531.416C278.531 531.424 278.559 531.428 278.586 531.426C278.856 531.446 279.126 531.476 279.396 531.496H279.436C279.666 531.516 279.906 531.536 280.136 531.556C282.926 531.776 285.726 531.876 288.566 531.876C291.636 531.876 294.686 531.756 297.696 531.496H297.726C298.376 531.436 299.016 531.376 299.656 531.316C299.826 531.296 299.986 531.286 300.156 531.266C300.186 531.266 300.226 531.256 300.256 531.256C300.306 531.246 300.356 531.246 300.416 531.236C300.443 531.237 300.47 531.233 300.496 531.226C300.716 531.206 300.936 531.176 301.166 531.156L301.916 531.066C302.166 531.036 302.416 530.996 302.666 530.966C302.726 530.956 302.776 530.956 302.836 530.946C303.016 530.926 303.196 530.896 303.376 530.866C303.466 530.856 303.556 530.846 303.636 530.836C303.816 530.806 303.986 530.786 304.166 530.756H304.176C309.663 529.966 315.08 528.745 320.376 527.106C320.656 527.016 320.936 526.936 321.216 526.846C321.226 526.846 321.236 526.836 321.246 526.836C321.326 526.806 321.416 526.786 321.496 526.756C322.246 526.516 322.986 526.266 323.726 526.006C324.746 525.666 325.756 525.296 326.766 524.916C327.036 524.806 327.306 524.706 327.576 524.596C328.126 524.386 328.666 524.166 329.206 523.946C330.126 523.576 331.046 523.186 331.956 522.786C332.806 522.406 333.646 522.026 334.486 521.626C334.506 521.616 334.536 521.616 334.556 521.596C334.746 521.506 334.936 521.416 335.116 521.326H335.126C339.731 519.116 344.172 516.579 348.416 513.736C349.776 512.826 351.116 511.886 352.436 510.916C353.496 510.126 354.536 509.326 355.576 508.506C360.706 504.425 365.456 499.886 369.766 494.946V494.936C370.076 494.596 370.366 494.246 370.666 493.896C370.716 493.846 370.756 493.796 370.796 493.756C370.986 493.526 371.166 493.306 371.356 493.086V493.076C371.606 492.786 371.856 492.486 372.096 492.186C372.156 492.116 372.206 492.056 372.256 491.996V491.986C372.456 491.746 372.646 491.506 372.846 491.256C372.946 491.136 373.036 491.016 373.136 490.896V490.886C373.726 490.146 374.296 489.406 374.866 488.646C375.016 488.446 375.166 488.236 375.326 488.026C376.046 487.056 376.746 486.066 377.426 485.076V485.066C377.686 484.696 377.936 484.316 378.196 483.946C378.446 483.566 378.696 483.186 378.946 482.806C379.196 482.406 379.456 482.016 379.706 481.616L379.736 481.556C379.986 481.176 380.236 480.776 380.476 480.386C380.666 480.066 380.856 479.756 381.046 479.446C381.166 479.236 381.296 479.026 381.416 478.806C381.463 478.738 381.506 478.668 381.546 478.596C381.826 478.106 382.106 477.616 382.386 477.126C382.716 476.556 383.036 475.976 383.356 475.396C383.476 475.156 383.606 474.916 383.736 474.676C383.786 474.596 383.826 474.516 383.866 474.436C384.016 474.156 384.166 473.866 384.306 473.576C384.456 473.296 384.606 473.006 384.756 472.716C384.896 472.436 385.046 472.146 385.186 471.856C385.296 471.636 385.396 471.416 385.506 471.196C385.513 471.178 385.523 471.161 385.536 471.146C385.586 471.036 385.636 470.936 385.676 470.836C385.688 470.821 385.698 470.804 385.706 470.786C385.816 470.566 385.916 470.336 386.026 470.116C386.166 469.826 386.296 469.526 386.436 469.236C386.526 469.036 386.626 468.826 386.716 468.616C386.846 468.326 386.986 468.036 387.106 467.736C387.246 467.436 387.376 467.136 387.506 466.826C387.543 466.751 387.576 466.674 387.606 466.596C387.676 466.456 387.726 466.316 387.786 466.176C387.946 465.806 388.106 465.426 388.256 465.056C388.436 464.636 388.606 464.206 388.766 463.786C388.926 463.396 389.076 462.996 389.226 462.596L389.286 462.456C391.616 456.319 393.383 449.983 394.566 443.526V443.516C395.233 439.829 395.71 436.111 395.996 432.376C396.006 432.166 396.026 431.966 396.036 431.766C396.216 429.236 396.296 426.696 396.296 424.146C396.296 423.016 396.276 421.896 396.246 420.776C395.548 397.352 387.195 374.802 372.466 356.576C372.146 356.176 371.826 355.776 371.496 355.376C371.166 354.976 370.826 354.586 370.496 354.196C359.533 341.358 345.708 331.275 330.134 324.761C314.56 318.247 297.673 315.483 280.835 316.693C263.997 317.902 247.679 323.051 233.196 331.725C218.713 340.398 206.47 352.353 197.456 366.626C196.966 367.406 196.476 368.196 196.006 368.986C195.526 369.786 195.066 370.586 194.606 371.396C185.546 387.499 180.8 405.669 180.826 424.146Z" fill="#F2F2F2"/>
<path d="M284.283 353.679C301.999 358.225 320.154 360.845 338.432 361.495C341.196 361.645 343.966 361.626 346.728 361.438C352.797 360.928 357.995 359.02 363.785 357.978C366.568 357.478 369.669 357.113 372.471 356.573C371.823 355.769 371.164 354.976 370.493 354.192C364.451 354.703 358.315 356.374 352.2 357.15C341.806 358.472 330.16 356.997 322.28 353.36C318.457 351.594 315.528 349.391 311.719 347.618C311.201 347.352 310.639 347.18 310.061 347.111C308.963 347.078 307.878 347.359 306.934 347.922C300.543 351.148 291.263 353.771 282.65 352.328C282.008 352.83 283.228 353.403 284.283 353.679Z" fill="white"/>
<path d="M246.169 365.034C246.09 365.02 246.011 365.009 245.932 364.995C246.263 364.79 246.575 364.555 246.863 364.294L246.169 365.034Z" fill="white"/>
<path d="M194.608 371.4C198.205 371.687 201.821 371.901 205.456 372.042C208.22 372.191 210.991 372.172 213.752 371.986C219.821 371.472 225.02 369.568 230.809 368.525C236.115 367.572 242.563 367.112 245.932 364.995C237.225 363.488 228.203 366.556 219.225 367.698C211.962 368.591 204.6 368.227 197.461 366.623C196.467 368.187 195.516 369.779 194.608 371.4Z" fill="white"/>
<path d="M303.114 288.856C302.464 288.854 301.82 288.724 301.22 288.473C300.325 288.114 299.559 287.492 299.023 286.69C298.487 285.888 298.206 284.943 298.216 283.978V279.091C298.215 278.066 297.808 277.083 297.083 276.358C296.358 275.633 295.375 275.225 294.35 275.224C293.06 275.223 291.823 274.709 290.91 273.797C289.998 272.885 289.485 271.648 289.483 270.357V203.402C289.485 202.112 289.998 200.875 290.91 199.963C291.822 199.05 293.059 198.537 294.35 198.536H516.176C517.467 198.537 518.704 199.05 519.616 199.963C520.528 200.875 521.042 202.112 521.043 203.402V270.357C521.042 271.648 520.528 272.885 519.616 273.797C518.704 274.709 517.467 275.223 516.176 275.224H320.321C319.813 275.223 319.31 275.322 318.84 275.516C318.371 275.711 317.945 275.996 317.586 276.356L306.524 287.418C306.079 287.872 305.549 288.233 304.963 288.479C304.378 288.726 303.749 288.854 303.114 288.856Z" fill="white"/>
<path d="M303.114 289.856C302.332 289.855 301.558 289.699 300.837 289.397C299.758 288.963 298.835 288.214 298.189 287.247C297.543 286.28 297.204 285.141 297.216 283.978V279.091C297.216 278.331 296.913 277.603 296.376 277.065C295.839 276.527 295.11 276.225 294.35 276.224C292.795 276.222 291.303 275.604 290.204 274.504C289.104 273.404 288.485 271.912 288.483 270.357V203.402C288.485 201.847 289.104 200.356 290.203 199.256C291.303 198.156 292.794 197.537 294.35 197.536H516.176C517.732 197.537 519.223 198.156 520.323 199.256C521.423 200.356 522.041 201.847 522.043 203.402V270.357C522.041 271.912 521.423 273.404 520.323 274.504C519.223 275.604 517.732 276.222 516.176 276.224H320.321C319.944 276.223 319.571 276.297 319.223 276.441C318.875 276.585 318.559 276.797 318.293 277.064L307.231 288.125C306.694 288.672 306.053 289.106 305.346 289.403C304.639 289.7 303.881 289.854 303.114 289.856ZM294.35 199.536C293.325 199.537 292.342 199.945 291.617 200.67C290.892 201.394 290.484 202.377 290.483 203.402V270.357C290.484 271.382 290.892 272.365 291.617 273.09C292.342 273.815 293.325 274.223 294.35 274.224C295.64 274.226 296.877 274.739 297.79 275.652C298.702 276.564 299.215 277.801 299.216 279.091V283.978C299.217 284.743 299.443 285.49 299.868 286.126C300.293 286.762 300.897 287.257 301.604 287.55C302.31 287.842 303.087 287.919 303.837 287.769C304.587 287.62 305.276 287.252 305.817 286.711L316.879 275.65C317.33 275.196 317.866 274.837 318.457 274.592C319.048 274.347 319.681 274.222 320.321 274.224H516.176C517.202 274.223 518.185 273.815 518.909 273.09C519.634 272.365 520.042 271.382 520.043 270.357V203.402C520.042 202.377 519.634 201.394 518.909 200.669C518.184 199.944 517.201 199.537 516.176 199.536L294.35 199.536Z" fill="#3F3D56"/>
<path d="M497.114 228.848H317.236C316.549 228.848 315.89 228.575 315.404 228.089C314.918 227.603 314.645 226.944 314.645 226.257C314.645 225.57 314.918 224.911 315.404 224.425C315.89 223.939 316.549 223.667 317.236 223.667H497.114C497.801 223.667 498.46 223.939 498.946 224.425C499.432 224.911 499.705 225.57 499.705 226.257C499.705 226.944 499.432 227.603 498.946 228.089C498.46 228.575 497.801 228.848 497.114 228.848Z" fill="#2FA4DA"/>
<path d="M496.784 239.855H317.236C316.549 239.855 315.89 239.582 315.404 239.096C314.918 238.61 314.645 237.951 314.645 237.264C314.645 236.577 314.918 235.918 315.404 235.432C315.89 234.946 316.549 234.673 317.236 234.673H496.784C497.471 234.673 498.13 234.946 498.616 235.432C499.102 235.918 499.374 236.577 499.374 237.264C499.374 237.951 499.102 238.61 498.616 239.096C498.13 239.582 497.471 239.855 496.784 239.855Z" fill="#E6E6E6"/>
<path d="M496.605 250.861H317.236C316.549 250.861 315.89 250.588 315.404 250.102C314.918 249.617 314.645 248.958 314.645 248.271C314.645 247.583 314.918 246.924 315.404 246.439C315.89 245.953 316.549 245.68 317.236 245.68H496.605C497.292 245.68 497.951 245.953 498.437 246.439C498.923 246.924 499.196 247.583 499.196 248.271C499.196 248.958 498.923 249.617 498.437 250.102C497.951 250.588 497.292 250.861 496.605 250.861Z" fill="#E6E6E6"/>
<path d="M780.385 188.146C780.385 190.576 780.305 193.006 780.135 195.416C779.956 198.296 779.646 201.156 779.226 203.996C777.814 213.558 775.116 222.886 771.206 231.726C771.006 232.166 770.806 232.606 770.606 233.046L770.305 233.706C770.205 233.926 770.095 234.146 769.995 234.356C769.855 234.646 769.726 234.926 769.586 235.206C769.416 235.556 769.245 235.906 769.065 236.256C769.045 236.296 769.025 236.346 768.995 236.396C768.845 236.696 768.706 236.986 768.546 237.286C768.516 237.351 768.483 237.414 768.445 237.476C768.275 237.816 768.096 238.166 767.916 238.506C767.716 238.866 767.525 239.236 767.326 239.596C766.846 240.486 766.346 241.366 765.836 242.246C765.686 242.506 765.535 242.766 765.375 243.026C765.235 243.266 765.095 243.506 764.945 243.746C764.845 243.906 764.745 244.076 764.645 244.236C764.485 244.506 764.325 244.766 764.155 245.036C763.785 245.626 763.405 246.216 763.035 246.806H763.025C762.855 247.076 762.675 247.346 762.495 247.606V247.616C761.965 248.416 761.415 249.216 760.865 250.006C760.864 250.006 760.863 250.006 760.862 250.006C760.86 250.007 760.859 250.008 760.858 250.009C760.857 250.009 760.857 250.011 760.856 250.012C760.856 250.013 760.855 250.014 760.855 250.016C760.415 250.656 759.955 251.276 759.505 251.896V251.906C759.205 252.296 758.915 252.696 758.615 253.086C758.375 253.406 758.125 253.736 757.875 254.056C757.825 254.126 757.765 254.186 757.715 254.256V254.266C757.645 254.356 757.575 254.436 757.505 254.526C756.445 255.886 755.352 257.216 754.225 258.516L754.045 258.726C753.985 258.796 753.915 258.866 753.855 258.946C753.755 259.056 753.665 259.166 753.565 259.276C753.475 259.386 753.375 259.496 753.275 259.606C747.402 266.221 740.743 272.095 733.445 277.096C732.475 277.766 731.485 278.416 730.495 279.046C730.245 279.206 729.995 279.366 729.745 279.516C729.675 279.566 729.595 279.616 729.525 279.666C729.385 279.746 729.255 279.826 729.115 279.916C728.985 279.996 728.855 280.076 728.715 280.156C728.185 280.486 727.645 280.806 727.105 281.126C726.975 281.206 726.835 281.286 726.695 281.366C726.565 281.436 726.425 281.516 726.285 281.596C726.285 281.606 726.285 281.606 726.275 281.606H726.265V281.616H726.255C725.585 282.006 724.905 282.386 724.215 282.756C723.845 282.956 723.465 283.166 723.085 283.356C722.225 283.826 721.355 284.276 720.485 284.706C720.175 284.856 719.855 285.006 719.545 285.166C719.285 285.286 719.025 285.416 718.765 285.536C718.685 285.576 718.615 285.606 718.545 285.646C718.325 285.746 718.115 285.846 717.895 285.946C717.655 286.056 717.415 286.166 717.185 286.276C716.915 286.396 716.655 286.516 716.385 286.626C715.385 287.076 714.375 287.506 713.365 287.916C709.746 289.399 706.047 290.681 702.285 291.756C702.115 291.806 701.935 291.856 701.755 291.906C700.145 292.356 698.525 292.766 696.895 293.136C694.045 293.796 691.169 294.336 688.265 294.756H688.245C687.895 294.806 687.555 294.856 687.205 294.906C687.175 294.906 687.145 294.916 687.105 294.916C687.105 294.926 687.105 294.926 687.095 294.916C686.715 294.966 686.325 295.016 685.945 295.066C685.919 295.073 685.892 295.077 685.865 295.076C685.505 295.126 685.135 295.166 684.775 295.206C684.385 295.246 683.995 295.286 683.605 295.326C683.305 295.356 683.005 295.386 682.705 295.416C682.68 295.425 682.652 295.428 682.625 295.426C682.355 295.446 682.085 295.476 681.815 295.496H681.775C681.545 295.516 681.305 295.536 681.075 295.556C678.285 295.776 675.485 295.876 672.645 295.876C669.575 295.876 666.525 295.756 663.515 295.496H663.485C662.835 295.436 662.195 295.376 661.555 295.316C661.385 295.296 661.225 295.286 661.055 295.266C661.025 295.266 660.985 295.256 660.955 295.256C660.905 295.246 660.855 295.246 660.795 295.236C660.768 295.237 660.741 295.233 660.715 295.226C660.495 295.206 660.275 295.176 660.045 295.156L659.295 295.066C659.045 295.036 658.795 294.996 658.545 294.966C658.485 294.956 658.435 294.956 658.375 294.946C658.195 294.926 658.015 294.896 657.835 294.866C657.745 294.856 657.655 294.846 657.575 294.836C657.395 294.806 657.225 294.786 657.045 294.756H657.035C651.548 293.966 646.131 292.745 640.835 291.106C640.555 291.016 640.275 290.936 639.995 290.846C639.985 290.846 639.975 290.836 639.965 290.836C639.885 290.806 639.795 290.786 639.715 290.756C638.965 290.516 638.225 290.266 637.485 290.006C636.465 289.666 635.455 289.296 634.445 288.916C634.175 288.806 633.905 288.706 633.635 288.596C633.085 288.386 632.545 288.166 632.005 287.946C631.085 287.576 630.165 287.186 629.255 286.786C628.405 286.406 627.565 286.026 626.725 285.626C626.705 285.616 626.675 285.616 626.655 285.596C626.465 285.506 626.275 285.416 626.095 285.326H626.085C621.48 283.116 617.039 280.579 612.795 277.736C611.435 276.826 610.095 275.886 608.775 274.916C607.715 274.126 606.675 273.326 605.635 272.506C600.505 268.425 595.755 263.886 591.445 258.946V258.936C591.135 258.596 590.845 258.246 590.545 257.896C590.495 257.846 590.455 257.796 590.415 257.756C590.225 257.526 590.045 257.306 589.855 257.086V257.076C589.605 256.786 589.355 256.486 589.115 256.186C589.055 256.116 589.005 256.056 588.955 255.996V255.986C588.755 255.746 588.565 255.506 588.365 255.256C588.265 255.136 588.175 255.016 588.075 254.896V254.886C587.485 254.146 586.915 253.406 586.345 252.646C586.195 252.446 586.045 252.236 585.885 252.026C585.165 251.056 584.465 250.066 583.785 249.076V249.066C583.525 248.696 583.275 248.316 583.015 247.946C582.765 247.566 582.515 247.186 582.265 246.806C582.015 246.406 581.755 246.016 581.505 245.616L581.475 245.556C581.225 245.176 580.975 244.776 580.735 244.386C580.545 244.066 580.355 243.756 580.165 243.446C580.045 243.236 579.915 243.026 579.795 242.806C579.748 242.738 579.705 242.668 579.665 242.596C579.385 242.106 579.105 241.616 578.825 241.126C578.495 240.556 578.175 239.976 577.855 239.396C577.735 239.156 577.605 238.916 577.475 238.676C577.425 238.596 577.385 238.516 577.345 238.436C577.195 238.156 577.045 237.866 576.905 237.576C576.755 237.296 576.605 237.006 576.455 236.716C576.315 236.436 576.165 236.146 576.025 235.856C575.915 235.636 575.815 235.416 575.705 235.196C575.698 235.178 575.688 235.161 575.675 235.146C575.625 235.036 575.575 234.936 575.535 234.836C575.523 234.821 575.513 234.804 575.505 234.786C575.395 234.566 575.295 234.336 575.185 234.116C575.045 233.826 574.915 233.526 574.775 233.236C574.685 233.036 574.585 232.826 574.495 232.616C574.365 232.326 574.225 232.036 574.105 231.736C573.965 231.436 573.835 231.136 573.705 230.826C573.668 230.751 573.635 230.674 573.605 230.596C573.535 230.456 573.485 230.316 573.425 230.176C573.265 229.806 573.105 229.426 572.955 229.056C572.775 228.636 572.605 228.206 572.445 227.786C572.285 227.396 572.135 226.996 571.985 226.596L571.925 226.456C569.595 220.319 567.828 213.983 566.645 207.526V207.516C565.978 203.829 565.501 200.111 565.215 196.376C565.205 196.166 565.185 195.966 565.175 195.766C564.995 193.236 564.915 190.696 564.915 188.146C564.915 187.016 564.935 185.896 564.965 184.776C565.663 161.352 574.016 138.802 588.745 120.576C589.065 120.176 589.385 119.776 589.715 119.376C590.045 118.976 590.385 118.586 590.715 118.196C601.678 105.358 615.503 95.2754 631.077 88.7612C646.651 82.2469 663.538 79.4832 680.376 80.6927C697.214 81.9022 713.532 87.0512 728.015 95.7245C742.498 104.398 754.741 116.353 763.755 130.626C764.245 131.406 764.735 132.196 765.205 132.986C765.685 133.786 766.145 134.586 766.605 135.396C775.665 151.499 780.411 169.669 780.385 188.146Z" fill="#F2F2F2"/>
<path d="M676.928 117.679C659.212 122.225 641.057 124.845 622.779 125.495C620.015 125.645 617.245 125.626 614.483 125.438C608.414 124.928 603.216 123.02 597.426 121.978C594.643 121.478 591.542 121.113 588.74 120.573C589.388 119.769 590.047 118.976 590.718 118.192C596.76 118.703 602.896 120.374 609.011 121.15C619.405 122.472 631.051 120.997 638.931 117.359C642.754 115.594 645.683 113.391 649.492 111.618C650.01 111.352 650.571 111.18 651.15 111.111C652.248 111.078 653.333 111.359 654.277 111.922C660.668 115.148 669.948 117.771 678.561 116.328C679.203 116.83 677.983 117.402 676.928 117.679Z" fill="white"/>
<path d="M715.042 129.034C715.121 129.02 715.2 129.009 715.279 128.995C714.948 128.79 714.636 128.555 714.348 128.294L715.042 129.034Z" fill="white"/>
<path d="M766.603 135.4C763.006 135.687 759.39 135.901 755.755 136.042C752.991 136.191 750.22 136.172 747.459 135.986C741.39 135.472 736.191 133.568 730.402 132.525C725.096 131.572 718.648 131.112 715.279 128.995C723.986 127.488 733.007 130.556 741.986 131.698C749.249 132.591 756.611 132.227 763.75 130.623C764.744 132.187 765.695 133.779 766.603 135.4Z" fill="white"/>
<path d="M660.5 235.287C678.371 235.287 692.859 220.477 692.859 202.207C692.859 183.938 678.371 169.128 660.5 169.128C642.629 169.128 628.142 183.938 628.142 202.207C628.142 220.477 642.629 235.287 660.5 235.287Z" fill="#FFB6B6"/>
<path d="M723.085 283.356C722.225 283.826 721.355 284.276 720.485 284.706C720.175 284.856 719.855 285.006 719.545 285.166C719.285 285.286 719.025 285.416 718.765 285.536C718.685 285.576 718.615 285.606 718.545 285.646C718.325 285.746 718.115 285.846 717.895 285.946C717.655 286.056 717.415 286.166 717.185 286.276C716.915 286.396 716.655 286.516 716.385 286.626C715.385 287.076 714.375 287.506 713.365 287.916C709.746 289.399 706.047 290.681 702.285 291.756C702.115 291.806 701.935 291.856 701.755 291.906C700.145 292.356 698.525 292.766 696.895 293.136C694.045 293.796 691.169 294.336 688.265 294.756H688.245C687.895 294.806 687.555 294.856 687.205 294.906C687.175 294.906 687.145 294.916 687.105 294.916C687.105 294.926 687.105 294.926 687.095 294.916C686.715 294.966 686.325 295.016 685.945 295.066C685.919 295.073 685.892 295.077 685.865 295.076C685.505 295.126 685.135 295.166 684.775 295.206C684.385 295.246 683.995 295.286 683.605 295.326C683.305 295.356 683.005 295.386 682.705 295.416C682.68 295.425 682.652 295.428 682.625 295.426C682.355 295.446 682.085 295.476 681.815 295.496H681.775C681.545 295.516 681.305 295.536 681.075 295.556C678.285 295.776 675.485 295.876 672.645 295.876C669.575 295.876 666.525 295.756 663.515 295.496H663.485C662.835 295.436 662.195 295.376 661.555 295.316C661.385 295.296 661.225 295.286 661.055 295.266C661.025 295.266 660.985 295.256 660.955 295.256C660.905 295.246 660.855 295.246 660.795 295.236C660.768 295.237 660.741 295.233 660.715 295.226C660.495 295.206 660.275 295.176 660.045 295.156L659.295 295.066C659.045 295.036 658.795 294.996 658.545 294.966C658.485 294.956 658.435 294.956 658.375 294.946C658.195 294.926 658.015 294.896 657.835 294.866C657.745 294.856 657.655 294.846 657.575 294.836C657.395 294.806 657.225 294.786 657.045 294.756H657.035C651.548 293.966 646.131 292.745 640.835 291.106C640.555 291.016 640.275 290.936 639.995 290.846C641.287 284.824 643.945 279.18 647.765 274.349C651.584 269.519 656.464 265.631 662.025 262.986C660.65 261.675 659.699 259.982 659.295 258.126C659.036 256.929 659.015 255.693 659.235 254.488C659.454 253.283 659.91 252.134 660.575 251.106C661.873 249.113 663.909 247.718 666.235 247.226L681.055 244.126C683.441 243.661 685.914 244.156 687.936 245.504C689.959 246.853 691.367 248.945 691.855 251.326C692.007 252.056 692.074 252.801 692.055 253.546C706.325 263.046 716.595 272.896 723.085 283.356Z" fill="#2FA4DA"/>
<path d="M747.088 187.861C741.588 181.447 738.973 172.937 734.576 165.653C730.179 158.369 722.527 151.851 714.443 153.546C708.871 154.714 704.565 159.631 702.384 165.113C700.205 170.595 699.796 176.641 699.414 182.563C699.549 170.392 691.53 158.593 680.484 154.709C669.439 150.826 656.22 155.158 649.279 164.936C646.25 162.129 642.297 160.53 638.168 160.443C634.039 160.357 630.022 161.788 626.878 164.466C620.669 170.014 619.295 180.576 623.861 187.653C628.427 194.731 638.315 197.367 645.571 193.442L648.136 195.802C646.692 200.852 649.492 206.817 654.199 208.718C658.016 210.26 663.404 210.003 664.833 214.009C665.831 216.808 663.965 219.795 661.981 221.946C659.997 224.096 657.641 226.317 657.402 229.293C657.042 233.784 661.683 236.929 665.901 237.877C676.072 240.161 687.358 235.451 693.221 226.475C693.334 226.301 693.457 226.128 693.589 225.955C696.878 221.748 699.275 216.916 700.634 211.752C701.992 206.588 702.283 201.201 701.49 195.921C701.16 193.846 701.492 192.303 702.923 191.812C709.105 189.688 726.427 194.145 731.669 198.174C736.912 202.202 741.11 207.533 746.159 211.822C751.209 216.11 757.644 219.418 764.055 218.25C769.19 217.315 773.559 213.587 776.497 209.09C779.435 204.593 781.126 199.352 782.641 194.143C771.286 200.702 755.746 197.957 747.088 187.861Z" fill="#2F2E41"/>
<path d="M82.8255 121.146C82.8255 123.576 82.9055 126.006 83.0755 128.416C83.2555 131.296 83.5655 134.156 83.9855 136.996C85.397 146.558 88.0948 155.886 92.0055 164.726C92.2055 165.166 92.4055 165.606 92.6055 166.046L92.9055 166.706C93.0055 166.926 93.1155 167.146 93.2155 167.356C93.3555 167.646 93.4855 167.926 93.6255 168.206C93.7955 168.556 93.9655 168.906 94.1455 169.256C94.1655 169.296 94.1855 169.346 94.2155 169.396C94.3655 169.696 94.5055 169.986 94.6655 170.286C94.6949 170.351 94.7283 170.414 94.7655 170.476C94.9355 170.816 95.1155 171.166 95.2955 171.506C95.4955 171.866 95.6855 172.236 95.8855 172.596C96.3655 173.486 96.8655 174.366 97.3755 175.246C97.5255 175.506 97.6755 175.766 97.8355 176.026C97.9755 176.266 98.1155 176.506 98.2655 176.746C98.3655 176.906 98.4655 177.076 98.5655 177.236C98.7255 177.506 98.8855 177.766 99.0555 178.036C99.4255 178.626 99.8055 179.216 100.176 179.806H100.186C100.356 180.076 100.536 180.346 100.716 180.606V180.616C101.246 181.416 101.796 182.216 102.346 183.006C102.347 183.006 102.348 183.006 102.349 183.006C102.351 183.007 102.352 183.008 102.353 183.008C102.354 183.009 102.354 183.011 102.355 183.012C102.355 183.013 102.356 183.014 102.356 183.016C102.796 183.656 103.256 184.276 103.706 184.896V184.906C104.006 185.296 104.296 185.696 104.596 186.086C104.836 186.406 105.086 186.736 105.336 187.056C105.386 187.126 105.446 187.186 105.496 187.256V187.266C105.566 187.356 105.636 187.436 105.706 187.526C106.766 188.886 107.859 190.216 108.986 191.516L109.166 191.726C109.226 191.796 109.296 191.866 109.356 191.946C109.456 192.056 109.546 192.166 109.646 192.276C109.736 192.386 109.836 192.496 109.936 192.606C115.809 199.221 122.468 205.095 129.766 210.096C130.736 210.766 131.726 211.416 132.716 212.046C132.966 212.206 133.216 212.366 133.466 212.516C133.536 212.566 133.616 212.616 133.686 212.666C133.826 212.746 133.956 212.826 134.096 212.916C134.226 212.996 134.356 213.076 134.496 213.156C135.026 213.486 135.566 213.806 136.106 214.126C136.236 214.206 136.376 214.286 136.516 214.366C136.646 214.436 136.786 214.516 136.926 214.596C136.926 214.606 136.926 214.606 136.936 214.606H136.946V214.616H136.956C137.626 215.006 138.306 215.386 138.996 215.756C139.366 215.956 139.746 216.166 140.126 216.356C140.986 216.826 141.856 217.276 142.726 217.706C143.036 217.856 143.356 218.006 143.666 218.166C143.926 218.286 144.186 218.416 144.446 218.536C144.526 218.576 144.596 218.606 144.666 218.646C144.886 218.746 145.096 218.846 145.316 218.946C145.556 219.056 145.796 219.166 146.026 219.276C146.296 219.396 146.556 219.516 146.826 219.626C147.826 220.076 148.836 220.506 149.846 220.916C153.465 222.399 157.164 223.681 160.926 224.756C161.096 224.806 161.276 224.856 161.456 224.906C163.066 225.356 164.686 225.766 166.316 226.136C169.166 226.796 172.042 227.336 174.946 227.756H174.966C175.316 227.806 175.656 227.856 176.006 227.906C176.036 227.906 176.066 227.916 176.106 227.916C176.106 227.926 176.106 227.926 176.116 227.916C176.496 227.966 176.886 228.016 177.266 228.066C177.292 228.073 177.319 228.077 177.346 228.076C177.706 228.126 178.076 228.166 178.436 228.206C178.826 228.246 179.216 228.286 179.606 228.326C179.906 228.356 180.206 228.386 180.506 228.416C180.531 228.425 180.559 228.428 180.586 228.426C180.856 228.446 181.126 228.476 181.396 228.496H181.436C181.666 228.516 181.906 228.536 182.136 228.556C184.926 228.776 187.726 228.876 190.566 228.876C193.636 228.876 196.686 228.756 199.696 228.496H199.726C200.376 228.436 201.016 228.376 201.656 228.316C201.826 228.296 201.986 228.286 202.156 228.266C202.186 228.266 202.226 228.256 202.256 228.256C202.306 228.246 202.356 228.246 202.416 228.236C202.443 228.237 202.47 228.233 202.496 228.226C202.716 228.206 202.936 228.176 203.166 228.156L203.916 228.066C204.166 228.036 204.416 227.996 204.666 227.966C204.726 227.956 204.776 227.956 204.836 227.946C205.016 227.926 205.196 227.896 205.376 227.866C205.466 227.856 205.556 227.846 205.636 227.836C205.816 227.806 205.986 227.786 206.166 227.756H206.176C211.663 226.966 217.08 225.745 222.376 224.106C222.656 224.016 222.936 223.936 223.216 223.846C223.226 223.846 223.236 223.836 223.246 223.836C223.326 223.806 223.416 223.786 223.496 223.756C224.246 223.516 224.986 223.266 225.726 223.006C226.746 222.666 227.756 222.296 228.766 221.916C229.036 221.806 229.306 221.706 229.576 221.596C230.126 221.386 230.666 221.166 231.206 220.946C232.126 220.576 233.046 220.186 233.956 219.786C234.806 219.406 235.646 219.026 236.486 218.626C236.506 218.616 236.536 218.616 236.556 218.596C236.746 218.506 236.936 218.416 237.116 218.326H237.126C241.731 216.116 246.172 213.579 250.416 210.736C251.776 209.826 253.116 208.886 254.436 207.916C255.496 207.126 256.536 206.326 257.576 205.506C262.706 201.425 267.456 196.886 271.766 191.946V191.936C272.076 191.596 272.366 191.246 272.666 190.896C272.716 190.846 272.756 190.796 272.796 190.756C272.986 190.526 273.166 190.306 273.356 190.086V190.076C273.606 189.786 273.856 189.486 274.096 189.186C274.156 189.116 274.206 189.056 274.256 188.996V188.986C274.456 188.746 274.646 188.506 274.846 188.256C274.946 188.136 275.036 188.016 275.136 187.896V187.886C275.726 187.146 276.296 186.406 276.866 185.646C277.016 185.446 277.166 185.236 277.326 185.026C278.046 184.056 278.746 183.066 279.426 182.076V182.066C279.686 181.696 279.936 181.316 280.196 180.946C280.446 180.566 280.696 180.186 280.946 179.806C281.196 179.406 281.456 179.016 281.706 178.616L281.736 178.556C281.986 178.176 282.236 177.776 282.476 177.386C282.666 177.066 282.856 176.756 283.046 176.446C283.166 176.236 283.296 176.026 283.416 175.806C283.462 175.738 283.506 175.668 283.546 175.596C283.826 175.106 284.106 174.616 284.386 174.126C284.716 173.556 285.036 172.976 285.356 172.396C285.476 172.156 285.606 171.916 285.736 171.676C285.786 171.596 285.826 171.516 285.866 171.436C286.016 171.156 286.166 170.866 286.306 170.576C286.456 170.296 286.606 170.006 286.756 169.716C286.896 169.436 287.046 169.146 287.186 168.856C287.296 168.636 287.396 168.416 287.506 168.196C287.513 168.178 287.523 168.161 287.536 168.146C287.586 168.036 287.636 167.936 287.676 167.836C287.688 167.821 287.698 167.804 287.706 167.786C287.816 167.566 287.916 167.336 288.026 167.116C288.166 166.826 288.296 166.526 288.436 166.236C288.526 166.036 288.626 165.826 288.716 165.616C288.846 165.326 288.986 165.036 289.106 164.736C289.246 164.436 289.376 164.136 289.506 163.826C289.543 163.751 289.576 163.674 289.606 163.596C289.676 163.456 289.726 163.316 289.786 163.176C289.946 162.806 290.106 162.426 290.256 162.056C290.436 161.636 290.606 161.206 290.766 160.786C290.926 160.396 291.076 159.996 291.226 159.596L291.286 159.456C293.616 153.319 295.383 146.983 296.566 140.526V140.516C297.233 136.829 297.71 133.111 297.996 129.376C298.006 129.166 298.026 128.966 298.036 128.766C298.216 126.236 298.296 123.696 298.296 121.146C298.296 120.016 298.276 118.896 298.246 117.776C297.548 94.3521 289.195 71.8021 274.466 53.5757C274.146 53.1757 273.826 52.7757 273.496 52.3757C273.166 51.9757 272.826 51.5857 272.496 51.1957C261.533 38.3579 247.708 28.2754 232.134 21.7612C216.56 15.2469 199.673 12.4832 182.835 13.6927C165.997 14.9022 149.679 20.0512 135.196 28.7245C120.713 37.3979 108.47 49.3528 99.4556 63.6257C98.9656 64.4057 98.4756 65.1957 98.0056 65.9858C97.5256 66.7858 97.0656 67.5858 96.6056 68.3958C87.5462 84.499 82.7996 102.669 82.8255 121.146Z" fill="#F2F2F2"/>
<path d="M186.283 50.6792C203.999 55.225 222.154 57.8453 240.432 58.4945C243.196 58.6451 245.966 58.6262 248.728 58.4381C254.797 57.9276 259.995 56.0202 265.785 54.9778C268.568 54.4781 271.669 54.1127 274.471 53.5727C273.823 52.7694 273.164 51.9759 272.493 51.1924C266.451 51.7028 260.315 53.3739 254.2 54.1503C243.806 55.4721 232.16 53.9971 224.28 50.3595C220.457 48.5944 217.528 46.3914 213.719 44.6183C213.201 44.3523 212.639 44.1804 212.061 44.1105C210.963 44.0775 209.878 44.359 208.934 44.9218C202.543 48.1484 193.263 50.7705 184.65 49.3279C184.008 49.8302 185.228 50.4025 186.283 50.6792Z" fill="white"/>
<path d="M148.169 62.0342C148.09 62.0198 148.011 62.0086 147.932 61.995C148.263 61.7899 148.575 61.5552 148.863 61.2937L148.169 62.0342Z" fill="white"/>
<path d="M96.6077 68.3999C100.205 68.6874 103.821 68.9014 107.456 69.042C110.22 69.1912 112.991 69.1724 115.752 68.9856C121.821 68.4725 127.02 66.5677 132.809 65.5253C138.115 64.5715 144.563 64.1121 147.932 61.9951C139.225 60.4879 130.203 63.556 121.225 64.6978C113.962 65.5908 106.6 65.2273 99.4608 63.6232C98.4668 65.1868 97.5157 66.779 96.6077 68.3999Z" fill="white"/>
<path d="M140.125 216.356C140.985 216.826 141.855 217.276 142.725 217.706C143.035 217.856 143.355 218.006 143.665 218.166C143.925 218.286 144.185 218.416 144.445 218.536C144.525 218.576 144.595 218.606 144.665 218.646C144.885 218.746 145.095 218.846 145.315 218.946C145.555 219.056 145.796 219.166 146.026 219.276C146.296 219.396 146.556 219.516 146.826 219.626C147.826 220.076 148.835 220.506 149.845 220.916C153.465 222.399 157.164 223.681 160.926 224.756C161.096 224.806 161.276 224.856 161.456 224.906C163.066 225.356 164.686 225.766 166.316 226.136C169.166 226.796 172.042 227.336 174.946 227.756H174.966C175.316 227.806 175.656 227.856 176.006 227.906C176.036 227.906 176.066 227.916 176.106 227.916C176.106 227.926 176.106 227.926 176.116 227.916C176.496 227.966 176.886 228.016 177.266 228.066C177.291 228.073 177.319 228.077 177.346 228.076C177.706 228.126 178.076 228.166 178.436 228.206C178.826 228.246 179.216 228.286 179.606 228.326C179.906 228.356 180.206 228.386 180.506 228.416C180.531 228.425 180.558 228.428 180.586 228.426C180.856 228.446 181.126 228.476 181.396 228.496H181.436C181.666 228.516 181.906 228.536 182.136 228.556C184.926 228.776 187.726 228.876 190.566 228.876C193.636 228.876 196.686 228.756 199.696 228.496H199.726C200.376 228.436 201.016 228.376 201.656 228.316C201.826 228.296 201.986 228.286 202.156 228.266C202.186 228.266 202.226 228.256 202.256 228.256C202.306 228.246 202.356 228.246 202.416 228.236C202.443 228.237 202.47 228.233 202.496 228.226C202.716 228.206 202.936 228.176 203.166 228.156L203.916 228.066C204.166 228.036 204.416 227.996 204.666 227.966C204.726 227.956 204.776 227.956 204.836 227.946C205.016 227.926 205.196 227.896 205.376 227.866C205.466 227.856 205.556 227.846 205.636 227.836C205.816 227.806 205.986 227.786 206.166 227.756H206.176C211.663 226.966 217.08 225.745 222.376 224.106C222.656 224.016 222.936 223.936 223.216 223.846C221.924 217.824 219.266 212.18 215.446 207.349C211.626 202.519 206.747 198.631 201.186 195.986C202.561 194.675 203.512 192.982 203.916 191.126C204.175 189.929 204.196 188.693 203.976 187.488C203.756 186.283 203.301 185.134 202.636 184.106C201.338 182.113 199.302 180.718 196.976 180.226L182.156 177.126C179.77 176.661 177.297 177.156 175.275 178.504C173.252 179.853 171.844 181.945 171.356 184.326C171.204 185.056 171.137 185.801 171.156 186.546C156.886 196.046 146.615 205.896 140.125 216.356Z" fill="#2FA4DA"/>
<path d="M198.754 167.122C218.677 167.122 234.827 150.971 234.827 131.049C234.827 111.126 218.677 94.9756 198.754 94.9756C178.831 94.9756 162.681 111.126 162.681 131.049C162.681 150.971 178.831 167.122 198.754 167.122Z" fill="#9E616A"/>
<path d="M193.628 165.194C184.597 167.633 174.641 164.39 167.593 158.239C160.545 152.088 156.137 143.372 153.596 134.369C151.736 127.775 150.854 120.456 153.79 114.266C156.726 108.076 164.627 103.9 170.723 107.027C166.962 102.645 168.841 95.3989 173.233 91.6509C177.625 87.9029 183.656 86.8283 189.4 86.2409C197.736 85.3884 206.346 85.293 214.278 87.9936C222.211 90.6942 229.418 96.5984 231.9 104.602C234.436 105.782 237.291 106.088 240.02 105.473C242.748 104.857 245.195 103.353 246.977 101.198C247.437 103.673 247.068 106.231 245.927 108.476C244.786 110.72 242.938 112.527 240.667 113.615L252.821 109.674C254.911 114.099 251.249 119.574 246.565 120.991C241.882 122.408 236.826 120.859 232.381 118.813C227.937 116.766 223.63 114.178 218.802 113.38C213.975 112.581 208.304 114.132 206.071 118.486C204.901 120.767 204.84 123.438 204.161 125.909C203.482 128.38 201.762 130.942 199.207 131.145C197.593 131.272 196.012 130.413 194.403 130.588C193.415 130.783 192.505 131.261 191.785 131.965C191.065 132.668 190.566 133.567 190.348 134.55C189.948 136.523 189.943 138.555 190.334 140.53L193.421 164.128L193.628 165.194Z" fill="#2F2E41"/>
<path d="M230.073 420.931C230.073 420.931 204.17 403.004 211.13 369.594C214.117 374.585 245.52 370.578 255.5 393.022C255.5 393.022 295.865 377.063 317.286 395.263C317.286 395.263 329.236 372.581 343.698 369.594C358.16 366.606 365.12 362.124 365.12 362.124C365.12 362.124 374.591 400.016 342.68 420.931C342.68 420.931 354.765 492.2 288.159 512.131C276.413 513.659 224.607 490.231 230.073 420.931Z" fill="#DD6628"/>
<path d="M287.208 514.134C280.147 514.134 266.5 509.109 253.735 496.92C240.427 484.221 225.252 460.963 228.036 421.848C223.385 418.147 202.813 399.812 209.229 369.22L210.247 364.331L212.827 368.609C213.438 369.458 217.987 370.273 221.314 370.85C231.703 372.717 248.813 375.773 256.485 390.577C264.361 387.793 296.714 377.641 316.709 392.309C320.104 386.502 330.628 370.307 343.325 367.658C357.176 364.806 364.033 360.494 364.101 360.46L366.376 359L367.021 361.648C367.123 362.022 376.255 400.288 344.785 421.882C346.007 431.695 351.269 495.324 288.736 514.032C288.295 514.1 287.785 514.134 287.208 514.134ZM212.522 372.853C207.871 402.8 230.922 419.166 231.193 419.336L232.11 419.981L232.008 421.101C228.987 459.299 243.619 481.878 256.417 494.102C269.589 506.664 283.44 510.807 287.921 510.23C351.744 491.08 341.22 424.123 340.745 421.271L340.541 420.015L341.594 419.302C367.632 402.189 365.154 373.736 363.694 365.112C360.469 366.707 353.985 369.458 344.038 371.529C330.662 374.279 319.086 395.976 318.95 396.213L317.83 398.352L315.962 396.79C295.661 379.542 256.553 394.719 256.145 394.889L254.414 395.568L253.667 393.87C247.285 379.508 231.193 376.622 220.568 374.754C217.241 374.075 214.491 373.6 212.522 372.853Z" fill="black"/>
<path d="M236.286 410.915C236.965 408.878 238.187 407.01 239.85 405.584C239.443 406.603 239.036 407.622 238.628 408.64C239.647 406.433 241.378 404.532 243.483 403.276C242.6 403.785 235.403 387.725 231.092 392.139C227.256 396.009 234.283 407.384 236.286 410.915Z" fill="#EB7A8B"/>
<path d="M349.843 382.462C349.741 382.394 349.639 382.292 349.538 382.224C344.615 385.756 340.202 390 336.501 394.889C334.566 397.436 331.647 400.118 331.409 403.513C331.307 404.973 335.517 416.348 336.332 415.669C341.39 411.119 346.211 405.788 347.738 399.167C348.723 394.889 348.315 390.407 349.266 386.129C349.538 384.975 349.945 383.854 350.488 382.768C350.25 382.632 350.047 382.53 349.843 382.462Z" fill="#EB7A8B"/>
<path d="M278.11 493.287C278.144 493.457 280.181 499.738 281.097 501.402C282.014 503.065 282.32 503.303 282.32 503.303C282.32 503.303 286.631 503.269 286.631 503.099C286.631 502.93 286.767 501.809 286.767 501.809L287.276 502.896C287.276 502.896 290.841 503.235 291.452 503.065C292.063 502.896 294.609 493.457 294.371 493.321C294.134 493.185 290.807 492.778 289.415 491.963C288.023 491.148 286.631 490.537 286.19 490.401C285.748 490.299 284.255 491.182 284.255 491.182C284.255 491.182 280.283 492.879 280.113 492.744" fill="white"/>
<path d="M282.184 503.813L282.048 503.677C281.912 503.575 281.539 503.201 280.69 501.606C279.74 499.874 277.703 493.592 277.669 493.389L278.619 493.151C278.687 493.389 280.69 499.534 281.573 501.13C282.116 502.149 282.455 502.59 282.591 502.794C284.051 502.794 285.613 502.726 286.258 502.692C286.292 502.285 286.359 501.741 286.359 501.741L286.529 500.044L287.65 502.42C289.109 502.556 290.773 502.658 291.282 502.59C291.893 501.639 293.692 495.256 293.93 493.66C293.76 493.626 293.557 493.592 293.353 493.559C292.131 493.321 290.23 492.981 289.211 492.336C287.853 491.521 286.495 490.944 286.122 490.842C285.952 490.842 285.205 491.182 284.56 491.555C280.283 493.389 280.113 493.287 279.875 493.083L280.181 492.676V492.2C280.486 492.166 282.455 491.385 284.153 490.672C284.866 490.265 285.884 489.756 286.393 489.892C286.903 490.027 288.328 490.639 289.72 491.487C290.603 492.031 292.436 492.37 293.523 492.574C294.303 492.71 294.541 492.778 294.677 492.879C294.982 493.083 294.914 493.457 294.847 493.83C294.847 493.932 292.742 503.235 291.621 503.541C290.943 503.711 288.125 503.473 287.276 503.405H287.14C287.005 503.711 286.258 503.813 282.354 503.846L282.184 503.813Z" fill="black"/>
<path d="M217.241 385.246C228.783 382.19 242.295 391.629 243.381 403.547C236.625 394.04 228.512 388.302 217.241 385.246Z" fill="black"/>
<path d="M331.477 403.853C333.242 390.984 344.785 379.576 357.685 378.014C346.788 385.042 338.64 393.055 331.477 403.853Z" fill="black"/>
<path d="M302.112 407.452C311.719 405.279 322.515 414.276 322.073 424.123C316.709 416.212 310.87 411.322 302.112 407.452Z" fill="black"/>
<path d="M246.334 424.598C248.337 416.28 256.892 410.168 265.413 410.236C266.635 410.338 268.401 410.949 268.503 412.341C267.586 411.492 266.534 411.832 265.617 412.137C258.284 415.159 252.513 419.302 246.334 424.598Z" fill="black"/>
<path d="M231.091 389.762C232.008 396.926 233.841 403.717 236.625 410.372C231.465 405.109 229.292 396.926 231.091 389.762Z" fill="black"/>
<path d="M347.636 383.786C351.269 388.608 350.827 396.179 346.652 400.559C348.247 394.991 348.587 389.456 347.636 383.786Z" fill="black"/>
<path d="M284.323 440.692C284.323 451.184 275.802 459.706 265.311 459.706C254.821 459.706 247.387 451.184 247.387 440.692C247.387 430.201 254.821 421.678 265.311 421.678C275.835 421.678 284.323 430.201 284.323 440.692Z" fill="white"/>
<path d="M265.345 460.657C254.55 460.657 246.436 452.067 246.436 440.692C246.436 429.318 254.55 420.728 265.345 420.728C276.345 420.728 285.307 429.691 285.307 440.692C285.307 451.693 276.345 460.657 265.345 460.657ZM265.345 422.663C255.67 422.663 248.405 430.404 248.405 440.692C248.405 450.98 255.704 458.722 265.345 458.722C275.292 458.722 283.372 450.641 283.372 440.692C283.338 430.744 275.258 422.663 265.345 422.663Z" fill="black"/>
<path d="M325.876 438.825C325.876 449.317 318.305 457.839 307.815 457.839C297.325 457.839 288.804 449.317 288.804 438.825C288.804 428.333 297.325 419.811 307.815 419.811C318.305 419.811 325.876 428.333 325.876 438.825Z" fill="white"/>
<path d="M307.815 458.79C296.816 458.79 287.853 449.826 287.853 438.825C287.853 427.824 296.816 418.86 307.815 418.86C318.679 418.86 326.86 427.451 326.86 438.825C326.86 450.2 318.679 458.79 307.815 458.79ZM307.815 420.796C297.868 420.796 289.788 428.877 289.788 438.825C289.788 448.774 297.868 456.854 307.815 456.854C317.558 456.854 324.925 449.113 324.925 438.825C324.925 428.537 317.558 420.796 307.815 420.796Z" fill="black"/>
<path d="M274.172 472.269C273.935 472.779 280.147 481.369 284.73 481.607C289.279 481.844 294.236 473.763 295.254 471.013C296.273 468.263 279.672 461.201 274.172 472.269Z" fill="#70574B"/>
<path d="M284.934 482.591C284.832 482.591 284.764 482.591 284.662 482.591C279.841 482.32 274.41 474.816 273.595 473.424C273.289 472.881 273.018 472.371 273.289 471.828C276.922 464.46 285.511 464.053 291.927 466.803C295.084 468.161 296.68 469.859 296.137 471.353C295.288 473.797 290.298 482.591 284.934 482.591ZM275.224 472.371C276.107 474.069 281.335 480.452 284.764 480.656C284.832 480.656 284.866 480.656 284.934 480.656C288.702 480.656 293.353 473.322 294.303 470.708C294.168 470.096 291.044 467.991 286.665 467.38C283.576 466.973 278.076 467.075 275.224 472.371Z" fill="black"/>
<path d="M265.21 486.971C269.827 492.608 280.418 494.068 285.68 488.737C288.872 491.182 293.285 492.098 297.189 490.91C300.889 489.756 304.284 487.379 307.34 484.73C304.861 487.956 301.67 490.774 297.698 492.37C293.59 493.966 288.872 493.287 285.239 490.808L286.563 490.672C280.351 496.037 269.08 494 265.21 486.971Z" fill="black"/>
<path d="M283.236 481.64C285.239 484.323 285.613 488.126 284.153 491.113C284.594 490.57 285.307 490.231 285.986 490.231C286.665 490.231 287.378 490.57 287.819 491.147C286.903 490.129 286.529 488.669 286.461 487.311C286.359 484.73 287.276 482.15 288.94 480.214C287.921 480.758 286.699 481.742 285.545 481.64" fill="black"/>
<path d="M305.303 486.598C305.54 486.224 305.914 485.987 306.253 485.715C306.593 485.443 306.898 485.036 306.83 484.595C306.796 484.221 306.491 483.916 306.185 483.678C305.88 483.44 305.54 483.27 305.303 482.965C306.253 483.372 307.475 483.338 308.12 484.153C308.494 484.595 308.596 485.24 308.528 485.783C308.46 486.36 308.222 486.903 308.018 487.447C307.883 486.971 307.713 486.462 307.577 485.987C307.509 485.817 307.475 485.647 307.305 485.545C307.102 485.443 306.864 485.579 306.66 485.715C305.642 486.394 304.624 487.073 303.605 487.752" fill="black"/>
<path d="M266.771 488.669C266.534 488.465 266.33 488.228 266.16 487.99C265.99 487.718 265.922 487.379 266.024 487.107C266.126 486.836 266.33 486.632 266.567 486.496C266.805 486.36 267.077 486.292 267.348 486.224C266.805 486.292 266.262 486.19 265.719 486.19C265.176 486.19 264.564 486.36 264.293 486.802C264.021 487.209 264.055 487.752 264.191 488.228C264.327 488.703 264.497 489.178 264.463 489.654C264.497 489.178 264.564 488.737 264.666 488.296C264.7 488.16 264.768 487.99 264.87 487.922C265.04 487.82 265.277 487.922 265.447 488.024C266.194 488.465 266.839 489.043 267.382 489.722" fill="black"/>
<path d="M276.141 472.371C280.249 473.424 284.56 473.627 288.736 473.016Z" fill="black"/>
<path d="M283.44 506.461C286.054 506.868 288.294 506.766 290.841 506.155C288.939 508.057 285.477 508.192 283.44 506.461Z" fill="black"/>
<path d="M301.399 448.128C303.967 448.128 306.05 446.045 306.05 443.476C306.05 440.907 303.967 438.825 301.399 438.825C298.83 438.825 296.748 440.907 296.748 443.476C296.748 446.045 298.83 448.128 301.399 448.128Z" fill="black"/>
<path d="M272.135 448.128C274.704 448.128 276.786 446.045 276.786 443.476C276.786 440.907 274.704 438.825 272.135 438.825C269.566 438.825 267.484 440.907 267.484 443.476C267.484 446.045 269.566 448.128 272.135 448.128Z" fill="black"/>
<path opacity="0.49" d="M294.88 471.047C293.149 474.68 290.942 478.041 288.261 481.029C287.48 481.912 286.563 482.795 285.409 482.829C284.356 482.863 283.44 482.252 282.625 481.572C280.452 479.807 269.419 472.779 275.496 472.133C278.008 471.862 284.051 473.526 286.631 473.288C289.483 473.05 292.3 472.303 294.88 471.047Z" fill="black"/>
<path opacity="0.17" d="M331.782 403.072C334.227 398.386 338.776 394.821 343.936 393.599C342.748 401.374 339.93 408.878 335.72 415.499C327.912 399.948 312.058 388.777 294.813 386.638C301.67 390.916 308.188 395.772 314.265 401.102C316.404 403.004 318.542 404.973 319.968 407.486C321.394 409.964 322.039 413.054 321.055 415.736C315.385 411.9 309.241 408.81 302.756 406.569C308.562 408.504 313.586 412.681 316.573 418.045C308.528 415.838 299.362 418.69 293.964 425.006C299.26 421.746 306.389 421.746 311.685 425.04C316.981 428.333 320.104 434.75 319.493 440.93C318.814 447.619 314.299 453.187 309.954 458.314C311.923 456.617 314.537 456.277 316.981 455.394C319.425 454.511 321.903 453.255 323.804 455.055C325.909 457.058 326.079 460.318 325.841 463.204C324.314 480.486 313.382 495.765 299.973 506.766C315.589 499.194 328.591 486.326 336.331 470.775C344.072 455.224 346.516 437.127 343.155 420.082C360.231 408.878 369.092 386.468 364.305 366.605C365.086 369.831 358.907 375.23 356.734 376.826C353.306 379.406 348.926 380.492 345.633 383.243C343.393 385.11 342.069 387.793 340.371 390.135C337.282 394.346 334.227 398.454 331.782 403.072Z" fill="#660000"/>
<path opacity="0.23" d="M274.579 489.45C277.499 489.246 280.317 487.209 281.03 484.391C281.742 481.573 279.909 478.211 277.058 477.634C279.128 480.079 282.388 481.437 285.579 481.233C288.77 480.995 291.791 479.196 293.489 476.479C291.01 478.958 288.328 482.218 289.347 485.579C290.297 488.669 294.1 490.061 297.257 489.416C300.414 488.771 302.655 487.752 305.099 485.681C306.661 483.678 304.658 483.067 303.537 482.387C307.034 482.489 310.938 484.255 308.765 489.144C309.139 488.261 308.12 487.311 307.136 487.345C306.185 487.379 305.371 488.058 304.624 488.669C300.007 492.607 295.797 496.716 291.655 501.469C293.115 500.451 291.825 496.987 290.467 495.867C289.075 494.713 287.174 494.543 285.375 494.475C283.745 494.407 282.727 494.135 281.471 495.188C280.215 496.274 279.366 500.111 280.928 500.587C278.382 499.806 275.428 495.663 273.221 494.101C270.54 492.234 267.858 490.027 265.006 488.465C264.734 489.45 265.108 489.348 264.734 490.4C263.139 488.499 263.309 484.594 268.265 485.443C267.858 485.681 267.28 486.292 266.941 486.598C268.537 488.805 271.864 489.654 274.579 489.45Z" fill="#660000"/>
<path opacity="0.17" d="M268.503 424.191C270.336 423.851 272.237 423.817 274.104 423.919C271.456 422.527 268.537 421.678 265.345 421.678C254.855 421.678 247.421 430.201 247.421 440.692C247.421 451.184 254.855 459.706 265.345 459.706C267.654 459.706 269.861 459.231 271.897 458.484C271.931 458.382 271.999 458.28 271.999 458.178C272.033 457.296 271.184 456.617 270.336 456.447C269.487 456.277 268.604 456.515 267.722 456.617C262.188 457.431 256.417 454.138 253.871 449.147C251.325 444.156 251.868 437.874 254.821 433.121C257.809 428.333 263.003 425.175 268.503 424.191Z" fill="black"/>
<path opacity="0.17" d="M220.126 385.314C218.87 384.907 217.241 384.635 216.528 385.722C215.917 386.604 216.358 387.759 216.833 388.71C221.077 397.334 226.746 405.211 233.536 412.002C234.045 412.511 234.588 413.02 235.301 413.122C236.184 413.258 237.033 412.681 237.678 412.104C241.072 409.014 242.532 403.989 241.31 399.575C238.832 390.611 227.765 387.759 220.126 385.314Z" fill="black"/>
<path opacity="0.47" d="M345.022 372.65C350.76 370.714 357.006 370.103 362.166 366.945C359.145 370.51 356.089 374.042 353.068 377.607C353.441 376.792 353.849 375.943 354.222 375.128C343.834 374.958 334.057 380.866 327.335 388.778C325.841 390.543 324.416 392.478 324.008 394.753C323.601 396.926 324.314 399.507 326.351 400.627C323.839 398.59 321.258 396.281 322.311 392.886C323.261 389.864 325.909 386.706 327.946 384.33C332.427 378.999 338.402 374.89 345.022 372.65Z" fill="#DD6628"/>
<path opacity="0.47" d="M250.035 393.599C246.776 385.11 239.001 378.523 230.141 376.69C224.675 375.569 218.87 376.113 213.608 374.245C215.272 374.822 216.562 376.452 218.191 377.063C219.651 377.607 221.212 377.539 222.774 377.742C226.339 378.184 229.835 379.134 233.162 380.527C239.816 383.311 245.723 387.827 250.035 393.599Z" fill="#DD6628"/>
<path opacity="0.47" d="M272.508 391.494C277.906 390.645 283.779 390.95 288.294 394.04C276.446 394.278 264.666 397.775 254.618 404.023C253.905 404.464 252.886 404.905 252.309 404.294C251.902 403.887 252.004 403.208 252.139 402.664C254.618 393.633 264.531 392.75 272.508 391.494Z" fill="#DD6628"/>
<path opacity="0.75" d="M249.356 485.274C244.263 477.668 239.714 470.266 236.693 461.574C234.011 453.901 230.786 443.511 231.906 435.294C234.656 436.211 234.011 443.613 234.351 446.057C235.03 450.709 236.048 455.327 237.406 459.808C240.088 468.84 244.128 477.464 249.356 485.274Z" fill="#DD6628"/>
<path opacity="0.75" d="M279.502 470.198C280.724 469.757 282.048 469.655 283.304 469.892C283.881 469.994 284.56 470.334 284.56 470.911C284.56 471.488 283.949 471.794 283.372 471.93C282.489 472.167 281.573 472.201 280.656 472.099C280.215 472.031 279.774 471.93 279.4 471.692C279.027 471.454 278.789 470.979 278.925 470.537C279.027 470.096 279.57 469.79 279.943 470.028" fill="#DD6628"/>
<path d="M311.753 393.361C317.015 397.028 321.53 401.815 324.959 407.248C323.397 400.865 319.663 395.025 314.537 390.95" fill="black"/>
<path d="M255.263 391.052C250.51 394.278 246.708 398.862 244.433 404.124C249.933 398.216 256.994 393.735 264.666 391.222" fill="black"/>
</svg>
