<svg width="787" height="573" viewBox="0 0 787 573" fill="none" xmlns="http://www.w3.org/2000/svg">
<g clip-path="url(#clip0_2_695)">
<path d="M458.321 100.882C473.068 100.882 485.022 88.9281 485.022 74.1817C485.022 59.4353 473.068 47.481 458.321 47.481C443.575 47.481 431.621 59.4353 431.621 74.1817C431.621 88.9281 443.575 100.882 458.321 100.882Z" fill="#F2F2F2"/>
<path d="M665.447 497.152C705.135 466.923 724.091 416.127 712.224 367.67C711.929 366.466 711.618 365.264 711.29 364.066C703.423 335.302 683.959 307.965 655.59 298.775C631.77 291.058 605.771 296.992 580.921 293.923C532.139 287.899 494.32 248.429 467.71 207.104C441.099 165.778 420.648 119.52 385.288 85.3796C327.003 29.1043 231.926 16.9881 159.661 53.6192C87.3967 90.2504 41.3648 171.52 43.328 252.514C45.2912 333.509 93.3743 410.946 163.203 452.031C188.855 467.124 218.524 477.817 248.051 474.075C273.671 470.829 296.95 457.063 322.45 452.976C362.541 446.55 402.377 464.677 437.052 485.799C471.728 506.922 505.223 531.959 544.627 541.752C582.888 551.26 630.29 523.93 665.447 497.152Z" fill="#F2F2F2"/>
<path d="M608.426 55.32C607.556 54.74 606.676 54.19 605.806 53.63C580.657 37.5458 553.701 24.4791 525.496 14.7L518.956 104.92H477.496V1.53C474.886 0.989999 472.256 0.48 469.626 0V104.92H420.356C393.232 104.92 367.219 94.1452 348.04 74.9659C328.861 55.7865 318.086 29.7738 318.086 2.65012V2.65002C315.446 3.22002 312.826 3.83003 310.206 4.48003V104.92H270.076L263.846 18.89C234.861 30.0063 207.343 44.6248 181.906 62.42C181.466 62.72 181.026 63.03 180.596 63.33C178.386 64.88 176.206 66.46 174.036 68.06V412.25H292.306L290.216 383.3L278.716 224.35H510.306L498.806 383.3L496.716 412.25H613.676V58.8C611.936 57.62 610.186 56.46 608.426 55.32ZM310.206 198.1H276.816L270.646 112.8H310.206V198.1ZM469.626 198.1H413.546V196.41C413.546 195.598 413.386 194.793 413.075 194.043C412.763 193.292 412.307 192.61 411.732 192.036C411.157 191.462 410.475 191.007 409.724 190.697C408.973 190.388 408.168 190.229 407.356 190.23H382.976C382.164 190.23 381.361 190.389 380.611 190.7C379.861 191.01 379.179 191.465 378.605 192.039C378.031 192.613 377.576 193.295 377.266 194.045C376.955 194.795 376.796 195.598 376.796 196.41V198.1H318.086V112.8H469.626V198.1ZM477.496 198.1V112.8H518.386L512.216 198.1H477.496Z" fill="#3F3D56"/>
<path d="M-3.05176e-05 434.291C8.68722 444.584 18.0835 454.258 28.12 463.241L758.7 464.241C768.736 455.258 778.133 445.584 786.82 435.291L-3.05176e-05 434.291Z" fill="#3F3D56"/>
<path d="M495.43 341.591V427.295C495.431 428.387 495.865 429.435 496.637 430.207C497.41 430.979 498.457 431.414 499.549 431.414H626.553C627.646 431.414 628.693 430.979 629.465 430.207C630.237 429.435 630.672 428.387 630.673 427.295V341.591C630.67 340.5 630.235 339.454 629.463 338.683C628.691 337.912 627.645 337.478 626.553 337.477H499.549C498.458 337.478 497.412 337.912 496.639 338.683C495.867 339.454 495.433 340.5 495.43 341.591Z" fill="#3F3D56"/>
<path d="M498.409 342.658V426.238C498.41 426.822 498.643 427.381 499.055 427.794C499.468 428.206 500.027 428.438 500.611 428.439H625.496C626.08 428.438 626.639 428.206 627.052 427.794C627.464 427.381 627.697 426.822 627.698 426.238V342.658C627.698 342.073 627.466 341.513 627.053 341.099C626.64 340.686 626.08 340.453 625.496 340.452H500.611C500.027 340.453 499.467 340.686 499.054 341.099C498.641 341.513 498.409 342.073 498.409 342.658Z" fill="#2FA4DA"/>
<path d="M492.774 444.01C493.006 444.301 493.302 444.537 493.639 444.698C493.975 444.859 494.344 444.942 494.717 444.94H630.709C631.081 444.939 631.448 444.856 631.784 444.696C632.119 444.535 632.415 444.302 632.649 444.014C632.884 443.725 633.051 443.387 633.138 443.026C633.226 442.664 633.232 442.288 633.155 441.924L631.044 431.897C630.957 431.488 630.768 431.107 630.496 430.79C630.224 430.472 629.877 430.228 629.486 430.079C629.203 429.968 628.902 429.911 628.598 429.911H496.82C496.516 429.911 496.215 429.968 495.932 430.079C495.541 430.228 495.194 430.472 494.922 430.79C494.65 431.107 494.461 431.488 494.374 431.897L492.263 441.924C492.188 442.288 492.195 442.664 492.283 443.025C492.371 443.385 492.539 443.722 492.774 444.01Z" fill="#2F2E41"/>
<path d="M623.932 434.23H627.144C627.414 434.23 627.632 434.012 627.632 433.742V432.206C627.632 431.936 627.414 431.717 627.144 431.717H623.932C623.662 431.717 623.444 431.936 623.444 432.206V433.742C623.444 434.012 623.662 434.23 623.932 434.23Z" fill="#3F3D56"/>
<path d="M615.555 434.23H618.767C619.037 434.23 619.255 434.012 619.255 433.742V432.206C619.255 431.936 619.037 431.717 618.767 431.717H615.555C615.285 431.717 615.067 431.936 615.067 432.206V433.742C615.067 434.012 615.285 434.23 615.555 434.23Z" fill="#3F3D56"/>
<path d="M607.178 434.23H610.39C610.66 434.23 610.878 434.012 610.878 433.742V432.206C610.878 431.936 610.66 431.717 610.39 431.717H607.178C606.908 431.717 606.69 431.936 606.69 432.206V433.742C606.69 434.012 606.908 434.23 607.178 434.23Z" fill="#3F3D56"/>
<path d="M598.801 434.23H602.013C602.283 434.23 602.501 434.012 602.501 433.742V432.206C602.501 431.936 602.283 431.717 602.013 431.717H598.801C598.531 431.717 598.313 431.936 598.313 432.206V433.742C598.313 434.012 598.531 434.23 598.801 434.23Z" fill="#3F3D56"/>
<path d="M590.424 434.23H593.636C593.906 434.23 594.124 434.012 594.124 433.742V432.206C594.124 431.936 593.906 431.717 593.636 431.717H590.424C590.154 431.717 589.936 431.936 589.936 432.206V433.742C589.936 434.012 590.154 434.23 590.424 434.23Z" fill="#3F3D56"/>
<path d="M582.047 434.23H585.259C585.529 434.23 585.747 434.012 585.747 433.742V432.206C585.747 431.936 585.529 431.717 585.259 431.717H582.047C581.777 431.717 581.559 431.936 581.559 432.206V433.742C581.559 434.012 581.777 434.23 582.047 434.23Z" fill="#3F3D56"/>
<path d="M573.67 434.23H576.882C577.152 434.23 577.37 434.012 577.37 433.742V432.206C577.37 431.936 577.152 431.717 576.882 431.717H573.67C573.4 431.717 573.182 431.936 573.182 432.206V433.742C573.182 434.012 573.4 434.23 573.67 434.23Z" fill="#3F3D56"/>
<path d="M565.293 434.23H568.505C568.775 434.23 568.993 434.012 568.993 433.742V432.206C568.993 431.936 568.775 431.717 568.505 431.717H565.293C565.023 431.717 564.805 431.936 564.805 432.206V433.742C564.805 434.012 565.023 434.23 565.293 434.23Z" fill="#3F3D56"/>
<path d="M556.916 434.23H560.128C560.398 434.23 560.616 434.012 560.616 433.742V432.206C560.616 431.936 560.398 431.717 560.128 431.717H556.916C556.647 431.717 556.428 431.936 556.428 432.206V433.742C556.428 434.012 556.647 434.23 556.916 434.23Z" fill="#3F3D56"/>
<path d="M548.539 434.23H551.751C552.021 434.23 552.239 434.012 552.239 433.742V432.206C552.239 431.936 552.021 431.717 551.751 431.717H548.539C548.27 431.717 548.051 431.936 548.051 432.206V433.742C548.051 434.012 548.27 434.23 548.539 434.23Z" fill="#3F3D56"/>
<path d="M540.162 434.23H543.374C543.644 434.23 543.862 434.012 543.862 433.742V432.206C543.862 431.936 543.644 431.717 543.374 431.717H540.162C539.892 431.717 539.674 431.936 539.674 432.206V433.742C539.674 434.012 539.892 434.23 540.162 434.23Z" fill="#3F3D56"/>
<path d="M531.785 434.23H534.997C535.267 434.23 535.485 434.012 535.485 433.742V432.206C535.485 431.936 535.267 431.717 534.997 431.717H531.785C531.516 431.717 531.297 431.936 531.297 432.206V433.742C531.297 434.012 531.516 434.23 531.785 434.23Z" fill="#3F3D56"/>
<path d="M523.408 434.23H526.62C526.89 434.23 527.108 434.012 527.108 433.742V432.206C527.108 431.936 526.89 431.717 526.62 431.717H523.408C523.139 431.717 522.92 431.936 522.92 432.206V433.742C522.92 434.012 523.139 434.23 523.408 434.23Z" fill="#3F3D56"/>
<path d="M515.031 434.23H518.243C518.513 434.23 518.732 434.012 518.732 433.742V432.206C518.732 431.936 518.513 431.717 518.243 431.717H515.031C514.762 431.717 514.543 431.936 514.543 432.206V433.742C514.543 434.012 514.762 434.23 515.031 434.23Z" fill="#3F3D56"/>
<path d="M506.654 434.23H509.866C510.136 434.23 510.354 434.012 510.354 433.742V432.206C510.354 431.936 510.136 431.717 509.866 431.717H506.654C506.385 431.717 506.166 431.936 506.166 432.206V433.742C506.166 434.012 506.385 434.23 506.654 434.23Z" fill="#3F3D56"/>
<path d="M498.277 434.23H501.489C501.759 434.23 501.977 434.012 501.977 433.742V432.206C501.977 431.936 501.759 431.717 501.489 431.717H498.277C498.008 431.717 497.789 431.936 497.789 432.206V433.742C497.789 434.012 498.008 434.23 498.277 434.23Z" fill="#3F3D56"/>
<path d="M624.031 438.419H627.243C627.513 438.419 627.731 438.2 627.731 437.931V436.394C627.731 436.124 627.513 435.906 627.243 435.906H624.031C623.761 435.906 623.543 436.124 623.543 436.394V437.931C623.543 438.2 623.761 438.419 624.031 438.419Z" fill="#3F3D56"/>
<path d="M615.654 438.419H618.866C619.136 438.419 619.354 438.2 619.354 437.931V436.394C619.354 436.124 619.136 435.906 618.866 435.906H615.654C615.384 435.906 615.166 436.124 615.166 436.394V437.931C615.166 438.2 615.384 438.419 615.654 438.419Z" fill="#3F3D56"/>
<path d="M607.277 438.419H610.489C610.759 438.419 610.977 438.2 610.977 437.931V436.394C610.977 436.124 610.759 435.906 610.489 435.906H607.277C607.007 435.906 606.789 436.124 606.789 436.394V437.931C606.789 438.2 607.007 438.419 607.277 438.419Z" fill="#3F3D56"/>
<path d="M598.9 438.419H602.112C602.382 438.419 602.6 438.2 602.6 437.931V436.394C602.6 436.124 602.382 435.906 602.112 435.906H598.9C598.63 435.906 598.412 436.124 598.412 436.394V437.931C598.412 438.2 598.63 438.419 598.9 438.419Z" fill="#3F3D56"/>
<path d="M590.523 438.419H593.735C594.005 438.419 594.223 438.2 594.223 437.931V436.394C594.223 436.124 594.005 435.906 593.735 435.906H590.523C590.253 435.906 590.035 436.124 590.035 436.394V437.931C590.035 438.2 590.253 438.419 590.523 438.419Z" fill="#3F3D56"/>
<path d="M582.146 438.419H585.358C585.628 438.419 585.846 438.2 585.846 437.931V436.394C585.846 436.124 585.628 435.906 585.358 435.906H582.146C581.876 435.906 581.658 436.124 581.658 436.394V437.931C581.658 438.2 581.876 438.419 582.146 438.419Z" fill="#3F3D56"/>
<path d="M573.769 438.419H576.981C577.251 438.419 577.469 438.2 577.469 437.931V436.394C577.469 436.124 577.251 435.906 576.981 435.906H573.769C573.499 435.906 573.281 436.124 573.281 436.394V437.931C573.281 438.2 573.499 438.419 573.769 438.419Z" fill="#3F3D56"/>
<path d="M565.392 438.419H568.604C568.874 438.419 569.092 438.2 569.092 437.931V436.394C569.092 436.124 568.874 435.906 568.604 435.906H565.392C565.122 435.906 564.904 436.124 564.904 436.394V437.931C564.904 438.2 565.122 438.419 565.392 438.419Z" fill="#3F3D56"/>
<path d="M557.015 438.419H560.227C560.497 438.419 560.715 438.2 560.715 437.931V436.394C560.715 436.124 560.497 435.906 560.227 435.906H557.015C556.745 435.906 556.527 436.124 556.527 436.394V437.931C556.527 438.2 556.745 438.419 557.015 438.419Z" fill="#3F3D56"/>
<path d="M548.638 438.419H551.85C552.12 438.419 552.338 438.2 552.338 437.931V436.394C552.338 436.124 552.12 435.906 551.85 435.906H548.638C548.369 435.906 548.15 436.124 548.15 436.394V437.931C548.15 438.2 548.369 438.419 548.638 438.419Z" fill="#3F3D56"/>
<path d="M540.261 438.419H543.473C543.743 438.419 543.961 438.2 543.961 437.931V436.394C543.961 436.124 543.743 435.906 543.473 435.906H540.261C539.991 435.906 539.773 436.124 539.773 436.394V437.931C539.773 438.2 539.991 438.419 540.261 438.419Z" fill="#3F3D56"/>
<path d="M531.884 438.419H535.096C535.366 438.419 535.584 438.2 535.584 437.931V436.394C535.584 436.124 535.366 435.906 535.096 435.906H531.884C531.615 435.906 531.396 436.124 531.396 436.394V437.931C531.396 438.2 531.615 438.419 531.884 438.419Z" fill="#3F3D56"/>
<path d="M523.507 438.419H526.719C526.989 438.419 527.207 438.2 527.207 437.931V436.394C527.207 436.124 526.989 435.906 526.719 435.906H523.507C523.238 435.906 523.019 436.124 523.019 436.394V437.931C523.019 438.2 523.238 438.419 523.507 438.419Z" fill="#3F3D56"/>
<path d="M515.13 438.419H518.342C518.612 438.419 518.831 438.2 518.831 437.931V436.394C518.831 436.124 518.612 435.906 518.342 435.906H515.13C514.861 435.906 514.642 436.124 514.642 436.394V437.931C514.642 438.2 514.861 438.419 515.13 438.419Z" fill="#3F3D56"/>
<path d="M506.753 438.419H509.965C510.235 438.419 510.453 438.2 510.453 437.931V436.394C510.453 436.124 510.235 435.906 509.965 435.906H506.753C506.484 435.906 506.265 436.124 506.265 436.394V437.931C506.265 438.2 506.484 438.419 506.753 438.419Z" fill="#3F3D56"/>
<path d="M498.376 438.419H501.588C501.858 438.419 502.077 438.2 502.077 437.931V436.394C502.077 436.124 501.858 435.906 501.588 435.906H498.376C498.107 435.906 497.888 436.124 497.888 436.394V437.931C497.888 438.2 498.107 438.419 498.376 438.419Z" fill="#3F3D56"/>
<path d="M554.502 443.445H587.034C587.303 443.445 587.522 443.226 587.522 442.957V441.42C587.522 441.151 587.303 440.932 587.034 440.932H554.502C554.232 440.932 554.014 441.151 554.014 441.42V442.957C554.014 443.226 554.232 443.445 554.502 443.445Z" fill="#3F3D56"/>
<path d="M520.036 358.737H517.192C516.33 358.737 515.631 359.436 515.631 360.298C515.631 361.16 516.33 361.859 517.192 361.859H520.036C520.898 361.859 521.597 361.16 521.597 360.298C521.597 359.436 520.898 358.737 520.036 358.737Z" fill="white"/>
<path d="M552.559 358.737H549.715C548.853 358.737 548.154 359.436 548.154 360.298C548.154 361.16 548.853 361.859 549.715 361.859H552.559C553.421 361.859 554.12 361.16 554.12 360.298C554.12 359.436 553.421 358.737 552.559 358.737Z" fill="white"/>
<path d="M561.774 358.737H558.93C558.068 358.737 557.369 359.436 557.369 360.298C557.369 361.16 558.068 361.859 558.93 361.859H561.774C562.636 361.859 563.335 361.16 563.335 360.298C563.335 359.436 562.636 358.737 561.774 358.737Z" fill="white"/>
<path d="M543.712 358.477H526.039C525.176 358.477 524.477 359.176 524.477 360.038C524.477 360.9 525.176 361.599 526.039 361.599H543.712C544.575 361.599 545.274 360.9 545.274 360.038C545.274 359.176 544.575 358.477 543.712 358.477Z" fill="white"/>
<path d="M587.076 358.477H569.403C568.54 358.477 567.841 359.176 567.841 360.038C567.841 360.9 568.54 361.599 569.403 361.599H587.076C587.939 361.599 588.638 360.9 588.638 360.038C588.638 359.176 587.939 358.477 587.076 358.477Z" fill="white"/>
<path d="M528.709 365.784H525.865C525.003 365.784 524.304 366.483 524.304 367.345C524.304 368.207 525.003 368.906 525.865 368.906H528.709C529.571 368.906 530.27 368.207 530.27 367.345C530.27 366.483 529.571 365.784 528.709 365.784Z" fill="white"/>
<path d="M561.232 365.784H558.388C557.526 365.784 556.827 366.483 556.827 367.345C556.827 368.207 557.526 368.906 558.388 368.906H561.232C562.094 368.906 562.793 368.207 562.793 367.345C562.793 366.483 562.094 365.784 561.232 365.784Z" fill="white"/>
<path d="M570.446 365.784H567.603C566.741 365.784 566.042 366.483 566.042 367.345C566.042 368.207 566.741 368.906 567.603 368.906H570.446C571.309 368.906 572.008 368.207 572.008 367.345C572.008 366.483 571.309 365.784 570.446 365.784Z" fill="white"/>
<path d="M552.385 365.523H534.711C533.849 365.523 533.15 366.222 533.15 367.085C533.15 367.947 533.849 368.646 534.711 368.646H552.385C553.247 368.646 553.946 367.947 553.946 367.085C553.946 366.222 553.247 365.523 552.385 365.523Z" fill="white"/>
<path d="M595.749 365.523H578.075C577.213 365.523 576.514 366.222 576.514 367.085C576.514 367.947 577.213 368.646 578.075 368.646H595.749C596.611 368.646 597.31 367.947 597.31 367.085C597.31 366.222 596.611 365.523 595.749 365.523Z" fill="white"/>
<path d="M537.381 372.83H534.538C533.676 372.83 532.977 373.529 532.977 374.391C532.977 375.254 533.676 375.952 534.538 375.952H537.381C538.244 375.952 538.943 375.254 538.943 374.391C538.943 373.529 538.244 372.83 537.381 372.83Z" fill="white"/>
<path d="M569.904 372.83H567.061C566.199 372.83 565.5 373.529 565.5 374.391C565.5 375.254 566.199 375.952 567.061 375.952H569.904C570.767 375.952 571.466 375.254 571.466 374.391C571.466 373.529 570.767 372.83 569.904 372.83Z" fill="white"/>
<path d="M579.119 372.83H576.276C575.413 372.83 574.715 373.529 574.715 374.391C574.715 375.254 575.413 375.952 576.276 375.952H579.119C579.981 375.952 580.68 375.254 580.68 374.391C580.68 373.529 579.981 372.83 579.119 372.83Z" fill="white"/>
<path d="M561.058 372.57H543.384C542.522 372.57 541.823 373.269 541.823 374.131C541.823 374.993 542.522 375.692 543.384 375.692H561.058C561.92 375.692 562.619 374.993 562.619 374.131C562.619 373.269 561.92 372.57 561.058 372.57Z" fill="white"/>
<path d="M604.422 372.57H586.748C585.886 372.57 585.187 373.269 585.187 374.131C585.187 374.993 585.886 375.692 586.748 375.692H604.422C605.284 375.692 605.983 374.993 605.983 374.131C605.983 373.269 605.284 372.57 604.422 372.57Z" fill="white"/>
<path d="M546.054 379.877H543.211C542.348 379.877 541.649 380.576 541.649 381.438C541.649 382.3 542.348 382.999 543.211 382.999H546.054C546.916 382.999 547.615 382.3 547.615 381.438C547.615 380.576 546.916 379.877 546.054 379.877Z" fill="white"/>
<path d="M578.577 379.877H575.734C574.871 379.877 574.172 380.576 574.172 381.438C574.172 382.3 574.871 382.999 575.734 382.999H578.577C579.439 382.999 580.138 382.3 580.138 381.438C580.138 380.576 579.439 379.877 578.577 379.877Z" fill="white"/>
<path d="M587.792 379.877H584.948C584.086 379.877 583.387 380.576 583.387 381.438C583.387 382.3 584.086 382.999 584.948 382.999H587.792C588.654 382.999 589.353 382.3 589.353 381.438C589.353 380.576 588.654 379.877 587.792 379.877Z" fill="white"/>
<path d="M569.731 379.617H552.057C551.195 379.617 550.496 380.316 550.496 381.178C550.496 382.04 551.195 382.739 552.057 382.739H569.731C570.593 382.739 571.292 382.04 571.292 381.178C571.292 380.316 570.593 379.617 569.731 379.617Z" fill="white"/>
<path d="M552.559 407.897H549.715C548.853 407.897 548.154 408.596 548.154 409.459C548.154 410.321 548.853 411.02 549.715 411.02H552.559C553.421 411.02 554.12 410.321 554.12 409.459C554.12 408.596 553.421 407.897 552.559 407.897Z" fill="white"/>
<path d="M561.774 407.897H558.93C558.068 407.897 557.369 408.596 557.369 409.459C557.369 410.321 558.068 411.02 558.93 411.02H561.774C562.636 411.02 563.335 410.321 563.335 409.459C563.335 408.596 562.636 407.897 561.774 407.897Z" fill="white"/>
<path d="M587.076 408.158H569.403C568.54 408.158 567.841 408.857 567.841 409.719C567.841 410.581 568.54 411.28 569.403 411.28H587.076C587.939 411.28 588.638 410.581 588.638 409.719C588.638 408.857 587.939 408.158 587.076 408.158Z" fill="white"/>
<path d="M520.036 407.897H517.192C516.33 407.897 515.631 408.596 515.631 409.459C515.631 410.321 516.33 411.02 517.192 411.02H520.036C520.898 411.02 521.597 410.321 521.597 409.459C521.597 408.596 520.898 407.897 520.036 407.897Z" fill="white"/>
<path d="M543.712 408.158H526.039C525.176 408.158 524.477 408.857 524.477 409.719C524.477 410.581 525.176 411.28 526.039 411.28H543.712C544.575 411.28 545.274 410.581 545.274 409.719C545.274 408.857 544.575 408.158 543.712 408.158Z" fill="white"/>
<path d="M528.709 400.851H525.865C525.003 400.851 524.304 401.55 524.304 402.412C524.304 403.274 525.003 403.973 525.865 403.973H528.709C529.571 403.973 530.27 403.274 530.27 402.412C530.27 401.55 529.571 400.851 528.709 400.851Z" fill="white"/>
<path d="M561.232 400.851H558.388C557.526 400.851 556.827 401.55 556.827 402.412C556.827 403.274 557.526 403.973 558.388 403.973H561.232C562.094 403.973 562.793 403.274 562.793 402.412C562.793 401.55 562.094 400.851 561.232 400.851Z" fill="white"/>
<path d="M570.446 400.851H567.603C566.741 400.851 566.042 401.55 566.042 402.412C566.042 403.274 566.741 403.973 567.603 403.973H570.446C571.309 403.973 572.008 403.274 572.008 402.412C572.008 401.55 571.309 400.851 570.446 400.851Z" fill="white"/>
<path d="M552.385 401.111H534.711C533.849 401.111 533.15 401.81 533.15 402.672C533.15 403.534 533.849 404.233 534.711 404.233H552.385C553.247 404.233 553.946 403.534 553.946 402.672C553.946 401.81 553.247 401.111 552.385 401.111Z" fill="white"/>
<path d="M537.381 393.804H534.538C533.676 393.804 532.977 394.503 532.977 395.365C532.977 396.227 533.676 396.926 534.538 396.926H537.381C538.244 396.926 538.943 396.227 538.943 395.365C538.943 394.503 538.244 393.804 537.381 393.804Z" fill="white"/>
<path d="M569.904 393.804H567.061C566.199 393.804 565.5 394.503 565.5 395.365C565.5 396.227 566.199 396.926 567.061 396.926H569.904C570.767 396.926 571.466 396.227 571.466 395.365C571.466 394.503 570.767 393.804 569.904 393.804Z" fill="white"/>
<path d="M579.119 393.804H576.276C575.413 393.804 574.715 394.503 574.715 395.365C574.715 396.227 575.413 396.926 576.276 396.926H579.119C579.981 396.926 580.68 396.227 580.68 395.365C580.68 394.503 579.981 393.804 579.119 393.804Z" fill="white"/>
<path d="M561.058 394.064H543.384C542.522 394.064 541.823 394.763 541.823 395.626C541.823 396.488 542.522 397.187 543.384 397.187H561.058C561.92 397.187 562.619 396.488 562.619 395.626C562.619 394.763 561.92 394.064 561.058 394.064Z" fill="white"/>
<path d="M546.054 386.758H543.211C542.348 386.758 541.649 387.457 541.649 388.319C541.649 389.181 542.348 389.88 543.211 389.88H546.054C546.916 389.88 547.615 389.181 547.615 388.319C547.615 387.457 546.916 386.758 546.054 386.758Z" fill="white"/>
<path d="M578.577 386.758H575.734C574.871 386.758 574.172 387.457 574.172 388.319C574.172 389.181 574.871 389.88 575.734 389.88H578.577C579.439 389.88 580.138 389.181 580.138 388.319C580.138 387.457 579.439 386.758 578.577 386.758Z" fill="white"/>
<path d="M587.792 386.758H584.948C584.086 386.758 583.387 387.457 583.387 388.319C583.387 389.181 584.086 389.88 584.948 389.88H587.792C588.654 389.88 589.353 389.181 589.353 388.319C589.353 387.457 588.654 386.758 587.792 386.758Z" fill="white"/>
<path d="M569.731 387.018H552.057C551.195 387.018 550.496 387.717 550.496 388.579C550.496 389.441 551.195 390.14 552.057 390.14H569.731C570.593 390.14 571.292 389.441 571.292 388.579C571.292 387.717 570.593 387.018 569.731 387.018Z" fill="white"/>
<path d="M504.917 490.482L491.568 469.38L533.47 435.977L550.765 416.816C553.012 414.327 555.873 412.471 559.062 411.433C562.251 410.396 565.657 410.214 568.938 410.905C572.22 411.596 575.262 413.136 577.762 415.372C580.262 417.607 582.131 420.46 583.183 423.644C584.742 428.363 584.407 433.502 582.248 437.979C580.089 442.455 576.276 445.917 571.613 447.635L544.264 457.71L504.917 490.482Z" fill="#FFB6B6"/>
<path d="M191.69 337.481V440.041H263.54V337.481C263.541 336.743 263.306 336.024 262.868 335.43C262.431 334.837 261.815 334.398 261.11 334.181C260.778 334.071 260.43 334.017 260.08 334.021H195.16C194.705 334.02 194.254 334.109 193.833 334.282C193.413 334.456 193.03 334.71 192.708 335.032C192.386 335.353 192.13 335.735 191.955 336.155C191.781 336.575 191.69 337.026 191.69 337.481ZM219.73 372.721C219.749 370.699 220.565 368.766 222.001 367.343C223.438 365.92 225.378 365.121 227.4 365.121C229.422 365.121 231.362 365.92 232.798 367.343C234.235 368.766 235.051 370.699 235.07 372.721V384.621C235.06 386.648 234.247 388.589 232.81 390.019C231.372 391.449 229.427 392.252 227.4 392.252C225.373 392.252 223.428 391.449 221.99 390.019C220.553 388.589 219.74 386.648 219.73 384.621V372.721Z" fill="#2F2E41"/>
<path d="M191.47 436.761V446.651C191.472 447.163 191.675 447.654 192.036 448.017C192.398 448.381 192.888 448.587 193.4 448.591H261.83C262.343 448.588 262.834 448.383 263.195 448.019C263.557 447.656 263.76 447.164 263.76 446.651V436.761H191.47Z" fill="#3F3D56"/>
<path d="M78.66 182.961V370.221C78.6619 372.607 79.6107 374.895 81.2981 376.583C82.9855 378.27 85.2736 379.219 87.66 379.221H365.16C367.546 379.219 369.834 378.27 371.522 376.583C373.209 374.895 374.158 372.607 374.16 370.221V182.961C374.154 180.577 373.204 178.292 371.517 176.607C369.83 174.922 367.544 173.974 365.16 173.971H87.66C85.2757 173.974 82.9898 174.922 81.3029 176.607C79.616 178.292 78.6657 180.577 78.66 182.961Z" fill="#3F3D56"/>
<path d="M85.17 185.291V367.911C85.1722 369.186 85.6796 370.408 86.5812 371.309C87.4828 372.211 88.705 372.719 89.98 372.721H362.85C364.125 372.719 365.347 372.211 366.249 371.309C367.15 370.408 367.658 369.186 367.66 367.911V185.291C367.66 184.014 367.153 182.79 366.252 181.886C365.35 180.983 364.127 180.473 362.85 180.471H89.98C88.7034 180.473 87.4801 180.983 86.5783 181.886C85.6766 182.79 85.1701 184.014 85.17 185.291Z" fill="white"/>
<path d="M135.81 447.921C136.088 448.269 136.441 448.55 136.843 448.742C137.244 448.934 137.685 449.033 138.13 449.031H300.47C300.914 449.03 301.352 448.931 301.753 448.74C302.154 448.548 302.507 448.27 302.786 447.925C303.066 447.581 303.265 447.178 303.37 446.746C303.474 446.315 303.481 445.865 303.39 445.431L300.87 433.461C300.766 432.973 300.541 432.518 300.216 432.139C299.891 431.76 299.476 431.469 299.01 431.291C298.672 431.158 298.313 431.09 297.95 431.091H140.64C140.277 431.09 139.918 431.158 139.58 431.291C139.114 431.469 138.699 431.76 138.374 432.139C138.049 432.518 137.824 432.973 137.72 433.461L135.2 445.431C135.11 445.865 135.119 446.314 135.224 446.745C135.33 447.175 135.53 447.577 135.81 447.921Z" fill="#2F2E41"/>
<path d="M353.995 205.628H98.6711C98.4057 205.622 98.1532 205.512 97.9676 205.322C97.782 205.133 97.6781 204.878 97.6781 204.612C97.6781 204.347 97.782 204.092 97.9676 203.902C98.1532 203.712 98.4057 203.603 98.6711 203.597H353.995C354.26 203.603 354.512 203.712 354.698 203.902C354.884 204.092 354.988 204.347 354.988 204.612C354.988 204.878 354.884 205.133 354.698 205.322C354.512 205.512 354.26 205.622 353.995 205.628Z" fill="#3F3D56"/>
<path d="M116.051 198.413C119.338 198.413 122.002 195.689 122.002 192.33C122.002 188.97 119.338 186.247 116.051 186.247C112.765 186.247 110.101 188.97 110.101 192.33C110.101 195.689 112.765 198.413 116.051 198.413Z" fill="#3F3D56"/>
<path d="M136.607 198.413C139.894 198.413 142.558 195.689 142.558 192.33C142.558 188.97 139.894 186.247 136.607 186.247C133.321 186.247 130.657 188.97 130.657 192.33C130.657 195.689 133.321 198.413 136.607 198.413Z" fill="#3F3D56"/>
<path d="M157.163 198.413C160.45 198.413 163.114 195.689 163.114 192.33C163.114 188.97 160.45 186.247 157.163 186.247C153.877 186.247 151.213 188.97 151.213 192.33C151.213 195.689 153.877 198.413 157.163 198.413Z" fill="#3F3D56"/>
<path d="M341.616 187.751H327.016C326.728 187.758 326.453 187.877 326.251 188.084C326.05 188.29 325.937 188.567 325.937 188.856C325.937 189.145 326.05 189.422 326.251 189.628C326.453 189.835 326.728 189.954 327.016 189.961H341.616C341.907 189.957 342.184 189.839 342.388 189.632C342.592 189.425 342.706 189.146 342.706 188.856C342.706 188.566 342.592 188.287 342.388 188.08C342.184 187.873 341.907 187.755 341.616 187.751Z" fill="#3F3D56"/>
<path d="M341.616 191.901H327.016C326.728 191.907 326.453 192.027 326.251 192.233C326.049 192.44 325.935 192.717 325.935 193.006C325.935 193.295 326.049 193.572 326.251 193.779C326.453 193.985 326.728 194.104 327.016 194.111H341.616C341.907 194.107 342.185 193.989 342.389 193.783C342.594 193.576 342.708 193.297 342.708 193.006C342.708 192.715 342.594 192.436 342.389 192.229C342.185 192.022 341.907 191.904 341.616 191.901Z" fill="#3F3D56"/>
<path d="M341.616 196.051H327.016C326.728 196.058 326.453 196.177 326.251 196.383C326.05 196.59 325.937 196.867 325.937 197.156C325.937 197.444 326.05 197.722 326.251 197.928C326.453 198.135 326.728 198.254 327.016 198.261H341.616C341.907 198.257 342.184 198.138 342.388 197.932C342.592 197.725 342.706 197.446 342.706 197.156C342.706 196.865 342.592 196.587 342.388 196.38C342.184 196.173 341.907 196.055 341.616 196.051Z" fill="#3F3D56"/>
<path d="M693.596 441.101C694.036 442.384 694.872 443.494 695.983 444.272C697.094 445.05 698.423 445.457 699.779 445.432L726.271 444.75C727.637 444.724 728.957 444.256 730.035 443.416C731.113 442.577 731.891 441.411 732.252 440.093L736 400.006C737.33 400.609 738.778 400.906 740.238 400.877C741.507 400.845 742.756 400.564 743.916 400.049C745.076 399.534 746.122 398.796 746.997 397.877C747.871 396.957 748.556 395.875 749.012 394.691C749.468 393.507 749.686 392.245 749.654 390.976C749.622 389.708 749.341 388.458 748.826 387.299C748.311 386.139 747.573 385.092 746.654 384.218C745.735 383.344 744.652 382.659 743.468 382.203C742.284 381.747 741.022 381.529 739.753 381.56C739.17 381.559 738.588 381.619 738.017 381.741C737.397 381.07 736.642 380.536 735.803 380.173C734.963 379.811 734.057 379.629 733.143 379.638L692.393 380.69C692.055 380.703 691.718 380.745 691.388 380.815C690.494 380.982 689.646 381.338 688.902 381.859C688.157 382.381 687.533 383.056 687.071 383.839C686.61 384.622 686.321 385.495 686.225 386.399C686.129 387.303 686.228 388.217 686.514 389.08L693.596 441.101ZM736.769 397.284L739.437 387.732C739.74 386.628 739.747 385.464 739.457 384.357C739.587 384.357 739.701 384.295 739.83 384.295C741.659 384.257 743.429 384.946 744.751 386.211C746.073 387.476 746.839 389.213 746.882 391.042C746.925 392.871 746.24 394.643 744.979 395.968C743.718 397.293 741.983 398.064 740.154 398.112C738.971 398.149 737.801 397.863 736.769 397.284Z" fill="#2F2E41"/>
<path d="M691.388 380.815C692.256 385.779 702.017 389.269 713.753 388.662C724.546 388.165 733.371 384.375 734.988 379.884C734.389 379.707 733.767 379.624 733.143 379.638L692.393 380.69C692.055 380.703 691.718 380.744 691.388 380.815Z" fill="#3F3D56"/>
<path d="M715.904 419.073C715.958 419.059 716.009 419.037 716.055 419.007L721.808 415.241C721.878 415.196 721.935 415.134 721.975 415.061C722.014 414.988 722.035 414.906 722.035 414.823C722.035 414.74 722.014 414.658 721.975 414.585C721.935 414.512 721.878 414.45 721.809 414.405L715.829 410.488C715.774 410.452 715.713 410.427 715.648 410.414C715.583 410.402 715.517 410.402 715.452 410.415C715.388 410.429 715.327 410.454 715.272 410.491C715.218 410.528 715.171 410.576 715.135 410.631C715.099 410.686 715.074 410.747 715.062 410.812C715.05 410.877 715.051 410.943 715.064 411.008C715.078 411.072 715.104 411.133 715.141 411.187C715.178 411.242 715.226 411.288 715.281 411.324L720.622 414.822L715.508 418.17C715.409 418.235 715.336 418.333 715.302 418.446C715.269 418.559 715.276 418.681 715.324 418.789C715.371 418.898 715.456 418.986 715.562 419.038C715.668 419.089 715.79 419.102 715.904 419.073H715.904Z" fill="#2FA4DA"/>
<path d="M706.818 419.492C706.914 419.468 707.001 419.415 707.068 419.341C707.134 419.266 707.177 419.174 707.19 419.075C707.204 418.977 707.188 418.876 707.144 418.787C707.1 418.698 707.03 418.623 706.944 418.574L701.641 415.533L706.766 411.726C706.819 411.687 706.863 411.638 706.897 411.582C706.931 411.525 706.953 411.463 706.963 411.398C706.972 411.333 706.969 411.267 706.953 411.203C706.937 411.14 706.908 411.08 706.869 411.027C706.83 410.974 706.781 410.93 706.725 410.896C706.668 410.863 706.606 410.84 706.541 410.831C706.476 410.821 706.41 410.825 706.346 410.841C706.283 410.857 706.223 410.885 706.17 410.924L700.432 415.187C700.365 415.236 700.312 415.301 700.276 415.377C700.241 415.452 700.225 415.535 700.23 415.617C700.235 415.7 700.261 415.781 700.304 415.851C700.348 415.922 700.409 415.98 700.481 416.021L706.446 419.441C706.559 419.506 706.692 419.524 706.818 419.492Z" fill="#2FA4DA"/>
<path d="M715.332 422.373C715.381 422.361 715.427 422.341 715.469 422.315C715.525 422.281 715.574 422.236 715.613 422.183C715.652 422.13 715.68 422.07 715.695 422.006C715.711 421.942 715.714 421.876 715.704 421.811C715.694 421.746 715.671 421.684 715.637 421.628L707.481 408.22C707.412 408.107 707.301 408.026 707.172 407.994C707.043 407.963 706.907 407.985 706.794 408.054C706.681 408.123 706.6 408.234 706.568 408.362C706.537 408.491 706.558 408.627 706.627 408.74L714.782 422.149C714.838 422.24 714.921 422.311 715.02 422.351C715.119 422.392 715.229 422.399 715.332 422.373Z" fill="#2FA4DA"/>
<path d="M290.711 376.846L290.928 377.53L290.939 377.553L297.464 397.391L304.971 420.252L319.093 463.213L319.23 469.887V469.91L320.28 523.594L317.371 530.872L320.645 542.805C320.645 542.805 319.139 524.768 311.062 535.126C306.488 541.012 301.138 547.036 296.746 552.682C303.146 555.272 309.648 557.614 316.253 559.709C317.679 560.166 319.116 560.599 320.554 561.033C320.862 561.124 321.17 561.215 321.478 561.307C343.372 567.781 366.008 571.42 388.829 572.132C390.015 572.167 391.179 572.189 392.308 572.212C392.707 572.224 393.095 572.235 393.483 572.235C394.761 572.247 396.027 572.258 397.304 572.258C399.883 572.258 402.449 572.22 405.005 572.144C423.918 571.611 442.721 569.068 461.096 564.558C460.971 556.972 460.628 548.108 460.138 538.64C459.91 533.997 454.788 528.966 454.48 524.106C454.263 520.456 458.86 517.022 458.621 513.314C457.069 490.488 455.13 499.25 453.693 483.086C453.544 481.5 453.407 479.983 453.282 478.534C452.358 468.153 451.719 461.662 451.719 461.662L457.856 422.979L467.496 362.244L466.754 361.024L465.922 360.613L415.078 335.448L412.317 328.375C411.513 326.337 410.117 324.587 408.31 323.349C406.502 322.111 404.366 321.442 402.176 321.428L368.683 321.291C366.944 321.283 365.229 321.69 363.68 322.477C362.13 323.265 360.791 324.411 359.773 325.82L350.704 338.379L290.711 376.846Z" fill="#3F3D56"/>
<path d="M326.817 453.654L319.23 469.887L314.051 480.975L305.142 527.621L300.682 532.355L296.86 515.596L256.862 524.477C255.55 517.187 256.511 524.723 255.701 516.727C255.929 516.498 256.169 516.27 256.408 516.042C257.047 515.449 257.583 514.89 257.572 514.354C257.116 486.77 258.485 439.827 269.915 411.388C271.705 406.745 274.066 402.342 276.942 398.281C277.17 397.973 277.387 397.665 277.604 397.357C282.874 389.976 286.205 382.709 290.928 377.542V377.53C290.957 377.507 290.984 377.48 291.008 377.45C291.025 377.442 291.04 377.43 291.053 377.416L323.497 360.213L324.889 399.319L325.881 427.427L326.817 453.654Z" fill="#3F3D56"/>
<path d="M443.801 458.264L453.277 478.539L456.585 485.6L465.492 532.242L469.937 536.964L473.768 520.209L475.568 519.84L508.026 513.118L517.487 543.164C519.619 539.611 520.459 535.431 519.865 531.33C519.271 527.23 517.278 523.46 514.225 520.658C513.579 520.074 513.041 519.505 513.056 518.966C513.595 486.523 511.61 427.283 493.689 402.9C487.997 395.163 484.582 387.456 479.613 382.072C479.598 382.056 479.598 382.041 479.583 382.041L467.491 362.243L466.753 361.027L465.922 360.612L443.801 458.264Z" fill="#3F3D56"/>
<path d="M386.397 311.759C411.005 311.759 430.955 291.809 430.955 267.201C430.955 242.592 411.005 222.642 386.397 222.642C361.788 222.642 341.838 242.592 341.838 267.201C341.838 291.809 361.788 311.759 386.397 311.759Z" fill="#FFB6B6"/>
<path d="M446.622 236.077C446.277 235.708 445.861 235.412 445.398 235.208C444.936 235.003 444.438 234.894 443.932 234.887L444.602 233.027C444.821 232.441 444.88 231.807 444.773 231.191C444.667 230.575 444.398 229.998 443.995 229.52C443.592 229.042 443.069 228.679 442.48 228.47C441.891 228.26 441.257 228.211 440.642 228.327L438.202 228.797L438.432 227.167C438.52 226.56 438.449 225.94 438.225 225.369C438.001 224.798 437.633 224.295 437.155 223.909C436.678 223.524 436.109 223.269 435.503 223.171C434.898 223.072 434.277 223.133 433.702 223.347C433.179 223.553 432.617 223.639 432.056 223.599C431.496 223.559 430.951 223.395 430.462 223.117C429.972 222.848 429.546 222.475 429.214 222.024C428.882 221.573 428.653 221.055 428.542 220.507L427.692 216.407L427.602 216.187C423.462 209.287 415.502 204.267 405.762 202.427C397.092 200.777 388.202 201.617 379.632 202.407C376.232 202.727 372.392 203.087 369.192 205.047C366.472 206.727 364.172 210.087 364.642 213.477C356.192 210.887 347.132 216.057 342.642 222.577C337.322 230.337 336.452 240.057 336.312 247.657C335.932 265.637 339.642 280.347 347.312 291.387C347.872 292.187 348.012 293.857 349.122 294.417L348.892 294.047C350.132 294.667 351.392 295.667 350.922 296.737C349.572 299.817 358.542 306.627 364.862 308.877C376.392 312.987 391.722 312.637 402.502 311.157L402.882 308.607C406.772 308.077 409.512 307.067 410.282 305.487C411.642 304.327 412.802 303.287 413.812 302.327L413.822 302.317C413.842 302.297 413.882 302.267 413.902 302.247C418.772 297.577 419.902 294.917 420.412 290.867C420.902 286.897 420.032 282.867 419.142 279.237C437.882 282.137 411.762 259.277 429.222 254.857C429.423 254.795 429.626 254.745 429.832 254.707C430.342 254.587 430.852 254.467 431.342 254.327C433.704 253.686 435.966 252.72 438.062 251.457C442.942 248.487 444.552 244.547 447.072 240.107C447.436 239.475 447.588 238.743 447.507 238.018C447.426 237.293 447.116 236.613 446.622 236.077Z" fill="#2F2E41"/>
<path d="M543.992 461.437C543.982 463.187 543.962 465.637 543.882 468.667C543.872 469.087 543.862 469.517 543.852 469.957C543.722 475.527 543.592 480.197 543.382 485.387C543.372 485.747 543.362 486.097 543.342 486.457C543.062 493.697 542.622 502.127 541.862 515.477C540.452 540.137 537.992 518.867 535.522 527.517C535.402 527.947 535.272 528.457 535.152 529.057C534.778 531.234 534.147 533.359 533.272 535.387C531.962 536.167 530.612 536.917 529.282 537.667C525.492 539.777 521.642 541.807 517.762 543.737C515.582 544.817 513.392 545.877 511.192 546.897C510.842 547.057 510.502 547.217 510.162 547.367C498.896 552.578 487.286 557.008 475.412 560.627C473.092 561.327 470.782 562.007 468.442 562.637C466.002 563.317 463.562 563.957 461.092 564.557C442.717 569.068 423.915 571.612 405.002 572.147C402.452 572.227 399.882 572.257 397.302 572.257C396.022 572.257 394.762 572.247 393.482 572.237C393.092 572.237 392.702 572.227 392.312 572.217C391.182 572.187 390.012 572.167 388.832 572.137C366.011 571.425 343.376 567.785 321.482 561.307L320.552 561.037C319.112 560.597 317.682 560.167 316.252 559.707C309.652 557.617 303.149 555.277 296.742 552.687C291.852 550.717 287.019 548.604 282.242 546.347C282.199 546.335 282.158 546.315 282.122 546.287C281.122 545.827 280.112 545.347 279.112 544.857C278.982 544.787 278.842 544.717 278.702 544.647C274.972 542.827 271.282 540.92 267.632 538.927C264.562 531.877 260.242 530.527 257.562 524.327C256.782 522.485 256.219 520.559 255.882 518.587C255.882 518.567 255.872 518.547 255.872 518.517C256.152 522.237 254.682 511.917 255.862 518.477C255.852 518.357 255.842 518.227 255.832 518.077C255.802 517.717 255.762 517.277 255.702 516.727C252.272 483.237 252.492 444.937 251.002 413.377C250.902 411.337 250.799 409.384 250.692 407.517C250.662 406.897 250.622 406.287 250.582 405.687C250.652 405.507 250.732 405.317 250.822 405.137C250.841 405.085 250.865 405.035 250.892 404.987C250.922 404.925 250.955 404.865 250.992 404.807C251.012 404.777 251.042 404.737 251.062 404.707C251.077 404.673 251.094 404.639 251.112 404.607C251.202 404.467 251.302 404.317 251.412 404.177C251.462 404.117 251.502 404.067 251.552 404.017C251.587 403.966 251.627 403.919 251.672 403.877C251.703 403.829 251.74 403.785 251.782 403.747C251.822 403.707 251.862 403.657 251.912 403.607C251.934 403.575 251.961 403.548 251.992 403.527C252.071 403.436 252.158 403.352 252.252 403.277C252.609 402.949 252.99 402.648 253.392 402.377C253.532 402.287 253.682 402.197 253.822 402.097C254.83 401.494 255.891 400.985 256.992 400.577C257.372 400.437 257.752 400.307 258.162 400.167C258.312 400.127 258.452 400.077 258.602 400.027C258.822 399.957 259.042 399.887 259.272 399.837C260.412 399.497 261.642 399.207 262.972 398.937C263.132 398.907 263.302 398.877 263.472 398.837C263.712 398.787 263.962 398.747 264.212 398.707C264.552 398.647 264.902 398.587 265.252 398.527C268.222 398.057 271.592 397.707 275.312 397.477C275.662 397.457 276.012 397.437 276.362 397.417C276.772 397.397 277.182 397.377 277.602 397.357C277.952 397.337 278.312 397.327 278.672 397.317C279.022 397.297 279.382 397.287 279.752 397.277C280.762 397.247 281.802 397.217 282.862 397.197C285.882 397.137 289.062 397.157 292.402 397.227C293.952 397.267 295.532 397.307 297.152 397.377C297.262 397.377 297.362 397.387 297.462 397.387C298.872 397.437 300.292 397.497 301.752 397.577C302.772 397.627 303.802 397.677 304.832 397.737C305.802 397.797 306.782 397.857 307.772 397.927C308.542 397.967 309.312 398.027 310.092 398.077C310.752 398.127 311.412 398.177 312.072 398.217L312.972 398.277C313.462 398.317 313.952 398.347 314.452 398.397C315.552 398.487 316.652 398.577 317.772 398.667C318.882 398.767 320.012 398.867 321.142 398.967C322.272 399.067 323.412 399.177 324.552 399.287C324.672 399.297 324.782 399.307 324.892 399.317C325.932 399.427 326.972 399.527 328.022 399.637C328.262 399.657 328.512 399.677 328.752 399.707C329.753 399.807 330.774 399.925 331.784 400.033C332.094 400.066 332.403 400.098 332.714 400.132C333.505 400.219 334.285 400.293 335.082 400.387C336.132 400.507 337.202 400.617 338.242 400.757C339.052 400.847 339.862 400.937 340.672 401.037C341.942 401.187 343.232 401.347 344.522 401.517C345.012 401.577 345.502 401.637 345.992 401.707C349.672 402.167 353.392 402.677 357.172 403.207C362.902 404.017 368.722 404.897 374.582 405.847C380.452 406.797 386.356 407.8 392.292 408.857C393.792 409.127 395.292 409.397 396.802 409.677C397.482 409.807 398.162 409.937 398.842 410.067C400.002 410.277 401.162 410.497 402.322 410.717C403.482 410.937 404.642 411.157 405.802 411.387C407.182 411.657 408.572 411.927 409.952 412.197C419.042 413.997 428.082 415.917 436.902 417.927C438.352 418.257 439.802 418.597 441.242 418.927C444.122 419.597 446.976 420.277 449.802 420.967C450.582 421.147 451.352 421.337 452.122 421.527C454.042 422.007 455.962 422.487 457.852 422.977L458.182 423.067C459.572 423.407 460.932 423.757 462.292 424.117C465.502 424.957 468.659 425.807 471.762 426.667C473.822 427.237 475.859 427.814 477.872 428.397C480.882 429.267 483.832 430.147 486.702 431.037C487.412 431.257 488.122 431.477 488.822 431.687C490.922 432.337 492.992 432.997 495.002 433.657C496.602 434.177 498.162 434.707 499.702 435.237C501.242 435.767 502.752 436.297 504.232 436.827C505.182 437.167 506.122 437.527 507.062 437.867C508.412 438.367 509.742 438.867 511.042 439.367C511.442 439.517 511.832 439.677 512.222 439.827C512.472 439.937 512.712 440.027 512.952 440.127C513.422 440.317 513.902 440.497 514.362 440.687C514.832 440.867 515.292 441.057 515.752 441.257C516.202 441.437 516.662 441.627 517.102 441.817C517.552 441.997 517.992 442.187 518.432 442.387C518.802 442.537 519.162 442.697 519.512 442.857C520.222 443.167 520.932 443.477 521.622 443.797C521.962 443.957 522.302 444.107 522.642 444.267L523.422 444.627C523.532 444.687 523.642 444.737 523.752 444.787C524.002 444.907 524.262 445.037 524.512 445.157C525.092 445.427 525.662 445.717 526.222 445.987C526.972 446.367 527.702 446.747 528.402 447.117C529.112 447.497 529.802 447.877 530.462 448.247C530.572 448.307 530.672 448.367 530.782 448.427C530.932 448.507 531.082 448.597 531.232 448.677C531.742 448.967 532.232 449.267 532.722 449.557C533.682 450.147 534.592 450.727 535.442 451.307C535.632 451.437 535.812 451.567 536.002 451.687C536.632 452.137 537.232 452.577 537.792 453.027C537.792 453.037 537.792 453.037 537.802 453.037C537.992 453.177 538.172 453.327 538.352 453.467C538.502 453.607 538.662 453.727 538.812 453.867C539.332 454.317 539.812 454.747 540.252 455.187C540.4 455.323 540.54 455.466 540.672 455.617C540.73 455.665 540.784 455.719 540.832 455.777C541.032 455.977 541.212 456.177 541.382 456.377C541.409 456.404 541.432 456.434 541.452 456.467C541.692 456.747 541.912 457.027 542.122 457.307C542.222 457.447 542.332 457.587 542.422 457.727C542.542 457.897 542.662 458.077 542.762 458.247C542.852 458.387 542.932 458.537 543.012 458.677C543.224 459.037 543.405 459.415 543.552 459.807C543.665 460.072 543.755 460.346 543.822 460.627C543.898 460.892 543.955 461.163 543.992 461.437Z" fill="#2F2E41"/>
<path opacity="0.2" d="M543.992 461.437C543.982 463.187 543.962 465.637 543.882 468.667C543.872 469.087 543.852 469.517 543.842 469.957C543.742 474.207 543.592 479.457 543.382 485.387C543.372 485.747 543.362 486.097 543.342 486.457C543.062 493.697 542.622 502.127 541.862 515.477C540.452 540.137 537.992 518.867 535.522 527.517C528.662 523.297 521.142 518.877 513.102 514.337C511.652 513.517 510.189 512.693 508.712 511.867C492.632 502.897 474.672 493.497 455.922 484.187C455.182 483.817 454.432 483.447 453.692 483.087C410.742 461.857 363.862 441.207 325.882 427.427C318.552 424.767 311.552 422.367 304.972 420.257C291.112 415.827 279.132 412.727 269.912 411.387C260.312 409.987 253.682 410.487 251.002 413.377C250.902 411.337 250.799 409.383 250.692 407.517C250.652 406.897 250.612 406.287 250.572 405.687C250.634 405.522 250.714 405.365 250.792 405.207C250.803 405.183 250.811 405.16 250.822 405.137C250.841 405.085 250.865 405.035 250.892 404.987C250.922 404.925 250.955 404.865 250.992 404.807C251.025 404.736 251.065 404.669 251.112 404.607C251.202 404.467 251.302 404.317 251.412 404.177C251.493 404.072 251.58 403.972 251.672 403.877C251.703 403.829 251.74 403.785 251.782 403.747C251.822 403.707 251.862 403.657 251.912 403.607C251.934 403.575 251.961 403.548 251.992 403.527C252.071 403.436 252.158 403.352 252.252 403.277C252.609 402.948 252.99 402.648 253.392 402.377C253.532 402.287 253.682 402.197 253.822 402.097C254.83 401.494 255.891 400.985 256.992 400.577C257.372 400.437 257.752 400.307 258.162 400.167C258.312 400.127 258.452 400.077 258.602 400.027C258.822 399.957 259.042 399.887 259.272 399.837C260.412 399.497 261.642 399.207 262.972 398.937C263.372 398.857 263.792 398.777 264.212 398.707C264.552 398.647 264.902 398.587 265.252 398.527C268.222 398.057 271.592 397.707 275.312 397.477C275.662 397.457 276.012 397.437 276.362 397.417C276.772 397.397 277.182 397.377 277.602 397.357C277.952 397.337 278.312 397.327 278.672 397.317C279.022 397.297 279.382 397.287 279.752 397.277C280.762 397.247 281.802 397.217 282.862 397.197C285.882 397.147 289.062 397.167 292.402 397.237C293.952 397.267 295.532 397.317 297.152 397.387C297.252 397.387 297.362 397.397 297.462 397.397C298.872 397.437 300.302 397.507 301.752 397.577C302.772 397.627 303.802 397.677 304.832 397.737C305.802 397.797 306.782 397.857 307.772 397.927C308.542 397.967 309.312 398.027 310.092 398.077C310.752 398.127 311.412 398.177 312.072 398.217C312.862 398.277 313.652 398.337 314.452 398.397C315.552 398.487 316.652 398.577 317.772 398.667C318.882 398.767 320.012 398.867 321.142 398.967C322.272 399.067 323.412 399.177 324.552 399.287C324.672 399.297 324.782 399.307 324.892 399.317C325.932 399.427 326.972 399.527 328.022 399.637C333.842 400.227 339.832 400.917 345.992 401.707C349.672 402.177 353.399 402.68 357.172 403.217C362.902 404.027 368.722 404.907 374.582 405.847C380.452 406.797 386.356 407.8 392.292 408.857C393.792 409.127 395.292 409.397 396.802 409.677C398.642 410.017 400.482 410.363 402.322 410.717C403.482 410.937 404.642 411.157 405.802 411.387C407.182 411.657 408.572 411.927 409.952 412.197C419.042 413.997 428.082 415.917 436.902 417.927C438.352 418.257 439.802 418.597 441.242 418.927C444.122 419.597 446.976 420.277 449.802 420.967C450.582 421.157 451.352 421.347 452.122 421.537C454.052 422.017 455.962 422.497 457.852 422.977V422.987C457.962 423.007 458.072 423.037 458.182 423.067C459.562 423.417 460.932 423.767 462.292 424.127C465.502 424.967 468.659 425.813 471.762 426.667C473.822 427.247 475.862 427.817 477.872 428.397C480.882 429.277 483.832 430.157 486.702 431.037C487.412 431.257 488.122 431.477 488.822 431.687C490.922 432.347 492.982 433.003 495.002 433.657C496.602 434.177 498.162 434.707 499.702 435.237C501.242 435.767 502.752 436.297 504.232 436.827C505.192 437.167 506.132 437.517 507.062 437.857C508.422 438.357 509.742 438.857 511.042 439.367C511.442 439.517 511.832 439.677 512.222 439.827C512.952 440.107 513.662 440.397 514.362 440.687C514.832 440.867 515.292 441.057 515.752 441.257C516.202 441.437 516.662 441.627 517.102 441.817C517.552 441.997 517.992 442.187 518.432 442.387C518.802 442.537 519.162 442.697 519.512 442.857C520.222 443.167 520.932 443.477 521.622 443.797C521.962 443.957 522.302 444.107 522.642 444.267L523.422 444.627C523.532 444.687 523.642 444.737 523.752 444.787C524.602 445.187 525.422 445.587 526.222 445.987C526.972 446.367 527.702 446.747 528.402 447.117C529.232 447.557 530.022 447.987 530.782 448.427C530.932 448.507 531.082 448.597 531.232 448.677C531.742 448.967 532.232 449.267 532.722 449.557C533.682 450.147 534.592 450.727 535.442 451.307C536.282 451.887 537.062 452.457 537.792 453.027C537.792 453.037 537.792 453.037 537.802 453.037C538.152 453.317 538.492 453.597 538.812 453.867C539.332 454.317 539.812 454.747 540.252 455.187C540.4 455.322 540.54 455.466 540.672 455.617C540.73 455.665 540.784 455.718 540.832 455.777C541.042 456.007 541.252 456.237 541.452 456.467C541.692 456.747 541.912 457.027 542.122 457.307C542.222 457.447 542.332 457.587 542.422 457.727C542.542 457.897 542.662 458.077 542.762 458.247C542.852 458.387 542.932 458.537 543.012 458.677C543.224 459.037 543.405 459.415 543.552 459.807C543.662 460.073 543.752 460.347 543.822 460.627C543.898 460.892 543.955 461.163 543.992 461.437Z" fill="black"/>
<path d="M269.546 258.511C248.995 237.945 212.42 236.899 190.661 256.226C175.344 269.656 169.241 290.28 167.236 309.813C165.821 323.891 166.661 339.002 173.885 351.547C181.138 360.864 193.772 362.825 204.858 363.385C226.956 364.373 250.307 359.036 267.968 345.046C289.256 326.781 294.224 292.771 278.597 269.464C276.047 265.484 272.966 261.813 269.546 258.511Z" fill="black" fill-opacity="0.31373"/>
<path d="M262.175 243.768C241.624 223.203 205.049 222.157 183.29 241.483C167.973 254.913 161.87 275.537 159.865 295.071C158.45 309.149 159.29 324.26 166.514 336.805C173.767 346.122 186.401 348.083 197.487 348.643C219.585 349.631 242.936 344.294 260.597 330.304C281.885 312.039 286.853 278.029 271.226 254.722C268.676 250.741 265.595 247.071 262.175 243.768Z" fill="#DC9A6A" stroke="black" stroke-width="5.8968" stroke-linecap="round" stroke-linejoin="round"/>
<path d="M215.826 227.891C220.204 228.938 224.45 230.545 228.415 232.786C232.263 234.864 235.904 237.356 239.162 240.26C258.813 257.066 262.868 288.466 248.524 309.931C236.302 326.722 216.887 337.233 197.03 341.832C188.981 343.646 179.811 344.899 171.968 341.921C179.221 346.904 188.818 348.216 197.472 348.643C219.57 349.631 242.922 344.294 260.597 330.304C281.885 312.039 286.853 278.029 271.226 254.722C268.676 250.727 265.595 247.071 262.175 243.754C250.16 231.724 232.646 226.388 215.826 227.891Z" fill="black" fill-opacity="0.31373"/>
<path fill-rule="evenodd" clip-rule="evenodd" d="M262.72 238.594C266.774 226.004 287.221 214.373 293.28 218.751C299.339 223.144 299.811 233.582 298.735 235.13C297.673 236.663 286.735 231.931 279.836 237.636C272.951 243.326 269.487 248.191 269.487 248.191L262.72 238.594Z" fill="url(#paint0_linear_2_695)" stroke="black" stroke-width="5.8968"/>
<path fill-rule="evenodd" clip-rule="evenodd" d="M297.452 224.221C297.585 225.592 297.393 226.727 297.025 227.169C295.978 228.422 285.497 227.199 278.774 232.403C272.067 237.606 268.676 241.587 268.676 241.587L263.31 237.076C263.103 237.592 262.882 238.093 262.72 238.594L269.487 248.206C269.487 248.206 272.951 243.326 279.836 237.621C286.735 231.931 297.673 236.663 298.735 235.115C299.472 234.068 299.472 228.82 297.452 224.221Z" fill="black" fill-opacity="0.31373"/>
<path d="M267.438 238.668C247.256 218.678 213.806 213.518 190.278 228.51C184.956 231.444 186.563 238.8 186.622 238.682C195.511 231.651 204.725 239.39 216.828 248.073C231.644 258.702 247.934 275.007 259.89 290.854C268.263 301.94 274.248 312.835 269.457 320.456C269.708 320.53 276.666 322.491 279.85 316.004C295.89 285.768 286.823 256.727 267.438 238.668Z" fill="url(#paint1_linear_2_695)" stroke="black" stroke-width="5.8968" stroke-linecap="round" stroke-linejoin="round"/>
<path d="M265.845 236.442C272.243 253.041 271.403 268.741 263.28 283.896C261.438 287.346 258.607 286.225 256.234 286.181C257.487 287.729 258.71 289.306 259.89 290.854C268.248 301.955 274.248 312.849 269.457 320.456C269.708 320.53 276.666 322.505 279.85 316.019C294.533 288.304 288.091 258.157 265.845 236.442Z" fill="black" fill-opacity="0.31373"/>
</g>
<defs>
<linearGradient id="paint0_linear_2_695" x1="20.0372" y1="-622.245" x2="56.5064" y2="-622.245" gradientUnits="userSpaceOnUse">
<stop stop-color="#74401B"/>
</linearGradient>
<linearGradient id="paint1_linear_2_695" x1="-56.3337" y1="-620.207" x2="45.4192" y2="-620.207" gradientUnits="userSpaceOnUse">
<stop stop-color="#74401B"/>
</linearGradient>
<clipPath id="clip0_2_695">
<rect width="786.82" height="572.258" fill="white"/>
</clipPath>
</defs>
</svg>
