<svg width="742" height="493" viewBox="0 0 742 493" fill="none" xmlns="http://www.w3.org/2000/svg">
<g clip-path="url(#clip0_501_2)">
<path d="M90.6597 264.744C90.6597 264.744 82.1278 238.227 86.5348 202.754C90.9417 167.281 131.028 107.901 171.537 94.8189C212.046 81.7369 254.741 92.2448 272.192 111.251C289.644 130.257 311.009 161.71 338.438 167.528C365.867 173.346 378.947 164.672 380.745 149.298C380.745 149.298 394.319 186.957 385.646 223.699C377.008 260.477 350.355 283.926 322.644 283.644C294.968 283.397 282.663 265.625 270.253 265.696C257.843 265.766 238.17 272.959 233.622 309.279C229.074 345.598 196.216 387.947 196.216 387.947L92.7398 267.846L90.6597 264.744Z" fill="#DD6628"/>
<path d="M196.322 391.191L91.1885 269.187L88.7206 265.378C88.3681 264.285 80.0829 238.015 84.4899 202.507C89.179 164.989 130.781 105.856 170.902 92.9148C212.998 79.3392 256.221 90.8697 273.673 109.911C277.093 113.613 280.583 117.739 284.32 122.111C299.833 140.341 317.39 161.04 338.861 165.589C353.281 168.656 364.457 167.704 371.191 162.873C375.492 159.806 378.031 155.151 378.736 149.086L379.723 140.553L382.649 148.628C383.213 150.179 396.328 187.274 387.62 224.193C379.053 260.477 352.576 285.689 323.102 285.689C322.926 285.689 322.785 285.689 322.608 285.689C305.58 285.548 294.298 279.024 285.237 273.806C279.385 270.421 274.766 267.776 270.289 267.776C270.253 267.776 270.253 267.776 270.218 267.776C261.369 267.811 240.286 272.007 235.597 309.596C231.049 346.056 199.142 387.524 197.802 389.287L196.322 391.191ZM92.5283 263.862L94.4321 266.718L196.145 384.773C202.562 376.028 227.77 340.027 231.648 309.067C236.725 268.305 260.346 263.756 270.253 263.686C270.289 263.686 270.324 263.686 270.324 263.686C275.859 263.686 281.147 266.753 287.282 270.28C295.92 275.251 306.708 281.457 322.679 281.634C322.82 281.634 322.961 281.634 323.137 281.634C350.707 281.634 375.598 257.691 383.707 223.276C389.982 196.689 384.306 169.291 380.922 156.879C379.335 160.687 376.867 163.79 373.553 166.188C365.762 171.795 353.81 172.923 338.015 169.573C315.205 164.742 297.154 143.515 281.218 124.756C277.516 120.419 274.026 116.293 270.676 112.661C254.071 94.5721 212.68 83.7116 172.136 96.7936C133.319 109.311 93.0218 166.646 88.5091 203.036C84.4547 235.794 91.6821 261.076 92.5283 263.862Z" fill="black"/>
<path opacity="0.17" d="M86.9226 242.071C83.538 228.354 83.82 213.72 87.7335 200.145C87.9802 210.406 89.5668 220.632 92.3872 230.505C93.2334 233.467 94.7846 236.922 97.8519 237.346C100.073 237.628 102.224 236.041 103.281 234.031C104.339 232.056 104.586 229.729 104.868 227.508C107.653 204.552 116.538 182.232 131.169 164.319C145.8 146.406 166.213 133.113 188.742 128C176.649 132.76 164.732 138.755 155.566 147.993C146.435 157.232 140.335 170.243 141.887 183.149C142.204 185.899 143.579 189.179 146.329 189.284C148.127 189.355 149.608 187.909 150.842 186.604C163.322 173.522 177.037 161.393 192.902 152.718C208.732 144.009 226.924 138.896 244.904 140.447C262.92 141.964 280.654 150.673 291.16 165.377C277.304 153.776 256.504 152.225 240.11 159.771C223.68 167.281 211.693 182.867 206.299 200.11C200.905 217.352 201.681 236.111 206.052 253.636C199.424 245.632 189.658 240.766 179.575 238.227C169.492 235.688 159.021 235.3 148.656 234.948" fill="#660000"/>
<path d="M385.681 223.735C394.354 186.992 380.781 149.333 380.781 149.333C378.983 164.742 365.903 173.417 338.474 167.563C329.166 165.589 320.599 160.652 312.596 154.27C313.442 165.236 319.012 175.744 327.685 182.514C323.173 185.582 318.625 188.614 314.112 191.682C316.862 190.941 319.823 190.906 322.573 191.541C319.118 195.279 316.298 199.616 314.288 204.306C318.413 205.258 322.75 205.187 326.839 204.129C324.83 213.086 318.307 220.914 309.881 224.475C314.676 224.616 319.33 227.19 322.009 231.21C319.788 230.646 317.426 230.752 315.275 231.563C320.141 235.406 323.842 240.731 325.782 246.584C317.602 246.161 309.352 247.712 301.843 251.062C305.122 253.495 308.365 255.928 311.644 258.361C309.705 258.185 307.731 258.044 305.791 257.868C307.731 260.018 309.705 262.169 311.644 264.32C309.74 263.897 307.872 263.509 305.968 263.086C308.048 266.683 310.833 269.856 314.147 272.395C309.599 274.017 304.769 274.828 299.939 274.722C305.086 278.425 310.798 281.246 316.791 283.291C318.66 283.503 320.599 283.644 322.644 283.644C350.355 283.926 377.008 260.477 385.681 223.735Z" fill="#FEF7D7"/>
<path d="M323.137 285.689C322.961 285.689 322.82 285.689 322.644 285.689C320.74 285.653 318.765 285.548 316.58 285.336L316.157 285.23C309.81 283.079 303.958 280.117 298.775 276.415L293.522 272.642L300.009 272.748C303.464 272.818 306.814 272.43 310.093 271.584C307.801 269.398 305.827 266.859 304.275 264.144L301.984 260.159L305.932 261.041L300.891 255.47L304.804 255.787L297.929 250.639L301.102 249.228C307.942 246.196 315.381 244.574 322.855 244.539C320.881 240.131 317.849 236.182 314.076 233.184L311.291 230.963L314.641 229.694C315.451 229.376 316.298 229.165 317.144 229.024C315.028 227.507 312.49 226.626 309.881 226.52L300.644 226.238L309.141 222.641C316.015 219.715 321.515 213.791 324.019 206.774C320.634 207.232 317.179 207.056 313.865 206.315L311.503 205.751L312.455 203.53C314.041 199.792 316.121 196.336 318.589 193.128C317.249 193.128 315.91 193.304 314.641 193.656L302.9 196.795L324.336 182.338C316.474 175.25 311.397 164.989 310.586 154.411L310.234 149.756L313.865 152.647C322.573 159.594 330.752 163.825 338.897 165.553C353.316 168.621 364.492 167.669 371.226 162.838C375.527 159.77 378.066 155.116 378.771 149.051L379.758 140.518L382.684 148.592C383.249 150.144 396.364 187.239 387.656 224.158C379.088 260.477 352.611 285.689 323.137 285.689ZM317.214 281.316C319.189 281.528 320.951 281.634 322.679 281.634C322.82 281.634 322.961 281.634 323.137 281.634C350.707 281.634 375.598 257.691 383.707 223.276C389.982 196.689 384.306 169.291 380.922 156.879C379.335 160.687 376.867 163.79 373.553 166.188C365.762 171.794 353.81 172.923 338.015 169.573C330.541 167.986 323.031 164.46 315.275 158.889C317.108 167.528 321.974 175.532 328.919 180.962L331.105 182.69L321.304 189.284C321.868 189.355 322.432 189.46 322.996 189.601L326.381 190.377L324.019 192.916C321.304 195.878 319.012 199.193 317.214 202.754C320.246 203.142 323.349 202.93 326.31 202.154L329.518 201.308L328.778 204.552C327.051 212.31 322.185 219.221 315.628 223.629C318.871 224.898 321.727 227.155 323.666 230.046L326.628 234.489L321.445 233.149C320.881 233.008 320.281 232.902 319.717 232.867C323.278 236.57 326.063 241.083 327.685 245.949L328.637 248.77L325.676 248.629C319.012 248.312 312.243 249.299 305.968 251.591L318.554 260.97L310.762 260.3L317.39 267.635L310.586 266.154C311.996 267.882 313.618 269.433 315.381 270.773L318.342 273.03L314.852 274.264C312.067 275.251 309.211 275.957 306.285 276.344C309.705 278.354 313.371 279.976 317.214 281.316Z" fill="black"/>
<path opacity="0.17" d="M376.021 195.878C370.063 212.521 358.076 227.966 341.329 233.714C349.932 232.973 358.322 230.258 365.726 225.85C359.486 237.874 345.207 244.01 331.634 244.257C324.512 244.398 317.426 243.199 310.551 241.365C304.487 239.743 297.718 238.192 292.535 234.63C287.458 231.104 281.042 229.87 274.872 229.376C269.936 228.989 260.029 228.319 255.763 231.351C266.34 223.84 278.644 218.798 291.442 216.718C277.586 214.919 263.237 214.884 249.946 219.221C236.654 223.523 224.491 232.691 218.85 245.456C222.411 232.303 226.007 219.151 229.568 205.998C217.687 219.856 209.543 236.887 206.229 254.835C206.405 254.341 206.616 253.883 206.793 253.389L218.78 322.149C222.587 323.066 226.43 323.736 230.238 324.3C231.754 319.258 232.882 314.251 233.517 309.314C238.029 272.995 257.702 265.801 270.147 265.731C282.558 265.66 294.862 283.397 322.538 283.679C350.214 283.926 376.867 260.512 385.54 223.77C391.886 196.865 386.316 169.538 382.861 156.773C382.12 170.067 380.534 183.36 376.021 195.878Z" fill="#660000"/>
<path d="M104.621 250.145C103.07 250.145 39.9265 289.497 45.1091 366.085C44.0867 370.739 38.9041 418.377 67.3556 447.856C95.8071 477.334 187.931 482.024 224.703 455.12C261.439 428.215 256.257 383.151 256.257 383.151C256.257 383.151 274.872 355.189 252.132 311.712C229.357 268.234 205.03 252.684 205.03 252.684C205.03 252.684 182.255 286.323 166.213 290.978C150.172 295.632 136.21 291.507 129.477 283.714C122.743 276.027 104.621 250.145 104.621 250.145Z" fill="#DD6628"/>
<path d="M152.463 475.113C117.631 475.113 82.2336 466.192 65.9101 449.302C38.4457 420.846 41.2662 374.759 43.0643 365.979C40.1028 320.456 60.6922 288.192 78.4965 269.116C90.5187 256.245 102.717 248.1 104.621 248.1H105.679L106.278 248.982C106.454 249.228 124.4 274.863 130.993 282.48C136.739 289.109 149.713 293.728 165.649 289.109C180.809 284.701 203.126 251.944 203.338 251.626L204.431 250.004L206.088 251.062C207.11 251.697 231.119 267.388 253.895 310.83C275.365 351.839 261.016 379.167 258.302 383.715C258.76 389.745 260.523 431.389 225.866 456.812C208.979 469.154 180.915 475.113 152.463 475.113ZM104.022 252.79C95.3488 258.361 42.3944 295.915 47.154 365.944L47.1892 366.226L47.1187 366.508C47.0129 366.966 39.6444 416.156 68.8716 446.445C96.8295 475.43 187.931 479.591 223.539 453.462C258.936 427.545 254.353 383.821 254.282 383.363L254.212 382.622L254.635 381.988C254.811 381.705 272.263 354.413 250.404 312.628C231.507 276.521 211.305 259.772 205.594 255.505C200.623 262.557 181.444 288.686 166.848 292.917C151.3 297.431 136.069 294.328 127.996 285.054C122.073 278.354 108.006 258.467 104.022 252.79Z" fill="black"/>
<path d="M147.88 145.701C169.316 116.575 211.27 111.427 243.917 121.159C209.931 117.457 173.582 121.018 147.88 145.701Z" fill="black"/>
<path d="M137.198 167.563C142.486 154.622 153.45 143.903 166.495 138.896C154.861 146.371 144.954 156.068 137.198 167.563Z" fill="black"/>
<path d="M243.6 139.53C260.664 136.075 275.612 148.839 285.907 161.004C273.779 151.061 260.276 138.931 243.6 139.53Z" fill="black"/>
<path d="M249.558 273.418C257.808 263.862 272.439 260.124 284.25 264.638C271.981 263.086 259.571 266.224 249.558 273.418Z" fill="black"/>
<path d="M227.876 263.862C232.776 247.324 249.135 234.666 266.34 234.101C249.805 237.592 235.385 248.735 227.876 263.862Z" fill="black"/>
<path opacity="0.47" d="M150.489 112.062C167.764 101.307 187.896 95.1363 208.273 94.3606C189.059 99.1561 170.232 105.997 153.309 116.223C140.582 123.91 128.948 133.571 119.57 145.102C118.441 146.512 115.127 152.648 113.188 151.837C110.826 150.849 115.691 145.349 116.573 144.114C120.768 138.155 125.563 132.584 130.781 127.506C136.774 121.688 143.403 116.505 150.489 112.062Z" fill="#DD6628"/>
<path opacity="0.75" d="M85.9707 272.219C76.4516 285.689 66.862 299.229 59.6698 314.039C52.5129 328.778 47.7886 344.998 48.3879 361.501C47.5065 348.666 48.0706 337.558 51.8783 325.076C55.8269 312.064 62.1377 299.723 70.3524 288.898C75.0061 282.833 80.224 277.191 85.9707 272.219Z" fill="#DD6628"/>
<path opacity="0.75" d="M63.5833 313.087C64.3589 313.228 65.0641 312.593 65.5576 311.959C67.6377 309.314 68.8717 305.964 68.9775 302.579C69.1185 297.748 63.5833 300.816 62.5256 303.461C61.8205 305.259 61.1154 312.629 63.5833 313.087Z" fill="#DD6628"/>
<path opacity="0.75" d="M57.7307 323.313C57.0961 324.864 56.4615 326.416 55.8269 327.967Z" fill="#DD6628"/>
<path opacity="0.75" d="M69.2594 459.598C68.9774 460.374 69.0479 461.29 69.4357 462.031Z" fill="#DD6628"/>
<path opacity="0.75" d="M228.369 430.084C229.286 431.001 230.203 431.953 231.119 432.87Z" fill="#DD6628"/>
<path opacity="0.17" d="M151.3 470.317C151.688 460.62 147.633 451.206 141.816 443.413C135.999 435.655 128.56 429.308 121.156 423.067C128.912 431.53 140.124 436.643 151.582 436.995C163.04 437.313 174.533 432.835 182.748 424.865C175.873 430.93 169.316 437.665 165.191 445.881C161.101 454.097 159.691 464.041 163.287 472.504C157.752 472.504 152.216 473.315 146.928 474.901" fill="#660000"/>
<path d="M208.802 255.011C212.081 245.597 214.196 235.794 215.113 225.885C212.575 235.406 214.619 246.055 220.507 253.989C221.741 255.646 223.398 257.303 225.443 257.198C226.924 257.127 228.158 256.104 229.286 255.152C235.985 249.511 242.648 243.834 249.347 238.192C241.908 245.068 233.975 252.86 232.812 262.945C231.754 272.36 236.901 281.246 241.837 289.321C230.908 278.707 219.943 268.093 209.014 257.515C206.652 260.865 204.325 264.25 201.963 267.6C205.03 260.9 208.132 254.236 211.2 247.536" fill="black"/>
<path d="M162.405 300.604C161.947 300.498 161.489 300.393 161.031 300.287Z" fill="black"/>
<path d="M90.0251 263.968C93.0571 263.545 96.0891 265.061 98.3807 267.106C100.672 269.151 102.4 271.725 104.374 274.088C111.848 283.08 122.531 288.651 132.932 294.011C122.249 288.51 112.871 275.005 107.089 264.885C104.762 260.794 103.105 252.614 97.0762 254.906C91.4 257.057 87.2398 265.096 84.6662 270.068C84.3136 267.036 87.1341 264.391 90.0251 263.968Z" fill="black"/>
<path d="M140.97 437.948C145.06 444.506 149.149 451.065 153.239 457.588C153.909 458.681 154.861 459.88 156.13 459.739C157.54 459.563 158.104 457.87 158.457 456.53C159.761 451.453 162.37 446.728 165.931 442.884C158.457 450.994 159.902 465.169 164.098 474.231C157.117 471.34 152.922 478.78 151.3 470.353C149.431 460.621 146.012 446.446 140.97 437.948Z" fill="black"/>
<path d="M44.5098 373.666C44.263 392.46 47.6123 411.325 54.3814 428.85C51.3847 418.025 50.2212 406.67 50.9969 395.457C58.9647 400.888 69.8588 401.699 78.567 397.503C69.4357 397.503 60.4102 393.412 54.3462 386.607C48.2822 379.801 45.2854 370.351 46.3431 361.289C44.8623 368.412 44.6861 375.817 45.8848 383.01" fill="black"/>
<path d="M237.501 388.793C232.917 388.194 228.405 387.206 223.998 385.831C229.039 387.7 233.975 389.816 238.77 392.213C240.251 392.954 241.767 393.765 242.824 395.034C244.481 397.044 244.728 399.865 244.728 402.474C244.763 411.537 242.824 420.564 239.792 429.132C236.831 427.722 233.869 426.346 230.908 424.936C235.738 427.475 238.558 432.658 241.097 437.489C245.856 432.552 248.571 426.029 251.074 419.611C253.366 413.723 255.622 407.799 256.927 401.593C257.491 398.878 257.878 396.127 258.019 393.377C258.09 391.543 258.654 387.982 257.314 386.501C256.221 385.267 254.318 385.69 252.978 386.254C250.686 387.171 248.853 388.476 246.35 388.899C243.424 389.428 240.427 389.181 237.501 388.793Z" fill="black"/>
<path opacity="0.47" d="M157.012 150.638C184.159 129.798 221.142 122.393 254.247 131.209C224.068 130.68 193.819 140.588 169.845 158.889C172.912 153.67 176.861 148.945 181.444 144.996C170.197 147.358 159.761 153.6 152.428 162.45C156.236 155.504 161.454 149.333 167.694 144.432" fill="#DD6628"/>
<path opacity="0.47" d="M259.641 161.287C277.445 164.002 294.58 171.195 308.929 182.091C304.205 185.159 299.445 188.226 294.721 191.294C297.788 190.236 300.82 189.178 303.887 188.121C295.144 196.195 284.426 202.19 272.968 205.363C279.314 201.449 286.4 196.336 286.647 188.896C286.788 184.136 283.862 179.728 280.09 176.837C276.317 173.945 271.769 172.323 267.292 170.772C269.583 170.208 271.875 169.679 274.167 169.115C264.542 168.409 254.811 169.22 245.433 171.548C253.436 167.069 262.955 165.306 272.016 166.646" fill="#DD6628"/>
<path opacity="0.47" d="M207.604 99.2619C224.386 97.3226 241.802 101.272 256.116 110.263C241.203 105.644 224.985 105.292 209.895 109.276C213.95 107.654 217.969 106.032 222.023 104.375C205.911 102.859 189.447 105.609 174.71 112.203C187.085 105.397 200.87 101.131 214.972 99.8261" fill="#DD6628"/>
<path opacity="0.47" d="M268.455 120.101C272.369 122.781 276.282 125.461 280.196 128.141Z" fill="#DD6628"/>
<path opacity="0.47" d="M121.72 280.823C128.525 288.721 137.515 294.751 147.422 298.066Z" fill="#DD6628"/>
<path d="M91.1885 484.281C91.1885 484.281 75.9932 492.215 66.1568 478.428C56.3204 464.64 64.7466 430.119 93.2334 423.385C121.72 416.65 148.973 440.451 150.701 461.008C152.428 481.531 131.028 497.927 114.986 488.442C114.986 488.442 108.076 490.699 100.849 488.794C93.6212 486.89 91.1885 484.281 91.1885 484.281Z" fill="#DD6628"/>
<path d="M125.069 493.202C121.473 493.202 117.948 492.356 114.739 490.628C112.554 491.192 106.595 492.391 100.355 490.769C95.243 489.429 92.3167 487.737 90.8712 486.679C86.7463 488.336 73.5253 492.285 64.5351 479.626C59.3172 472.292 58.7884 459.986 63.1601 448.314C68.378 434.457 79.1663 424.654 92.775 421.445C106.243 418.236 120.98 421.516 133.214 430.366C144.354 438.441 151.829 450.113 152.745 460.867C153.697 472.045 148.092 483.188 138.467 489.218C134.165 491.827 129.547 493.202 125.069 493.202ZM115.233 486.22L116.009 486.679C122.143 490.311 129.547 489.958 136.281 485.727C144.601 480.508 149.467 470.846 148.656 461.15C147.845 451.558 141.005 441.015 130.781 433.61C119.534 425.43 105.996 422.432 93.6564 425.359C81.3874 428.251 71.6215 437.136 66.8972 449.725C63.0191 460.021 63.3716 471.093 67.7786 477.264C76.4868 489.5 89.6373 482.8 90.2014 482.518L91.5763 481.813L92.5988 482.906C92.7398 483.012 95.0314 485.198 101.307 486.82C107.9 488.548 114.246 486.538 114.316 486.502L115.233 486.22Z" fill="black"/>
<path d="M117.771 449.513C115.057 460.197 113.294 471.093 114.316 482.059C114.739 485.515 115.832 488.935 118.759 491.474C104.762 486.114 109.839 458.54 117.771 449.513Z" fill="black"/>
<path d="M89.2495 446.551C86.5348 460.55 87.945 473.35 93.5507 486.467C82.8329 476.841 80.8586 458.223 89.2495 446.551Z" fill="black"/>
<path d="M113.435 458.893C111.849 455.12 110.227 451.77 108.288 448.209C112.272 449.796 114.704 454.767 113.435 458.893Z" fill="black"/>
<path d="M86.2176 455.473C85.583 451.594 84.2785 448.314 82.0574 445.106C86.2881 446.093 88.5797 451.841 86.2176 455.473Z" fill="black"/>
<path opacity="0.17" d="M150.701 460.973C150.63 460.339 150.489 459.704 150.383 459.069C149.396 454.979 147.739 451.03 145.165 447.715C145.236 452.793 144.284 458.011 141.393 462.172C138.502 466.333 133.425 469.189 128.419 468.484C123.624 467.814 119.534 463.759 118.653 458.999C117.771 454.238 120.134 449.09 124.223 446.481C119.887 445.529 116.573 452.616 112.342 451.241C109.028 450.148 109.099 444.894 106.067 443.166C108.041 447.433 110.05 451.805 110.791 456.46C111.496 461.114 110.756 466.227 107.724 469.824C104.692 473.456 99.0859 475.007 95.0314 472.61C92.0699 470.811 90.4834 467.356 89.743 463.971C88.1918 456.812 89.602 449.055 93.6212 442.955C91.7174 445.141 88.6854 446.305 85.7944 445.881C82.9034 445.494 80.2944 443.554 79.0605 440.945C83.397 446.975 84.3136 455.296 81.4226 462.137C80.1182 465.169 77.5797 468.237 74.3009 468.131C71.1632 468.026 68.8363 465.134 67.6728 462.207C65.2402 456.143 66.0158 448.879 69.7177 443.484C67.6376 445.599 65.91 447.997 64.5703 450.606C61.0447 461.114 61.6088 472.01 66.1921 478.428C76.0285 492.215 91.2238 484.281 91.2238 484.281C91.2238 484.281 93.6564 486.855 100.884 488.759C108.147 490.663 115.022 488.407 115.022 488.407C131.028 497.927 152.428 481.531 150.701 460.973Z" fill="#660000"/>
<path opacity="0.75" d="M85.5124 429.661C93.9033 425.676 103.669 425.006 112.73 427.016C102.894 426.241 92.8104 428.815 84.5252 434.245C76.1696 439.71 70.1408 447.785 66.6152 457.094C67.1441 451.311 68.2017 446.869 71.3748 441.967C75.1119 436.22 80.0125 433.328 85.5124 429.661Z" fill="#DD6628"/>
<path d="M220.684 481.848C220.684 481.848 235.879 489.782 245.715 475.995C255.552 462.207 247.126 427.687 218.639 420.952C190.152 414.217 162.899 438.018 161.172 458.576C159.444 479.133 180.845 495.494 196.886 486.009C196.886 486.009 203.796 488.266 211.024 486.362C218.251 484.457 220.684 481.848 220.684 481.848Z" fill="#DD6628"/>
<path d="M186.803 490.769C182.29 490.769 177.671 489.429 173.405 486.749C163.781 480.72 158.21 469.577 159.127 458.399C160.043 447.68 167.518 435.973 178.659 427.898C190.857 419.047 205.594 415.768 219.097 418.977C232.706 422.186 243.494 431.988 248.712 445.846C253.119 457.518 252.59 469.824 247.337 477.158C238.312 489.817 225.126 485.832 221.001 484.21C219.555 485.268 216.629 486.961 211.517 488.301C205.277 489.923 199.319 488.724 197.133 488.16C193.924 489.888 190.399 490.769 186.803 490.769ZM208.767 421.798C199.213 421.798 189.517 425.042 181.056 431.142C170.832 438.547 163.992 449.09 163.181 458.681C162.37 468.378 167.236 478.04 175.556 483.258C182.29 487.49 189.694 487.842 195.828 484.21L196.604 483.752L197.485 484.034C197.556 484.069 203.937 486.079 210.495 484.352C216.911 482.659 219.203 480.438 219.203 480.438L220.261 479.38L221.6 480.05C222.164 480.332 235.35 486.961 244.023 474.796C248.43 468.625 248.783 457.553 244.904 447.257C240.18 434.668 230.414 425.782 218.145 422.891C215.078 422.186 211.94 421.798 208.767 421.798Z" fill="black"/>
<path d="M194.101 447.08C202.033 456.072 207.145 483.681 193.078 489.041C196.005 486.502 197.098 483.047 197.521 479.626C198.578 468.66 196.815 457.764 194.101 447.08Z" fill="black"/>
<path d="M222.623 444.118C231.049 455.79 229.039 474.408 218.322 484.034C223.927 470.917 225.337 458.117 222.623 444.118Z" fill="black"/>
<path d="M198.472 456.46C197.203 452.334 199.6 447.327 203.62 445.776C201.645 449.372 200.024 452.687 198.472 456.46Z" fill="black"/>
<path d="M225.655 453.039C223.293 449.408 225.584 443.66 229.815 442.673C227.629 445.881 226.289 449.161 225.655 453.039Z" fill="black"/>
<path opacity="0.17" d="M245.363 475.959C248.642 471.34 249.84 464.429 248.994 456.989C248.007 458.117 246.914 459.14 245.715 460.021C242.155 462.56 237.183 463.653 233.341 461.537C230.168 459.774 228.37 456.142 228.052 452.546C227.735 448.949 228.652 445.352 229.85 441.932C228.934 443.73 226.889 444.929 224.879 444.859C222.87 444.788 220.931 443.519 220.084 441.65C221.882 446.622 223.716 451.77 223.293 457.024C222.87 462.278 219.52 467.708 214.373 468.766C209.12 469.859 203.761 465.98 201.751 461.008C199.742 456.037 200.482 450.359 202.139 445.247C201.575 447.644 199.424 449.548 197.027 449.901C194.594 450.218 192.021 448.949 190.857 446.798C193.184 450.43 195.299 454.309 196.075 458.54C196.815 462.771 196.005 467.497 193.078 470.635C188.495 475.501 180.563 475.113 174.357 472.645C170.62 471.128 167.024 468.942 164.592 465.733C162.159 462.489 161.031 458.117 162.37 454.309C161.701 457.2 161.242 460.127 160.96 463.054C162.441 481.354 181.796 494.718 196.639 485.938C196.639 485.938 203.549 488.195 210.777 486.291C218.04 484.387 220.437 481.813 220.437 481.813C220.437 481.813 235.526 489.782 245.363 475.959Z" fill="#660000"/>
<path opacity="0.75" d="M165.12 453.357C168.787 443.695 175.732 435.303 184.582 429.979C193.431 424.619 204.078 422.362 214.338 423.596C203.937 426.558 193.607 430.296 184.723 436.396C175.803 442.496 168.364 451.276 165.614 461.714C165.861 458.223 166.777 454.767 168.258 451.629" fill="#DD6628"/>
<path opacity="0.17" d="M43.9809 377.968C43.6636 395.246 49.4456 412.595 60.0929 426.241C58.2948 420.775 56.532 415.345 54.8045 409.844C54.3109 408.257 53.8878 406.389 54.9455 405.119C56.4262 403.321 59.282 404.343 61.3973 405.295C71.9389 410.091 84.631 409.844 94.961 404.625C100.144 402.016 104.903 398.173 110.65 397.256C119.076 395.916 127.009 401.17 133.672 406.459C140.371 411.748 147.563 417.602 156.059 417.707C165.649 417.848 173.546 410.726 181.444 405.225C193.431 396.868 208.273 391.508 222.623 394.153C236.972 396.797 249.981 409.139 250.122 423.737C253.824 410.902 255.904 397.573 256.257 384.209C252.061 387.947 246.244 389.428 240.638 389.252C235.033 389.075 229.568 387.453 224.28 385.655C211.27 381.212 198.472 375.641 184.828 374.23C174.71 373.172 164.309 374.477 154.367 372.291C146.364 370.528 138.22 366.508 130.358 368.906C125.528 370.387 121.72 374.054 117.983 377.474C111.108 383.751 103.634 389.569 95.0315 393.166C86.429 396.762 76.5926 397.996 67.7434 395.105C55.8622 391.191 47.0129 379.449 46.4841 366.966" fill="#660000"/>
<path d="M120.698 369.082C121.473 374.583 122.284 380.119 124.082 385.337C125.88 390.591 128.736 395.599 133.073 399.089C137.339 402.545 142.733 404.308 147.351 407.27C149.537 408.645 151.723 409.738 153.803 411.29C154.438 411.748 155.072 412.277 155.848 412.348C156.483 412.383 157.082 412.136 157.611 411.819C159.691 410.655 162.723 409.703 163.569 407.446C167.095 405.719 169.28 403.603 172.877 402.016C176.473 400.429 179.963 398.384 182.572 395.457C185.322 392.354 186.944 388.37 187.79 384.28C188.601 380.436 188.706 376.522 188.953 372.643C189.059 370.81 189.024 369.047 189.482 367.248C189.94 365.344 190.61 363.475 191.245 361.607C192.444 358.01 193.395 354.061 192.091 350.534C191.033 347.678 188.601 345.563 186.062 343.87C181.585 340.873 176.402 338.898 171.043 338.087C162.441 336.818 153.979 336.148 145.306 336.359C136.633 336.571 127.855 338.158 120.098 342.107" fill="#DC9A6A"/>
<path d="M155.954 413.37C155.883 413.37 155.813 413.37 155.742 413.37C154.684 413.3 153.838 412.665 153.204 412.136C151.899 411.149 150.63 410.408 149.255 409.597C148.444 409.104 147.598 408.645 146.787 408.116C144.918 406.917 142.874 405.895 140.899 404.908C138.008 403.462 135.012 401.981 132.403 399.865C128.313 396.551 125.21 391.79 123.095 385.655C121.262 380.295 120.451 374.653 119.675 369.188L121.685 368.906C122.46 374.265 123.236 379.801 125.034 384.985C127.008 390.732 129.899 395.211 133.707 398.278C136.14 400.253 138.89 401.628 141.816 403.074C143.826 404.097 145.941 405.119 147.88 406.388C148.691 406.917 149.466 407.376 150.277 407.834C151.652 408.61 153.027 409.421 154.367 410.444C154.931 410.867 155.425 411.255 155.883 411.29C156.341 411.36 156.764 411.078 157.082 410.902C157.54 410.62 158.069 410.373 158.598 410.126C160.29 409.28 162.053 408.434 162.582 407.058L162.723 406.671L163.075 406.494C164.662 405.719 166.037 404.802 167.341 403.955C168.857 402.968 170.444 401.91 172.418 401.029C176.684 399.125 179.646 397.115 181.796 394.717C184.158 392.037 185.851 388.44 186.767 383.998C187.472 380.718 187.649 377.263 187.825 373.913L187.966 371.374C188.036 369.928 188.107 368.447 188.46 366.896C188.847 365.309 189.376 363.757 189.87 362.241L190.222 361.148C191.315 357.834 192.302 354.025 191.068 350.746C190.222 348.525 188.46 346.55 185.428 344.54C181.056 341.613 176.014 339.674 170.832 338.933C161.559 337.558 153.204 336.994 145.271 337.206C135.681 337.453 127.361 339.357 120.521 342.847L119.605 341.049C126.726 337.417 135.329 335.443 145.236 335.196C153.274 334.984 161.771 335.548 171.149 336.924C176.614 337.735 181.972 339.78 186.556 342.847C189.94 345.104 191.985 347.396 192.972 350.006C194.418 353.849 193.36 358.116 192.161 361.748L191.809 362.841C191.315 364.286 190.822 365.803 190.434 367.284C190.117 368.624 190.046 369.963 189.976 371.374L189.835 373.913C189.658 377.333 189.447 380.859 188.742 384.315C187.754 389.075 185.921 392.989 183.312 395.951C180.985 398.596 177.777 400.747 173.264 402.757C171.431 403.568 169.985 404.52 168.469 405.507C167.2 406.353 165.896 407.199 164.309 408.011C163.393 409.879 161.312 410.902 159.479 411.784C158.986 412.03 158.492 412.277 158.069 412.524C157.575 413.018 156.835 413.37 155.954 413.37Z" fill="black"/>
<path d="M177.777 375.641C175.521 380.965 171.537 385.584 166.566 388.582C165.05 389.498 163.322 390.274 161.595 390.063C158.527 389.639 156.765 386.395 155.672 383.469C152.358 374.442 150.842 364.745 151.194 355.118C149.996 361.113 149.326 367.248 149.185 373.349C147.21 367.425 145.201 361.254 146.117 355.118C147.034 348.948 151.794 342.883 158.034 342.742C155.707 342.248 153.662 340.485 152.816 338.264C152.534 339.568 152.287 340.873 152.005 342.178C149.22 340.52 147.105 337.735 146.188 334.632C145.976 335.266 145.589 335.866 144.989 336.183C143.438 336.924 141.358 335.76 141.182 334.067C141.111 333.574 141.287 333.115 141.499 332.657C138.22 333.433 135.047 334.526 132.05 336.042L132.579 359.491C133.249 364.251 133.954 369.082 135.505 373.631C137.057 378.179 139.56 382.552 143.297 385.584C146.999 388.582 151.688 390.133 155.707 392.707C157.611 393.906 159.515 394.823 161.313 396.198C161.842 396.621 162.441 397.08 163.111 397.115C163.64 397.15 164.168 396.938 164.662 396.656C166.495 395.634 169.104 394.788 169.845 392.848C172.912 391.332 174.816 389.498 177.918 388.123C177.953 388.123 177.989 388.088 178.024 388.088C180.88 382.27 182.255 375.852 183.594 369.54C181.479 373.56 179.328 377.58 177.213 381.6C176.684 379.59 176.896 377.439 177.777 375.641Z" fill="#976A49"/>
<path d="M155.425 312.628C155.354 311.148 155.319 309.596 156.13 308.362C156.8 307.339 157.928 306.775 159.021 306.246C160.537 305.47 162.053 304.73 163.639 304.06C164.521 303.672 165.473 303.319 166.425 303.425C167.376 303.531 168.364 304.236 168.434 305.188C168.505 305.964 167.976 306.705 167.341 307.163C166.707 307.621 165.966 307.903 165.261 308.291C164.556 308.679 163.886 309.208 163.675 309.949C163.393 310.865 163.78 311.888 163.569 312.805C163.357 313.616 162.723 314.215 161.982 314.603C161.242 314.991 160.431 315.097 159.62 315.238" fill="#9B6D28"/>
<path d="M155.425 312.628C155.284 311.253 155.143 309.737 155.848 308.397C156.624 307.057 158.034 306.352 159.233 305.717C161.771 304.624 167.835 300.287 168.928 305.294C168.928 307.903 165.438 308.15 164.274 309.631C163.428 310.513 164.45 312.205 163.499 313.616C162.547 314.92 160.96 315.132 159.585 315.273C160.925 314.991 162.441 314.533 163.075 313.369C163.816 312.311 162.652 310.76 163.64 309.208C164.662 307.833 166.108 307.551 167.165 306.775C168.223 305.999 168.188 304.659 167.024 304.166C165.085 303.249 161.489 305.788 159.55 306.458C156.588 307.41 155.213 309.455 155.425 312.628Z" fill="black"/>
<path d="M114.14 328.99C113.611 328.813 113.435 323.313 119.323 320.703C119.323 320.703 120.169 316.719 125.881 317.248C125.881 317.248 128.631 314.497 131.063 316.225C131.063 316.225 135.858 312.17 139.031 314.991C139.031 314.991 142.275 312.628 145.236 313.827C145.236 313.827 148.938 311.641 152.04 313.475C152.04 313.475 156.13 311.288 158.774 314.074C158.774 314.074 162.793 311.747 165.966 314.074C165.966 314.074 169.14 311.888 172.031 315.061C172.031 315.061 175.345 314.074 177.601 316.366C177.601 316.366 181.162 314.674 183.877 318.376C183.877 318.376 188.283 317.459 190.469 320.386C192.655 323.313 194.171 326.592 193.889 326.662C193.642 326.733 192.091 345.88 192.091 345.88L180.316 346.867C180.316 346.867 176.12 349.97 174.675 345.175C174.675 345.175 170.726 349.159 168.716 348.454C166.707 347.749 166.636 344.716 166.636 344.716C166.636 344.716 164.063 349.3 161.524 348.524C158.986 347.749 158.986 344.963 158.986 344.963C158.986 344.963 157.364 348.948 155.425 348.454C153.486 347.96 151.794 344.54 151.794 344.54C151.794 344.54 151.864 348.912 148.691 348.454C145.518 348.031 144.566 344.857 144.566 344.857C144.566 344.857 145.271 349.829 142.768 349.371C140.23 348.912 137.198 344.469 137.198 344.469C137.198 344.469 138.96 349.688 136.493 349.406C134.025 349.124 130.922 344.646 130.922 344.646C130.922 344.646 133.002 349.441 130.922 349.406C128.842 349.371 126.409 346.091 126.409 346.091L116.855 348.842L112.131 344.716L111.743 340.591" fill="#74401B"/>
<path d="M136.669 349.864C136.598 349.864 136.492 349.864 136.422 349.864C134.976 349.688 133.39 348.278 132.227 347.008C132.403 347.89 132.438 348.771 132.05 349.3C131.874 349.547 131.557 349.864 130.957 349.864H130.922C128.983 349.829 126.903 347.502 126.233 346.656L116.749 349.371L111.637 344.928L111.249 340.591L112.272 340.485L112.624 344.434L116.996 348.242L126.621 345.492L126.832 345.774C127.467 346.62 129.477 348.842 130.957 348.877C131.098 348.842 131.204 348.807 131.239 348.771C131.627 348.172 131.028 346.056 130.464 344.822L128.489 340.203L131.345 344.328C132.156 345.527 134.73 348.666 136.563 348.877C136.88 348.912 136.986 348.807 137.092 348.736C137.585 348.101 137.198 345.95 136.739 344.611L135.576 341.155L137.621 344.152C138.432 345.351 140.97 348.525 142.839 348.842C143.262 348.912 143.438 348.771 143.579 348.666C144.249 348.031 144.214 346.021 144.073 344.893L145.06 344.681C145.095 344.787 145.976 347.537 148.797 347.925C149.431 347.996 149.925 347.89 150.313 347.537C151.335 346.62 151.335 344.505 151.335 344.505L151.3 342.248L152.287 344.258C152.71 345.139 154.191 347.573 155.566 347.925C156.835 348.278 158.14 345.668 158.527 344.752L159.479 342.389V344.928C159.479 345.034 159.515 347.361 161.63 347.996C163.393 348.56 165.473 345.598 166.143 344.399L167.059 342.777L167.095 344.611C167.095 344.646 167.165 347.29 168.822 347.89C170.056 348.313 172.806 346.197 174.252 344.716L174.851 344.117L175.098 344.928C175.45 346.127 176.014 346.867 176.79 347.114C178.2 347.608 179.928 346.338 179.963 346.338L180.069 346.268H180.21L191.562 345.351C192.69 331.388 193.078 327.615 193.396 326.557C193.36 326.134 192.056 323.313 190.046 320.633C188.072 318.023 183.982 318.799 183.947 318.834L183.63 318.905L183.453 318.658C181.021 315.379 177.918 316.754 177.812 316.825L177.495 316.966L177.248 316.719C175.239 314.709 172.207 315.555 172.171 315.555L171.854 315.661L171.643 315.414C169.069 312.593 166.354 314.427 166.213 314.533L165.931 314.744L165.649 314.533C162.793 312.417 159.056 314.533 159.021 314.568L158.668 314.779L158.386 314.497C156.024 312.029 152.428 313.898 152.252 314.004L152.005 314.145L151.758 314.004C148.938 312.346 145.483 314.321 145.447 314.356L145.236 314.497L144.989 314.392C142.345 313.298 139.313 315.485 139.278 315.485L138.96 315.731L138.643 315.449C135.823 312.981 131.38 316.684 131.345 316.719L131.028 316.966L130.711 316.754C128.666 315.308 126.198 317.706 126.198 317.741L126.057 317.777H125.81C120.663 317.318 119.816 320.809 119.781 320.844L119.711 321.091L119.464 321.197C116.502 322.502 115.268 324.512 114.74 325.993C114.246 327.368 114.317 328.461 114.422 328.672C114.422 328.637 114.352 328.567 114.246 328.531L113.929 329.483C113.576 329.378 113.4 328.954 113.365 328.249C113.259 326.275 114.317 322.466 118.865 320.351C119.182 319.434 120.627 316.366 125.634 316.754C126.727 315.767 128.948 314.497 130.957 315.626C132.05 314.779 135.999 312.135 138.996 314.356C139.912 313.792 142.557 312.346 145.13 313.263C145.976 312.84 149.149 311.394 152.005 312.911C152.957 312.487 156.342 311.218 158.809 313.475C159.867 312.946 163.111 311.641 165.931 313.51C166.848 313.016 169.598 311.923 172.136 314.533C173.018 314.356 175.627 314.004 177.636 315.802C178.623 315.485 181.62 314.815 184.017 317.847C185.11 317.706 188.777 317.389 190.787 320.104C192.549 322.431 194.559 326.098 194.312 326.839L194.242 327.05C193.96 328.637 193.078 339.039 192.514 345.95L192.479 346.374L192.056 346.409L180.421 347.361C179.928 347.678 178.13 348.771 176.473 348.207C175.556 347.89 174.886 347.185 174.393 346.092C173.159 347.22 170.303 349.582 168.505 348.948C167.165 348.489 166.566 347.149 166.284 346.127C165.261 347.537 163.322 349.653 161.313 349.053C159.867 348.595 159.092 347.537 158.739 346.55C157.999 347.784 156.765 349.371 155.249 348.983C153.944 348.63 152.781 347.22 152.076 346.127C151.899 346.903 151.547 347.784 150.912 348.348C150.278 348.877 149.502 349.089 148.585 348.983C146.928 348.736 145.8 347.855 145.095 346.973C145.024 347.89 144.813 348.912 144.214 349.477C143.931 349.759 143.403 350.076 142.592 349.9C141.005 349.618 139.313 347.996 138.15 346.62C138.291 347.643 138.291 348.771 137.762 349.406C137.621 349.582 137.268 349.864 136.669 349.864Z" fill="black"/>
<path d="M119.711 319.892C118.97 321.726 118.265 324.088 118.512 325.922C118.547 326.557 119.817 326.239 120.698 325.852C121.65 325.464 122.567 324.864 123.342 324.124C122.849 325.111 122.038 325.993 121.051 326.557C115.656 329.554 117.419 321.937 119.711 319.892Z" fill="black"/>
<path d="M126.268 316.895C123.518 321.937 122.743 331.317 129.653 322.643C129.018 323.947 128.313 325.252 127.185 326.275C126.621 326.768 125.88 327.297 124.858 327.121C121.368 325.64 124.329 318.729 126.268 316.895Z" fill="black"/>
<path d="M131.768 315.59C130.605 318.376 129.864 321.267 129.9 324.194C129.9 324.864 130.041 325.534 130.464 325.746C132.332 326.063 134.483 324.265 136.069 323.207C135.117 324.406 133.954 325.428 132.579 326.169C126.162 329.166 129.582 317.741 131.768 315.59Z" fill="black"/>
<path d="M139.172 314.885C138.432 317.741 136.387 320.668 137.021 323.63C138.185 327.65 141.746 323.736 143.579 322.361C142.486 323.454 141.851 325.005 140.265 325.852C138.608 326.909 136.281 325.816 136.034 323.877C135.435 320.421 137.585 317.671 139.172 314.885Z" fill="black"/>
<path d="M145.412 313.827C144.46 316.93 144.354 320.245 145.483 323.171C147.104 327.191 150.454 325.076 151.37 321.761C151.159 323.312 150.701 325.217 148.902 326.028C142.838 327.297 143.05 317.071 145.412 313.827Z" fill="black"/>
<path d="M151.652 313.545C151.688 316.472 151.406 319.469 152.675 321.937C154.156 325.287 156.87 325.111 157.999 321.585C157.893 322.29 157.752 323.03 157.399 323.736C157.011 324.406 156.341 325.04 155.46 325.146C150.172 324.547 150.489 317.318 151.652 313.545Z" fill="black"/>
<path d="M158.422 314.039C158.21 317.248 158.492 320.633 160.537 322.96C162.97 325.957 166.107 325.746 166.46 321.444C166.495 322.255 166.53 323.101 166.284 323.912C165.226 327.227 161.242 325.569 159.761 323.595C157.575 320.95 157.399 317.212 158.422 314.039Z" fill="black"/>
<path d="M165.649 314.18C166.107 317.424 166.777 320.739 168.963 323.066C169.915 324.159 171.466 325.393 172.63 324.864C173.864 324.159 173.229 322.114 173.617 320.527C173.546 321.373 173.828 322.114 173.934 322.995C174.287 325.323 172.207 326.627 170.232 325.358C166.354 323.207 165.155 318.306 165.649 314.18Z" fill="black"/>
<path d="M171.643 314.956C172.912 317.812 173.828 320.809 175.873 322.995C178.024 325.711 181.761 326.592 180.457 321.938C180.809 322.643 181.197 323.348 181.162 324.23C181.162 325.076 180.421 326.028 179.399 326.063C174.216 325.358 172.312 319.328 171.643 314.956Z" fill="black"/>
<path d="M177.707 316.507C179.822 319.645 182.29 324.582 186.168 324.864C186.485 322.889 184.617 320.033 182.995 318.588C184.546 319.469 185.815 320.879 186.556 322.537C187.402 324.053 187.508 326.451 185.04 325.781C181.126 324.3 179.082 320.245 177.707 316.507Z" fill="black"/>
<path d="M187.226 323.63C188.495 324.265 189.165 324.617 190.364 325.393C189.059 326.134 187.261 325.111 187.226 323.63Z" fill="black"/>
<path d="M118.688 326.733C118.124 330.047 118.829 333.503 120.804 336.042C122.179 337.664 122.637 335.407 122.707 334.138C122.919 332.445 123.201 330.788 123.518 329.131C123.342 331.811 124.047 334.385 122.884 336.923C122.214 337.981 120.592 337.664 119.993 336.712C117.877 333.82 117.313 329.906 118.688 326.733Z" fill="black"/>
<path d="M124.259 326.592C123.483 329.413 123.835 332.375 125.351 334.702C126.021 335.795 127.15 337.206 128.101 336.853C129.23 336.395 128.948 334.491 129.653 333.221C129.23 334.702 130.076 336.5 128.454 337.558C127.537 338.087 126.55 337.488 125.986 337.029C123.13 334.491 122.284 329.871 124.259 326.592Z" fill="black"/>
<path d="M131.38 326.169C130.393 329.096 131.063 332.34 133.178 334.35C134.166 335.443 135.505 336.148 136.457 334.984C137.409 333.997 137.409 332.234 138.255 330.929C137.726 332.375 138.149 334.032 137.057 335.478C135.928 337.276 133.566 336.36 132.473 335.09C130.111 332.763 129.547 328.884 131.38 326.169Z" fill="black"/>
<path d="M138.678 325.852C137.585 329.448 139.595 333.08 142.345 335.266C142.979 335.795 143.79 336.183 144.319 335.831C145.835 333.997 145.906 330.612 146.928 328.355C146.717 330.224 146.435 332.058 146.117 333.856C145.976 336.465 143.896 337.946 141.71 336.077C138.819 333.715 136.704 329.378 138.678 325.852Z" fill="black"/>
<path d="M147.14 326.345C147.457 329.801 149.044 333.397 151.97 335.16C153.521 335.407 153.627 331.423 154.402 330.224C154.261 331.705 154.12 333.115 153.803 334.596C153.239 337.029 150.806 335.971 149.749 334.667C147.704 332.48 146.576 329.307 147.14 326.345Z" fill="black"/>
<path d="M154.579 324.97C154.332 328.884 155.954 333.221 159.127 335.478C161.383 336.677 161.242 333.468 161.806 332.093C162.335 330.118 162.934 328.143 163.604 326.169C163.322 328.214 162.97 330.259 162.582 332.269C162.229 334.42 161.736 337.911 158.668 336.359C155.072 333.75 153.556 329.096 154.579 324.97Z" fill="black"/>
<path d="M170.937 326.028C171.149 329.413 171.643 334.843 175.274 335.971C176.014 336.077 176.649 335.442 176.966 334.561C177.777 331.775 177.425 328.284 179.575 325.992C178.447 327.72 178.447 329.765 178.271 331.811C178.412 335.901 175.768 339.357 172.453 335.09C170.585 332.445 170.55 329.025 170.937 326.028Z" fill="black"/>
<path d="M163.216 327.121C163.111 330.048 164.204 334.314 166.918 335.548C168.399 336.077 168.752 334.032 169.139 332.445C169.562 330.823 169.915 329.131 170.197 327.438C170.268 330.048 170.127 332.622 169.28 335.16C168.998 336.112 167.694 336.853 166.672 336.5C163.287 335.019 162.406 330.4 163.216 327.121Z" fill="black"/>
<path d="M178.623 328.179C179.751 329.519 181.126 336.783 183.242 334.244C185.04 331.67 184.969 328.073 185.075 324.97C185.78 328.285 186.027 331.881 184.053 334.878C180.21 338.405 179.399 330.541 178.623 328.179Z" fill="black"/>
<path d="M121.473 337.241C122.461 339.497 123.941 341.437 125.951 342.671C126.762 343.27 128.419 344.081 128.384 343.447C128.419 342.354 128.489 341.014 128.595 339.815C128.842 341.049 129.053 342.177 129.159 343.553C129.194 343.94 128.771 344.575 128.278 344.575C124.717 344.222 121.826 340.661 121.473 337.241Z" fill="black"/>
<path d="M127.996 337.347C129.477 339.815 131.698 341.966 134.307 343.024C134.941 343.235 135.223 343.165 135.329 342.53C135.47 340.379 135.611 338.087 135.964 335.936C136.105 337.417 136.21 338.898 136.246 340.414C137.233 348.56 128.56 341.12 127.996 337.347Z" fill="black"/>
<path d="M136.281 337.065C137.656 339.286 140.3 342.283 142.909 341.79C143.191 341.613 143.262 340.908 143.438 340.309C144.355 336.395 144.707 336.465 144.214 340.45C144.108 341.049 144.214 341.754 143.544 342.46C142.803 343.059 141.922 342.918 141.287 342.707C138.784 341.754 136.775 339.604 136.281 337.065Z" fill="black"/>
<path d="M144.778 337.735C145.729 339.603 147.069 342.777 149.396 342.53C150.242 342.46 150.277 340.838 150.595 339.639C152.005 333.327 151.617 338.299 151.088 341.719C150.595 344.857 146.928 343.412 146.012 341.472C145.271 340.309 144.989 339.004 144.778 337.735Z" fill="black"/>
<path d="M152.252 337.1C152.745 339.744 157.047 344.822 158.704 340.414C159.091 339.357 159.479 337.84 160.713 337.311C159.761 338.158 159.761 339.427 159.444 340.626C157.893 346.374 151.652 340.943 152.252 337.1Z" fill="black"/>
<path d="M160.467 338.087C161.454 339.745 165.191 346.162 166.072 341.613C166.566 339.603 167.447 337.664 168.611 335.936C167.976 337.84 167.412 339.886 166.954 341.825C165.72 347.678 161.066 341.684 160.467 338.087Z" fill="black"/>
<path d="M168.364 337.594C169.809 347.643 172.771 341.331 175.662 336.359C174.957 339.039 174.075 341.508 171.995 343.553C171.325 344.046 170.232 344.011 169.598 343.517C167.729 342.142 168.364 339.568 168.364 337.594Z" fill="black"/>
<path d="M175.732 337.347C176.226 339.074 174.604 345.069 177.742 343.306C180.139 341.825 182.008 339.462 183.242 336.853C182.748 339.815 180.844 342.46 178.235 344.187C173.405 346.197 175.344 339.815 175.732 337.347Z" fill="black"/>
<path d="M183.312 336.042C184.017 337.029 184.37 337.876 184.969 338.757C185.11 338.969 185.251 339.392 185.674 339.286C184.511 340.696 182.572 337.276 183.312 336.042Z" fill="black"/>
<path d="M134.553 367.777C135.611 374.865 137.656 381.529 140.758 387.982C136.457 382.305 134.201 374.9 134.553 367.777Z" fill="black"/>
<path d="M142.38 382.34C144.39 388.37 146.681 394.117 149.396 399.865C145.518 394.858 143.05 388.652 142.38 382.34Z" fill="black"/>
<path d="M150.454 358.574C150.806 365.979 150.912 373.278 150.771 380.683C149.537 373.384 149.431 365.908 150.454 358.574Z" fill="black"/>
<path d="M144.073 404.555C147.845 406.353 151.653 407.235 155.848 407.305C151.899 408.681 147.034 407.552 144.073 404.555Z" fill="black"/>
<path d="M179.646 373.842C180.562 381.071 178.517 388.828 174.075 394.611C177.319 388.053 179.187 381.141 179.646 373.842Z" fill="black"/>
<path d="M169.281 396.974C170.338 395.175 171.361 393.835 172.771 392.284C172.665 394.364 171.22 396.268 169.281 396.974Z" fill="black"/>
<path d="M175.062 351.451C175.627 353.919 175.521 356.494 174.71 358.891C174.146 356.353 174.252 353.919 175.062 351.451Z" fill="black"/>
<path opacity="0.17" d="M135.787 337.312C135.858 338.405 136.069 339.462 136.351 340.485C136.704 339.392 136.598 338.123 135.787 337.312Z" fill="#660000"/>
<path d="M113.611 327.615C114.246 326.486 114.881 325.323 115.515 324.194C114.775 325.993 115.409 328.214 116.961 329.342C117.243 326.028 118.23 322.749 119.852 319.857C119.076 320.844 118.23 321.938 118.265 323.172C118.265 324.441 119.675 325.675 120.768 325.041C121.156 324.829 121.403 324.476 121.614 324.124C123.166 321.797 124.717 319.434 126.268 317.107C125.528 318.94 125.175 320.95 125.211 322.925C125.211 323.489 125.316 324.159 125.845 324.406C126.621 324.794 127.361 323.877 127.749 323.101C128.912 320.739 130.076 318.376 131.239 316.014C131.698 317.036 131.416 318.2 131.028 319.258C130.64 320.316 130.182 321.373 130.252 322.467C130.323 323.56 131.169 324.723 132.297 324.653C133.143 324.582 133.778 323.842 134.307 323.172C135.611 321.409 136.845 319.575 137.973 317.671C136.387 320.421 136.915 324.23 139.207 326.451C136.951 326.098 134.518 327.192 133.249 329.096C131.98 331 131.909 333.644 133.073 335.619C131.733 334.984 131.31 333.327 130.922 331.881C130.534 330.436 129.864 328.778 128.419 328.461C126.938 328.144 125.528 329.484 125.211 330.964C124.893 332.445 125.387 333.962 125.845 335.407C124.047 333.75 122.743 331.599 122.108 329.237C119.887 330.753 119.076 334.032 120.345 336.395C118.794 334.385 117.243 332.375 115.691 330.365C115.55 330.577 115.409 330.823 115.268 331.035" fill="#502C13"/>
<path d="M131.803 341.825C133.249 342.107 134.8 341.225 135.364 339.85C135.893 338.475 135.435 336.818 134.307 335.866C136.105 336.395 138.185 334.843 138.185 333.009C137.092 335.09 137.656 337.911 139.454 339.392C140.476 340.238 142.204 340.591 142.979 339.498C143.614 338.651 143.226 337.382 142.627 336.536C142.028 335.654 141.181 334.878 140.899 333.856C141.005 335.478 143.191 336.289 144.601 335.513C146.011 334.737 146.646 333.009 146.646 331.387C145.941 333.609 145.765 335.971 146.152 338.263C146.294 339.004 146.505 339.78 147.069 340.238C148.021 341.014 149.572 340.485 150.277 339.462C150.983 338.475 151.088 337.17 151.194 335.936C151.265 339.11 151.335 342.248 151.406 345.421C150.595 343.87 148.797 342.706 147.069 343.165C145.342 343.623 144.425 346.056 145.694 347.255C144.742 345.704 143.297 344.434 141.64 343.658C141.076 343.412 140.441 343.2 139.877 343.412C139.066 343.729 138.784 344.752 138.996 345.598C139.207 346.444 139.842 347.079 140.441 347.713C139.031 346.726 137.656 345.739 136.246 344.716C136.316 346.127 136.387 347.537 136.422 348.948C136.387 346.726 134.342 345.175 132.579 343.835C131.239 342.847 128.948 340.979 129.371 339.11C129.723 340.344 130.393 341.543 131.803 341.825Z" fill="#502C13"/>
<path d="M145.201 322.431C145.906 323.348 147.316 323.806 148.233 323.101C148.867 322.643 149.079 321.796 149.255 321.021C149.749 318.975 150.207 316.895 150.701 314.85C150.912 316.86 151.335 318.834 152.005 320.738C152.252 321.479 152.604 322.255 153.345 322.607C154.649 323.207 156.059 321.832 156.447 320.421C156.835 319.046 156.694 317.494 157.47 316.26C157.611 319.011 158.704 321.691 160.502 323.806C156.87 325.111 154.684 329.483 155.813 333.186C155.566 331.387 155.319 329.483 154.226 328.038C153.133 326.592 150.912 325.781 149.431 326.839C147.81 328.002 147.986 330.4 148.338 332.375C147.951 330.224 147.387 327.967 145.871 326.345C144.39 324.723 141.675 324.018 139.948 325.358C142.098 323.7 142.204 319.822 144.284 318.482C144.531 319.822 144.319 321.267 145.201 322.431Z" fill="#502C13"/>
<path d="M167.518 331.74C168.716 331.423 169.351 330.153 169.739 328.99C170.127 327.826 170.444 326.521 171.431 325.781C170.797 329.237 172.489 332.974 175.486 334.773C175.662 335.019 175.274 335.372 174.992 335.302C174.675 335.231 174.463 334.984 174.252 334.773C173.264 333.856 171.607 334.032 170.585 334.878C169.563 335.725 169.104 337.135 169.104 338.475C169.104 339.815 169.457 341.12 169.809 342.424C170.127 341.12 168.505 339.921 167.236 340.344C165.966 340.767 165.297 342.283 165.508 343.623C165.861 342.178 166.213 340.697 166.037 339.216C165.861 337.735 165.085 336.218 163.71 335.619C162.335 335.019 160.431 335.654 160.043 337.1C160.467 335.619 162.547 328.602 163.922 328.426C164.45 329.871 165.297 332.34 167.518 331.74Z" fill="#502C13"/>
<path d="M171.22 325.428C169.633 325.217 165.367 322.572 166.707 320.527C167.87 318.693 169.668 325.217 171.22 325.428Z" fill="#502C13"/>
<path opacity="0.75" d="M133.672 315.943C134.342 315.379 135.47 314.991 136.034 315.696C136.351 316.119 136.246 316.754 136.105 317.283C135.682 318.799 133.531 326.028 130.957 322.96C129.23 320.95 132.191 317.142 133.672 315.943Z" fill="#DD6628"/>
<path opacity="0.29" d="M126.585 318.023C125.704 319.046 125.175 320.28 124.999 321.62C124.928 322.255 124.999 322.995 125.528 323.313C126.303 323.736 127.15 322.96 127.678 322.255C128.172 321.585 128.701 320.844 128.912 320.033C129.124 319.222 128.912 318.2 128.242 317.706C127.573 317.212 126.339 317.494 126.162 318.341" fill="#DD6628"/>
<path opacity="0.29" d="M137.938 320.95C137.903 321.655 138.008 322.466 138.643 322.784C139.031 322.995 139.489 322.889 139.877 322.643C140.194 322.466 140.476 322.219 140.688 321.937C141.534 320.985 142.169 319.892 142.627 318.693C143.226 317.107 141.816 316.86 140.547 317.212C138.714 317.741 138.044 319.187 137.938 320.95Z" fill="#DD6628"/>
<path opacity="0.29" d="M146.646 314.674C145.624 316.084 145.201 317.918 145.553 319.61C145.694 320.315 146.047 321.056 146.717 321.197C147.21 321.303 147.739 321.021 148.056 320.633C148.374 320.245 148.515 319.751 148.656 319.222C148.867 318.341 148.973 317.459 148.973 316.578C148.973 315.943 148.938 315.273 148.479 314.85C148.021 314.427 147.105 314.532 146.999 315.167" fill="#DD6628"/>
<path opacity="0.29" d="M141.287 333.609C141.781 334.103 142.556 334.561 143.191 334.244C143.755 333.961 143.931 333.292 144.002 332.692C144.143 331.705 144.249 330.717 144.284 329.73C144.39 327.332 141.816 324.265 139.701 327.015C138.326 328.813 139.947 332.269 141.287 333.609Z" fill="#DD6628"/>
<path opacity="0.29" d="M133.39 329.801C132.649 331 133.002 332.798 134.165 333.609Z" fill="#DD6628"/>
<path opacity="0.29" d="M121.72 319.998C120.733 320.456 120.098 321.55 120.169 322.607Z" fill="#DD6628"/>
<path opacity="0.29" d="M149.29 327.826C148.903 329.378 149.149 331.07 149.995 332.445C150.489 333.256 151.511 333.962 152.287 333.468C152.851 333.08 152.886 332.269 152.886 331.564C152.851 330.718 152.816 329.871 152.816 329.025C152.781 328.32 152.745 327.579 152.358 327.015C151.97 326.451 151.053 326.169 150.56 326.627" fill="#DD6628"/>
<path opacity="0.29" d="M154.473 321.373C155.072 321.303 155.354 320.633 155.531 320.069C156.06 318.482 158.598 312.664 154.685 314.744C152.816 315.767 151.512 321.726 154.473 321.373Z" fill="#DD6628"/>
<path opacity="0.29" d="M159.55 318.729C159.761 319.857 160.361 320.844 161.03 321.761C161.348 322.22 161.736 322.643 162.194 322.89C162.652 323.136 163.322 323.172 163.745 322.819C164.45 322.255 164.168 321.162 164.027 320.245C163.886 319.293 163.992 318.306 163.886 317.354C163.428 313.298 158.845 314.956 159.55 318.729Z" fill="#DD6628"/>
<path opacity="0.29" d="M157.434 332.445C157.857 333.186 158.598 333.891 159.409 333.68C160.114 333.503 160.466 332.727 160.678 332.022C161.066 330.788 161.383 329.554 161.594 328.285C161.735 327.438 161.806 326.451 161.207 325.852C160.043 324.758 157.752 326.239 157.082 327.332C156.165 328.813 156.659 331.035 157.434 332.445Z" fill="#DD6628"/>
<path opacity="0.29" d="M171.361 322.854C171.925 322.466 171.784 321.585 171.572 320.915C171.149 319.54 170.268 314.956 168.364 317.953C167.447 319.399 169.527 324.088 171.361 322.854Z" fill="#DD6628"/>
<path opacity="0.29" d="M173.899 317.812C174.463 319.222 175.274 320.562 176.296 321.655Z" fill="#DD6628"/>
<path opacity="0.29" d="M146.364 333.785C146.188 335.654 146.717 337.594 147.88 339.075C148.127 339.392 148.479 339.709 148.832 339.639C149.29 339.533 149.431 338.934 149.467 338.44C149.537 337.488 149.608 336.501 149.361 335.548C149.114 334.596 148.515 333.715 147.598 333.362C146.681 333.01 145.483 333.433 145.201 334.35" fill="#DD6628"/>
<path opacity="0.29" d="M129.864 336.113C130.005 337.664 130.605 339.18 131.557 340.414C132.121 341.12 132.967 341.754 133.813 341.472C134.73 341.155 134.906 339.956 134.8 338.969C134.694 338.017 134.377 336.994 133.566 336.43C132.755 335.866 131.416 336.183 131.204 337.1" fill="#DD6628"/>
<path opacity="0.29" d="M126.303 329.201C125.316 330.682 125.246 332.692 126.057 334.244C126.268 334.632 126.55 335.055 126.938 335.266C127.326 335.478 127.89 335.478 128.242 335.196C128.56 334.914 128.63 334.491 128.701 334.067C128.807 333.327 128.948 332.586 129.053 331.846C129.194 331.035 129.3 330.189 128.842 329.483C128.419 328.813 127.185 328.672 126.868 329.413" fill="#DD6628"/>
<path opacity="0.29" d="M121.65 319.751C120.627 320.527 119.852 321.655 119.534 322.925C119.323 323.771 119.534 324.899 120.38 325.04C121.121 325.146 121.65 324.335 121.932 323.665C122.425 322.502 122.884 321.303 123.236 320.069C123.307 319.892 123.342 319.681 123.271 319.504C123.166 319.187 122.707 319.046 122.39 319.187C122.073 319.328 121.826 319.575 121.614 319.857" fill="#DD6628"/>
<path opacity="0.29" d="M165.332 305.365C164.627 306.704 163.111 307.374 161.771 308.044C160.431 308.75 159.021 309.702 158.739 311.218C158.704 311.429 158.668 311.641 158.563 311.817C157.857 312.875 156.976 311.147 156.976 310.513C157.011 309.561 157.752 309.173 158.422 308.679C159.444 307.868 160.678 307.233 161.841 306.669C162.441 306.387 165.12 305.788 165.332 305.365Z" fill="#DD6628"/>
<path opacity="0.29" d="M161.383 311.923C161.665 311.888 161.947 311.817 162.264 311.782Z" fill="#DD6628"/>
<path d="M246.808 354.695C246.808 354.695 228.687 354.872 220.225 349.864C211.764 344.857 213.491 340.027 211.411 335.372C209.331 330.718 201.927 324.335 194.841 325.534C187.755 326.733 184.652 335.548 190.363 337.1C196.04 338.651 197.45 342.777 197.45 342.777C197.45 342.777 189.165 338.299 183.982 342.248C178.8 346.197 181.091 351.204 181.937 353.285C182.783 355.365 188.988 355.542 191.069 357.763C191.069 357.763 181.585 357.41 179.681 361.465C177.777 365.521 178.87 371.233 181.937 372.784C185.005 374.336 192.091 372.608 194.488 374.512C196.921 376.416 201.575 381.776 207.427 382.975C213.28 384.174 216.241 381.6 216.241 381.6C216.241 381.6 227.453 389.005 238.84 389.181C250.228 389.357 255.234 386.325 258.09 377.862" fill="#DD6628"/>
<path d="M239.757 391.226C239.44 391.226 239.122 391.226 238.805 391.226C228.969 391.085 219.45 385.902 216.241 383.998C214.62 384.844 211.517 385.902 207.04 384.985C201.892 383.927 197.732 380.154 194.982 377.65C194.312 377.051 193.748 376.522 193.255 376.134C192.549 375.57 189.976 375.57 188.107 375.57C185.569 375.57 182.925 375.57 181.021 374.618C176.966 372.573 175.415 365.803 177.812 360.655C178.764 358.574 180.915 357.375 183.207 356.705C181.761 356.141 180.562 355.401 180.069 354.096C179.046 351.557 176.543 345.457 182.748 340.697C184.546 339.321 186.626 338.757 188.671 338.651C186.485 337.629 185.287 335.548 185.392 332.974C185.569 329.06 189.059 324.476 194.524 323.56C202.527 322.184 210.812 329.06 213.28 334.561C213.95 336.042 214.232 337.453 214.549 338.828C215.254 342.107 215.889 344.963 221.248 348.137C229.11 352.791 246.597 352.65 246.773 352.685L246.808 356.74C246.068 356.74 228.017 356.846 219.203 351.628C212.293 347.537 211.411 343.376 210.6 339.709C210.318 338.475 210.072 337.311 209.578 336.218C207.745 332.093 201.117 326.557 195.194 327.544C191.597 328.143 189.553 331.211 189.447 333.186C189.412 334.279 189.835 334.878 190.892 335.161C197.556 336.994 199.283 341.966 199.354 342.178L200.976 347.008L196.463 344.611C196.392 344.575 189.271 340.802 185.216 343.905C181.761 346.55 182.572 349.512 183.735 352.333C184.088 352.791 185.78 353.32 186.803 353.637C188.953 354.272 191.174 354.977 192.549 356.458L195.828 360.02L190.963 359.843C187.684 359.738 182.396 360.443 181.479 362.382C179.963 365.626 180.95 370.069 182.819 371.021C183.841 371.55 186.098 371.515 188.072 371.55C191.104 371.586 193.924 371.55 195.722 372.961C196.251 373.384 196.921 373.983 197.662 374.653C200.094 376.839 203.726 380.189 207.815 381.036C212.504 381.988 214.796 380.189 214.902 380.084L216.065 379.131L217.334 379.942C217.44 380.013 228.193 387.03 238.84 387.206C249.347 387.418 253.542 384.95 256.116 377.263L259.959 378.567C256.927 387.735 251.392 391.226 239.757 391.226Z" fill="black"/>
<path d="M189.165 356.106C191.915 355.824 194.629 357.516 195.969 359.843C196.428 360.619 196.745 361.501 196.78 362.453C196.004 361.924 195.405 361.36 194.77 360.866C192.972 359.35 190.892 357.692 189.165 356.106Z" fill="black"/>
<path d="M193.149 339.815C197.344 340.767 200.94 344.223 202.033 348.419C198.684 345.88 195.828 343.094 193.149 339.815Z" fill="black"/>
<path d="M210.918 334.173C211.059 334.173 211.87 334.208 211.94 334.244C211.87 334.314 211.059 334.314 210.918 334.314C210.777 334.314 209.966 334.279 209.895 334.244C209.966 334.173 210.777 334.173 210.918 334.173Z" fill="#231F20"/>
<path d="M211.094 382.129C215.536 380.189 219.837 377.897 223.998 375.358C221.741 380.013 216.171 382.94 211.094 382.129Z" fill="black"/>
<path d="M240.215 353.214C243.177 351.698 245.045 349.406 245.927 346.197C248.254 349.688 244.093 354.766 240.215 353.214Z" fill="black"/>
<path d="M239.017 353.673C243.811 353.179 248.571 354.131 252.661 350.816C250.792 356.317 243.283 356.176 239.017 353.673Z" fill="black"/>
<path d="M259.253 371.198C257.667 374.83 256.292 378.532 255.093 382.305C257.209 381.6 258.795 379.731 259.677 377.686C260.558 375.641 260.875 373.384 261.157 371.162" fill="black"/>
<path opacity="0.17" d="M196.921 328.249C195.194 328.743 193.572 329.907 193.078 331.634C191.738 336.077 198.155 339.392 198.437 344.046C196.322 341.649 192.162 341.79 189.799 343.976C187.437 346.162 186.908 349.865 187.966 352.897C189.024 355.929 191.492 358.292 194.277 359.879C191.597 358.75 188.283 358.609 185.992 360.408C183.7 362.206 183.312 366.261 185.674 367.918C190.258 367.319 195.052 368.588 198.754 371.374C201.716 373.595 204.043 376.769 207.392 378.32C211.446 380.189 216.312 379.308 220.225 377.122C224.103 374.935 227.206 371.621 230.238 368.341C227.417 369.893 227.594 374.406 229.921 376.628C232.247 378.849 235.808 379.202 238.981 378.849C245.01 378.179 250.827 375.359 254.917 370.88C259.007 366.402 261.298 360.267 260.946 354.237C262.427 363.052 260.558 372.044 258.689 380.789C257.032 388.546 255.411 396.304 253.754 404.097C253.683 400.218 253.26 395.669 249.981 393.624C247.266 391.967 243.811 392.778 240.638 393.236C233.763 394.223 226.607 393.06 220.401 389.957C217.546 388.546 214.725 386.677 211.517 386.607C209.155 386.536 206.828 387.488 204.501 387.242C199.248 386.642 196.568 380.542 191.95 377.968C189.341 376.522 186.168 376.24 183.524 374.83C180.033 372.925 177.812 368.941 178.024 364.956C178.235 361.007 180.915 357.269 184.617 355.788C180.844 353.637 179.716 348.243 181.655 344.328C183.594 340.414 187.896 338.193 192.126 337.84C186.626 337.629 185.639 331.282 188.883 327.932C192.162 324.512 199.142 323.383 202.033 327.932C200.341 327.932 198.613 327.791 196.921 328.249Z" fill="#660000"/>
<path d="M236.337 359.244C235.315 359.032 234.398 358.503 233.482 358.01C231.719 357.058 229.956 356.07 228.193 355.118C231.401 355.647 234.645 356.141 237.924 356.211C241.203 356.282 244.517 355.894 247.513 354.66C250.545 353.426 253.26 351.31 254.847 348.454C255.693 351.416 255.164 354.73 253.436 357.269C251.603 359.984 248.571 361.712 245.398 362.594C242.225 363.475 238.946 363.616 235.667 363.757" fill="#DD6628"/>
<path d="M245.504 345.598C246.173 346.832 246.35 348.348 246.032 349.723C245.715 351.099 244.834 352.333 243.635 353.109C245.01 353.92 246.773 353.426 248.289 352.897C249.911 352.333 251.568 351.733 252.978 350.746C254.388 349.759 255.587 348.313 255.869 346.62" fill="#DD6628"/>
<path opacity="0.75" d="M200.059 328.672C204.466 329.413 208.027 333.503 208.238 337.946Z" fill="#DD6628"/>
<path opacity="0.17" d="M214.69 343.341C217.652 346.127 220.648 348.912 224.209 350.781C227.805 352.65 232.107 353.532 235.914 352.192C239.546 350.922 242.296 347.855 244.023 344.399C245.715 340.943 246.526 337.135 247.302 333.397C247.76 336.007 247.231 338.722 247.196 341.367C247.126 344.046 247.654 346.938 249.699 348.666C251.744 350.393 255.552 349.935 256.327 347.396C251.638 352.015 245.292 354.907 238.735 355.365C232.177 355.824 225.478 353.814 220.225 349.865" fill="#660000"/>
<path d="M65.487 364.004C65.487 364.004 82.9034 365.203 91.0123 352.438C91.0123 352.438 91.8584 341.754 99.1212 336.394C106.384 331.035 113.788 327.755 116.044 331.211C118.3 334.667 118.477 340.167 116.044 343.129C116.044 343.129 124.858 339.674 126.409 346.056C127.96 352.438 124.858 355.365 124.858 355.365C124.858 355.365 130.71 358.186 129.864 364.039C129.018 369.893 123.307 369.011 120.909 371.762C118.512 374.512 112.448 386.43 108.676 387.805C104.868 389.181 102.294 387.629 102.294 387.629C102.294 387.629 89.461 398.49 74.4773 397.643C59.4935 396.797 48.1058 386.783 45.8142 363.757" fill="#DD6628"/>
<path d="M76.1343 399.724C75.535 399.724 74.9004 399.724 74.301 399.689C56.7788 398.666 45.92 386.007 43.7341 363.969L47.7533 363.581C49.7276 383.68 58.9999 394.752 74.5125 395.669C88.4739 396.48 100.778 386.254 100.884 386.148L101.977 385.231L103.211 385.972C103.246 386.007 105.079 386.995 107.865 385.972C109.768 385.267 113.682 379.025 115.762 375.676C117.207 373.348 118.371 371.515 119.252 370.492C120.451 369.117 122.108 368.447 123.554 367.883C126.057 366.896 127.361 366.261 127.714 363.793C128.348 359.491 123.871 357.269 123.836 357.269L121.191 356L123.342 353.99C123.412 353.919 125.528 351.663 124.329 346.62C124.047 345.386 123.413 344.963 122.989 344.751C121.086 343.764 117.736 344.716 116.679 345.104L109.416 347.96L114.387 341.93C116.15 339.78 116.079 335.231 114.246 332.41C114.14 332.234 113.964 332.057 113.47 331.952C111.672 331.669 107.124 333.045 100.249 338.122C93.868 342.847 92.9514 352.615 92.9514 352.685L92.9866 353.108L92.7046 353.531C84.0316 367.178 66.0511 366.085 65.3108 366.014L65.5928 361.959C65.7338 361.959 81.5637 362.876 89.038 351.733C89.32 349.371 90.8713 339.921 97.9225 334.737C101.906 331.775 109.345 326.944 114.281 327.861C115.762 328.143 116.961 328.884 117.736 330.083C119.64 333.009 120.239 336.923 119.534 340.203C121.262 340.026 123.236 340.132 124.964 341.014C126.691 341.895 127.855 343.482 128.384 345.527C129.441 349.864 128.595 352.897 127.678 354.73C129.723 356.317 132.579 359.455 131.874 364.286C131.169 369.152 127.714 370.527 125.211 371.55C124.082 372.008 122.989 372.432 122.425 373.066C121.755 373.842 120.557 375.746 119.288 377.756C115.339 384.068 112.307 388.617 109.31 389.71C106.56 390.697 104.163 390.45 102.541 389.956C99.3327 392.425 88.6854 399.724 76.1343 399.724Z" fill="black"/>
<path d="M124.823 355.436C120.099 357.41 115.797 359.526 111.32 362.065C113.858 357.445 119.605 354.625 124.823 355.436Z" fill="black"/>
<path d="M106.878 387.629C103.422 389.005 99.6148 386.818 96.5123 385.478C95.4899 385.02 94.4322 384.667 93.1982 384.385C94.3264 383.821 95.6662 383.786 96.9001 383.962C100.602 384.526 103.317 386.713 106.878 387.629Z" fill="black"/>
<path d="M116.82 341.966C113.224 345.421 109.945 348.771 106.595 352.509C107.442 347.396 111.743 342.953 116.82 341.966Z" fill="black"/>
<path d="M76.6632 362.1C71.7274 363.44 66.7563 357.622 68.9069 352.968C70.0703 357.446 72.4325 360.231 76.6632 362.1Z" fill="black"/>
<path d="M63.4775 360.584C66.7916 363.123 71.1633 363.969 75.3588 363.793C79.5542 363.581 83.6087 362.417 87.6278 361.289C84.4901 365.344 79.801 368.165 74.7947 369.082C69.7883 369.999 64.3942 368.976 60.0225 366.331" fill="#DD6628"/>
<path opacity="0.17" d="M46.8368 343.341C46.6957 351.275 47.8592 359.35 51.138 366.578C54.4168 373.807 59.8815 380.189 67.0031 383.786C74.0896 387.347 82.8683 387.876 90.0252 384.42C88.5445 382.481 87.099 380.577 85.6183 378.638C89.8137 379.872 94.0092 381.141 98.3809 381.458C102.753 381.776 107.265 381.141 110.967 378.849C114.563 376.592 117.067 372.996 119.358 369.399C120.522 367.53 121.72 365.273 120.909 363.228C120.204 361.536 118.3 360.619 116.467 360.584C114.634 360.548 112.871 361.218 111.179 361.853C113.4 360.302 115.48 358.327 116.432 355.788C117.384 353.249 116.961 350.041 114.845 348.348C112.73 346.655 108.958 347.29 108.041 349.864C110.932 347.008 111.884 342.107 109.557 338.792C107.23 335.478 101.554 334.913 99.1918 338.228C100.99 336.077 102.788 333.891 105.115 332.339C107.442 330.753 110.333 329.871 113.047 330.541C115.762 331.211 118.054 333.82 117.842 336.606C117.736 337.734 117.278 338.863 117.701 339.921C118.406 341.684 120.839 341.684 122.566 342.424C124.788 343.376 126.057 345.88 126.233 348.313C126.409 350.746 125.704 353.144 124.999 355.471C128.031 354.907 130.605 358.362 130.217 361.395C129.829 364.427 127.502 366.86 124.999 368.694C122.531 370.492 119.746 372.008 117.772 374.336C114.493 378.25 113.717 384.279 109.345 386.959C107.547 388.052 105.362 388.405 103.387 389.181C99.8617 390.556 97.0764 393.306 93.8329 395.281C88.474 398.56 81.9869 399.618 75.7113 399.124C69.471 398.631 63.407 396.621 57.6251 394.153C56.1796 393.518 54.7341 392.883 53.1476 392.707C51.5963 392.566 49.8688 392.989 48.8816 394.223C48.0002 395.351 47.8944 396.868 47.8592 398.313C47.8239 403.462 48.6701 408.61 50.2918 413.476C47.0835 403.99 43.9458 395.387 43.4522 385.231C43.2407 380.894 43.2407 376.91 44.7567 372.819C46.2022 368.87 45.356 365.274 45.215 361.113C45.0035 355.118 45.5675 349.124 46.8368 343.341Z" fill="#660000"/>
<path opacity="0.75" d="M93.7625 352.474C93.7625 352.474 95.3137 342.601 98.4867 339.921C101.66 337.206 110.58 331.952 112.06 331.917C113.541 331.917 114.845 333.503 114.634 333.186C114.422 332.869 113.4 332.728 111.003 333.644C108.605 334.561 100.32 338.722 98.2752 342.389C96.2304 346.056 93.7625 352.721 93.7625 352.721" fill="#DD6628"/>
<path opacity="0.75" d="M107.406 353.144C108.358 350.217 110.897 347.855 113.894 347.114Z" fill="#DD6628"/>
<path opacity="0.17" d="M55.4392 354.166C57.0962 354.766 58.3302 356.106 59.8462 357.022C61.3269 357.939 63.4776 358.327 64.7115 357.093C65.6282 356.176 65.7339 354.766 65.7692 353.461C65.9102 349.582 66.016 345.703 66.157 341.825C65.2051 346.197 66.7916 351.028 70.1762 353.955C73.5607 356.881 78.5671 357.763 82.7625 356.176C86.958 354.589 90.0958 350.57 90.6599 346.127C92.7752 355.33 84.4548 360.125 76.8395 361.853C73.0319 362.735 68.8717 362.453 65.2051 361.218C63.1603 360.513 61.2212 359.526 59.4936 358.257C58.3302 357.41 56.6379 354.625 55.4392 354.166Z" fill="#660000"/>
<path opacity="0.17" d="M97.6051 254.447C84.3489 264.814 73.7016 278.496 66.8972 293.87C70.9164 286.853 75.9932 280.435 81.9162 274.934C83.538 273.453 85.3361 271.937 87.4867 271.549C92.211 270.703 96.0186 275.075 99.0506 278.813C110.368 292.847 125.493 303.778 142.38 310.125C151.265 313.475 161.066 315.555 170.197 313.016C181.408 309.878 189.553 300.499 197.168 291.719C204.783 282.939 213.456 273.806 224.879 271.62C217.898 266.965 211.799 261.006 206.969 254.13C201.575 268.235 191.844 280.682 179.434 289.286C174.921 292.424 169.739 295.139 164.274 294.751C159.373 294.398 155.037 291.648 151.194 288.58C138.925 278.813 129.864 265.096 125.634 250.004" fill="#660000"/>
<path d="M95.3135 207.162C95.3135 207.162 68.4132 188.544 75.6407 153.846C78.7432 159.03 111.355 154.869 121.72 178.177C121.72 178.177 163.639 161.604 185.886 180.504C185.886 180.504 198.296 156.949 213.315 153.846C228.334 150.743 235.562 146.089 235.562 146.089C235.562 146.089 245.398 185.441 212.257 207.162C212.257 207.162 224.808 281.175 155.636 301.874C143.438 303.46 89.6373 279.13 95.3135 207.162Z" fill="#DD6628"/>
<path d="M154.649 303.954C147.316 303.954 133.143 298.736 119.887 286.077C106.066 272.889 90.3071 248.735 93.1981 208.114C88.368 204.27 67.0029 185.229 73.6663 153.459L74.724 148.381L77.4034 152.824C78.038 153.705 82.7623 154.552 86.2174 155.151C97.0057 157.091 114.775 160.264 122.743 175.638C130.922 172.747 164.521 162.203 185.286 177.436C188.812 171.407 199.741 154.587 212.927 151.837C227.312 148.875 234.433 144.396 234.504 144.361L236.866 142.845L237.536 145.595C237.642 145.983 247.125 185.723 214.443 208.149C215.712 218.34 221.177 284.419 156.236 303.848C155.777 303.919 155.248 303.954 154.649 303.954ZM77.0861 157.232C72.256 188.332 96.1948 205.328 96.4769 205.504L97.4288 206.174L97.323 207.338C94.1852 247.007 109.381 270.456 122.672 283.15C136.351 296.197 150.736 300.499 155.389 299.899C221.671 280.012 210.741 210.476 210.248 207.514L210.036 206.21L211.129 205.469C238.17 187.697 235.597 158.148 234.081 149.192C230.731 150.849 223.997 153.705 213.668 155.856C199.777 158.713 187.754 181.245 187.613 181.491L186.45 183.713L184.511 182.091C163.428 164.178 122.813 179.94 122.39 180.116L120.592 180.821L119.816 179.058C113.188 164.143 96.4769 161.146 85.4418 159.206C81.9867 158.501 79.1309 158.007 77.0861 157.232Z" fill="black"/>
<path d="M101.765 196.76C102.47 194.644 103.74 192.705 105.467 191.224C105.044 192.281 104.621 193.339 104.198 194.397C105.256 192.105 107.054 190.131 109.239 188.826C108.323 189.355 100.849 172.676 96.3711 177.26C92.3872 181.28 99.6851 193.092 101.765 196.76Z" fill="#EB7A8B"/>
<path d="M219.696 167.21C219.591 167.14 219.485 167.034 219.379 166.964C214.267 170.631 209.684 175.038 205.841 180.116C203.831 182.761 200.799 185.546 200.552 189.073C200.447 190.589 204.818 202.401 205.665 201.696C210.918 196.971 215.924 191.435 217.511 184.559C218.533 180.116 218.11 175.462 219.097 171.019C219.379 169.82 219.802 168.656 220.366 167.528C220.119 167.387 219.908 167.281 219.696 167.21Z" fill="#EB7A8B"/>
<path d="M145.201 282.304C145.236 282.48 147.351 289.003 148.303 290.731C149.255 292.459 149.572 292.706 149.572 292.706C149.572 292.706 154.05 292.67 154.05 292.494C154.05 292.318 154.191 291.154 154.191 291.154L154.72 292.283C154.72 292.283 158.422 292.635 159.056 292.459C159.691 292.283 162.335 282.48 162.088 282.339C161.841 282.198 158.386 281.775 156.941 280.928C155.495 280.082 154.05 279.447 153.592 279.306C153.133 279.201 151.582 280.117 151.582 280.117C151.582 280.117 147.457 281.88 147.281 281.739" fill="white"/>
<path d="M149.431 293.235L149.29 293.094C149.149 292.988 148.762 292.6 147.88 290.943C146.893 289.144 144.778 282.621 144.742 282.409L145.73 282.163C145.8 282.409 147.88 288.792 148.797 290.449C149.361 291.507 149.714 291.965 149.855 292.177C151.371 292.177 152.992 292.106 153.662 292.071C153.697 291.648 153.768 291.084 153.768 291.084L153.944 289.321L155.108 291.789C156.624 291.93 158.351 292.036 158.88 291.965C159.515 290.978 161.383 284.349 161.63 282.691C161.454 282.656 161.242 282.621 161.031 282.586C159.761 282.339 157.787 281.986 156.729 281.316C155.319 280.47 153.909 279.871 153.521 279.765C153.345 279.765 152.569 280.117 151.899 280.505C147.457 282.409 147.281 282.304 147.034 282.092L147.351 281.669V281.175C147.669 281.14 149.714 280.329 151.476 279.588C152.217 279.165 153.274 278.636 153.803 278.777C154.332 278.918 155.813 279.553 157.258 280.435C158.175 280.999 160.079 281.352 161.207 281.563C162.018 281.704 162.265 281.775 162.406 281.88C162.723 282.092 162.652 282.48 162.582 282.868C162.582 282.974 160.396 292.635 159.233 292.952C158.527 293.129 155.601 292.882 154.72 292.811H154.579C154.438 293.129 153.662 293.235 149.608 293.27L149.431 293.235Z" fill="black"/>
<path d="M81.9868 170.102C93.9738 166.928 108.006 176.731 109.134 189.108C102.118 179.235 93.6918 173.275 81.9868 170.102Z" fill="black"/>
<path d="M200.623 189.425C202.456 176.061 214.443 164.213 227.841 162.591C216.523 169.89 208.062 178.212 200.623 189.425Z" fill="black"/>
<path d="M170.126 193.163C180.104 190.906 191.315 200.25 190.857 210.476C185.287 202.26 179.222 197.183 170.126 193.163Z" fill="black"/>
<path d="M112.201 210.97C114.281 202.331 123.166 195.984 132.015 196.054C133.284 196.16 135.118 196.795 135.223 198.24C134.271 197.359 133.178 197.712 132.227 198.029C124.611 201.167 118.618 205.469 112.201 210.97Z" fill="black"/>
<path d="M96.3711 174.792C97.323 182.232 99.2269 189.284 102.118 196.195C96.7589 190.73 94.5026 182.232 96.3711 174.792Z" fill="black"/>
<path d="M217.405 168.586C221.177 173.593 220.719 181.456 216.382 186.005C218.039 180.222 218.392 174.474 217.405 168.586Z" fill="black"/>
<path d="M151.653 227.684C151.653 238.58 142.803 247.43 131.909 247.43C121.015 247.43 113.294 238.58 113.294 227.684C113.294 216.788 121.015 207.938 131.909 207.938C142.839 207.938 151.653 216.788 151.653 227.684Z" fill="white"/>
<path d="M131.944 248.418C120.733 248.418 112.307 239.496 112.307 227.684C112.307 215.871 120.733 206.95 131.944 206.95C143.367 206.95 152.675 216.259 152.675 227.684C152.675 239.109 143.367 248.418 131.944 248.418ZM131.944 208.96C121.897 208.96 114.352 217 114.352 227.684C114.352 238.368 121.932 246.408 131.944 246.408C142.274 246.408 150.665 238.015 150.665 227.684C150.63 217.352 142.239 208.96 131.944 208.96Z" fill="black"/>
<path d="M194.806 225.744C194.806 236.64 186.944 245.491 176.049 245.491C165.155 245.491 156.306 236.64 156.306 225.744C156.306 214.849 165.155 205.998 176.049 205.998C186.944 205.998 194.806 214.849 194.806 225.744Z" fill="white"/>
<path d="M176.05 246.478C164.627 246.478 155.319 237.169 155.319 225.744C155.319 214.32 164.627 205.011 176.05 205.011C187.331 205.011 195.828 213.932 195.828 225.744C195.828 237.557 187.331 246.478 176.05 246.478ZM176.05 207.021C165.72 207.021 157.329 215.413 157.329 225.744C157.329 236.076 165.72 244.468 176.05 244.468C186.168 244.468 193.819 236.429 193.819 225.744C193.819 215.06 186.168 207.021 176.05 207.021Z" fill="black"/>
<path d="M141.111 260.477C140.864 261.006 147.316 269.927 152.075 270.174C156.8 270.421 161.947 262.028 163.005 259.172C164.062 256.316 146.822 248.982 141.111 260.477Z" fill="#70574B"/>
<path d="M152.287 271.196C152.181 271.196 152.111 271.196 152.005 271.196C146.999 270.914 141.358 263.121 140.512 261.676C140.194 261.112 139.912 260.583 140.194 260.018C143.967 252.367 152.886 251.944 159.55 254.8C162.829 256.21 164.486 257.973 163.922 259.525C163.04 262.064 157.858 271.196 152.287 271.196ZM142.204 260.583C143.121 262.346 148.55 268.975 152.111 269.186C152.181 269.186 152.217 269.186 152.287 269.186C156.201 269.186 161.031 261.57 162.018 258.855C161.877 258.22 158.633 256.034 154.085 255.399C150.877 254.976 145.165 255.082 142.204 260.583Z" fill="black"/>
<path d="M131.803 275.745C136.598 281.598 147.598 283.115 153.063 277.579C156.377 280.117 160.96 281.069 165.014 279.835C168.857 278.636 172.383 276.168 175.556 273.418C172.982 276.768 169.668 279.694 165.543 281.352C161.277 283.009 156.377 282.304 152.604 279.73L153.979 279.588C147.527 285.16 135.822 283.044 131.803 275.745Z" fill="black"/>
<path d="M150.524 270.209C152.604 272.995 152.992 276.944 151.476 280.047C151.934 279.483 152.675 279.13 153.38 279.13C154.085 279.13 154.825 279.483 155.284 280.082C154.332 279.024 153.944 277.508 153.873 276.098C153.768 273.418 154.72 270.738 156.447 268.728C155.389 269.292 154.12 270.315 152.922 270.209" fill="black"/>
<path d="M173.441 275.357C173.687 274.969 174.075 274.722 174.428 274.44C174.78 274.158 175.098 273.735 175.027 273.277C174.992 272.889 174.674 272.572 174.357 272.325C174.04 272.078 173.687 271.902 173.441 271.584C174.428 272.007 175.697 271.972 176.367 272.818C176.755 273.277 176.86 273.947 176.79 274.511C176.719 275.11 176.473 275.675 176.261 276.239C176.12 275.745 175.944 275.216 175.803 274.722C175.732 274.546 175.697 274.37 175.521 274.264C175.309 274.158 175.062 274.299 174.851 274.44C173.793 275.146 172.735 275.851 171.678 276.556" fill="black"/>
<path d="M133.425 277.508C133.178 277.297 132.967 277.05 132.791 276.803C132.614 276.521 132.544 276.168 132.65 275.886C132.755 275.604 132.967 275.392 133.214 275.251C133.461 275.11 133.743 275.04 134.025 274.969C133.461 275.04 132.896 274.934 132.332 274.934C131.768 274.934 131.134 275.11 130.852 275.569C130.57 275.992 130.605 276.556 130.746 277.05C130.887 277.543 131.063 278.037 131.028 278.531C131.063 278.037 131.134 277.579 131.239 277.12C131.275 276.979 131.345 276.803 131.451 276.732C131.627 276.627 131.874 276.732 132.05 276.838C132.826 277.297 133.496 277.896 134.06 278.601" fill="black"/>
<path d="M143.156 260.583C147.422 261.676 151.899 261.887 156.236 261.253Z" fill="black"/>
<path d="M150.736 295.985C153.451 296.408 155.777 296.302 158.422 295.668C156.447 297.642 152.851 297.783 150.736 295.985Z" fill="black"/>
<path d="M169.386 235.406C172.054 235.406 174.216 233.243 174.216 230.575C174.216 227.907 172.054 225.744 169.386 225.744C166.719 225.744 164.556 227.907 164.556 230.575C164.556 233.243 166.719 235.406 169.386 235.406Z" fill="black"/>
<path d="M138.996 235.406C141.663 235.406 143.826 233.243 143.826 230.575C143.826 227.907 141.663 225.744 138.996 225.744C136.328 225.744 134.166 227.907 134.166 230.575C134.166 233.243 136.328 235.406 138.996 235.406Z" fill="black"/>
<path opacity="0.49" d="M162.617 259.208C160.819 262.98 158.527 266.471 155.742 269.574C154.931 270.491 153.979 271.408 152.781 271.443C151.688 271.478 150.736 270.844 149.89 270.139C147.633 268.305 136.175 261.006 142.486 260.336C145.095 260.054 151.37 261.782 154.05 261.535C157.011 261.288 159.938 260.512 162.617 259.208Z" fill="black"/>
<path opacity="0.17" d="M200.94 188.614C203.479 183.748 208.203 180.046 213.562 178.776C212.328 186.851 209.402 194.644 205.03 201.52C196.921 185.37 180.457 173.769 162.547 171.548C169.668 175.991 176.437 181.033 182.748 186.569C184.969 188.544 187.191 190.589 188.671 193.198C190.152 195.772 190.822 198.981 189.799 201.767C183.912 197.782 177.53 194.574 170.797 192.246C176.825 194.256 182.043 198.593 185.146 204.165C176.79 201.873 167.271 204.835 161.665 211.393C167.165 208.008 174.569 208.008 180.069 211.428C185.569 214.849 188.812 221.513 188.178 227.931C187.473 234.877 182.784 240.66 178.271 245.985C180.316 244.222 183.03 243.869 185.569 242.952C188.107 242.035 190.681 240.731 192.655 242.6C194.841 244.68 195.017 248.065 194.771 251.062C193.184 269.01 181.832 284.878 167.906 296.303C184.123 288.439 197.626 275.075 205.665 258.926C213.703 242.776 216.241 223.982 212.751 206.28C230.485 194.644 239.687 171.372 234.716 150.744C235.526 154.093 229.11 159.7 226.853 161.357C223.293 164.037 218.745 165.166 215.325 168.022C212.998 169.961 211.623 172.747 209.86 175.18C206.652 179.552 203.479 183.819 200.94 188.614Z" fill="#660000"/>
<path opacity="0.23" d="M141.534 278.319C144.566 278.108 147.492 275.992 148.233 273.065C148.973 270.139 147.069 266.648 144.108 266.048C146.258 268.587 149.643 269.998 152.957 269.786C156.271 269.539 159.409 267.67 161.172 264.849C158.598 267.423 155.813 270.809 156.87 274.299C157.858 277.508 161.806 278.954 165.085 278.284C168.364 277.614 170.691 276.556 173.229 274.405C174.851 272.325 172.771 271.69 171.607 270.985C175.239 271.091 179.293 272.924 177.037 278.002C177.425 277.085 176.367 276.098 175.344 276.133C174.357 276.168 173.511 276.874 172.736 277.508C167.941 281.599 163.569 285.865 159.268 290.802C160.784 289.744 159.444 286.147 158.034 284.984C156.588 283.785 154.614 283.608 152.745 283.538C151.053 283.467 149.995 283.185 148.691 284.278C147.387 285.407 146.505 289.391 148.127 289.885C145.483 289.074 142.415 284.772 140.124 283.15C137.339 281.211 134.553 278.919 131.592 277.297C131.31 278.319 131.698 278.213 131.31 279.307C129.653 277.332 129.829 273.277 134.976 274.158C134.553 274.405 133.954 275.04 133.601 275.357C135.258 277.649 138.714 278.531 141.534 278.319Z" fill="#660000"/>
<path opacity="0.17" d="M135.223 210.547C137.127 210.194 139.101 210.159 141.04 210.265C138.291 208.819 135.259 207.938 131.944 207.938C121.05 207.938 113.329 216.788 113.329 227.684C113.329 238.58 121.05 247.43 131.944 247.43C134.342 247.43 136.634 246.937 138.749 246.161C138.784 246.055 138.855 245.949 138.855 245.843C138.89 244.927 138.008 244.221 137.127 244.045C136.246 243.869 135.329 244.116 134.412 244.221C128.666 245.068 122.672 241.647 120.028 236.464C117.384 231.281 117.948 224.757 121.015 219.821C124.118 214.849 129.512 211.569 135.223 210.547Z" fill="black"/>
<path opacity="0.17" d="M84.9834 170.172C83.679 169.749 81.9867 169.467 81.2463 170.596C80.6117 171.512 81.07 172.711 81.5636 173.699C85.9706 182.655 91.8583 190.836 98.9095 197.888C99.4384 198.417 100.002 198.946 100.743 199.052C101.659 199.193 102.541 198.593 103.211 197.994C106.736 194.785 108.252 189.566 106.983 184.982C104.409 175.673 92.916 172.711 84.9834 170.172Z" fill="black"/>
<path opacity="0.47" d="M214.69 157.02C220.648 155.01 227.135 154.375 232.494 151.096C229.356 154.799 226.183 158.466 223.046 162.168C223.433 161.322 223.856 160.44 224.244 159.594C213.456 159.418 203.302 165.553 196.322 173.769C194.77 175.603 193.29 177.613 192.867 179.975C192.443 182.232 193.184 184.912 195.299 186.075C192.69 183.96 190.011 181.562 191.104 178.036C192.091 174.898 194.841 171.618 196.956 169.15C201.61 163.614 207.815 159.347 214.69 157.02Z" fill="#DD6628"/>
<path opacity="0.47" d="M116.044 178.776C112.659 169.961 104.586 163.12 95.384 161.216C89.7078 160.052 83.679 160.617 78.2144 158.677C79.9419 159.277 81.2816 160.969 82.9739 161.604C84.4899 162.168 86.1117 162.098 87.7334 162.309C91.4353 162.768 95.0667 163.755 98.5218 165.201C105.432 168.092 111.566 172.782 116.044 178.776Z" fill="#DD6628"/>
<path opacity="0.47" d="M139.384 176.59C144.989 175.709 151.088 176.026 155.777 179.235C143.473 179.481 131.239 183.113 120.804 189.602C120.063 190.06 119.006 190.518 118.406 189.884C117.983 189.46 118.089 188.755 118.23 188.191C120.804 178.812 131.098 177.895 139.384 176.59Z" fill="#DD6628"/>
<path opacity="0.75" d="M115.339 273.982C110.05 266.083 105.326 258.396 102.188 249.369C99.4031 241.4 96.0538 230.61 97.2172 222.077C100.073 223.029 99.4031 230.716 99.7556 233.255C100.461 238.086 101.518 242.881 102.929 247.536C105.714 256.915 109.909 265.872 115.339 273.982Z" fill="#DD6628"/>
<path opacity="0.75" d="M146.646 258.326C147.915 257.867 149.29 257.762 150.595 258.008C151.194 258.114 151.899 258.467 151.899 259.066C151.899 259.666 151.265 259.983 150.665 260.124C149.749 260.371 148.797 260.406 147.845 260.3C147.386 260.23 146.928 260.124 146.54 259.877C146.152 259.631 145.906 259.137 146.047 258.678C146.152 258.22 146.717 257.903 147.104 258.15" fill="#DD6628"/>
<path d="M180.139 178.529C185.604 182.338 190.293 187.31 193.854 192.951C192.232 186.322 188.354 180.257 183.03 176.026" fill="black"/>
<path d="M121.473 176.132C116.538 179.481 112.589 184.242 110.227 189.707C115.938 183.572 123.271 178.917 131.239 176.308" fill="black"/>
<path d="M282.026 491.805L280.248 491.77C280.936 472.002 283.045 452.309 286.559 432.843C294.248 391.168 307.032 363.798 324.557 351.493L325.577 352.948C284.639 381.691 282.047 490.707 282.026 491.805Z" fill="#F1F1F1"/>
<path d="M304.25 491.38L302.472 491.345C302.51 489.376 303.622 442.973 321.89 430.147L322.911 431.602C305.38 443.91 304.259 490.907 304.25 491.38Z" fill="#F1F1F1"/>
<path d="M335.692 353.109C340.602 353.109 344.582 349.129 344.582 344.219C344.582 339.31 340.602 335.33 335.692 335.33C330.782 335.33 326.802 339.31 326.802 344.219C326.802 349.129 330.782 353.109 335.692 353.109Z" fill="#F1F1F1"/>
<path d="M331.29 429.56C336.199 429.56 340.179 425.58 340.179 420.67C340.179 415.761 336.199 411.781 331.29 411.781C326.38 411.781 322.4 415.761 322.4 420.67C322.4 425.58 326.38 429.56 331.29 429.56Z" fill="#F1F1F1"/>
<path d="M300.106 358.438C300.997 365.295 300.072 372.266 297.423 378.654C292.795 373.481 289.762 367.082 288.689 360.225C287.616 353.369 288.548 346.349 291.373 340.01C295.847 345.282 298.859 351.636 300.106 358.438Z" fill="#F1F1F1"/>
<path d="M329.164 384.355C322.567 386.427 315.541 386.73 308.79 385.234C313.077 379.777 318.85 375.675 325.414 373.423C331.979 371.172 339.054 370.866 345.789 372.544C341.377 377.868 335.644 381.941 329.164 384.355Z" fill="#F1F1F1"/>
<path d="M329.492 452.059C324.868 453.512 319.944 453.724 315.212 452.676C318.217 448.851 322.263 445.975 326.864 444.397C331.465 442.819 336.425 442.605 341.145 443.781C338.053 447.513 334.034 450.368 329.492 452.059Z" fill="#F1F1F1"/>
<path d="M709.414 298.929H482.543C480.731 298.927 478.994 298.207 477.713 296.925C476.432 295.644 475.712 293.907 475.709 292.096V215.561C475.712 213.749 476.432 212.012 477.713 210.731C478.994 209.45 480.731 208.729 482.543 208.727H709.414C711.226 208.729 712.963 209.45 714.244 210.731C715.525 212.012 716.246 213.749 716.248 215.561V292.096C716.246 293.907 715.525 295.644 714.244 296.925C712.963 298.207 711.226 298.927 709.414 298.929Z" fill="#E5E5E5"/>
<path d="M571.378 229.228H511.244V236.061H571.378V229.228Z" fill="white"/>
<path d="M650.647 237.428C652.911 237.428 654.747 235.592 654.747 233.328C654.747 231.063 652.911 229.228 650.647 229.228C648.382 229.228 646.547 231.063 646.547 233.328C646.547 235.592 648.382 237.428 650.647 237.428Z" fill="#2FA4DA"/>
<path d="M664.313 237.428C666.578 237.428 668.414 235.592 668.414 233.328C668.414 231.063 666.578 229.228 664.313 229.228C662.049 229.228 660.213 231.063 660.213 233.328C660.213 235.592 662.049 237.428 664.313 237.428Z" fill="#2FA4DA"/>
<path d="M677.98 237.428C680.245 237.428 682.081 235.592 682.081 233.328C682.081 231.063 680.245 229.228 677.98 229.228C675.716 229.228 673.88 231.063 673.88 233.328C673.88 235.592 675.716 237.428 677.98 237.428Z" fill="#2FA4DA"/>
<path d="M709.414 395.965H482.543C480.731 395.963 478.994 395.242 477.713 393.961C476.432 392.68 475.712 390.943 475.709 389.131V312.596C475.712 310.784 476.432 309.048 477.713 307.766C478.994 306.485 480.731 305.765 482.543 305.763H709.414C711.226 305.765 712.963 306.485 714.244 307.766C715.525 309.048 716.246 310.784 716.248 312.596V389.131C716.246 390.943 715.525 392.68 714.244 393.961C712.963 395.242 711.226 395.963 709.414 395.965Z" fill="#E5E5E5"/>
<path d="M571.378 326.263H511.244V333.097H571.378V326.263Z" fill="white"/>
<path d="M650.647 334.463C652.911 334.463 654.747 332.628 654.747 330.363C654.747 328.099 652.911 326.263 650.647 326.263C648.382 326.263 646.547 328.099 646.547 330.363C646.547 332.628 648.382 334.463 650.647 334.463Z" fill="#2FA4DA"/>
<path d="M664.313 334.463C666.578 334.463 668.414 332.628 668.414 330.363C668.414 328.099 666.578 326.263 664.313 326.263C662.049 326.263 660.213 328.099 660.213 330.363C660.213 332.628 662.049 334.463 664.313 334.463Z" fill="#2FA4DA"/>
<path d="M677.98 334.463C680.245 334.463 682.081 332.628 682.081 330.363C682.081 328.099 680.245 326.263 677.98 326.263C675.716 326.263 673.88 328.099 673.88 330.363C673.88 332.628 675.716 334.463 677.98 334.463Z" fill="#2FA4DA"/>
<path d="M709.414 493H482.543C480.731 492.998 478.994 492.277 477.713 490.996C476.432 489.715 475.712 487.978 475.709 486.167V409.632C475.712 407.82 476.432 406.083 477.713 404.802C478.994 403.521 480.731 402.8 482.543 402.798H709.414C711.226 402.8 712.963 403.521 714.244 404.802C715.525 406.083 716.246 407.82 716.248 409.632V486.167C716.246 487.978 715.525 489.715 714.244 490.996C712.963 492.277 711.226 492.998 709.414 493Z" fill="#E5E5E5"/>
<path d="M571.378 423.299H511.244V430.132H571.378V423.299Z" fill="white"/>
<path d="M650.647 431.499C652.911 431.499 654.747 429.663 654.747 427.399C654.747 425.134 652.911 423.299 650.647 423.299C648.382 423.299 646.547 425.134 646.547 427.399C646.547 429.663 648.382 431.499 650.647 431.499Z" fill="#2FA4DA"/>
<path d="M664.313 431.499C666.578 431.499 668.414 429.663 668.414 427.399C668.414 425.134 666.578 423.299 664.313 423.299C662.049 423.299 660.213 425.134 660.213 427.399C660.213 429.663 662.049 431.499 664.313 431.499Z" fill="#2FA4DA"/>
<path d="M677.98 431.499C680.245 431.499 682.081 429.663 682.081 427.399C682.081 425.134 680.245 423.299 677.98 423.299C675.716 423.299 673.88 425.134 673.88 427.399C673.88 429.663 675.716 431.499 677.98 431.499Z" fill="#2FA4DA"/>
<path d="M437.17 327.975C432.849 327.961 428.546 327.404 424.364 326.319L423.54 326.091L422.775 325.707C395.127 311.846 371.803 293.536 353.449 271.287C338.255 252.761 326.41 231.728 318.445 209.131C308.92 182.078 304.338 153.532 304.917 124.857C304.929 124.255 304.938 123.79 304.938 123.47C304.938 109.531 312.676 97.3005 324.65 92.3111C333.815 88.4925 417.025 54.3148 423.037 51.8453C434.36 46.172 446.439 50.9073 448.372 51.7353C452.707 53.508 529.63 84.9703 546.253 92.8857C563.385 101.044 567.956 115.699 567.956 123.072C567.956 156.454 562.174 187.652 550.772 215.799C541.564 238.582 528.513 259.615 512.187 277.983C480.689 313.429 449.183 325.995 448.879 326.106C445.113 327.401 441.151 328.034 437.17 327.975ZM429.761 309.622C432.492 310.234 438.781 311.153 442.88 309.658C448.087 307.759 474.457 294.084 499.1 266.353C533.147 228.038 550.422 179.873 550.448 123.196C550.387 122.047 549.571 113.858 538.726 108.693C522.425 100.931 442.471 68.2377 441.665 67.9081L441.444 67.8145C439.768 67.1123 434.436 65.6334 430.76 67.5596L430.024 67.9027C429.133 68.2687 340.804 104.547 331.384 108.472C324.794 111.218 322.446 118.02 322.446 123.47C322.446 123.869 322.436 124.448 322.422 125.197C321.669 163.978 330.643 259.405 429.761 309.622Z" fill="#3F3D56"/>
<path d="M426.698 59.805C426.698 59.805 337.567 96.4125 328.017 100.392C318.467 104.371 313.692 113.92 313.692 123.47C313.692 133.02 306.53 257.632 426.698 317.882C426.698 317.882 437.605 320.899 445.879 317.882C454.154 314.864 559.201 263.932 559.201 123.072C559.201 123.072 559.201 108.748 542.489 100.789C525.777 92.8313 444.977 59.805 444.977 59.805C444.977 59.805 435.054 55.428 426.698 59.805Z" fill="#2FA4DA"/>
<path opacity="0.2" d="M436.248 88.4543V283.743C436.248 283.743 526.175 240.455 525.379 126.654L436.248 88.4543Z" fill="black"/>
<path d="M741.102 493H0.898305C0.66006 493 0.431572 492.895 0.263107 492.707C0.0946419 492.52 0 492.265 0 492C0 491.735 0.0946419 491.48 0.263107 491.293C0.431572 491.105 0.66006 491 0.898305 491H741.102C741.34 491 741.568 491.105 741.737 491.293C741.905 491.48 742 491.735 742 492C742 492.265 741.905 492.52 741.737 492.707C741.568 492.895 741.34 493 741.102 493Z" fill="#CBCBCB"/>
</g>
<defs>
<clipPath id="clip0_501_2">
<rect width="742" height="493" fill="white"/>
</clipPath>
</defs>
</svg>
