<svg width="470" height="471" viewBox="0 0 470 471" fill="none" xmlns="http://www.w3.org/2000/svg">
<path d="M304.396 456.821C298.234 456.744 292.082 456.726 285.925 456.726L270.037 456.74C270.037 456.74 224.59 456.722 202.869 456.722C199.458 456.722 196.038 456.735 192.623 456.744C189.203 456.753 185.787 456.767 182.367 456.767C180.227 456.767 178.096 456.763 175.96 456.749C163.036 456.672 150.682 455.13 139.243 452.155C93.6957 440.324 59.2052 413.495 36.7277 372.43C25.9534 352.745 19.8285 330.723 18.5353 306.996C17.9615 296.444 18.5034 285.629 20.1518 274.86C20.3477 273.576 20.5845 272.292 20.8213 270.999L21.3449 268.06L22.2329 268.928C22.702 269.389 22.8477 269.868 22.957 270.23C23.3987 271.668 23.8131 273.119 24.2321 274.561C25.0973 277.568 25.9989 280.678 27.0554 283.662C34.8014 305.599 46.5639 326.147 63.0122 346.515C63.6634 347.32 64.1552 348.21 64.4376 349.074C70.016 366.123 79.711 380.848 93.2449 392.884C106.41 404.584 122.193 413.346 140.222 418.975C128.66 414.061 117.958 407.781 108.332 400.244C92.6301 387.951 81.3139 372.909 74.7109 355.53C74.0506 353.785 73.4951 351.678 74.3876 349.345C74.6836 348.549 74.8931 347.727 75.1071 346.899C75.2528 346.33 75.394 345.76 75.5716 345.195C79.1281 333.652 84.5289 324.601 92.0837 317.539C99.1193 310.956 108.081 306.141 119.484 302.814C130.131 299.703 141.242 298.302 151.984 296.945L156.588 296.358C162.604 295.576 168.701 294.653 174.594 293.749L178.141 293.206C179.462 293.008 180.774 292.723 182.131 292.429L185.441 291.742L184.571 293.211C184.503 293.338 184.448 293.442 184.353 293.55C178.774 299.753 174.093 306.648 170.441 314.067C170.131 314.695 169.466 315.274 168.829 315.478C168.037 315.735 167.249 315.988 166.461 316.251C163.952 317.087 161.365 317.928 158.733 318.448C155.901 319.008 153 319.415 150.19 319.804C147.941 320.121 145.691 320.433 143.455 320.84C135.928 322.169 130.103 324.569 125.7 328.236C126.665 328.006 127.663 327.861 128.642 327.721C130.008 327.526 131.41 327.318 132.69 326.88C139.63 324.484 147.244 323.371 156.657 323.371L157.927 323.376C159.617 323.394 161.301 323.471 163.014 323.552L166.32 323.688L166.074 324.497C159.321 346.402 159.512 367.895 166.616 388.503C163.642 374.528 163.1 361.548 164.94 349.002C167.754 329.828 176.261 313.303 190.241 299.889C199.667 290.842 211.493 283.246 226.389 276.682C239.326 270.972 252.806 267.545 265.502 264.515L267.901 263.941C276.954 261.78 286.317 259.547 295.388 256.902C308.99 252.946 320.812 246.44 330.525 237.533C331.978 236.2 333.631 234.685 334.933 233.012C344.209 221.077 355.025 212.608 367.985 207.12C368.358 206.962 368.782 206.568 369.055 206.121C373.295 199.249 378.381 194.189 384.606 190.64C385.995 189.849 387.379 189.451 388.723 189.451C390.426 189.451 392.129 190.102 393.791 191.355C394.42 191.834 394.993 192.336 395.499 192.847C397.68 195.021 399.429 197.698 401.014 201.251C401.209 201.676 401.387 201.812 401.865 201.871C403.445 202.079 405.076 202.291 406.692 202.608C433.159 207.807 451.588 228.025 454.789 255.383C454.876 256.111 454.935 256.848 454.994 257.58C455.135 259.316 455.277 261.107 455.8 262.721C456.456 264.76 457.444 266.767 458.41 268.693C458.833 269.547 459.266 270.42 459.667 271.293C460.008 272.043 460.368 272.785 460.723 273.526C461.565 275.285 462.426 277.08 463.141 278.92C464.239 281.727 464.366 284.63 463.524 287.546C463.159 288.798 462.394 288.984 461.971 288.984C461.647 288.984 461.301 288.88 460.951 288.663C460.222 288.197 459.544 287.682 458.865 287.148C458.546 286.886 458.218 286.646 457.891 286.402C457.526 286.122 457.166 285.846 456.811 285.552C455.96 284.892 455.163 284.25 454.275 283.766C453.956 283.59 453.624 283.491 453.3 283.491C452.963 283.491 452.64 283.59 452.339 283.784L453.587 284.892C455.814 286.854 458.036 288.821 460.222 290.815C460.682 291.231 460.987 291.995 460.946 292.623C460.687 296.728 459.243 300.133 456.643 302.755C453.546 305.866 450.299 307.376 446.725 307.376C445.96 307.376 445.181 307.303 444.389 307.163C444.243 308.542 443.947 309.058 442.79 309.672C435.477 313.61 428.345 315.527 421 315.527L419.853 315.518C414.848 315.518 409.975 316.929 404.511 319.953C402.63 320.989 400.968 321.699 399.415 322.105C394.72 323.344 389.98 323.81 385.695 324.009C387.534 324.262 389.456 324.384 391.519 324.384C392.835 324.384 394.192 324.33 395.658 324.235L396.496 324.149C397.116 324.09 397.744 324.036 398.345 324.036C399.151 324.036 399.816 324.135 400.376 324.366C404.206 325.921 407.949 327.802 411.455 329.583C412.143 329.936 412.639 330.081 413.099 330.081C413.354 330.081 413.6 330.031 413.86 329.936L414.884 329.556C416.802 328.837 418.783 328.096 420.672 327.264C425.167 325.279 429.042 324.343 432.867 324.343C433.892 324.343 434.917 324.42 435.932 324.556C438.555 324.909 441.615 325.505 444.375 327.192C445.736 328.024 447.553 329.412 447.722 332.002C447.731 332.047 447.822 332.201 448.036 332.4C448.369 332.703 448.715 332.992 449.07 333.282C449.425 333.571 449.789 333.874 450.131 334.195C452.271 336.144 453.214 338.612 452.95 341.537C452.868 342.356 452.686 344.273 451.033 344.273C450.532 344.273 449.944 344.092 449.129 343.68C448.788 343.504 448.473 343.364 448.186 343.282C448.992 343.771 449.776 344.263 450.545 344.783C452.371 346.018 453.264 347.908 453.177 350.399C453.004 355.824 447.248 360.96 441.333 360.96C440.632 360.96 439.939 360.874 439.279 360.734C437.535 360.354 435.367 359.631 434.061 357.379C434.02 357.316 433.869 357.216 433.837 357.207L432.836 357.253C431.647 357.298 430.427 357.348 429.293 357.605L428.96 357.682C427.034 358.125 425.049 358.564 423.018 358.564C422.207 358.564 421.446 358.491 420.709 358.351C419.803 358.184 418.905 357.962 417.986 357.736L417.321 357.578C416.269 360.965 414.57 364.143 412.271 367.045C407.12 373.547 400.253 378.131 391.291 381.047C384.793 383.172 377.807 384.235 370.517 384.235C366.687 384.235 362.666 383.95 358.572 383.371C342.424 381.079 331.154 372.362 325.061 357.47C324.036 354.974 323.348 352.325 322.674 349.757C322.351 348.518 322.019 347.252 321.654 346.018C319.742 339.557 317.333 333.86 314.282 328.571C308.744 318.972 301.896 312.132 293.339 307.66C286.499 304.084 279.013 302.271 271.098 302.271C267.783 302.271 264.318 302.583 260.788 303.212C260.073 303.338 259.363 303.492 258.639 303.646C261.13 303.759 263.498 303.894 265.889 304.125C276.959 305.237 287.041 308.614 295.853 314.157C307.843 321.712 315.202 331.098 318.335 342.844C320.088 349.409 322.593 355.946 325.776 362.28C327.615 365.951 329.956 370.201 333.326 373.791C338.089 378.85 344.228 382.309 352.639 384.655C354.938 385.302 357.224 386.002 359.497 386.726C360.753 387.128 361.628 387.992 362.17 389.38C363.486 392.771 363.814 396.229 363.14 399.643C362.151 404.657 359.752 409.3 355.794 413.834C352.67 417.411 348.791 420.01 345.038 422.529C343.153 423.781 341.382 425.115 339.77 426.485C338.39 427.66 337.675 429.197 337.752 430.816C337.871 433.483 338.071 433.583 338.572 433.583C338.991 433.583 339.651 433.424 340.717 433.081C341.24 432.909 341.759 432.701 342.274 432.475L345.398 431.137C347.183 430.373 348.964 429.604 350.762 428.863C354.66 427.249 358.517 426.421 362.215 426.421C364.191 426.421 366.168 426.656 368.094 427.113C375.016 428.759 379.561 432.841 381.601 439.257C382.147 440.993 382.07 442.476 381.35 443.683C380.877 444.483 379.793 445.152 378.891 445.179C378.053 445.179 377.27 444.442 376.669 443.787C376.332 443.421 376.25 442.941 376.186 442.525C376.159 442.39 376.136 442.245 376.104 442.119C375.49 439.835 374.638 438.343 373.354 437.344C375.649 440.441 376.678 443.751 376.491 447.426C376.3 451.075 373.55 453.616 369.793 453.616C369.638 453.616 369.488 453.611 369.324 453.602C367.898 453.516 366.992 452.752 366.842 451.495C366.742 450.627 366.742 449.732 366.737 448.873C366.737 448.516 366.737 448.154 366.728 447.802C366.719 447.331 366.723 446.875 366.728 446.405C366.728 445.401 366.733 444.456 366.605 443.525C366.323 441.517 365.12 440.161 363.03 439.496C362.885 439.442 362.739 439.406 362.584 439.392C363.217 439.75 363.763 440.242 364.151 440.957C364.925 442.381 365.585 443.678 365.945 445.075C366.874 448.787 365.958 451.681 363.299 453.453C361.919 454.362 360.152 454.701 358.595 454.918C357.962 455.008 357.343 455.035 356.719 455.035C354.392 455.035 352.115 454.493 349.92 453.977L348.804 453.711C346.723 453.236 344.879 452.996 343.107 452.992C341.596 452.992 340.025 453.281 338.504 453.562L337.798 453.688C326.263 455.75 315.894 456.749 306.108 456.749L304.396 456.821Z" fill="#E65270"/>
<path opacity="0.2" d="M398.281 323.173C398.281 323.173 381.273 343.319 352.388 331.777C325.93 321.193 335.575 292.063 335.575 292.063C335.575 292.063 340.266 310.129 353.955 316.974C373.773 326.889 398.281 323.173 398.281 323.173Z" fill="#430A1D"/>
<path opacity="0.2" d="M314.478 331.799C318.162 335.515 318.23 339.317 319.387 343.952C321.568 352.668 324.25 360.237 329.842 367.407C335.22 374.297 341.655 379.171 349.965 382.34C357.165 385.08 366.423 384.271 365.043 394.914L362.63 403.875C344.232 403.875 326.996 395.538 319.974 377.408C313.817 361.503 321.072 342.283 302.41 315.392C303.904 317.209 312.57 329.864 314.478 331.799Z" fill="#430A1D"/>
<g opacity="0.2">
<path d="M307.192 323.896C307.474 325.026 307.729 326.175 307.988 327.318C307.301 326.482 306.946 325.415 307.192 323.896Z" fill="#2B2B2B"/>
</g>
<path d="M82.6734 393.395C13.2689 386.586 5.0994 317.996 5.0994 317.996C5.0994 317.996 1.32885 286.203 10.1268 255.017C15.7781 311.757 61.6257 351.041 61.6257 351.041C61.6257 351.041 71.6987 383.371 82.6734 393.395Z" fill="url(#paint0_linear_327_36)"/>
<path opacity="0.2" d="M65.3644 367.272C65.3644 367.272 50.8104 368.646 31.3885 345.24C50.1137 378.972 74.3809 379.66 74.3809 379.66L65.3644 367.272Z" fill="#2B2B2B"/>
<path d="M113.022 406.66C109.384 343.228 146.893 372.661 166.256 339.024C171.698 309.591 188.032 290.973 188.032 290.973C188.032 290.973 71.883 269.353 70.0569 353.442C74.1007 371.648 91.8788 389.253 103.008 398.779C100.832 393.906 73.1034 318.154 165.445 324.33C133.573 321.635 87.5527 354.694 109.488 404.218C111.688 405.81 113.022 406.66 113.022 406.66Z" fill="url(#paint1_linear_327_36)"/>
<path opacity="0.2" d="M144.42 315.184C120.413 324.145 79.6427 324.104 91.2458 384.927C89.3878 386.31 80.1072 372.024 82.425 373.412C71.7509 319.032 119.693 322.174 144.42 315.184Z" fill="white"/>
<path opacity="0.6" d="M174.822 293.397C198.169 284.228 179.212 310.224 175.896 314.384C168.232 324.005 148.842 320.876 138.51 324.086C132.567 325.931 108.746 329.398 100.854 351.791C97.3478 361.711 96.0272 377.928 103.5 397.663C101.647 399.055 89.365 385.7 91.6875 387.074C71.9786 299.681 164.94 331.049 174.822 293.397Z" fill="#8B4FBA"/>
<path d="M406.938 257.711C407.571 255.975 408.659 253.755 410.03 252.444C410.349 252.593 410.69 252.612 410.95 252.774C413.227 251.309 416.824 251.504 419.684 251.504C421.396 251.504 423.892 251.034 425.545 251.671C427.949 252.598 427.676 255.112 428.682 257.015C430.568 260.569 436.378 260.614 436.401 265.637C436.419 268.001 437.016 271.207 436.406 273.522C435.95 275.24 434.015 274.715 432.348 274.715C427.298 274.715 422.262 274.855 417.202 274.855L410.208 269.679C408.341 270.271 406.879 266.383 406.624 265.063C406.205 262.884 406.15 259.868 406.938 257.711Z" fill="#F9E0E7"/>
<path d="M430.276 264.593C431.132 264.245 432.394 262.884 432.922 262.083C433.305 261.509 433.195 261.143 434.015 261.166C436.151 261.224 436.169 264.086 436.06 265.565C435.932 267.455 435.162 269.191 434.885 271.049C434.193 270.877 433.81 270.013 433.031 269.796C432.412 269.616 431.524 269.702 430.877 269.729C429.93 269.769 428.619 270.402 427.763 270.041L430.276 264.593Z" fill="white"/>
<path d="M153.651 171.629C153.97 171.263 154.052 171.155 154.152 171.051C163.419 162.461 168.333 151.619 170.974 139.498C172.709 131.563 170.496 124.564 166.898 117.724C166.834 117.611 166.721 117.498 166.598 117.344C165.878 119.578 165.222 121.77 164.457 123.927C162.577 129.244 160.3 134.389 156.684 138.792C155.24 140.547 94.693 173.845 100.927 247.589C100.968 248.045 101.046 248.479 101.109 248.99C102.23 247.955 103.209 246.883 104.333 246.002C108.364 242.873 113.018 240.879 117.872 239.532C126.756 237.073 135.7 234.812 144.653 232.637C154.84 230.16 165.086 227.863 174.913 224.129C180.468 222.022 185.632 219.246 190.564 215.9C197.914 210.909 204.257 204.932 209.722 198.015C212.905 193.986 214.39 190.912 215.824 186.178C216.73 188.615 216.257 195.406 214.891 199.737C213.479 204.213 211.079 208.119 207.951 211.705C208.702 211.465 209.522 211.343 210.191 210.963C218.852 206.062 226.526 200.027 232.191 191.753C235.988 186.21 238.302 180.143 238.625 173.388C238.63 173.293 238.671 173.198 238.702 173.049C240.506 181.332 240.246 195.438 230.838 205.465C234.162 204.299 237.168 203.128 240.246 202.219C242.792 201.469 244.472 199.99 245.879 197.77C252.054 188.068 257.173 177.896 259.941 166.679C262.082 158.016 262.614 149.318 260.215 140.614C257.491 130.777 251.508 123.204 243.366 117.186C237.71 113.004 231.471 109.902 224.923 107.362C224.526 107.208 224.13 107.068 223.743 106.896C223.679 106.873 223.648 106.801 223.397 106.53C225.665 107.149 227.7 107.674 229.709 108.266C239.09 111.033 248.079 114.641 256.039 120.419C263.143 125.573 268.58 132.002 271.299 140.456C273.726 148.025 273.516 155.674 271.772 163.324C269.222 174.478 263.99 184.415 257.614 193.824C257.419 194.117 257.227 194.407 257.041 194.696C257.013 194.741 257.018 194.814 256.981 194.976C257.245 194.881 257.455 194.814 257.646 194.71C270.993 187.933 282.861 179.266 292.314 167.619C301.495 156.316 308.175 143.73 311.349 129.47C315.343 111.476 310.962 95.4982 299.222 81.4059C291.804 72.4857 282.633 65.7402 272.478 60.2425C259.377 53.1624 245.438 48.5328 230.688 46.4034C222.3 45.1872 213.902 44.9566 205.519 46.5571C200.91 47.4252 197.923 48.6278 192.814 51.5574C193.46 51.0104 194.075 50.4317 194.754 49.9389C199.339 46.4802 204.626 44.6944 210.177 43.5777C219.358 41.7331 228.616 41.7557 237.874 42.8272C252.209 44.4909 265.875 48.4333 278.817 54.7901C280.083 55.423 281.335 56.0695 282.733 56.7839C282.733 55.6174 282.665 54.6002 282.751 53.5919C282.87 52.0367 283.658 51.146 284.892 51.0013C286.067 50.8567 286.759 51.2952 286.986 52.4436C287.173 53.4156 287.223 54.4148 287.364 55.3914C287.683 57.6158 288.721 59.5011 290.261 61.1377C290.411 61.305 290.598 61.4497 290.784 61.5762C290.871 61.6441 290.994 61.6395 291.322 61.7028C291.322 60.9026 291.326 60.1657 291.322 59.4332C291.299 57.9458 291.24 56.4538 291.272 54.9664C291.285 54.6002 291.545 54.0124 291.8 53.9401C292.15 53.8451 292.788 54.0215 293.007 54.2972C293.594 55.0658 294.227 55.8977 294.496 56.811C295.083 58.746 295.347 60.7715 295.957 62.693C296.358 63.9363 296.996 65.166 297.793 66.1968C298.667 67.3271 299.55 67.0784 299.883 65.695C300.192 64.4019 300.306 63.0592 300.502 61.739C300.57 61.2824 300.584 60.8122 300.725 60.3872C300.839 60.021 301.108 59.7181 301.308 59.379C301.609 59.6548 302.05 59.8582 302.182 60.2018C302.488 60.9704 302.788 61.7978 302.824 62.6071C302.92 64.3974 302.752 66.2014 302.884 67.9827C302.952 68.9321 303.271 69.9448 303.74 70.7677C304.259 71.6855 305.092 71.577 305.379 70.5507C305.794 69.0858 305.999 67.5712 306.299 66.0748C306.504 65.062 306.718 64.0538 306.968 62.815C308.175 63.8368 308.467 64.9716 308.585 66.0702C308.895 68.9954 309.045 71.9341 309.305 74.8638C309.505 77.0611 310.265 78.9916 311.572 80.8679C313.945 84.2813 316.044 87.8937 318.166 91.4744C319.259 93.31 320.27 93.4773 321.29 91.5874C322.447 89.4399 323.307 87.1477 324.287 84.9007C324.715 83.9196 325.074 82.9205 325.525 81.9529C325.735 81.4827 326.09 81.0849 326.413 80.5966C327.574 81.433 327.852 82.5271 327.629 83.6122C327.297 85.2443 326.691 86.8312 326.263 88.4453C325.803 90.2085 325.311 91.9672 325.033 93.7666C324.929 94.49 325.257 95.358 325.589 96.0588C326.058 97.0761 326.805 97.1982 327.606 96.4024C328.421 95.5977 329.054 94.6166 329.847 93.7983C330.298 93.3281 330.917 93.0432 331.459 92.6725C331.764 93.3326 332.383 94.0198 332.329 94.6528C332.215 95.9955 331.891 97.3654 331.395 98.6223C330.384 101.177 329.023 103.609 328.153 106.2C327.524 108.08 327.406 110.138 327.201 112.131C327.146 112.62 327.556 113.483 327.943 113.623C328.349 113.764 329.15 113.366 329.51 112.972C331.163 111.173 332.716 109.27 334.337 107.42C334.733 106.959 335.261 106.634 335.726 106.236C335.885 106.317 336.035 106.381 336.195 106.466C336.04 107.511 336.081 108.641 335.698 109.613C335.047 111.227 334.241 112.814 333.312 114.283C331.841 116.621 330.161 118.814 328.654 121.119C325.867 125.383 324.022 130.04 322.866 134.995C322.032 138.557 320.848 142.043 319.81 145.547C319.687 145.981 319.532 146.401 319.514 146.885C320.42 145.452 321.304 143.987 322.242 142.559C324.205 139.557 326.468 136.799 329.51 134.809C331.04 133.815 332.684 132.92 334.396 132.296C343.198 129.081 352.097 126.093 360.489 121.902C362.875 120.694 365.157 119.243 367.329 117.67C370.075 115.69 371.091 112.927 370.271 109.581C369.697 107.258 369.123 104.938 368.527 102.52C367.106 104.771 365.854 106.941 364.419 108.976C362.985 111.01 361.213 112.737 358.577 113.899C358.813 113.452 358.882 113.257 359 113.099C362.698 108.04 364.829 102.289 366.478 96.3346C366.646 95.7197 366.455 94.9783 366.345 94.3137C365.59 89.9734 365.954 85.6241 366.15 81.2702C366.195 80.4067 366.195 79.507 366.072 78.648C366.022 78.2501 365.694 77.7528 365.353 77.6036C365.12 77.4996 364.515 77.8161 364.31 78.0919C363.463 79.2764 362.516 80.4384 361.946 81.745C359.656 87.0302 357.461 92.3605 355.275 97.6774C352.552 104.319 349.483 110.766 344.806 116.309C342.693 118.818 340.284 121.002 337.329 122.525C336.764 122.81 336.163 123.041 335.53 123.24C340.106 118.542 341.136 112.597 341.341 106.516C341.609 98.7308 341.454 90.9274 341.532 83.1329C341.614 74.7056 342.315 66.3505 344.847 58.2306C344.943 57.9096 344.783 57.4394 344.606 57.1184C343.891 55.735 342.984 54.4419 342.392 53.0132C341.149 50.0157 340.111 46.9414 338.895 43.9258C338.185 42.1535 337.943 42.0224 336.031 42.158C333.972 42.3027 332.743 41.1317 331.65 39.6805C330.817 38.5818 330.475 38.6089 329.901 39.8975C329.278 41.299 328.786 42.7413 328.112 44.1202C327.88 44.5904 327.288 44.8978 326.859 45.2776C326.532 44.7984 325.985 44.3282 325.93 43.8173C325.753 42.149 325.798 40.4671 325.68 38.7943C325.625 37.9624 325.512 37.1215 325.229 36.3439C325.093 35.9777 324.528 35.5798 324.123 35.5482C323.831 35.5256 323.326 36.0184 323.203 36.3891C322.788 37.5781 322.542 38.8169 322.164 40.015C321.859 40.978 321.427 41.082 320.848 40.2953C316.636 34.5987 311.017 30.5614 305.01 26.9716C303.239 25.9137 301.495 24.806 299.732 23.739C299.61 23.7797 299.487 23.8249 299.373 23.8566C299.596 25.7961 299.828 27.7312 300.051 29.6662C299.892 29.7521 299.732 29.8244 299.578 29.9058C299.022 29.4356 298.385 29.0468 297.92 28.4952C296.75 27.1253 295.693 25.6695 294.509 24.3041C292.169 21.5734 289.218 19.6203 286.381 18.9737C287.278 22.0255 288.134 24.9145 288.981 27.8125C288.849 27.8803 288.703 27.9346 288.571 27.9934C288.275 27.6317 287.934 27.2971 287.692 26.9038C287.005 25.7961 286.326 24.6929 285.698 23.5536C282.993 18.6934 278.821 15.8903 273.348 15.1082C269.623 14.5747 265.857 14.222 262.104 13.9689C259.349 13.779 256.713 13.3766 254.19 12.1785C252.423 11.3873 250.529 10.8448 248.671 10.2299C248.356 10.1214 247.947 10.2525 247.582 10.2751C247.61 10.6684 247.528 11.1251 247.687 11.4506C248.561 13.1505 249.513 14.8098 250.392 16.5097C250.715 17.1201 250.925 17.7937 251.18 18.4402C251.093 18.5352 251.011 18.6211 250.929 18.716C250.369 18.5307 249.786 18.4041 249.263 18.1509C246.84 16.9844 244.381 15.8858 242.04 14.5747C239.654 13.2364 237.031 13.1279 234.445 12.9109C226.362 12.2373 218.379 12.7753 210.569 15.1217C205.819 16.5414 201.43 18.6844 197.568 21.9984C198.055 21.9486 198.556 21.9486 199.03 21.8627C203.747 20.8997 208.465 19.9955 213.32 20.1537C216.621 20.2577 219.841 20.7822 222.746 22.446C223.206 22.7082 223.502 23.2598 223.875 23.6712C223.224 23.8972 222.541 24.3313 221.917 24.2499C220.41 24.0735 218.934 23.5175 217.418 23.3954C212.582 22.9659 207.928 24.0736 203.324 25.335C192.176 28.3732 182.08 33.5408 172.704 40.1913C170.418 41.8054 168.046 43.3019 165.673 44.8029C161.046 47.7235 157.299 51.4987 154.339 56.0695C153.993 56.6121 153.669 57.1953 153.451 57.7966C152.845 59.4694 153.291 60.8664 154.885 61.6983C156.019 62.2951 157.285 62.7201 158.542 63.023C175.204 67.0558 187.613 80.6915 189.535 97.5598C190.259 103.885 191.147 110.228 190.828 116.643C190.095 131.369 184.781 144.2 174.881 155.159C168.993 161.678 162.03 166.864 154.412 171.227C154.261 171.331 154.097 171.399 153.651 171.629Z" fill="url(#paint2_linear_327_36)"/>
<path opacity="0.2" d="M367.165 73.8781C360.089 128.755 335.557 116.336 319.51 146.971C318.631 145.814 316.609 155.181 320.653 137.789C324.701 120.378 336.299 128.24 347.279 108.329C361.181 83.1599 358.404 80.9039 367.165 73.8781Z" fill="#8B4FBA"/>
<path opacity="0.3" d="M293.881 74.9088C291.249 90.6152 268.88 89.9054 249.741 83.2412C228.939 75.9984 185.728 73.6745 182.249 82.3144C180.514 84.2946 177.03 76.1521 177.03 76.1521C177.03 76.1521 209.85 40.6026 264.791 78.1233C262.555 74.6692 284.536 64.56 284.536 64.56C284.536 64.56 291.149 62.5662 293.881 74.9088Z" fill="white"/>
<path opacity="0.2" d="M180.04 225.72C181.233 228.659 190.951 226.679 191.862 222.09C177.527 205.967 215.269 176.34 180.459 137.671C203.242 197.327 154.744 199.755 180.04 225.72Z" fill="#8B4FBA"/>
<path opacity="0.6" d="M180.04 225.72C181.233 228.658 181.019 227.817 181.93 223.228C167.595 207.102 205.778 183.587 180.459 137.671C203.242 197.327 154.744 199.755 180.04 225.72Z" fill="#8B4FBA"/>
<path d="M232.282 213.947C301.171 141.976 214.08 154.029 185.696 105.178C185.746 104.337 185.805 103.523 185.805 102.66C185.805 95.8692 184.148 89.4763 181.261 83.8068C207.828 122.928 275.178 88.4319 262.095 168.406C260.916 172.52 251.544 213.048 232.282 213.947Z" fill="url(#paint3_linear_327_36)"/>
<path d="M232.282 213.947C203.916 227.768 179.12 228.17 180.295 224.07C236.649 186.106 191.156 146.985 180.55 110.133C181.274 107.158 185.805 106.05 185.805 102.673C185.805 102.311 185.764 101.968 185.755 101.611C186.575 105.268 188.515 106.539 190.373 108.392C216.566 134.624 299.828 143.39 232.282 213.947Z" fill="url(#paint4_linear_327_36)"/>
<path d="M223.397 212.875C267.022 148.187 185.582 135.899 186.174 115.391C179.685 157.573 257.746 175.63 184.403 226.118C183.228 230.214 195.031 226.697 223.397 212.875Z" fill="#E65271"/>
<path d="M345.293 100.503C348.759 106.249 344.911 113.031 340.876 119.383C337.151 125.251 328.157 123.33 322.055 137.477L322.579 126.454C329.341 114.758 317.902 98.6582 314.719 87.7759C309.3 69.2393 303.407 52.1359 310.589 33.328C311.076 32.0666 311.49 30.6832 311.982 29.3856C315.561 32.0124 318.266 34.6301 321.349 38.6223C323.385 41.2717 322.675 31.7863 325.352 33.7802C327.319 35.2224 325.257 41.9317 327.133 43.4825C329.237 45.2457 330.503 35.037 332.028 37.2976C335.585 42.6054 337.625 39.2371 339.141 40.8286C340.512 42.2708 343.718 53.3882 345.011 54.8938C346.277 56.3541 347.484 57.8596 348.677 59.3742C347.957 67.467 346.373 76.5635 343.75 83.8651C341.277 90.7644 341.158 93.6398 345.293 100.503Z" fill="url(#paint5_linear_327_36)"/>
<path d="M248.325 16.0034C248.534 16.0803 248.716 16.1119 248.825 16.1074C250.734 16.0758 243.684 7.27312 245.711 7.27312C249.131 7.27312 253.962 10.7815 257.309 11.0392C264.377 11.5772 271.704 11.419 277.965 14.2628C283.967 16.9935 286.636 25.4706 287.979 25.8278C289.332 26.1985 284.714 16.0305 286.039 16.4827C288.284 17.2332 290.078 18.3363 291.558 19.557C297.478 27.9708 299.4 69.6691 290.716 68.5931C281.59 67.4628 305.11 71.794 305.206 71.4459C313.07 41.9637 295.547 23.834 296.34 24.8558C297.374 26.2121 298.211 27.2655 299.099 27.6046C300.971 28.3189 297.938 20.4974 299.646 21.5327C305.079 24.8286 308.931 27.1525 312.096 29.4944C312.192 29.6301 312.219 29.9556 312.374 29.8923C314.705 28.9293 329.095 25.5701 318.143 76.8939C334.774 43.4783 321.755 30.367 323.03 31.7369C328.936 38.0665 330.143 53.5197 330.903 62.684C331.623 71.2786 326.176 90.8731 319.118 97.3519C314.15 101.909 314.25 96.2668 312.383 91.9085C309.318 84.7516 303.699 78.9826 298.599 73.0871C294.801 68.7016 290.192 65.4961 286.016 61.5718C281.467 57.2948 279.072 51.3179 275.005 46.625C271.371 42.4294 266.9 39.0882 263.443 34.7118C259.568 29.8109 256.972 24.2047 252.692 19.6926C251.33 18.2459 249.809 17.1608 248.325 16.0034Z" fill="#E65271"/>
<path d="M280.215 11.3192C290.379 11.2875 296.759 16.1206 305.17 20.7412C312.142 24.5887 320.707 24.6249 326.595 29.9236C334.414 36.972 337.798 43.9572 339.269 54.2743C340.949 66.0202 341.149 80.9942 338.913 92.6994C337.766 98.7034 333.467 111.01 328.936 115.4L323.499 111.964C312.775 84.4709 280.452 73.1907 268.22 46.168C264.614 38.2153 263.257 27.8801 263.17 19.1905C263.074 10.094 272.81 11.3418 280.215 11.3192Z" fill="url(#paint6_linear_327_36)"/>
<path d="M179.079 80.022C173.169 70.9029 163.811 64.1981 152.818 61.7612C150.022 61.1418 145.012 59.4147 149.972 53.4875C155.277 45.2681 162.9 42.1124 167.003 39.0923C183.501 26.9305 176.68 25.6872 186.306 24.584C190.068 24.15 189.075 23.8245 190.983 24.584C192.891 25.3436 189.517 24.0505 188.31 23.2593C177.572 16.2019 178.346 30.2806 182.964 27.2379C196.707 16.6856 228.365 9.28001 237.241 10.7901C238.534 11.0071 247.455 16.125 248.821 16.1024C250.729 16.0707 243.68 7.26811 245.706 7.26811C249.126 7.26811 253.958 10.7765 257.305 11.0342C264.231 11.5632 285.292 21.1525 285.142 46.3984C285.097 54.1115 285.575 59.5187 284.527 64.5507C276.85 101.479 199.103 49.6536 179.079 80.022Z" fill="#F6E8A0"/>
<path d="M272.141 57.2583C268.539 52.7914 245.123 44.7393 245.123 44.7393C245.123 44.7393 206.234 31.4337 170.373 69.3252C188.702 54.8802 220.911 60.9385 244.203 63.606C247.282 63.9631 237.55 60.8797 240.1 59.9439C248.753 56.7655 256.763 65.6721 265.388 63.9541C269.409 63.1539 271.827 60.9882 272.141 57.2583Z" fill="white"/>
<path d="M242.314 51.0059C228.033 47.2714 213.757 52.7375 211.006 52.9048C212.299 50.9743 214.408 46.5209 224.986 44.9838C227.418 44.6266 232.291 45.0154 234.845 45.0109C239.417 45.0018 242.254 46.096 246.289 48.0265C248.862 49.2562 255.082 50.5674 257.059 50.2599C257.059 50.2599 278.944 51.8966 271.695 59.266C264.454 66.6309 253.88 49.7671 230.683 55.1608C230.688 54.4103 235.988 50.6532 242.314 51.0059Z" fill="#F6E8A0"/>
<path d="M220.665 20.4479C211.639 14.5162 195.86 19.6024 193.811 19.5753C193.765 19.3673 193.888 19.1367 194.257 18.9062C208.005 8.35387 228.374 9.29426 237.25 10.8043C237.318 10.8134 237.414 10.845 237.514 10.8812C237.555 10.8947 237.619 10.9173 237.673 10.9399C239.595 11.6724 245.875 15.1853 248.161 15.9584C261.54 23.486 282.678 39.3823 284.541 64.5649C276.941 61.2103 271.476 57.9415 267.277 54.7586C265.866 53.6871 233.889 20.5066 149.257 60.3739C149.257 60.3739 146.902 59.0899 148.246 56.0878C167.358 25.5974 202.254 16.84 257.824 45.7164C249.946 36.3939 246.125 27.9439 220.665 20.4479Z" fill="#F8D285"/>
<path d="M274.764 191.812C306.112 159.987 318.886 136.211 303.712 110.608C279.14 69.1128 203.465 112.394 170.555 70.528C174.043 74.4839 181.457 82.319 188.629 86.171C213.024 101.995 258.939 96.9042 273.571 109.138C292.392 124.872 297.201 156.597 274.764 191.812Z" fill="url(#paint7_linear_327_36)"/>
<path d="M172.645 125.297C172.609 127.431 177.527 139.742 176.757 142.577C170.154 166.778 141.538 178.651 141.538 178.651C141.538 178.651 109.493 191.454 104.402 249.976C98.5547 254.153 99.3652 245.26 99.5474 241.309C103.186 164.558 167.499 173.139 172.645 125.297Z" fill="url(#paint8_linear_327_36)"/>
<path d="M281.672 252.119C281.144 251.879 280.638 251.563 280.087 251.405C277.278 250.627 274.45 249.913 271.636 249.117C270.748 248.868 269.901 248.466 269.031 248.136C269.035 247.946 269.044 247.761 269.049 247.575C270.06 247.394 271.057 247.078 272.068 247.064C276.107 247.019 280.151 247.073 284.195 247.082C289.901 247.096 295.634 247.069 301.14 245.414C303.826 244.6 306.445 243.38 308.908 242.019C334.924 227.642 353.308 206.6 364.369 179.198C366.632 173.596 368.367 167.805 369.706 161.927C369.788 161.602 369.825 161.263 369.925 160.697C369.492 160.96 369.214 161.086 368.955 161.253C353.035 172.082 335.648 179.424 316.673 182.991C309.892 184.261 303.039 184.899 296.14 185.098C295.62 185.111 294.965 185.306 294.623 185.658C284.304 196.107 272.118 203.829 258.967 210.249C248.479 215.371 237.4 218.473 226.011 220.67C211.407 223.487 196.766 226.163 182.158 228.953C164.22 232.375 146.374 236.177 129.033 242.001C118.036 245.69 107.375 250.125 97.6302 256.477C90.294 261.27 83.7639 266.93 79.1463 274.467C77.5252 277.125 76.3731 280.068 74.9796 282.867C74.7246 283.369 74.4514 283.893 74.0597 284.278C64.3875 293.668 60.5805 305.093 62.065 318.349C63.167 328.155 66.7008 337.125 71.751 345.566C72.3475 346.556 72.853 347.587 73.3175 348.459C73.5588 346.321 73.7501 343.925 74.087 341.551C76.2228 326.446 84.0599 315.198 97.3889 307.683C105.144 303.298 113.496 300.4 122.152 298.501C131.643 296.421 141.215 294.672 150.782 292.949C162.399 290.865 174.079 289.124 185.373 285.589C187.568 284.906 189.74 284.115 191.894 283.301C194.672 282.266 197.267 280.932 199.685 279.151C207.691 273.296 216.462 268.811 225.71 265.221C225.961 265.126 226.207 265.018 226.453 264.923C226.466 264.887 226.471 264.837 226.507 264.733C226.357 264.719 226.225 264.701 226.088 264.701C215.742 264.71 205.382 264.765 195.036 264.71C185.783 264.651 176.557 264.936 167.376 266.134C154.667 267.807 142.367 271.076 130.39 275.602C116.26 280.955 102.885 287.804 89.9206 295.49C89.5745 295.698 89.2148 295.897 88.7503 295.978C88.9916 295.784 89.2193 295.567 89.4561 295.386C103.65 284.703 118.764 275.579 135.436 269.182C147.044 264.737 159.029 261.817 171.415 260.515C182.326 259.371 193.242 259.479 204.162 260.266C213.606 260.949 223.046 261.631 232.496 262.273C233.315 262.341 234.194 262.224 234.987 261.993C244.326 259.172 253.885 257.513 263.534 256.152C269.231 255.342 274.855 253.986 280.502 252.869C280.889 252.793 281.253 252.594 281.617 252.444C281.636 252.34 281.654 252.232 281.672 252.119Z" fill="url(#paint9_linear_327_36)"/>
<path opacity="0.2" d="M107.79 283.735C144.785 239.857 240.77 262.856 281.672 252.123C255.775 266.894 234.709 264.339 234.709 264.339C234.709 264.339 146.324 254.651 107.79 283.735Z" fill="white"/>
<path d="M390.658 117.227C389.406 117.439 388.481 117.498 387.634 117.769C384.301 118.805 380.827 119.573 377.703 121.065C374.729 122.489 371.974 124.51 369.396 126.59C364.401 130.623 359.633 134.913 354.706 138.996C350.671 142.337 346.386 145.325 341.286 146.876C339.642 147.373 337.934 147.658 336.213 147.939C342.861 144.616 346.582 138.693 350.439 132.617C350.111 132.675 349.993 132.662 349.906 132.702C339.769 137.626 329.838 142.884 320.817 149.697C318.408 151.519 316.509 153.59 315.152 156.416C312.984 160.91 310.238 165.137 307.743 169.468C307.633 169.663 307.515 169.852 307.21 170.372C309.396 169.916 311.308 169.613 313.184 169.138C321.126 167.122 328.512 163.708 335.762 160.001C347.087 154.182 357.862 147.455 368.326 140.235C368.641 140.018 368.964 139.81 369.383 139.683C369.287 139.814 369.21 139.959 369.096 140.067C356.687 152.351 342.77 162.47 326.504 169.174C319.469 172.086 312.178 174.025 304.587 174.808C304.304 174.848 303.936 174.934 303.776 175.129C302.087 177.159 300.438 179.211 298.571 181.503C303.198 180.518 307.556 179.654 311.887 178.655C324 175.861 335.876 172.312 347.219 167.194C355.598 163.414 363.581 158.97 370.307 152.65C379.178 144.304 385.708 134.43 389.515 122.864C390.075 121.169 390.248 119.324 390.658 117.227Z" fill="#E65271"/>
<path opacity="0.6" d="M181.097 228.907C184.69 227.709 188.784 226.226 193.151 224.562C244.636 208.621 261.649 195.333 261.649 195.333L313.367 157.32C313.367 157.32 321.818 163.744 332.757 155.344C325.302 164.228 302.428 171.141 302.428 171.141C302.428 171.141 301.372 178.13 293.913 183.56C314.268 176.693 348.463 178.659 372.188 157.451C354.246 207.834 309.687 169.427 266.622 200.763C261.649 203.724 195.965 220.394 228.607 219.25C261.244 218.111 282.751 240.223 310.015 232.976C284.423 242.19 261.808 227.424 226.161 224.942C231.708 226.045 239.308 229.079 242.546 233.225C229.622 224.065 204.33 223.644 198.324 225.738C192.864 226.425 187.131 227.456 181.097 228.907Z" fill="#8B4FBA"/>
<path opacity="0.2" d="M304.587 244.446C267.077 259.239 134.502 216.388 74.9796 282.867C74.9796 282.867 70.5214 280.886 94.224 254.506C187.431 210.271 256.799 252.1 304.587 244.446Z" fill="#2B2B2B"/>
<path opacity="0.7" d="M362.584 185.518C373.682 179.32 364.665 194.47 353.572 203.417C309.883 233.709 290.124 199.24 246.794 215.828C313.093 179.546 319.587 224.762 362.584 185.518Z" fill="url(#paint10_radial_327_36)"/>
<path opacity="0.2" d="M359.191 194.117C370.294 187.919 364.665 194.47 353.572 203.422C309.883 233.713 290.124 199.244 246.794 215.832C289.45 192.268 316.199 233.356 359.191 194.117Z" fill="#8B4FBA"/>
<path opacity="0.7" d="M143.496 177.873C123.286 196.238 139.134 236.453 139.134 236.453L124.748 239.514C124.748 239.514 110.231 200.637 143.496 177.873Z" fill="url(#paint11_radial_327_36)"/>
<path opacity="0.7" d="M178.378 147.066C193.611 173.981 153.214 211.004 174.908 224.111C174.562 225.878 162.504 231.883 163.068 230.146C136.297 189.361 180.45 179.636 174.653 154.137C143.692 196.071 143.359 204.371 158.401 230.92C158.214 231.064 156.561 233.207 154.917 231.986C131.397 214.476 124.775 194.805 178.378 147.066Z" fill="url(#paint12_radial_327_36)"/>
<path opacity="0.2" d="M228.156 201.763C229.121 214.368 237.987 193.892 239.331 179.759C240.487 126.871 186.475 139.661 184.007 96.873C178.752 145.547 237.2 144.48 228.156 201.763Z" fill="#8B4FBA"/>
<path opacity="0.3" d="M280.525 180.785C281.481 193.39 306.973 160.946 308.321 146.818C299.769 56.0742 205.696 111.264 181.101 77.8344C201.416 114.451 332.907 63.5024 280.525 180.785Z" fill="white"/>
<path d="M452.649 357.474C451.269 358.677 450.135 359.771 448.888 360.72C447.886 361.475 446.788 362.144 445.659 362.7C442.909 364.021 440.14 364.192 437.357 362.728C433.027 360.449 428.382 360.277 423.641 360.792C422.262 360.937 421.36 361.588 420.727 362.868C415.977 372.57 408.063 378.8 398.149 382.743C397.015 383.195 396.483 383.719 396.282 384.944C395.777 388.032 395.567 391.07 396.305 394.149C397.503 399.073 400.59 402.604 404.743 405.321C409.097 408.169 413.946 409.847 418.96 411.094C424.985 412.573 431.082 413.572 437.307 413.554C440.472 413.549 443.601 413.183 446.643 412.27C453.441 410.231 457.636 405.723 459.179 398.91C460.177 394.484 461.119 390.012 461.575 385.514C462.617 375.201 459.835 365.947 452.972 358.007C452.849 357.854 452.767 357.668 452.649 357.474Z" fill="url(#paint13_linear_327_36)"/>
<path opacity="0.3" d="M433.004 358.239C433.519 361.336 439.375 362.177 442.093 362.086C446.879 361.928 449.976 359.157 453.086 355.558C453.587 354.97 453.979 354.391 454.32 353.799C459.739 358.09 462.768 363.899 461.934 369.826C460.459 380.27 447.503 387.083 433.009 385.063C422.986 383.661 414.848 378.394 411.278 371.825C413.928 368.461 414.966 364.189 418.459 361.277C421.861 358.456 428.582 358.049 433.004 358.239Z" fill="#F6E8A0"/>
<path d="M80.5398 260.035C83.6774 261.572 85.8632 261.907 87.8076 261.211C85.5717 249.908 84.4014 238.51 84.7976 227.04C85.2439 214.345 87.457 201.984 93.0673 190.41C93.7777 188.941 94.6019 187.517 95.5673 186.16C95.5081 186.386 95.4717 186.617 95.3852 186.825C92.366 194.352 90.9725 202.21 90.5126 210.276C89.7977 222.845 91.2868 235.214 94.0236 247.462C94.0873 247.76 94.1784 248.05 94.3014 248.484C96.091 247.29 97.8351 246.151 99.5337 244.953C99.7386 244.804 99.7432 244.257 99.6976 243.908C98.8279 236.471 98.8916 229.038 99.6976 221.601C100.854 210.977 103.495 200.736 107.261 190.763C112.512 176.838 119.621 163.907 128.309 151.822C128.51 151.542 128.714 151.262 128.906 150.977C128.947 150.914 128.942 150.837 129.001 150.606C127.735 151.049 126.551 151.452 125.367 151.877C117.371 154.752 109.538 157.998 101.997 161.922C100.818 162.528 99.6794 163.292 98.6821 164.165C88.0672 173.497 81.8103 185.297 78.9824 198.982C78.5589 201.017 78.2583 203.087 77.6891 205.131C77.8166 202.861 77.8758 200.583 78.0762 198.313C79.0234 187.512 81.0589 176.91 84.7247 166.679C85.6583 164.079 85.0071 161.733 84.6109 159.291C84.4879 158.532 83.946 157.835 83.5908 157.107C83.0034 157.673 82.2793 158.147 81.8558 158.816C78.8412 163.577 76.9013 168.804 75.3075 174.166C72.8712 182.367 71.4185 190.803 70.2209 199.276C69.1097 207.188 68.3994 215.145 68.4358 223.143C68.4768 231.231 69.1006 239.247 71.8101 246.969C73.0989 250.64 74.8339 254.081 77.3339 257.088C78.2265 258.164 79.3239 259.081 80.3212 260.076C80.3986 260.058 80.4669 260.049 80.5398 260.035Z" fill="url(#paint14_linear_327_36)"/>
<path opacity="0.2" d="M117.471 150.895C117.471 150.895 97.2249 153.721 88.6865 167.547C80.1436 181.363 77.6891 205.126 77.6891 205.126C77.6891 205.126 73.3175 240.567 87.8077 261.206C78.6272 185.523 117.471 150.895 117.471 150.895Z" fill="#2B2B2B"/>
<path d="M70.3964 260.035C70.3235 260.049 70.2552 260.058 70.1823 260.067C66.0065 258.448 62.7414 255.659 60.0775 252.155C56.1931 247.046 54.1484 241.137 52.8916 234.956C51.0199 225.742 50.8606 216.429 51.6575 207.111C52.1129 201.79 52.9007 196.486 53.5473 191.192C53.5701 191.002 53.5746 190.817 53.5928 190.433C53.265 190.713 53.0327 190.871 52.846 191.065C37.3586 207.002 25.719 225.354 18.096 246.182C17.8956 246.725 17.9594 247.457 18.1324 248.027C22.6816 262.468 29.2664 275.981 37.3312 288.776C40.7375 294.174 44.4943 299.355 48.0964 304.631C48.3787 305.047 48.7066 305.423 49.2257 306.092C49.3533 303.438 50.7786 301.29 49.6811 298.691C48.274 295.377 47.3678 291.891 47.5545 288.22C47.6274 286.863 47.9552 285.598 48.9024 284.341C49.8451 286.999 50.5737 289.617 52.673 291.62C53.2877 290.53 53.4107 289.581 53.0236 288.414C51.5618 284.083 50.5464 279.657 50.8241 275.05C50.9107 273.639 51.234 272.251 51.6211 270.832C52.8916 274.29 54.9909 277.12 57.418 279.838C57.5592 279.63 57.6867 279.494 57.7641 279.331C61.0019 272.685 65.1504 266.65 70.0913 261.143C70.3144 260.881 70.3008 260.406 70.3964 260.035Z" fill="url(#paint15_linear_327_36)"/>
<path opacity="0.2" d="M54.7313 277.758C54.7313 277.758 31.9623 233.519 42.6182 195.528C43.9434 194.488 40.4825 197.169 36.3613 201.875C35.7329 202.59 28.0961 252.756 43.5927 274.873C22.7636 250.342 32.6272 206.51 31.7483 207.789C29.8858 210.52 28.2145 213.535 27.1125 216.687C16.4612 266.22 53.2741 296.032 53.2741 296.032L54.7313 277.758Z" fill="#2B2B2B"/>
<path d="M413.313 437.033C412.371 438.452 411.282 439.881 410.417 441.454C409.62 442.883 409.461 444.511 409.989 446.12C410.64 448.109 411.984 448.873 414.065 448.584C415.736 448.331 417.412 448.078 419.092 448.023C420.877 447.965 421.005 448.204 421.205 449.927C421.255 450.383 421.314 450.854 421.483 451.27C422.157 452.974 423.154 454.443 425.149 454.706C427.084 454.959 428.446 453.883 429.493 452.404C432.612 448.019 430.026 442.092 424.607 441.377C422.926 441.156 421.173 441.427 419.452 441.472C419.119 441.486 418.792 441.545 418.459 441.572C418.377 441.477 418.295 441.368 418.209 441.273C418.673 440.735 419.033 440.021 419.616 439.682C420.854 438.99 422.175 438.705 423.696 438.877C432.972 439.931 441.82 438.841 449.689 433.321C454.056 430.251 457.28 426.223 459.748 421.548C459.762 421.516 459.794 421.484 459.808 421.453C460.117 420.603 460.75 419.568 459.908 418.921C459.416 418.541 458.296 418.709 457.554 418.948C454.088 420.078 450.723 421.512 447.216 422.461C442.089 423.854 436.779 423.899 431.506 423.614C424.379 423.234 417.375 422.108 410.645 419.599C403.099 416.787 396.291 412.817 390.385 407.351C389.706 406.719 389.019 406.099 388.258 405.588C386.97 404.738 386.091 405.159 386.041 406.705C386.004 407.799 386.113 408.925 386.364 410.001C388.887 420.928 395.567 428.614 405.435 433.692C408.017 435.034 410.795 435.979 413.313 437.033Z" fill="#E65270"/>
<path d="M11.2881 233.632C10.8919 273.061 23.6653 307.276 50.2595 336.329C49.8861 333.653 49.3897 330.976 49.162 328.304C48.7841 323.742 48.5427 319.167 48.3196 314.583C48.274 313.651 48.0372 312.914 47.509 312.168C37.5498 297.904 28.4149 283.147 21.1288 267.328C17.4311 259.303 14.2708 251.061 12.5768 242.362C12.0258 239.55 11.7298 236.697 11.2881 233.632Z" fill="url(#paint16_linear_327_36)"/>
<path d="M346.222 103.98C350.986 95.8013 355.899 87.93 357.643 78.6572C357.935 77.1064 357.844 75.4562 357.748 73.8558C357.229 64.913 358.162 56.1827 361.081 47.6649C361.341 46.9099 361.655 46.1142 361.637 45.3456C361.623 44.7081 361.291 43.9711 360.863 43.4693C360.316 42.8318 359.574 43.0579 358.873 43.4557C356.628 44.7171 354.997 46.5708 353.69 48.7274C351.031 53.0631 349.615 57.8646 348.627 62.77C345.917 76.2203 345.507 89.8198 346.04 103.492C346.045 103.564 346.09 103.627 346.222 103.98Z" fill="url(#paint17_linear_327_36)"/>
<path opacity="0.4" d="M349.027 51.8785C349.893 50.0519 353.454 46.0553 354.884 44.9024L358.103 42.8634C354.87 51.0556 353.709 59.3926 353.709 68.1183C353.709 75.4697 355.99 82.2966 356.35 89.6117C356.641 95.6384 353.996 98.6675 350.844 103.573C349.424 105.779 347.484 110.558 344.396 110.576C342.966 107.09 343.198 102.723 343.162 98.9931C343.121 94.5307 342.402 90.1769 342.579 85.6693C342.916 77.1606 347.543 55.0161 349.027 51.8785Z" fill="#8B4FBA"/>
<path d="M459.876 404.277C459.739 404.385 459.694 404.403 459.68 404.43C456.178 411.578 449.953 414.698 442.43 415.326C430.003 416.375 418.081 414.065 406.77 408.902C402.002 406.723 397.922 403.558 395.626 398.693C394.634 396.591 394.151 394.249 393.409 391.939C390.941 391.925 388.003 394.348 387.808 396.962C387.744 397.812 388.104 398.761 388.491 399.557C390.053 402.762 392.562 405.19 395.299 407.387C402.334 413.025 410.39 416.583 419.124 418.681C430.595 421.439 442.066 421.52 453.414 418.107C456.101 417.298 458.646 415.941 461.142 414.621C463.073 413.595 464.056 411.841 463.769 409.557C463.46 407.098 462.176 405.335 459.876 404.277Z" fill="#E65270"/>
<path opacity="0.4" d="M459.876 404.277C459.739 404.385 459.694 404.403 459.68 404.43C456.178 411.578 449.953 414.698 442.43 415.326C430.003 416.375 418.081 414.065 406.77 408.902C402.002 406.723 397.922 403.558 395.626 398.693C394.634 396.591 394.151 394.249 393.409 391.939C390.941 391.925 388.003 394.348 387.808 396.962C387.744 397.812 388.104 398.761 388.491 399.557C390.053 402.762 392.562 405.19 395.299 407.387C402.334 413.025 410.39 416.583 419.124 418.681C430.595 421.439 442.066 421.52 453.414 418.107C456.101 417.298 458.646 415.941 461.142 414.621C463.073 413.595 464.056 411.841 463.769 409.557C463.46 407.098 462.176 405.335 459.876 404.277Z" fill="#2B2B2B"/>
<path d="M335.097 290.838C335.011 295.255 335.94 299.41 337.857 303.352C341.737 311.269 348.135 316.446 356.149 319.841C363.14 322.807 370.476 323.815 378.035 323.426C378.131 323.422 378.226 323.381 378.55 323.281C373.263 322.472 368.34 321.166 363.586 319.28C355.343 316.012 348.076 311.364 342.433 304.433C339.405 300.726 337.124 296.598 335.566 292.068C335.43 291.652 335.257 291.245 335.097 290.838Z" fill="#0D0D0D"/>
<path d="M396.829 227.628C404.966 222.695 406.724 211.108 401.51 204.484C402.735 212.758 401.05 220.444 396.829 227.628Z" fill="#0D0D0D"/>
<path d="M410.249 273.101C414.229 276.339 419.015 277.234 424.01 277.148C426.005 277.098 427.99 276.773 429.985 276.678C431.064 276.628 432.193 276.696 433.254 276.926C435.267 277.383 436.164 277.075 436.852 275.158C438.409 270.787 439.142 266.256 438.619 261.64C438.364 259.425 437.899 257.155 437.016 255.125C433.541 247.064 423.022 243.75 415.23 248.154C414.229 248.719 413.281 249.379 412.384 250.111C411.437 250.876 410.581 251.762 409.597 252.675C410.035 253.177 410.399 253.661 410.809 254.081C411.751 255.04 412.107 256.174 411.82 257.449C410.927 261.455 412.671 264.299 416.037 266.121C418.441 267.423 421.073 268.359 423.691 269.227C425.039 269.683 426.428 270.009 427.84 270.289C428.273 270.276 428.455 270.203 428.792 269.937C430.891 268.589 432.394 266.822 433.323 264.507C433.824 265.872 433.723 268.142 433.282 269.828C433.009 270.868 433.186 273.418 433.719 274.159C433.678 274.205 433.637 274.254 433.61 274.295C433.359 274.177 433.113 274.051 432.876 273.911C430.181 272.27 427.166 271.75 424.092 271.37C420.29 270.891 416.592 270.027 413.354 267.852C409.456 265.235 407.366 261.595 407.143 256.916C407.134 256.771 407.111 256.635 407.061 256.251C403.536 263.092 404.616 268.512 410.249 273.101Z" fill="#0D0D0D"/>
<path d="M415.408 258.376C415.408 262.63 418.883 266.08 423.159 266.08C427.448 266.08 430.923 262.63 430.923 258.376C430.923 254.121 427.448 250.672 423.159 250.672C418.883 250.672 415.408 254.121 415.408 258.376Z" fill="url(#paint18_linear_327_36)"/>
<g clip-path="url(#clip0_327_36)">
<path d="M417.957 257.092C418.126 257.092 418.294 257.046 418.443 256.954L420.275 255.817C420.543 255.65 420.706 255.359 420.706 255.046V252.771C420.706 252.458 420.543 252.166 420.275 252L418.443 250.863C418.294 250.771 418.126 250.725 417.957 250.725C417.789 250.725 417.62 250.771 417.472 250.863L415.639 252C415.372 252.166 415.209 252.458 415.209 252.771V255.046C415.209 255.359 415.372 255.65 415.639 255.817L417.472 256.954C417.62 257.046 417.789 257.092 417.957 257.092Z" fill="white"/>
</g>
<path d="M450.094 388.182C451.47 389.032 453.614 388.67 454.411 387.169C457.717 380.921 457.417 373.642 454.179 367.43C452.321 363.867 446.756 366.743 448.61 370.292C450.818 374.537 451.269 379.755 449.07 383.919C448.282 385.411 448.564 387.246 450.094 388.182Z" fill="white"/>
<path opacity="0.2" d="M113.181 406.171C111.223 350.476 145.809 368.592 161.197 345.077C162.454 343.613 163.187 341.967 163.761 340.692C146.488 350.132 98.0765 343.825 113.181 406.171Z" fill="#430A1D"/>
<path opacity="0.2" d="M86.8422 297.592C134.343 256.992 228.124 261.423 234.986 261.997C195.651 289.852 77.6436 263.666 73.3174 348.45C65.6534 324.371 75.5215 307.272 86.8422 297.592Z" fill="#2B2B2B"/>
<path opacity="0.2" d="M162.768 342.903C162.768 342.903 162.763 355.209 162.768 363.903C162.772 372.593 151.766 367.855 147.522 355.924C158.127 351.796 162.768 342.903 162.768 342.903Z" fill="#430A1D"/>
<path opacity="0.2" d="M156.884 347.031C164.84 333.092 156.666 321.034 155.395 320.519C159.917 320.284 168.601 311.866 170.669 309.062C173.902 304.672 174.098 298.298 174.371 293.085C180.787 292.8 185.3 288.898 191.138 287.515C186.174 292.131 179.439 297.592 176.425 303.813C173.742 309.338 171.475 315.699 169.671 321.577C168.2 326.392 166.83 331.175 165.919 336.144C165.245 339.842 163.046 344.82 163.446 348.423C163.446 348.423 162.627 380.844 169.175 396.854C156.78 392.662 150.272 382.616 148.013 378.728C145.459 374.329 140.645 363.393 146.606 356.426C150.459 355.029 154.676 350.896 156.884 347.031Z" fill="#430A1D"/>
<path d="M40.7396 389.145C65.7035 423.293 99.092 445.238 140.591 454.773C154.416 457.952 168.474 458.824 182.654 458.77C217.345 458.621 252.031 458.707 286.718 458.702C310.051 458.693 333.385 458.702 356.714 458.643C362.265 458.634 367.803 458.268 373.112 456.432C378.322 454.642 382.343 451.473 384.579 446.341C387.789 438.931 385.048 429.609 378.126 424.586C373.044 420.906 367.215 419.834 361.072 420.105C359.424 420.187 357.775 420.44 356.131 420.607C355.753 420.648 355.348 420.734 354.988 420.652C354.46 420.539 353.959 420.277 353.449 420.087C353.741 419.662 353.95 419.147 354.333 418.835C360.676 413.477 365.043 406.876 367.133 398.865C367.894 395.949 368.117 392.988 367.844 389.999C367.825 389.764 367.807 389.533 367.798 389.312C367.739 387.766 368.267 387.286 369.806 387.214C374.342 387.006 378.878 386.83 383.399 386.477C385.562 386.305 387.698 385.781 390.134 385.627C389.848 385.998 389.638 386.545 389.26 386.717C385.644 388.376 383.281 391.143 382.097 394.832C380.708 399.177 379.734 403.617 379.934 408.224C380.244 415.666 383.158 422.067 387.903 427.714C392.17 432.778 397.425 436.589 403.368 439.483C404.133 439.854 404.333 440.179 404.069 441.038C403.309 443.47 403.4 445.93 404.265 448.362C404.789 449.845 405.75 450.921 407.12 451.685C410.244 453.412 413.842 453.661 417.248 452.241C417.343 452.725 417.425 453.272 417.548 453.742C418.532 457.45 420.941 458.924 424.579 461.094C425.426 461.094 426.273 461.094 427.12 461.094C427.225 461.094 427.321 460.827 427.426 460.809C433.833 459.737 436.524 453.923 435.782 448.417C435.591 446.997 435.176 445.6 434.898 444.32C437.799 443.561 440.791 442.973 443.646 441.983C456.829 437.426 465.532 428.591 469.22 415.137C470.691 409.752 469.78 404.928 465.573 400.931C465.309 400.669 465.286 400.036 465.35 399.607C466.165 394.52 467.431 389.47 467.763 384.352C468.551 372.209 464.708 361.561 456.206 352.686C455.705 352.166 455.673 351.723 455.805 351.086C456.365 348.364 457.007 345.647 457.344 342.894C458.041 337.337 455.905 332.735 452.176 328.724C451.848 328.367 451.479 327.983 451.324 327.54C450.281 324.452 448.127 322.35 445.281 320.93C439.543 318.059 433.459 317.476 427.189 318.511C423.081 319.194 419.333 320.912 415.622 322.657C413.983 323.426 412.485 323.81 410.968 322.494C410.713 322.273 410.308 322.219 410.066 322.011C409.648 321.617 408.942 321.07 409.024 320.74C409.133 320.234 409.734 319.66 410.262 319.452C413.149 318.321 416.132 317.711 419.261 317.711C421.606 317.711 423.965 317.648 426.287 317.372C433.696 316.481 440.49 313.827 446.87 310.048C447.294 309.794 447.767 309.577 448.246 309.501C456.492 308.248 463.118 301.815 464.557 293.668C464.703 292.845 464.685 291.9 465.113 291.244C468.606 285.882 468.892 280.186 466.871 274.331C465.591 270.628 463.815 267.079 462.408 263.421C461.661 261.455 460.891 259.429 460.7 257.386C460.19 251.585 459.416 245.839 457.85 240.237C454.503 228.274 448.537 217.907 438.96 209.774C429.293 201.568 417.958 197.246 405.403 195.921C404.297 195.808 403.714 195.455 403.227 194.37C400.485 188.199 395.977 183.863 389.488 181.612C387.803 181.028 386.123 180.897 384.538 181.607C382.279 182.642 379.98 183.673 377.953 185.093C372.652 188.764 368.458 193.534 364.975 198.928C364.706 199.334 364.401 199.868 363.996 200.004C363.449 200.18 362.643 200.243 362.224 199.954C361.901 199.737 361.828 198.86 361.956 198.349C362.101 197.748 362.566 197.214 362.93 196.685C372.156 183.438 378.026 168.867 380.726 152.984C380.817 152.487 381.173 151.949 381.551 151.573C383.814 149.281 386.159 147.07 388.404 144.76C392.002 141.075 394.206 136.617 395.38 131.662C395.686 130.365 395.831 129.031 395.922 127.706C395.95 127.304 395.554 126.879 395.353 126.463C394.921 126.712 394.356 126.861 394.092 127.218C393.477 128.05 393.044 129.004 392.48 129.863C392.106 130.433 391.619 130.916 391.177 131.463C391.041 131.142 391.073 130.962 391.141 130.794C393.559 124.691 395.235 118.402 396.045 111.882C396.273 110.069 396.428 108.229 396.473 106.403C396.51 105.074 395.622 104.233 394.725 104.59C394.247 104.784 393.832 105.182 393.463 105.548C389.875 109.075 385.644 111.693 381.309 114.17C381.214 114.039 381.141 113.98 381.136 113.912C381.018 113.27 380.899 112.637 380.804 111.995C379.643 104.468 377.643 97.1481 375.335 89.8872C373.568 84.3443 372.57 78.6793 373.545 72.838C374.128 69.3613 375.371 66.2056 378.345 63.9902C378.572 63.8229 378.723 63.5562 378.982 63.2578C378.636 63.0815 378.422 62.9097 378.181 62.8599C373.882 61.9195 369.442 62.4711 367.033 67.3675C366.76 67.9146 366.396 68.4073 365.895 69.2302C365.353 68.1542 364.815 67.4489 364.642 66.6803C363.786 62.8192 363.577 58.8904 363.941 54.9435C364.401 50.0697 366.136 45.6073 368.272 41.258C368.823 40.1277 369.346 38.9658 369.702 37.7722C370.335 35.6066 369.119 34.0061 366.837 34.0423C365.703 34.0649 364.51 34.2412 363.463 34.6346C357.843 36.7324 353.572 40.4171 350.73 45.6932C350.498 46.1227 350.289 46.5478 350.034 47.0631C347.78 44.8885 345.726 42.768 344.656 39.8655C343.968 38.0073 343.066 36.217 342.133 34.4763C341.459 33.2285 340.958 33.2556 340.138 34.3904C339.915 34.6978 339.719 35.0324 339.478 35.3263C338.85 36.0813 338.362 36.0858 337.866 35.2314C337.424 34.4809 337.092 33.6535 336.791 32.8442C335.325 28.9108 332.93 25.6466 329.633 23.0379C329.41 22.8706 329.155 22.7395 328.631 22.4185C328.822 23.6618 328.982 24.6248 329.109 25.5923C329.246 26.5825 329.359 27.5726 329.487 28.617C329.186 28.5808 329.1 28.5898 329.041 28.5536C328.717 28.3502 328.394 28.1378 328.08 27.9162C314.765 18.779 300.206 12.4314 284.468 8.72403C279.673 7.59375 274.646 7.19592 270.315 4.49228C270.219 4.42899 270.096 4.39731 269.992 4.3476C269.135 4.01303 268.507 4.19839 267.842 4.85846C267.419 5.27441 266.663 5.45978 266.062 5.45071C264.135 5.40552 262.218 4.98505 260.301 4.82681C258.543 4.68213 256.731 4.28427 255.037 3.86383C252.141 3.13593 249.322 0.337341 246.471 0.337341C245.779 0.337341 245.078 0.337341 244.39 0.337341C243.725 0.337341 242.937 2.23624 242.4 2.90082C241.457 4.07181 240.301 5.44171 238.821 5.53665C229.012 6.14249 219.317 7.55307 209.772 9.91763C195.236 13.4984 181.58 19.0548 169.348 27.7896C160.409 34.1779 152.74 41.7644 147.303 51.3808C146.192 53.3339 145.313 55.4317 144.434 57.4979C143.765 59.0893 143.605 60.7711 144.161 62.4395C144.625 63.8094 145.668 64.5689 147.071 64.3519C155.063 63.104 161.825 66.0021 168.064 70.5006C174.266 74.981 178.993 80.7229 181.689 87.9024C185.66 98.509 183.51 108.003 176.024 116.408C175.268 117.258 174.412 118.027 173.492 118.949C173.146 117.66 172.859 116.489 172.517 115.318C170.823 109.577 168.405 104.219 164.289 99.7432C161.898 97.1345 160.951 100.222 161.552 104.947C162.845 114.993 159.739 123.633 152.695 130.894C152.267 131.341 151.62 131.617 151.014 131.83C143.592 134.443 136.119 136.92 128.737 139.647C115.559 144.511 102.835 150.366 90.7767 157.573C90.6128 157.668 90.4398 157.758 90.2622 157.853C89.1191 157.121 88.6501 156.027 88.7002 154.806C88.764 153.178 89.0326 151.551 89.2239 149.928C89.2421 149.733 89.3058 149.552 89.3241 149.363C89.7157 146.492 88.5864 145.556 85.9224 146.84C84.5881 147.486 83.3631 148.558 82.4023 149.693C79.333 153.341 77.4295 157.663 75.6035 161.995C74.6381 164.282 73.873 166.651 72.8985 168.934C72.5433 169.771 71.9832 170.612 71.291 171.195C60.8492 180.011 51.1222 189.496 42.8753 200.42C35.8123 209.778 29.7831 219.729 24.8878 230.372C24.7648 230.652 24.6237 230.924 24.4871 231.195C24.4506 231.258 24.3778 231.29 24.2229 231.43C22.62 222.103 22.3012 212.816 23.2439 203.435C22.4925 206.22 21.6591 208.992 21.0034 211.799C18.3258 223.12 17.4924 234.581 18.2893 246.178C18.3303 246.766 18.18 247.398 17.9979 247.968C14.5233 258.81 12.1189 269.891 11.0989 281.216C7.53326 320.785 17.2192 356.963 40.7396 389.145ZM31.2722 267.328C38.5583 283.147 47.6932 297.904 57.6524 312.168C58.1761 312.919 58.4174 313.656 58.463 314.582C58.6861 319.167 58.9274 323.738 59.3054 328.304C59.5331 330.989 60.0295 333.666 60.4029 336.329C33.8087 307.276 21.0353 273.06 21.4314 233.632C21.8777 236.692 22.1692 239.55 22.7202 242.353C24.4142 251.061 27.5745 259.294 31.2722 267.328ZM129.001 150.597C128.942 150.827 128.947 150.904 128.906 150.967C128.714 151.248 128.51 151.528 128.309 151.813C119.621 163.898 112.512 176.833 107.261 190.753C103.495 200.727 100.854 210.976 99.6976 221.592C98.8916 229.029 98.8279 236.462 99.6976 243.899C99.7432 244.247 99.7386 244.794 99.5337 244.944C97.8351 246.151 96.0865 247.29 94.3014 248.475C94.183 248.045 94.0873 247.76 94.0236 247.453C91.2822 235.205 89.7931 222.844 90.5126 210.267C90.9771 202.21 92.366 194.348 95.3852 186.815C95.4717 186.598 95.5081 186.368 95.5673 186.151C94.6019 187.521 93.7777 188.931 93.0673 190.401C87.457 201.979 85.2393 214.336 84.7976 227.031C84.4014 238.496 85.5717 249.899 87.8076 261.201C85.8632 261.893 83.6819 261.563 80.5398 260.026C80.4442 260.401 80.4533 260.876 80.2347 261.129C75.2938 266.645 71.1453 272.681 67.9075 279.318C67.8256 279.485 67.7026 279.616 67.5615 279.824C65.1343 277.093 63.035 274.268 61.7645 270.818C61.3774 272.228 61.0541 273.621 60.9676 275.036C60.6898 279.652 61.7053 284.069 63.167 288.401C63.5541 289.567 63.4312 290.516 62.8164 291.606C60.7171 289.608 59.9885 286.985 59.0459 284.327C58.0987 285.584 57.7708 286.859 57.6979 288.206C57.5112 291.877 58.4174 295.363 59.8245 298.677C60.922 301.268 59.5012 303.424 59.3692 306.078C58.85 305.409 58.5176 305.038 58.2398 304.618C54.6378 299.342 50.8809 294.165 47.4746 288.762C39.4099 275.963 32.8251 262.463 28.2758 248.013C28.1028 247.444 28.039 246.711 28.2394 246.169C35.8625 225.349 47.4974 206.989 62.9894 191.052C63.1762 190.857 63.4084 190.699 63.7363 190.419C63.718 190.799 63.7135 190.988 63.6907 191.178C63.0441 196.482 62.2563 201.785 61.8009 207.097C61.004 216.42 61.1634 225.729 63.035 234.943C64.2918 241.123 66.341 247.028 70.2209 252.141C72.8848 255.64 76.1499 258.435 80.3303 260.053C79.3239 259.058 78.231 258.145 77.3385 257.065C74.8384 254.058 73.1034 250.613 71.8147 246.946C69.1006 239.229 68.4813 231.217 68.4403 223.12C68.3994 215.113 69.1097 207.17 70.2254 199.253C71.4231 190.78 72.8757 182.358 75.312 174.143C76.9059 168.781 78.8412 163.554 81.8604 158.794C82.2839 158.134 83.0079 157.65 83.5954 157.085C83.946 157.812 84.4879 158.509 84.6154 159.268C85.0162 161.714 85.6628 164.061 84.7293 166.656C81.0635 176.892 79.0279 187.485 78.0807 198.29C77.8804 200.56 77.8212 202.838 77.6937 205.108C78.2629 203.064 78.5634 200.994 78.9869 198.959C81.8148 185.274 88.0718 173.474 98.6867 164.142C99.684 163.27 100.822 162.505 102.002 161.9C109.543 157.984 117.375 154.729 125.372 151.854C126.551 151.442 127.731 151.035 129.001 150.597ZM361.641 45.3496C361.66 46.1182 361.345 46.9139 361.086 47.669C358.162 56.1868 357.229 64.9216 357.752 73.8598C357.848 75.4603 357.939 77.115 357.648 78.6613C355.904 87.9296 350.99 95.8053 346.227 103.984C346.095 103.631 346.049 103.568 346.049 103.514C345.521 89.8555 345.931 76.2425 348.636 62.7921C349.628 57.8777 351.04 53.0853 353.7 48.7495C355.006 46.5974 356.637 44.7438 358.882 43.4779C359.578 43.0846 360.321 42.8539 360.872 43.4914C361.291 43.9752 361.628 44.7122 361.641 45.3496ZM367.329 117.769C365.157 119.329 362.875 120.794 360.489 121.992C352.092 126.183 343.194 129.167 334.396 132.386C332.684 133.01 331.04 133.905 329.51 134.899C326.468 136.88 324.205 139.656 322.242 142.658C321.304 144.077 320.425 145.542 319.514 146.984C319.537 146.501 319.687 146.076 319.81 145.637C320.848 142.129 322.032 138.647 322.866 135.085C324.027 130.116 325.867 125.473 328.654 121.214C330.161 118.913 331.841 116.711 333.312 114.374C334.241 112.909 335.052 111.317 335.698 109.708C336.081 108.74 336.04 107.61 336.195 106.557C336.04 106.48 335.89 106.403 335.726 106.33C335.261 106.719 334.733 107.058 334.337 107.51C332.72 109.351 331.167 111.254 329.51 113.062C329.15 113.465 328.349 113.858 327.943 113.714C327.556 113.573 327.146 112.719 327.201 112.222C327.406 110.228 327.524 108.171 328.153 106.29C329.018 103.699 330.384 101.271 331.395 98.7079C331.891 97.4601 332.215 96.0766 332.329 94.7384C332.383 94.1054 331.764 93.4182 331.459 92.7626C330.917 93.1288 330.293 93.4227 329.847 93.8884C329.054 94.7157 328.421 95.6832 327.606 96.497C326.8 97.2882 326.053 97.1571 325.589 96.1489C325.257 95.4436 324.924 94.5756 325.033 93.8613C325.311 92.0664 325.803 90.3031 326.263 88.5309C326.691 86.9213 327.297 85.3299 327.629 83.7068C327.857 82.6082 327.574 81.5186 326.413 80.6912C326.09 81.1614 325.735 81.5638 325.525 82.0385C325.07 83.006 324.71 84.0188 324.287 84.9863C323.307 87.2198 322.447 89.53 321.29 91.673C320.27 93.5583 319.264 93.3911 318.166 91.56C316.044 87.9793 313.945 84.3714 311.572 80.9535C310.265 79.0772 309.505 77.1467 309.305 74.9494C309.04 72.0288 308.895 69.081 308.585 66.1558C308.467 65.0662 308.171 63.9314 306.968 62.9006C306.713 64.1349 306.499 65.1476 306.299 66.1649C305.999 67.6568 305.794 69.1759 305.379 70.6363C305.092 71.6671 304.259 71.7711 303.74 70.8533C303.271 70.0214 302.952 69.0267 302.884 68.0773C302.756 66.2869 302.92 64.4875 302.824 62.6927C302.788 61.8789 302.492 61.0605 302.182 60.2874C302.05 59.9574 301.609 59.7358 301.308 59.4646C301.108 59.7991 300.839 60.1066 300.725 60.4728C300.584 60.9023 300.57 61.368 300.502 61.8246C300.306 63.1448 300.197 64.4966 299.883 65.7806C299.55 67.1776 298.667 67.4127 297.793 66.2824C296.991 65.2471 296.358 64.0218 295.957 62.7831C295.343 60.8571 295.083 58.8407 294.496 56.8966C294.222 55.9878 293.594 55.1559 293.007 54.3828C292.788 54.1025 292.15 53.9217 291.8 54.0257C291.54 54.0935 291.285 54.6857 291.271 55.0565C291.24 56.5394 291.299 58.0313 291.322 59.5188C291.326 60.2557 291.322 60.9927 291.322 61.7884C290.994 61.7161 290.866 61.7206 290.784 61.6709C290.598 61.5443 290.411 61.3906 290.261 61.2233C288.721 59.6002 287.688 57.7149 287.364 55.4769C287.223 54.4868 287.173 53.4967 286.986 52.5246C286.759 51.3763 286.066 50.9377 284.892 51.0824C283.658 51.2271 282.874 52.1177 282.751 53.673C282.665 54.6857 282.733 55.6985 282.733 56.8649C281.331 56.1506 280.083 55.495 278.817 54.8756C265.875 48.5144 252.209 44.572 237.874 42.9082C228.616 41.8367 219.358 41.8096 210.177 43.6587C204.626 44.7755 199.339 46.5703 194.754 50.0199C194.08 50.5172 193.46 51.096 192.814 51.6385C197.923 48.7043 200.91 47.5062 205.519 46.6381C213.907 45.0377 222.304 45.2773 230.688 46.4844C245.437 48.6139 259.377 53.2299 272.478 60.3281C282.633 65.8258 291.804 72.5668 299.222 81.487C299.783 82.147 300.311 82.8388 300.834 83.5169C285.648 76.3148 268.493 89.8646 251.335 83.8515C274.85 95.8867 288.776 80.3838 302.037 90.4162C305.411 92.9661 306.012 99.5443 298.298 98.4412C290.939 97.3968 309.382 101.014 312.688 120.043C312.501 123.149 312.064 126.309 311.349 129.542C308.18 143.797 301.495 156.388 292.314 167.691C282.861 179.319 270.989 187.986 257.646 194.764C257.455 194.809 257.245 194.877 256.981 194.985C257.018 194.827 257.013 194.746 257.041 194.705C257.227 194.411 257.419 194.122 257.61 193.837C263.985 184.428 269.222 174.495 271.768 163.337C273.516 155.697 273.726 148.038 271.294 140.469C268.575 132.02 263.138 125.586 256.034 120.432C248.074 114.654 239.08 111.046 229.704 108.279C227.7 107.687 225.66 107.162 223.393 106.543C223.648 106.814 223.675 106.887 223.739 106.909C224.126 107.072 224.522 107.221 224.918 107.375C231.466 109.916 237.705 113.017 243.361 117.208C251.503 123.217 257.491 130.785 260.21 140.628C262.61 149.331 262.077 158.034 259.937 166.692C257.173 177.904 252.054 188.063 245.875 197.775C244.463 199.995 242.783 201.473 240.242 202.223C237.168 203.123 234.162 204.294 230.838 205.461C240.246 195.433 240.506 181.327 238.702 173.049C238.671 173.193 238.63 173.288 238.625 173.388C238.302 180.133 235.988 186.21 232.19 191.753C226.526 200.026 218.852 206.057 210.191 210.963C209.522 211.343 208.702 211.465 207.951 211.704C211.084 208.119 213.483 204.213 214.891 199.737C216.257 195.406 216.73 188.615 215.824 186.178C214.394 190.912 212.905 193.995 209.722 198.023C204.257 204.932 197.914 210.913 190.56 215.886C185.628 219.236 180.464 222.008 174.908 224.115C165.086 227.854 154.84 230.146 144.648 232.623C135.695 234.798 126.752 237.054 117.867 239.518C113.017 240.865 108.359 242.85 104.329 245.988C103.609 244.396 102.257 238.772 102.207 234.305C101.619 181.652 143.819 153.508 156.679 138.779C160.423 134.488 162.572 129.23 164.453 123.913C165.218 121.757 165.873 119.568 166.593 117.33C166.716 117.489 166.834 117.597 166.894 117.71C170.486 124.56 172.7 131.554 170.969 139.484C168.328 151.614 163.414 162.447 154.147 171.037C154.047 171.132 153.965 171.254 153.647 171.615C154.097 171.385 154.257 171.326 154.407 171.227C162.025 166.868 168.988 161.687 174.876 155.159C184.776 144.199 190.091 131.373 190.824 116.643C191.143 110.228 190.255 103.894 189.53 97.5595C187.609 80.7003 175.204 67.051 158.537 63.0227C157.285 62.7198 156.014 62.2903 154.881 61.698C153.282 60.8526 152.84 59.4691 153.446 57.7963C153.665 57.1949 153.988 56.6118 154.334 56.0692C157.294 51.5029 161.046 47.7278 165.669 44.8026C168.041 43.3061 170.414 41.8141 172.7 40.191C182.076 33.5359 192.167 28.3728 203.319 25.3347C207.923 24.0823 212.577 22.9746 217.413 23.3951C218.93 23.5172 220.405 24.0732 221.913 24.2496C222.536 24.3309 223.219 23.8924 223.88 23.6935C223.506 23.2911 223.21 22.7395 222.75 22.4818C219.841 20.818 216.621 20.3026 213.324 20.1941C208.474 20.0313 203.752 20.9446 199.034 21.8986C198.561 21.9935 198.06 21.9935 197.572 22.0342C201.439 18.7157 205.824 16.5727 210.574 15.1576C218.383 12.8021 226.366 12.2731 234.449 12.9467C237.036 13.1638 239.659 13.2677 242.045 14.6105C244.386 15.9216 246.845 17.0203 249.267 18.1867C249.791 18.4399 250.374 18.5665 250.934 18.7519C251.016 18.6569 251.098 18.5756 251.184 18.4806C250.929 17.8296 250.72 17.1605 250.397 16.5456C249.522 14.8456 248.57 13.1864 247.692 11.4865C247.532 11.1654 247.61 10.7043 247.587 10.3109C247.951 10.2928 248.361 10.1572 248.675 10.2657C250.533 10.8806 252.428 11.4232 254.194 12.246C256.722 13.4396 259.354 13.8465 262.109 14.0319C265.861 14.2896 269.623 14.6422 273.352 15.1712C278.826 15.9533 282.997 18.7564 285.702 23.6166C286.335 24.7514 287.009 25.8636 287.697 26.9713C287.943 27.3646 288.28 27.6992 288.576 28.0563C288.708 27.9976 288.853 27.9478 288.985 27.8755C288.134 24.982 287.282 22.093 286.385 19.0412C289.222 19.6832 292.173 21.6318 294.514 24.3671C295.698 25.7325 296.754 27.1928 297.925 28.5582C298.394 29.1007 299.027 29.4986 299.582 29.9688C299.737 29.8829 299.896 29.8151 300.056 29.7246C299.828 27.7896 299.596 25.8591 299.377 23.915C299.491 23.8743 299.614 23.8291 299.737 23.7975C301.499 24.8644 303.248 25.9631 305.015 27.0301C311.017 30.6198 316.641 34.6617 320.853 40.3583C321.431 41.145 321.864 41.032 322.169 40.078C322.547 38.8799 322.793 37.6411 323.207 36.4521C323.33 36.0904 323.836 35.5976 324.127 35.6157C324.532 35.6473 325.097 36.0452 325.234 36.4114C325.516 37.18 325.63 38.0254 325.685 38.8618C325.798 40.5346 325.757 42.2165 325.935 43.8802C325.99 44.3911 326.536 44.8659 326.864 45.3406C327.297 44.9608 327.889 44.6624 328.116 44.1832C328.786 42.8133 329.282 41.362 329.906 39.965C330.48 38.6719 330.821 38.6493 331.655 39.748C332.748 41.1992 333.977 42.3702 336.035 42.2255C337.948 42.0808 338.189 42.221 338.9 43.9888C340.116 47.0043 341.149 50.0787 342.397 53.0762C342.989 54.5049 343.895 55.807 344.61 57.1814C344.788 57.5069 344.943 57.9726 344.852 58.2936C342.32 66.409 341.618 74.7686 341.536 83.1959C341.459 90.9949 341.614 98.7938 341.345 106.579C341.14 112.669 340.111 118.61 335.534 123.303C336.167 123.104 336.768 122.878 337.333 122.588C340.284 121.069 342.698 118.886 344.811 116.372C349.483 110.82 352.557 104.391 355.28 97.7404C357.461 92.4145 359.66 87.0931 361.951 81.8125C362.52 80.5013 363.467 79.344 364.314 78.1549C364.519 77.8746 365.125 77.5536 365.357 77.6711C365.699 77.8203 366.027 78.3267 366.077 78.711C366.195 79.57 366.195 80.4742 366.154 81.3332C365.958 85.6871 365.594 90.0364 366.35 94.3766C366.459 95.0413 366.651 95.7872 366.482 96.3976C364.838 102.352 362.702 108.103 359.005 113.162C358.891 113.32 358.818 113.515 358.581 113.962C361.218 112.796 362.989 111.069 364.424 109.039C365.858 107 367.115 104.834 368.531 102.583C369.128 104.997 369.702 107.321 370.275 109.644C371.091 113.022 370.07 115.784 367.329 117.769ZM370.307 152.658C363.577 158.97 355.598 163.423 347.22 167.203C335.876 172.321 324 175.87 311.887 178.664C307.556 179.663 303.198 180.527 298.571 181.512C300.434 179.22 302.082 177.167 303.776 175.137C303.936 174.943 304.3 174.857 304.587 174.816C312.178 174.034 319.473 172.086 326.504 169.183C342.766 162.483 356.687 152.355 369.096 140.076C369.21 139.963 369.292 139.818 369.383 139.692C368.959 139.818 368.641 140.026 368.326 140.243C357.857 147.459 347.087 154.187 335.762 160.01C328.512 163.717 321.126 167.131 313.184 169.147C311.313 169.622 309.4 169.938 307.21 170.381C307.515 169.866 307.633 169.676 307.743 169.477C310.238 165.146 312.984 160.918 315.152 156.424C316.509 153.599 318.408 151.528 320.817 149.706C329.833 142.893 339.769 137.635 349.906 132.711C349.997 132.671 350.111 132.684 350.439 132.625C346.582 138.702 342.862 144.615 336.213 147.947C337.934 147.667 339.642 147.382 341.286 146.885C346.386 145.334 350.676 142.35 354.706 139.005C359.633 134.922 364.401 130.622 369.396 126.599C371.974 124.519 374.729 122.512 377.703 121.074C380.827 119.577 384.297 118.804 387.634 117.778C388.486 117.498 389.406 117.452 390.658 117.235C390.248 119.333 390.075 121.173 389.515 122.882C385.708 134.438 379.178 144.321 370.307 152.658ZM308.908 242.018C306.445 243.379 303.826 244.6 301.14 245.414C295.634 247.068 289.901 247.096 284.195 247.082C280.151 247.073 276.107 247.019 272.068 247.064C271.057 247.077 270.055 247.394 269.049 247.575C269.044 247.76 269.035 247.946 269.031 248.135C269.901 248.465 270.747 248.868 271.635 249.121C274.45 249.917 277.278 250.631 280.087 251.409C280.634 251.567 281.139 251.879 281.672 252.123C281.654 252.232 281.636 252.34 281.617 252.449C281.253 252.593 280.889 252.797 280.502 252.883C274.855 253.99 269.231 255.347 263.534 256.151C253.889 257.517 244.326 259.176 234.986 261.997C234.194 262.232 233.315 262.345 232.496 262.291C223.051 261.645 213.611 260.966 204.162 260.284C193.242 259.492 182.322 259.389 171.415 260.532C159.025 261.83 147.039 264.751 135.436 269.199C118.764 275.597 103.655 284.72 89.4561 295.404C89.2148 295.585 88.9871 295.802 88.7503 295.996C89.2148 295.906 89.5745 295.716 89.9206 295.508C102.885 287.822 116.26 280.963 130.39 275.619C142.367 271.094 154.667 267.825 167.376 266.152C176.561 264.945 185.783 264.669 195.036 264.728C205.382 264.782 215.742 264.728 226.088 264.723C226.225 264.723 226.357 264.742 226.507 264.755C226.471 264.836 226.466 264.886 226.448 264.9C226.202 264.999 225.956 265.108 225.706 265.203C216.457 268.792 207.686 273.277 199.681 279.132C197.263 280.914 194.667 282.247 191.889 283.283C189.735 284.092 187.568 284.883 185.368 285.57C174.079 289.11 162.394 290.846 150.778 292.931C141.206 294.644 131.638 296.403 122.148 298.483C113.496 300.377 105.144 303.284 97.3843 307.665C84.0553 315.179 76.2182 326.428 74.0825 341.533C73.7455 343.906 73.5543 346.312 73.3129 348.441C72.8484 347.582 72.3429 346.542 71.7464 345.547C66.6962 337.116 63.1625 328.137 62.0605 318.33C60.5759 305.079 64.3829 293.65 74.0552 284.259C74.4468 283.875 74.72 283.359 74.9751 282.849C76.3685 280.045 77.5206 277.102 79.1418 274.448C83.7593 266.921 90.2849 261.251 97.6256 256.459C107.375 250.107 118.031 245.671 129.029 241.982C146.37 236.159 164.216 232.357 182.153 228.934C196.762 226.145 211.402 223.468 226.006 220.652C237.4 218.463 248.479 215.362 258.967 210.23C272.123 203.801 284.304 196.079 294.619 185.64C294.96 185.287 295.616 185.097 296.135 185.079C303.034 184.885 309.887 184.243 316.668 182.973C335.644 179.401 353.03 172.063 368.95 161.235C369.21 161.068 369.488 160.941 369.92 160.679C369.825 161.244 369.784 161.583 369.702 161.909C368.363 167.8 366.628 173.578 364.365 179.179C353.308 206.6 334.92 227.641 308.908 242.018ZM461.575 385.505C461.115 390.008 460.172 394.471 459.179 398.901C457.635 405.715 453.441 410.222 446.643 412.261C443.601 413.174 440.477 413.536 437.307 413.545C431.082 413.559 424.985 412.564 418.96 411.086C413.942 409.838 409.097 408.16 404.743 405.312C400.595 402.595 397.503 399.064 396.305 394.14C395.567 391.062 395.777 388.019 396.282 384.935C396.482 383.71 397.015 383.172 398.149 382.734C408.063 378.805 415.977 372.57 420.727 362.859C421.36 361.575 422.262 360.924 423.641 360.784C428.382 360.264 433.027 360.436 437.357 362.719C440.14 364.184 442.913 364.016 445.659 362.692C446.788 362.145 447.886 361.466 448.888 360.711C450.135 359.766 451.269 358.668 452.649 357.465C452.767 357.664 452.849 357.845 452.972 357.99C459.835 365.938 462.613 375.192 461.575 385.505ZM388.258 405.615C389.019 406.108 389.702 406.745 390.385 407.369C396.291 412.835 403.099 416.805 410.645 419.617C417.38 422.126 424.379 423.252 431.506 423.632C436.779 423.912 442.089 423.867 447.216 422.479C450.723 421.529 454.088 420.096 457.554 418.966C458.291 418.726 459.411 418.559 459.908 418.939C460.75 419.585 460.117 420.612 459.808 421.471C459.794 421.507 459.762 421.538 459.748 421.566C457.28 426.236 454.056 430.273 449.689 433.339C441.82 438.859 432.972 439.948 423.696 438.895C422.175 438.723 420.859 438.999 419.616 439.7C419.033 440.03 418.673 440.744 418.209 441.291C418.295 441.386 418.377 441.495 418.459 441.59C418.792 441.553 419.119 441.495 419.452 441.49C421.173 441.436 422.926 441.174 424.607 441.395C430.026 442.11 432.612 448.046 429.493 452.422C428.446 453.901 427.084 454.963 425.149 454.723C423.154 454.461 422.161 452.992 421.483 451.287C421.319 450.871 421.255 450.401 421.205 449.945C421.005 448.222 420.877 447.982 419.092 448.041C417.412 448.091 415.736 448.349 414.065 448.602C411.988 448.891 410.64 448.132 409.989 446.138C409.461 444.528 409.62 442.901 410.417 441.472C411.278 439.908 412.371 438.484 413.313 437.05C410.791 436.006 408.017 435.061 405.44 433.732C395.572 428.655 388.887 420.969 386.368 410.041C386.113 408.974 386.009 407.844 386.045 406.745C386.095 405.181 386.97 404.761 388.258 405.615ZM393.404 391.939C394.146 394.249 394.634 396.591 395.622 398.693C397.917 403.558 401.997 406.714 406.765 408.902C418.077 414.065 430.003 416.375 442.426 415.326C449.949 414.693 456.178 411.574 459.676 404.431C459.689 404.403 459.735 404.385 459.871 404.277C462.171 405.335 463.455 407.098 463.765 409.576C464.047 411.854 463.068 413.617 461.137 414.635C458.642 415.955 456.096 417.316 453.41 418.12C442.061 421.534 430.586 421.453 419.119 418.695C410.385 416.597 402.325 413.039 395.294 407.401C392.553 405.204 390.048 402.78 388.486 399.57C388.099 398.775 387.739 397.816 387.803 396.975C388.003 394.348 390.936 391.925 393.404 391.939ZM32.9844 334.575C23.7721 318.665 18.977 301.779 18.9724 299.188C18.9451 291.091 19.5735 283.02 20.7985 274.982C21.0808 273.119 21.4542 271.27 21.7775 269.412C22.1236 269.751 22.2375 270.095 22.3422 270.447C23.7038 274.937 24.8878 279.489 26.4452 283.911C34.6329 307.082 47.0876 327.865 62.5113 346.958C63.0714 347.654 63.5541 348.477 63.8319 349.323C67.1835 359.572 71.9923 368.872 78.1581 377.299C71.2455 374.374 63.3674 373.321 53.9866 362.601C65.5122 384.669 92.8168 393.413 92.8168 393.413C108.013 406.908 125.691 415.828 145.277 421.168C146.857 421.597 148.455 421.941 150.054 422.321C149.703 421.986 149.311 421.85 148.92 421.697C134.348 416.52 120.914 409.304 108.755 399.787C93.6228 387.942 82.1837 373.348 75.3439 355.354C74.6107 353.419 74.2647 351.615 75.016 349.616C75.5261 348.26 75.7902 346.818 76.2137 345.43C79.4287 335 84.4606 325.623 92.5527 318.055C100.294 310.803 109.598 306.422 119.689 303.465C131.775 299.947 144.261 298.65 156.688 297.031C163.897 296.1 171.069 294.97 178.255 293.88C180.186 293.595 182.094 293.121 184.148 292.7C183.993 292.953 183.948 293.066 183.87 293.157C178.255 299.409 173.583 306.277 169.867 313.809C169.644 314.275 169.129 314.736 168.638 314.89C165.318 315.93 162.021 317.164 158.615 317.842C153.565 318.841 148.401 319.226 143.35 320.211C116.269 325.551 107.922 339.955 108.045 339.824C116.269 331.152 129.429 328.706 132.904 327.504C141.01 324.705 149.407 323.946 157.918 324.027C160.404 324.063 162.886 324.208 165.445 324.307C157.813 349.056 158.815 373.181 169.161 396.812C169.17 396.369 169.07 395.94 168.961 395.515C164.913 380.252 163.273 364.812 165.587 349.097C168.378 330.013 176.734 313.755 190.692 300.359C201.152 290.322 213.452 283.097 226.648 277.274C239.185 271.74 252.364 268.318 265.652 265.135C275.652 262.743 285.693 260.397 295.566 257.508C308.79 253.66 320.762 247.34 330.962 237.999C332.543 236.552 334.136 235.074 335.439 233.383C344.032 222.342 354.51 213.698 367.402 208.065C368.217 205.357 369.642 202.499 371.86 199.515C375.011 195.329 378.909 191.879 383.108 188.782C384.297 187.91 385.877 187.408 387.357 187.118C388.969 186.788 389.939 187.561 390.49 189.112C390.635 189.551 390.736 189.989 390.822 190.437C391.683 190.731 392.539 191.192 393.381 191.843C393.96 192.286 394.515 192.765 395.025 193.267C397.398 195.636 399.06 198.457 400.408 201.482C400.699 202.138 401.091 202.395 401.769 202.481C403.368 202.689 404.971 202.911 406.551 203.214C432.198 208.25 450.873 227.6 454.129 255.423C454.421 257.933 454.402 260.532 455.158 262.883C456.124 265.872 457.727 268.657 459.056 271.532C460.227 274.06 461.511 276.537 462.522 279.132C463.56 281.786 463.692 284.553 462.881 287.343C462.604 288.301 462.039 288.554 461.288 288.089C460.231 287.428 459.279 286.601 458.273 285.855C457.048 284.946 455.905 283.907 454.58 283.188C453.501 282.595 452.276 282.717 451.31 283.816C451.533 283.983 451.72 284.115 451.884 284.268C454.525 286.606 457.176 288.92 459.776 291.303C460.085 291.583 460.309 292.153 460.281 292.592C460.049 296.285 458.815 299.636 456.169 302.294C452.767 305.716 448.765 307.543 443.792 306.386C443.664 308.226 443.537 308.542 442.471 309.112C435.554 312.833 428.223 315.025 420.294 314.876C414.461 314.777 409.201 316.612 404.183 319.397C402.626 320.261 400.954 321.038 399.238 321.491C393.819 322.919 388.254 323.331 382.662 323.475C382.202 323.484 381.751 323.512 381.296 323.534C381.582 323.855 381.869 323.955 382.156 324.022C386.619 325.067 391.141 325.202 395.699 324.872C397.175 324.768 398.837 324.452 400.121 324.967C403.882 326.486 407.53 328.304 411.15 330.153C412.166 330.673 413.058 330.922 414.087 330.542C416.387 329.687 418.696 328.842 420.936 327.852C425.7 325.749 430.577 324.484 435.836 325.202C438.714 325.591 441.52 326.22 444.029 327.743C445.654 328.738 446.939 330.004 447.066 332.065C447.089 332.355 447.353 332.676 447.59 332.893C448.264 333.512 449.011 334.068 449.689 334.683C451.693 336.519 452.54 338.797 452.294 341.488C452.08 343.748 451.406 344.123 449.425 343.124C448.469 342.645 447.471 342.252 446.47 343.011C447.74 343.816 448.983 344.539 450.172 345.353C451.952 346.565 452.585 348.31 452.522 350.412C452.335 356.263 445.386 361.439 439.42 360.133C437.453 359.703 435.695 358.93 434.621 357.081C434.479 356.837 434.074 356.579 433.801 356.597C432.243 356.683 430.654 356.674 429.151 357.009C426.396 357.628 423.669 358.283 420.832 357.75C419.525 357.501 418.236 357.144 416.884 356.837C415.827 360.49 414.087 363.736 411.765 366.679C406.369 373.488 399.274 377.801 391.091 380.464C380.48 383.923 369.579 384.303 358.663 382.747C342.884 380.509 331.7 372.005 325.666 357.253C324.173 353.604 323.403 349.666 322.278 345.855C320.47 339.724 318.057 333.829 314.851 328.259C309.692 319.316 302.92 311.956 293.644 307.1C283.225 301.647 272.15 300.558 260.679 302.583C258.502 302.968 256.362 303.524 253.953 304.062C258.147 304.31 262.004 304.396 265.825 304.781C276.467 305.843 286.44 309.017 295.502 314.713C306.281 321.5 314.341 330.397 317.711 343.02C319.51 349.761 322.037 356.303 325.193 362.57C327.292 366.765 329.615 370.784 332.857 374.234C338.244 379.967 345.011 383.199 352.47 385.284C354.765 385.921 357.042 386.626 359.305 387.35C360.426 387.711 361.127 388.498 361.569 389.624C362.816 392.843 363.176 396.13 362.502 399.516C361.459 404.842 358.836 409.363 355.307 413.405C352.274 416.891 348.476 419.436 344.678 421.982C342.83 423.207 341.035 424.541 339.351 425.983C337.893 427.212 337.005 428.903 337.096 430.834C337.256 434.284 337.461 434.831 340.922 433.687C341.463 433.506 342.001 433.293 342.529 433.063C345.357 431.856 348.171 430.626 351.013 429.446C356.468 427.181 362.129 426.344 367.939 427.732C374.383 429.261 378.928 433.018 380.972 439.438C381.391 440.753 381.491 442.15 380.781 443.33C380.439 443.913 379.561 444.488 378.909 444.506C378.322 444.524 377.63 443.859 377.147 443.339C376.851 443.014 376.86 442.408 376.728 441.929C376.063 439.451 374.975 437.263 372.525 436.06C372.06 435.83 371.532 435.771 371.031 435.622C374.296 438.985 376.063 442.792 375.826 447.381C375.649 450.867 372.898 453.137 369.36 452.938C368.331 452.879 367.607 452.4 367.493 451.405C367.352 450.198 367.406 448.977 367.384 447.761C367.343 446.314 367.452 444.84 367.247 443.421C366.924 441.092 365.48 439.578 363.226 438.859C362.138 438.515 361.09 438.701 360.079 439.212C361.5 439.501 362.857 439.926 363.572 441.246C364.26 442.512 364.961 443.832 365.307 445.211C366.049 448.186 365.69 451.057 362.935 452.883C361.696 453.702 360.02 454.041 358.499 454.249C355.234 454.701 352.101 453.783 348.945 453.06C347.051 452.621 345.088 452.332 343.157 452.327C341.331 452.323 339.487 452.707 337.679 453.028C326.668 454.999 315.602 454.163 304.391 454.032C292.264 453.883 280.137 453.955 268.011 453.946C246.303 453.946 224.59 453.937 202.869 453.937C193.902 453.937 184.931 454.027 175.965 453.968C163.601 453.892 151.37 452.508 139.411 449.393C93.8596 437.566 59.7699 413.084 37.3014 372.046C27.3969 353.943 21.7411 334.579 19.7511 314.248C19.5097 311.897 33.1165 337.043 32.9844 334.575Z" fill="#0D0D0D"/>
<path d="M389.133 227.962C385.312 219.874 385.266 216.456 389.492 208.802C392.68 203.024 401.15 208.165 400.003 201.713C399.52 196.107 393.605 189.949 392.507 188.611C391.159 187.024 390.408 185.464 388.418 185.866C386.596 186.237 384.87 187.11 383.404 188.19C378.226 192.011 373.427 196.269 369.538 201.428C362.511 210.737 365.407 216.384 373.636 223.808C377.12 226.936 389.543 228.826 389.133 227.962Z" fill="#E65270"/>
<path opacity="0.2" d="M381.514 197.26C383.541 195.062 386.696 192.938 389.989 190.758C391.737 189.61 386.532 203.72 385.016 207.486C380.043 219.825 386.56 227.47 384.766 226.525C380.822 224.445 375.189 217.18 374.797 212.69C374.36 207.83 378.163 200.899 381.514 197.26Z" fill="#2B2B2B"/>
<path d="M387.557 227.207C383.732 219.123 383.691 215.705 387.921 208.051C391.104 202.278 392.58 196.459 391.432 189.998C391.305 189.28 391.164 188.547 390.927 187.851C390.248 185.911 389.051 184.962 387.061 185.369C385.239 185.739 383.281 186.35 381.824 187.426C376.646 191.246 371.846 195.505 367.957 200.664C362.566 207.803 363.158 212.676 367.243 218.088C368.413 219.634 369.132 219.589 370.64 219.869C372.589 220.236 372.985 217.541 372.366 216.451C370.94 213.947 370.002 211.428 369.825 209.448C369.392 204.584 372.133 199.303 375.485 195.663C378.591 192.291 384.87 187.055 389.155 185.785C390.189 189.723 387.985 197.58 386.587 201.396C384.884 206.057 379.729 214.562 381.022 220.105C381.022 220.105 382.839 225.231 384.766 226.534C386.692 227.827 387.557 227.207 387.557 227.207Z" fill="#0D0D0D"/>
<g opacity="0.2">
<path d="M155.395 320.514C154.872 320.541 154.389 320.487 153.993 320.274C154.489 320.247 154.958 320.338 155.395 320.514Z" fill="#8B4FBA"/>
</g>
<path opacity="0.2" d="M390.804 388.29C395.271 381.554 400.294 379.275 405.968 373.972C411.364 368.94 415.508 362.868 420.882 357.926C425.09 358.799 429.821 358.094 434.138 358.311C437.225 365.879 452.216 358.677 453.587 353.794L455.577 356.755C459.899 365.205 444.398 365.77 435.572 364.893C429.379 364.283 402.648 371.259 403.527 405.488C400.517 410.077 393.427 405.597 393.418 411.578C393.413 417.7 393.513 428.496 398.841 432.394C397.316 437.733 392.02 432.086 390.558 429.948C387.288 425.16 382.616 416.683 381.555 411.009C379.761 401.315 385.918 395.655 390.804 388.29Z" fill="#430A1D"/>
<defs>
<linearGradient id="paint0_linear_327_36" x1="134.426" y1="-84.2704" x2="6.55851" y2="516.73" gradientUnits="userSpaceOnUse">
<stop offset="0.3836" stop-color="#FAA100"/>
<stop offset="0.6584" stop-color="#BF73F2"/>
<stop offset="0.6649" stop-color="#C370E6"/>
<stop offset="0.6852" stop-color="#CC68C7"/>
<stop offset="0.7081" stop-color="#D461AB"/>
<stop offset="0.7341" stop-color="#DB5B95"/>
<stop offset="0.7643" stop-color="#E05784"/>
<stop offset="0.8017" stop-color="#E35479"/>
<stop offset="0.8543" stop-color="#E55272"/>
<stop offset="1" stop-color="#E65270"/>
</linearGradient>
<linearGradient id="paint1_linear_327_36" x1="217.75" y1="-92.2884" x2="81.549" y2="547.892" gradientUnits="userSpaceOnUse">
<stop offset="0.3836" stop-color="#FAA100"/>
<stop offset="0.6584" stop-color="#BF73F2"/>
<stop offset="0.6649" stop-color="#C370E6"/>
<stop offset="0.6852" stop-color="#CC68C7"/>
<stop offset="0.7081" stop-color="#D461AB"/>
<stop offset="0.7341" stop-color="#DB5B95"/>
<stop offset="0.7643" stop-color="#E05784"/>
<stop offset="0.8017" stop-color="#E35479"/>
<stop offset="0.8543" stop-color="#E55272"/>
<stop offset="1" stop-color="#E65270"/>
</linearGradient>
<linearGradient id="paint2_linear_327_36" x1="240.395" y1="-51.6954" x2="232.294" y2="327.844" gradientUnits="userSpaceOnUse">
<stop stop-color="#FAA7B5"/>
<stop offset="0.3836" stop-color="#FAA100"/>
<stop offset="0.7317" stop-color="#BF73F2"/>
</linearGradient>
<linearGradient id="paint3_linear_327_36" x1="138.432" y1="-12.687" x2="229.727" y2="145.724" gradientUnits="userSpaceOnUse">
<stop stop-color="#F6E8A0"/>
<stop offset="1" stop-color="#E65271"/>
</linearGradient>
<linearGradient id="paint4_linear_327_36" x1="154.655" y1="82.159" x2="233.386" y2="218.764" gradientUnits="userSpaceOnUse">
<stop stop-color="#F6E8A0"/>
<stop offset="1" stop-color="#E65271"/>
</linearGradient>
<linearGradient id="paint5_linear_327_36" x1="332.485" y1="-18.4315" x2="323.437" y2="140.589" gradientUnits="userSpaceOnUse">
<stop stop-color="#F6E8A0"/>
<stop offset="1" stop-color="#E65271"/>
</linearGradient>
<linearGradient id="paint6_linear_327_36" x1="323.893" y1="140.386" x2="271.711" y2="-92.4808" gradientUnits="userSpaceOnUse">
<stop stop-color="#E65271"/>
<stop offset="0.3836" stop-color="#FAA100"/>
</linearGradient>
<linearGradient id="paint7_linear_327_36" x1="140.318" y1="23.9229" x2="334.979" y2="190.94" gradientUnits="userSpaceOnUse">
<stop stop-color="#F6E8A0"/>
<stop offset="1" stop-color="#E65271"/>
</linearGradient>
<linearGradient id="paint8_linear_327_36" x1="316.991" y1="139.688" x2="126.847" y2="191.773" gradientUnits="userSpaceOnUse">
<stop stop-color="#FAA7B5"/>
<stop offset="0.3836" stop-color="#FAA100"/>
<stop offset="0.7317" stop-color="#BF73F2"/>
</linearGradient>
<linearGradient id="paint9_linear_327_36" x1="823.619" y1="-81.1839" x2="-67.4799" y2="400.047" gradientUnits="userSpaceOnUse">
<stop stop-color="#FAA7B5"/>
<stop offset="0.3836" stop-color="#FAA100"/>
<stop offset="0.7317" stop-color="#BF73F2"/>
</linearGradient>
<radialGradient id="paint10_radial_327_36" cx="0" cy="0" r="1" gradientUnits="userSpaceOnUse" gradientTransform="translate(326.923 209.715) rotate(-163.262) scale(32.3937 62.094)">
<stop offset="0.0091" stop-color="white"/>
<stop offset="1" stop-color="white" stop-opacity="0"/>
</radialGradient>
<radialGradient id="paint11_radial_327_36" cx="0" cy="0" r="1" gradientUnits="userSpaceOnUse" gradientTransform="translate(154.866 172.305) rotate(180) scale(50.674 50.3104)">
<stop offset="0.0091" stop-color="white"/>
<stop offset="1" stop-color="white" stop-opacity="0"/>
</radialGradient>
<radialGradient id="paint12_radial_327_36" cx="0" cy="0" r="1" gradientUnits="userSpaceOnUse" gradientTransform="translate(154.832 172.313) rotate(180) scale(50.6529 50.2894)">
<stop offset="0.0091" stop-color="white"/>
<stop offset="1" stop-color="white" stop-opacity="0"/>
</radialGradient>
<linearGradient id="paint13_linear_327_36" x1="456.131" y1="328.767" x2="406.587" y2="441.262" gradientUnits="userSpaceOnUse">
<stop offset="0.0041" stop-color="#FAA7B5"/>
<stop offset="0.3836" stop-color="#FAA100"/>
</linearGradient>
<linearGradient id="paint14_linear_327_36" x1="122.174" y1="4.71724" x2="81.6429" y2="314.962" gradientUnits="userSpaceOnUse">
<stop stop-color="#FAA7B5"/>
<stop offset="0.3836" stop-color="#FAA100"/>
<stop offset="0.7317" stop-color="#BF73F2"/>
</linearGradient>
<linearGradient id="paint15_linear_327_36" x1="77.7166" y1="0.239829" x2="37.1861" y2="310.484" gradientUnits="userSpaceOnUse">
<stop stop-color="#FAA7B5"/>
<stop offset="0.3836" stop-color="#FAA100"/>
<stop offset="0.7317" stop-color="#BF73F2"/>
</linearGradient>
<linearGradient id="paint16_linear_327_36" x1="17.3432" y1="132.509" x2="35.5453" y2="348.362" gradientUnits="userSpaceOnUse">
<stop stop-color="#FAA7B5"/>
<stop offset="0.3836" stop-color="#FAA100"/>
<stop offset="0.7317" stop-color="#BF73F2"/>
</linearGradient>
<linearGradient id="paint17_linear_327_36" x1="356.285" y1="-49.2358" x2="348.185" y2="330.337" gradientUnits="userSpaceOnUse">
<stop stop-color="#FAA7B5"/>
<stop offset="0.3836" stop-color="#FAA100"/>
<stop offset="0.7317" stop-color="#BF73F2"/>
</linearGradient>
<linearGradient id="paint18_linear_327_36" x1="433.7" y1="241.122" x2="413.564" y2="274.588" gradientUnits="userSpaceOnUse">
<stop stop-color="#FAA7B5"/>
<stop offset="0.3836" stop-color="#FAA100"/>
<stop offset="0.7317" stop-color="#BF73F2"/>
</linearGradient>
<clipPath id="clip0_327_36">
<rect width="5.49735" height="6.36754" fill="white" transform="matrix(-1 0 0 -1 420.706 257.092)"/>
</clipPath>
</defs>
</svg>
