<svg width="450" height="528" viewBox="0 0 450 528" fill="none" xmlns="http://www.w3.org/2000/svg">
<g clip-path="url(#clip0_712_2)">
<path d="M225.998 475.861C344.739 475.861 440.998 379.602 440.998 260.861C440.998 142.12 344.739 45.8611 225.998 45.8611C107.257 45.8611 10.9978 142.12 10.9978 260.861C10.9978 379.602 107.257 475.861 225.998 475.861Z" fill="#E6E6E6"/>
<path d="M410.998 260.861C411.019 289.728 404.276 318.198 391.309 343.989C378.342 369.779 359.511 392.172 336.328 409.371C334.778 410.531 333.198 411.661 331.608 412.761C300.606 434.311 263.754 445.861 225.998 445.861C188.242 445.861 151.39 434.311 120.388 412.761C118.798 411.661 117.218 410.531 115.668 409.371C92.5003 392.157 73.6815 369.761 60.716 343.974C47.7505 318.187 40.9978 289.724 40.9978 260.861C40.9978 231.998 47.7505 203.535 60.716 177.748C73.6815 151.962 92.5003 129.566 115.668 112.351C117.218 111.191 118.798 110.061 120.388 108.961C151.39 87.4112 188.242 75.8611 225.998 75.8611C263.754 75.8611 300.606 87.4112 331.608 108.961C333.198 110.061 334.778 111.191 336.328 112.351C359.511 129.55 378.342 151.943 391.309 177.734C404.276 203.524 411.019 231.994 410.998 260.861Z" fill="white"/>
<path d="M225.998 429.861C319.334 429.861 394.998 354.197 394.998 260.861C394.998 167.525 319.334 91.8611 225.998 91.8611C132.662 91.8611 56.9978 167.525 56.9978 260.861C56.9978 354.197 132.662 429.861 225.998 429.861Z" fill="#2FA4DA"/>
<path opacity="0.2" d="M226.439 92.3335C223.877 92.3335 221.33 92.4005 218.796 92.5133C261.51 96.2667 301.2 116.116 329.825 148.041C358.45 179.965 373.87 221.577 372.96 264.445C372.05 307.314 354.879 348.234 324.925 378.915C294.971 409.596 254.474 427.744 211.64 429.681C216.518 430.105 221.451 430.333 226.439 430.333C271.257 430.329 314.238 412.521 345.928 380.828C377.617 349.135 395.42 306.152 395.42 261.334C395.42 216.515 377.617 173.532 345.928 141.839C314.238 110.146 271.257 92.3384 226.439 92.3335V92.3335Z" fill="black"/>
<path d="M226.498 79.8611C225.04 79.8636 223.642 80.4439 222.612 81.4748C221.581 82.5057 221 83.9032 220.998 85.3611V109.361C220.998 110.82 221.577 112.219 222.609 113.25C223.64 114.282 225.039 114.861 226.498 114.861C227.956 114.861 229.355 114.282 230.387 113.25C231.418 112.219 231.998 110.82 231.998 109.361V85.3611C231.995 83.9032 231.415 82.5057 230.384 81.4748C229.353 80.4439 227.956 79.8636 226.498 79.8611Z" fill="white"/>
<path d="M336.328 112.351C334.778 111.191 333.198 110.061 331.608 108.961C330.654 108.899 329.7 109.087 328.841 109.506C327.981 109.925 327.246 110.561 326.708 111.351L313.198 131.181C312.377 132.387 312.069 133.869 312.341 135.301C312.613 136.734 313.443 138 314.648 138.821C315.853 139.641 317.335 139.95 318.768 139.678C320.201 139.406 321.467 138.576 322.288 137.371L335.798 117.541C336.312 116.789 336.63 115.92 336.722 115.013C336.815 114.107 336.679 113.192 336.328 112.351V112.351Z" fill="white"/>
<path d="M397.708 202.771C397.436 202.103 397.035 201.494 396.528 200.98C396.021 200.467 395.418 200.058 394.753 199.777C394.088 199.497 393.375 199.35 392.653 199.346C391.931 199.341 391.216 199.479 390.548 199.751L368.308 208.781C366.958 209.331 365.881 210.394 365.315 211.738C364.749 213.081 364.739 214.594 365.287 215.944C365.836 217.295 366.898 218.372 368.241 218.94C369.584 219.507 371.097 219.519 372.448 218.971L394.688 209.941C396.037 209.388 397.112 208.324 397.678 206.98C398.244 205.636 398.255 204.123 397.708 202.771V202.771Z" fill="white"/>
<path d="M138.798 131.181L125.288 111.351C124.749 110.561 124.014 109.925 123.155 109.506C122.296 109.087 121.342 108.899 120.388 108.961C118.798 110.061 117.218 111.191 115.668 112.351C115.316 113.192 115.181 114.107 115.273 115.013C115.366 115.92 115.684 116.789 116.198 117.541L129.708 137.371C130.529 138.576 131.795 139.406 133.227 139.678C134.66 139.95 136.142 139.641 137.347 138.821C138.553 138 139.383 136.734 139.655 135.301C139.927 133.869 139.618 132.387 138.798 131.181V131.181Z" fill="white"/>
<path d="M83.6876 208.781L61.4476 199.751C60.0964 199.202 58.5826 199.213 57.2391 199.78C55.8956 200.347 54.8325 201.425 54.2836 202.776C53.7347 204.127 53.7449 205.641 54.312 206.985C54.8791 208.328 55.9566 209.392 57.3076 209.941L79.5476 218.971C80.8986 219.518 82.4116 219.507 83.7543 218.939C85.0969 218.372 86.1593 217.295 86.708 215.944C87.2566 214.594 87.2467 213.081 86.6804 211.737C86.114 210.394 85.0376 209.331 83.6876 208.781V208.781Z" fill="white"/>
<path d="M226.498 406.861C225.04 406.864 223.642 407.444 222.612 408.475C221.581 409.506 221 410.903 220.998 412.361V436.361C220.998 437.82 221.577 439.219 222.609 440.25C223.64 441.282 225.039 441.861 226.498 441.861C227.956 441.861 229.355 441.282 230.387 440.25C231.418 439.219 231.998 437.82 231.998 436.361V412.361C231.995 410.903 231.415 409.506 230.384 408.475C229.353 407.444 227.956 406.864 226.498 406.861V406.861Z" fill="white"/>
<path d="M335.798 404.181L322.288 384.351C321.881 383.754 321.361 383.243 320.757 382.847C320.153 382.451 319.477 382.178 318.768 382.043C318.058 381.909 317.329 381.915 316.622 382.062C315.915 382.209 315.244 382.494 314.647 382.901C314.05 383.307 313.539 383.827 313.144 384.431C312.748 385.035 312.475 385.711 312.34 386.42C312.205 387.13 312.212 387.859 312.359 388.566C312.506 389.273 312.791 389.944 313.198 390.541L326.708 410.371C327.246 411.161 327.981 411.797 328.84 412.216C329.7 412.635 330.654 412.823 331.608 412.761C333.198 411.661 334.778 410.531 336.328 409.371C336.679 408.53 336.815 407.615 336.722 406.709C336.629 405.802 336.312 404.933 335.798 404.181V404.181Z" fill="white"/>
<path d="M394.688 311.781L372.448 302.751C371.096 302.202 369.583 302.213 368.239 302.78C366.896 303.348 365.833 304.425 365.284 305.776C364.735 307.127 364.745 308.641 365.312 309.985C365.879 311.328 366.957 312.392 368.308 312.941L390.548 321.971C391.899 322.518 393.412 322.507 394.754 321.939C396.097 321.372 397.159 320.295 397.708 318.944C398.257 317.594 398.247 316.081 397.68 314.737C397.114 313.394 396.038 312.331 394.688 311.781V311.781Z" fill="white"/>
<path d="M137.348 382.901C136.142 382.08 134.66 381.772 133.228 382.044C131.795 382.316 130.529 383.146 129.708 384.351L116.198 404.181C115.684 404.933 115.366 405.802 115.273 406.709C115.181 407.615 115.316 408.53 115.668 409.371C117.218 410.531 118.798 411.661 120.388 412.761C121.342 412.823 122.296 412.635 123.155 412.216C124.014 411.797 124.749 411.161 125.288 410.371L138.798 390.541C139.204 389.944 139.489 389.273 139.636 388.566C139.783 387.859 139.79 387.13 139.655 386.421C139.521 385.711 139.247 385.035 138.852 384.431C138.456 383.827 137.945 383.307 137.348 382.901V382.901Z" fill="white"/>
<path d="M86.7078 305.771C86.4362 305.102 86.0355 304.494 85.5286 303.98C85.0217 303.467 84.4185 303.058 83.7536 302.777C83.0887 302.497 82.375 302.35 81.6534 302.346C80.9317 302.341 80.2162 302.479 79.5478 302.751L57.3078 311.781C55.9579 312.331 54.8814 313.394 54.3151 314.738C53.7488 316.081 53.7388 317.594 54.2875 318.944C54.8362 320.295 55.8986 321.372 57.2412 321.94C58.5838 322.507 60.0969 322.519 61.4478 321.971L83.6878 312.941C85.0372 312.388 86.1126 311.324 86.6786 309.98C87.2446 308.636 87.2551 307.123 86.7078 305.771V305.771Z" fill="white"/>
<path d="M225.998 273.861C233.178 273.861 238.998 268.041 238.998 260.861C238.998 253.681 233.178 247.861 225.998 247.861C218.818 247.861 212.998 253.681 212.998 260.861C212.998 268.041 218.818 273.861 225.998 273.861Z" fill="#CCCCCC"/>
<path d="M136.454 35.4399C116.499 66.8124 86.0523 87.6326 48.504 101.31C47.7621 101.866 46.9179 102.27 46.0198 102.5C45.1216 102.729 44.1871 102.779 43.2695 102.648C42.3519 102.516 41.4692 102.205 40.6719 101.732C39.8746 101.259 39.1782 100.634 38.6225 99.8919V99.8919C18.2266 72.6595 22.8319 33.7388 49.7503 12.93C56.2582 7.90794 63.6988 4.22859 71.6403 2.10562C79.5818 -0.0173597 87.866 -0.541679 96.0117 0.563099C104.158 1.66788 112.003 4.37974 119.092 8.54126C126.181 12.7028 132.373 18.2311 137.308 24.8051L137.872 25.5584C138.428 26.3003 138.832 27.1445 139.062 28.0426C139.291 28.9408 139.341 29.8753 139.21 30.7929C139.078 31.7105 138.767 32.5931 138.294 33.3905C137.821 34.1878 137.196 34.8842 136.454 35.4399V35.4399Z" fill="#E6E6E6"/>
<path d="M314.687 24.8051C319.622 18.2311 325.814 12.7028 332.903 8.54126C339.993 4.37974 347.838 1.66788 355.984 0.563099C364.129 -0.541679 372.413 -0.01736 380.355 2.10562C388.296 4.22859 395.737 7.90794 402.245 12.93C429.163 33.7388 433.769 72.6595 413.373 99.8919C412.817 100.634 412.121 101.259 411.323 101.732C410.526 102.205 409.643 102.516 408.726 102.648C407.808 102.779 406.874 102.729 405.976 102.5C405.077 102.27 404.233 101.866 403.491 101.31C368.634 87.965 340.049 64.8709 315.541 35.4399C314.043 34.3176 313.052 32.646 312.786 30.7929C312.52 28.9397 313.001 27.0568 314.123 25.5583L314.687 24.8051Z" fill="#E6E6E6"/>
<path d="M305.941 447.129C304.67 447.843 303.734 449.032 303.337 450.435C302.941 451.838 303.117 453.341 303.827 454.615L335.569 511.337C336.281 512.61 337.47 513.547 338.874 513.944C340.278 514.34 341.781 514.162 343.054 513.45C344.327 512.738 345.264 511.549 345.661 510.146C346.057 508.742 345.88 507.239 345.168 505.966L313.426 449.243C312.712 447.972 311.523 447.036 310.12 446.64C308.717 446.244 307.214 446.42 305.941 447.129V447.129Z" fill="#E6E6E6"/>
<path d="M138.569 449.243L106.827 505.966C106.115 507.238 105.938 508.742 106.335 510.146C106.731 511.549 107.669 512.738 108.942 513.45C110.214 514.162 111.718 514.34 113.121 513.944C114.525 513.547 115.714 512.61 116.426 511.337L148.168 454.615C148.521 453.984 148.747 453.291 148.831 452.573C148.916 451.856 148.859 451.129 148.663 450.434C148.466 449.738 148.135 449.089 147.688 448.522C147.24 447.954 146.686 447.481 146.055 447.128C145.425 446.775 144.731 446.55 144.014 446.466C143.296 446.381 142.569 446.439 141.874 446.635C141.179 446.831 140.529 447.163 139.962 447.61C139.395 448.058 138.922 448.613 138.569 449.243L138.569 449.243Z" fill="#E6E6E6"/>
<path d="M341.998 525.861C351.387 525.861 358.998 518.25 358.998 508.861C358.998 499.472 351.387 491.861 341.998 491.861C332.609 491.861 324.998 499.472 324.998 508.861C324.998 518.25 332.609 525.861 341.998 525.861Z" fill="#E6E6E6"/>
<path d="M353.998 90.8611C363.387 90.8611 370.998 83.2499 370.998 73.8611C370.998 64.4722 363.387 56.8611 353.998 56.8611C344.609 56.8611 336.998 64.4722 336.998 73.8611C336.998 83.2499 344.609 90.8611 353.998 90.8611Z" fill="#E6E6E6"/>
<path d="M224.998 50.8611C234.387 50.8611 241.998 43.2499 241.998 33.8611C241.998 24.4722 234.387 16.8611 224.998 16.8611C215.609 16.8611 207.998 24.4722 207.998 33.8611C207.998 43.2499 215.609 50.8611 224.998 50.8611Z" fill="#E6E6E6"/>
<path d="M101.998 88.8611C111.387 88.8611 118.998 81.2499 118.998 71.8611C118.998 62.4722 111.387 54.8611 101.998 54.8611C92.609 54.8611 84.9978 62.4722 84.9978 71.8611C84.9978 81.2499 92.609 88.8611 101.998 88.8611Z" fill="#E6E6E6"/>
<path d="M112.998 525.861C122.387 525.861 129.998 518.25 129.998 508.861C129.998 499.472 122.387 491.861 112.998 491.861C103.609 491.861 95.9978 499.472 95.9978 508.861C95.9978 518.25 103.609 525.861 112.998 525.861Z" fill="#E6E6E6"/>
<path d="M338.02 365.6L227.22 271.4L116.02 365.6V156.4L227.02 250.4L338.02 156.4V365.6ZM321.62 330.6V191.6L238.22 259.4L321.62 330.6ZM215.22 262.2L132.42 191.6V330.6L215.22 262.2Z" fill="#3F3D56"/>
</g>
<defs>
<clipPath id="clip0_712_2">
<rect width="450" height="528" fill="white"/>
</clipPath>
</defs>
</svg>
