<svg width="2900" height="454" viewBox="0 0 2900 454" fill="none" xmlns="http://www.w3.org/2000/svg">
<rect width="2900" height="454"/>
<path d="M43.625 323.859V374.25H32.375V315.734H42.8047L43.625 323.859ZM70.3828 336.398V337.219C70.3828 340.292 70.0182 343.143 69.2891 345.773C68.5859 348.404 67.5443 350.695 66.1641 352.648C64.7839 354.576 63.0651 356.086 61.0078 357.18C58.9766 358.247 56.6328 358.781 53.9766 358.781C51.3984 358.781 49.1589 358.26 47.2578 357.219C45.3568 356.177 43.7552 354.719 42.4531 352.844C41.1771 350.943 40.1484 348.742 39.3672 346.242C38.5859 343.742 37.987 341.06 37.5703 338.195V336.047C37.987 332.974 38.5859 330.161 39.3672 327.609C40.1484 325.031 41.1771 322.805 42.4531 320.93C43.7552 319.029 45.3438 317.557 47.2188 316.516C49.1198 315.474 51.3464 314.953 53.8984 314.953C56.5807 314.953 58.9375 315.461 60.9688 316.477C63.026 317.492 64.7448 318.951 66.125 320.852C67.5312 322.753 68.5859 325.018 69.2891 327.648C70.0182 330.279 70.3828 333.195 70.3828 336.398ZM59.0938 337.219V336.398C59.0938 334.602 58.9375 332.948 58.625 331.438C58.3385 329.901 57.8698 328.56 57.2188 327.414C56.5938 326.268 55.7604 325.383 54.7188 324.758C53.7031 324.107 52.4661 323.781 51.0078 323.781C49.4714 323.781 48.1562 324.029 47.0625 324.523C45.9948 325.018 45.1224 325.734 44.4453 326.672C43.7682 327.609 43.2604 328.729 42.9219 330.031C42.5833 331.333 42.375 332.805 42.2969 334.445V339.875C42.4271 341.802 42.7917 343.534 43.3906 345.07C43.9896 346.581 44.9141 347.779 46.1641 348.664C47.4141 349.549 49.0547 349.992 51.0859 349.992C52.5703 349.992 53.8203 349.667 54.8359 349.016C55.8516 348.339 56.6719 347.414 57.2969 346.242C57.9479 345.07 58.4036 343.716 58.6641 342.18C58.9505 340.643 59.0938 338.99 59.0938 337.219ZM100.188 348.469V329.641C100.188 328.286 99.9661 327.128 99.5234 326.164C99.0807 325.174 98.3906 324.406 97.4531 323.859C96.5417 323.312 95.3568 323.039 93.8984 323.039C92.6484 323.039 91.5677 323.26 90.6562 323.703C89.7448 324.12 89.0417 324.732 88.5469 325.539C88.0521 326.32 87.8047 327.245 87.8047 328.312H76.5547C76.5547 326.516 76.9714 324.81 77.8047 323.195C78.638 321.581 79.849 320.161 81.4375 318.938C83.026 317.688 84.9141 316.711 87.1016 316.008C89.3151 315.305 91.7891 314.953 94.5234 314.953C97.8047 314.953 100.721 315.5 103.273 316.594C105.826 317.688 107.831 319.328 109.289 321.516C110.773 323.703 111.516 326.438 111.516 329.719V347.805C111.516 350.122 111.659 352.023 111.945 353.508C112.232 354.966 112.648 356.242 113.195 357.336V358H101.828C101.281 356.854 100.865 355.422 100.578 353.703C100.318 351.958 100.188 350.214 100.188 348.469ZM101.672 332.258L101.75 338.625H95.4609C93.9766 338.625 92.6875 338.794 91.5938 339.133C90.5 339.471 89.6016 339.953 88.8984 340.578C88.1953 341.177 87.6745 341.88 87.3359 342.688C87.0234 343.495 86.8672 344.38 86.8672 345.344C86.8672 346.307 87.0885 347.18 87.5312 347.961C87.974 348.716 88.612 349.315 89.4453 349.758C90.2786 350.174 91.2552 350.383 92.375 350.383C94.0677 350.383 95.5391 350.044 96.7891 349.367C98.0391 348.69 99.0026 347.857 99.6797 346.867C100.383 345.878 100.747 344.94 100.773 344.055L103.742 348.82C103.326 349.888 102.753 350.995 102.023 352.141C101.32 353.286 100.422 354.367 99.3281 355.383C98.2344 356.372 96.9193 357.193 95.3828 357.844C93.8464 358.469 92.0234 358.781 89.9141 358.781C87.2318 358.781 84.7969 358.247 82.6094 357.18C80.4479 356.086 78.7292 354.589 77.4531 352.688C76.2031 350.76 75.5781 348.573 75.5781 346.125C75.5781 343.911 75.9948 341.945 76.8281 340.227C77.6615 338.508 78.8854 337.062 80.5 335.891C82.1406 334.693 84.1849 333.794 86.6328 333.195C89.0807 332.57 91.9193 332.258 95.1484 332.258H101.672ZM143.039 346.32C143.039 345.513 142.805 344.784 142.336 344.133C141.867 343.482 140.995 342.883 139.719 342.336C138.469 341.763 136.659 341.242 134.289 340.773C132.154 340.305 130.161 339.719 128.312 339.016C126.49 338.286 124.901 337.414 123.547 336.398C122.219 335.383 121.177 334.185 120.422 332.805C119.667 331.398 119.289 329.797 119.289 328C119.289 326.229 119.667 324.562 120.422 323C121.203 321.438 122.31 320.057 123.742 318.859C125.201 317.635 126.971 316.685 129.055 316.008C131.164 315.305 133.534 314.953 136.164 314.953C139.836 314.953 142.987 315.539 145.617 316.711C148.273 317.883 150.305 319.497 151.711 321.555C153.143 323.586 153.859 325.904 153.859 328.508H142.609C142.609 327.414 142.375 326.438 141.906 325.578C141.464 324.693 140.76 324.003 139.797 323.508C138.859 322.987 137.635 322.727 136.125 322.727C134.875 322.727 133.794 322.948 132.883 323.391C131.971 323.807 131.268 324.38 130.773 325.109C130.305 325.812 130.07 326.594 130.07 327.453C130.07 328.104 130.201 328.69 130.461 329.211C130.747 329.706 131.203 330.161 131.828 330.578C132.453 330.995 133.26 331.385 134.25 331.75C135.266 332.089 136.516 332.401 138 332.688C141.047 333.312 143.768 334.133 146.164 335.148C148.56 336.138 150.461 337.492 151.867 339.211C153.273 340.904 153.977 343.13 153.977 345.891C153.977 347.766 153.56 349.484 152.727 351.047C151.893 352.609 150.695 353.977 149.133 355.148C147.57 356.294 145.695 357.193 143.508 357.844C141.346 358.469 138.911 358.781 136.203 358.781C132.271 358.781 128.938 358.078 126.203 356.672C123.495 355.266 121.438 353.482 120.031 351.32C118.651 349.133 117.961 346.893 117.961 344.602H128.625C128.677 346.138 129.068 347.375 129.797 348.312C130.552 349.25 131.503 349.927 132.648 350.344C133.82 350.76 135.083 350.969 136.438 350.969C137.896 350.969 139.107 350.773 140.07 350.383C141.034 349.966 141.763 349.419 142.258 348.742C142.779 348.039 143.039 347.232 143.039 346.32ZM181.984 315.734V323.703H157.375V315.734H181.984ZM163.469 305.305H174.719V345.266C174.719 346.49 174.875 347.427 175.188 348.078C175.526 348.729 176.021 349.185 176.672 349.445C177.323 349.68 178.143 349.797 179.133 349.797C179.836 349.797 180.461 349.771 181.008 349.719C181.581 349.641 182.062 349.562 182.453 349.484L182.492 357.766C181.529 358.078 180.487 358.326 179.367 358.508C178.247 358.69 177.01 358.781 175.656 358.781C173.182 358.781 171.021 358.378 169.172 357.57C167.349 356.737 165.943 355.409 164.953 353.586C163.964 351.763 163.469 349.367 163.469 346.398V305.305Z" fill="#2FA4DA"/>
<path d="M2538.71 358H2527.38V311.984C2527.38 308.781 2528.01 306.086 2529.26 303.898C2530.53 301.685 2532.32 300.018 2534.61 298.898C2536.93 297.753 2539.67 297.18 2542.85 297.18C2543.89 297.18 2544.9 297.258 2545.86 297.414C2546.82 297.544 2547.76 297.714 2548.67 297.922L2548.55 306.398C2548.06 306.268 2547.54 306.177 2546.99 306.125C2546.45 306.073 2545.81 306.047 2545.08 306.047C2543.72 306.047 2542.57 306.281 2541.6 306.75C2540.66 307.193 2539.95 307.857 2539.45 308.742C2538.96 309.628 2538.71 310.708 2538.71 311.984V358ZM2547.15 315.734V323.703H2521.09V315.734H2547.15ZM2578.05 347.883V315.734H2589.3V358H2578.71L2578.05 347.883ZM2579.3 339.211L2582.62 339.133C2582.62 341.945 2582.29 344.562 2581.64 346.984C2580.99 349.38 2580.01 351.464 2578.71 353.234C2577.41 354.979 2575.77 356.346 2573.79 357.336C2571.81 358.299 2569.48 358.781 2566.8 358.781C2564.74 358.781 2562.84 358.495 2561.09 357.922C2559.38 357.323 2557.89 356.398 2556.64 355.148C2555.42 353.872 2554.45 352.245 2553.75 350.266C2553.07 348.26 2552.73 345.852 2552.73 343.039V315.734H2563.98V343.117C2563.98 344.367 2564.13 345.422 2564.41 346.281C2564.73 347.141 2565.16 347.844 2565.7 348.391C2566.25 348.938 2566.89 349.328 2567.62 349.562C2568.37 349.797 2569.21 349.914 2570.12 349.914C2572.43 349.914 2574.26 349.445 2575.59 348.508C2576.94 347.57 2577.89 346.294 2578.44 344.68C2579.01 343.039 2579.3 341.216 2579.3 339.211ZM2618.59 315.734V323.703H2593.98V315.734H2618.59ZM2600.08 305.305H2611.33V345.266C2611.33 346.49 2611.48 347.427 2611.8 348.078C2612.14 348.729 2612.63 349.185 2613.28 349.445C2613.93 349.68 2614.75 349.797 2615.74 349.797C2616.45 349.797 2617.07 349.771 2617.62 349.719C2618.19 349.641 2618.67 349.562 2619.06 349.484L2619.1 357.766C2618.14 358.078 2617.1 358.326 2615.98 358.508C2614.86 358.69 2613.62 358.781 2612.27 358.781C2609.79 358.781 2607.63 358.378 2605.78 357.57C2603.96 356.737 2602.55 355.409 2601.56 353.586C2600.57 351.763 2600.08 349.367 2600.08 346.398V305.305ZM2650 347.883V315.734H2661.25V358H2650.66L2650 347.883ZM2651.25 339.211L2654.57 339.133C2654.57 341.945 2654.24 344.562 2653.59 346.984C2652.94 349.38 2651.97 351.464 2650.66 353.234C2649.36 354.979 2647.72 356.346 2645.74 357.336C2643.76 358.299 2641.43 358.781 2638.75 358.781C2636.69 358.781 2634.79 358.495 2633.05 357.922C2631.33 357.323 2629.84 356.398 2628.59 355.148C2627.37 353.872 2626.41 352.245 2625.7 350.266C2625.03 348.26 2624.69 345.852 2624.69 343.039V315.734H2635.94V343.117C2635.94 344.367 2636.08 345.422 2636.37 346.281C2636.68 347.141 2637.11 347.844 2637.66 348.391C2638.2 348.938 2638.84 349.328 2639.57 349.562C2640.33 349.797 2641.16 349.914 2642.07 349.914C2644.39 349.914 2646.21 349.445 2647.54 348.508C2648.89 347.57 2649.84 346.294 2650.39 344.68C2650.96 343.039 2651.25 341.216 2651.25 339.211ZM2681.09 324.953V358H2669.84V315.734H2680.43L2681.09 324.953ZM2693.83 315.461L2693.63 325.891C2693.09 325.812 2692.42 325.747 2691.64 325.695C2690.89 325.617 2690.2 325.578 2689.57 325.578C2687.98 325.578 2686.6 325.786 2685.43 326.203C2684.28 326.594 2683.32 327.18 2682.54 327.961C2681.78 328.742 2681.21 329.693 2680.82 330.812C2680.46 331.932 2680.25 333.208 2680.2 334.641L2677.93 333.938C2677.93 331.203 2678.2 328.69 2678.75 326.398C2679.3 324.081 2680.09 322.062 2681.13 320.344C2682.2 318.625 2683.5 317.297 2685.04 316.359C2686.58 315.422 2688.33 314.953 2690.31 314.953C2690.94 314.953 2691.58 315.005 2692.23 315.109C2692.88 315.188 2693.41 315.305 2693.83 315.461ZM2717.81 358.781C2714.53 358.781 2711.59 358.26 2708.98 357.219C2706.38 356.151 2704.17 354.68 2702.34 352.805C2700.55 350.93 2699.17 348.755 2698.2 346.281C2697.24 343.781 2696.76 341.125 2696.76 338.312V336.75C2696.76 333.547 2697.21 330.617 2698.12 327.961C2699.04 325.305 2700.34 323 2702.03 321.047C2703.75 319.094 2705.83 317.596 2708.28 316.555C2710.73 315.487 2713.49 314.953 2716.56 314.953C2719.56 314.953 2722.21 315.448 2724.53 316.438C2726.85 317.427 2728.79 318.833 2730.35 320.656C2731.94 322.479 2733.14 324.667 2733.95 327.219C2734.75 329.745 2735.16 332.557 2735.16 335.656V340.344H2701.56V332.844H2724.1V331.984C2724.1 330.422 2723.82 329.029 2723.24 327.805C2722.7 326.555 2721.86 325.565 2720.74 324.836C2719.62 324.107 2718.19 323.742 2716.45 323.742C2714.96 323.742 2713.68 324.068 2712.62 324.719C2711.55 325.37 2710.68 326.281 2710 327.453C2709.35 328.625 2708.85 330.005 2708.52 331.594C2708.2 333.156 2708.05 334.875 2708.05 336.75V338.312C2708.05 340.005 2708.28 341.568 2708.75 343C2709.24 344.432 2709.93 345.669 2710.82 346.711C2711.73 347.753 2712.83 348.56 2714.1 349.133C2715.4 349.706 2716.88 349.992 2718.52 349.992C2720.55 349.992 2722.43 349.602 2724.18 348.82C2725.95 348.013 2727.47 346.802 2728.75 345.188L2734.22 351.125C2733.33 352.401 2732.12 353.625 2730.59 354.797C2729.08 355.969 2727.25 356.932 2725.12 357.688C2722.98 358.417 2720.55 358.781 2717.81 358.781Z" fill="#2FA4DA"/>
<path d="M2100.62 399.859V450.25H2089.38V391.734H2099.8L2100.62 399.859ZM2127.38 412.398V413.219C2127.38 416.292 2127.02 419.143 2126.29 421.773C2125.59 424.404 2124.54 426.695 2123.16 428.648C2121.78 430.576 2120.07 432.086 2118.01 433.18C2115.98 434.247 2113.63 434.781 2110.98 434.781C2108.4 434.781 2106.16 434.26 2104.26 433.219C2102.36 432.177 2100.76 430.719 2099.45 428.844C2098.18 426.943 2097.15 424.742 2096.37 422.242C2095.59 419.742 2094.99 417.06 2094.57 414.195V412.047C2094.99 408.974 2095.59 406.161 2096.37 403.609C2097.15 401.031 2098.18 398.805 2099.45 396.93C2100.76 395.029 2102.34 393.557 2104.22 392.516C2106.12 391.474 2108.35 390.953 2110.9 390.953C2113.58 390.953 2115.94 391.461 2117.97 392.477C2120.03 393.492 2121.74 394.951 2123.12 396.852C2124.53 398.753 2125.59 401.018 2126.29 403.648C2127.02 406.279 2127.38 409.195 2127.38 412.398ZM2116.09 413.219V412.398C2116.09 410.602 2115.94 408.948 2115.62 407.438C2115.34 405.901 2114.87 404.56 2114.22 403.414C2113.59 402.268 2112.76 401.383 2111.72 400.758C2110.7 400.107 2109.47 399.781 2108.01 399.781C2106.47 399.781 2105.16 400.029 2104.06 400.523C2102.99 401.018 2102.12 401.734 2101.45 402.672C2100.77 403.609 2100.26 404.729 2099.92 406.031C2099.58 407.333 2099.38 408.805 2099.3 410.445V415.875C2099.43 417.802 2099.79 419.534 2100.39 421.07C2100.99 422.581 2101.91 423.779 2103.16 424.664C2104.41 425.549 2106.05 425.992 2108.09 425.992C2109.57 425.992 2110.82 425.667 2111.84 425.016C2112.85 424.339 2113.67 423.414 2114.3 422.242C2114.95 421.07 2115.4 419.716 2115.66 418.18C2115.95 416.643 2116.09 414.99 2116.09 413.219ZM2145.62 400.953V434H2134.38V391.734H2144.96L2145.62 400.953ZM2158.36 391.461L2158.16 401.891C2157.62 401.812 2156.95 401.747 2156.17 401.695C2155.42 401.617 2154.73 401.578 2154.1 401.578C2152.51 401.578 2151.13 401.786 2149.96 402.203C2148.82 402.594 2147.85 403.18 2147.07 403.961C2146.32 404.742 2145.74 405.693 2145.35 406.812C2144.99 407.932 2144.78 409.208 2144.73 410.641L2142.46 409.938C2142.46 407.203 2142.73 404.69 2143.28 402.398C2143.83 400.081 2144.62 398.062 2145.66 396.344C2146.73 394.625 2148.03 393.297 2149.57 392.359C2151.11 391.422 2152.86 390.953 2154.84 390.953C2155.47 390.953 2156.11 391.005 2156.76 391.109C2157.41 391.188 2157.94 391.305 2158.36 391.461ZM2182.34 434.781C2179.06 434.781 2176.12 434.26 2173.52 433.219C2170.91 432.151 2168.7 430.68 2166.88 428.805C2165.08 426.93 2163.7 424.755 2162.73 422.281C2161.77 419.781 2161.29 417.125 2161.29 414.312V412.75C2161.29 409.547 2161.74 406.617 2162.66 403.961C2163.57 401.305 2164.87 399 2166.56 397.047C2168.28 395.094 2170.36 393.596 2172.81 392.555C2175.26 391.487 2178.02 390.953 2181.09 390.953C2184.09 390.953 2186.74 391.448 2189.06 392.438C2191.38 393.427 2193.32 394.833 2194.88 396.656C2196.47 398.479 2197.67 400.667 2198.48 403.219C2199.28 405.745 2199.69 408.557 2199.69 411.656V416.344H2166.09V408.844H2188.63V407.984C2188.63 406.422 2188.35 405.029 2187.77 403.805C2187.23 402.555 2186.39 401.565 2185.27 400.836C2184.15 400.107 2182.72 399.742 2180.98 399.742C2179.49 399.742 2178.22 400.068 2177.15 400.719C2176.08 401.37 2175.21 402.281 2174.53 403.453C2173.88 404.625 2173.39 406.005 2173.05 407.594C2172.73 409.156 2172.58 410.875 2172.58 412.75V414.312C2172.58 416.005 2172.81 417.568 2173.28 419C2173.78 420.432 2174.47 421.669 2175.35 422.711C2176.26 423.753 2177.36 424.56 2178.63 425.133C2179.93 425.706 2181.41 425.992 2183.05 425.992C2185.08 425.992 2186.97 425.602 2188.71 424.82C2190.48 424.013 2192.01 422.802 2193.28 421.188L2198.75 427.125C2197.86 428.401 2196.65 429.625 2195.12 430.797C2193.61 431.969 2191.78 432.932 2189.65 433.688C2187.51 434.417 2185.08 434.781 2182.34 434.781ZM2228.95 422.32C2228.95 421.513 2228.71 420.784 2228.24 420.133C2227.77 419.482 2226.9 418.883 2225.62 418.336C2224.38 417.763 2222.57 417.242 2220.2 416.773C2218.06 416.305 2216.07 415.719 2214.22 415.016C2212.4 414.286 2210.81 413.414 2209.45 412.398C2208.12 411.383 2207.08 410.185 2206.33 408.805C2205.57 407.398 2205.2 405.797 2205.2 404C2205.2 402.229 2205.57 400.562 2206.33 399C2207.11 397.438 2208.22 396.057 2209.65 394.859C2211.11 393.635 2212.88 392.685 2214.96 392.008C2217.07 391.305 2219.44 390.953 2222.07 390.953C2225.74 390.953 2228.89 391.539 2231.52 392.711C2234.18 393.883 2236.21 395.497 2237.62 397.555C2239.05 399.586 2239.77 401.904 2239.77 404.508H2228.52C2228.52 403.414 2228.28 402.438 2227.81 401.578C2227.37 400.693 2226.67 400.003 2225.7 399.508C2224.77 398.987 2223.54 398.727 2222.03 398.727C2220.78 398.727 2219.7 398.948 2218.79 399.391C2217.88 399.807 2217.17 400.38 2216.68 401.109C2216.21 401.812 2215.98 402.594 2215.98 403.453C2215.98 404.104 2216.11 404.69 2216.37 405.211C2216.65 405.706 2217.11 406.161 2217.73 406.578C2218.36 406.995 2219.17 407.385 2220.16 407.75C2221.17 408.089 2222.42 408.401 2223.91 408.688C2226.95 409.312 2229.67 410.133 2232.07 411.148C2234.47 412.138 2236.37 413.492 2237.77 415.211C2239.18 416.904 2239.88 419.13 2239.88 421.891C2239.88 423.766 2239.47 425.484 2238.63 427.047C2237.8 428.609 2236.6 429.977 2235.04 431.148C2233.48 432.294 2231.6 433.193 2229.41 433.844C2227.25 434.469 2224.82 434.781 2222.11 434.781C2218.18 434.781 2214.84 434.078 2212.11 432.672C2209.4 431.266 2207.34 429.482 2205.94 427.32C2204.56 425.133 2203.87 422.893 2203.87 420.602H2214.53C2214.58 422.138 2214.97 423.375 2215.7 424.312C2216.46 425.25 2217.41 425.927 2218.55 426.344C2219.73 426.76 2220.99 426.969 2222.34 426.969C2223.8 426.969 2225.01 426.773 2225.98 426.383C2226.94 425.966 2227.67 425.419 2228.16 424.742C2228.68 424.039 2228.95 423.232 2228.95 422.32ZM2266.64 434.781C2263.36 434.781 2260.42 434.26 2257.81 433.219C2255.21 432.151 2252.99 430.68 2251.17 428.805C2249.38 426.93 2247.99 424.755 2247.03 422.281C2246.07 419.781 2245.59 417.125 2245.59 414.312V412.75C2245.59 409.547 2246.04 406.617 2246.95 403.961C2247.86 401.305 2249.17 399 2250.86 397.047C2252.58 395.094 2254.66 393.596 2257.11 392.555C2259.56 391.487 2262.32 390.953 2265.39 390.953C2268.39 390.953 2271.04 391.448 2273.36 392.438C2275.68 393.427 2277.62 394.833 2279.18 396.656C2280.77 398.479 2281.97 400.667 2282.77 403.219C2283.58 405.745 2283.98 408.557 2283.98 411.656V416.344H2250.39V408.844H2272.93V407.984C2272.93 406.422 2272.64 405.029 2272.07 403.805C2271.52 402.555 2270.69 401.565 2269.57 400.836C2268.45 400.107 2267.02 399.742 2265.27 399.742C2263.79 399.742 2262.51 400.068 2261.45 400.719C2260.38 401.37 2259.51 402.281 2258.83 403.453C2258.18 404.625 2257.68 406.005 2257.34 407.594C2257.03 409.156 2256.88 410.875 2256.88 412.75V414.312C2256.88 416.005 2257.11 417.568 2257.58 419C2258.07 420.432 2258.76 421.669 2259.65 422.711C2260.56 423.753 2261.65 424.56 2262.93 425.133C2264.23 425.706 2265.7 425.992 2267.34 425.992C2269.38 425.992 2271.26 425.602 2273.01 424.82C2274.78 424.013 2276.3 422.802 2277.58 421.188L2283.05 427.125C2282.16 428.401 2280.95 429.625 2279.41 430.797C2277.9 431.969 2276.08 432.932 2273.95 433.688C2271.81 434.417 2269.38 434.781 2266.64 434.781ZM2301.41 400.758V434H2290.16V391.734H2300.7L2301.41 400.758ZM2299.77 411.383H2296.72C2296.72 408.258 2297.12 405.445 2297.93 402.945C2298.74 400.419 2299.87 398.271 2301.33 396.5C2302.79 394.703 2304.52 393.336 2306.52 392.398C2308.55 391.435 2310.82 390.953 2313.32 390.953C2315.3 390.953 2317.11 391.24 2318.75 391.812C2320.39 392.385 2321.8 393.297 2322.97 394.547C2324.17 395.797 2325.08 397.451 2325.7 399.508C2326.35 401.565 2326.68 404.078 2326.68 407.047V434H2315.35V407.008C2315.35 405.133 2315.09 403.674 2314.57 402.633C2314.05 401.591 2313.28 400.862 2312.27 400.445C2311.28 400.003 2310.05 399.781 2308.59 399.781C2307.08 399.781 2305.77 400.081 2304.65 400.68C2303.55 401.279 2302.64 402.112 2301.91 403.18C2301.21 404.221 2300.68 405.445 2300.31 406.852C2299.95 408.258 2299.77 409.768 2299.77 411.383ZM2355.94 391.734V399.703H2331.33V391.734H2355.94ZM2337.42 381.305H2348.67V421.266C2348.67 422.49 2348.83 423.427 2349.14 424.078C2349.48 424.729 2349.97 425.185 2350.62 425.445C2351.28 425.68 2352.1 425.797 2353.09 425.797C2353.79 425.797 2354.41 425.771 2354.96 425.719C2355.53 425.641 2356.02 425.562 2356.41 425.484L2356.45 433.766C2355.48 434.078 2354.44 434.326 2353.32 434.508C2352.2 434.69 2350.96 434.781 2349.61 434.781C2347.14 434.781 2344.97 434.378 2343.12 433.57C2341.3 432.737 2339.9 431.409 2338.91 429.586C2337.92 427.763 2337.42 425.367 2337.42 422.398V381.305Z" fill="#2FA4DA"/>
<path d="M1466.45 423.062L1475.23 391.734H1482.38L1480.08 404.039L1471.29 434H1465.31L1466.45 423.062ZM1461.99 391.734L1468.28 423.023L1468.87 434H1461.84L1451.13 391.734H1461.99ZM1490.43 422.516L1496.56 391.734H1507.46L1496.76 434H1489.77L1490.43 422.516ZM1483.36 391.734L1492.11 422.828L1493.32 434H1487.3L1478.52 404.078L1476.29 391.734H1483.36ZM1535.94 424.469V405.641C1535.94 404.286 1535.72 403.128 1535.27 402.164C1534.83 401.174 1534.14 400.406 1533.2 399.859C1532.29 399.312 1531.11 399.039 1529.65 399.039C1528.4 399.039 1527.32 399.26 1526.41 399.703C1525.49 400.12 1524.79 400.732 1524.3 401.539C1523.8 402.32 1523.55 403.245 1523.55 404.312H1512.3C1512.3 402.516 1512.72 400.81 1513.55 399.195C1514.39 397.581 1515.6 396.161 1517.19 394.938C1518.78 393.688 1520.66 392.711 1522.85 392.008C1525.07 391.305 1527.54 390.953 1530.27 390.953C1533.55 390.953 1536.47 391.5 1539.02 392.594C1541.58 393.688 1543.58 395.328 1545.04 397.516C1546.52 399.703 1547.27 402.438 1547.27 405.719V423.805C1547.27 426.122 1547.41 428.023 1547.7 429.508C1547.98 430.966 1548.4 432.242 1548.95 433.336V434H1537.58C1537.03 432.854 1536.61 431.422 1536.33 429.703C1536.07 427.958 1535.94 426.214 1535.94 424.469ZM1537.42 408.258L1537.5 414.625H1531.21C1529.73 414.625 1528.44 414.794 1527.34 415.133C1526.25 415.471 1525.35 415.953 1524.65 416.578C1523.95 417.177 1523.42 417.88 1523.09 418.688C1522.77 419.495 1522.62 420.38 1522.62 421.344C1522.62 422.307 1522.84 423.18 1523.28 423.961C1523.72 424.716 1524.36 425.315 1525.2 425.758C1526.03 426.174 1527.01 426.383 1528.12 426.383C1529.82 426.383 1531.29 426.044 1532.54 425.367C1533.79 424.69 1534.75 423.857 1535.43 422.867C1536.13 421.878 1536.5 420.94 1536.52 420.055L1539.49 424.82C1539.08 425.888 1538.5 426.995 1537.77 428.141C1537.07 429.286 1536.17 430.367 1535.08 431.383C1533.98 432.372 1532.67 433.193 1531.13 433.844C1529.6 434.469 1527.77 434.781 1525.66 434.781C1522.98 434.781 1520.55 434.247 1518.36 433.18C1516.2 432.086 1514.48 430.589 1513.2 428.688C1511.95 426.76 1511.33 424.573 1511.33 422.125C1511.33 419.911 1511.74 417.945 1512.58 416.227C1513.41 414.508 1514.64 413.062 1516.25 411.891C1517.89 410.693 1519.93 409.794 1522.38 409.195C1524.83 408.57 1527.67 408.258 1530.9 408.258H1537.42ZM1576.64 391.734V399.703H1552.03V391.734H1576.64ZM1558.12 381.305H1569.38V421.266C1569.38 422.49 1569.53 423.427 1569.84 424.078C1570.18 424.729 1570.68 425.185 1571.33 425.445C1571.98 425.68 1572.8 425.797 1573.79 425.797C1574.49 425.797 1575.12 425.771 1575.66 425.719C1576.24 425.641 1576.72 425.562 1577.11 425.484L1577.15 433.766C1576.18 434.078 1575.14 434.326 1574.02 434.508C1572.9 434.69 1571.67 434.781 1570.31 434.781C1567.84 434.781 1565.68 434.378 1563.83 433.57C1562.01 432.737 1560.6 431.409 1559.61 429.586C1558.62 427.763 1558.12 425.367 1558.12 422.398V381.305ZM1602.5 434.781C1599.22 434.781 1596.28 434.26 1593.67 433.219C1591.07 432.151 1588.85 430.68 1587.03 428.805C1585.23 426.93 1583.85 424.755 1582.89 422.281C1581.93 419.781 1581.45 417.125 1581.45 414.312V412.75C1581.45 409.547 1581.9 406.617 1582.81 403.961C1583.72 401.305 1585.03 399 1586.72 397.047C1588.44 395.094 1590.52 393.596 1592.97 392.555C1595.42 391.487 1598.18 390.953 1601.25 390.953C1604.24 390.953 1606.9 391.448 1609.22 392.438C1611.54 393.427 1613.48 394.833 1615.04 396.656C1616.63 398.479 1617.83 400.667 1618.63 403.219C1619.44 405.745 1619.84 408.557 1619.84 411.656V416.344H1586.25V408.844H1608.79V407.984C1608.79 406.422 1608.5 405.029 1607.93 403.805C1607.38 402.555 1606.55 401.565 1605.43 400.836C1604.31 400.107 1602.88 399.742 1601.13 399.742C1599.65 399.742 1598.37 400.068 1597.3 400.719C1596.24 401.37 1595.36 402.281 1594.69 403.453C1594.04 404.625 1593.54 406.005 1593.2 407.594C1592.89 409.156 1592.73 410.875 1592.73 412.75V414.312C1592.73 416.005 1592.97 417.568 1593.44 419C1593.93 420.432 1594.62 421.669 1595.51 422.711C1596.42 423.753 1597.51 424.56 1598.79 425.133C1600.09 425.706 1601.56 425.992 1603.2 425.992C1605.23 425.992 1607.12 425.602 1608.87 424.82C1610.64 424.013 1612.16 422.802 1613.44 421.188L1618.91 427.125C1618.02 428.401 1616.81 429.625 1615.27 430.797C1613.76 431.969 1611.94 432.932 1609.8 433.688C1607.67 434.417 1605.23 434.781 1602.5 434.781ZM1637.5 400.953V434H1626.25V391.734H1636.84L1637.5 400.953ZM1650.23 391.461L1650.04 401.891C1649.49 401.812 1648.83 401.747 1648.05 401.695C1647.29 401.617 1646.6 401.578 1645.98 401.578C1644.39 401.578 1643.01 401.786 1641.84 402.203C1640.69 402.594 1639.73 403.18 1638.95 403.961C1638.19 404.742 1637.62 405.693 1637.23 406.812C1636.86 407.932 1636.65 409.208 1636.6 410.641L1634.34 409.938C1634.34 407.203 1634.61 404.69 1635.16 402.398C1635.7 400.081 1636.5 398.062 1637.54 396.344C1638.61 394.625 1639.91 393.297 1641.45 392.359C1642.98 391.422 1644.74 390.953 1646.72 390.953C1647.34 390.953 1647.98 391.005 1648.63 391.109C1649.28 391.188 1649.82 391.305 1650.23 391.461ZM1666.8 400.484V434H1655.51V391.734H1666.09L1666.8 400.484ZM1665.23 411.383H1662.11C1662.11 408.44 1662.46 405.732 1663.16 403.258C1663.89 400.758 1664.95 398.596 1666.33 396.773C1667.73 394.924 1669.47 393.492 1671.52 392.477C1673.58 391.461 1675.96 390.953 1678.67 390.953C1680.55 390.953 1682.27 391.24 1683.83 391.812C1685.39 392.359 1686.73 393.232 1687.85 394.43C1689 395.602 1689.88 397.138 1690.51 399.039C1691.13 400.914 1691.45 403.167 1691.45 405.797V434H1680.2V407.047C1680.2 405.12 1679.93 403.635 1679.41 402.594C1678.89 401.552 1678.15 400.823 1677.19 400.406C1676.25 399.99 1675.12 399.781 1673.79 399.781C1672.33 399.781 1671.05 400.081 1669.96 400.68C1668.89 401.279 1668.01 402.112 1667.3 403.18C1666.6 404.221 1666.08 405.445 1665.74 406.852C1665.4 408.258 1665.23 409.768 1665.23 411.383ZM1690.39 410.094L1686.37 410.602C1686.37 407.841 1686.71 405.276 1687.38 402.906C1688.09 400.536 1689.11 398.453 1690.47 396.656C1691.85 394.859 1693.55 393.466 1695.59 392.477C1697.62 391.461 1699.96 390.953 1702.62 390.953C1704.65 390.953 1706.5 391.253 1708.16 391.852C1709.83 392.424 1711.25 393.349 1712.42 394.625C1713.62 395.875 1714.53 397.516 1715.16 399.547C1715.81 401.578 1716.13 404.065 1716.13 407.008V434H1704.84V407.008C1704.84 405.055 1704.58 403.57 1704.06 402.555C1703.57 401.513 1702.84 400.797 1701.88 400.406C1700.94 399.99 1699.82 399.781 1698.52 399.781C1697.16 399.781 1695.98 400.055 1694.96 400.602C1693.95 401.122 1693.1 401.852 1692.42 402.789C1691.74 403.727 1691.24 404.82 1690.9 406.07C1690.56 407.294 1690.39 408.635 1690.39 410.094ZM1747.66 424.469V405.641C1747.66 404.286 1747.43 403.128 1746.99 402.164C1746.55 401.174 1745.86 400.406 1744.92 399.859C1744.01 399.312 1742.83 399.039 1741.37 399.039C1740.12 399.039 1739.04 399.26 1738.12 399.703C1737.21 400.12 1736.51 400.732 1736.02 401.539C1735.52 402.32 1735.27 403.245 1735.27 404.312H1724.02C1724.02 402.516 1724.44 400.81 1725.27 399.195C1726.11 397.581 1727.32 396.161 1728.91 394.938C1730.49 393.688 1732.38 392.711 1734.57 392.008C1736.78 391.305 1739.26 390.953 1741.99 390.953C1745.27 390.953 1748.19 391.5 1750.74 392.594C1753.29 393.688 1755.3 395.328 1756.76 397.516C1758.24 399.703 1758.98 402.438 1758.98 405.719V423.805C1758.98 426.122 1759.13 428.023 1759.41 429.508C1759.7 430.966 1760.12 432.242 1760.66 433.336V434H1749.3C1748.75 432.854 1748.33 431.422 1748.05 429.703C1747.79 427.958 1747.66 426.214 1747.66 424.469ZM1749.14 408.258L1749.22 414.625H1742.93C1741.45 414.625 1740.16 414.794 1739.06 415.133C1737.97 415.471 1737.07 415.953 1736.37 416.578C1735.66 417.177 1735.14 417.88 1734.8 418.688C1734.49 419.495 1734.34 420.38 1734.34 421.344C1734.34 422.307 1734.56 423.18 1735 423.961C1735.44 424.716 1736.08 425.315 1736.91 425.758C1737.75 426.174 1738.72 426.383 1739.84 426.383C1741.54 426.383 1743.01 426.044 1744.26 425.367C1745.51 424.69 1746.47 423.857 1747.15 422.867C1747.85 421.878 1748.22 420.94 1748.24 420.055L1751.21 424.82C1750.79 425.888 1750.22 426.995 1749.49 428.141C1748.79 429.286 1747.89 430.367 1746.8 431.383C1745.7 432.372 1744.39 433.193 1742.85 433.844C1741.32 434.469 1739.49 434.781 1737.38 434.781C1734.7 434.781 1732.27 434.247 1730.08 433.18C1727.92 432.086 1726.2 430.589 1724.92 428.688C1723.67 426.76 1723.05 424.573 1723.05 422.125C1723.05 419.911 1723.46 417.945 1724.3 416.227C1725.13 414.508 1726.35 413.062 1727.97 411.891C1729.61 410.693 1731.65 409.794 1734.1 409.195C1736.55 408.57 1739.39 408.258 1742.62 408.258H1749.14ZM1778.91 400.953V434H1767.66V391.734H1778.24L1778.91 400.953ZM1791.64 391.461L1791.45 401.891C1790.9 401.812 1790.23 401.747 1789.45 401.695C1788.7 401.617 1788.01 401.578 1787.38 401.578C1785.79 401.578 1784.41 401.786 1783.24 402.203C1782.1 402.594 1781.13 403.18 1780.35 403.961C1779.6 404.742 1779.02 405.693 1778.63 406.812C1778.27 407.932 1778.06 409.208 1778.01 410.641L1775.74 409.938C1775.74 407.203 1776.02 404.69 1776.56 402.398C1777.11 400.081 1777.9 398.062 1778.95 396.344C1780.01 394.625 1781.32 393.297 1782.85 392.359C1784.39 391.422 1786.15 390.953 1788.12 390.953C1788.75 390.953 1789.39 391.005 1790.04 391.109C1790.69 391.188 1791.22 391.305 1791.64 391.461ZM1808.2 373.961V434H1796.95V373.961H1808.2ZM1834.84 391.734L1816.48 412.672L1806.64 422.633L1802.54 414.508L1810.35 404.586L1821.33 391.734H1834.84ZM1823.16 434L1810.66 414.469L1818.44 407.672L1836.13 434H1823.16Z" fill="#D07839"/>
<path d="M875.227 62.3203C875.227 61.513 874.992 60.7839 874.523 60.1328C874.055 59.4818 873.182 58.8828 871.906 58.3359C870.656 57.763 868.846 57.2422 866.477 56.7734C864.341 56.3047 862.349 55.7188 860.5 55.0156C858.677 54.2865 857.089 53.4141 855.734 52.3984C854.406 51.3828 853.365 50.1849 852.609 48.8047C851.854 47.3984 851.477 45.7969 851.477 44C851.477 42.2292 851.854 40.5625 852.609 39C853.391 37.4375 854.497 36.0573 855.93 34.8594C857.388 33.6354 859.159 32.6849 861.242 32.0078C863.352 31.3047 865.721 30.9531 868.352 30.9531C872.023 30.9531 875.174 31.5391 877.805 32.7109C880.461 33.8828 882.492 35.4974 883.898 37.5547C885.331 39.5859 886.047 41.9036 886.047 44.5078H874.797C874.797 43.4141 874.562 42.4375 874.094 41.5781C873.651 40.6927 872.948 40.0026 871.984 39.5078C871.047 38.987 869.823 38.7266 868.312 38.7266C867.062 38.7266 865.982 38.9479 865.07 39.3906C864.159 39.8073 863.456 40.3802 862.961 41.1094C862.492 41.8125 862.258 42.5938 862.258 43.4531C862.258 44.1042 862.388 44.6901 862.648 45.2109C862.935 45.7057 863.391 46.1615 864.016 46.5781C864.641 46.9948 865.448 47.3854 866.438 47.75C867.453 48.0885 868.703 48.401 870.188 48.6875C873.234 49.3125 875.956 50.1328 878.352 51.1484C880.747 52.138 882.648 53.4922 884.055 55.2109C885.461 56.9036 886.164 59.1302 886.164 61.8906C886.164 63.7656 885.747 65.4844 884.914 67.0469C884.081 68.6094 882.883 69.9766 881.32 71.1484C879.758 72.2943 877.883 73.1927 875.695 73.8438C873.534 74.4688 871.099 74.7812 868.391 74.7812C864.458 74.7812 861.125 74.0781 858.391 72.6719C855.682 71.2656 853.625 69.4818 852.219 67.3203C850.839 65.1328 850.148 62.8932 850.148 60.6016H860.812C860.865 62.138 861.255 63.375 861.984 64.3125C862.74 65.25 863.69 65.9271 864.836 66.3438C866.008 66.7604 867.271 66.9688 868.625 66.9688C870.083 66.9688 871.294 66.7734 872.258 66.3828C873.221 65.9661 873.951 65.4193 874.445 64.7422C874.966 64.0391 875.227 63.2318 875.227 62.3203ZM914.172 31.7344V39.7031H889.562V31.7344H914.172ZM895.656 21.3047H906.906V61.2656C906.906 62.4896 907.062 63.4271 907.375 64.0781C907.714 64.7292 908.208 65.1849 908.859 65.4453C909.51 65.6797 910.331 65.7969 911.32 65.7969C912.023 65.7969 912.648 65.7708 913.195 65.7188C913.768 65.6406 914.25 65.5625 914.641 65.4844L914.68 73.7656C913.716 74.0781 912.674 74.3255 911.555 74.5078C910.435 74.6901 909.198 74.7812 907.844 74.7812C905.37 74.7812 903.208 74.3776 901.359 73.5703C899.536 72.737 898.13 71.4089 897.141 69.5859C896.151 67.763 895.656 65.3672 895.656 62.3984V21.3047ZM931.828 40.9531V74H920.578V31.7344H931.164L931.828 40.9531ZM944.562 31.4609L944.367 41.8906C943.82 41.8125 943.156 41.7474 942.375 41.6953C941.62 41.6172 940.93 41.5781 940.305 41.5781C938.716 41.5781 937.336 41.7865 936.164 42.2031C935.018 42.5938 934.055 43.1797 933.273 43.9609C932.518 44.7422 931.945 45.6927 931.555 46.8125C931.19 47.9323 930.982 49.2083 930.93 50.6406L928.664 49.9375C928.664 47.2031 928.938 44.6901 929.484 42.3984C930.031 40.0807 930.826 38.0625 931.867 36.3438C932.935 34.625 934.237 33.2969 935.773 32.3594C937.31 31.4219 939.068 30.9531 941.047 30.9531C941.672 30.9531 942.31 31.0052 942.961 31.1094C943.612 31.1875 944.146 31.3047 944.562 31.4609ZM968.547 74.7812C965.266 74.7812 962.323 74.2604 959.719 73.2188C957.115 72.151 954.901 70.6797 953.078 68.8047C951.281 66.9297 949.901 64.7552 948.938 62.2812C947.974 59.7812 947.492 57.125 947.492 54.3125V52.75C947.492 49.5469 947.948 46.6172 948.859 43.9609C949.771 41.3047 951.073 39 952.766 37.0469C954.484 35.0938 956.568 33.5964 959.016 32.5547C961.464 31.487 964.224 30.9531 967.297 30.9531C970.292 30.9531 972.948 31.4479 975.266 32.4375C977.583 33.4271 979.523 34.8333 981.086 36.6562C982.674 38.4792 983.872 40.6667 984.68 43.2188C985.487 45.7448 985.891 48.5573 985.891 51.6562V56.3438H952.297V48.8438H974.836V47.9844C974.836 46.4219 974.549 45.0286 973.977 43.8047C973.43 42.5547 972.596 41.5651 971.477 40.8359C970.357 40.1068 968.924 39.7422 967.18 39.7422C965.695 39.7422 964.419 40.0677 963.352 40.7188C962.284 41.3698 961.411 42.2812 960.734 43.4531C960.083 44.625 959.589 46.0052 959.25 47.5938C958.938 49.1562 958.781 50.875 958.781 52.75V54.3125C958.781 56.0052 959.016 57.5677 959.484 59C959.979 60.4323 960.669 61.6693 961.555 62.7109C962.466 63.7526 963.56 64.5599 964.836 65.1328C966.138 65.7057 967.609 65.9922 969.25 65.9922C971.281 65.9922 973.169 65.6016 974.914 64.8203C976.685 64.013 978.208 62.8021 979.484 61.1875L984.953 67.125C984.068 68.401 982.857 69.625 981.32 70.7969C979.81 71.9688 977.987 72.9323 975.852 73.6875C973.716 74.4167 971.281 74.7812 968.547 74.7812ZM1015.11 64.4688V45.6406C1015.11 44.2865 1014.89 43.1276 1014.45 42.1641C1014 41.1745 1013.31 40.4062 1012.38 39.8594C1011.46 39.3125 1010.28 39.0391 1008.82 39.0391C1007.57 39.0391 1006.49 39.2604 1005.58 39.7031C1004.67 40.1198 1003.96 40.7318 1003.47 41.5391C1002.97 42.3203 1002.73 43.2448 1002.73 44.3125H991.477C991.477 42.5156 991.893 40.8099 992.727 39.1953C993.56 37.5807 994.771 36.1615 996.359 34.9375C997.948 33.6875 999.836 32.7109 1002.02 32.0078C1004.24 31.3047 1006.71 30.9531 1009.45 30.9531C1012.73 30.9531 1015.64 31.5 1018.2 32.5938C1020.75 33.6875 1022.75 35.3281 1024.21 37.5156C1025.7 39.7031 1026.44 42.4375 1026.44 45.7188V63.8047C1026.44 66.1224 1026.58 68.0234 1026.87 69.5078C1027.15 70.9661 1027.57 72.2422 1028.12 73.3359V74H1016.75C1016.2 72.8542 1015.79 71.4219 1015.5 69.7031C1015.24 67.9583 1015.11 66.2135 1015.11 64.4688ZM1016.59 48.2578L1016.67 54.625H1010.38C1008.9 54.625 1007.61 54.7943 1006.52 55.1328C1005.42 55.4714 1004.52 55.9531 1003.82 56.5781C1003.12 57.1771 1002.6 57.8802 1002.26 58.6875C1001.95 59.4948 1001.79 60.3802 1001.79 61.3438C1001.79 62.3073 1002.01 63.1797 1002.45 63.9609C1002.9 64.7161 1003.53 65.3151 1004.37 65.7578C1005.2 66.1745 1006.18 66.3828 1007.3 66.3828C1008.99 66.3828 1010.46 66.0443 1011.71 65.3672C1012.96 64.6901 1013.92 63.8568 1014.6 62.8672C1015.3 61.8776 1015.67 60.9401 1015.7 60.0547L1018.66 64.8203C1018.25 65.888 1017.67 66.9948 1016.95 68.1406C1016.24 69.2865 1015.34 70.3672 1014.25 71.3828C1013.16 72.3724 1011.84 73.1927 1010.3 73.8438C1008.77 74.4688 1006.95 74.7812 1004.84 74.7812C1002.15 74.7812 999.719 74.2474 997.531 73.1797C995.37 72.0859 993.651 70.5885 992.375 68.6875C991.125 66.7604 990.5 64.5729 990.5 62.125C990.5 59.9115 990.917 57.9453 991.75 56.2266C992.583 54.5078 993.807 53.0625 995.422 51.8906C997.062 50.6927 999.107 49.7943 1001.55 49.1953C1004 48.5703 1006.84 48.2578 1010.07 48.2578H1016.59ZM1046.36 40.4844V74H1035.07V31.7344H1045.66L1046.36 40.4844ZM1044.8 51.3828H1041.67C1041.67 48.4401 1042.02 45.7318 1042.73 43.2578C1043.46 40.7578 1044.51 38.5964 1045.89 36.7734C1047.3 34.9245 1049.03 33.4922 1051.09 32.4766C1053.14 31.4609 1055.53 30.9531 1058.23 30.9531C1060.11 30.9531 1061.83 31.2396 1063.39 31.8125C1064.95 32.3594 1066.29 33.2318 1067.41 34.4297C1068.56 35.6016 1069.45 37.138 1070.07 39.0391C1070.7 40.9141 1071.01 43.1667 1071.01 45.7969V74H1059.76V47.0469C1059.76 45.1198 1059.5 43.6354 1058.98 42.5938C1058.46 41.5521 1057.71 40.8229 1056.75 40.4062C1055.81 39.9896 1054.68 39.7812 1053.35 39.7812C1051.89 39.7812 1050.62 40.0807 1049.52 40.6797C1048.46 41.2786 1047.57 42.112 1046.87 43.1797C1046.16 44.2214 1045.64 45.4453 1045.3 46.8516C1044.97 48.2578 1044.8 49.7682 1044.8 51.3828ZM1069.95 50.0938L1065.93 50.6016C1065.93 47.8411 1066.27 45.276 1066.95 42.9062C1067.65 40.5365 1068.68 38.4531 1070.03 36.6562C1071.41 34.8594 1073.12 33.4661 1075.15 32.4766C1077.18 31.4609 1079.52 30.9531 1082.18 30.9531C1084.21 30.9531 1086.06 31.2526 1087.73 31.8516C1089.39 32.4245 1090.81 33.349 1091.98 34.625C1093.18 35.875 1094.09 37.5156 1094.72 39.5469C1095.37 41.5781 1095.7 44.0651 1095.7 47.0078V74H1084.41V47.0078C1084.41 45.0547 1084.15 43.5703 1083.62 42.5547C1083.13 41.513 1082.4 40.7969 1081.44 40.4062C1080.5 39.9896 1079.38 39.7812 1078.08 39.7812C1076.72 39.7812 1075.54 40.0547 1074.52 40.6016C1073.51 41.1224 1072.66 41.8516 1071.98 42.7891C1071.31 43.7266 1070.8 44.8203 1070.46 46.0703C1070.12 47.2943 1069.95 48.6354 1069.95 50.0938ZM1135.58 40.9531V74H1124.33V31.7344H1134.91L1135.58 40.9531ZM1148.31 31.4609L1148.12 41.8906C1147.57 41.8125 1146.91 41.7474 1146.12 41.6953C1145.37 41.6172 1144.68 41.5781 1144.05 41.5781C1142.47 41.5781 1141.09 41.7865 1139.91 42.2031C1138.77 42.5938 1137.8 43.1797 1137.02 43.9609C1136.27 44.7422 1135.7 45.6927 1135.3 46.8125C1134.94 47.9323 1134.73 49.2083 1134.68 50.6406L1132.41 49.9375C1132.41 47.2031 1132.69 44.6901 1133.23 42.3984C1133.78 40.0807 1134.58 38.0625 1135.62 36.3438C1136.68 34.625 1137.99 33.2969 1139.52 32.3594C1141.06 31.4219 1142.82 30.9531 1144.8 30.9531C1145.42 30.9531 1146.06 31.0052 1146.71 31.1094C1147.36 31.1875 1147.9 31.3047 1148.31 31.4609ZM1172.3 74.7812C1169.02 74.7812 1166.07 74.2604 1163.47 73.2188C1160.86 72.151 1158.65 70.6797 1156.83 68.8047C1155.03 66.9297 1153.65 64.7552 1152.69 62.2812C1151.72 59.7812 1151.24 57.125 1151.24 54.3125V52.75C1151.24 49.5469 1151.7 46.6172 1152.61 43.9609C1153.52 41.3047 1154.82 39 1156.52 37.0469C1158.23 35.0938 1160.32 33.5964 1162.77 32.5547C1165.21 31.487 1167.97 30.9531 1171.05 30.9531C1174.04 30.9531 1176.7 31.4479 1179.02 32.4375C1181.33 33.4271 1183.27 34.8333 1184.84 36.6562C1186.42 38.4792 1187.62 40.6667 1188.43 43.2188C1189.24 45.7448 1189.64 48.5573 1189.64 51.6562V56.3438H1156.05V48.8438H1178.59V47.9844C1178.59 46.4219 1178.3 45.0286 1177.73 43.8047C1177.18 42.5547 1176.35 41.5651 1175.23 40.8359C1174.11 40.1068 1172.67 39.7422 1170.93 39.7422C1169.45 39.7422 1168.17 40.0677 1167.1 40.7188C1166.03 41.3698 1165.16 42.2812 1164.48 43.4531C1163.83 44.625 1163.34 46.0052 1163 47.5938C1162.69 49.1562 1162.53 50.875 1162.53 52.75V54.3125C1162.53 56.0052 1162.77 57.5677 1163.23 59C1163.73 60.4323 1164.42 61.6693 1165.3 62.7109C1166.22 63.7526 1167.31 64.5599 1168.59 65.1328C1169.89 65.7057 1171.36 65.9922 1173 65.9922C1175.03 65.9922 1176.92 65.6016 1178.66 64.8203C1180.43 64.013 1181.96 62.8021 1183.23 61.1875L1188.7 67.125C1187.82 68.401 1186.61 69.625 1185.07 70.7969C1183.56 71.9688 1181.74 72.9323 1179.6 73.6875C1177.47 74.4167 1175.03 74.7812 1172.3 74.7812ZM1213.51 65.9922C1214.89 65.9922 1216.11 65.7318 1217.18 65.2109C1218.25 64.6641 1219.08 63.9089 1219.68 62.9453C1220.3 61.9557 1220.63 60.7969 1220.66 59.4688H1231.24C1231.22 62.4375 1230.42 65.0807 1228.86 67.3984C1227.3 69.6901 1225.2 71.5 1222.57 72.8281C1219.94 74.1302 1217 74.7812 1213.74 74.7812C1210.46 74.7812 1207.6 74.2344 1205.15 73.1406C1202.73 72.0469 1200.71 70.5365 1199.09 68.6094C1197.48 66.6562 1196.27 64.3906 1195.46 61.8125C1194.65 59.2083 1194.25 56.4219 1194.25 53.4531V52.3203C1194.25 49.3255 1194.65 46.5391 1195.46 43.9609C1196.27 41.3568 1197.48 39.0911 1199.09 37.1641C1200.71 35.2109 1202.73 33.6875 1205.15 32.5938C1207.57 31.5 1210.41 30.9531 1213.66 30.9531C1217.13 30.9531 1220.16 31.6172 1222.77 32.9453C1225.4 34.2734 1227.45 36.1745 1228.94 38.6484C1230.45 41.0964 1231.22 44 1231.24 47.3594H1220.66C1220.63 45.9531 1220.33 44.6771 1219.76 43.5312C1219.21 42.3854 1218.4 41.474 1217.34 40.7969C1216.29 40.0938 1215.01 39.7422 1213.47 39.7422C1211.83 39.7422 1210.49 40.0938 1209.45 40.7969C1208.4 41.474 1207.6 42.4115 1207.02 43.6094C1206.45 44.7812 1206.05 46.1224 1205.81 47.6328C1205.6 49.1172 1205.5 50.6797 1205.5 52.3203V53.4531C1205.5 55.0938 1205.6 56.6693 1205.81 58.1797C1206.02 59.6901 1206.41 61.0312 1206.98 62.2031C1207.58 63.375 1208.4 64.2995 1209.45 64.9766C1210.49 65.6536 1211.84 65.9922 1213.51 65.9922ZM1235.97 53.2969V52.4766C1235.97 49.3776 1236.41 46.526 1237.3 43.9219C1238.18 41.2917 1239.47 39.013 1241.16 37.0859C1242.86 35.1589 1244.94 33.6615 1247.41 32.5938C1249.89 31.5 1252.73 30.9531 1255.93 30.9531C1259.13 30.9531 1261.98 31.5 1264.48 32.5938C1266.98 33.6615 1269.08 35.1589 1270.77 37.0859C1272.49 39.013 1273.79 41.2917 1274.68 43.9219C1275.57 46.526 1276.01 49.3776 1276.01 52.4766V53.2969C1276.01 56.3698 1275.57 59.2214 1274.68 61.8516C1273.79 64.4557 1272.49 66.7344 1270.77 68.6875C1269.08 70.6146 1267 72.112 1264.52 73.1797C1262.05 74.2474 1259.21 74.7812 1256.01 74.7812C1252.8 74.7812 1249.95 74.2474 1247.45 73.1797C1244.98 72.112 1242.88 70.6146 1241.16 68.6875C1239.47 66.7344 1238.18 64.4557 1237.3 61.8516C1236.41 59.2214 1235.97 56.3698 1235.97 53.2969ZM1247.22 52.4766V53.2969C1247.22 55.0677 1247.38 56.7214 1247.69 58.2578C1248 59.7943 1248.49 61.1484 1249.17 62.3203C1249.88 63.4661 1250.79 64.3646 1251.91 65.0156C1253.03 65.6667 1254.39 65.9922 1256.01 65.9922C1257.57 65.9922 1258.91 65.6667 1260.03 65.0156C1261.15 64.3646 1262.05 63.4661 1262.73 62.3203C1263.4 61.1484 1263.9 59.7943 1264.21 58.2578C1264.55 56.7214 1264.72 55.0677 1264.72 53.2969V52.4766C1264.72 50.7578 1264.55 49.1432 1264.21 47.6328C1263.9 46.0964 1263.39 44.7422 1262.69 43.5703C1262.01 42.3724 1261.11 41.4349 1259.99 40.7578C1258.87 40.0807 1257.52 39.7422 1255.93 39.7422C1254.34 39.7422 1252.99 40.0807 1251.87 40.7578C1250.77 41.4349 1249.88 42.3724 1249.17 43.5703C1248.49 44.7422 1248 46.0964 1247.69 47.6328C1247.38 49.1432 1247.22 50.7578 1247.22 52.4766ZM1294.17 40.9531V74H1282.92V31.7344H1293.51L1294.17 40.9531ZM1306.91 31.4609L1306.71 41.8906C1306.16 41.8125 1305.5 41.7474 1304.72 41.6953C1303.96 41.6172 1303.27 41.5781 1302.65 41.5781C1301.06 41.5781 1299.68 41.7865 1298.51 42.2031C1297.36 42.5938 1296.4 43.1797 1295.62 43.9609C1294.86 44.7422 1294.29 45.6927 1293.9 46.8125C1293.53 47.9323 1293.33 49.2083 1293.27 50.6406L1291.01 49.9375C1291.01 47.2031 1291.28 44.6901 1291.83 42.3984C1292.38 40.0807 1293.17 38.0625 1294.21 36.3438C1295.28 34.625 1296.58 33.2969 1298.12 32.3594C1299.65 31.4219 1301.41 30.9531 1303.39 30.9531C1304.02 30.9531 1304.65 31.0052 1305.3 31.1094C1305.96 31.1875 1306.49 31.3047 1306.91 31.4609ZM1336.4 64.7812V14H1347.73V74H1337.53L1336.4 64.7812ZM1309.68 53.375V52.5547C1309.68 49.3255 1310.04 46.3958 1310.77 43.7656C1311.5 41.1094 1312.57 38.8307 1313.98 36.9297C1315.38 35.0286 1317.11 33.5573 1319.17 32.5156C1321.23 31.474 1323.57 30.9531 1326.2 30.9531C1328.68 30.9531 1330.84 31.474 1332.69 32.5156C1334.56 33.5573 1336.15 35.0417 1337.45 36.9688C1338.78 38.8698 1339.85 41.1224 1340.66 43.7266C1341.46 46.3047 1342.05 49.1302 1342.41 52.2031V54C1342.05 56.9427 1341.46 59.6771 1340.66 62.2031C1339.85 64.7292 1338.78 66.9427 1337.45 68.8438C1336.15 70.7188 1334.56 72.1771 1332.69 73.2188C1330.81 74.2604 1328.62 74.7812 1326.12 74.7812C1323.49 74.7812 1321.15 74.2474 1319.09 73.1797C1317.06 72.112 1315.34 70.6146 1313.94 68.6875C1312.56 66.7604 1311.5 64.4948 1310.77 61.8906C1310.04 59.2865 1309.68 56.4479 1309.68 53.375ZM1320.93 52.5547V53.375C1320.93 55.1198 1321.06 56.7474 1321.32 58.2578C1321.61 59.7682 1322.06 61.1094 1322.69 62.2812C1323.34 63.4271 1324.17 64.3255 1325.19 64.9766C1326.23 65.6016 1327.49 65.9141 1328.98 65.9141C1330.9 65.9141 1332.49 65.4844 1333.74 64.625C1334.99 63.7396 1335.94 62.5286 1336.59 60.9922C1337.27 59.4557 1337.66 57.6849 1337.77 55.6797V50.5625C1337.69 48.9219 1337.45 47.4505 1337.06 46.1484C1336.7 44.8203 1336.15 43.6875 1335.42 42.75C1334.72 41.8125 1333.83 41.0833 1332.77 40.5625C1331.72 40.0417 1330.49 39.7812 1329.05 39.7812C1327.6 39.7812 1326.35 40.1198 1325.3 40.7969C1324.26 41.4479 1323.42 42.3464 1322.77 43.4922C1322.14 44.638 1321.67 45.9922 1321.36 47.5547C1321.07 49.0911 1320.93 50.7578 1320.93 52.5547ZM1379.37 62.3203C1379.37 61.513 1379.13 60.7839 1378.66 60.1328C1378.2 59.4818 1377.32 58.8828 1376.05 58.3359C1374.8 57.763 1372.99 57.2422 1370.62 56.7734C1368.48 56.3047 1366.49 55.7188 1364.64 55.0156C1362.82 54.2865 1361.23 53.4141 1359.88 52.3984C1358.55 51.3828 1357.51 50.1849 1356.75 48.8047C1355.99 47.3984 1355.62 45.7969 1355.62 44C1355.62 42.2292 1355.99 40.5625 1356.75 39C1357.53 37.4375 1358.64 36.0573 1360.07 34.8594C1361.53 33.6354 1363.3 32.6849 1365.38 32.0078C1367.49 31.3047 1369.86 30.9531 1372.49 30.9531C1376.16 30.9531 1379.32 31.5391 1381.95 32.7109C1384.6 33.8828 1386.63 35.4974 1388.04 37.5547C1389.47 39.5859 1390.19 41.9036 1390.19 44.5078H1378.94C1378.94 43.4141 1378.7 42.4375 1378.23 41.5781C1377.79 40.6927 1377.09 40.0026 1376.12 39.5078C1375.19 38.987 1373.96 38.7266 1372.45 38.7266C1371.2 38.7266 1370.12 38.9479 1369.21 39.3906C1368.3 39.8073 1367.6 40.3802 1367.1 41.1094C1366.63 41.8125 1366.4 42.5938 1366.4 43.4531C1366.4 44.1042 1366.53 44.6901 1366.79 45.2109C1367.08 45.7057 1367.53 46.1615 1368.16 46.5781C1368.78 46.9948 1369.59 47.3854 1370.58 47.75C1371.59 48.0885 1372.84 48.401 1374.33 48.6875C1377.38 49.3125 1380.1 50.1328 1382.49 51.1484C1384.89 52.138 1386.79 53.4922 1388.2 55.2109C1389.6 56.9036 1390.3 59.1302 1390.3 61.8906C1390.3 63.7656 1389.89 65.4844 1389.05 67.0469C1388.22 68.6094 1387.02 69.9766 1385.46 71.1484C1383.9 72.2943 1382.02 73.1927 1379.84 73.8438C1377.67 74.4688 1375.24 74.7812 1372.53 74.7812C1368.6 74.7812 1365.27 74.0781 1362.53 72.6719C1359.82 71.2656 1357.77 69.4818 1356.36 67.3203C1354.98 65.1328 1354.29 62.8932 1354.29 60.6016H1364.95C1365.01 62.138 1365.4 63.375 1366.12 64.3125C1366.88 65.25 1367.83 65.9271 1368.98 66.3438C1370.15 66.7604 1371.41 66.9688 1372.77 66.9688C1374.22 66.9688 1375.43 66.7734 1376.4 66.3828C1377.36 65.9661 1378.09 65.4193 1378.59 64.7422C1379.11 64.0391 1379.37 63.2318 1379.37 62.3203Z" fill="#888888"/>
<line x1="2213.5" y1="358" x2="2213.5" y2="251" stroke="#2FA4DA" stroke-width="15"/>
<line x1="1623.5" y1="358" x2="1623.5" y2="251" stroke="#D07839" stroke-width="15"/>
<path d="M2857 256L2757 198.265V313.735L2857 256ZM28 266H2767V246H28V266Z" fill="#2FA4DA"/>
<circle cx="1020.5" cy="149.5" r="33.5" fill="#888888"/>
<circle cx="870.5" cy="149.5" r="33.5" fill="#888888"/>
<circle cx="1108.5" cy="149.5" r="33.5" fill="#888888"/>
<circle cx="718.5" cy="149.5" r="33.5" fill="#888888"/>
<circle cx="618.5" cy="149.5" r="33.5" fill="#888888"/>
<circle cx="358.5" cy="149.5" r="33.5" fill="#888888"/>
<circle cx="98.5" cy="149.5" r="33.5" fill="#888888"/>
<circle cx="1359.5" cy="149.5" r="33.5" fill="#888888"/>
<circle cx="1490.5" cy="149.5" r="33.5" fill="#888888"/>
<circle cx="1671.5" cy="149.5" r="33.5" fill="#888888"/>
<circle cx="1852.5" cy="149.5" r="33.5" fill="#888888"/>
<circle cx="1964.5" cy="149.5" r="33.5" fill="#888888"/>
</svg>
