<svg width="566" height="659" viewBox="0 0 566 659" fill="none" xmlns="http://www.w3.org/2000/svg">
<path d="M79.2381 288.568C79.2381 288.568 65.4091 245.589 72.5522 188.093C79.6952 130.596 144.669 34.3498 210.328 13.1459C275.987 -8.05807 345.189 8.97366 373.476 39.7794C401.762 70.5851 436.392 121.566 480.85 130.996C525.309 140.427 546.509 126.367 549.424 101.448C549.424 101.448 571.424 162.488 557.367 222.042C543.366 281.653 500.165 319.66 455.25 319.203C410.391 318.803 390.448 289.997 370.333 290.112C350.218 290.226 318.331 301.885 310.959 360.753C303.588 419.621 250.329 488.263 250.329 488.263L82.6096 293.598L79.2381 288.568Z" fill="#DD6628"/>
<path d="M250.5 493.521L80.0952 295.77L76.0951 289.597C75.5236 287.825 62.0947 245.246 69.2377 187.693C76.838 126.881 144.269 31.0349 209.299 10.0596C277.53 -11.9445 347.589 6.74467 375.876 37.6075C381.419 43.6087 387.076 50.2956 393.133 57.3826C418.277 86.931 446.735 120.48 481.536 127.853C504.908 132.825 523.023 131.282 533.938 123.452C540.909 118.48 545.024 110.935 546.167 101.105L547.767 87.2739L552.51 100.362C553.424 102.877 574.682 163.002 560.567 222.842C546.681 281.653 503.765 322.518 455.992 322.518C455.707 322.518 455.478 322.518 455.192 322.518C427.591 322.289 409.305 311.716 394.619 303.257C385.133 297.77 377.647 293.484 370.39 293.484C370.333 293.484 370.333 293.484 370.275 293.484C355.932 293.541 321.76 300.342 314.159 361.268C306.788 420.364 255.072 487.577 252.9 490.434L250.5 493.521ZM82.2667 287.14L85.3525 291.769L250.215 483.119C260.615 468.945 301.473 410.591 307.759 360.41C315.988 294.341 354.275 286.968 370.333 286.854C370.39 286.854 370.447 286.854 370.447 286.854C379.419 286.854 387.99 291.826 397.933 297.541C411.934 305.6 429.42 315.659 455.307 315.945C455.535 315.945 455.764 315.945 456.049 315.945C500.737 315.945 541.081 277.138 554.224 221.356C564.396 178.262 555.195 133.854 549.709 113.736C547.138 119.909 543.138 124.938 537.766 128.824C525.137 137.912 505.765 139.741 480.164 134.311C443.192 126.481 413.934 92.0748 388.105 61.6691C382.104 54.6393 376.447 47.9523 371.018 42.0655C344.103 12.7458 277.015 -4.85748 211.299 16.3465C148.383 36.6359 83.0667 129.567 75.7522 188.55C69.1806 241.645 80.8952 282.624 82.2667 287.14Z" fill="black"/>
<path opacity="0.17" d="M73.1808 251.819C67.6949 229.586 68.152 205.867 74.4951 183.863C74.8951 200.495 77.4666 217.069 82.0382 233.072C83.4097 237.873 85.924 243.474 90.8956 244.16C94.4957 244.617 97.9815 242.045 99.6958 238.788C101.41 235.587 101.81 231.815 102.267 228.214C106.782 191.007 121.182 154.829 144.897 125.795C168.612 96.7614 201.699 75.2145 238.214 66.9273C218.614 74.643 199.299 84.3591 184.441 99.3333C169.641 114.307 159.755 135.397 162.269 156.315C162.784 160.773 165.012 166.089 169.469 166.26C172.384 166.374 174.784 164.031 176.784 161.916C197.013 140.712 219.242 121.052 244.957 106.992C270.615 92.8749 300.102 84.5877 329.246 87.1024C358.447 89.56 387.19 103.677 404.219 127.51C381.762 108.706 348.046 106.192 321.474 118.423C294.845 130.596 275.415 155.858 266.672 183.806C257.929 211.754 259.186 242.16 266.272 270.565C255.529 257.591 239.7 249.704 223.357 245.589C207.013 241.474 190.041 240.845 173.241 240.274" fill="#660000"/>
<path d="M557.424 222.099C571.482 162.545 549.481 101.505 549.481 101.505C546.567 126.481 525.366 140.541 480.908 131.053C465.821 127.853 451.935 119.851 438.963 109.507C440.335 127.281 449.364 144.313 463.421 155.287C456.107 160.259 448.735 165.174 441.421 170.146C445.878 168.946 450.678 168.889 455.135 169.918C449.535 175.976 444.964 183.006 441.706 190.607C448.392 192.15 455.421 192.036 462.05 190.322C458.793 204.839 448.221 217.527 434.563 223.299C442.335 223.528 449.878 227.7 454.221 234.215C450.621 233.301 446.792 233.472 443.306 234.787C451.192 241.017 457.193 249.647 460.335 259.134C447.078 258.449 433.706 260.963 421.534 266.393C426.849 270.336 432.106 274.28 437.42 278.224C434.278 277.938 431.077 277.709 427.935 277.423C431.077 280.91 434.278 284.396 437.42 287.883C434.335 287.197 431.306 286.568 428.22 285.882C431.592 291.712 436.106 296.856 441.478 300.971C434.106 303.6 426.277 304.914 418.448 304.743C426.792 310.744 436.049 315.316 445.764 318.631C448.792 318.974 451.935 319.203 455.25 319.203C500.165 319.66 543.367 281.653 557.424 222.099Z" fill="#FEF7D7"/>
<path d="M456.05 322.518C455.764 322.518 455.535 322.518 455.25 322.518C452.164 322.46 448.964 322.289 445.421 321.946L444.735 321.775C434.449 318.288 424.963 313.487 416.563 307.486L408.048 301.371L418.563 301.542C424.163 301.657 429.592 301.028 434.906 299.656C431.192 296.113 427.992 291.998 425.477 287.597L421.763 281.138L428.163 282.567L419.991 273.537L426.334 274.051L415.191 265.707L420.334 263.421C431.42 258.506 443.478 255.877 455.592 255.819C452.392 248.675 447.478 242.274 441.363 237.416L436.849 233.815L442.278 231.758C443.592 231.243 444.964 230.901 446.335 230.672C442.906 228.214 438.792 226.786 434.563 226.614L419.591 226.157L433.363 220.327C444.506 215.583 453.421 205.982 457.478 194.608C451.992 195.351 446.392 195.065 441.021 193.865L437.192 192.951L438.735 189.35C441.306 183.292 444.678 177.691 448.678 172.49C446.506 172.49 444.335 172.775 442.278 173.347L423.249 178.434L457.993 155.001C445.249 143.513 437.02 126.881 435.706 109.735L435.135 102.191L441.021 106.878C455.135 118.137 468.393 124.995 481.593 127.796C504.965 132.768 523.08 131.225 533.995 123.395C540.966 118.423 545.081 110.878 546.224 101.048L547.824 87.2167L552.567 100.305C553.481 102.82 574.739 162.945 560.624 222.785C546.738 281.653 503.822 322.518 456.05 322.518ZM446.449 315.431C449.649 315.773 452.507 315.945 455.307 315.945C455.535 315.945 455.764 315.945 456.05 315.945C500.737 315.945 541.081 277.138 554.224 221.356C564.396 178.262 555.195 133.854 549.71 113.736C547.138 119.909 543.138 124.938 537.766 128.824C525.137 137.912 505.765 139.741 480.165 134.311C468.05 131.739 455.878 126.024 443.306 116.994C446.278 130.996 454.164 143.97 465.421 152.772L468.964 155.572L453.078 166.26C453.992 166.374 454.907 166.546 455.821 166.774L461.307 168.032L457.478 172.147C453.078 176.948 449.364 182.32 446.449 188.093C451.364 188.721 456.392 188.378 461.193 187.121L466.393 185.749L465.193 191.007C462.393 203.581 454.507 214.783 443.878 221.927C449.135 223.985 453.764 227.643 456.907 232.329L461.707 239.531L453.307 237.359C452.392 237.13 451.421 236.959 450.507 236.902C456.278 242.903 460.793 250.218 463.421 258.106L464.964 262.678L460.164 262.449C449.364 261.935 438.392 263.535 428.22 267.25L448.621 282.453L435.992 281.367L446.735 293.255L435.706 290.855C437.992 293.655 440.621 296.17 443.478 298.342L448.278 301.999L442.621 304C438.106 305.6 433.477 306.743 428.734 307.372C434.277 310.63 440.221 313.259 446.449 315.431Z" fill="black"/>
<path opacity="0.17" d="M541.766 176.948C532.109 203.924 512.68 228.957 485.536 238.273C499.479 237.073 513.08 232.672 525.08 225.528C514.966 245.017 491.822 254.962 469.821 255.362C458.278 255.591 446.792 253.648 435.649 250.676C425.82 248.047 414.848 245.532 406.448 239.759C398.219 234.044 387.819 232.044 377.819 231.243C369.818 230.615 353.761 229.529 346.846 234.444C363.99 222.27 383.933 214.097 404.677 210.725C382.219 207.811 358.961 207.753 337.417 214.783C315.874 221.756 296.159 236.616 287.016 257.305C292.787 235.987 298.616 214.669 304.388 193.351C285.13 215.812 271.93 243.417 266.558 272.508C266.844 271.708 267.187 270.965 267.472 270.165L286.902 381.614C293.073 383.1 299.302 384.186 305.474 385.101C307.931 376.928 309.759 368.812 310.788 360.81C318.103 301.942 349.989 290.283 370.161 290.169C390.276 290.054 410.22 318.803 455.078 319.26C499.937 319.66 543.138 281.71 557.195 222.156C567.481 178.548 558.453 134.254 552.852 113.564C551.652 135.111 549.081 156.658 541.766 176.948Z" fill="#660000"/>
<path d="M101.867 264.907C99.3529 264.907 -2.99304 328.69 5.40722 452.827C3.75003 460.372 -4.65022 537.586 41.4655 585.366C87.5812 633.147 236.9 640.748 296.502 597.14C356.046 553.532 347.646 480.49 347.646 480.49C347.646 480.49 377.819 435.167 340.96 364.697C304.045 294.227 264.615 269.022 264.615 269.022C264.615 269.022 227.7 323.546 201.699 331.091C175.698 338.635 153.069 331.948 142.154 319.317C131.24 306.857 101.867 264.907 101.867 264.907Z" fill="#DD6628"/>
<path d="M179.413 629.546C122.954 629.546 65.5806 615.086 39.1226 587.71C-5.39301 541.587 -0.821436 466.887 2.09294 452.656C-2.70721 378.871 30.6652 326.575 59.5233 295.655C79.0096 274.794 98.7816 261.592 101.867 261.592H103.582L104.553 263.021C104.839 263.421 133.926 304.971 144.612 317.317C153.926 328.061 174.955 335.549 200.785 328.061C225.357 320.917 261.529 267.822 261.872 267.307L263.644 264.678L266.33 266.393C267.987 267.422 306.902 292.855 343.818 363.268C378.619 429.737 355.361 474.031 350.961 481.404C351.704 491.177 354.561 558.676 298.388 599.883C271.015 619.887 225.528 629.546 179.413 629.546ZM100.896 269.193C86.8384 278.224 1.00719 339.092 8.72171 452.599L8.77885 453.056L8.66458 453.513C8.49314 454.256 -3.45009 533.985 43.9228 583.08C89.2384 630.06 236.9 636.804 294.616 594.454C351.989 552.446 344.56 481.576 344.446 480.833L344.332 479.632L345.018 478.604C345.303 478.146 373.59 433.91 338.16 366.183C307.531 307.658 274.787 280.51 265.53 273.594C257.472 285.025 226.385 327.376 202.728 334.234C177.527 341.55 152.84 336.52 139.754 321.489C130.154 310.63 107.353 278.395 100.896 269.193Z" fill="black"/>
<path d="M171.984 95.6183C206.728 48.4095 274.73 40.0651 327.646 55.8395C272.558 49.8384 213.642 55.6109 171.984 95.6183Z" fill="black"/>
<path d="M154.669 131.053C163.241 110.078 181.013 92.7035 202.156 84.5877C183.298 96.7042 167.241 112.421 154.669 131.053Z" fill="black"/>
<path d="M327.131 85.6164C354.789 80.0154 379.019 100.705 395.705 120.423C376.047 104.306 354.161 84.6448 327.131 85.6164Z" fill="black"/>
<path d="M336.789 302.628C350.161 287.14 373.876 281.081 393.019 288.397C373.133 285.882 353.018 290.969 336.789 302.628Z" fill="black"/>
<path d="M301.645 287.14C309.588 260.335 336.103 239.816 363.99 238.902C337.189 244.56 313.817 262.621 301.645 287.14Z" fill="black"/>
<path opacity="0.47" d="M176.212 41.0939C204.213 23.6621 236.843 13.6602 269.872 12.4029C238.729 20.1757 208.213 31.2635 180.784 47.838C160.155 60.2975 141.297 75.9575 126.097 94.6467C124.268 96.9328 118.896 106.878 115.753 105.563C111.925 103.963 119.811 95.0468 121.239 93.0464C128.04 83.3875 135.811 74.3572 144.269 66.1271C153.983 56.6968 164.726 48.2952 176.212 41.0939Z" fill="#DD6628"/>
<path opacity="0.75" d="M71.6379 300.685C56.2089 322.517 40.6656 344.464 29.0081 368.469C17.4077 392.359 9.75032 418.65 10.7218 445.397C9.29317 424.594 10.2075 406.59 16.3791 386.358C22.7793 365.268 33.0082 345.265 46.3229 327.718C53.866 317.888 62.3233 308.744 71.6379 300.685Z" fill="#DD6628"/>
<path opacity="0.75" d="M35.3512 366.926C36.6084 367.154 37.7513 366.126 38.5513 365.097C41.9228 360.81 43.9229 355.381 44.0943 349.894C44.3229 342.064 35.3512 347.036 33.6369 351.323C32.494 354.238 31.3511 366.183 35.3512 366.926Z" fill="#DD6628"/>
<path opacity="0.75" d="M25.8651 383.5C24.8365 386.015 23.8079 388.53 22.7793 391.044L25.8651 383.5Z" fill="#DD6628"/>
<path opacity="0.75" d="M44.5513 604.398C44.0941 605.656 44.2084 607.142 44.837 608.342L44.5513 604.398Z" fill="#DD6628"/>
<path opacity="0.75" d="M302.445 556.561C303.931 558.047 305.416 559.59 306.902 561.076L302.445 556.561Z" fill="#DD6628"/>
<path opacity="0.17" d="M177.527 621.773C178.155 606.056 171.584 590.796 162.155 578.165C152.726 565.591 140.669 555.304 128.668 545.187C141.24 558.904 159.412 567.191 177.984 567.763C196.556 568.277 215.185 561.019 228.5 548.102C217.357 557.933 206.728 568.849 200.042 582.166C193.413 595.482 191.127 611.6 196.956 625.317C187.984 625.317 179.013 626.631 170.441 629.203" fill="#660000"/>
<path d="M270.73 272.794C276.044 257.534 279.473 241.645 280.958 225.585C276.844 241.017 280.158 258.277 289.702 271.137C291.702 273.823 294.387 276.509 297.702 276.338C300.102 276.223 302.102 274.566 303.931 273.023C314.788 263.878 325.588 254.676 336.446 245.532C324.388 256.677 311.531 269.308 309.645 285.654C307.931 300.913 316.274 315.316 324.274 328.404C306.559 311.201 288.787 293.998 271.072 276.852C267.244 282.282 263.472 287.768 259.644 293.198C264.615 282.339 269.644 271.537 274.615 260.677" fill="black"/>
<path d="M195.527 346.693C194.785 346.522 194.042 346.351 193.299 346.179L195.527 346.693Z" fill="black"/>
<path d="M78.2096 287.311C83.124 286.625 88.0385 289.083 91.7529 292.398C95.4673 295.712 98.2673 299.885 101.467 303.714C113.582 318.288 130.897 327.318 147.755 336.006C130.44 327.09 115.239 305.2 105.868 288.797C102.096 282.167 99.4102 268.908 89.6385 272.622C80.4382 276.109 73.6952 289.14 69.5236 297.199C68.9522 292.283 73.5237 287.997 78.2096 287.311Z" fill="black"/>
<path d="M160.783 569.306C167.412 579.937 174.041 590.567 180.67 601.141C181.755 602.912 183.298 604.856 185.356 604.627C187.641 604.341 188.556 601.598 189.127 599.426C191.242 591.196 195.47 583.537 201.242 577.308C189.127 590.453 191.47 613.429 198.27 628.117C186.956 623.43 180.155 635.49 177.527 621.83C174.498 606.056 168.955 583.08 160.783 569.306Z" fill="black"/>
<path d="M4.43588 465.115C4.03587 495.578 9.4646 526.155 20.4364 554.561C15.5791 537.014 13.6933 518.611 14.9505 500.436C27.8652 509.238 45.5228 510.552 59.6376 503.751C44.8371 503.751 30.2081 497.121 20.3792 486.091C10.5504 475.06 5.69307 459.743 7.4074 445.055C5.00733 456.6 4.7216 468.602 6.66452 480.261" fill="black"/>
<path d="M317.245 489.634C309.816 488.663 302.502 487.062 295.359 484.833C303.531 487.863 311.531 491.292 319.302 495.178C321.703 496.378 324.16 497.693 325.874 499.75C328.56 503.008 328.96 507.58 328.96 511.81C329.017 526.498 325.874 541.13 320.96 555.018C316.159 552.732 311.359 550.503 306.559 548.217C314.388 552.332 318.96 560.733 323.074 568.563C330.789 560.562 335.189 549.988 339.246 539.586C342.96 530.042 346.618 520.44 348.732 510.381C349.646 505.98 350.275 501.522 350.503 497.064C350.618 494.092 351.532 488.32 349.361 485.919C347.589 483.919 344.503 484.605 342.332 485.519C338.617 487.005 335.646 489.12 331.589 489.806C326.846 490.663 321.988 490.263 317.245 489.634Z" fill="black"/>
<path opacity="0.47" d="M186.784 103.62C230.786 69.8421 290.73 57.8399 344.389 72.1282C295.473 71.2709 246.443 87.331 207.585 116.994C212.556 108.535 218.957 100.876 226.385 94.4752C208.156 98.3045 191.242 108.421 179.355 122.766C185.527 111.507 193.984 101.505 204.099 93.5608" fill="#DD6628"/>
<path opacity="0.47" d="M353.132 120.88C381.99 125.281 409.762 136.94 433.02 154.601C425.363 159.573 417.648 164.545 409.991 169.518C414.963 167.803 419.877 166.089 424.849 164.374C410.677 177.462 393.305 187.178 374.733 192.322C385.019 185.978 396.505 177.691 396.905 165.631C397.133 157.916 392.39 150.771 386.276 146.085C380.161 141.398 372.79 138.769 365.532 136.254C369.247 135.34 372.961 134.483 376.676 133.568C361.075 132.425 345.303 133.74 330.103 137.512C343.075 130.253 358.504 127.396 373.19 129.567" fill="#DD6628"/>
<path opacity="0.47" d="M268.787 20.3472C295.988 17.2038 324.217 23.605 347.418 38.1791C323.246 30.692 296.959 30.1204 272.501 36.5788C279.073 33.9497 285.587 31.3207 292.159 28.6344C266.044 26.1768 239.357 30.6348 215.471 41.3225C235.529 30.2919 257.872 23.3763 280.73 21.2617" fill="#DD6628"/>
<path opacity="0.47" d="M367.418 54.1249C373.761 58.4685 380.104 62.8122 386.447 67.1559L367.418 54.1249Z" fill="#DD6628"/>
<path opacity="0.47" d="M129.583 314.63C140.611 327.433 155.183 337.206 171.241 342.578L129.583 314.63Z" fill="#DD6628"/>
<path d="M80.0952 644.406C80.0952 644.406 55.4659 657.265 39.5226 634.918C23.5792 612.571 37.2368 556.618 83.4096 545.702C129.582 534.785 173.755 573.364 176.555 606.685C179.355 639.948 144.669 666.524 118.668 651.15C118.668 651.15 107.467 654.808 95.7528 651.721C84.0382 648.635 80.0952 644.406 80.0952 644.406Z" fill="#DD6628"/>
<path d="M135.011 658.866C129.183 658.866 123.468 657.494 118.268 654.693C114.725 655.608 105.068 657.551 94.9529 654.922C86.667 652.75 81.924 650.007 79.581 648.292C72.8951 650.978 51.4659 657.38 36.894 636.862C28.4366 624.974 27.5794 605.027 34.6654 586.109C43.1228 563.648 60.609 547.759 82.6668 542.558C104.496 537.357 128.383 542.673 148.212 557.018C166.269 570.106 178.384 589.024 179.87 606.456C181.413 624.574 172.327 642.634 156.726 652.407C149.755 656.637 142.269 658.866 135.011 658.866ZM119.068 647.549L120.325 648.292C130.268 654.179 142.269 653.608 153.183 646.749C166.669 638.29 174.555 622.63 173.241 606.913C171.927 591.367 160.841 574.279 144.269 562.276C126.04 549.017 104.096 544.159 84.0954 548.902C64.2091 553.589 48.3801 567.992 40.7227 588.395C34.4368 605.084 35.0082 623.03 42.1513 633.032C56.266 652.865 77.581 642.005 78.4953 641.548L80.7239 640.405L82.3811 642.177C82.6097 642.348 86.3241 645.892 96.4958 648.521C107.182 651.321 117.468 648.064 117.582 648.007L119.068 647.549Z" fill="black"/>
<path d="M123.182 588.052C118.782 605.37 115.925 623.03 117.582 640.805C118.268 646.406 120.039 651.95 124.782 656.065C102.096 647.378 110.325 602.684 123.182 588.052Z" fill="black"/>
<path d="M76.9523 583.252C72.5521 605.942 74.8379 626.688 83.9239 647.949C66.552 632.346 63.3519 602.169 76.9523 583.252Z" fill="black"/>
<path d="M116.154 603.255C113.582 597.14 110.953 591.71 107.811 585.938C114.268 588.51 118.211 596.568 116.154 603.255Z" fill="black"/>
<path d="M72.038 597.711C71.0094 591.425 68.895 586.109 65.2949 580.908C72.1523 582.509 75.8667 591.825 72.038 597.711Z" fill="black"/>
<path opacity="0.17" d="M176.555 606.627C176.441 605.599 176.213 604.57 176.041 603.541C174.441 596.911 171.755 590.51 167.584 585.138C167.698 593.368 166.155 601.826 161.469 608.571C156.783 615.315 148.555 619.944 140.44 618.801C132.668 617.715 126.04 611.143 124.611 603.427C123.182 595.711 127.011 587.367 133.64 583.137C126.611 581.594 121.239 593.082 114.382 590.853C109.011 589.081 109.125 580.565 104.21 577.765C107.41 584.68 110.668 591.768 111.868 599.312C113.011 606.856 111.811 615.143 106.896 620.973C101.982 626.86 92.8958 629.375 86.3242 625.488C81.524 622.573 78.9525 616.972 77.7525 611.485C75.2381 599.883 77.5239 587.31 84.0384 577.422C80.9525 580.966 76.0381 582.852 71.3523 582.166C66.6664 581.537 62.4377 578.394 60.4376 574.164C67.4664 583.937 68.9522 597.426 64.2663 608.513C62.152 613.429 58.0376 618.401 52.7231 618.23C47.6373 618.058 43.8657 613.372 41.9799 608.628C38.037 598.797 39.2942 587.024 45.2943 578.279C41.9228 581.708 39.1227 585.595 36.9512 589.824C31.2367 606.856 32.1511 624.516 39.5799 634.918C55.5232 657.265 80.1525 644.406 80.1525 644.406C80.1525 644.406 84.0955 648.578 95.8102 651.664C107.582 654.751 118.725 651.093 118.725 651.093C144.669 666.524 179.356 639.948 176.555 606.627Z" fill="#660000"/>
<path opacity="0.75" d="M70.8951 555.875C84.4955 549.417 100.325 548.331 115.011 551.589C99.0674 550.331 82.724 554.503 69.2951 563.305C55.7518 572.164 45.9801 585.252 40.2656 600.34C41.1228 590.967 42.8371 583.766 47.9801 575.822C54.0375 566.506 61.9806 561.819 70.8951 555.875Z" fill="#DD6628"/>
<path d="M289.988 640.462C289.988 640.462 314.617 653.322 330.56 630.975C346.504 608.628 332.846 552.675 286.673 541.758C240.5 530.842 196.328 569.421 193.528 602.741C190.727 636.061 225.414 662.581 251.415 647.206C251.415 647.206 262.615 650.864 274.33 647.778C286.045 644.692 289.988 640.462 289.988 640.462Z" fill="#DD6628"/>
<path d="M235.072 654.922C227.757 654.922 220.271 652.75 213.357 648.407C197.756 638.633 188.727 620.573 190.213 602.455C191.699 585.081 203.813 566.106 221.871 553.018C241.643 538.672 265.53 533.357 287.416 538.558C309.474 543.759 326.96 559.647 335.417 582.109C342.561 601.026 341.703 620.973 333.189 632.861C318.56 653.379 297.188 646.921 290.502 644.292C288.159 646.006 283.416 648.75 275.13 650.921C265.015 653.55 255.358 651.607 251.815 650.693C246.615 653.493 240.9 654.922 235.072 654.922ZM270.673 543.13C255.186 543.13 239.472 548.388 225.757 558.276C209.185 570.278 198.099 587.367 196.785 602.912C195.47 618.63 203.356 634.29 216.842 642.748C227.757 649.607 239.757 650.178 249.701 644.292L250.958 643.549L252.386 644.006C252.501 644.063 262.844 647.321 273.473 644.52C283.873 641.777 287.587 638.176 287.587 638.176L289.302 636.462L291.473 637.547C292.388 638.005 313.76 648.75 327.817 629.032C334.96 619.03 335.532 601.084 329.246 584.395C321.588 563.991 305.759 549.588 285.873 544.902C280.902 543.759 275.816 543.13 270.673 543.13Z" fill="black"/>
<path d="M246.901 584.109C259.758 598.683 268.044 643.434 245.243 652.122C249.986 648.007 251.758 642.405 252.444 636.862C254.158 619.087 251.301 601.426 246.901 584.109Z" fill="black"/>
<path d="M293.131 579.308C306.788 598.226 303.531 628.403 286.159 644.006C295.245 622.745 297.531 601.998 293.131 579.308Z" fill="black"/>
<path d="M253.986 599.312C251.929 592.625 255.815 584.509 262.33 581.994C259.129 587.824 256.501 593.196 253.986 599.312Z" fill="black"/>
<path d="M298.045 593.768C294.216 587.881 297.931 578.565 304.788 576.965C301.245 582.166 299.074 587.481 298.045 593.768Z" fill="black"/>
<path opacity="0.17" d="M329.989 630.918C335.303 623.431 337.246 612.228 335.875 600.169C334.275 601.998 332.503 603.655 330.56 605.084C324.789 609.199 316.731 610.971 310.502 607.542C305.359 604.684 302.445 598.797 301.931 592.968C301.416 587.138 302.902 581.308 304.845 575.765C303.359 578.679 300.045 580.623 296.788 580.508C293.531 580.394 290.388 578.337 289.016 575.307C291.93 583.366 294.902 591.71 294.216 600.226C293.53 608.742 288.102 617.544 279.759 619.258C271.244 621.03 262.558 614.743 259.301 606.685C256.044 598.626 257.244 589.424 259.929 581.137C259.015 585.023 255.529 588.11 251.644 588.681C247.701 589.196 243.529 587.138 241.643 583.652C245.415 589.539 248.843 595.825 250.101 602.684C251.301 609.542 249.986 617.201 245.243 622.288C237.815 630.175 224.957 629.546 214.9 625.545C208.842 623.088 203.013 619.544 199.07 614.343C195.127 609.085 193.299 601.998 195.47 595.825C194.385 600.512 193.642 605.256 193.185 609.999C195.585 639.662 226.957 661.323 251.015 647.092C251.015 647.092 262.215 650.75 273.93 647.664C285.702 644.577 289.588 640.405 289.588 640.405C289.588 640.405 314.045 653.322 329.989 630.918Z" fill="#660000"/>
<path opacity="0.75" d="M199.928 594.282C205.871 578.622 217.128 565.02 231.472 556.389C245.815 547.702 263.072 544.044 279.702 546.045C262.844 550.846 246.101 556.904 231.7 566.791C217.243 576.679 205.185 590.91 200.728 607.828C201.128 602.169 202.614 596.568 205.014 591.482" fill="#DD6628"/>
<path opacity="0.17" d="M3.5787 472.088C3.06439 500.093 12.4361 528.213 29.6938 550.331C26.7794 541.472 23.9222 532.671 21.1221 523.755C20.3221 521.183 19.6363 518.154 21.3507 516.096C23.7507 513.181 28.3795 514.839 31.8081 516.382C48.8944 524.155 69.4664 523.755 86.2098 515.296C94.61 511.067 102.325 504.837 111.639 503.351C125.297 501.179 138.154 509.695 148.955 518.268C159.812 526.841 171.469 536.329 185.241 536.5C200.785 536.729 213.585 525.184 226.385 516.268C245.815 502.722 269.872 494.035 293.13 498.322C316.388 502.608 337.475 522.612 337.703 546.273C343.703 525.469 347.075 503.865 347.646 482.204C340.846 488.263 331.417 490.663 322.331 490.377C313.245 490.091 304.388 487.462 295.816 484.548C274.73 477.346 253.986 468.316 231.871 466.03C215.471 464.315 198.613 466.43 182.498 462.886C169.527 460.029 156.326 453.513 143.583 457.4C135.754 459.8 129.583 465.744 123.525 471.288C112.382 481.461 100.267 490.892 86.3241 496.721C72.3808 502.551 56.4375 504.551 42.0942 499.865C22.8364 493.521 8.49315 474.489 7.63598 454.256" fill="#660000"/>
<path d="M127.925 457.686C129.183 466.601 130.497 475.575 133.411 484.033C136.326 492.549 140.954 500.665 147.983 506.323C154.898 511.924 163.641 514.782 171.127 519.583C174.67 521.812 178.213 523.583 181.584 526.098C182.613 526.841 183.641 527.698 184.898 527.813C185.927 527.87 186.899 527.47 187.756 526.955C191.127 525.069 196.042 523.526 197.413 519.868C203.128 517.068 206.671 513.639 212.499 511.067C218.328 508.495 223.985 505.18 228.214 500.436C232.671 495.407 235.3 488.948 236.671 482.319C237.986 476.089 238.157 469.745 238.557 463.458C238.729 460.486 238.672 457.628 239.414 454.714C240.157 451.627 241.243 448.598 242.272 445.569C244.215 439.739 245.757 433.338 243.643 427.623C241.929 422.993 237.986 419.564 233.871 416.821C226.614 411.963 218.214 408.762 209.528 407.448C195.585 405.39 181.87 404.304 167.812 404.647C153.755 404.99 139.526 407.562 126.954 413.963" fill="#DC9A6A"/>
<path d="M185.07 529.47C184.956 529.47 184.841 529.47 184.727 529.47C183.013 529.356 181.641 528.327 180.613 527.47C178.498 525.87 176.441 524.669 174.212 523.355C172.898 522.555 171.527 521.812 170.212 520.954C167.184 519.011 163.869 517.354 160.669 515.753C155.983 513.41 151.126 511.01 146.897 507.58C140.269 502.208 135.24 494.492 131.811 484.548C128.84 475.86 127.525 466.716 126.268 457.857L129.525 457.4C130.783 466.087 132.04 475.06 134.954 483.462C138.154 492.778 142.84 500.036 149.012 505.009C152.955 508.209 157.412 510.438 162.155 512.781C165.412 514.439 168.841 516.096 171.984 518.154C173.298 519.011 174.555 519.754 175.87 520.497C178.098 521.755 180.327 523.069 182.498 524.727C183.413 525.412 184.213 526.041 184.956 526.098C185.698 526.212 186.384 525.755 186.899 525.47C187.641 525.012 188.499 524.612 189.356 524.212C192.099 522.84 194.956 521.469 195.813 519.24L196.042 518.611L196.613 518.325C199.185 517.068 201.413 515.582 203.528 514.21C205.985 512.61 208.556 510.895 211.756 509.467C218.671 506.38 223.471 503.123 226.957 499.236C230.786 494.892 233.528 489.063 235.014 481.861C236.157 476.546 236.443 470.945 236.729 465.516L236.957 461.4C237.071 459.057 237.186 456.657 237.757 454.142C238.386 451.57 239.243 449.055 240.043 446.598L240.614 444.826C242.386 439.454 243.986 433.281 241.986 427.966C240.614 424.365 237.757 421.164 232.843 417.907C225.757 413.163 217.585 410.02 209.185 408.819C194.156 406.59 180.613 405.676 167.755 406.019C152.212 406.419 138.726 409.505 127.64 415.163L126.154 412.248C137.697 406.362 151.64 403.161 167.698 402.761C180.727 402.418 194.499 403.333 209.699 405.562C218.557 406.876 227.243 410.191 234.671 415.163C240.157 418.821 243.472 422.536 245.072 426.765C247.415 432.995 245.7 439.911 243.757 445.798L243.186 447.569C242.386 449.913 241.586 452.37 240.957 454.771C240.443 456.943 240.329 459.114 240.214 461.4L239.986 465.516C239.7 471.059 239.357 476.775 238.214 482.376C236.614 490.092 233.643 496.436 229.414 501.236C225.643 505.523 220.442 509.009 213.128 512.267C210.156 513.582 207.813 515.125 205.356 516.725C203.299 518.097 201.185 519.468 198.613 520.783C197.127 523.812 193.756 525.47 190.784 526.898C189.984 527.298 189.184 527.699 188.499 528.099C187.699 528.899 186.499 529.47 185.07 529.47Z" fill="black"/>
<path d="M220.442 468.316C216.785 476.946 210.328 484.433 202.27 489.291C199.813 490.777 197.013 492.035 194.213 491.692C189.242 491.006 186.384 485.748 184.613 481.004C179.241 466.373 176.784 450.656 177.355 435.053C175.413 444.769 174.327 454.714 174.098 464.601C170.898 454.999 167.641 444.997 169.127 435.053C170.612 425.051 178.327 415.221 188.441 414.992C184.67 414.192 181.356 411.334 179.984 407.733C179.527 409.848 179.127 411.963 178.67 414.077C174.155 411.391 170.727 406.876 169.241 401.847C168.898 402.875 168.269 403.847 167.298 404.361C164.784 405.562 161.412 403.676 161.126 400.932C161.012 400.132 161.298 399.389 161.641 398.646C156.326 399.903 151.183 401.675 146.326 404.133L147.183 442.14C148.269 449.856 149.412 457.685 151.926 465.058C154.44 472.431 158.498 479.518 164.555 484.433C170.555 489.291 178.155 491.806 184.67 495.978C187.756 497.922 190.842 499.408 193.756 501.637C194.613 502.322 195.585 503.065 196.67 503.123C197.527 503.18 198.385 502.837 199.185 502.38C202.156 500.722 206.385 499.35 207.585 496.207C212.557 493.749 215.642 490.777 220.671 488.548C220.728 488.548 220.785 488.491 220.842 488.491C225.471 479.061 227.7 468.659 229.871 458.429C226.443 464.944 222.957 471.459 219.528 477.975C218.671 474.717 219.014 471.231 220.442 468.316Z" fill="#976A49"/>
<path d="M184.213 366.183C184.098 363.782 184.041 361.268 185.356 359.267C186.441 357.61 188.27 356.695 190.041 355.838C192.499 354.581 194.956 353.38 197.527 352.295C198.956 351.666 200.499 351.094 202.042 351.266C203.585 351.437 205.185 352.58 205.299 354.123C205.413 355.381 204.556 356.581 203.528 357.324C202.499 358.067 201.299 358.524 200.156 359.153C199.013 359.782 197.927 360.639 197.585 361.839C197.127 363.325 197.756 364.983 197.413 366.469C197.07 367.783 196.042 368.755 194.842 369.383C193.642 370.012 192.327 370.184 191.013 370.412" fill="#9B6D28"/>
<path d="M184.213 366.183C183.984 363.954 183.756 361.496 184.899 359.324C186.156 357.153 188.441 356.01 190.384 354.981C194.499 353.209 204.328 346.179 206.099 354.295C206.099 358.524 200.442 358.924 198.556 361.325C197.185 362.754 198.842 365.497 197.299 367.783C195.756 369.898 193.184 370.241 190.956 370.469C193.127 370.012 195.585 369.269 196.613 367.383C197.813 365.668 195.927 363.154 197.527 360.639C199.185 358.41 201.528 357.953 203.242 356.695C204.956 355.438 204.899 353.266 203.013 352.466C199.87 350.98 194.042 355.095 190.899 356.181C186.099 357.724 183.87 361.039 184.213 366.183Z" fill="black"/>
<path d="M117.296 392.702C116.439 392.416 116.154 383.5 125.697 379.271C125.697 379.271 127.068 372.813 136.326 373.67C136.326 373.67 140.783 369.212 144.726 372.012C144.726 372.012 152.498 365.44 157.641 370.012C157.641 370.012 162.898 366.183 167.698 368.126C167.698 368.126 173.698 364.582 178.727 367.554C178.727 367.554 185.356 364.011 189.642 368.526C189.642 368.526 196.156 364.754 201.299 368.526C201.299 368.526 206.442 364.983 211.128 370.126C211.128 370.126 216.499 368.526 220.157 372.241C220.157 372.241 225.928 369.498 230.328 375.499C230.328 375.499 237.472 374.013 241.015 378.757C244.557 383.5 247.015 388.816 246.558 388.93C246.158 389.044 243.643 420.079 243.643 420.079L224.557 421.679C224.557 421.679 217.757 426.708 215.414 418.935C215.414 418.935 209.014 425.394 205.756 424.251C202.499 423.108 202.385 418.192 202.385 418.192C202.385 418.192 198.213 425.622 194.099 424.365C189.984 423.108 189.984 418.593 189.984 418.593C189.984 418.593 187.356 425.051 184.213 424.251C181.07 423.451 178.327 417.907 178.327 417.907C178.327 417.907 178.441 424.994 173.298 424.251C168.155 423.565 166.612 418.421 166.612 418.421C166.612 418.421 167.755 426.48 163.698 425.737C159.583 424.994 154.669 417.792 154.669 417.792C154.669 417.792 157.526 426.251 153.526 425.794C149.526 425.337 144.497 418.078 144.497 418.078C144.497 418.078 147.869 425.851 144.497 425.794C141.126 425.737 137.183 420.421 137.183 420.421L121.697 424.879L114.039 418.192L113.411 411.505" fill="#74401B"/>
<path d="M153.812 426.537C153.698 426.537 153.526 426.537 153.412 426.537C151.069 426.251 148.497 423.965 146.612 421.907C146.897 423.336 146.955 424.765 146.326 425.622C146.04 426.022 145.526 426.537 144.554 426.537H144.497C141.354 426.48 137.983 422.708 136.897 421.336L121.525 425.737L113.239 418.535L112.611 411.505L114.268 411.334L114.839 417.735L121.925 423.908L137.526 419.45L137.868 419.907C138.897 421.279 142.154 424.879 144.554 424.937C144.783 424.879 144.954 424.822 145.012 424.765C145.64 423.793 144.669 420.364 143.754 418.364L140.554 410.877L145.183 417.564C146.497 419.507 150.669 424.594 153.64 424.937C154.155 424.994 154.326 424.822 154.498 424.708C155.298 423.679 154.669 420.193 153.926 418.021L152.04 412.42L155.355 417.278C156.669 419.221 160.783 424.365 163.812 424.879C164.498 424.994 164.784 424.765 165.012 424.594C166.098 423.565 166.041 420.307 165.812 418.478L167.412 418.135C167.469 418.307 168.898 422.765 173.47 423.393C174.498 423.508 175.298 423.336 175.927 422.765C177.584 421.279 177.584 417.85 177.584 417.85L177.527 414.192L179.127 417.449C179.813 418.878 182.213 422.822 184.441 423.393C186.499 423.965 188.613 419.736 189.241 418.25L190.784 414.42V418.535C190.784 418.707 190.842 422.479 194.27 423.508C197.127 424.422 200.499 419.621 201.585 417.678L203.07 415.049L203.128 418.021C203.128 418.078 203.242 422.365 205.928 423.336C207.928 424.022 212.385 420.593 214.728 418.192L215.699 417.221L216.099 418.535C216.671 420.479 217.585 421.679 218.842 422.079C221.128 422.879 223.928 420.821 223.985 420.821L224.157 420.707H224.385L242.786 419.221C244.615 396.588 245.243 390.473 245.758 388.758C245.7 388.073 243.586 383.5 240.329 379.157C237.129 374.927 230.5 376.185 230.443 376.242L229.928 376.356L229.643 375.956C225.7 370.641 220.671 372.87 220.5 372.984L219.985 373.213L219.585 372.813C216.328 369.555 211.414 370.927 211.356 370.927L210.842 371.098L210.499 370.698C206.328 366.126 201.928 369.098 201.699 369.269L201.242 369.612L200.785 369.269C196.156 365.84 190.099 369.269 190.042 369.326L189.47 369.669L189.013 369.212C185.184 365.211 179.355 368.24 179.07 368.412L178.67 368.64L178.27 368.412C173.698 365.726 168.098 368.926 168.041 368.983L167.698 369.212L167.298 369.04C163.012 367.269 158.098 370.812 158.041 370.812L157.526 371.212L157.012 370.755C152.44 366.754 145.24 372.755 145.183 372.813L144.669 373.213L144.154 372.87C140.84 370.526 136.84 374.413 136.84 374.47L136.611 374.527H136.211C127.868 373.784 126.497 379.442 126.44 379.5L126.325 379.9L125.925 380.071C121.125 382.186 119.125 385.444 118.268 387.844C117.468 390.073 117.582 391.845 117.754 392.188C117.754 392.13 117.639 392.016 117.468 391.959L116.954 393.502C116.382 393.331 116.096 392.645 116.039 391.502C115.868 388.301 117.582 382.129 124.954 378.699C125.468 377.213 127.811 372.241 135.926 372.87C137.697 371.269 141.297 369.212 144.554 371.041C146.326 369.669 152.726 365.383 157.583 368.983C159.069 368.069 163.355 365.726 167.527 367.212C168.898 366.526 174.041 364.182 178.67 366.64C180.213 365.954 185.699 363.897 189.699 367.554C191.413 366.697 196.67 364.583 201.242 367.612C202.728 366.811 207.185 365.04 211.299 369.269C212.728 368.983 216.957 368.412 220.214 371.327C221.814 370.812 226.671 369.726 230.557 374.641C232.329 374.413 238.272 373.899 241.529 378.299C244.386 382.071 247.643 388.015 247.243 389.216L247.129 389.559C246.672 392.13 245.243 408.991 244.329 420.193L244.272 420.879L243.586 420.936L224.728 422.479C223.928 422.993 221.014 424.765 218.328 423.851C216.842 423.336 215.757 422.193 214.957 420.421C212.956 422.25 208.328 426.08 205.413 425.051C203.242 424.308 202.27 422.136 201.813 420.479C200.156 422.765 197.013 426.194 193.756 425.222C191.413 424.479 190.156 422.765 189.584 421.164C188.384 423.165 186.384 425.737 183.927 425.108C181.813 424.536 179.927 422.25 178.784 420.479C178.498 421.736 177.927 423.165 176.898 424.079C175.87 424.937 174.612 425.279 173.127 425.108C170.441 424.708 168.612 423.279 167.469 421.85C167.355 423.336 167.012 424.994 166.041 425.908C165.584 426.365 164.726 426.88 163.412 426.594C160.841 426.137 158.098 423.508 156.212 421.279C156.44 422.936 156.44 424.765 155.583 425.794C155.355 426.08 154.783 426.537 153.812 426.537Z" fill="black"/>
<path d="M126.325 377.956C125.125 380.928 123.982 384.758 124.383 387.73C124.44 388.758 126.497 388.244 127.925 387.615C129.468 386.987 130.954 386.015 132.211 384.815C131.411 386.415 130.097 387.844 128.497 388.758C119.754 393.616 122.611 381.271 126.325 377.956Z" fill="black"/>
<path d="M136.954 373.098C132.497 381.271 131.24 396.474 142.44 382.414C141.411 384.529 140.269 386.644 138.44 388.301C137.526 389.101 136.326 389.959 134.668 389.673C129.011 387.272 133.811 376.07 136.954 373.098Z" fill="black"/>
<path d="M145.869 370.984C143.983 375.499 142.783 380.185 142.84 384.929C142.84 386.015 143.069 387.101 143.754 387.444C146.783 387.958 150.269 385.043 152.84 383.329C151.298 385.272 149.412 386.929 147.183 388.13C136.783 392.988 142.326 374.47 145.869 370.984Z" fill="black"/>
<path d="M157.869 369.841C156.669 374.47 153.355 379.214 154.383 384.015C156.269 390.53 162.041 384.186 165.012 381.957C163.241 383.729 162.212 386.244 159.641 387.615C156.955 389.33 153.183 387.558 152.783 384.415C151.812 378.814 155.298 374.356 157.869 369.841Z" fill="black"/>
<path d="M167.984 368.126C166.441 373.156 166.269 378.528 168.098 383.272C170.727 389.787 176.155 386.358 177.641 380.986C177.298 383.5 176.555 386.587 173.641 387.901C163.812 389.959 164.155 373.384 167.984 368.126Z" fill="black"/>
<path d="M178.098 367.669C178.155 372.413 177.698 377.271 179.755 381.271C182.156 386.701 186.556 386.415 188.384 380.7C188.213 381.843 187.984 383.043 187.413 384.186C186.784 385.272 185.698 386.301 184.27 386.472C175.698 385.501 176.212 373.784 178.098 367.669Z" fill="black"/>
<path d="M189.07 368.469C188.727 373.67 189.184 379.157 192.499 382.929C196.442 387.787 201.528 387.444 202.099 380.471C202.156 381.786 202.213 383.157 201.813 384.472C200.099 389.844 193.642 387.158 191.242 383.958C187.699 379.671 187.413 373.613 189.07 368.469Z" fill="black"/>
<path d="M200.785 368.698C201.527 373.956 202.613 379.328 206.156 383.1C207.699 384.872 210.213 386.872 212.099 386.015C214.099 384.872 213.071 381.557 213.699 378.985C213.585 380.357 214.042 381.557 214.214 382.986C214.785 386.758 211.414 388.873 208.213 386.815C201.928 383.329 199.985 375.385 200.785 368.698Z" fill="black"/>
<path d="M210.499 369.955C212.556 374.584 214.042 379.442 217.357 382.986C220.842 387.387 226.9 388.816 224.785 381.271C225.357 382.414 225.985 383.557 225.928 384.986C225.928 386.358 224.728 387.901 223.071 387.958C214.671 386.815 211.585 377.042 210.499 369.955Z" fill="black"/>
<path d="M220.328 372.47C223.757 377.556 227.757 385.558 234.043 386.015C234.557 382.814 231.528 378.185 228.9 375.842C231.414 377.271 233.471 379.557 234.671 382.243C236.043 384.701 236.214 388.587 232.214 387.501C225.871 385.101 222.557 378.528 220.328 372.47Z" fill="black"/>
<path d="M235.757 384.015C237.815 385.043 238.9 385.615 240.843 386.872C238.729 388.073 235.814 386.415 235.757 384.015Z" fill="black"/>
<path d="M124.668 389.044C123.754 394.417 124.897 400.018 128.097 404.133C130.326 406.762 131.068 403.104 131.183 401.046C131.526 398.303 131.983 395.617 132.497 392.931C132.211 397.274 133.354 401.446 131.468 405.562C130.383 407.276 127.754 406.762 126.783 405.219C123.354 400.532 122.44 394.188 124.668 389.044Z" fill="black"/>
<path d="M133.697 388.816C132.44 393.388 133.011 398.189 135.468 401.961C136.554 403.733 138.383 406.019 139.926 405.447C141.754 404.704 141.297 401.618 142.44 399.56C141.754 401.961 143.126 404.876 140.497 406.59C139.011 407.448 137.411 406.476 136.497 405.733C131.868 401.618 130.497 394.131 133.697 388.816Z" fill="black"/>
<path d="M145.24 388.13C143.64 392.873 144.726 398.132 148.155 401.389C149.755 403.161 151.926 404.304 153.469 402.418C155.012 400.818 155.012 397.96 156.383 395.845C155.526 398.189 156.212 400.875 154.44 403.218C152.612 406.133 148.783 404.647 147.012 402.59C143.183 398.817 142.269 392.531 145.24 388.13Z" fill="black"/>
<path d="M157.069 387.615C155.298 393.445 158.555 399.332 163.012 402.875C164.041 403.733 165.355 404.361 166.212 403.79C168.67 400.818 168.784 395.331 170.441 391.673C170.098 394.702 169.641 397.674 169.127 400.589C168.898 404.819 165.527 407.219 161.984 404.19C157.298 400.361 153.869 393.331 157.069 387.615Z" fill="black"/>
<path d="M170.784 388.415C171.298 394.017 173.87 399.846 178.613 402.704C181.127 403.104 181.298 396.646 182.556 394.702C182.327 397.103 182.098 399.389 181.584 401.789C180.67 405.733 176.727 404.018 175.013 401.904C171.698 398.36 169.87 393.216 170.784 388.415Z" fill="black"/>
<path d="M182.841 386.187C182.441 392.531 185.07 399.56 190.213 403.218C193.87 405.161 193.642 399.96 194.556 397.732C195.413 394.531 196.385 391.33 197.47 388.13C197.013 391.445 196.442 394.76 195.813 398.017C195.242 401.504 194.442 407.162 189.47 404.647C183.641 400.418 181.184 392.873 182.841 386.187Z" fill="black"/>
<path d="M209.357 387.901C209.699 393.388 210.499 402.19 216.385 404.018C217.585 404.19 218.614 403.161 219.128 401.732C220.443 397.217 219.871 391.559 223.357 387.844C221.528 390.645 221.528 393.959 221.243 397.274C221.471 403.904 217.185 409.505 211.814 402.59C208.785 398.303 208.728 392.759 209.357 387.901Z" fill="black"/>
<path d="M196.842 389.673C196.67 394.417 198.442 401.332 202.842 403.333C205.242 404.19 205.813 400.875 206.442 398.303C207.128 395.674 207.699 392.931 208.156 390.187C208.271 394.417 208.042 398.589 206.671 402.704C206.213 404.247 204.099 405.447 202.442 404.876C196.956 402.475 195.527 394.988 196.842 389.673Z" fill="black"/>
<path d="M221.814 391.387C223.643 393.559 225.871 405.333 229.3 401.218C232.214 397.046 232.1 391.216 232.271 386.187C233.414 391.559 233.814 397.389 230.614 402.247C224.385 407.962 223.071 395.217 221.814 391.387Z" fill="black"/>
<path d="M129.183 406.076C130.783 409.734 133.183 412.877 136.44 414.878C137.754 415.849 140.44 417.164 140.383 416.135C140.44 414.363 140.554 412.191 140.726 410.248C141.126 412.248 141.469 414.077 141.64 416.306C141.697 416.935 141.012 417.964 140.212 417.964C134.44 417.392 129.754 411.62 129.183 406.076Z" fill="black"/>
<path d="M139.754 406.247C142.154 410.248 145.755 413.734 149.983 415.449C151.012 415.792 151.469 415.678 151.64 414.649C151.869 411.163 152.098 407.448 152.669 403.961C152.898 406.362 153.069 408.762 153.126 411.22C154.726 424.422 140.669 412.363 139.754 406.247Z" fill="black"/>
<path d="M153.183 405.79C155.412 409.391 159.698 414.249 163.927 413.449C164.384 413.163 164.498 412.02 164.784 411.048C166.269 404.704 166.841 404.819 166.041 411.277C165.869 412.248 166.041 413.392 164.955 414.535C163.755 415.506 162.326 415.278 161.298 414.935C157.241 413.392 153.983 409.905 153.183 405.79Z" fill="black"/>
<path d="M166.955 406.876C168.498 409.905 170.669 415.049 174.441 414.649C175.812 414.535 175.87 411.906 176.384 409.962C178.67 399.732 178.041 407.79 177.184 413.334C176.384 418.421 170.441 416.078 168.955 412.934C167.755 411.048 167.298 408.934 166.955 406.876Z" fill="black"/>
<path d="M179.07 405.847C179.87 410.134 186.841 418.364 189.527 411.22C190.156 409.505 190.784 407.047 192.784 406.19C191.241 407.562 191.241 409.619 190.727 411.563C188.213 420.879 178.098 412.077 179.07 405.847Z" fill="black"/>
<path d="M192.385 407.448C193.985 410.134 200.042 420.536 201.471 413.163C202.271 409.905 203.699 406.762 205.585 403.961C204.556 407.048 203.642 410.362 202.899 413.506C200.899 422.993 193.356 413.277 192.385 407.448Z" fill="black"/>
<path d="M205.185 406.647C207.528 422.936 212.328 412.706 217.014 404.647C215.871 408.991 214.442 412.991 211.071 416.306C209.985 417.106 208.214 417.049 207.185 416.249C204.156 414.02 205.185 409.848 205.185 406.647Z" fill="black"/>
<path d="M217.128 406.247C217.928 409.048 215.299 418.764 220.385 415.906C224.271 413.506 227.3 409.677 229.3 405.447C228.5 410.248 225.414 414.535 221.185 417.335C213.356 420.593 216.499 410.248 217.128 406.247Z" fill="black"/>
<path d="M229.414 404.133C230.557 405.733 231.128 407.105 232.1 408.533C232.328 408.876 232.557 409.562 233.243 409.391C231.357 411.677 228.214 406.133 229.414 404.133Z" fill="black"/>
<path d="M150.383 455.571C152.097 467.059 155.412 477.861 160.441 488.32C153.469 479.118 149.812 467.116 150.383 455.571Z" fill="black"/>
<path d="M163.069 479.175C166.327 488.948 170.041 498.264 174.441 507.58C168.155 499.465 164.155 489.406 163.069 479.175Z" fill="black"/>
<path d="M176.155 440.654C176.727 452.656 176.898 464.487 176.67 476.489C174.67 464.658 174.498 452.542 176.155 440.654Z" fill="black"/>
<path d="M165.812 515.182C171.927 518.097 178.098 519.526 184.899 519.64C178.498 521.869 170.612 520.04 165.812 515.182Z" fill="black"/>
<path d="M223.471 465.401C224.957 477.118 221.643 489.691 214.442 499.065C219.7 488.434 222.728 477.232 223.471 465.401Z" fill="black"/>
<path d="M206.671 502.894C208.385 499.979 210.042 497.807 212.328 495.292C212.157 498.665 209.814 501.751 206.671 502.894Z" fill="black"/>
<path d="M216.042 429.109C216.957 433.11 216.785 437.282 215.471 441.168C214.557 437.053 214.728 433.11 216.042 429.109Z" fill="black"/>
<path opacity="0.17" d="M152.383 406.19C152.498 407.962 152.84 409.677 153.298 411.334C153.869 409.562 153.698 407.505 152.383 406.19Z" fill="#660000"/>
<path d="M116.439 390.473C117.468 388.644 118.496 386.758 119.525 384.929C118.325 387.844 119.354 391.445 121.868 393.274C122.325 387.901 123.925 382.586 126.554 377.899C125.297 379.5 123.925 381.271 123.982 383.272C123.982 385.329 126.268 387.33 128.04 386.301C128.668 385.958 129.068 385.386 129.411 384.815C131.925 381.043 134.44 377.213 136.954 373.441C135.754 376.413 135.183 379.671 135.24 382.872C135.24 383.786 135.411 384.872 136.268 385.272C137.526 385.901 138.726 384.415 139.354 383.157C141.24 379.328 143.126 375.499 145.012 371.67C145.754 373.327 145.297 375.213 144.669 376.928C144.04 378.642 143.297 380.357 143.411 382.129C143.526 383.9 144.897 385.786 146.726 385.672C148.097 385.558 149.126 384.358 149.983 383.272C152.097 380.414 154.098 377.442 155.926 374.356C153.355 378.814 154.212 384.986 157.926 388.587C154.269 388.015 150.326 389.787 148.269 392.873C146.212 395.96 146.097 400.246 147.983 403.447C145.812 402.418 145.126 399.732 144.497 397.389C143.869 395.045 142.783 392.359 140.44 391.845C138.04 391.33 135.754 393.502 135.24 395.903C134.725 398.303 135.526 400.761 136.268 403.104C133.354 400.418 131.24 396.931 130.211 393.102C126.611 395.56 125.297 400.875 127.354 404.704C124.839 401.447 122.325 398.189 119.811 394.931C119.582 395.274 119.354 395.674 119.125 396.017" fill="#502C13"/>
<path d="M145.926 413.506C148.269 413.963 150.783 412.534 151.697 410.305C152.555 408.076 151.812 405.39 149.983 403.847C152.897 404.704 156.269 402.189 156.269 399.217C154.498 402.59 155.412 407.162 158.326 409.562C159.983 410.934 162.784 411.506 164.041 409.734C165.069 408.362 164.441 406.305 163.469 404.933C162.498 403.504 161.126 402.247 160.669 400.589C160.841 403.218 164.384 404.533 166.669 403.275C168.955 402.018 169.984 399.217 169.984 396.588C168.841 400.189 168.555 404.018 169.184 407.733C169.412 408.934 169.755 410.191 170.669 410.934C172.212 412.191 174.727 411.334 175.87 409.677C177.013 408.076 177.184 405.962 177.355 403.961C177.47 409.105 177.584 414.192 177.698 419.335C176.384 416.821 173.47 414.935 170.669 415.678C167.869 416.421 166.384 420.364 168.441 422.307C166.898 419.793 164.555 417.735 161.869 416.478C160.955 416.078 159.926 415.735 159.012 416.078C157.698 416.592 157.24 418.25 157.583 419.621C157.926 420.993 158.955 422.022 159.926 423.05C157.64 421.45 155.412 419.85 153.126 418.192C153.24 420.479 153.355 422.765 153.412 425.051C153.355 421.45 150.04 418.935 147.183 416.764C145.012 415.163 141.297 412.134 141.983 409.105C142.554 411.105 143.64 413.049 145.926 413.506Z" fill="#502C13"/>
<path d="M167.641 382.071C168.784 383.557 171.069 384.3 172.555 383.157C173.584 382.414 173.927 381.043 174.212 379.785C175.012 376.47 175.755 373.098 176.555 369.783C176.898 373.041 177.584 376.242 178.67 379.328C179.07 380.528 179.641 381.786 180.841 382.357C182.956 383.329 185.241 381.1 185.87 378.814C186.498 376.585 186.27 374.07 187.527 372.07C187.756 376.528 189.527 380.871 192.442 384.3C186.556 386.415 183.013 393.502 184.841 399.503C184.441 396.588 184.041 393.502 182.27 391.159C180.498 388.816 176.898 387.501 174.498 389.216C171.869 391.102 172.155 394.988 172.727 398.189C172.098 394.702 171.184 391.045 168.727 388.415C166.326 385.786 161.926 384.643 159.126 386.815C162.612 384.129 162.783 377.842 166.155 375.67C166.555 377.842 166.212 380.185 167.641 382.071Z" fill="#502C13"/>
<path d="M203.813 397.16C205.756 396.646 206.785 394.588 207.413 392.702C208.042 390.816 208.556 388.701 210.156 387.501C209.128 393.102 211.871 399.16 216.728 402.075C217.014 402.475 216.385 403.047 215.928 402.932C215.414 402.818 215.071 402.418 214.728 402.075C213.128 400.589 210.442 400.875 208.785 402.247C207.128 403.618 206.385 405.904 206.385 408.076C206.385 410.248 206.956 412.363 207.528 414.477C208.042 412.363 205.413 410.42 203.356 411.105C201.299 411.791 200.213 414.249 200.556 416.421C201.128 414.077 201.699 411.677 201.413 409.277C201.128 406.876 199.87 404.418 197.642 403.447C195.413 402.475 192.327 403.504 191.699 405.847C192.384 403.447 195.756 392.073 197.985 391.788C198.842 394.131 200.213 398.132 203.813 397.16Z" fill="#502C13"/>
<path d="M209.814 386.929C207.242 386.587 200.328 382.3 202.499 378.985C204.385 376.013 207.299 386.587 209.814 386.929Z" fill="#502C13"/>
<path opacity="0.75" d="M148.955 371.555C150.04 370.641 151.869 370.012 152.783 371.155C153.297 371.841 153.126 372.87 152.898 373.727C152.212 376.185 148.726 387.901 144.554 382.929C141.754 379.671 146.554 373.498 148.955 371.555Z" fill="#DD6628"/>
<path opacity="0.29" d="M137.468 374.927C136.04 376.585 135.183 378.585 134.897 380.757C134.783 381.786 134.897 382.986 135.754 383.5C137.011 384.186 138.383 382.929 139.24 381.786C140.04 380.7 140.897 379.5 141.24 378.185C141.583 376.871 141.24 375.213 140.154 374.413C139.068 373.613 137.068 374.07 136.783 375.442" fill="#DD6628"/>
<path opacity="0.29" d="M155.869 379.671C155.812 380.814 155.983 382.129 157.012 382.643C157.641 382.986 158.383 382.814 159.012 382.414C159.526 382.129 159.984 381.729 160.326 381.271C161.698 379.728 162.726 377.956 163.469 376.013C164.441 373.441 162.155 373.041 160.098 373.613C157.126 374.47 156.041 376.813 155.869 379.671Z" fill="#DD6628"/>
<path opacity="0.29" d="M169.984 369.498C168.326 371.784 167.641 374.756 168.212 377.499C168.441 378.642 169.012 379.842 170.098 380.071C170.898 380.243 171.755 379.785 172.269 379.157C172.784 378.528 173.012 377.728 173.241 376.871C173.584 375.442 173.755 374.013 173.755 372.584C173.755 371.555 173.698 370.469 172.955 369.783C172.212 369.098 170.727 369.269 170.555 370.298" fill="#DD6628"/>
<path opacity="0.29" d="M161.298 400.189C162.098 400.989 163.355 401.732 164.383 401.218C165.298 400.761 165.584 399.675 165.698 398.703C165.926 397.103 166.098 395.503 166.155 393.902C166.326 390.016 162.155 385.043 158.726 389.501C156.498 392.416 159.126 398.017 161.298 400.189Z" fill="#DD6628"/>
<path opacity="0.29" d="M148.497 394.017C147.297 395.96 147.869 398.875 149.755 400.189L148.497 394.017Z" fill="#DD6628"/>
<path opacity="0.29" d="M129.583 378.128C127.983 378.871 126.954 380.643 127.068 382.357L129.583 378.128Z" fill="#DD6628"/>
<path opacity="0.29" d="M174.27 390.816C173.641 393.331 174.041 396.074 175.413 398.303C176.213 399.618 177.87 400.761 179.127 399.96C180.041 399.332 180.098 398.017 180.098 396.874C180.041 395.503 179.984 394.131 179.984 392.759C179.927 391.616 179.87 390.416 179.241 389.501C178.613 388.587 177.127 388.13 176.327 388.873" fill="#DD6628"/>
<path opacity="0.29" d="M182.67 380.357C183.641 380.243 184.099 379.157 184.384 378.242C185.241 375.67 189.356 366.24 183.013 369.612C179.984 371.269 177.87 380.928 182.67 380.357Z" fill="#DD6628"/>
<path opacity="0.29" d="M190.899 376.07C191.241 377.899 192.213 379.5 193.299 380.986C193.813 381.729 194.442 382.414 195.184 382.814C195.927 383.215 197.013 383.272 197.699 382.7C198.842 381.786 198.385 380.014 198.156 378.528C197.927 376.985 198.099 375.385 197.927 373.841C197.184 367.269 189.756 369.955 190.899 376.07Z" fill="#DD6628"/>
<path opacity="0.29" d="M187.47 398.303C188.156 399.503 189.356 400.646 190.67 400.303C191.813 400.018 192.384 398.76 192.727 397.617C193.356 395.617 193.87 393.616 194.213 391.559C194.442 390.187 194.556 388.587 193.584 387.615C191.699 385.844 187.984 388.244 186.898 390.016C185.413 392.416 186.213 396.017 187.47 398.303Z" fill="#DD6628"/>
<path opacity="0.29" d="M210.042 382.757C210.956 382.129 210.728 380.7 210.385 379.614C209.699 377.385 208.271 369.955 205.185 374.813C203.699 377.156 207.071 384.758 210.042 382.757Z" fill="#DD6628"/>
<path opacity="0.29" d="M214.156 374.584C215.071 376.87 216.385 379.042 218.042 380.814L214.156 374.584Z" fill="#DD6628"/>
<path opacity="0.29" d="M169.527 400.475C169.241 403.504 170.098 406.647 171.984 409.048C172.384 409.562 172.955 410.077 173.527 409.962C174.27 409.791 174.498 408.819 174.555 408.019C174.67 406.476 174.784 404.876 174.384 403.333C173.984 401.789 173.012 400.361 171.527 399.789C170.041 399.217 168.098 399.903 167.641 401.389" fill="#DD6628"/>
<path opacity="0.29" d="M142.783 404.247C143.012 406.762 143.983 409.219 145.526 411.22C146.44 412.363 147.812 413.392 149.183 412.934C150.669 412.42 150.955 410.477 150.783 408.876C150.612 407.333 150.097 405.676 148.783 404.761C147.469 403.847 145.297 404.361 144.954 405.847" fill="#DD6628"/>
<path opacity="0.29" d="M137.011 393.045C135.411 395.445 135.297 398.703 136.611 401.218C136.954 401.847 137.411 402.532 138.04 402.875C138.669 403.218 139.583 403.218 140.154 402.761C140.669 402.304 140.783 401.618 140.897 400.932C141.069 399.732 141.297 398.532 141.469 397.331C141.697 396.017 141.869 394.645 141.126 393.502C140.44 392.416 138.44 392.188 137.926 393.388" fill="#DD6628"/>
<path opacity="0.29" d="M129.468 377.728C127.811 378.985 126.554 380.814 126.04 382.872C125.697 384.243 126.04 386.072 127.411 386.301C128.611 386.472 129.468 385.158 129.926 384.072C130.726 382.186 131.468 380.243 132.04 378.242C132.154 377.956 132.211 377.613 132.097 377.328C131.926 376.813 131.183 376.585 130.668 376.813C130.154 377.042 129.754 377.442 129.411 377.899" fill="#DD6628"/>
<path opacity="0.29" d="M200.27 354.409C199.127 356.581 196.67 357.667 194.499 358.753C192.327 359.896 190.041 361.439 189.584 363.897C189.527 364.24 189.47 364.582 189.299 364.868C188.156 366.583 186.727 363.782 186.727 362.754C186.784 361.21 187.984 360.582 189.07 359.782C190.727 358.467 192.727 357.438 194.613 356.524C195.584 356.067 199.927 355.095 200.27 354.409Z" fill="#DD6628"/>
<path opacity="0.29" d="M193.87 365.04C194.327 364.983 194.784 364.868 195.299 364.811L193.87 365.04Z" fill="#DD6628"/>
<path d="M332.332 434.367C332.332 434.367 302.959 434.653 289.245 426.537C275.53 418.421 278.33 410.591 274.958 403.047C271.587 395.503 259.587 385.158 248.1 387.101C236.614 389.044 231.586 403.333 240.843 405.847C250.043 408.362 252.329 415.049 252.329 415.049C252.329 415.049 238.9 407.791 230.5 414.192C222.1 420.593 225.814 428.709 227.186 432.081C228.557 435.453 238.614 435.739 241.986 439.339C241.986 439.339 226.614 438.768 223.528 445.34C220.442 451.913 222.214 461.172 227.186 463.687C232.157 466.201 243.643 463.401 247.529 466.487C251.472 469.573 259.015 478.261 268.501 480.204C277.987 482.147 282.787 477.975 282.787 477.975C282.787 477.975 300.959 489.977 319.417 490.263C337.875 490.549 345.989 485.634 350.618 471.917" fill="#DD6628"/>
<path d="M320.903 493.578C320.388 493.578 319.874 493.578 319.36 493.578C303.416 493.349 287.987 484.948 282.787 481.861C280.159 483.233 275.13 484.948 267.872 483.462C259.529 481.747 252.786 475.632 248.329 471.574C247.243 470.602 246.329 469.745 245.529 469.116C244.386 468.202 240.215 468.202 237.186 468.202C233.071 468.202 228.786 468.202 225.7 466.659C219.128 463.344 216.614 452.37 220.5 444.026C222.042 440.654 225.528 438.711 229.243 437.625C226.9 436.71 224.957 435.51 224.157 433.395C222.5 429.28 218.442 419.393 228.5 411.677C231.414 409.448 234.786 408.533 238.1 408.362C234.557 406.705 232.614 403.332 232.786 399.16C233.071 392.816 238.729 385.386 247.586 383.9C260.558 381.671 273.987 392.816 277.987 401.732C279.073 404.133 279.53 406.419 280.044 408.648C281.187 413.963 282.216 418.592 290.902 423.736C303.645 431.281 331.989 431.052 332.274 431.109L332.332 437.682C331.132 437.682 301.874 437.853 287.587 429.394C276.387 422.765 274.958 416.021 273.644 410.077C273.187 408.076 272.787 406.19 271.987 404.418C269.015 397.731 258.272 388.758 248.672 390.359C242.843 391.33 239.529 396.303 239.357 399.503C239.3 401.275 239.986 402.247 241.7 402.704C252.501 405.676 255.301 413.734 255.415 414.077L258.044 421.907L250.729 418.021C250.615 417.964 239.072 411.848 232.5 416.878C226.9 421.164 228.214 425.965 230.1 430.538C230.671 431.281 233.414 432.138 235.071 432.652C238.557 433.681 242.157 434.824 244.386 437.225L249.7 442.997L241.815 442.711C236.5 442.54 227.928 443.683 226.443 446.826C223.985 452.084 225.585 459.286 228.614 460.829C230.271 461.686 233.929 461.629 237.129 461.686C242.043 461.743 246.615 461.686 249.529 463.972C250.386 464.658 251.472 465.63 252.672 466.716C256.615 470.259 262.501 475.689 269.13 477.06C276.73 478.604 280.444 475.689 280.616 475.517L282.502 473.974L284.559 475.289C284.73 475.403 302.159 486.777 319.417 487.062C336.446 487.405 343.246 483.405 347.418 470.945L353.647 473.06C348.732 487.92 339.76 493.578 320.903 493.578Z" fill="black"/>
<path d="M238.9 436.653C243.357 436.196 247.758 438.939 249.929 442.711C250.672 443.969 251.186 445.397 251.243 446.941C249.986 446.083 249.015 445.169 247.986 444.369C245.072 441.911 241.7 439.225 238.9 436.653Z" fill="black"/>
<path d="M245.357 410.248C252.158 411.791 257.986 417.392 259.758 424.194C254.329 420.079 249.7 415.563 245.357 410.248Z" fill="black"/>
<path d="M274.158 401.104C274.387 401.104 275.701 401.161 275.816 401.218C275.701 401.332 274.387 401.332 274.158 401.332C273.93 401.332 272.616 401.275 272.501 401.218C272.616 401.103 273.93 401.104 274.158 401.104Z" fill="#231F20"/>
<path d="M274.444 478.832C281.644 475.689 288.616 471.974 295.359 467.859C291.702 475.403 282.673 480.147 274.444 478.832Z" fill="black"/>
<path d="M321.646 431.966C326.446 429.509 329.474 425.794 330.903 420.593C334.674 426.251 327.931 434.481 321.646 431.966Z" fill="black"/>
<path d="M319.703 432.709C327.474 431.909 335.189 433.452 341.818 428.08C338.789 436.996 326.617 436.767 319.703 432.709Z" fill="black"/>
<path d="M352.504 461.115C349.932 467.001 347.703 473.003 345.76 479.118C349.189 477.975 351.761 474.946 353.189 471.631C354.618 468.316 355.132 464.658 355.589 461.057" fill="black"/>
<path opacity="0.17" d="M251.472 391.502C248.672 392.302 246.043 394.188 245.243 396.988C243.072 404.19 253.472 409.562 253.929 417.106C250.501 413.22 243.758 413.449 239.929 416.992C236.1 420.536 235.243 426.537 236.957 431.452C238.672 436.367 242.672 440.197 247.186 442.768C242.843 440.94 237.472 440.711 233.757 443.626C230.043 446.541 229.414 453.113 233.243 455.799C240.672 454.828 248.443 456.885 254.444 461.4C259.244 465.001 263.015 470.145 268.444 472.66C275.016 475.689 282.902 474.26 289.245 470.716C295.531 467.173 300.559 461.8 305.474 456.485C300.902 459 301.188 466.316 304.959 469.916C308.731 473.517 314.503 474.089 319.646 473.517C329.417 472.431 338.846 467.859 345.475 460.6C352.104 453.342 355.818 443.397 355.247 433.624C357.647 447.912 354.618 462.486 351.589 476.66C348.904 489.234 346.275 501.808 343.589 514.439C343.475 508.152 342.789 500.779 337.475 497.464C333.075 494.778 327.474 496.093 322.331 496.836C311.188 498.436 299.588 496.55 289.53 491.52C284.902 489.234 280.33 486.205 275.13 486.091C271.301 485.976 267.53 487.52 263.758 487.119C255.244 486.148 250.901 476.26 243.415 472.088C239.186 469.745 234.043 469.288 229.757 467.001C224.1 463.915 220.5 457.457 220.843 450.999C221.185 444.597 225.528 438.539 231.529 436.139C225.414 432.652 223.586 423.908 226.728 417.564C229.871 411.22 236.843 407.619 243.7 407.048C234.786 406.705 233.186 396.417 238.443 390.987C243.758 385.443 255.072 383.615 259.758 390.987C257.015 390.987 254.215 390.759 251.472 391.502Z" fill="#660000"/>
<path d="M315.36 441.74C313.702 441.397 312.217 440.539 310.731 439.739C307.874 438.196 305.016 436.596 302.159 435.053C307.359 435.91 312.617 436.71 317.931 436.824C323.246 436.939 328.617 436.31 333.474 434.31C338.389 432.309 342.789 428.88 345.361 424.251C346.732 429.052 345.875 434.424 343.075 438.539C340.103 442.94 335.189 445.74 330.046 447.169C324.903 448.598 319.588 448.827 314.274 449.055" fill="#DD6628"/>
<path d="M330.217 419.621C331.303 421.622 331.589 424.079 331.074 426.308C330.56 428.537 329.131 430.538 327.188 431.795C329.417 433.109 332.274 432.309 334.732 431.452C337.36 430.538 340.046 429.566 342.332 427.966C344.618 426.365 346.56 424.022 347.018 421.279" fill="#DD6628"/>
<path opacity="0.75" d="M256.558 392.188C263.701 393.388 269.473 400.018 269.815 407.219L256.558 392.188Z" fill="#DD6628"/>
<path opacity="0.17" d="M280.273 415.963C285.073 420.479 289.93 424.994 295.702 428.023C301.531 431.052 308.502 432.481 314.674 430.309C320.56 428.251 325.017 423.279 327.817 417.678C330.56 412.077 331.875 405.904 333.132 399.846C333.875 404.076 333.017 408.476 332.96 412.763C332.846 417.107 333.703 421.793 337.018 424.594C340.332 427.394 346.504 426.651 347.761 422.536C340.161 430.023 329.874 434.71 319.246 435.453C308.617 436.196 297.759 432.938 289.245 426.537" fill="#660000"/>
<path d="M38.437 449.455C38.437 449.455 66.6664 451.399 79.8097 430.709C79.8097 430.709 81.1811 413.391 92.9529 404.704C104.725 396.017 116.725 390.702 120.382 396.303C124.04 401.904 124.325 410.82 120.382 415.62C120.382 415.62 134.668 410.019 137.183 420.364C139.697 430.709 134.668 435.453 134.668 435.453C134.668 435.453 144.154 440.025 142.783 449.512C141.412 459 132.154 457.571 128.268 462.029C124.382 466.487 114.554 485.805 108.439 488.034C102.267 490.263 98.0959 487.748 98.0959 487.748C98.0959 487.748 77.2953 505.351 53.0089 503.98C28.7224 502.608 10.2647 486.376 6.55029 449.055" fill="#DD6628"/>
<path d="M55.6946 507.352C54.7231 507.352 53.6945 507.352 52.7231 507.295C24.3222 505.637 6.72168 485.119 3.17871 449.398L9.69319 448.77C12.8933 481.347 27.9223 499.293 53.0659 500.779C75.6952 502.094 95.6387 485.519 95.8101 485.348L97.5816 483.862L99.5817 485.062C99.6388 485.119 102.61 486.719 107.125 485.062C110.211 483.919 116.554 473.803 119.925 468.373C122.268 464.601 124.154 461.629 125.582 459.972C127.525 457.743 130.211 456.657 132.554 455.742C136.611 454.142 138.726 453.113 139.297 449.112C140.326 442.14 133.068 438.539 133.011 438.539L128.725 436.482L132.211 433.224C132.326 433.109 135.754 429.452 133.811 421.279C133.354 419.278 132.326 418.593 131.64 418.25C128.554 416.649 123.125 418.192 121.411 418.821L109.639 423.451L117.696 413.677C120.554 410.191 120.439 402.818 117.468 398.246C117.296 397.96 117.011 397.674 116.211 397.503C113.296 397.046 105.925 399.275 94.7815 407.505C84.4383 415.163 82.9526 430.995 82.9526 431.109L83.0097 431.795L82.5526 432.481C68.495 454.599 39.3513 452.827 38.1512 452.713L38.6084 446.14C38.8369 446.14 64.4949 447.626 76.6095 429.566C77.0667 425.737 79.581 410.42 91.01 402.018C97.4673 397.217 109.525 389.387 117.525 390.873C119.925 391.33 121.868 392.531 123.125 394.474C126.211 399.217 127.182 405.562 126.04 410.877C128.84 410.591 132.04 410.762 134.84 412.191C137.64 413.62 139.526 416.192 140.383 419.507C142.097 426.537 140.726 431.452 139.24 434.424C142.554 436.996 147.183 442.083 146.04 449.913C144.897 457.8 139.297 460.029 135.24 461.686C133.411 462.429 131.64 463.115 130.725 464.144C129.64 465.401 127.697 468.487 125.64 471.745C119.239 481.976 114.325 489.348 109.468 491.12C105.01 492.721 101.125 492.32 98.4959 491.52C93.2957 495.521 76.0381 507.352 55.6946 507.352Z" fill="black"/>
<path d="M134.611 435.567C126.954 438.768 119.982 442.197 112.725 446.312C116.84 438.825 126.154 434.253 134.611 435.567Z" fill="black"/>
<path d="M105.525 487.748C99.9247 489.977 93.7531 486.434 88.7244 484.262C87.0672 483.519 85.3528 482.947 83.3528 482.49C85.1814 481.576 87.3529 481.518 89.353 481.804C95.3531 482.719 99.7533 486.262 105.525 487.748Z" fill="black"/>
<path d="M121.64 413.734C115.811 419.335 110.496 424.765 105.068 430.823C106.439 422.536 113.411 415.335 121.64 413.734Z" fill="black"/>
<path d="M56.5519 446.369C48.5516 448.541 40.4942 439.111 43.9801 431.566C45.8658 438.825 49.6945 443.34 56.5519 446.369Z" fill="black"/>
<path d="M35.1798 443.911C40.5513 448.026 47.6373 449.398 54.4375 449.112C61.2377 448.77 67.8093 446.883 74.3238 445.054C69.2379 451.627 61.6377 456.199 53.5232 457.685C45.4086 459.171 36.6655 457.514 29.5796 453.227" fill="#DD6628"/>
<path opacity="0.17" d="M8.20755 415.963C7.97898 428.823 9.86475 441.911 15.1792 453.628C20.4936 465.344 29.3511 475.689 40.8943 481.518C52.3803 487.291 66.6093 488.148 78.2097 482.547C75.8096 479.404 73.4667 476.317 71.0666 473.174C77.8668 475.174 84.667 477.232 91.7529 477.746C98.8389 478.261 106.153 477.232 112.154 473.517C117.982 469.859 122.04 464.029 125.754 458.2C127.64 455.171 129.583 451.513 128.268 448.198C127.125 445.455 124.04 443.969 121.068 443.911C118.097 443.854 115.239 444.94 112.496 445.969C116.097 443.454 119.468 440.254 121.011 436.139C122.554 432.024 121.868 426.823 118.439 424.079C115.011 421.336 108.896 422.365 107.411 426.537C112.096 421.907 113.639 413.963 109.868 408.591C106.096 403.218 96.896 402.304 93.0673 407.676C95.9816 404.19 98.896 400.646 102.668 398.132C106.439 395.56 111.125 394.131 115.525 395.217C119.925 396.303 123.64 400.532 123.297 405.047C123.125 406.876 122.382 408.705 123.068 410.42C124.211 413.277 128.154 413.277 130.954 414.477C134.554 416.021 136.611 420.078 136.897 424.022C137.183 427.966 136.04 431.852 134.897 435.624C139.812 434.71 143.983 440.311 143.355 445.226C142.726 450.141 138.954 454.085 134.897 457.057C130.897 459.972 126.383 462.429 123.182 466.201C117.868 472.545 116.611 482.319 109.525 486.662C106.611 488.434 103.068 489.006 99.8675 490.263C94.153 492.492 89.6386 496.95 84.3813 500.15C75.6953 505.466 65.1807 507.18 55.009 506.38C44.8944 505.58 35.0655 502.322 25.6938 498.322C23.3509 497.293 21.0079 496.264 18.4364 495.978C15.9221 495.75 13.122 496.436 11.522 498.436C10.0933 500.265 9.9219 502.722 9.86475 505.066C9.80761 513.41 11.1791 521.754 13.8077 529.642C8.60756 514.267 3.5217 500.322 2.72168 483.862C2.37881 476.832 2.37881 470.374 4.83602 463.744C7.17895 457.343 5.80749 451.513 5.57891 444.769C5.23604 435.053 6.15035 425.337 8.20755 415.963Z" fill="#660000"/>
<path opacity="0.75" d="M84.2671 430.766C84.2671 430.766 86.7815 414.763 91.9245 410.42C97.0675 406.019 111.525 397.503 113.925 397.446C116.325 397.446 118.44 400.018 118.097 399.503C117.754 398.989 116.097 398.76 112.211 400.246C108.325 401.732 94.896 408.476 91.5816 414.42C88.2672 420.364 84.2671 431.166 84.2671 431.166" fill="#DD6628"/>
<path opacity="0.75" d="M106.382 431.852C107.925 427.108 112.039 423.279 116.897 422.079L106.382 431.852Z" fill="#DD6628"/>
<path opacity="0.17" d="M22.1509 433.51C24.8367 434.481 26.8367 436.653 29.294 438.139C31.694 439.625 35.1799 440.254 37.1799 438.253C38.6657 436.767 38.8371 434.481 38.8942 432.366C39.1228 426.08 39.2943 419.793 39.5228 413.506C37.9799 420.593 40.5514 428.423 46.0373 433.167C51.5232 437.91 59.6377 439.339 66.4379 436.767C73.2381 434.195 78.324 427.68 79.2383 420.479C82.667 435.396 69.1809 443.168 56.8376 445.969C50.666 447.398 43.923 446.941 37.9799 444.94C34.6655 443.797 31.5226 442.197 28.7225 440.139C26.8367 438.768 24.0938 434.253 22.1509 433.51Z" fill="#660000"/>
<path opacity="0.17" d="M90.4956 271.88C69.0092 288.683 51.7516 310.858 40.7227 335.777C47.2371 324.404 55.466 314.002 65.0663 305.086C67.6949 302.685 70.6093 300.228 74.0951 299.599C81.7525 298.227 87.9241 305.314 92.8385 311.373C111.182 334.12 135.697 351.837 163.069 362.125C177.47 367.554 193.356 370.927 208.156 366.811C226.328 361.725 239.529 346.522 251.872 332.291C264.215 318.06 278.273 303.257 296.788 299.713C285.473 292.169 275.587 282.51 267.758 271.365C259.015 294.227 243.243 314.402 223.128 328.347C215.814 333.434 207.413 337.835 198.556 337.206C190.613 336.634 183.584 332.176 177.355 327.204C157.469 311.373 142.783 289.14 135.926 264.678" fill="#660000"/>
<path d="M86.7813 195.237C86.7813 195.237 43.18 165.06 54.8946 108.821C59.9233 117.222 112.782 110.478 129.583 148.257C129.583 148.257 197.527 121.395 233.586 152.029C233.586 152.029 253.701 113.85 278.044 108.821C302.388 103.791 314.102 96.247 314.102 96.247C314.102 96.247 330.046 160.03 276.33 195.237C276.33 195.237 296.673 315.202 184.556 348.751C164.784 351.323 77.581 311.887 86.7813 195.237Z" fill="#DD6628"/>
<path d="M182.956 352.123C171.069 352.123 148.097 343.664 126.611 323.146C104.21 301.771 78.6667 262.621 83.3525 196.78C75.5237 190.55 40.8941 159.687 51.6944 108.192L53.4087 99.962L57.7517 107.163C58.7803 108.592 66.4377 109.964 72.0379 110.935C89.5241 114.079 118.325 119.223 131.24 144.142C144.497 139.455 198.956 122.366 232.614 147.056C238.329 137.283 256.043 110.021 277.416 105.563C300.731 100.762 312.274 93.5036 312.388 93.4465L316.217 90.9889L317.302 95.4468C317.474 96.0755 332.846 160.487 279.873 196.837C281.93 213.354 290.787 320.46 185.527 351.952C184.784 352.066 183.927 352.123 182.956 352.123ZM57.2374 114.307C49.4086 164.717 88.2098 192.265 88.667 192.551L90.2099 193.636L90.0384 195.523C84.9526 259.82 109.582 297.827 131.125 318.402C153.297 339.549 176.612 346.522 184.156 345.55C291.587 313.316 273.873 200.609 273.073 195.808L272.73 193.694L274.501 192.493C318.331 163.688 314.16 115.793 311.702 101.276C306.274 103.963 295.359 108.592 278.616 112.079C256.101 116.708 236.614 153.229 236.386 153.629L234.5 157.23L231.357 154.601C197.185 125.567 131.354 151.114 130.668 151.4L127.754 152.543L126.497 149.685C115.754 125.51 88.667 120.652 70.7807 117.508C65.1805 116.365 60.5518 115.565 57.2374 114.307Z" fill="black"/>
<path d="M97.2386 178.377C98.3815 174.947 100.439 171.804 103.239 169.403C102.553 171.118 101.867 172.833 101.182 174.547C102.896 170.832 105.81 167.632 109.353 165.517C107.868 166.374 95.7529 139.341 88.4955 146.771C82.0382 153.286 93.8671 172.433 97.2386 178.377Z" fill="#EB7A8B"/>
<path d="M288.387 130.482C288.216 130.368 288.044 130.196 287.873 130.082C279.587 136.026 272.158 143.17 265.929 151.4C262.672 155.687 257.758 160.202 257.358 165.917C257.186 168.375 264.272 187.521 265.644 186.378C274.158 178.719 282.273 169.746 284.844 158.601C286.502 151.4 285.816 143.856 287.416 136.655C287.873 134.711 288.559 132.825 289.473 130.996C289.073 130.768 288.73 130.596 288.387 130.482Z" fill="#EB7A8B"/>
<path d="M167.641 317.031C167.698 317.317 171.127 327.89 172.67 330.69C174.213 333.491 174.727 333.891 174.727 333.891C174.727 333.891 181.984 333.834 181.984 333.548C181.984 333.262 182.213 331.376 182.213 331.376L183.07 333.205C183.07 333.205 189.07 333.777 190.099 333.491C191.127 333.205 195.413 317.317 195.013 317.088C194.613 316.859 189.013 316.174 186.67 314.802C184.327 313.43 181.984 312.401 181.241 312.173C180.498 312.001 177.984 313.487 177.984 313.487C177.984 313.487 171.298 316.345 171.012 316.116" fill="white"/>
<path d="M174.498 334.748L174.27 334.52C174.041 334.348 173.412 333.72 171.984 331.033C170.384 328.119 166.955 317.545 166.898 317.202L168.498 316.802C168.612 317.202 171.984 327.547 173.47 330.233C174.384 331.948 174.955 332.691 175.184 333.034C177.641 333.034 180.27 332.919 181.356 332.862C181.413 332.176 181.527 331.262 181.527 331.262L181.813 328.404L183.698 332.405C186.156 332.634 188.956 332.805 189.813 332.691C190.842 331.091 193.87 320.346 194.27 317.66C193.984 317.602 193.642 317.545 193.299 317.488C191.242 317.088 188.041 316.516 186.327 315.431C184.041 314.059 181.756 313.087 181.127 312.916C180.841 312.916 179.584 313.487 178.498 314.116C171.298 317.202 171.012 317.031 170.612 316.688L171.127 316.002V315.202C171.641 315.145 174.955 313.83 177.813 312.63C179.013 311.944 180.727 311.087 181.584 311.315C182.441 311.544 184.841 312.573 187.184 314.002C188.67 314.916 191.756 315.488 193.584 315.831C194.899 316.059 195.299 316.174 195.527 316.345C196.042 316.688 195.927 317.317 195.813 317.945C195.813 318.117 192.27 333.777 190.384 334.291C189.241 334.577 184.498 334.177 183.07 334.063H182.841C182.613 334.577 181.356 334.748 174.784 334.806L174.498 334.748Z" fill="black"/>
<path d="M65.1807 135.168C84.6098 130.025 107.353 145.913 109.182 165.974C97.8102 149.971 84.1527 140.312 65.1807 135.168Z" fill="black"/>
<path d="M257.472 166.489C260.444 144.827 279.873 125.624 301.588 122.995C283.244 134.826 269.53 148.314 257.472 166.489Z" fill="black"/>
<path d="M208.042 172.547C224.214 168.889 242.386 184.035 241.643 200.609C232.614 187.292 222.785 179.062 208.042 172.547Z" fill="black"/>
<path d="M114.154 201.409C117.525 187.407 131.926 177.119 146.269 177.233C148.326 177.405 151.298 178.434 151.469 180.777C149.926 179.348 148.155 179.92 146.612 180.434C134.268 185.521 124.554 192.493 114.154 201.409Z" fill="black"/>
<path d="M88.4956 142.77C90.0385 154.829 93.1243 166.26 97.8102 177.462C89.1242 168.603 85.467 154.829 88.4956 142.77Z" fill="black"/>
<path d="M284.673 132.711C290.787 140.827 290.044 153.572 283.016 160.945C285.701 151.572 286.273 142.256 284.673 132.711Z" fill="black"/>
<path d="M178.098 228.5C178.098 246.16 163.755 260.506 146.097 260.506C128.44 260.506 115.925 246.16 115.925 228.5C115.925 210.84 128.44 196.494 146.097 196.494C163.812 196.494 178.098 210.84 178.098 228.5Z" fill="white"/>
<path d="M146.155 262.106C127.983 262.106 114.325 247.646 114.325 228.5C114.325 209.354 127.983 194.894 146.155 194.894C164.669 194.894 179.756 209.982 179.756 228.5C179.756 247.018 164.669 262.106 146.155 262.106ZM146.155 198.152C129.868 198.152 117.639 211.183 117.639 228.5C117.639 245.818 129.925 258.849 146.155 258.849C162.898 258.849 176.498 245.246 176.498 228.5C176.441 211.754 162.841 198.152 146.155 198.152Z" fill="black"/>
<path d="M248.043 225.357C248.043 243.017 235.3 257.363 217.642 257.363C199.985 257.363 185.641 243.017 185.641 225.357C185.641 207.696 199.985 193.351 217.642 193.351C235.3 193.351 248.043 207.696 248.043 225.357Z" fill="white"/>
<path d="M217.642 258.963C199.127 258.963 184.041 243.874 184.041 225.357C184.041 206.839 199.127 191.75 217.642 191.75C235.929 191.75 249.7 206.21 249.7 225.357C249.7 244.503 235.929 258.963 217.642 258.963ZM217.642 195.008C200.899 195.008 187.298 208.611 187.298 225.357C187.298 242.103 200.899 255.705 217.642 255.705C234.043 255.705 246.443 242.674 246.443 225.357C246.443 208.039 234.043 195.008 217.642 195.008Z" fill="black"/>
<path d="M161.012 281.653C160.612 282.51 171.07 296.97 178.784 297.37C186.441 297.77 194.785 284.168 196.499 279.538C198.213 274.909 170.27 263.021 161.012 281.653Z" fill="#70574B"/>
<path d="M179.127 299.027C178.955 299.027 178.841 299.027 178.67 299.027C170.555 298.57 161.412 285.939 160.041 283.596C159.526 282.682 159.069 281.824 159.526 280.91C165.641 268.508 180.098 267.822 190.899 272.451C196.213 274.737 198.899 277.595 197.985 280.11C196.556 284.225 188.156 299.027 179.127 299.027ZM162.784 281.824C164.269 284.682 173.07 295.427 178.841 295.77C178.955 295.77 179.013 295.77 179.127 295.77C185.47 295.77 193.299 283.425 194.899 279.024C194.67 277.995 189.413 274.451 182.041 273.423C176.841 272.737 167.584 272.908 162.784 281.824Z" fill="black"/>
<path d="M145.926 306.4C153.697 315.888 171.527 318.345 180.384 309.372C185.756 313.487 193.184 315.03 199.756 313.03C205.985 311.087 211.699 307.086 216.842 302.628C212.671 308.058 207.299 312.801 200.613 315.488C193.699 318.174 185.756 317.031 179.641 312.859L181.87 312.63C171.412 321.66 152.44 318.231 145.926 306.4Z" fill="black"/>
<path d="M176.27 297.427C179.641 301.942 180.27 308.344 177.812 313.373C178.555 312.459 179.755 311.887 180.898 311.887C182.041 311.887 183.241 312.459 183.984 313.43C182.441 311.716 181.813 309.258 181.698 306.972C181.527 302.628 183.07 298.284 185.87 295.027C184.155 295.941 182.098 297.599 180.155 297.427" fill="black"/>
<path d="M213.414 305.772C213.814 305.143 214.442 304.743 215.014 304.286C215.585 303.828 216.099 303.142 215.985 302.4C215.928 301.771 215.414 301.256 214.899 300.856C214.385 300.456 213.814 300.171 213.414 299.656C215.014 300.342 217.071 300.285 218.157 301.657C218.785 302.4 218.957 303.485 218.842 304.4C218.728 305.372 218.328 306.286 217.985 307.2C217.757 306.4 217.471 305.543 217.242 304.743C217.128 304.457 217.071 304.171 216.785 304C216.442 303.828 216.042 304.057 215.699 304.286C213.985 305.429 212.271 306.572 210.556 307.715" fill="black"/>
<path d="M148.555 309.258C148.155 308.915 147.812 308.515 147.526 308.115C147.24 307.658 147.126 307.086 147.297 306.629C147.469 306.172 147.812 305.829 148.212 305.6C148.612 305.372 149.069 305.257 149.526 305.143C148.612 305.257 147.697 305.086 146.783 305.086C145.869 305.086 144.84 305.371 144.383 306.114C143.926 306.8 143.983 307.715 144.212 308.515C144.44 309.315 144.726 310.115 144.669 310.915C144.726 310.115 144.84 309.372 145.012 308.629C145.069 308.401 145.183 308.115 145.354 308.001C145.64 307.829 146.04 308.001 146.326 308.172C147.583 308.915 148.669 309.887 149.583 311.03" fill="black"/>
<path d="M164.326 281.824C171.241 283.596 178.498 283.939 185.527 282.91L164.326 281.824Z" fill="black"/>
<path d="M176.613 339.206C181.013 339.892 184.784 339.721 189.07 338.692C185.87 341.893 180.041 342.121 176.613 339.206Z" fill="black"/>
<path d="M206.842 241.017C211.166 241.017 214.671 237.511 214.671 233.187C214.671 228.862 211.166 225.357 206.842 225.357C202.518 225.357 199.013 228.862 199.013 233.187C199.013 237.511 202.518 241.017 206.842 241.017Z" fill="black"/>
<path d="M157.583 241.017C161.907 241.017 165.412 237.511 165.412 233.187C165.412 228.862 161.907 225.357 157.583 225.357C153.26 225.357 149.755 228.862 149.755 233.187C149.755 237.511 153.26 241.017 157.583 241.017Z" fill="black"/>
<path opacity="0.49" d="M195.87 279.595C192.956 285.711 189.242 291.369 184.727 296.398C183.413 297.884 181.87 299.37 179.927 299.428C178.155 299.485 176.613 298.456 175.241 297.313C171.584 294.341 153.012 282.51 163.241 281.424C167.469 280.967 177.641 283.767 181.984 283.367C186.784 282.967 191.527 281.71 195.87 279.595Z" fill="black"/>
<path opacity="0.17" d="M257.986 165.174C262.101 157.287 269.758 151.286 278.444 149.228C276.444 162.316 271.701 174.947 264.615 186.092C251.472 159.916 224.785 141.112 195.756 137.512C207.299 144.713 218.271 152.886 228.5 161.859C232.1 165.06 235.7 168.375 238.1 172.604C240.5 176.776 241.586 181.977 239.929 186.492C230.386 180.034 220.042 174.833 209.128 171.061C218.9 174.319 227.357 181.348 232.386 190.379C218.842 186.664 203.413 191.465 194.327 202.095C203.242 196.608 215.242 196.608 224.157 202.152C233.071 207.696 238.329 218.498 237.3 228.9C236.157 240.159 228.557 249.533 221.242 258.163C224.557 255.305 228.957 254.734 233.071 253.248C237.186 251.762 241.357 249.647 244.557 252.676C248.1 256.048 248.386 261.535 247.986 266.393C245.415 295.484 227.014 321.203 204.442 339.721C230.728 326.976 252.615 305.314 265.644 279.138C278.673 252.962 282.787 222.499 277.13 193.808C305.874 174.947 320.788 137.226 312.731 103.791C314.045 109.221 303.645 118.308 299.988 120.994C294.216 125.338 286.844 127.167 281.301 131.796C277.53 134.94 275.301 139.455 272.444 143.399C267.244 150.486 262.101 157.401 257.986 165.174Z" fill="#660000"/>
<path opacity="0.23" d="M161.698 310.572C166.612 310.23 171.355 306.8 172.555 302.057C173.755 297.313 170.669 291.655 165.869 290.683C169.355 294.798 174.841 297.084 180.213 296.741C185.584 296.341 190.67 293.312 193.527 288.74C189.356 292.912 184.841 298.399 186.556 304.057C188.156 309.258 194.556 311.601 199.87 310.515C205.185 309.429 208.956 307.715 213.071 304.228C215.699 300.856 212.328 299.828 210.442 298.685C216.328 298.856 222.9 301.828 219.242 310.058C219.871 308.572 218.157 306.972 216.499 307.029C214.899 307.086 213.528 308.229 212.271 309.258C204.499 315.888 197.413 322.803 190.441 330.805C192.899 329.09 190.727 323.26 188.441 321.374C186.098 319.431 182.898 319.145 179.87 319.031C177.127 318.917 175.412 318.46 173.298 320.231C171.184 322.06 169.755 328.519 172.384 329.319C168.098 328.004 163.126 321.032 159.412 318.402C154.897 315.259 150.383 311.544 145.583 308.915C145.126 310.572 145.754 310.401 145.126 312.173C142.44 308.972 142.726 302.399 151.069 303.828C150.383 304.228 149.412 305.257 148.84 305.772C151.526 309.487 157.126 310.915 161.698 310.572Z" fill="#660000"/>
<path opacity="0.17" d="M151.469 200.724C154.555 200.152 157.755 200.095 160.898 200.266C156.441 197.923 151.526 196.494 146.155 196.494C128.497 196.494 115.982 210.84 115.982 228.5C115.982 246.16 128.497 260.506 146.155 260.506C150.04 260.506 153.755 259.706 157.183 258.449C157.241 258.277 157.355 258.106 157.355 257.934C157.412 256.448 155.983 255.305 154.555 255.019C153.126 254.734 151.64 255.134 150.155 255.305C140.84 256.677 131.125 251.133 126.84 242.731C122.554 234.33 123.468 223.756 128.44 215.755C133.468 207.696 142.212 202.381 151.469 200.724Z" fill="black"/>
<path opacity="0.17" d="M70.0379 135.283C67.9235 134.597 65.1806 134.14 63.9805 135.969C62.9519 137.455 63.6948 139.398 64.4948 140.998C71.6379 155.515 81.1811 168.775 92.61 180.205C93.4672 181.063 94.3815 181.92 95.5815 182.091C97.0673 182.32 98.4959 181.348 99.5816 180.377C105.296 175.176 107.753 166.717 105.696 159.287C101.525 144.199 82.8954 139.398 70.0379 135.283Z" fill="black"/>
<path opacity="0.47" d="M280.273 113.965C289.93 110.707 300.445 109.678 309.131 104.363C304.045 110.364 298.902 116.308 293.816 122.309C294.445 120.937 295.13 119.508 295.759 118.137C278.273 117.851 261.815 127.796 250.5 141.112C247.986 144.084 245.586 147.342 244.9 151.171C244.215 154.829 245.415 159.173 248.843 161.059C244.615 157.63 240.272 153.743 242.043 148.028C243.643 142.941 248.1 137.626 251.529 133.625C259.072 124.652 269.13 117.737 280.273 113.965Z" fill="#DD6628"/>
<path opacity="0.47" d="M120.382 149.228C114.896 134.94 101.81 123.852 86.8956 120.766C77.6953 118.88 67.9236 119.794 59.0662 116.651C61.8662 117.622 64.0377 120.366 66.7807 121.395C69.2379 122.309 71.8665 122.195 74.4952 122.538C80.4954 123.281 86.3813 124.881 91.9814 127.224C103.182 131.911 113.125 139.512 120.382 149.228Z" fill="#DD6628"/>
<path opacity="0.47" d="M158.212 145.685C167.298 144.256 177.184 144.77 184.784 149.971C164.841 150.371 145.012 156.258 128.097 166.774C126.897 167.517 125.182 168.26 124.211 167.232C123.525 166.546 123.697 165.403 123.925 164.488C128.097 149.285 144.783 147.799 158.212 145.685Z" fill="#DD6628"/>
<path opacity="0.75" d="M119.239 303.543C110.668 290.74 103.01 278.281 97.9243 263.649C93.4099 250.733 87.9812 233.244 89.8669 219.413C94.4956 220.956 93.4099 233.415 93.9813 237.53C95.1242 245.36 96.8386 253.133 99.1244 260.678C103.639 275.88 110.439 290.397 119.239 303.543Z" fill="#DD6628"/>
<path opacity="0.75" d="M169.984 278.166C172.041 277.423 174.27 277.252 176.384 277.652C177.355 277.824 178.498 278.395 178.498 279.367C178.498 280.338 177.47 280.853 176.498 281.081C175.012 281.481 173.469 281.538 171.927 281.367C171.184 281.253 170.441 281.081 169.812 280.681C169.184 280.281 168.784 279.481 169.012 278.738C169.184 277.995 170.098 277.481 170.727 277.881" fill="#DD6628"/>
<path d="M224.271 148.828C233.128 155.001 240.729 163.059 246.5 172.204C243.872 161.459 237.586 151.629 228.957 144.77" fill="black"/>
<path d="M129.183 144.942C121.182 150.371 114.782 158.087 110.953 166.946C120.211 157.001 132.097 149.457 145.012 145.228" fill="black"/>
</svg>
