<svg width="269" height="264" viewBox="0 0 269 264" fill="none" xmlns="http://www.w3.org/2000/svg">
<g clip-path="url(#clip0_315_707)">
<circle cx="134.5" cy="137.5" r="131.5" fill="white"/>
<path fill-rule="evenodd" clip-rule="evenodd" d="M134.099 0C59.9458 0 0 60.5 0 135.347C0 195.176 38.4094 245.82 91.6933 263.744C98.3552 265.092 100.795 260.832 100.795 257.249C100.795 254.111 100.576 243.356 100.576 232.149C63.2726 240.218 55.5046 216.015 55.5046 216.015C49.5097 200.329 40.6272 196.298 40.6272 196.298C28.4179 188.006 41.5166 188.006 41.5166 188.006C55.0599 188.903 62.1664 201.899 62.1664 201.899C74.1534 222.513 93.4693 216.689 101.24 213.103C102.349 204.363 105.904 198.313 109.678 194.953C79.9259 191.815 48.6231 180.164 48.6231 128.175C48.6231 113.385 53.9482 101.285 62.386 91.8748C61.0548 88.5143 56.3912 74.6185 63.7201 56.0203C63.7201 56.0203 75.0428 52.4343 100.573 69.9133C111.503 66.9506 122.776 65.4434 134.099 65.4307C145.422 65.4307 156.964 67.001 167.623 69.9133C193.156 52.4343 204.478 56.0203 204.478 56.0203C211.807 74.6185 207.141 88.5143 205.81 91.8748C214.47 101.285 219.575 113.385 219.575 128.175C219.575 180.164 188.273 191.59 158.298 194.953C163.184 199.21 167.4 207.276 167.4 220.049C167.4 238.199 167.181 252.766 167.181 257.246C167.181 260.832 169.624 265.092 176.283 263.747C229.567 245.817 267.976 195.176 267.976 135.347C268.196 60.5 208.03 0 134.099 0Z" fill="#24292F"/>
</g>
<defs>
<clipPath id="clip0_315_707">
<rect width="269" height="264" fill="white"/>
</clipPath>
</defs>
</svg>
