<svg width="532" height="428" viewBox="0 0 532 428" fill="none" xmlns="http://www.w3.org/2000/svg">
<path d="M143.089 240.746C143.089 255.656 130.999 267.746 116.089 267.746C101.179 267.746 89.089 255.656 89.089 240.746C89.089 225.836 101.179 213.746 116.089 213.746H143.089V240.746Z" fill="#E01E5A"/>
<path d="M156.589 240.746C156.589 225.836 168.679 213.746 183.589 213.746C198.499 213.746 210.589 225.836 210.589 240.746V308.246C210.589 323.156 198.499 335.246 183.589 335.246C168.679 335.246 156.589 323.156 156.589 308.246V240.746Z" fill="#E01E5A"/>
<path d="M183.589 132.746C168.679 132.746 156.589 120.656 156.589 105.746C156.589 90.8357 168.679 78.7457 183.589 78.7457C198.499 78.7457 210.589 90.8357 210.589 105.746V132.746H183.589Z" fill="#36C5F0"/>
<path d="M183.589 146.246C198.499 146.246 210.589 158.336 210.589 173.246C210.589 188.156 198.499 200.246 183.589 200.246H116.089C101.179 200.246 89.089 188.156 89.089 173.246C89.089 158.336 101.179 146.246 116.089 146.246H183.589Z" fill="#36C5F0"/>
<path d="M291.589 173.246C291.589 158.336 303.679 146.246 318.589 146.246C333.499 146.246 345.589 158.336 345.589 173.246C345.589 188.156 333.499 200.246 318.589 200.246H291.589V173.246Z" fill="#2EB67D"/>
<path d="M278.089 173.246C278.089 188.156 265.999 200.246 251.089 200.246C236.179 200.246 224.089 188.156 224.089 173.246V105.746C224.089 90.8357 236.179 78.7457 251.089 78.7457C265.999 78.7457 278.089 90.8357 278.089 105.746V173.246Z" fill="#2EB67D"/>
<path d="M251.089 281.246C265.999 281.246 278.089 293.336 278.089 308.246C278.089 323.156 265.999 335.246 251.089 335.246C236.179 335.246 224.089 323.156 224.089 308.246V281.246H251.089Z" fill="#ECB22E"/>
<path d="M251.089 267.746C236.179 267.746 224.089 255.656 224.089 240.746C224.089 225.836 236.179 213.746 251.089 213.746H318.589C333.499 213.746 345.589 225.836 345.589 240.746C345.589 255.656 333.499 267.746 318.589 267.746H251.089Z" fill="#ECB22E"/>
<path d="M314.756 88.4889C314.756 88.4889 279.837 64.3211 289.219 19.281C293.247 26.0096 335.58 20.6084 349.035 50.864C349.035 50.864 403.45 29.351 432.327 53.885C432.327 53.885 448.437 23.309 467.933 19.281C487.429 15.2531 496.811 9.21112 496.811 9.21112C496.811 9.21112 509.579 60.2931 466.56 88.4889C466.56 88.4889 482.852 184.565 393.061 211.434C377.226 213.493 307.388 181.91 314.756 88.4889Z" fill="#DD6628"/>
<path d="M391.779 214.134C382.26 214.134 363.863 207.36 346.655 190.928C328.715 173.809 308.258 142.455 312.011 89.7248C305.741 84.7356 278.007 60.0185 286.657 18.7775L288.029 12.1863L291.508 17.9536C292.331 19.0979 298.464 20.1965 302.949 20.9746C316.953 23.4921 340.019 27.6116 350.362 47.5683C360.979 43.815 404.594 30.1291 431.55 49.9027C436.126 42.0757 450.313 20.2422 467.43 16.672C486.102 12.8271 495.346 7.01399 495.438 6.96822L498.504 5L499.374 8.57024C499.511 9.07374 511.822 60.6593 469.397 89.7705C471.045 102.999 478.139 188.776 393.839 213.997C393.244 214.088 392.557 214.134 391.779 214.134ZM291.096 23.6752C284.826 64.0464 315.901 86.1087 316.267 86.3376L317.502 87.2073L317.365 88.7178C313.292 140.212 333.017 170.65 350.27 187.128C368.027 204.064 386.7 209.648 392.741 208.87C478.779 183.055 464.592 92.7915 463.951 88.9466L463.677 87.253L465.096 86.2918C500.198 63.2225 496.857 24.8652 494.889 13.239C490.541 15.3903 481.8 19.0979 468.391 21.89C450.359 25.5976 434.753 54.8462 434.57 55.1666L433.06 58.0502L430.543 55.9447C403.175 32.6923 350.453 53.1526 349.904 53.3814L347.57 54.2969L346.563 52.0083C337.959 32.6465 316.267 28.7559 301.942 26.2384C297.457 25.323 293.75 24.6821 291.096 23.6752Z" fill="black"/>
<path d="M323.132 74.9861C324.047 72.2397 325.695 69.7222 327.937 67.7998C327.388 69.173 326.839 70.5461 326.289 71.9193C327.662 68.9441 329.996 66.3808 332.834 64.6873C331.644 65.3738 321.942 43.7235 316.13 49.6739C310.958 54.892 320.432 70.2257 323.132 74.9861Z" fill="#EB7A8B"/>
<path d="M476.217 36.6288C476.079 36.5372 475.942 36.3999 475.805 36.3084C469.169 41.0687 463.219 46.7903 458.231 53.3815C455.622 56.8144 451.686 60.4304 451.366 65.0077C451.229 66.9759 456.904 82.3097 458.002 81.3942C464.821 75.2607 471.32 68.0744 473.379 59.1488C474.706 53.3815 474.157 47.3395 475.439 41.5722C475.805 40.016 476.354 38.5055 477.086 37.0407C476.766 36.8576 476.491 36.7203 476.217 36.6288Z" fill="#EB7A8B"/>
<path d="M379.514 186.03C379.56 186.259 382.306 194.727 383.542 196.97C384.777 199.212 385.189 199.533 385.189 199.533C385.189 199.533 391.001 199.487 391.001 199.258C391.001 199.029 391.184 197.519 391.184 197.519L391.871 198.984C391.871 198.984 396.676 199.441 397.5 199.212C398.324 198.984 401.756 186.259 401.436 186.076C401.115 185.893 396.63 185.343 394.754 184.245C392.878 183.146 391.001 182.322 390.406 182.139C389.811 182.002 387.798 183.192 387.798 183.192C387.798 183.192 382.443 185.481 382.214 185.298" fill="white"/>
<path d="M385.006 200.219L384.823 200.036C384.64 199.899 384.137 199.395 382.993 197.244C381.711 194.91 378.965 186.442 378.919 186.167L380.201 185.847C380.292 186.167 382.993 194.452 384.182 196.603C384.915 197.977 385.372 198.572 385.555 198.846C387.523 198.846 389.629 198.755 390.498 198.709C390.544 198.16 390.635 197.427 390.635 197.427L390.864 195.139L392.374 198.343C394.342 198.526 396.585 198.663 397.271 198.572C398.095 197.29 400.521 188.685 400.841 186.533C400.612 186.488 400.338 186.442 400.063 186.396C398.415 186.076 395.853 185.618 394.48 184.748C392.649 183.65 390.818 182.872 390.315 182.734C390.086 182.734 389.079 183.192 388.21 183.696C382.443 186.167 382.215 186.03 381.894 185.755L382.306 185.206V184.565C382.718 184.519 385.372 183.467 387.661 182.505C388.622 181.956 389.995 181.27 390.681 181.453C391.368 181.636 393.29 182.46 395.166 183.604C396.356 184.336 398.827 184.794 400.292 185.069C401.344 185.252 401.665 185.343 401.848 185.481C402.26 185.755 402.168 186.259 402.077 186.762C402.077 186.9 399.239 199.441 397.729 199.853C396.814 200.082 393.015 199.762 391.871 199.67H391.688C391.505 200.082 390.498 200.219 385.235 200.265L385.006 200.219Z" fill="black"/>
<path d="M297.457 40.3821C313.017 36.2625 331.232 48.9873 332.697 65.0534C323.589 52.2371 312.651 44.5016 297.457 40.3821Z" fill="black"/>
<path d="M451.458 65.4654C453.837 48.1176 469.398 32.7381 486.788 30.6326C472.098 40.1075 461.114 50.9098 451.458 65.4654Z" fill="black"/>
<path d="M411.87 70.3173C424.822 67.3878 439.375 79.5175 438.78 92.7915C431.55 82.1266 423.678 75.5353 411.87 70.3173Z" fill="black"/>
<path d="M336.678 93.4323C339.378 82.2181 350.911 73.979 362.398 74.0706C364.046 74.2079 366.425 75.0318 366.563 76.9085C365.327 75.7642 363.908 76.2219 362.673 76.6338C352.787 80.7076 345.007 86.2918 336.678 93.4323Z" fill="black"/>
<path d="M316.129 46.4698C317.365 56.1278 319.836 65.2822 323.589 74.2536C316.633 67.1589 313.704 56.1278 316.129 46.4698Z" fill="black"/>
<path d="M473.242 38.4139C478.139 44.9136 477.544 55.1208 471.914 61.0255C474.065 53.5188 474.523 46.0579 473.242 38.4139Z" fill="black"/>
<path d="M387.889 115.128C387.889 129.272 376.402 140.761 362.261 140.761C348.119 140.761 338.097 129.272 338.097 115.128C338.097 100.985 348.119 89.4959 362.261 89.4959C376.448 89.4959 387.889 100.985 387.889 115.128Z" fill="white"/>
<path d="M362.306 142.043C347.753 142.043 336.815 130.462 336.815 115.128C336.815 99.7947 347.753 88.2143 362.306 88.2143C377.134 88.2143 389.216 100.298 389.216 115.128C389.216 129.959 377.134 142.043 362.306 142.043ZM362.306 90.8233C349.263 90.8233 339.47 101.259 339.47 115.128C339.47 128.998 349.309 139.434 362.306 139.434C375.716 139.434 386.608 128.54 386.608 115.128C386.562 101.717 375.67 90.8233 362.306 90.8233Z" fill="black"/>
<path d="M443.906 112.611C443.906 126.755 433.701 138.244 419.559 138.244C405.418 138.244 393.931 126.755 393.931 112.611C393.931 98.4673 405.418 86.9785 419.559 86.9785C433.701 86.9785 443.906 98.4673 443.906 112.611Z" fill="white"/>
<path d="M419.559 139.525C404.731 139.525 392.649 127.441 392.649 112.611C392.649 97.7807 404.731 85.6968 419.559 85.6968C434.204 85.6968 445.234 97.2772 445.234 112.611C445.234 127.945 434.204 139.525 419.559 139.525ZM419.559 88.3058C406.15 88.3058 395.258 99.1997 395.258 112.611C395.258 126.022 406.15 136.916 419.559 136.916C432.694 136.916 442.625 126.48 442.625 112.611C442.625 98.742 432.694 88.3058 419.559 88.3058Z" fill="black"/>
<path d="M374.206 157.697C373.885 158.383 382.26 169.964 388.439 170.284C394.571 170.605 401.253 159.711 402.626 156.003C403.999 152.296 381.62 142.775 374.206 157.697Z" fill="#70574B"/>
<path d="M388.713 171.612C388.576 171.612 388.484 171.612 388.347 171.612C381.848 171.245 374.526 161.13 373.428 159.253C373.016 158.521 372.65 157.834 373.016 157.102C377.913 147.169 389.491 146.62 398.141 150.327C402.397 152.158 404.548 154.447 403.816 156.461C402.672 159.757 395.944 171.612 388.713 171.612ZM375.624 157.834C376.814 160.123 383.862 168.728 388.484 169.003C388.576 169.003 388.622 169.003 388.713 169.003C393.793 169.003 400.063 159.116 401.344 155.591C401.161 154.767 396.951 151.929 391.047 151.106C386.883 150.556 379.469 150.694 375.624 157.834Z" fill="black"/>
<path d="M362.123 177.516C368.348 185.114 382.626 187.083 389.72 179.896C394.022 183.192 399.971 184.428 405.234 182.826C410.223 181.27 414.799 178.066 418.918 174.495C415.577 178.844 411.275 182.643 405.921 184.794C400.383 186.945 394.022 186.03 389.125 182.689L390.91 182.505C382.535 189.737 367.341 186.991 362.123 177.516Z" fill="black"/>
<path d="M386.425 170.33C389.125 173.946 389.628 179.073 387.66 183.101C388.255 182.368 389.217 181.91 390.132 181.91C391.047 181.91 392.008 182.368 392.603 183.146C391.367 181.773 390.864 179.805 390.773 177.974C390.635 174.495 391.871 171.017 394.113 168.408C392.74 169.14 391.093 170.467 389.537 170.33" fill="black"/>
<path d="M416.172 177.013C416.493 176.509 416.996 176.189 417.454 175.823C417.911 175.456 418.323 174.907 418.232 174.312C418.186 173.809 417.774 173.397 417.362 173.076C416.95 172.756 416.493 172.527 416.172 172.115C417.454 172.664 419.101 172.619 419.971 173.717C420.474 174.312 420.611 175.182 420.52 175.914C420.428 176.692 420.108 177.425 419.833 178.157C419.65 177.516 419.422 176.83 419.238 176.189C419.147 175.96 419.101 175.731 418.872 175.594C418.598 175.456 418.277 175.64 418.003 175.823C416.63 176.738 415.257 177.653 413.884 178.569" fill="black"/>
<path d="M364.229 179.805C363.908 179.53 363.634 179.21 363.405 178.889C363.176 178.523 363.084 178.066 363.222 177.699C363.359 177.333 363.634 177.059 363.954 176.875C364.274 176.692 364.641 176.601 365.007 176.509C364.274 176.601 363.542 176.464 362.81 176.464C362.078 176.464 361.254 176.692 360.888 177.287C360.522 177.837 360.567 178.569 360.75 179.21C360.934 179.851 361.162 180.491 361.117 181.132C361.162 180.491 361.254 179.896 361.391 179.301C361.437 179.118 361.528 178.889 361.666 178.798C361.895 178.661 362.215 178.798 362.444 178.935C363.451 179.53 364.32 180.308 365.052 181.224" fill="black"/>
<path d="M376.86 157.834C382.398 159.253 388.21 159.528 393.839 158.704Z" fill="black"/>
<path d="M386.699 203.79C390.223 204.339 393.244 204.202 396.676 203.378C394.113 205.941 389.445 206.124 386.699 203.79Z" fill="black"/>
<path d="M410.909 125.153C414.372 125.153 417.179 122.345 417.179 118.882C417.179 115.418 414.372 112.611 410.909 112.611C407.447 112.611 404.64 115.418 404.64 118.882C404.64 122.345 407.447 125.153 410.909 125.153Z" fill="black"/>
<path d="M371.46 125.153C374.922 125.153 377.729 122.345 377.729 118.882C377.729 115.418 374.922 112.611 371.46 112.611C367.997 112.611 365.19 115.418 365.19 118.882C365.19 122.345 367.997 125.153 371.46 125.153Z" fill="black"/>
<path opacity="0.49" d="M402.122 156.049C399.788 160.947 396.814 165.478 393.198 169.506C392.145 170.696 390.91 171.886 389.354 171.932C387.935 171.978 386.699 171.154 385.601 170.238C382.672 167.858 367.798 158.383 375.99 157.514C379.377 157.148 387.523 159.39 391.001 159.07C394.846 158.75 398.644 157.743 402.122 156.049Z" fill="black"/>
<path opacity="0.17" d="M451.869 64.4126C455.164 58.096 461.297 53.2899 468.253 51.6421C466.651 62.1239 462.853 72.2396 457.178 81.1653C446.652 60.2015 425.28 45.1424 402.031 42.2587C411.275 48.026 420.062 54.5715 428.254 61.7578C431.137 64.321 434.021 66.9758 435.943 70.363C437.865 73.7044 438.735 77.8696 437.407 81.4857C429.765 76.3134 421.481 72.1481 412.74 69.1271C420.566 71.7362 427.339 77.3661 431.366 84.5982C420.52 81.623 408.163 85.4679 400.887 93.9815C408.026 89.5874 417.637 89.5874 424.776 94.0273C431.915 98.4672 436.126 107.118 435.302 115.449C434.387 124.466 428.3 131.973 422.442 138.884C425.096 136.596 428.62 136.138 431.916 134.948C435.211 133.758 438.551 132.064 441.114 134.49C443.952 137.191 444.181 141.585 443.86 145.476C441.801 168.774 427.064 189.371 408.987 204.202C430.039 193.994 447.567 176.647 458.002 155.683C468.436 134.719 471.731 110.322 467.201 87.3445C490.221 72.2396 502.165 42.0299 495.712 15.253C496.765 19.6014 488.436 26.8792 485.507 29.0305C480.884 32.5092 474.981 33.9739 470.541 37.6815C467.521 40.1989 465.736 43.815 463.448 46.9733C459.283 52.6491 455.164 58.1875 451.869 64.4126Z" fill="#660000"/>
<path opacity="0.23" d="M374.755 180.858C378.691 180.583 382.489 177.837 383.45 174.038C384.411 170.238 381.94 165.707 378.096 164.929C380.887 168.224 385.281 170.055 389.583 169.781C393.885 169.46 397.958 167.034 400.246 163.373C396.905 166.714 393.29 171.108 394.663 175.64C395.944 179.805 401.07 181.682 405.326 180.812C409.582 179.942 412.603 178.569 415.898 175.777C418.003 173.076 415.303 172.252 413.793 171.337C418.506 171.474 423.769 173.854 420.84 180.446C421.344 179.256 419.971 177.974 418.644 178.02C417.362 178.066 416.264 178.981 415.257 179.805C409.033 185.114 403.358 190.653 397.775 197.061C399.743 195.688 398.003 191.019 396.173 189.509C394.296 187.952 391.734 187.723 389.308 187.632C387.111 187.54 385.738 187.174 384.045 188.593C382.352 190.058 381.208 195.23 383.313 195.871C379.88 194.818 375.899 189.234 372.924 187.128C369.309 184.611 365.693 181.636 361.849 179.53C361.483 180.858 361.986 180.72 361.483 182.139C359.332 179.576 359.561 174.312 366.242 175.456C365.693 175.777 364.915 176.601 364.458 177.013C366.608 179.988 371.093 181.132 374.755 180.858Z" fill="#660000"/>
<path opacity="0.17" d="M366.563 92.883C369.034 92.4253 371.597 92.3795 374.114 92.5168C370.544 90.6402 366.608 89.4958 362.307 89.4958C348.165 89.4958 338.142 100.985 338.142 115.128C338.142 129.272 348.165 140.761 362.307 140.761C365.419 140.761 368.393 140.12 371.139 139.113C371.185 138.976 371.277 138.839 371.277 138.701C371.322 137.511 370.178 136.596 369.034 136.367C367.89 136.138 366.7 136.458 365.51 136.596C358.05 137.694 350.27 133.254 346.838 126.526C343.405 119.797 344.138 111.329 348.119 104.921C352.147 98.4673 359.149 94.2104 366.563 92.883Z" fill="black"/>
<path opacity="0.17" d="M301.347 40.4736C299.654 39.9244 297.457 39.5582 296.496 41.0229C295.672 42.213 296.267 43.7693 296.908 45.0509C302.629 56.6771 310.271 67.2963 319.425 76.4508C320.111 77.1374 320.843 77.8239 321.804 77.9613C322.994 78.1444 324.138 77.3662 325.008 76.5881C329.584 72.4228 331.552 65.6485 329.905 59.6981C326.564 47.6141 311.644 43.7693 301.347 40.4736Z" fill="black"/>
<path opacity="0.47" d="M469.718 23.4005C477.452 20.7915 485.873 19.9676 492.829 15.7108C488.756 20.5169 484.637 25.2772 480.564 30.0833C481.068 28.9848 481.617 27.8404 482.12 26.7419C468.116 26.513 454.936 34.4774 445.874 45.1424C443.86 47.5226 441.938 50.1316 441.389 53.1984C440.84 56.1278 441.801 59.6065 444.547 61.117C441.16 58.3707 437.682 55.2581 439.101 50.6809C440.382 46.6071 443.952 42.3503 446.698 39.1462C452.739 31.96 460.794 26.4215 469.718 23.4005Z" fill="#DD6628"/>
<path opacity="0.47" d="M341.666 51.6421C337.273 40.199 326.793 31.3191 314.848 28.8474C307.48 27.3369 299.654 28.0693 292.56 25.5518C294.803 26.3299 296.542 28.527 298.738 29.3509C300.706 30.0832 302.812 29.9917 304.917 30.2663C309.722 30.8614 314.436 32.143 318.921 34.0197C327.891 37.773 335.854 43.8608 341.666 51.6421Z" fill="#DD6628"/>
<path opacity="0.47" d="M371.963 48.8042C379.24 47.6599 387.157 48.0718 393.244 52.2371C377.272 52.5575 361.391 57.2721 347.845 65.6942C346.884 66.2893 345.511 66.8843 344.733 66.0604C344.183 65.5111 344.321 64.5957 344.504 63.8633C347.845 51.6878 361.208 50.4978 371.963 48.8042Z" fill="#DD6628"/>
<path opacity="0.75" d="M340.751 175.228C333.886 164.975 327.754 154.996 323.681 143.278C320.065 132.934 315.717 118.928 317.228 107.851C320.935 109.086 320.065 119.065 320.523 122.36C321.438 128.631 322.811 134.856 324.642 140.898C328.257 153.074 333.703 164.7 340.751 175.228Z" fill="#DD6628"/>
<path opacity="0.75" d="M381.391 154.905C383.038 154.31 384.823 154.172 386.516 154.493C387.294 154.63 388.21 155.088 388.21 155.866C388.21 156.644 387.386 157.056 386.608 157.239C385.418 157.559 384.182 157.605 382.947 157.468C382.352 157.376 381.757 157.239 381.253 156.919C380.75 156.598 380.43 155.957 380.613 155.362C380.75 154.767 381.482 154.355 381.986 154.676" fill="#DD6628"/>
<path d="M424.868 51.3216C431.961 56.2651 438.048 62.719 442.67 70.0426C440.565 61.4374 435.531 53.5645 428.62 48.0718" fill="black"/>
<path d="M348.714 48.2092C342.307 52.5575 337.181 58.7368 334.115 65.8315C341.529 57.8671 351.048 51.8252 361.391 48.438" fill="black"/>
</svg>
