<svg width="232" height="241" viewBox="0 0 232 241" fill="none" xmlns="http://www.w3.org/2000/svg">
<path d="M191.865 17.8494C189.983 10.8199 184.459 5.29569 177.429 3.41397C164.701 1.02193e-06 113.639 0 113.639 0C113.639 0 62.5776 1.02193e-06 49.8491 3.41397C42.8196 5.29569 37.2954 10.8199 35.4137 17.8494C31.9998 30.5779 31.9998 57.1504 31.9998 57.1504C31.9998 57.1504 31.9998 83.723 35.4137 96.4516C37.2954 103.481 42.8196 109.005 49.8491 110.887C62.5776 114.301 113.639 114.301 113.639 114.301C113.639 114.301 164.701 114.301 177.429 110.887C184.459 109.005 189.983 103.481 191.865 96.4516C195.279 83.723 195.279 57.1504 195.279 57.1504C195.279 57.1504 195.265 30.5779 191.865 17.8494Z" fill="#FF0000"/>
<path d="M97.2958 81.6414L139.715 57.1524L97.2958 32.6631V81.6414Z" fill="white"/>
<path d="M63.2233 149.742C63.2233 149.742 39.4913 133.317 45.8675 102.706C48.6046 107.279 77.3754 103.608 86.5199 124.171C86.5199 124.171 123.502 109.55 143.128 126.224C143.128 126.224 154.077 105.444 167.327 102.706C180.577 99.9686 186.953 95.8623 186.953 95.8623C186.953 95.8623 195.631 130.579 166.394 149.742C166.394 149.742 177.467 215.038 116.441 233.299C105.68 234.699 58.2156 213.234 63.2233 149.742Z" fill="#DD6628"/>
<path d="M115.571 235.134C109.101 235.134 96.5975 230.53 84.9026 219.362C72.71 207.728 58.8067 186.418 61.3572 150.582C57.096 147.191 38.2473 130.392 44.1258 102.364L45.0589 97.884L47.4228 101.804C47.9827 102.581 52.1506 103.328 55.1987 103.857C64.7164 105.568 80.3926 108.368 87.422 121.931C94.638 119.38 124.28 110.079 142.6 123.517C145.71 118.198 155.352 103.359 166.985 100.933C179.675 98.3195 185.958 94.3688 186.02 94.3377L188.104 93L188.695 95.4264C188.788 95.7686 197.155 130.828 168.322 150.613C169.442 159.603 174.263 217.9 116.97 235.041C116.566 235.103 116.099 235.134 115.571 235.134ZM47.1429 105.692C42.8817 133.13 64.001 148.124 64.2498 148.28L65.0896 148.871L64.9963 149.897C62.2281 184.894 75.6337 205.581 87.3598 216.78C99.4279 228.29 112.118 232.086 116.224 231.557C174.699 214.012 165.056 152.666 164.621 150.053L164.434 148.902L165.399 148.248C189.255 132.57 186.984 106.501 185.647 98.5995C182.692 100.062 176.751 102.581 167.638 104.479C155.383 106.999 144.777 126.877 144.652 127.095L143.626 129.055L141.915 127.624C123.315 111.821 87.4842 125.726 87.1109 125.882L85.5247 126.504L84.8404 124.948C78.9929 111.789 64.2498 109.145 54.5144 107.434C51.4663 106.812 48.9469 106.377 47.1429 105.692Z" fill="black"/>
<path d="M68.9154 140.565C69.5375 138.698 70.6572 136.987 72.1813 135.681C71.8081 136.614 71.4348 137.547 71.0616 138.481C71.9947 136.459 73.581 134.716 75.5094 133.565C74.7007 134.032 68.1067 119.318 64.1566 123.362C60.6419 126.908 67.0803 137.33 68.9154 140.565Z" fill="#EB7A8B"/>
<path d="M172.957 114.496C172.864 114.433 172.77 114.34 172.677 114.278C168.167 117.513 164.123 121.402 160.733 125.881C158.96 128.214 156.285 130.672 156.068 133.783C155.974 135.12 159.831 145.542 160.578 144.92C165.212 140.751 169.629 135.867 171.028 129.801C171.93 125.881 171.557 121.775 172.428 117.855C172.677 116.798 173.05 115.771 173.548 114.776C173.33 114.651 173.143 114.558 172.957 114.496Z" fill="#EB7A8B"/>
<path d="M107.235 216.034C107.266 216.189 109.132 221.944 109.972 223.468C110.812 224.993 111.092 225.211 111.092 225.211C111.092 225.211 115.042 225.179 115.042 225.024C115.042 224.868 115.166 223.842 115.166 223.842L115.633 224.837C115.633 224.837 118.899 225.148 119.459 224.993C120.018 224.837 122.351 216.189 122.133 216.065C121.916 215.94 118.868 215.567 117.592 214.82C116.317 214.074 115.042 213.514 114.638 213.389C114.233 213.296 112.865 214.105 112.865 214.105C112.865 214.105 109.226 215.66 109.07 215.536" fill="white"/>
<path d="M110.967 225.677L110.843 225.553C110.719 225.46 110.376 225.117 109.599 223.655C108.728 222.069 106.862 216.314 106.831 216.127L107.701 215.909C107.764 216.127 109.599 221.758 110.407 223.22C110.905 224.153 111.216 224.557 111.341 224.744C112.678 224.744 114.109 224.682 114.7 224.651C114.731 224.277 114.793 223.78 114.793 223.78L114.949 222.224L115.975 224.402C117.312 224.526 118.837 224.62 119.303 224.557C119.863 223.686 121.511 217.838 121.729 216.376C121.574 216.345 121.387 216.314 121.2 216.283C120.081 216.065 118.339 215.754 117.406 215.163C116.162 214.416 114.917 213.887 114.575 213.794C114.42 213.794 113.736 214.105 113.145 214.447C109.226 216.127 109.07 216.034 108.852 215.847L109.132 215.474V215.038C109.412 215.007 111.216 214.292 112.771 213.638C113.425 213.265 114.358 212.798 114.824 212.923C115.291 213.047 116.597 213.607 117.872 214.385C118.681 214.883 120.361 215.194 121.356 215.38C122.071 215.505 122.289 215.567 122.413 215.66C122.693 215.847 122.631 216.189 122.569 216.531C122.569 216.625 120.641 225.148 119.614 225.428C118.992 225.584 116.41 225.366 115.633 225.304H115.508C115.384 225.584 114.7 225.677 111.123 225.708L110.967 225.677Z" fill="black"/>
<path d="M51.4663 117.047C62.0415 114.247 74.4207 122.895 75.416 133.814C69.2264 125.104 61.7927 119.847 51.4663 117.047Z" fill="black"/>
<path d="M156.13 134.094C157.747 122.304 168.322 111.851 180.142 110.42C170.157 116.86 162.693 124.201 156.13 134.094Z" fill="black"/>
<path d="M129.225 137.392C138.027 135.401 147.918 143.644 147.514 152.666C142.6 145.418 137.25 140.938 129.225 137.392Z" fill="black"/>
<path d="M78.1219 153.101C79.9571 145.48 87.7951 139.88 95.6021 139.942C96.7219 140.036 98.3393 140.596 98.4326 141.871C97.5928 141.093 96.6285 141.405 95.7888 141.684C89.0704 144.453 83.7828 148.248 78.1219 153.101Z" fill="black"/>
<path d="M64.1565 121.184C64.9963 127.748 66.6759 133.97 69.2263 140.067C64.4986 135.245 62.508 127.748 64.1565 121.184Z" fill="black"/>
<path d="M170.935 115.709C174.263 120.126 173.859 127.064 170.033 131.077C171.495 125.975 171.806 120.904 170.935 115.709Z" fill="black"/>
<path d="M112.927 167.847C112.927 177.459 105.12 185.268 95.5089 185.268C85.8979 185.268 79.0862 177.459 79.0862 167.847C79.0862 158.234 85.8979 150.426 95.5089 150.426C105.151 150.426 112.927 158.234 112.927 167.847Z" fill="white"/>
<path d="M95.5399 186.139C85.649 186.139 78.2152 178.268 78.2152 167.847C78.2152 157.426 85.649 149.555 95.5399 149.555C105.617 149.555 113.829 157.768 113.829 167.847C113.829 177.926 105.617 186.139 95.5399 186.139ZM95.5399 151.328C86.6754 151.328 80.0192 158.421 80.0192 167.847C80.0192 177.273 86.7065 184.365 95.5399 184.365C104.653 184.365 112.056 176.962 112.056 167.847C112.025 158.732 104.622 151.328 95.5399 151.328Z" fill="black"/>
<path d="M150.998 166.136C150.998 175.749 144.062 183.557 134.451 183.557C124.84 183.557 117.033 175.749 117.033 166.136C117.033 156.524 124.84 148.715 134.451 148.715C144.062 148.715 150.998 156.524 150.998 166.136Z" fill="white"/>
<path d="M134.451 184.428C124.373 184.428 116.162 176.215 116.162 166.136C116.162 156.057 124.373 147.844 134.451 147.844C144.404 147.844 151.9 155.715 151.9 166.136C151.9 176.557 144.404 184.428 134.451 184.428ZM134.451 149.617C125.337 149.617 117.935 157.021 117.935 166.136C117.935 175.251 125.337 182.655 134.451 182.655C143.377 182.655 150.127 175.562 150.127 166.136C150.127 156.71 143.377 149.617 134.451 149.617Z" fill="black"/>
<path d="M103.627 196.778C103.409 197.245 109.101 205.115 113.3 205.333C117.468 205.55 122.009 198.147 122.942 195.627C123.875 193.107 108.666 186.637 103.627 196.778Z" fill="#70574B"/>
<path d="M113.487 206.234C113.393 206.234 113.331 206.234 113.238 206.234C108.821 205.986 103.845 199.111 103.098 197.835C102.818 197.337 102.569 196.871 102.818 196.373C106.146 189.623 114.016 189.249 119.894 191.769C122.787 193.013 124.249 194.569 123.751 195.938C122.973 198.177 118.401 206.234 113.487 206.234ZM104.591 196.871C105.4 198.426 110.19 204.275 113.331 204.461C113.393 204.461 113.425 204.461 113.487 204.461C116.939 204.461 121.2 197.742 122.071 195.346C121.947 194.786 119.085 192.858 115.073 192.298C112.243 191.925 107.204 192.018 104.591 196.871Z" fill="black"/>
<path d="M95.4155 210.248C99.6456 215.411 109.35 216.749 114.171 211.865C117.095 214.105 121.138 214.945 124.715 213.856C128.105 212.798 131.216 210.621 134.015 208.194C131.744 211.15 128.821 213.732 125.182 215.194C121.418 216.656 117.095 216.034 113.767 213.763L114.98 213.638C109.288 218.553 98.9613 216.687 95.4155 210.248Z" fill="black"/>
<path d="M111.932 205.364C113.767 207.821 114.109 211.305 112.771 214.043C113.176 213.545 113.829 213.234 114.451 213.234C115.073 213.234 115.726 213.545 116.13 214.074C115.291 213.141 114.949 211.803 114.886 210.559C114.793 208.195 115.633 205.83 117.157 204.057C116.224 204.555 115.104 205.457 114.047 205.364" fill="black"/>
<path d="M132.149 209.905C132.367 209.563 132.709 209.345 133.02 209.096C133.331 208.848 133.611 208.474 133.548 208.07C133.517 207.728 133.237 207.448 132.958 207.23C132.678 207.012 132.367 206.857 132.149 206.577C133.02 206.95 134.139 206.919 134.73 207.665C135.073 208.07 135.166 208.661 135.104 209.159C135.041 209.688 134.824 210.185 134.637 210.683C134.513 210.247 134.357 209.781 134.233 209.345C134.171 209.19 134.139 209.034 133.984 208.941C133.797 208.848 133.58 208.972 133.393 209.096C132.46 209.719 131.527 210.341 130.594 210.963" fill="black"/>
<path d="M96.8462 211.803C96.6285 211.616 96.4419 211.398 96.2864 211.18C96.1309 210.932 96.0686 210.621 96.162 210.372C96.2553 210.123 96.4419 209.936 96.6596 209.812C96.8773 209.687 97.1262 209.625 97.375 209.563C96.8773 209.625 96.3797 209.532 95.882 209.532C95.3844 209.532 94.8245 209.687 94.5757 210.092C94.3268 210.465 94.3579 210.963 94.4824 211.398C94.6068 211.834 94.7623 212.269 94.7312 212.705C94.7623 212.269 94.8245 211.865 94.9178 211.46C94.9489 211.336 95.0111 211.18 95.1044 211.118C95.26 211.025 95.4777 211.118 95.6332 211.212C96.3175 211.616 96.9084 212.145 97.4061 212.767" fill="black"/>
<path d="M105.431 196.871C109.195 197.835 113.145 198.022 116.97 197.462Z" fill="black"/>
<path d="M112.118 228.104C114.513 228.477 116.566 228.384 118.899 227.824C117.157 229.566 113.984 229.69 112.118 228.104Z" fill="black"/>
<path d="M128.572 174.659C130.925 174.659 132.833 172.751 132.833 170.398C132.833 168.044 130.925 166.136 128.572 166.136C126.219 166.136 124.311 168.044 124.311 170.398C124.311 172.751 126.219 174.659 128.572 174.659Z" fill="black"/>
<path d="M101.761 174.659C104.114 174.659 106.022 172.751 106.022 170.398C106.022 168.044 104.114 166.136 101.761 166.136C99.4073 166.136 97.4995 168.044 97.4995 170.398C97.4995 172.751 99.4073 174.659 101.761 174.659Z" fill="black"/>
<path opacity="0.49" d="M122.6 195.658C121.014 198.986 118.992 202.066 116.535 204.804C115.819 205.612 114.98 206.421 113.922 206.452C112.958 206.483 112.118 205.923 111.372 205.301C109.381 203.684 99.2724 197.244 104.84 196.653C107.142 196.404 112.678 197.929 115.042 197.711C117.655 197.493 120.236 196.809 122.6 195.658Z" fill="black"/>
<path opacity="0.17" d="M156.41 133.379C158.649 129.086 162.817 125.819 167.545 124.699C166.456 131.823 163.874 138.698 160.018 144.764C152.864 130.517 138.338 120.282 122.538 118.322C128.821 122.242 134.793 126.69 140.36 131.574C142.32 133.316 144.279 135.121 145.586 137.423C146.892 139.694 147.483 142.525 146.581 144.982C141.387 141.467 135.757 138.636 129.816 136.583C135.135 138.356 139.738 142.182 142.475 147.097C135.104 145.075 126.706 147.689 121.76 153.475C126.612 150.488 133.144 150.488 137.996 153.506C142.848 156.523 145.71 162.403 145.15 168.064C144.528 174.193 140.391 179.295 136.41 183.992C138.214 182.437 140.609 182.125 142.848 181.317C145.088 180.508 147.358 179.357 149.1 181.006C151.029 182.841 151.184 185.827 150.966 188.472C149.567 204.306 139.551 218.305 127.266 228.384C141.573 221.446 153.486 209.656 160.577 195.409C167.669 181.161 169.909 164.58 166.829 148.964C182.474 138.698 190.592 118.167 186.207 99.9683C186.922 102.924 181.261 107.87 179.271 109.332C176.129 111.696 172.117 112.692 169.1 115.211C167.047 116.922 165.834 119.38 164.279 121.526C161.448 125.384 158.649 129.148 156.41 133.379Z" fill="#660000"/>
<path opacity="0.23" d="M104 212.518C106.675 212.332 109.257 210.465 109.91 207.883C110.563 205.301 108.883 202.221 106.271 201.692C108.168 203.932 111.154 205.177 114.078 204.99C117.001 204.772 119.77 203.123 121.325 200.635C119.054 202.906 116.597 205.892 117.53 208.972C118.401 211.803 121.885 213.078 124.777 212.487C127.67 211.896 129.723 210.963 131.962 209.065C133.393 207.23 131.558 206.67 130.531 206.048C133.735 206.141 137.312 207.759 135.321 212.238C135.664 211.429 134.73 210.558 133.828 210.589C132.958 210.621 132.211 211.243 131.527 211.803C127.297 215.411 123.44 219.175 119.645 223.531C120.983 222.597 119.801 219.424 118.557 218.398C117.281 217.34 115.54 217.184 113.891 217.122C112.398 217.06 111.465 216.811 110.314 217.775C109.163 218.771 108.386 222.286 109.816 222.722C107.484 222.006 104.778 218.211 102.756 216.78C100.299 215.069 97.8416 213.047 95.2289 211.616C94.9801 212.518 95.3223 212.425 94.9801 213.389C93.5182 211.647 93.6738 208.07 98.2149 208.847C97.8416 209.065 97.3129 209.625 97.0018 209.905C98.4637 211.927 101.512 212.705 104 212.518Z" fill="#660000"/>
<path opacity="0.17" d="M98.4326 152.728C100.112 152.417 101.854 152.386 103.565 152.479C101.139 151.204 98.4637 150.426 95.54 150.426C85.929 150.426 79.1173 158.234 79.1173 167.847C79.1173 177.459 85.929 185.268 95.54 185.268C97.655 185.268 99.6768 184.832 101.543 184.148C101.574 184.054 101.636 183.961 101.636 183.868C101.667 183.059 100.89 182.437 100.112 182.281C99.3346 182.126 98.5259 182.343 97.7172 182.437C92.6474 183.183 87.3597 180.166 85.027 175.593C82.6942 171.02 83.1919 165.265 85.8979 160.91C88.635 156.524 93.3938 153.63 98.4326 152.728Z" fill="black"/>
<path opacity="0.17" d="M54.11 117.109C52.9592 116.736 51.4662 116.487 50.8131 117.482C50.2532 118.291 50.6576 119.349 51.093 120.22C54.9809 128.121 60.1752 135.338 66.396 141.56C66.8625 142.027 67.3602 142.493 68.0133 142.587C68.822 142.711 69.5996 142.182 70.1906 141.653C73.3009 138.823 74.6384 134.219 73.5187 130.174C71.2481 121.962 61.1083 119.349 54.11 117.109Z" fill="black"/>
<path opacity="0.47" d="M168.54 105.506C173.797 103.732 179.52 103.172 184.247 100.279C181.479 103.546 178.68 106.781 175.912 110.047C176.254 109.301 176.627 108.523 176.969 107.776C167.451 107.621 158.494 113.034 152.335 120.282C150.967 121.9 149.66 123.673 149.287 125.757C148.914 127.748 149.567 130.112 151.433 131.139C149.131 129.272 146.768 127.157 147.732 124.046C148.603 121.277 151.029 118.384 152.895 116.207C157.001 111.323 162.475 107.559 168.54 105.506Z" fill="#DD6628"/>
<path opacity="0.47" d="M81.5122 124.7C78.5262 116.922 71.4035 110.887 63.2855 109.208C58.2778 108.181 52.9591 108.679 48.1381 106.968C49.6621 107.497 50.8441 108.99 52.337 109.55C53.6745 110.047 55.1052 109.985 56.536 110.172C59.8019 110.576 63.0056 111.447 66.0537 112.723C72.15 115.274 77.562 119.411 81.5122 124.7Z" fill="#DD6628"/>
<path opacity="0.47" d="M102.103 122.771C107.048 121.993 112.429 122.273 116.566 125.104C105.711 125.322 94.9179 128.526 85.7112 134.25C85.058 134.654 84.1249 135.059 83.5962 134.499C83.2229 134.126 83.3162 133.503 83.4407 133.006C85.7112 124.731 94.7935 123.922 102.103 122.771Z" fill="#DD6628"/>
<path opacity="0.75" d="M80.8902 208.692C76.2247 201.724 72.0568 194.942 69.2886 186.978C66.8314 179.948 63.8766 170.429 64.903 162.9C67.4224 163.74 66.8314 170.522 67.1425 172.762C67.7645 177.024 68.6976 181.254 69.9418 185.361C72.399 193.635 76.1003 201.537 80.8902 208.692Z" fill="#DD6628"/>
<path opacity="0.75" d="M108.51 194.88C109.63 194.476 110.843 194.382 111.994 194.6C112.523 194.693 113.145 195.005 113.145 195.533C113.145 196.062 112.585 196.342 112.056 196.467C111.247 196.684 110.407 196.716 109.568 196.622C109.163 196.56 108.759 196.467 108.417 196.249C108.075 196.031 107.857 195.596 107.981 195.191C108.075 194.787 108.572 194.507 108.915 194.725" fill="#DD6628"/>
<path d="M138.058 124.482C142.88 127.841 147.016 132.228 150.158 137.205C148.727 131.357 145.306 126.006 140.609 122.273" fill="black"/>
<path d="M86.3022 122.366C81.9477 125.322 78.4641 129.521 76.3801 134.343C81.4189 128.93 87.8884 124.824 94.9178 122.522" fill="black"/>
</svg>
