<svg width="948" height="600" viewBox="0 0 948 600" fill="none" xmlns="http://www.w3.org/2000/svg">
<g clip-path="url(#clip0_501_48)">
<path d="M259 600.085H1C0.734784 600.085 0.480429 599.98 0.292892 599.792C0.105356 599.605 0 599.35 0 599.085C0 598.82 0.105356 598.565 0.292892 598.378C0.480429 598.19 0.734784 598.085 1 598.085H259C259.265 598.085 259.52 598.19 259.707 598.378C259.895 598.565 260 598.82 260 599.085C260 599.35 259.895 599.605 259.707 599.792C259.52 599.98 259.265 600.085 259 600.085Z" fill="#CCCCCC"/>
<path d="M910.122 434.548H269.283C264.909 434.543 260.715 432.803 257.621 429.71C254.528 426.616 252.788 422.422 252.783 418.048V22.894C252.787 19.6892 254.061 16.6166 256.328 14.3504C258.594 12.0842 261.666 10.8094 264.871 10.8057H914.325C917.585 10.8094 920.711 12.1062 923.016 14.4116C925.321 16.717 926.618 19.8427 926.622 23.103V418.048C926.617 422.422 924.877 426.616 921.784 429.71C918.69 432.803 914.496 434.543 910.122 434.548Z" fill="#F2F2F2"/>
<path d="M889.402 413.716H292.157C283.402 413.716 276.28 407.046 276.28 398.847V54.7424C276.28 48.6624 281.558 43.7156 288.045 43.7156H893.319C899.914 43.7156 905.28 48.7439 905.28 54.9241V398.847C905.28 407.046 898.157 413.716 889.402 413.716Z" fill="white"/>
<path d="M926.392 24.9502H252.552V16.5498C252.558 12.1607 254.305 7.95333 257.409 4.85072C260.514 1.74811 264.722 0.00363937 269.112 0H909.832C914.221 0.00360236 918.429 1.74806 921.534 4.85068C924.638 7.95329 926.385 12.1607 926.392 16.5498V24.9502Z" fill="#3F3D56"/>
<path d="M282.647 16.7834C285.013 16.7834 286.93 14.8656 286.93 12.5C286.93 10.1343 285.013 8.21655 282.647 8.21655C280.281 8.21655 278.364 10.1343 278.364 12.5C278.364 14.8656 280.281 16.7834 282.647 16.7834Z" fill="white"/>
<path d="M298.906 16.7834C301.271 16.7834 303.189 14.8656 303.189 12.5C303.189 10.1343 301.271 8.21655 298.906 8.21655C296.54 8.21655 294.622 10.1343 294.622 12.5C294.622 14.8656 296.54 16.7834 298.906 16.7834Z" fill="white"/>
<path d="M315.165 16.7834C317.53 16.7834 319.448 14.8656 319.448 12.5C319.448 10.1343 317.53 8.21655 315.165 8.21655C312.799 8.21655 310.881 10.1343 310.881 12.5C310.881 14.8656 312.799 16.7834 315.165 16.7834Z" fill="white"/>
<path d="M576.611 118.955H459.802C458.061 118.955 456.391 118.263 455.159 117.031C453.928 115.8 453.236 114.13 453.236 112.388C453.236 110.647 453.928 108.977 455.159 107.745C456.391 106.514 458.061 105.822 459.802 105.822H576.611C578.352 105.822 580.022 106.514 581.254 107.745C582.485 108.977 583.177 110.647 583.177 112.388C583.177 114.13 582.485 115.8 581.254 117.031C580.022 118.263 578.352 118.955 576.611 118.955Z" fill="#CCCCCC"/>
<path d="M721.757 118.955H604.948C603.207 118.955 601.537 118.263 600.305 117.031C599.074 115.8 598.382 114.13 598.382 112.388C598.382 110.647 599.074 108.977 600.305 107.745C601.537 106.514 603.207 105.822 604.948 105.822H721.757C723.498 105.822 725.168 106.514 726.4 107.745C727.631 108.977 728.323 110.647 728.323 112.388C728.323 114.13 727.631 115.8 726.4 117.031C725.168 118.263 723.498 118.955 721.757 118.955Z" fill="#CCCCCC"/>
<path d="M721.757 143.837H518.552C516.811 143.837 515.14 143.145 513.909 141.913C512.678 140.682 511.986 139.012 511.986 137.27C511.986 135.529 512.678 133.859 513.909 132.628C515.14 131.396 516.811 130.704 518.552 130.704H721.757C723.498 130.704 725.168 131.396 726.4 132.628C727.631 133.859 728.323 135.529 728.323 137.27C728.323 139.012 727.631 140.682 726.4 141.913C725.168 143.145 723.498 143.837 721.757 143.837Z" fill="#CCCCCC"/>
<path d="M576.611 93.7268H459.802C458.062 93.7246 456.394 93.0319 455.165 91.8007C453.935 90.5696 453.244 88.9007 453.244 87.1606C453.244 85.4206 453.935 83.7517 455.165 82.5205C456.394 81.2894 458.062 80.5966 459.802 80.5945H576.611C577.474 80.5934 578.328 80.7625 579.126 81.092C579.923 81.4215 580.648 81.905 581.259 82.5148C581.869 83.1246 582.354 83.8488 582.684 84.646C583.015 85.4432 583.185 86.2977 583.185 87.1606C583.185 88.0236 583.015 88.8781 582.684 89.6752C582.354 90.4724 581.869 91.1966 581.259 91.8064C580.648 92.4163 579.923 92.8998 579.126 93.2293C578.328 93.5588 577.474 93.7278 576.611 93.7268Z" fill="#CCCCCC"/>
<path d="M640.889 94.0722H607.713C605.972 94.0722 604.302 93.3804 603.07 92.149C601.839 90.9176 601.147 89.2475 601.147 87.5061C601.147 85.7646 601.839 84.0945 603.07 82.8631C604.302 81.6317 605.972 80.9399 607.713 80.9399H640.889C642.631 80.9399 644.301 81.6317 645.532 82.8631C646.764 84.0945 647.456 85.7646 647.456 87.5061C647.456 89.2475 646.764 90.9176 645.532 92.149C644.301 93.3804 642.631 94.0722 640.889 94.0722Z" fill="#CCCCCC"/>
<path d="M492.979 143.837H459.802C458.062 143.834 456.394 143.142 455.165 141.911C453.935 140.679 453.244 139.011 453.244 137.27C453.244 135.53 453.935 133.862 455.165 132.63C456.394 131.399 458.062 130.706 459.802 130.704H492.979C493.842 130.703 494.696 130.872 495.494 131.202C496.292 131.531 497.016 132.015 497.627 132.625C498.237 133.234 498.722 133.959 499.052 134.756C499.383 135.553 499.553 136.408 499.553 137.27C499.553 138.133 499.383 138.988 499.052 139.785C498.722 140.582 498.237 141.306 497.627 141.916C497.016 142.526 496.292 143.01 495.494 143.339C494.696 143.669 493.842 143.838 492.979 143.837Z" fill="#CCCCCC"/>
<path d="M576.611 351.955H459.802C458.061 351.955 456.391 351.263 455.159 350.031C453.928 348.8 453.236 347.13 453.236 345.388C453.236 343.647 453.928 341.977 455.159 340.745C456.391 339.514 458.061 338.822 459.802 338.822H576.611C577.473 338.822 578.327 338.992 579.123 339.322C579.92 339.652 580.644 340.136 581.254 340.745C581.863 341.355 582.347 342.079 582.677 342.876C583.007 343.672 583.177 344.526 583.177 345.388C583.177 346.251 583.007 347.105 582.677 347.901C582.347 348.698 581.863 349.422 581.254 350.031C580.644 350.641 579.92 351.125 579.123 351.455C578.327 351.785 577.473 351.955 576.611 351.955Z" fill="#CCCCCC"/>
<path d="M721.757 351.955H604.948C603.207 351.955 601.537 351.263 600.305 350.031C599.074 348.8 598.382 347.13 598.382 345.388C598.382 343.647 599.074 341.977 600.305 340.745C601.537 339.514 603.207 338.822 604.948 338.822H721.757C722.619 338.822 723.473 338.992 724.269 339.322C725.066 339.652 725.79 340.136 726.4 340.745C727.009 341.355 727.493 342.079 727.823 342.876C728.153 343.672 728.323 344.526 728.323 345.388C728.323 346.251 728.153 347.105 727.823 347.901C727.493 348.698 727.009 349.422 726.4 350.031C725.79 350.641 725.066 351.125 724.269 351.455C723.473 351.785 722.619 351.955 721.757 351.955Z" fill="#CCCCCC"/>
<path d="M721.757 376.837H518.552C516.811 376.837 515.14 376.145 513.909 374.913C512.678 373.682 511.986 372.012 511.986 370.27C511.986 368.529 512.678 366.859 513.909 365.628C515.14 364.396 516.811 363.704 518.552 363.704H721.757C722.62 363.703 723.474 363.872 724.272 364.202C725.069 364.531 725.794 365.015 726.405 365.625C727.015 366.234 727.5 366.959 727.83 367.756C728.161 368.553 728.331 369.407 728.331 370.27C728.331 371.133 728.161 371.988 727.83 372.785C727.5 373.582 727.015 374.306 726.405 374.916C725.794 375.526 725.069 376.01 724.272 376.339C723.474 376.669 722.62 376.838 721.757 376.837Z" fill="#CCCCCC"/>
<path d="M576.611 326.727H459.802C458.061 326.727 456.391 326.035 455.159 324.804C453.928 323.572 453.236 321.902 453.236 320.161C453.236 318.419 453.928 316.749 455.159 315.518C456.391 314.286 458.061 313.594 459.802 313.594H576.611C578.352 313.594 580.022 314.286 581.254 315.518C582.485 316.749 583.177 318.419 583.177 320.161C583.177 321.902 582.485 323.572 581.254 324.804C580.022 326.035 578.352 326.727 576.611 326.727Z" fill="#CCCCCC"/>
<path d="M640.889 327.072H607.713C605.972 327.072 604.302 326.38 603.07 325.149C601.839 323.918 601.147 322.248 601.147 320.506C601.147 318.765 601.839 317.095 603.07 315.863C604.302 314.632 605.972 313.94 607.713 313.94H640.889C642.631 313.94 644.301 314.632 645.532 315.863C646.764 317.095 647.456 318.765 647.456 320.506C647.456 322.248 646.764 323.918 645.532 325.149C644.301 326.38 642.631 327.072 640.889 327.072Z" fill="#CCCCCC"/>
<path d="M492.979 376.837H459.802C458.061 376.837 456.391 376.145 455.159 374.913C453.928 373.682 453.236 372.012 453.236 370.27C453.236 368.529 453.928 366.859 455.159 365.628C456.391 364.396 458.061 363.704 459.802 363.704H492.979C493.842 363.703 494.696 363.872 495.494 364.202C496.292 364.531 497.016 365.015 497.627 365.625C498.237 366.234 498.722 366.959 499.052 367.756C499.383 368.553 499.553 369.407 499.553 370.27C499.553 371.133 499.383 371.988 499.052 372.785C498.722 373.582 498.237 374.306 497.627 374.916C497.016 375.526 496.292 376.01 495.494 376.339C494.696 376.669 493.842 376.838 492.979 376.837Z" fill="#CCCCCC"/>
<path d="M546.104 281.462C543.625 281.467 541.244 280.493 539.48 278.752L495.572 235.392C494.71 234.541 494.025 233.527 493.558 232.409C493.091 231.291 492.85 230.092 492.85 228.881C492.85 227.669 493.091 226.47 493.558 225.352C494.025 224.234 494.71 223.22 495.572 222.369L539.303 179.185C541.125 177.394 543.579 176.395 546.133 176.403C548.688 176.411 551.136 177.426 552.946 179.228C554.759 181.044 555.776 183.505 555.776 186.071C555.776 188.637 554.759 191.098 552.946 192.914L520.45 225.411C519.438 226.426 518.869 227.801 518.869 229.234C518.869 230.668 519.438 232.043 520.45 233.057L552.77 265.378C554.09 266.695 554.989 268.374 555.354 270.203C555.718 272.031 555.532 273.927 554.818 275.65C554.104 277.372 552.894 278.844 551.343 279.879C549.792 280.913 547.968 281.464 546.104 281.462Z" fill="#2FA4DA"/>
<path d="M616.069 281.462C614.205 281.464 612.381 280.913 610.83 279.879C609.279 278.844 608.07 277.372 607.356 275.65C606.642 273.927 606.455 272.031 606.82 270.203C607.184 268.374 608.083 266.695 609.403 265.378L641.723 233.057C642.735 232.043 643.304 230.668 643.304 229.234C643.304 227.801 642.735 226.426 641.723 225.411L609.227 192.914C608.328 192.016 607.615 190.949 607.129 189.774C606.642 188.6 606.392 187.342 606.392 186.071C606.392 184.8 606.642 183.541 607.129 182.367C607.615 181.193 608.328 180.126 609.227 179.228C611.037 177.426 613.485 176.411 616.04 176.403C618.594 176.395 621.049 177.394 622.87 179.185L666.602 222.369C667.464 223.22 668.148 224.234 668.615 225.352C669.082 226.47 669.323 227.669 669.323 228.881C669.323 230.092 669.082 231.292 668.615 232.409C668.148 233.527 667.464 234.541 666.602 235.392L622.693 278.752C620.929 280.493 618.548 281.467 616.069 281.462Z" fill="#2FA4DA"/>
<path d="M70.6597 371.743C70.6597 371.743 62.1278 345.227 66.5348 309.754C70.9417 274.281 111.028 214.901 151.537 201.819C192.046 188.737 234.741 199.245 252.192 218.251C269.644 237.257 291.009 268.71 318.438 274.528C345.867 280.346 358.947 271.672 360.745 256.298C360.745 256.298 374.319 293.957 365.646 330.699C357.008 367.477 330.355 390.926 302.644 390.644C274.968 390.397 262.663 372.625 250.253 372.696C237.843 372.766 218.17 379.959 213.622 416.279C209.074 452.598 176.216 494.947 176.216 494.947L72.7398 374.846L70.6597 371.743Z" fill="#DD6628"/>
<path d="M176.322 498.191L71.1885 376.187L68.7206 372.378C68.3681 371.285 60.0829 345.015 64.4899 309.507C69.179 271.989 110.781 212.856 150.902 199.915C192.998 186.339 236.221 197.87 253.673 216.911C257.093 220.613 260.583 224.739 264.32 229.111C279.833 247.341 297.39 268.04 318.861 272.589C333.281 275.656 344.457 274.704 351.191 269.873C355.492 266.806 358.031 262.151 358.736 256.086L359.723 247.553L362.649 255.628C363.213 257.179 376.328 294.274 367.62 331.193C359.053 367.477 332.576 392.689 303.102 392.689C302.926 392.689 302.785 392.689 302.608 392.689C285.58 392.548 274.298 386.024 265.237 380.806C259.385 377.421 254.766 374.776 250.289 374.776C250.253 374.776 250.253 374.776 250.218 374.776C241.369 374.811 220.286 379.007 215.597 416.596C211.049 453.056 179.142 494.524 177.802 496.287L176.322 498.191ZM72.5283 370.862L74.4321 373.718L176.145 491.773C182.562 483.029 207.77 447.027 211.648 416.067C216.725 375.305 240.346 370.756 250.253 370.686C250.289 370.686 250.324 370.686 250.324 370.686C255.859 370.686 261.147 373.753 267.282 377.28C275.92 382.251 286.708 388.457 302.679 388.634C302.82 388.634 302.961 388.634 303.137 388.634C330.707 388.634 355.598 364.691 363.707 330.276C369.982 303.689 364.306 276.291 360.922 263.879C359.335 267.687 356.867 270.79 353.553 273.188C345.762 278.795 333.81 279.923 318.015 276.573C295.205 271.742 277.154 250.515 261.218 231.756C257.516 227.419 254.026 223.293 250.676 219.661C234.071 201.572 192.68 190.712 152.136 203.794C113.319 216.311 73.0218 273.646 68.5091 310.036C64.4547 342.794 71.6821 368.076 72.5283 370.862Z" fill="black"/>
<path opacity="0.17" d="M66.9226 349.071C63.538 335.354 63.82 320.72 67.7335 307.145C67.9802 317.406 69.5668 327.632 72.3872 337.505C73.2334 340.467 74.7846 343.922 77.8519 344.346C80.073 344.628 82.2236 343.041 83.2813 341.031C84.339 339.056 84.5858 336.729 84.8678 334.508C87.653 311.552 96.5375 289.232 111.169 271.319C125.8 253.406 146.213 240.113 168.742 235C156.649 239.76 144.732 245.755 135.566 254.993C126.435 264.232 120.335 277.243 121.887 290.149C122.204 292.899 123.579 296.179 126.329 296.284C128.127 296.355 129.608 294.909 130.842 293.604C143.322 280.522 157.037 268.393 172.902 259.718C188.732 251.009 206.924 245.896 224.904 247.447C242.92 248.964 260.654 257.673 271.16 272.377C257.304 260.776 236.504 259.225 220.11 266.771C203.68 274.281 191.693 289.867 186.299 307.11C180.905 324.352 181.681 343.111 186.052 360.636C179.424 352.632 169.658 347.766 159.575 345.227C149.492 342.688 139.021 342.3 128.656 341.948" fill="#660000"/>
<path d="M365.681 330.735C374.354 293.992 360.781 256.333 360.781 256.333C358.983 271.742 345.903 280.417 318.474 274.563C309.166 272.589 300.599 267.652 292.596 261.27C293.442 272.236 299.012 282.744 307.685 289.514C303.173 292.582 298.625 295.614 294.112 298.682C296.862 297.941 299.823 297.906 302.573 298.541C299.118 302.279 296.298 306.616 294.288 311.306C298.413 312.258 302.75 312.187 306.839 311.129C304.83 320.086 298.307 327.914 289.881 331.475C294.676 331.616 299.33 334.19 302.009 338.21C299.788 337.646 297.426 337.752 295.275 338.563C300.141 342.406 303.842 347.731 305.782 353.584C297.602 353.161 289.352 354.712 281.843 358.062C285.122 360.495 288.365 362.928 291.644 365.361C289.705 365.185 287.731 365.044 285.791 364.868C287.731 367.019 289.705 369.169 291.644 371.32C289.74 370.897 287.872 370.509 285.968 370.086C288.048 373.683 290.833 376.856 294.147 379.395C289.599 381.017 284.769 381.828 279.939 381.722C285.086 385.425 290.798 388.246 296.791 390.291C298.66 390.503 300.599 390.644 302.644 390.644C330.355 390.926 357.008 367.477 365.681 330.735Z" fill="#FEF7D7"/>
<path d="M303.137 392.689C302.961 392.689 302.82 392.689 302.644 392.689C300.74 392.653 298.765 392.548 296.58 392.336L296.157 392.23C289.81 390.079 283.958 387.117 278.775 383.415L273.522 379.642L280.009 379.748C283.464 379.818 286.814 379.43 290.093 378.584C287.801 376.398 285.827 373.859 284.275 371.144L281.984 367.159L285.932 368.041L280.891 362.47L284.804 362.787L277.929 357.639L281.102 356.228C287.942 353.196 295.381 351.574 302.855 351.539C300.881 347.131 297.849 343.182 294.076 340.184L291.291 337.963L294.641 336.694C295.451 336.376 296.298 336.165 297.144 336.024C295.028 334.507 292.49 333.626 289.881 333.52L280.644 333.238L289.141 329.641C296.015 326.715 301.515 320.791 304.019 313.774C300.634 314.232 297.179 314.056 293.865 313.315L291.503 312.751L292.455 310.53C294.041 306.792 296.121 303.336 298.589 300.128C297.249 300.128 295.91 300.304 294.641 300.656L282.9 303.795L304.336 289.338C296.474 282.25 291.397 271.989 290.586 261.411L290.234 256.756L293.865 259.647C302.573 266.594 310.752 270.825 318.897 272.553C333.316 275.621 344.492 274.669 351.226 269.838C355.527 266.77 358.066 262.116 358.771 256.051L359.758 247.518L362.684 255.592C363.249 257.144 376.364 294.239 367.656 331.158C359.088 367.477 332.611 392.689 303.137 392.689ZM297.214 388.316C299.189 388.528 300.951 388.634 302.679 388.634C302.82 388.634 302.961 388.634 303.137 388.634C330.707 388.634 355.598 364.691 363.707 330.276C369.982 303.689 364.306 276.291 360.922 263.879C359.335 267.687 356.867 270.79 353.553 273.188C345.762 278.794 333.81 279.923 318.015 276.573C310.541 274.986 303.031 271.46 295.275 265.889C297.108 274.528 301.974 282.532 308.919 287.962L311.105 289.69L301.304 296.284C301.868 296.355 302.432 296.46 302.996 296.601L306.381 297.377L304.019 299.916C301.304 302.878 299.012 306.193 297.214 309.754C300.246 310.142 303.349 309.93 306.31 309.154L309.518 308.308L308.778 311.552C307.051 319.31 302.185 326.221 295.628 330.629C298.871 331.898 301.727 334.155 303.666 337.046L306.628 341.489L301.445 340.149C300.881 340.008 300.281 339.902 299.717 339.867C303.278 343.57 306.063 348.083 307.685 352.949L308.637 355.77L305.676 355.629C299.012 355.312 292.243 356.299 285.968 358.591L298.554 367.97L290.762 367.3L297.39 374.635L290.586 373.154C291.996 374.882 293.618 376.433 295.381 377.773L298.342 380.03L294.852 381.264C292.067 382.251 289.211 382.957 286.285 383.344C289.705 385.354 293.371 386.976 297.214 388.316Z" fill="black"/>
<path opacity="0.17" d="M356.021 302.878C350.063 319.521 338.076 334.966 321.329 340.714C329.932 339.973 338.322 337.258 345.726 332.85C339.486 344.874 325.207 351.01 311.634 351.257C304.512 351.398 297.426 350.199 290.551 348.365C284.487 346.743 277.718 345.192 272.535 341.63C267.458 338.104 261.042 336.87 254.872 336.376C249.936 335.989 240.029 335.319 235.763 338.351C246.34 330.84 258.644 325.798 271.442 323.718C257.586 321.919 243.237 321.884 229.946 326.221C216.654 330.523 204.491 339.691 198.85 352.456C202.411 339.303 206.007 326.151 209.568 312.998C197.687 326.856 189.543 343.887 186.229 361.835C186.405 361.341 186.616 360.883 186.793 360.389L198.78 429.149C202.587 430.066 206.43 430.736 210.238 431.3C211.754 426.258 212.882 421.251 213.517 416.314C218.029 379.995 237.702 372.801 250.147 372.731C262.558 372.66 274.862 390.397 302.538 390.679C330.214 390.926 356.867 367.512 365.54 330.77C371.886 303.865 366.316 276.538 362.861 263.773C362.12 277.067 360.534 290.36 356.021 302.878Z" fill="#660000"/>
<path d="M84.6211 357.145C83.0698 357.145 19.9265 396.497 25.1091 473.085C24.0867 477.739 18.9041 525.377 47.3556 554.856C75.8071 584.334 167.931 589.024 204.703 562.12C241.439 535.215 236.257 490.151 236.257 490.151C236.257 490.151 254.872 462.189 232.132 418.712C209.357 375.234 185.03 359.684 185.03 359.684C185.03 359.684 162.255 393.323 146.213 397.978C130.172 402.632 116.21 398.507 109.477 390.714C102.743 383.027 84.6211 357.145 84.6211 357.145Z" fill="#DD6628"/>
<path d="M132.463 582.113C97.6305 582.113 62.2336 573.192 45.9101 556.302C18.4457 527.846 21.2662 481.759 23.0643 472.979C20.1028 427.456 40.6922 395.192 58.4965 376.116C70.5187 363.245 82.7173 355.1 84.6211 355.1H85.6788L86.2781 355.982C86.4544 356.228 104.4 381.863 110.993 389.48C116.739 396.109 129.713 400.728 145.649 396.109C160.809 391.701 183.126 358.944 183.338 358.626L184.431 357.004L186.088 358.062C187.11 358.697 211.119 374.388 233.895 417.83C255.365 458.839 241.016 486.167 238.302 490.715C238.76 496.745 240.523 538.389 205.866 563.812C188.979 576.154 160.915 582.113 132.463 582.113ZM84.0217 359.79C75.3488 365.361 22.3944 402.915 27.154 472.944L27.1892 473.226L27.1187 473.508C27.0129 473.966 19.6444 523.156 48.8716 553.445C76.8295 582.43 167.931 586.591 203.539 560.462C238.936 534.545 234.353 490.821 234.282 490.363L234.212 489.622L234.635 488.988C234.811 488.705 252.263 461.413 230.404 419.628C211.507 383.521 191.305 366.772 185.594 362.505C180.623 369.557 161.444 395.686 146.848 399.917C131.3 404.431 116.069 401.328 107.996 392.054C102.073 385.354 88.0057 365.467 84.0217 359.79Z" fill="black"/>
<path d="M127.88 252.701C149.316 223.575 191.27 218.427 223.917 228.159C189.931 224.457 153.582 228.018 127.88 252.701Z" fill="black"/>
<path d="M117.198 274.563C122.486 261.622 133.45 250.903 146.495 245.896C134.861 253.371 124.954 263.068 117.198 274.563Z" fill="black"/>
<path d="M223.6 246.53C240.664 243.075 255.612 255.839 265.907 268.004C253.779 258.061 240.276 245.931 223.6 246.53Z" fill="black"/>
<path d="M229.558 380.418C237.808 370.862 252.439 367.124 264.25 371.638C251.981 370.086 239.571 373.224 229.558 380.418Z" fill="black"/>
<path d="M207.876 370.862C212.776 354.324 229.135 341.666 246.34 341.101C229.805 344.592 215.385 355.735 207.876 370.862Z" fill="black"/>
<path opacity="0.47" d="M130.489 219.062C147.764 208.307 167.896 202.136 188.273 201.361C169.059 206.156 150.232 212.997 133.309 223.223C120.582 230.91 108.948 240.571 99.5696 252.102C98.4414 253.512 95.1273 259.648 93.1883 258.837C90.8261 257.849 95.6914 252.349 96.5728 251.114C100.768 245.155 105.563 239.584 110.781 234.506C116.774 228.688 123.403 223.505 130.489 219.062Z" fill="#DD6628"/>
<path opacity="0.75" d="M65.9707 379.219C56.4516 392.689 46.862 406.229 39.6698 421.039C32.5129 435.778 27.7886 451.998 28.3879 468.501C27.5065 455.666 28.0706 444.558 31.8783 432.076C35.8269 419.064 42.1377 406.723 50.3524 395.898C55.0061 389.833 60.224 384.191 65.9707 379.219Z" fill="#DD6628"/>
<path opacity="0.75" d="M43.5833 420.087C44.3589 420.228 45.0641 419.593 45.5576 418.959C47.6377 416.314 48.8717 412.964 48.9775 409.579C49.1185 404.748 43.5833 407.816 42.5256 410.461C41.8205 412.259 41.1154 419.629 43.5833 420.087Z" fill="#DD6628"/>
<path opacity="0.75" d="M37.7307 430.313C37.0961 431.864 36.4615 433.416 35.8269 434.967L37.7307 430.313Z" fill="#DD6628"/>
<path opacity="0.75" d="M49.2594 566.598C48.9774 567.374 49.0479 568.29 49.4357 569.031L49.2594 566.598Z" fill="#DD6628"/>
<path opacity="0.75" d="M208.369 537.084C209.286 538.001 210.203 538.953 211.119 539.87L208.369 537.084Z" fill="#DD6628"/>
<path opacity="0.17" d="M131.3 577.317C131.688 567.62 127.633 558.206 121.816 550.413C115.999 542.655 108.56 536.308 101.156 530.067C108.912 538.53 120.124 543.643 131.582 543.995C143.04 544.313 154.533 539.835 162.748 531.865C155.873 537.93 149.316 544.665 145.191 552.881C141.101 561.097 139.691 571.041 143.287 579.504C137.752 579.504 132.216 580.315 126.928 581.901" fill="#660000"/>
<path d="M188.802 362.011C192.081 352.597 194.196 342.794 195.113 332.885C192.575 342.406 194.619 353.055 200.507 360.989C201.741 362.646 203.398 364.303 205.443 364.198C206.924 364.127 208.158 363.104 209.286 362.152C215.985 356.511 222.648 350.834 229.347 345.192C221.908 352.068 213.975 359.86 212.812 369.945C211.754 379.36 216.901 388.246 221.837 396.321C210.908 385.707 199.943 375.093 189.014 364.515C186.652 367.865 184.325 371.25 181.963 374.6C185.03 367.9 188.132 361.236 191.2 354.536" fill="black"/>
<path d="M142.405 407.604C141.947 407.498 141.489 407.393 141.031 407.287L142.405 407.604Z" fill="black"/>
<path d="M70.0251 370.968C73.0571 370.545 76.0891 372.061 78.3807 374.106C80.6723 376.151 82.3999 378.725 84.3742 381.088C91.8485 390.08 102.531 395.651 112.932 401.011C102.249 395.51 92.8709 382.005 87.0889 371.885C84.762 367.794 83.105 359.614 77.0762 361.906C71.4 364.057 67.2398 372.096 64.6662 377.068C64.3136 374.036 67.1341 371.391 70.0251 370.968Z" fill="black"/>
<path d="M120.97 544.948C125.06 551.506 129.149 558.065 133.239 564.588C133.909 565.681 134.861 566.88 136.13 566.739C137.54 566.563 138.104 564.87 138.457 563.53C139.761 558.453 142.37 553.728 145.931 549.884C138.457 557.994 139.902 572.169 144.098 581.231C137.117 578.34 132.922 585.78 131.3 577.353C129.431 567.621 126.012 553.446 120.97 544.948Z" fill="black"/>
<path d="M24.5098 480.666C24.263 499.46 27.6123 518.325 34.3814 535.85C31.3847 525.025 30.2212 513.67 30.9969 502.457C38.9647 507.888 49.8588 508.699 58.567 504.503C49.4357 504.503 40.4102 500.412 34.3462 493.607C28.2822 486.801 25.2854 477.351 26.3431 468.289C24.8623 475.412 24.6861 482.817 25.8848 490.01" fill="black"/>
<path d="M217.501 495.793C212.917 495.194 208.405 494.206 203.998 492.831C209.039 494.7 213.975 496.816 218.77 499.213C220.251 499.954 221.767 500.765 222.824 502.034C224.481 504.044 224.728 506.865 224.728 509.474C224.763 518.537 222.824 527.564 219.792 536.132C216.831 534.722 213.869 533.346 210.908 531.936C215.738 534.475 218.558 539.658 221.097 544.489C225.856 539.552 228.571 533.029 231.074 526.611C233.366 520.723 235.622 514.799 236.927 508.593C237.491 505.878 237.878 503.127 238.019 500.377C238.09 498.543 238.654 494.982 237.314 493.501C236.221 492.267 234.318 492.69 232.978 493.254C230.686 494.171 228.853 495.476 226.35 495.899C223.424 496.428 220.427 496.181 217.501 495.793Z" fill="black"/>
<path opacity="0.47" d="M137.012 257.638C164.159 236.798 201.142 229.393 234.247 238.209C204.068 237.68 173.819 247.588 149.845 265.889C152.912 260.67 156.861 255.945 161.444 251.996C150.197 254.358 139.761 260.6 132.428 269.45C136.236 262.504 141.454 256.333 147.694 251.432" fill="#DD6628"/>
<path opacity="0.47" d="M239.641 268.287C257.445 271.002 274.58 278.195 288.929 289.091C284.205 292.159 279.445 295.226 274.721 298.294C277.788 297.236 280.82 296.178 283.887 295.121C275.144 303.195 264.426 309.19 252.968 312.363C259.314 308.449 266.4 303.336 266.647 295.896C266.788 291.136 263.862 286.728 260.09 283.837C256.317 280.945 251.769 279.323 247.292 277.772C249.583 277.208 251.875 276.679 254.167 276.115C244.542 275.409 234.811 276.22 225.433 278.548C233.436 274.069 242.955 272.306 252.016 273.646" fill="#DD6628"/>
<path opacity="0.47" d="M187.604 206.262C204.386 204.323 221.802 208.272 236.116 217.263C221.203 212.644 204.985 212.292 189.895 216.276C193.95 214.654 197.969 213.032 202.023 211.375C185.911 209.859 169.447 212.609 154.71 219.203C167.085 212.397 180.87 208.131 194.972 206.826" fill="#DD6628"/>
<path opacity="0.47" d="M248.455 227.101C252.369 229.781 256.282 232.461 260.196 235.141L248.455 227.101Z" fill="#DD6628"/>
<path opacity="0.47" d="M101.72 387.823C108.525 395.721 117.515 401.751 127.422 405.066L101.72 387.823Z" fill="#DD6628"/>
<path d="M71.1885 591.281C71.1885 591.281 55.9932 599.215 46.1568 585.428C36.3204 571.64 44.7466 537.119 73.2334 530.385C101.72 523.65 128.973 547.451 130.701 568.008C132.428 588.531 111.028 604.927 94.9863 595.442C94.9863 595.442 88.0761 597.699 80.8486 595.794C73.6212 593.89 71.1885 591.281 71.1885 591.281Z" fill="#DD6628"/>
<path d="M105.069 600.202C101.473 600.202 97.9478 599.356 94.7395 597.628C92.5536 598.192 86.5954 599.391 80.3551 597.769C75.243 596.429 72.3167 594.737 70.8712 593.679C66.7463 595.336 53.5253 599.285 44.5351 586.626C39.3172 579.292 38.7884 566.986 43.1601 555.314C48.378 541.457 59.1663 531.654 72.775 528.445C86.2428 525.236 100.98 528.516 113.214 537.366C124.354 545.441 131.829 557.113 132.745 567.867C133.697 579.045 128.092 590.188 118.467 596.218C114.165 598.827 109.547 600.202 105.069 600.202ZM95.2331 593.22L96.0087 593.679C102.143 597.311 109.547 596.958 116.281 592.727C124.601 587.508 129.467 577.846 128.656 568.15C127.845 558.558 121.005 548.015 110.781 540.61C99.5343 532.43 85.996 529.432 73.6564 532.359C61.3874 535.251 51.6215 544.136 46.8972 556.725C43.0191 567.021 43.3716 578.093 47.7786 584.264C56.4868 596.5 69.6373 589.8 70.2014 589.518L71.5763 588.813L72.5988 589.906C72.7398 590.012 75.0314 592.198 81.307 593.82C87.8998 595.548 94.2459 593.538 94.3164 593.502L95.2331 593.22Z" fill="black"/>
<path d="M97.7715 556.513C95.0568 567.197 93.294 578.093 94.3164 589.059C94.7395 592.515 95.8324 595.935 98.7586 598.474C84.7621 593.114 89.8389 565.54 97.7715 556.513Z" fill="black"/>
<path d="M69.2495 553.551C66.5348 567.55 67.945 580.35 73.5507 593.467C62.8329 583.841 60.8586 565.223 69.2495 553.551Z" fill="black"/>
<path d="M93.4352 565.893C91.8487 562.12 90.2269 558.77 88.2878 555.209C92.2718 556.796 94.7044 561.767 93.4352 565.893Z" fill="black"/>
<path d="M66.2176 562.473C65.583 558.594 64.2785 555.314 62.0574 552.106C66.2881 553.093 68.5797 558.841 66.2176 562.473Z" fill="black"/>
<path opacity="0.17" d="M130.701 567.973C130.63 567.339 130.489 566.704 130.383 566.069C129.396 561.979 127.739 558.03 125.165 554.715C125.236 559.793 124.284 565.011 121.393 569.172C118.502 573.333 113.425 576.189 108.419 575.484C103.624 574.814 99.5343 570.759 98.6529 565.999C97.7715 561.238 100.134 556.09 104.223 553.481C99.8868 552.529 96.5728 559.616 92.3421 558.241C89.028 557.148 89.0985 551.894 86.0665 550.166C88.0408 554.433 90.0504 558.805 90.7908 563.46C91.4959 568.114 90.7556 573.227 87.7235 576.824C84.6915 580.456 79.0859 582.007 75.0314 579.61C72.0699 577.811 70.4834 574.356 69.743 570.971C68.1918 563.812 69.602 556.055 73.6212 549.955C71.7174 552.141 68.6854 553.305 65.7944 552.881C62.9034 552.494 60.2944 550.554 59.0605 547.945C63.397 553.975 64.3136 562.296 61.4226 569.137C60.1182 572.169 57.5797 575.237 54.3009 575.131C51.1632 575.026 48.8363 572.134 47.6728 569.207C45.2402 563.143 46.0158 555.879 49.7177 550.484C47.6376 552.599 45.91 554.997 44.5703 557.606C41.0447 568.114 41.6088 579.01 46.1921 585.428C56.0285 599.215 71.2238 591.281 71.2238 591.281C71.2238 591.281 73.6564 593.855 80.8839 595.759C88.1466 597.663 95.0215 595.407 95.0215 595.407C111.028 604.927 132.428 588.531 130.701 567.973Z" fill="#660000"/>
<path opacity="0.75" d="M65.5124 536.661C73.9033 532.676 83.6692 532.006 92.73 534.016C82.8936 533.241 72.8104 535.815 64.5252 541.245C56.1696 546.71 50.1408 554.785 46.6152 564.094C47.1441 558.311 48.2017 553.869 51.3748 548.967C55.1119 543.22 60.0125 540.328 65.5124 536.661Z" fill="#DD6628"/>
<path d="M200.684 588.848C200.684 588.848 215.879 596.782 225.715 582.995C235.552 569.207 227.126 534.687 198.639 527.952C170.152 521.217 142.899 545.018 141.172 565.576C139.444 586.133 160.845 602.494 176.886 593.009C176.886 593.009 183.796 595.266 191.024 593.362C198.251 591.457 200.684 588.848 200.684 588.848Z" fill="#DD6628"/>
<path d="M166.803 597.769C162.29 597.769 157.671 596.429 153.405 593.749C143.781 587.72 138.21 576.577 139.127 565.399C140.043 554.68 147.518 542.973 158.659 534.898C170.857 526.047 185.594 522.768 199.097 525.977C212.706 529.186 223.494 538.988 228.712 552.846C233.119 564.518 232.59 576.824 227.337 584.158C218.312 596.817 205.126 592.832 201.001 591.21C199.555 592.268 196.629 593.961 191.517 595.301C185.277 596.923 179.319 595.724 177.133 595.16C173.924 596.888 170.399 597.769 166.803 597.769ZM188.767 528.798C179.213 528.798 169.517 532.042 161.056 538.142C150.832 545.547 143.992 556.09 143.181 565.681C142.37 575.378 147.236 585.04 155.556 590.258C162.29 594.49 169.694 594.842 175.828 591.21L176.604 590.752L177.485 591.034C177.556 591.069 183.937 593.079 190.495 591.352C196.911 589.659 199.203 587.438 199.203 587.438L200.261 586.38L201.6 587.05C202.164 587.332 215.35 593.961 224.023 581.796C228.43 575.625 228.783 564.553 224.904 554.257C220.18 541.668 210.414 532.782 198.145 529.891C195.078 529.186 191.94 528.798 188.767 528.798Z" fill="black"/>
<path d="M174.101 554.08C182.033 563.072 187.145 590.681 173.078 596.041C176.005 593.502 177.098 590.047 177.521 586.626C178.578 575.66 176.815 564.764 174.101 554.08Z" fill="black"/>
<path d="M202.623 551.118C211.049 562.79 209.039 581.408 198.322 591.034C203.927 577.917 205.337 565.117 202.623 551.118Z" fill="black"/>
<path d="M178.472 563.46C177.203 559.334 179.6 554.327 183.62 552.776C181.645 556.372 180.024 559.687 178.472 563.46Z" fill="black"/>
<path d="M205.655 560.039C203.293 556.408 205.584 550.66 209.815 549.673C207.629 552.881 206.289 556.161 205.655 560.039Z" fill="black"/>
<path opacity="0.17" d="M225.363 582.959C228.642 578.34 229.84 571.429 228.994 563.989C228.007 565.117 226.914 566.14 225.715 567.021C222.155 569.56 217.183 570.653 213.341 568.537C210.168 566.774 208.37 563.142 208.052 559.546C207.735 555.949 208.652 552.352 209.85 548.932C208.934 550.73 206.889 551.929 204.879 551.859C202.87 551.788 200.931 550.519 200.084 548.65C201.882 553.622 203.716 558.77 203.293 564.024C202.87 569.278 199.52 574.708 194.373 575.766C189.12 576.859 183.761 572.98 181.751 568.008C179.742 563.037 180.482 557.359 182.139 552.247C181.575 554.644 179.424 556.548 177.027 556.901C174.594 557.218 172.021 555.949 170.857 553.798C173.184 557.43 175.299 561.309 176.075 565.54C176.815 569.771 176.005 574.497 173.078 577.635C168.495 582.501 160.563 582.113 154.357 579.645C150.62 578.128 147.024 575.942 144.592 572.733C142.159 569.489 141.031 565.117 142.37 561.309C141.701 564.2 141.242 567.127 140.96 570.054C142.441 588.354 161.796 601.718 176.639 592.938C176.639 592.938 183.549 595.195 190.777 593.291C198.04 591.387 200.437 588.813 200.437 588.813C200.437 588.813 215.526 596.782 225.363 582.959Z" fill="#660000"/>
<path opacity="0.75" d="M145.12 560.357C148.787 550.695 155.732 542.303 164.582 536.979C173.431 531.619 184.078 529.362 194.338 530.596C183.937 533.558 173.607 537.296 164.723 543.396C155.803 549.496 148.364 558.276 145.614 568.714C145.861 565.223 146.777 561.767 148.258 558.629" fill="#DD6628"/>
<path opacity="0.17" d="M23.9809 484.968C23.6636 502.246 29.4456 519.595 40.0929 533.241C38.2948 527.775 36.532 522.345 34.8045 516.844C34.3109 515.257 33.8878 513.389 34.9455 512.119C36.4262 510.321 39.282 511.343 41.3973 512.295C51.9389 517.091 64.631 516.844 74.961 511.625C80.1436 509.016 84.9031 505.173 90.6498 504.256C99.076 502.916 107.009 508.17 113.672 513.459C120.371 518.748 127.563 524.602 136.059 524.707C145.649 524.848 153.546 517.726 161.444 512.225C173.431 503.868 188.273 498.508 202.623 501.153C216.972 503.797 229.981 516.139 230.122 530.737C233.824 517.902 235.904 504.573 236.257 491.209C232.061 494.947 226.244 496.428 220.638 496.251C215.033 496.075 209.568 494.453 204.28 492.655C191.27 488.212 178.472 482.641 164.828 481.23C154.71 480.172 144.309 481.477 134.367 479.291C126.364 477.528 118.22 473.508 110.358 475.906C105.528 477.387 101.72 481.054 97.9831 484.474C91.1082 490.751 83.6339 496.569 75.0315 500.166C66.429 503.762 56.5926 504.996 47.7434 502.105C35.8622 498.191 27.0129 486.449 26.4841 473.966" fill="#660000"/>
<path d="M100.698 476.082C101.473 481.583 102.284 487.119 104.082 492.337C105.88 497.591 108.736 502.599 113.073 506.089C117.339 509.545 122.733 511.308 127.351 514.27C129.537 515.645 131.723 516.738 133.803 518.29C134.438 518.748 135.072 519.277 135.848 519.348C136.483 519.383 137.082 519.136 137.611 518.819C139.691 517.655 142.723 516.703 143.569 514.446C147.095 512.719 149.28 510.603 152.877 509.016C156.473 507.429 159.963 505.384 162.572 502.457C165.322 499.354 166.944 495.37 167.79 491.28C168.601 487.436 168.706 483.522 168.953 479.643C169.059 477.81 169.024 476.047 169.482 474.248C169.94 472.344 170.61 470.475 171.245 468.607C172.444 465.01 173.395 461.061 172.091 457.534C171.033 454.678 168.601 452.563 166.062 450.87C161.585 447.873 156.402 445.898 151.043 445.087C142.441 443.818 133.979 443.148 125.306 443.359C116.633 443.571 107.855 445.158 100.098 449.107" fill="#DC9A6A"/>
<path d="M135.954 520.37C135.883 520.37 135.813 520.37 135.742 520.37C134.684 520.3 133.838 519.665 133.204 519.136C131.899 518.149 130.63 517.408 129.255 516.597C128.444 516.104 127.598 515.645 126.787 515.116C124.918 513.917 122.874 512.895 120.899 511.908C118.008 510.462 115.012 508.981 112.403 506.865C108.313 503.551 105.21 498.79 103.095 492.655C101.262 487.295 100.451 481.653 99.6752 476.188L101.685 475.906C102.46 481.265 103.236 486.801 105.034 491.985C107.008 497.732 109.899 502.211 113.707 505.278C116.14 507.253 118.89 508.628 121.816 510.074C123.826 511.097 125.941 512.119 127.88 513.388C128.691 513.917 129.466 514.376 130.277 514.834C131.652 515.61 133.027 516.421 134.367 517.444C134.931 517.867 135.425 518.255 135.883 518.29C136.341 518.36 136.764 518.078 137.082 517.902C137.54 517.62 138.069 517.373 138.598 517.126C140.29 516.28 142.053 515.434 142.582 514.058L142.723 513.671L143.075 513.494C144.662 512.719 146.037 511.802 147.341 510.955C148.857 509.968 150.444 508.91 152.418 508.029C156.684 506.125 159.646 504.115 161.796 501.717C164.158 499.037 165.851 495.44 166.767 490.998C167.472 487.718 167.649 484.263 167.825 480.913L167.966 478.374C168.036 476.928 168.107 475.447 168.46 473.896C168.847 472.309 169.376 470.757 169.87 469.241L170.222 468.148C171.315 464.834 172.302 461.025 171.068 457.746C170.222 455.525 168.46 453.55 165.428 451.54C161.056 448.613 156.014 446.674 150.832 445.933C141.559 444.558 133.204 443.994 125.271 444.206C115.681 444.453 107.361 446.357 100.521 449.847L99.6047 448.049C106.726 444.417 115.329 442.443 125.236 442.196C133.274 441.984 141.771 442.548 151.149 443.924C156.614 444.735 161.972 446.78 166.556 449.847C169.94 452.104 171.985 454.396 172.972 457.006C174.418 460.849 173.36 465.116 172.161 468.748L171.809 469.841C171.315 471.286 170.822 472.803 170.434 474.284C170.117 475.624 170.046 476.963 169.976 478.374L169.835 480.913C169.658 484.333 169.447 487.859 168.742 491.315C167.754 496.075 165.921 499.989 163.312 502.951C160.985 505.596 157.777 507.747 153.264 509.757C151.431 510.568 149.985 511.52 148.469 512.507C147.2 513.353 145.896 514.199 144.309 515.011C143.393 516.879 141.312 517.902 139.479 518.784C138.986 519.03 138.492 519.277 138.069 519.524C137.575 520.018 136.835 520.37 135.954 520.37Z" fill="black"/>
<path d="M157.777 482.641C155.521 487.965 151.537 492.584 146.566 495.582C145.05 496.498 143.322 497.274 141.595 497.063C138.527 496.639 136.765 493.395 135.672 490.469C132.358 481.442 130.842 471.745 131.194 462.118C129.996 468.113 129.326 474.248 129.185 480.349C127.21 474.425 125.201 468.254 126.117 462.118C127.034 455.948 131.794 449.883 138.034 449.742C135.707 449.248 133.662 447.485 132.816 445.264C132.534 446.568 132.287 447.873 132.005 449.178C129.22 447.52 127.105 444.735 126.188 441.632C125.976 442.266 125.589 442.866 124.989 443.183C123.438 443.924 121.358 442.76 121.182 441.067C121.111 440.574 121.287 440.115 121.499 439.657C118.22 440.433 115.047 441.526 112.05 443.042L112.579 466.491C113.249 471.251 113.954 476.082 115.505 480.631C117.057 485.179 119.56 489.552 123.297 492.584C126.999 495.582 131.688 497.133 135.707 499.707C137.611 500.906 139.515 501.823 141.313 503.198C141.842 503.621 142.441 504.08 143.111 504.115C143.64 504.15 144.168 503.938 144.662 503.656C146.495 502.634 149.104 501.788 149.845 499.848C152.912 498.332 154.816 496.498 157.918 495.123C157.953 495.123 157.989 495.088 158.024 495.088C160.88 489.27 162.255 482.852 163.594 476.54C161.479 480.56 159.328 484.58 157.213 488.6C156.684 486.59 156.896 484.439 157.777 482.641Z" fill="#976A49"/>
<path d="M135.425 419.628C135.354 418.148 135.319 416.596 136.13 415.362C136.8 414.339 137.928 413.775 139.021 413.246C140.537 412.47 142.053 411.73 143.639 411.06C144.521 410.672 145.473 410.319 146.425 410.425C147.376 410.531 148.364 411.236 148.434 412.188C148.505 412.964 147.976 413.705 147.341 414.163C146.707 414.621 145.966 414.903 145.261 415.291C144.556 415.679 143.886 416.208 143.675 416.949C143.393 417.865 143.78 418.888 143.569 419.805C143.357 420.616 142.723 421.215 141.982 421.603C141.242 421.991 140.431 422.097 139.62 422.238" fill="#9B6D28"/>
<path d="M135.425 419.628C135.284 418.253 135.143 416.737 135.848 415.397C136.624 414.057 138.034 413.352 139.233 412.717C141.771 411.624 147.835 407.287 148.928 412.294C148.928 414.903 145.438 415.15 144.274 416.631C143.428 417.513 144.45 419.205 143.499 420.616C142.547 421.92 140.96 422.132 139.585 422.273C140.925 421.991 142.441 421.533 143.075 420.369C143.816 419.311 142.652 417.76 143.64 416.208C144.662 414.833 146.108 414.551 147.165 413.775C148.223 412.999 148.188 411.659 147.024 411.166C145.085 410.249 141.489 412.788 139.55 413.458C136.588 414.41 135.213 416.455 135.425 419.628Z" fill="black"/>
<path d="M94.1403 435.99C93.6115 435.813 93.4352 430.313 99.3229 427.703C99.3229 427.703 100.169 423.719 105.881 424.248C105.881 424.248 108.631 421.497 111.063 423.225C111.063 423.225 115.858 419.17 119.031 421.991C119.031 421.991 122.275 419.628 125.236 420.827C125.236 420.827 128.938 418.641 132.04 420.475C132.04 420.475 136.13 418.288 138.774 421.074C138.774 421.074 142.793 418.747 145.966 421.074C145.966 421.074 149.14 418.888 152.031 422.061C152.031 422.061 155.345 421.074 157.601 423.366C157.601 423.366 161.162 421.674 163.877 425.376C163.877 425.376 168.284 424.459 170.469 427.386C172.655 430.313 174.171 433.592 173.889 433.662C173.642 433.733 172.091 452.88 172.091 452.88L160.316 453.867C160.316 453.867 156.12 456.97 154.675 452.175C154.675 452.175 150.726 456.159 148.716 455.454C146.707 454.749 146.636 451.716 146.636 451.716C146.636 451.716 144.063 456.3 141.524 455.524C138.986 454.749 138.986 451.963 138.986 451.963C138.986 451.963 137.364 455.948 135.425 455.454C133.486 454.96 131.794 451.54 131.794 451.54C131.794 451.54 131.864 455.912 128.691 455.454C125.518 455.031 124.566 451.857 124.566 451.857C124.566 451.857 125.271 456.829 122.768 456.371C120.23 455.912 117.198 451.469 117.198 451.469C117.198 451.469 118.96 456.688 116.493 456.406C114.025 456.124 110.922 451.646 110.922 451.646C110.922 451.646 113.002 456.441 110.922 456.406C108.842 456.371 106.409 453.091 106.409 453.091L96.855 455.842L92.1307 451.716L91.7429 447.591" fill="#74401B"/>
<path d="M116.669 456.864C116.598 456.864 116.492 456.864 116.422 456.864C114.976 456.688 113.39 455.278 112.227 454.008C112.403 454.89 112.438 455.771 112.05 456.3C111.874 456.547 111.557 456.864 110.957 456.864H110.922C108.983 456.829 106.903 454.502 106.233 453.656L96.7492 456.371L91.6371 451.928L91.2493 447.591L92.2717 447.485L92.6242 451.434L96.996 455.242L106.621 452.492L106.832 452.774C107.467 453.62 109.477 455.842 110.957 455.877C111.098 455.842 111.204 455.807 111.239 455.771C111.627 455.172 111.028 453.056 110.464 451.822L108.489 447.203L111.345 451.328C112.156 452.527 114.73 455.666 116.563 455.877C116.88 455.912 116.986 455.807 117.092 455.736C117.585 455.101 117.198 452.95 116.739 451.611L115.576 448.155L117.621 451.152C118.432 452.351 120.97 455.525 122.839 455.842C123.262 455.912 123.438 455.771 123.579 455.666C124.249 455.031 124.214 453.021 124.073 451.893L125.06 451.681C125.095 451.787 125.976 454.537 128.797 454.925C129.431 454.996 129.925 454.89 130.313 454.537C131.335 453.62 131.335 451.505 131.335 451.505L131.3 449.248L132.287 451.258C132.71 452.139 134.191 454.573 135.566 454.925C136.835 455.278 138.14 452.668 138.527 451.752L139.479 449.389V451.928C139.479 452.034 139.515 454.361 141.63 454.996C143.393 455.56 145.473 452.598 146.143 451.399L147.059 449.777L147.095 451.611C147.095 451.646 147.165 454.29 148.822 454.89C150.056 455.313 152.806 453.197 154.252 451.716L154.851 451.117L155.098 451.928C155.45 453.127 156.014 453.867 156.79 454.114C158.2 454.608 159.928 453.338 159.963 453.338L160.069 453.268H160.21L171.562 452.351C172.69 438.388 173.078 434.615 173.396 433.557C173.36 433.134 172.056 430.313 170.046 427.633C168.072 425.023 163.982 425.799 163.947 425.834L163.63 425.905L163.453 425.658C161.021 422.379 157.918 423.754 157.812 423.825L157.495 423.966L157.248 423.719C155.239 421.709 152.207 422.555 152.171 422.555L151.854 422.661L151.643 422.414C149.069 419.593 146.354 421.427 146.213 421.533L145.931 421.744L145.649 421.533C142.793 419.417 139.056 421.533 139.021 421.568L138.668 421.779L138.386 421.497C136.024 419.029 132.428 420.898 132.252 421.004L132.005 421.145L131.758 421.004C128.938 419.346 125.483 421.321 125.447 421.356L125.236 421.497L124.989 421.392C122.345 420.298 119.313 422.485 119.278 422.485L118.96 422.731L118.643 422.449C115.823 419.981 111.38 423.684 111.345 423.719L111.028 423.966L110.711 423.754C108.666 422.308 106.198 424.706 106.198 424.741L106.057 424.777H105.81C100.663 424.318 99.8164 427.809 99.7812 427.844L99.7107 428.091L99.4639 428.197C96.5024 429.502 95.2684 431.512 94.7396 432.993C94.246 434.368 94.3165 435.461 94.4223 435.672C94.4223 435.637 94.3518 435.567 94.246 435.531L93.9287 436.483C93.5762 436.378 93.3999 435.954 93.3646 435.249C93.2588 433.275 94.3165 429.466 98.8645 427.351C99.1818 426.434 100.627 423.366 105.634 423.754C106.727 422.767 108.948 421.497 110.957 422.626C112.05 421.779 115.999 419.135 118.996 421.356C119.912 420.792 122.557 419.346 125.13 420.263C125.976 419.84 129.149 418.394 132.005 419.911C132.957 419.487 136.342 418.218 138.809 420.475C139.867 419.946 143.111 418.641 145.931 420.51C146.848 420.016 149.598 418.923 152.136 421.533C153.018 421.356 155.627 421.004 157.636 422.802C158.623 422.485 161.62 421.815 164.017 424.847C165.11 424.706 168.777 424.389 170.787 427.104C172.549 429.431 174.559 433.098 174.312 433.839L174.242 434.05C173.96 435.637 173.078 446.039 172.514 452.95L172.479 453.374L172.056 453.409L160.421 454.361C159.928 454.678 158.13 455.771 156.473 455.207C155.556 454.89 154.886 454.185 154.393 453.092C153.159 454.22 150.303 456.582 148.505 455.948C147.165 455.489 146.566 454.149 146.284 453.127C145.261 454.537 143.322 456.653 141.313 456.053C139.867 455.595 139.092 454.537 138.739 453.55C137.999 454.784 136.765 456.371 135.249 455.983C133.944 455.63 132.781 454.22 132.076 453.127C131.899 453.903 131.547 454.784 130.912 455.348C130.278 455.877 129.502 456.089 128.585 455.983C126.928 455.736 125.8 454.855 125.095 453.973C125.024 454.89 124.813 455.912 124.214 456.477C123.931 456.759 123.403 457.076 122.592 456.9C121.005 456.618 119.313 454.996 118.15 453.62C118.291 454.643 118.291 455.771 117.762 456.406C117.621 456.582 117.268 456.864 116.669 456.864Z" fill="black"/>
<path d="M99.7108 426.892C98.9704 428.726 98.2653 431.088 98.5121 432.922C98.5474 433.557 99.8166 433.239 100.698 432.852C101.65 432.464 102.567 431.864 103.342 431.124C102.849 432.111 102.038 432.993 101.051 433.557C95.6564 436.554 97.4192 428.937 99.7108 426.892Z" fill="black"/>
<path d="M106.268 423.895C103.518 428.937 102.743 438.317 109.653 429.643C109.018 430.947 108.313 432.252 107.185 433.275C106.621 433.768 105.88 434.297 104.858 434.121C101.368 432.64 104.329 425.729 106.268 423.895Z" fill="black"/>
<path d="M111.768 422.59C110.605 425.376 109.864 428.267 109.9 431.194C109.9 431.864 110.041 432.534 110.464 432.746C112.332 433.063 114.483 431.265 116.069 430.207C115.117 431.406 113.954 432.428 112.579 433.169C106.162 436.166 109.582 424.741 111.768 422.59Z" fill="black"/>
<path d="M119.172 421.885C118.432 424.741 116.387 427.668 117.021 430.63C118.185 434.65 121.746 430.736 123.579 429.361C122.486 430.454 121.851 432.005 120.265 432.852C118.608 433.909 116.281 432.816 116.034 430.877C115.435 427.421 117.585 424.671 119.172 421.885Z" fill="black"/>
<path d="M125.412 420.827C124.46 423.93 124.354 427.245 125.483 430.171C127.104 434.191 130.454 432.076 131.37 428.761C131.159 430.312 130.701 432.217 128.902 433.028C122.838 434.297 123.05 424.071 125.412 420.827Z" fill="black"/>
<path d="M131.652 420.545C131.688 423.472 131.406 426.469 132.675 428.937C134.156 432.287 136.87 432.111 137.999 428.585C137.893 429.29 137.752 430.03 137.399 430.736C137.011 431.406 136.341 432.04 135.46 432.146C130.172 431.547 130.489 424.318 131.652 420.545Z" fill="black"/>
<path d="M138.422 421.039C138.21 424.248 138.492 427.633 140.537 429.96C142.97 432.957 146.107 432.746 146.46 428.444C146.495 429.255 146.53 430.101 146.284 430.912C145.226 434.227 141.242 432.569 139.761 430.595C137.575 427.95 137.399 424.212 138.422 421.039Z" fill="black"/>
<path d="M145.649 421.18C146.107 424.424 146.777 427.739 148.963 430.066C149.915 431.159 151.466 432.393 152.63 431.864C153.864 431.159 153.229 429.114 153.617 427.527C153.546 428.373 153.828 429.114 153.934 429.995C154.287 432.323 152.207 433.627 150.232 432.358C146.354 430.207 145.155 425.306 145.649 421.18Z" fill="black"/>
<path d="M151.643 421.956C152.912 424.812 153.828 427.809 155.873 429.995C158.024 432.711 161.761 433.592 160.457 428.938C160.809 429.643 161.197 430.348 161.162 431.23C161.162 432.076 160.421 433.028 159.399 433.063C154.216 432.358 152.312 426.328 151.643 421.956Z" fill="black"/>
<path d="M157.707 423.507C159.822 426.645 162.29 431.582 166.168 431.864C166.485 429.889 164.617 427.033 162.995 425.588C164.546 426.469 165.815 427.879 166.556 429.537C167.402 431.053 167.508 433.451 165.04 432.781C161.126 431.3 159.082 427.245 157.707 423.507Z" fill="black"/>
<path d="M167.226 430.63C168.495 431.265 169.165 431.617 170.364 432.393C169.059 433.134 167.261 432.111 167.226 430.63Z" fill="black"/>
<path d="M98.6882 433.733C98.1241 437.047 98.8293 440.503 100.804 443.042C102.179 444.664 102.637 442.407 102.707 441.138C102.919 439.445 103.201 437.788 103.518 436.131C103.342 438.811 104.047 441.385 102.884 443.923C102.214 444.981 100.592 444.664 99.9927 443.712C97.8773 440.82 97.3133 436.906 98.6882 433.733Z" fill="black"/>
<path d="M104.259 433.592C103.483 436.413 103.835 439.375 105.351 441.702C106.021 442.795 107.15 444.206 108.101 443.853C109.23 443.395 108.948 441.491 109.653 440.221C109.23 441.702 110.076 443.5 108.454 444.558C107.537 445.087 106.55 444.488 105.986 444.029C103.13 441.491 102.284 436.871 104.259 433.592Z" fill="black"/>
<path d="M111.38 433.169C110.393 436.096 111.063 439.34 113.178 441.35C114.166 442.443 115.505 443.148 116.457 441.984C117.409 440.997 117.409 439.234 118.255 437.929C117.726 439.375 118.149 441.032 117.057 442.478C115.928 444.276 113.566 443.36 112.473 442.09C110.111 439.763 109.547 435.884 111.38 433.169Z" fill="black"/>
<path d="M118.678 432.852C117.585 436.448 119.595 440.08 122.345 442.266C122.979 442.795 123.79 443.183 124.319 442.831C125.835 440.997 125.906 437.612 126.928 435.355C126.717 437.224 126.435 439.058 126.117 440.856C125.976 443.465 123.896 444.946 121.71 443.077C118.819 440.715 116.704 436.378 118.678 432.852Z" fill="black"/>
<path d="M127.14 433.345C127.457 436.801 129.044 440.397 131.97 442.16C133.521 442.407 133.627 438.423 134.402 437.224C134.261 438.705 134.12 440.115 133.803 441.596C133.239 444.029 130.806 442.971 129.749 441.667C127.704 439.48 126.576 436.307 127.14 433.345Z" fill="black"/>
<path d="M134.579 431.97C134.332 435.884 135.954 440.221 139.127 442.478C141.383 443.677 141.242 440.468 141.806 439.093C142.335 437.118 142.934 435.143 143.604 433.169C143.322 435.214 142.97 437.259 142.582 439.269C142.229 441.42 141.736 444.911 138.668 443.359C135.072 440.75 133.556 436.096 134.579 431.97Z" fill="black"/>
<path d="M150.937 433.028C151.149 436.413 151.643 441.843 155.274 442.971C156.014 443.077 156.649 442.442 156.966 441.561C157.777 438.775 157.425 435.284 159.575 432.992C158.447 434.72 158.447 436.765 158.271 438.811C158.412 442.901 155.768 446.357 152.453 442.09C150.585 439.445 150.55 436.025 150.937 433.028Z" fill="black"/>
<path d="M143.216 434.121C143.111 437.048 144.204 441.314 146.918 442.548C148.399 443.077 148.752 441.032 149.139 439.445C149.562 437.823 149.915 436.131 150.197 434.438C150.268 437.048 150.127 439.622 149.28 442.16C148.998 443.112 147.694 443.853 146.672 443.5C143.287 442.019 142.406 437.4 143.216 434.121Z" fill="black"/>
<path d="M158.623 435.179C159.751 436.519 161.126 443.783 163.242 441.244C165.04 438.67 164.969 435.073 165.075 431.97C165.78 435.285 166.027 438.881 164.053 441.878C160.21 445.405 159.399 437.541 158.623 435.179Z" fill="black"/>
<path d="M101.473 444.241C102.461 446.497 103.941 448.437 105.951 449.671C106.762 450.27 108.419 451.081 108.384 450.447C108.419 449.354 108.489 448.014 108.595 446.815C108.842 448.049 109.053 449.177 109.159 450.553C109.194 450.94 108.771 451.575 108.278 451.575C104.717 451.222 101.826 447.661 101.473 444.241Z" fill="black"/>
<path d="M107.996 444.347C109.477 446.815 111.698 448.966 114.307 450.024C114.941 450.235 115.223 450.165 115.329 449.53C115.47 447.379 115.611 445.087 115.964 442.936C116.105 444.417 116.21 445.898 116.246 447.414C117.233 455.56 108.56 448.12 107.996 444.347Z" fill="black"/>
<path d="M116.281 444.065C117.656 446.286 120.3 449.283 122.909 448.79C123.191 448.613 123.262 447.908 123.438 447.309C124.355 443.395 124.707 443.465 124.214 447.45C124.108 448.049 124.214 448.754 123.544 449.46C122.803 450.059 121.922 449.918 121.287 449.707C118.784 448.754 116.775 446.604 116.281 444.065Z" fill="black"/>
<path d="M124.778 444.735C125.729 446.603 127.069 449.777 129.396 449.53C130.242 449.46 130.277 447.838 130.595 446.639C132.005 440.327 131.617 445.299 131.088 448.719C130.595 451.857 126.928 450.412 126.012 448.472C125.271 447.309 124.989 446.004 124.778 444.735Z" fill="black"/>
<path d="M132.252 444.1C132.745 446.744 137.047 451.822 138.704 447.414C139.091 446.357 139.479 444.84 140.713 444.311C139.761 445.158 139.761 446.427 139.444 447.626C137.893 453.374 131.652 447.943 132.252 444.1Z" fill="black"/>
<path d="M140.467 445.087C141.454 446.745 145.191 453.162 146.072 448.613C146.566 446.603 147.447 444.664 148.611 442.936C147.976 444.84 147.412 446.886 146.954 448.825C145.72 454.678 141.066 448.684 140.467 445.087Z" fill="black"/>
<path d="M148.364 444.594C149.809 454.643 152.771 448.331 155.662 443.359C154.957 446.039 154.075 448.508 151.995 450.553C151.325 451.046 150.232 451.011 149.598 450.517C147.729 449.142 148.364 446.568 148.364 444.594Z" fill="black"/>
<path d="M155.732 444.347C156.226 446.074 154.604 452.069 157.742 450.306C160.139 448.825 162.008 446.462 163.242 443.853C162.748 446.815 160.844 449.46 158.235 451.187C153.405 453.197 155.344 446.815 155.732 444.347Z" fill="black"/>
<path d="M163.312 443.042C164.017 444.029 164.37 444.876 164.969 445.757C165.11 445.969 165.251 446.392 165.674 446.286C164.511 447.696 162.572 444.276 163.312 443.042Z" fill="black"/>
<path d="M114.553 474.777C115.611 481.865 117.656 488.529 120.758 494.982C116.457 489.305 114.201 481.9 114.553 474.777Z" fill="black"/>
<path d="M122.38 489.34C124.39 495.37 126.681 501.117 129.396 506.865C125.518 501.858 123.05 495.652 122.38 489.34Z" fill="black"/>
<path d="M130.454 465.574C130.806 472.979 130.912 480.278 130.771 487.683C129.537 480.384 129.431 472.908 130.454 465.574Z" fill="black"/>
<path d="M124.073 511.555C127.845 513.353 131.653 514.235 135.848 514.305C131.899 515.681 127.034 514.552 124.073 511.555Z" fill="black"/>
<path d="M159.646 480.842C160.562 488.071 158.517 495.828 154.075 501.611C157.319 495.053 159.187 488.141 159.646 480.842Z" fill="black"/>
<path d="M149.281 503.974C150.338 502.175 151.361 500.835 152.771 499.284C152.665 501.364 151.22 503.268 149.281 503.974Z" fill="black"/>
<path d="M155.062 458.451C155.627 460.919 155.521 463.494 154.71 465.891C154.146 463.353 154.252 460.919 155.062 458.451Z" fill="black"/>
<path opacity="0.17" d="M115.787 444.312C115.858 445.405 116.069 446.462 116.351 447.485C116.704 446.392 116.598 445.123 115.787 444.312Z" fill="#660000"/>
<path d="M93.6113 434.615C94.2459 433.486 94.8805 432.323 95.5152 431.194C94.7748 432.993 95.4094 435.214 96.9606 436.342C97.2427 433.028 98.2299 429.749 99.8516 426.857C99.076 427.844 98.2299 428.938 98.2651 430.172C98.2651 431.441 99.6754 432.675 100.768 432.041C101.156 431.829 101.403 431.476 101.614 431.124C103.166 428.797 104.717 426.434 106.268 424.107C105.528 425.94 105.175 427.95 105.211 429.925C105.211 430.489 105.316 431.159 105.845 431.406C106.621 431.794 107.361 430.877 107.749 430.101C108.912 427.739 110.076 425.376 111.239 423.014C111.698 424.036 111.416 425.2 111.028 426.258C110.64 427.316 110.182 428.373 110.252 429.467C110.323 430.56 111.169 431.723 112.297 431.653C113.143 431.582 113.778 430.842 114.307 430.172C115.611 428.409 116.845 426.575 117.973 424.671C116.387 427.421 116.915 431.23 119.207 433.451C116.951 433.098 114.518 434.192 113.249 436.096C111.98 438 111.909 440.644 113.073 442.619C111.733 441.984 111.31 440.327 110.922 438.881C110.534 437.436 109.864 435.778 108.419 435.461C106.938 435.144 105.528 436.484 105.211 437.964C104.893 439.445 105.387 440.962 105.845 442.407C104.047 440.75 102.743 438.599 102.108 436.237C99.8869 437.753 99.076 441.032 100.345 443.395C98.7939 441.385 97.2427 439.375 95.6914 437.365C95.5504 437.577 95.4094 437.823 95.2684 438.035" fill="#502C13"/>
<path d="M111.803 448.825C113.249 449.107 114.8 448.225 115.364 446.85C115.893 445.475 115.435 443.818 114.307 442.866C116.105 443.395 118.185 441.843 118.185 440.009C117.092 442.09 117.656 444.911 119.454 446.392C120.476 447.238 122.204 447.591 122.979 446.498C123.614 445.651 123.226 444.382 122.627 443.536C122.028 442.654 121.181 441.878 120.899 440.856C121.005 442.478 123.191 443.289 124.601 442.513C126.011 441.737 126.646 440.009 126.646 438.387C125.941 440.609 125.765 442.971 126.152 445.263C126.294 446.004 126.505 446.78 127.069 447.238C128.021 448.014 129.572 447.485 130.277 446.462C130.983 445.475 131.088 444.17 131.194 442.936C131.265 446.11 131.335 449.248 131.406 452.421C130.595 450.87 128.797 449.706 127.069 450.165C125.342 450.623 124.425 453.056 125.694 454.255C124.742 452.704 123.297 451.434 121.64 450.658C121.076 450.412 120.441 450.2 119.877 450.412C119.066 450.729 118.784 451.752 118.996 452.598C119.207 453.444 119.842 454.079 120.441 454.713C119.031 453.726 117.656 452.739 116.246 451.716C116.316 453.127 116.387 454.537 116.422 455.948C116.387 453.726 114.342 452.175 112.579 450.835C111.239 449.847 108.948 447.979 109.371 446.11C109.723 447.344 110.393 448.543 111.803 448.825Z" fill="#502C13"/>
<path d="M125.201 429.431C125.906 430.348 127.316 430.806 128.233 430.101C128.867 429.643 129.079 428.796 129.255 428.021C129.749 425.975 130.207 423.895 130.701 421.85C130.912 423.86 131.335 425.834 132.005 427.738C132.252 428.479 132.604 429.255 133.345 429.607C134.649 430.207 136.059 428.832 136.447 427.421C136.835 426.046 136.694 424.494 137.47 423.26C137.611 426.011 138.704 428.691 140.502 430.806C136.87 432.111 134.684 436.483 135.813 440.186C135.566 438.387 135.319 436.483 134.226 435.038C133.133 433.592 130.912 432.781 129.431 433.839C127.81 435.002 127.986 437.4 128.338 439.375C127.951 437.224 127.387 434.967 125.871 433.345C124.39 431.723 121.675 431.018 119.948 432.358C122.098 430.7 122.204 426.822 124.284 425.482C124.531 426.822 124.319 428.267 125.201 429.431Z" fill="#502C13"/>
<path d="M147.518 438.74C148.716 438.423 149.351 437.153 149.739 435.99C150.127 434.826 150.444 433.521 151.431 432.781C150.797 436.237 152.489 439.974 155.486 441.773C155.662 442.019 155.274 442.372 154.992 442.302C154.675 442.231 154.463 441.984 154.252 441.773C153.264 440.856 151.607 441.032 150.585 441.878C149.563 442.725 149.104 444.135 149.104 445.475C149.104 446.815 149.457 448.12 149.809 449.424C150.127 448.12 148.505 446.921 147.236 447.344C145.966 447.767 145.297 449.283 145.508 450.623C145.861 449.178 146.213 447.697 146.037 446.216C145.861 444.735 145.085 443.218 143.71 442.619C142.335 442.019 140.431 442.654 140.043 444.1C140.467 442.619 142.547 435.602 143.922 435.426C144.45 436.871 145.297 439.34 147.518 438.74Z" fill="#502C13"/>
<path d="M151.22 432.428C149.633 432.217 145.367 429.572 146.707 427.527C147.87 425.693 149.668 432.217 151.22 432.428Z" fill="#502C13"/>
<path opacity="0.75" d="M113.672 422.943C114.342 422.379 115.47 421.991 116.034 422.696C116.351 423.119 116.246 423.754 116.105 424.283C115.682 425.799 113.531 433.028 110.957 429.96C109.23 427.95 112.191 424.142 113.672 422.943Z" fill="#DD6628"/>
<path opacity="0.29" d="M106.585 425.023C105.704 426.046 105.175 427.28 104.999 428.62C104.928 429.255 104.999 429.995 105.528 430.313C106.303 430.736 107.15 429.96 107.678 429.255C108.172 428.585 108.701 427.844 108.912 427.033C109.124 426.222 108.912 425.2 108.242 424.706C107.573 424.212 106.339 424.494 106.162 425.341" fill="#DD6628"/>
<path opacity="0.29" d="M117.938 427.95C117.903 428.655 118.008 429.466 118.643 429.784C119.031 429.995 119.489 429.889 119.877 429.643C120.194 429.466 120.476 429.219 120.688 428.937C121.534 427.985 122.169 426.892 122.627 425.693C123.226 424.107 121.816 423.86 120.547 424.212C118.714 424.741 118.044 426.187 117.938 427.95Z" fill="#DD6628"/>
<path opacity="0.29" d="M126.646 421.674C125.624 423.084 125.201 424.918 125.553 426.61C125.694 427.315 126.047 428.056 126.717 428.197C127.21 428.303 127.739 428.021 128.056 427.633C128.374 427.245 128.515 426.751 128.656 426.222C128.867 425.341 128.973 424.459 128.973 423.578C128.973 422.943 128.938 422.273 128.479 421.85C128.021 421.427 127.105 421.532 126.999 422.167" fill="#DD6628"/>
<path opacity="0.29" d="M121.287 440.609C121.781 441.103 122.556 441.561 123.191 441.244C123.755 440.961 123.931 440.292 124.002 439.692C124.143 438.705 124.249 437.717 124.284 436.73C124.39 434.332 121.816 431.265 119.701 434.015C118.326 435.813 119.947 439.269 121.287 440.609Z" fill="#DD6628"/>
<path opacity="0.29" d="M113.39 436.801C112.649 438 113.002 439.798 114.165 440.609L113.39 436.801Z" fill="#DD6628"/>
<path opacity="0.29" d="M101.72 426.998C100.733 427.456 100.098 428.55 100.169 429.607L101.72 426.998Z" fill="#DD6628"/>
<path opacity="0.29" d="M129.29 434.826C128.903 436.378 129.149 438.07 129.995 439.445C130.489 440.256 131.511 440.962 132.287 440.468C132.851 440.08 132.886 439.269 132.886 438.564C132.851 437.718 132.816 436.871 132.816 436.025C132.781 435.32 132.745 434.579 132.358 434.015C131.97 433.451 131.053 433.169 130.56 433.627" fill="#DD6628"/>
<path opacity="0.29" d="M134.473 428.373C135.072 428.303 135.354 427.633 135.531 427.069C136.06 425.482 138.598 419.664 134.685 421.744C132.816 422.767 131.512 428.726 134.473 428.373Z" fill="#DD6628"/>
<path opacity="0.29" d="M139.55 425.729C139.761 426.857 140.361 427.844 141.03 428.761C141.348 429.22 141.736 429.643 142.194 429.89C142.652 430.136 143.322 430.172 143.745 429.819C144.45 429.255 144.168 428.162 144.027 427.245C143.886 426.293 143.992 425.306 143.886 424.354C143.428 420.298 138.845 421.956 139.55 425.729Z" fill="#DD6628"/>
<path opacity="0.29" d="M137.434 439.445C137.857 440.186 138.598 440.891 139.409 440.68C140.114 440.503 140.466 439.727 140.678 439.022C141.066 437.788 141.383 436.554 141.594 435.285C141.735 434.438 141.806 433.451 141.207 432.852C140.043 431.758 137.752 433.239 137.082 434.332C136.165 435.813 136.659 438.035 137.434 439.445Z" fill="#DD6628"/>
<path opacity="0.29" d="M151.361 429.854C151.925 429.466 151.784 428.585 151.572 427.915C151.149 426.54 150.268 421.956 148.364 424.953C147.447 426.399 149.527 431.088 151.361 429.854Z" fill="#DD6628"/>
<path opacity="0.29" d="M153.899 424.812C154.463 426.222 155.274 427.562 156.296 428.655L153.899 424.812Z" fill="#DD6628"/>
<path opacity="0.29" d="M126.364 440.785C126.188 442.654 126.717 444.594 127.88 446.075C128.127 446.392 128.479 446.709 128.832 446.639C129.29 446.533 129.431 445.934 129.467 445.44C129.537 444.488 129.608 443.501 129.361 442.548C129.114 441.596 128.515 440.715 127.598 440.362C126.681 440.01 125.483 440.433 125.201 441.35" fill="#DD6628"/>
<path opacity="0.29" d="M109.864 443.113C110.005 444.664 110.605 446.18 111.557 447.414C112.121 448.12 112.967 448.754 113.813 448.472C114.73 448.155 114.906 446.956 114.8 445.969C114.694 445.017 114.377 443.994 113.566 443.43C112.755 442.866 111.416 443.183 111.204 444.1" fill="#DD6628"/>
<path opacity="0.29" d="M106.303 436.201C105.316 437.682 105.246 439.692 106.057 441.244C106.268 441.632 106.55 442.055 106.938 442.266C107.326 442.478 107.89 442.478 108.242 442.196C108.56 441.914 108.63 441.491 108.701 441.067C108.807 440.327 108.948 439.586 109.053 438.846C109.194 438.035 109.3 437.189 108.842 436.483C108.419 435.813 107.185 435.672 106.868 436.413" fill="#DD6628"/>
<path opacity="0.29" d="M101.65 426.751C100.627 427.527 99.8516 428.655 99.5343 429.925C99.3228 430.771 99.5343 431.899 100.38 432.04C101.121 432.146 101.65 431.335 101.932 430.665C102.425 429.502 102.884 428.303 103.236 427.069C103.307 426.892 103.342 426.681 103.271 426.504C103.166 426.187 102.707 426.046 102.39 426.187C102.073 426.328 101.826 426.575 101.614 426.857" fill="#DD6628"/>
<path opacity="0.29" d="M145.332 412.365C144.627 413.704 143.111 414.374 141.771 415.044C140.431 415.75 139.021 416.702 138.739 418.218C138.704 418.429 138.668 418.641 138.563 418.817C137.857 419.875 136.976 418.147 136.976 417.513C137.011 416.561 137.752 416.173 138.422 415.679C139.444 414.868 140.678 414.233 141.841 413.669C142.441 413.387 145.12 412.788 145.332 412.365Z" fill="#DD6628"/>
<path opacity="0.29" d="M141.383 418.923C141.665 418.888 141.947 418.817 142.264 418.782L141.383 418.923Z" fill="#DD6628"/>
<path d="M226.808 461.695C226.808 461.695 208.687 461.872 200.225 456.864C191.764 451.857 193.491 447.027 191.411 442.372C189.331 437.718 181.927 431.335 174.841 432.534C167.755 433.733 164.652 442.548 170.363 444.1C176.04 445.651 177.45 449.777 177.45 449.777C177.45 449.777 169.165 445.299 163.982 449.248C158.8 453.197 161.091 458.204 161.937 460.285C162.783 462.365 168.988 462.542 171.069 464.763C171.069 464.763 161.585 464.41 159.681 468.465C157.777 472.521 158.87 478.233 161.937 479.784C165.005 481.336 172.091 479.608 174.488 481.512C176.921 483.416 181.575 488.776 187.427 489.975C193.28 491.174 196.241 488.6 196.241 488.6C196.241 488.6 207.453 496.005 218.84 496.181C230.228 496.357 235.234 493.325 238.09 484.862" fill="#DD6628"/>
<path d="M219.757 498.226C219.44 498.226 219.122 498.226 218.805 498.226C208.969 498.085 199.45 492.902 196.241 490.998C194.62 491.844 191.517 492.902 187.04 491.985C181.892 490.927 177.732 487.154 174.982 484.65C174.312 484.051 173.748 483.522 173.255 483.134C172.549 482.57 169.976 482.57 168.107 482.57C165.569 482.57 162.925 482.57 161.021 481.618C156.966 479.573 155.415 472.803 157.812 467.655C158.764 465.574 160.915 464.375 163.207 463.705C161.761 463.141 160.562 462.401 160.069 461.096C159.046 458.557 156.543 452.457 162.748 447.697C164.546 446.321 166.626 445.757 168.671 445.651C166.485 444.629 165.287 442.548 165.392 439.974C165.569 436.06 169.059 431.476 174.524 430.56C182.527 429.184 190.812 436.06 193.28 441.561C193.95 443.042 194.232 444.453 194.549 445.828C195.254 449.107 195.889 451.963 201.248 455.137C209.11 459.791 226.597 459.65 226.773 459.685L226.808 463.74C226.068 463.74 208.017 463.846 199.203 458.628C192.293 454.537 191.411 450.376 190.6 446.709C190.318 445.475 190.072 444.311 189.578 443.218C187.745 439.093 181.117 433.557 175.194 434.544C171.597 435.143 169.553 438.211 169.447 440.186C169.412 441.279 169.835 441.878 170.892 442.161C177.556 443.994 179.283 448.966 179.354 449.178L180.976 454.008L176.463 451.611C176.392 451.575 169.271 447.802 165.216 450.905C161.761 453.55 162.572 456.512 163.735 459.333C164.088 459.791 165.78 460.32 166.803 460.637C168.953 461.272 171.174 461.977 172.549 463.458L175.828 467.02L170.963 466.843C167.684 466.738 162.396 467.443 161.479 469.382C159.963 472.626 160.95 477.069 162.819 478.021C163.841 478.55 166.098 478.515 168.072 478.55C171.104 478.586 173.924 478.55 175.722 479.961C176.251 480.384 176.921 480.983 177.662 481.653C180.094 483.839 183.726 487.189 187.815 488.036C192.504 488.988 194.796 487.189 194.902 487.084L196.065 486.131L197.334 486.942C197.44 487.013 208.193 494.03 218.84 494.206C229.347 494.418 233.542 491.95 236.116 484.263L239.959 485.567C236.927 494.735 231.392 498.226 219.757 498.226Z" fill="black"/>
<path d="M169.165 463.106C171.915 462.824 174.629 464.516 175.969 466.843C176.428 467.619 176.745 468.501 176.78 469.453C176.004 468.924 175.405 468.36 174.77 467.866C172.972 466.35 170.892 464.692 169.165 463.106Z" fill="black"/>
<path d="M173.149 446.815C177.344 447.767 180.94 451.223 182.033 455.419C178.684 452.88 175.828 450.094 173.149 446.815Z" fill="black"/>
<path d="M190.918 441.173C191.059 441.173 191.87 441.208 191.94 441.244C191.87 441.314 191.059 441.314 190.918 441.314C190.777 441.314 189.966 441.279 189.895 441.244C189.966 441.173 190.777 441.173 190.918 441.173Z" fill="#231F20"/>
<path d="M191.094 489.129C195.536 487.189 199.837 484.897 203.998 482.358C201.741 487.013 196.171 489.94 191.094 489.129Z" fill="black"/>
<path d="M220.215 460.214C223.177 458.698 225.045 456.406 225.927 453.197C228.254 456.688 224.093 461.766 220.215 460.214Z" fill="black"/>
<path d="M219.017 460.673C223.811 460.179 228.571 461.131 232.661 457.816C230.792 463.317 223.283 463.176 219.017 460.673Z" fill="black"/>
<path d="M239.253 478.198C237.667 481.83 236.292 485.532 235.093 489.305C237.209 488.6 238.795 486.731 239.677 484.686C240.558 482.641 240.875 480.384 241.157 478.162" fill="black"/>
<path opacity="0.17" d="M176.921 435.249C175.194 435.743 173.572 436.907 173.078 438.634C171.738 443.077 178.155 446.392 178.437 451.046C176.322 448.649 172.162 448.79 169.799 450.976C167.437 453.162 166.908 456.865 167.966 459.897C169.024 462.929 171.492 465.292 174.277 466.879C171.597 465.75 168.283 465.609 165.992 467.408C163.7 469.206 163.312 473.261 165.674 474.918C170.258 474.319 175.052 475.588 178.754 478.374C181.716 480.595 184.043 483.769 187.392 485.32C191.446 487.189 196.312 486.308 200.225 484.122C204.103 481.935 207.206 478.621 210.238 475.341C207.417 476.893 207.594 481.406 209.921 483.628C212.247 485.849 215.808 486.202 218.981 485.849C225.01 485.179 230.827 482.359 234.917 477.88C239.007 473.402 241.298 467.267 240.946 461.237C242.427 470.052 240.558 479.044 238.689 487.789C237.032 495.546 235.411 503.304 233.754 511.097C233.683 507.218 233.26 502.669 229.981 500.624C227.266 498.967 223.811 499.778 220.638 500.236C213.763 501.223 206.607 500.06 200.401 496.957C197.546 495.546 194.725 493.677 191.517 493.607C189.155 493.536 186.828 494.488 184.501 494.242C179.248 493.642 176.569 487.542 171.95 484.968C169.341 483.522 166.168 483.24 163.524 481.83C160.033 479.925 157.812 475.941 158.024 471.956C158.235 468.007 160.915 464.269 164.617 462.788C160.844 460.637 159.716 455.243 161.655 451.328C163.594 447.414 167.896 445.193 172.126 444.84C166.626 444.629 165.639 438.282 168.883 434.932C172.162 431.512 179.142 430.383 182.033 434.932C180.341 434.932 178.613 434.791 176.921 435.249Z" fill="#660000"/>
<path d="M216.337 466.244C215.315 466.032 214.398 465.503 213.482 465.01C211.719 464.058 209.956 463.07 208.193 462.118C211.401 462.647 214.645 463.141 217.924 463.211C221.203 463.282 224.517 462.894 227.513 461.66C230.545 460.426 233.26 458.31 234.847 455.454C235.693 458.416 235.164 461.73 233.436 464.269C231.603 466.984 228.571 468.712 225.398 469.594C222.225 470.475 218.946 470.616 215.667 470.757" fill="#DD6628"/>
<path d="M225.504 452.598C226.173 453.832 226.35 455.348 226.032 456.723C225.715 458.099 224.834 459.333 223.635 460.109C225.01 460.92 226.773 460.426 228.289 459.897C229.911 459.333 231.568 458.733 232.978 457.746C234.388 456.759 235.587 455.313 235.869 453.62" fill="#DD6628"/>
<path opacity="0.75" d="M180.059 435.672C184.466 436.413 188.027 440.503 188.238 444.946L180.059 435.672Z" fill="#DD6628"/>
<path opacity="0.17" d="M194.69 450.341C197.652 453.127 200.648 455.912 204.209 457.781C207.805 459.65 212.107 460.532 215.914 459.192C219.546 457.922 222.296 454.855 224.023 451.399C225.715 447.943 226.526 444.135 227.302 440.397C227.76 443.007 227.231 445.722 227.196 448.367C227.126 451.046 227.654 453.938 229.699 455.666C231.744 457.393 235.552 456.935 236.327 454.396C231.638 459.015 225.292 461.907 218.735 462.365C212.177 462.824 205.478 460.814 200.225 456.865" fill="#660000"/>
<path d="M45.487 471.004C45.487 471.004 62.9034 472.203 71.0123 459.438C71.0123 459.438 71.8584 448.754 79.1212 443.394C86.3839 438.035 93.7876 434.755 96.044 438.211C98.3004 441.667 98.4766 447.167 96.044 450.129C96.044 450.129 104.858 446.674 106.409 453.056C107.96 459.438 104.858 462.365 104.858 462.365C104.858 462.365 110.71 465.186 109.864 471.039C109.018 476.893 103.307 476.011 100.909 478.762C98.5119 481.512 92.4479 493.43 88.6755 494.805C84.8679 496.181 82.2942 494.629 82.2942 494.629C82.2942 494.629 69.461 505.49 54.4773 504.643C39.4935 503.797 28.1058 493.783 25.8142 470.757" fill="#DD6628"/>
<path d="M56.1343 506.724C55.535 506.724 54.9004 506.724 54.301 506.689C36.7788 505.666 25.92 493.007 23.7341 470.969L27.7533 470.581C29.7276 490.68 38.9999 501.752 54.5125 502.669C68.4739 503.48 80.7782 493.254 80.884 493.148L81.9769 492.231L83.2109 492.972C83.2461 493.007 85.0794 493.995 87.8646 492.972C89.7685 492.267 93.6819 486.025 95.762 482.676C97.2075 480.348 98.3709 478.515 99.2523 477.492C100.451 476.117 102.108 475.447 103.554 474.883C106.057 473.896 107.361 473.261 107.714 470.793C108.348 466.491 103.871 464.269 103.836 464.269L101.191 463L103.342 460.99C103.412 460.919 105.528 458.663 104.329 453.62C104.047 452.386 103.413 451.963 102.989 451.751C101.086 450.764 97.7363 451.716 96.6786 452.104L89.4159 454.96L94.387 448.93C96.1498 446.78 96.0793 442.231 94.246 439.41C94.1402 439.234 93.9639 439.057 93.4703 438.952C91.6723 438.669 87.1243 440.045 80.2494 445.122C73.868 449.847 72.9514 459.615 72.9514 459.685L72.9866 460.108L72.7046 460.531C64.0316 474.178 46.0511 473.085 45.3108 473.014L45.5928 468.959C45.7338 468.959 61.5637 469.876 69.038 458.733C69.32 456.371 70.8713 446.921 77.9225 441.737C81.9064 438.775 89.3454 433.944 94.2812 434.861C95.762 435.143 96.9607 435.884 97.7363 437.083C99.6401 440.009 100.239 443.923 99.5343 447.203C101.262 447.026 103.236 447.132 104.964 448.014C106.691 448.895 107.855 450.482 108.384 452.527C109.441 456.864 108.595 459.897 107.678 461.73C109.723 463.317 112.579 466.455 111.874 471.286C111.169 476.152 107.714 477.527 105.211 478.55C104.082 479.008 102.989 479.432 102.425 480.066C101.755 480.842 100.557 482.746 99.2876 484.756C95.3389 491.068 92.3069 495.617 89.3101 496.71C86.5602 497.697 84.1628 497.45 82.541 496.956C79.3327 499.425 68.6854 506.724 56.1343 506.724Z" fill="black"/>
<path d="M104.823 462.436C100.099 464.41 95.7973 466.526 91.3198 469.065C93.8582 464.445 99.605 461.625 104.823 462.436Z" fill="black"/>
<path d="M86.8775 494.629C83.4224 496.005 79.6148 493.818 76.5123 492.478C75.4899 492.02 74.4322 491.667 73.1982 491.385C74.3264 490.821 75.6662 490.786 76.9001 490.962C80.602 491.526 83.3167 493.713 86.8775 494.629Z" fill="black"/>
<path d="M96.8197 448.966C93.2236 452.421 89.9448 455.771 86.5955 459.509C87.4416 454.396 91.7428 449.953 96.8197 448.966Z" fill="black"/>
<path d="M56.6632 469.1C51.7274 470.44 46.7563 464.622 48.9069 459.968C50.0703 464.446 52.4325 467.231 56.6632 469.1Z" fill="black"/>
<path d="M43.4775 467.584C46.7916 470.123 51.1633 470.969 55.3588 470.793C59.5542 470.581 63.6087 469.417 67.6278 468.289C64.4901 472.344 59.801 475.165 54.7947 476.082C49.7883 476.999 44.3942 475.976 40.0225 473.331" fill="#DD6628"/>
<path opacity="0.17" d="M26.8368 450.341C26.6957 458.275 27.8592 466.35 31.138 473.578C34.4168 480.807 39.8815 487.189 47.0031 490.786C54.0896 494.347 62.8683 494.876 70.0252 491.42C68.5445 489.481 67.099 487.577 65.6183 485.638C69.8137 486.872 74.0092 488.141 78.3809 488.458C82.7526 488.776 87.2654 488.141 90.9673 485.849C94.5634 483.592 97.0665 479.996 99.3582 476.399C100.522 474.53 101.72 472.273 100.909 470.228C100.204 468.536 98.3005 467.619 96.4672 467.584C94.6339 467.548 92.8711 468.218 91.1788 468.853C93.3999 467.302 95.48 465.327 96.4319 462.788C97.3838 460.249 96.9608 457.041 94.8454 455.348C92.7301 453.655 88.9577 454.29 88.041 456.864C90.932 454.008 91.8839 449.107 89.557 445.792C87.2301 442.478 81.5539 441.913 79.1918 445.228C80.9898 443.077 82.7879 440.891 85.1148 439.339C87.4417 437.753 90.3326 436.871 93.0474 437.541C95.7621 438.211 98.0537 440.82 97.8422 443.606C97.7364 444.734 97.2781 445.863 97.7011 446.921C98.4062 448.684 100.839 448.684 102.566 449.424C104.788 450.376 106.057 452.88 106.233 455.313C106.409 457.746 105.704 460.144 104.999 462.471C108.031 461.907 110.605 465.362 110.217 468.395C109.829 471.427 107.502 473.86 104.999 475.694C102.531 477.492 99.746 479.008 97.7716 481.336C94.4929 485.25 93.7172 491.279 89.3455 493.959C87.5474 495.052 85.3616 495.405 83.3872 496.181C79.8617 497.556 77.0764 500.306 73.8329 502.281C68.474 505.56 61.9869 506.618 55.7113 506.124C49.471 505.631 43.407 503.621 37.6251 501.153C36.1796 500.518 34.7341 499.883 33.1476 499.707C31.5963 499.566 29.8688 499.989 28.8816 501.223C28.0002 502.351 27.8944 503.868 27.8592 505.313C27.8239 510.462 28.6701 515.61 30.2918 520.476C27.0835 510.99 23.9458 502.387 23.4522 492.231C23.2407 487.894 23.2407 483.91 24.7567 479.819C26.2022 475.87 25.356 472.274 25.215 468.113C25.0035 462.118 25.5675 456.124 26.8368 450.341Z" fill="#660000"/>
<path opacity="0.75" d="M73.7625 459.474C73.7625 459.474 75.3137 449.601 78.4867 446.921C81.6598 444.206 90.5795 438.952 92.0603 438.917C93.541 438.917 94.8455 440.503 94.6339 440.186C94.4224 439.869 93.4 439.728 91.0026 440.644C88.6052 441.561 80.32 445.722 78.2752 449.389C76.2304 453.056 73.7625 459.721 73.7625 459.721" fill="#DD6628"/>
<path opacity="0.75" d="M87.4065 460.144C88.3584 457.217 90.8968 454.855 93.8936 454.114L87.4065 460.144Z" fill="#DD6628"/>
<path opacity="0.17" d="M35.4392 461.166C37.0962 461.766 38.3302 463.106 39.8462 464.022C41.3269 464.939 43.4776 465.327 44.7115 464.093C45.6282 463.176 45.7339 461.766 45.7692 460.461C45.9102 456.582 46.016 452.703 46.157 448.825C45.2051 453.197 46.7916 458.028 50.1762 460.955C53.5607 463.881 58.5671 464.763 62.7625 463.176C66.958 461.589 70.0958 457.57 70.6599 453.127C72.7752 462.33 64.4548 467.125 56.8395 468.853C53.0319 469.735 48.8717 469.453 45.2051 468.218C43.1603 467.513 41.2212 466.526 39.4936 465.257C38.3302 464.41 36.6379 461.625 35.4392 461.166Z" fill="#660000"/>
<path opacity="0.17" d="M77.6051 361.447C64.3489 371.814 53.7016 385.496 46.8972 400.87C50.9164 393.853 55.9932 387.435 61.9162 381.934C63.538 380.453 65.3361 378.937 67.4867 378.549C72.211 377.703 76.0186 382.075 79.0506 385.813C90.3678 399.847 105.493 410.778 122.38 417.125C131.265 420.475 141.066 422.555 150.197 420.016C161.408 416.878 169.553 407.499 177.168 398.719C184.783 389.939 193.456 380.806 204.879 378.62C197.898 373.965 191.799 368.006 186.969 361.13C181.575 375.235 171.844 387.682 159.434 396.286C154.921 399.424 149.739 402.139 144.274 401.751C139.373 401.398 135.037 398.648 131.194 395.58C118.925 385.813 109.864 372.096 105.634 357.004" fill="#660000"/>
<path d="M75.3135 314.162C75.3135 314.162 48.4132 295.544 55.6407 260.846C58.7432 266.03 91.3549 261.869 101.72 285.177C101.72 285.177 143.639 268.604 165.886 287.504C165.886 287.504 178.296 263.949 193.315 260.846C208.334 257.743 215.562 253.089 215.562 253.089C215.562 253.089 225.398 292.441 192.257 314.162C192.257 314.162 204.808 388.175 135.636 408.874C123.438 410.46 69.6373 386.13 75.3135 314.162Z" fill="#DD6628"/>
<path d="M134.649 410.954C127.316 410.954 113.143 405.736 99.8868 393.077C86.0665 379.889 70.3071 355.735 73.1981 315.114C68.368 311.27 47.0029 292.229 53.6663 260.459L54.724 255.381L57.4034 259.824C58.038 260.705 62.7623 261.552 66.2174 262.151C77.0057 264.091 94.7747 267.264 102.743 282.638C110.922 279.747 144.521 269.203 165.286 284.436C168.812 278.407 179.741 261.587 192.927 258.837C207.312 255.875 214.433 251.396 214.504 251.361L216.866 249.845L217.536 252.595C217.642 252.983 227.125 292.723 194.443 315.149C195.712 325.34 201.177 391.419 136.236 410.848C135.777 410.919 135.248 410.954 134.649 410.954ZM57.0861 264.232C52.256 295.332 76.1948 312.328 76.4769 312.504L77.4288 313.174L77.323 314.338C74.1852 354.007 89.3805 377.456 102.672 390.15C116.351 403.197 130.736 407.499 135.389 406.899C201.671 387.012 190.741 317.476 190.248 314.514L190.036 313.21L191.129 312.469C218.17 294.697 215.597 265.148 214.081 256.192C210.731 257.849 203.997 260.705 193.667 262.856C179.777 265.713 167.754 288.245 167.613 288.491L166.45 290.713L164.511 289.091C143.428 271.178 102.813 286.94 102.39 287.116L100.592 287.821L99.8163 286.058C93.1882 271.143 76.4769 268.146 65.4418 266.206C61.9867 265.501 59.1309 265.007 57.0861 264.232Z" fill="black"/>
<path d="M81.7652 303.76C82.4704 301.644 83.7396 299.705 85.4671 298.224C85.044 299.281 84.621 300.339 84.1979 301.397C85.2556 299.105 87.0536 297.131 89.2395 295.826C88.3228 296.355 80.8486 279.676 76.3711 284.26C72.3872 288.28 79.6851 300.092 81.7652 303.76Z" fill="#EB7A8B"/>
<path d="M199.696 274.21C199.591 274.14 199.485 274.034 199.379 273.964C194.267 277.631 189.684 282.038 185.841 287.116C183.831 289.761 180.799 292.546 180.552 296.073C180.447 297.589 184.818 309.401 185.665 308.696C190.918 303.971 195.924 298.435 197.511 291.559C198.533 287.116 198.11 282.462 199.097 278.019C199.379 276.82 199.802 275.656 200.366 274.528C200.119 274.387 199.908 274.281 199.696 274.21Z" fill="#EB7A8B"/>
<path d="M125.201 389.304C125.236 389.48 127.351 396.003 128.303 397.731C129.255 399.459 129.572 399.706 129.572 399.706C129.572 399.706 134.05 399.67 134.05 399.494C134.05 399.318 134.191 398.154 134.191 398.154L134.72 399.283C134.72 399.283 138.422 399.635 139.056 399.459C139.691 399.283 142.335 389.48 142.088 389.339C141.841 389.198 138.386 388.775 136.941 387.928C135.495 387.082 134.05 386.447 133.592 386.306C133.133 386.201 131.582 387.117 131.582 387.117C131.582 387.117 127.457 388.88 127.281 388.739" fill="white"/>
<path d="M129.431 400.235L129.29 400.094C129.149 399.988 128.762 399.6 127.88 397.943C126.893 396.144 124.778 389.621 124.742 389.409L125.73 389.163C125.8 389.409 127.88 395.792 128.797 397.449C129.361 398.507 129.714 398.965 129.855 399.177C131.371 399.177 132.992 399.106 133.662 399.071C133.697 398.648 133.768 398.084 133.768 398.084L133.944 396.321L135.108 398.789C136.624 398.93 138.351 399.036 138.88 398.965C139.515 397.978 141.383 391.349 141.63 389.691C141.454 389.656 141.242 389.621 141.031 389.586C139.761 389.339 137.787 388.986 136.729 388.316C135.319 387.47 133.909 386.871 133.521 386.765C133.345 386.765 132.569 387.117 131.899 387.505C127.457 389.409 127.281 389.304 127.034 389.092L127.351 388.669V388.175C127.669 388.14 129.714 387.329 131.476 386.588C132.217 386.165 133.274 385.636 133.803 385.777C134.332 385.918 135.813 386.553 137.258 387.435C138.175 387.999 140.079 388.352 141.207 388.563C142.018 388.704 142.265 388.775 142.406 388.88C142.723 389.092 142.652 389.48 142.582 389.868C142.582 389.974 140.396 399.635 139.233 399.952C138.527 400.129 135.601 399.882 134.72 399.811H134.579C134.438 400.129 133.662 400.235 129.608 400.27L129.431 400.235Z" fill="black"/>
<path d="M61.9868 277.102C73.9738 273.928 88.0057 283.731 89.1339 296.108C82.1179 286.235 73.6918 280.275 61.9868 277.102Z" fill="black"/>
<path d="M180.623 296.425C182.456 283.061 194.443 271.213 207.841 269.591C196.523 276.89 188.062 285.212 180.623 296.425Z" fill="black"/>
<path d="M150.126 300.163C160.104 297.906 171.315 307.25 170.857 317.476C165.287 309.26 159.222 304.183 150.126 300.163Z" fill="black"/>
<path d="M92.2012 317.97C94.2813 309.331 103.166 302.984 112.015 303.054C113.284 303.16 115.118 303.795 115.223 305.24C114.271 304.359 113.178 304.712 112.227 305.029C104.611 308.167 98.6177 312.469 92.2012 317.97Z" fill="black"/>
<path d="M76.3711 281.792C77.323 289.232 79.2269 296.284 82.1178 303.195C76.7589 297.73 74.5026 289.232 76.3711 281.792Z" fill="black"/>
<path d="M197.405 275.586C201.177 280.593 200.719 288.456 196.382 293.005C198.039 287.222 198.392 281.474 197.405 275.586Z" fill="black"/>
<path d="M131.653 334.684C131.653 345.58 122.803 354.43 111.909 354.43C101.015 354.43 93.2942 345.58 93.2942 334.684C93.2942 323.788 101.015 314.938 111.909 314.938C122.839 314.938 131.653 323.788 131.653 334.684Z" fill="white"/>
<path d="M111.944 355.418C100.733 355.418 92.3069 346.496 92.3069 334.684C92.3069 322.871 100.733 313.95 111.944 313.95C123.367 313.95 132.675 323.259 132.675 334.684C132.675 346.109 123.367 355.418 111.944 355.418ZM111.944 315.96C101.897 315.96 94.3517 324 94.3517 334.684C94.3517 345.368 101.932 353.408 111.944 353.408C122.274 353.408 130.665 345.015 130.665 334.684C130.63 324.352 122.239 315.96 111.944 315.96Z" fill="black"/>
<path d="M174.806 332.744C174.806 343.64 166.944 352.491 156.049 352.491C145.155 352.491 136.306 343.64 136.306 332.744C136.306 321.849 145.155 312.998 156.049 312.998C166.944 312.998 174.806 321.849 174.806 332.744Z" fill="white"/>
<path d="M156.05 353.478C144.627 353.478 135.319 344.169 135.319 332.744C135.319 321.32 144.627 312.011 156.05 312.011C167.331 312.011 175.828 320.932 175.828 332.744C175.828 344.557 167.331 353.478 156.05 353.478ZM156.05 314.021C145.72 314.021 137.329 322.413 137.329 332.744C137.329 343.076 145.72 351.468 156.05 351.468C166.168 351.468 173.819 343.429 173.819 332.744C173.819 322.06 166.168 314.021 156.05 314.021Z" fill="black"/>
<path d="M121.111 367.477C120.864 368.006 127.316 376.927 132.075 377.174C136.8 377.421 141.947 369.028 143.005 366.172C144.062 363.316 126.822 355.982 121.111 367.477Z" fill="#70574B"/>
<path d="M132.287 378.196C132.181 378.196 132.111 378.196 132.005 378.196C126.999 377.914 121.358 370.121 120.512 368.676C120.194 368.112 119.912 367.583 120.194 367.018C123.967 359.367 132.886 358.944 139.55 361.8C142.829 363.21 144.486 364.973 143.922 366.525C143.04 369.064 137.858 378.196 132.287 378.196ZM122.204 367.583C123.121 369.346 128.55 375.975 132.111 376.186C132.181 376.186 132.217 376.186 132.287 376.186C136.201 376.186 141.031 368.57 142.018 365.855C141.877 365.22 138.633 363.034 134.085 362.399C130.877 361.976 125.165 362.082 122.204 367.583Z" fill="black"/>
<path d="M111.803 382.745C116.598 388.598 127.598 390.115 133.063 384.579C136.377 387.117 140.96 388.069 145.014 386.835C148.857 385.636 152.383 383.168 155.556 380.418C152.982 383.768 149.668 386.694 145.543 388.352C141.277 390.009 136.377 389.304 132.604 386.73L133.979 386.588C127.527 392.16 115.822 390.044 111.803 382.745Z" fill="black"/>
<path d="M130.524 377.209C132.604 379.995 132.992 383.944 131.476 387.047C131.934 386.483 132.675 386.13 133.38 386.13C134.085 386.13 134.825 386.483 135.284 387.082C134.332 386.024 133.944 384.508 133.873 383.098C133.768 380.418 134.72 377.738 136.447 375.728C135.389 376.292 134.12 377.315 132.922 377.209" fill="black"/>
<path d="M153.441 382.357C153.687 381.969 154.075 381.722 154.428 381.44C154.78 381.158 155.098 380.735 155.027 380.277C154.992 379.889 154.674 379.572 154.357 379.325C154.04 379.078 153.687 378.902 153.441 378.584C154.428 379.007 155.697 378.972 156.367 379.818C156.755 380.277 156.86 380.947 156.79 381.511C156.719 382.11 156.473 382.675 156.261 383.239C156.12 382.745 155.944 382.216 155.803 381.722C155.732 381.546 155.697 381.37 155.521 381.264C155.309 381.158 155.062 381.299 154.851 381.44C153.793 382.146 152.735 382.851 151.678 383.556" fill="black"/>
<path d="M113.425 384.508C113.178 384.297 112.967 384.05 112.791 383.803C112.614 383.521 112.544 383.168 112.65 382.886C112.755 382.604 112.967 382.392 113.214 382.251C113.461 382.11 113.743 382.04 114.025 381.969C113.461 382.04 112.896 381.934 112.332 381.934C111.768 381.934 111.134 382.11 110.852 382.569C110.57 382.992 110.605 383.556 110.746 384.05C110.887 384.543 111.063 385.037 111.028 385.531C111.063 385.037 111.134 384.579 111.239 384.12C111.275 383.979 111.345 383.803 111.451 383.732C111.627 383.627 111.874 383.732 112.05 383.838C112.826 384.297 113.496 384.896 114.06 385.601" fill="black"/>
<path d="M123.156 367.583C127.422 368.676 131.899 368.887 136.236 368.253L123.156 367.583Z" fill="black"/>
<path d="M130.736 402.985C133.451 403.408 135.777 403.302 138.422 402.668C136.447 404.642 132.851 404.783 130.736 402.985Z" fill="black"/>
<path d="M149.386 342.406C152.054 342.406 154.216 340.243 154.216 337.575C154.216 334.907 152.054 332.744 149.386 332.744C146.719 332.744 144.556 334.907 144.556 337.575C144.556 340.243 146.719 342.406 149.386 342.406Z" fill="black"/>
<path d="M118.996 342.406C121.663 342.406 123.826 340.243 123.826 337.575C123.826 334.907 121.663 332.744 118.996 332.744C116.328 332.744 114.166 334.907 114.166 337.575C114.166 340.243 116.328 342.406 118.996 342.406Z" fill="black"/>
<path opacity="0.49" d="M142.617 366.208C140.819 369.98 138.527 373.471 135.742 376.574C134.931 377.491 133.979 378.408 132.781 378.443C131.688 378.478 130.736 377.844 129.89 377.139C127.633 375.305 116.175 368.006 122.486 367.336C125.095 367.054 131.37 368.782 134.05 368.535C137.011 368.288 139.938 367.512 142.617 366.208Z" fill="black"/>
<path opacity="0.17" d="M180.94 295.614C183.479 290.748 188.203 287.046 193.562 285.776C192.328 293.851 189.402 301.644 185.03 308.52C176.921 292.37 160.457 280.769 142.547 278.548C149.668 282.991 156.437 288.033 162.748 293.569C164.969 295.544 167.191 297.589 168.671 300.198C170.152 302.772 170.822 305.981 169.799 308.767C163.912 304.782 157.53 301.574 150.797 299.246C156.825 301.256 162.043 305.593 165.146 311.165C156.79 308.873 147.271 311.835 141.665 318.393C147.165 315.008 154.569 315.008 160.069 318.428C165.569 321.849 168.812 328.513 168.178 334.931C167.473 341.877 162.784 347.66 158.271 352.985C160.316 351.222 163.03 350.869 165.569 349.952C168.107 349.035 170.681 347.731 172.655 349.6C174.841 351.68 175.017 355.065 174.771 358.062C173.184 376.01 161.832 391.878 147.906 403.303C164.123 395.439 177.626 382.075 185.665 365.926C193.703 349.776 196.241 330.982 192.751 313.28C210.485 301.644 219.687 278.372 214.716 257.744C215.526 261.093 209.11 266.7 206.853 268.357C203.293 271.037 198.745 272.166 195.325 275.022C192.998 276.961 191.623 279.747 189.86 282.18C186.652 286.552 183.479 290.819 180.94 295.614Z" fill="#660000"/>
<path opacity="0.23" d="M121.534 385.319C124.566 385.108 127.492 382.992 128.233 380.065C128.973 377.139 127.069 373.648 124.108 373.048C126.258 375.587 129.643 376.998 132.957 376.786C136.271 376.539 139.409 374.67 141.172 371.849C138.598 374.423 135.813 377.809 136.87 381.299C137.858 384.508 141.806 385.954 145.085 385.284C148.364 384.614 150.691 383.556 153.229 381.405C154.851 379.325 152.771 378.69 151.607 377.985C155.239 378.091 159.293 379.924 157.037 385.002C157.425 384.085 156.367 383.098 155.344 383.133C154.357 383.168 153.511 383.874 152.736 384.508C147.941 388.599 143.569 392.865 139.268 397.802C140.784 396.744 139.444 393.147 138.034 391.984C136.588 390.785 134.614 390.608 132.745 390.538C131.053 390.467 129.995 390.185 128.691 391.278C127.387 392.407 126.505 396.391 128.127 396.885C125.483 396.074 122.415 391.772 120.124 390.15C117.339 388.211 114.553 385.919 111.592 384.297C111.31 385.319 111.698 385.213 111.31 386.307C109.653 384.332 109.829 380.277 114.976 381.158C114.553 381.405 113.954 382.04 113.601 382.357C115.258 384.649 118.714 385.531 121.534 385.319Z" fill="#660000"/>
<path opacity="0.17" d="M115.223 317.547C117.127 317.194 119.101 317.159 121.04 317.265C118.291 315.819 115.259 314.938 111.944 314.938C101.05 314.938 93.3293 323.788 93.3293 334.684C93.3293 345.58 101.05 354.43 111.944 354.43C114.342 354.43 116.634 353.937 118.749 353.161C118.784 353.055 118.855 352.949 118.855 352.843C118.89 351.927 118.008 351.221 117.127 351.045C116.246 350.869 115.329 351.116 114.412 351.221C108.666 352.068 102.672 348.647 100.028 343.464C97.3838 338.281 97.9479 331.757 101.015 326.821C104.118 321.849 109.512 318.569 115.223 317.547Z" fill="black"/>
<path opacity="0.17" d="M64.9834 277.172C63.679 276.749 61.9867 276.467 61.2463 277.596C60.6117 278.512 61.07 279.711 61.5636 280.699C65.9706 289.655 71.8583 297.836 78.9095 304.888C79.4384 305.417 80.0025 305.946 80.7428 306.052C81.6595 306.193 82.5409 305.593 83.2108 304.994C86.7363 301.785 88.2523 296.566 86.9831 291.982C84.4095 282.673 72.916 279.711 64.9834 277.172Z" fill="black"/>
<path opacity="0.47" d="M194.69 264.02C200.648 262.01 207.135 261.375 212.494 258.096C209.356 261.799 206.183 265.466 203.046 269.168C203.433 268.322 203.856 267.44 204.244 266.594C193.456 266.418 183.302 272.553 176.322 280.769C174.77 282.603 173.29 284.613 172.867 286.975C172.443 289.232 173.184 291.912 175.299 293.075C172.69 290.96 170.011 288.562 171.104 285.036C172.091 281.898 174.841 278.618 176.956 276.15C181.61 270.614 187.815 266.347 194.69 264.02Z" fill="#DD6628"/>
<path opacity="0.47" d="M96.0439 285.776C92.6594 276.961 84.5858 270.12 75.384 268.216C69.7078 267.052 63.679 267.617 58.2144 265.677C59.9419 266.277 61.2816 267.969 62.9739 268.604C64.4899 269.168 66.1117 269.098 67.7334 269.309C71.4353 269.768 75.0667 270.755 78.5218 272.201C85.4319 275.092 91.5664 279.782 96.0439 285.776Z" fill="#DD6628"/>
<path opacity="0.47" d="M119.384 283.59C124.989 282.709 131.088 283.026 135.777 286.235C123.473 286.481 111.239 290.113 100.804 296.602C100.063 297.06 99.0056 297.518 98.4062 296.884C97.9832 296.46 98.0889 295.755 98.23 295.191C100.804 285.812 111.098 284.895 119.384 283.59Z" fill="#DD6628"/>
<path opacity="0.75" d="M95.3387 380.982C90.0504 373.083 85.3261 365.396 82.1883 356.369C79.4031 348.4 76.0538 337.61 77.2172 329.077C80.0729 330.029 79.4031 337.716 79.7556 340.255C80.4607 345.086 81.5184 349.881 82.9287 354.536C85.7139 363.915 89.9093 372.872 95.3387 380.982Z" fill="#DD6628"/>
<path opacity="0.75" d="M126.646 365.326C127.915 364.867 129.29 364.762 130.595 365.008C131.194 365.114 131.899 365.467 131.899 366.066C131.899 366.666 131.265 366.983 130.665 367.124C129.749 367.371 128.797 367.406 127.845 367.3C127.386 367.23 126.928 367.124 126.54 366.877C126.152 366.631 125.906 366.137 126.047 365.678C126.152 365.22 126.717 364.903 127.104 365.15" fill="#DD6628"/>
<path d="M160.139 285.529C165.604 289.338 170.293 294.31 173.854 299.951C172.232 293.322 168.354 287.257 163.03 283.026" fill="black"/>
<path d="M101.473 283.132C96.5376 286.481 92.589 291.242 90.2268 296.707C95.9383 290.572 103.271 285.917 111.239 283.308" fill="black"/>
</g>
<defs>
<clipPath id="clip0_501_48">
<rect width="948" height="600" fill="white"/>
</clipPath>
</defs>
</svg>
