<svg width="1787" height="600" viewBox="0 0 1787 600" fill="none" xmlns="http://www.w3.org/2000/svg">
<g clip-path="url(#clip0_501_48)">
<path d="M671 600.085H413C412.735 600.085 412.48 599.98 412.293 599.792C412.105 599.605 412 599.35 412 599.085C412 598.82 412.105 598.565 412.293 598.378C412.48 598.19 412.735 598.085 413 598.085H671C671.265 598.085 671.52 598.19 671.707 598.378C671.895 598.565 672 598.82 672 599.085C672 599.35 671.895 599.605 671.707 599.792C671.52 599.98 671.265 600.085 671 600.085Z" fill="#CCCCCC"/>
<path d="M1322.12 434.548H681.283C676.909 434.543 672.715 432.803 669.621 429.71C666.528 426.616 664.788 422.422 664.783 418.048V22.894C664.787 19.6892 666.061 16.6166 668.328 14.3504C670.594 12.0842 673.666 10.8094 676.871 10.8057H1326.32C1329.58 10.8094 1332.71 12.1062 1335.02 14.4116C1337.32 16.717 1338.62 19.8427 1338.62 23.103V418.048C1338.62 422.422 1336.88 426.616 1333.78 429.71C1330.69 432.803 1326.5 434.543 1322.12 434.548Z" fill="#F2F2F2"/>
<path d="M1301.4 413.716H704.157C695.402 413.716 688.28 407.046 688.28 398.847V54.7424C688.28 48.6624 693.558 43.7156 700.045 43.7156H1305.32C1311.91 43.7156 1317.28 48.7439 1317.28 54.9241V398.847C1317.28 407.046 1310.16 413.716 1301.4 413.716Z" fill="white"/>
<path d="M1338.39 24.9502H664.552V16.5498C664.558 12.1607 666.305 7.95333 669.409 4.85072C672.514 1.74811 676.722 0.00363937 681.112 0H1321.83C1326.22 0.00360236 1330.43 1.74806 1333.53 4.85068C1336.64 7.95329 1338.39 12.1607 1338.39 16.5498V24.9502Z" fill="#3F3D56"/>
<path d="M694.647 16.7834C697.013 16.7834 698.93 14.8656 698.93 12.5C698.93 10.1343 697.013 8.21655 694.647 8.21655C692.281 8.21655 690.364 10.1343 690.364 12.5C690.364 14.8656 692.281 16.7834 694.647 16.7834Z" fill="white"/>
<path d="M710.906 16.7834C713.271 16.7834 715.189 14.8656 715.189 12.5C715.189 10.1343 713.271 8.21655 710.906 8.21655C708.54 8.21655 706.622 10.1343 706.622 12.5C706.622 14.8656 708.54 16.7834 710.906 16.7834Z" fill="white"/>
<path d="M727.165 16.7834C729.53 16.7834 731.448 14.8656 731.448 12.5C731.448 10.1343 729.53 8.21655 727.165 8.21655C724.799 8.21655 722.881 10.1343 722.881 12.5C722.881 14.8656 724.799 16.7834 727.165 16.7834Z" fill="white"/>
<path d="M988.611 118.955H871.802C870.061 118.955 868.391 118.263 867.159 117.031C865.928 115.8 865.236 114.13 865.236 112.388C865.236 110.647 865.928 108.977 867.159 107.745C868.391 106.514 870.061 105.822 871.802 105.822H988.611C990.352 105.822 992.022 106.514 993.254 107.745C994.485 108.977 995.177 110.647 995.177 112.388C995.177 114.13 994.485 115.8 993.254 117.031C992.022 118.263 990.352 118.955 988.611 118.955Z" fill="#CCCCCC"/>
<path d="M1133.76 118.955H1016.95C1015.21 118.955 1013.54 118.263 1012.31 117.031C1011.07 115.8 1010.38 114.13 1010.38 112.388C1010.38 110.647 1011.07 108.977 1012.31 107.745C1013.54 106.514 1015.21 105.822 1016.95 105.822H1133.76C1135.5 105.822 1137.17 106.514 1138.4 107.745C1139.63 108.977 1140.32 110.647 1140.32 112.388C1140.32 114.13 1139.63 115.8 1138.4 117.031C1137.17 118.263 1135.5 118.955 1133.76 118.955Z" fill="#CCCCCC"/>
<path d="M1133.76 143.837H930.552C928.811 143.837 927.14 143.145 925.909 141.913C924.678 140.682 923.986 139.012 923.986 137.27C923.986 135.529 924.678 133.859 925.909 132.628C927.14 131.396 928.811 130.704 930.552 130.704H1133.76C1135.5 130.704 1137.17 131.396 1138.4 132.628C1139.63 133.859 1140.32 135.529 1140.32 137.27C1140.32 139.012 1139.63 140.682 1138.4 141.913C1137.17 143.145 1135.5 143.837 1133.76 143.837Z" fill="#CCCCCC"/>
<path d="M988.611 93.7268H871.802C870.062 93.7246 868.394 93.0319 867.165 91.8007C865.935 90.5696 865.244 88.9007 865.244 87.1606C865.244 85.4206 865.935 83.7517 867.165 82.5205C868.394 81.2894 870.062 80.5966 871.802 80.5945H988.611C989.474 80.5934 990.328 80.7625 991.126 81.092C991.923 81.4215 992.648 81.905 993.259 82.5148C993.869 83.1246 994.354 83.8488 994.684 84.646C995.015 85.4432 995.185 86.2977 995.185 87.1606C995.185 88.0236 995.015 88.8781 994.684 89.6752C994.354 90.4724 993.869 91.1966 993.259 91.8064C992.648 92.4163 991.923 92.8998 991.126 93.2293C990.328 93.5588 989.474 93.7278 988.611 93.7268Z" fill="#CCCCCC"/>
<path d="M1052.89 94.0722H1019.71C1017.97 94.0722 1016.3 93.3804 1015.07 92.149C1013.84 90.9176 1013.15 89.2475 1013.15 87.5061C1013.15 85.7646 1013.84 84.0945 1015.07 82.8631C1016.3 81.6317 1017.97 80.9399 1019.71 80.9399H1052.89C1054.63 80.9399 1056.3 81.6317 1057.53 82.8631C1058.76 84.0945 1059.46 85.7646 1059.46 87.5061C1059.46 89.2475 1058.76 90.9176 1057.53 92.149C1056.3 93.3804 1054.63 94.0722 1052.89 94.0722Z" fill="#CCCCCC"/>
<path d="M904.979 143.837H871.802C870.062 143.834 868.394 143.142 867.165 141.911C865.935 140.679 865.244 139.011 865.244 137.27C865.244 135.53 865.935 133.862 867.165 132.63C868.394 131.399 870.062 130.706 871.802 130.704H904.979C905.842 130.703 906.696 130.872 907.494 131.202C908.292 131.531 909.016 132.015 909.627 132.625C910.237 133.234 910.722 133.959 911.052 134.756C911.383 135.553 911.553 136.408 911.553 137.27C911.553 138.133 911.383 138.988 911.052 139.785C910.722 140.582 910.237 141.306 909.627 141.916C909.016 142.526 908.292 143.01 907.494 143.339C906.696 143.669 905.842 143.838 904.979 143.837Z" fill="#CCCCCC"/>
<path d="M988.611 351.955H871.802C870.061 351.955 868.391 351.263 867.159 350.031C865.928 348.8 865.236 347.13 865.236 345.388C865.236 343.647 865.928 341.977 867.159 340.745C868.391 339.514 870.061 338.822 871.802 338.822H988.611C989.473 338.822 990.327 338.992 991.123 339.322C991.92 339.652 992.644 340.136 993.254 340.745C993.863 341.355 994.347 342.079 994.677 342.876C995.007 343.672 995.177 344.526 995.177 345.388C995.177 346.251 995.007 347.105 994.677 347.901C994.347 348.698 993.863 349.422 993.254 350.031C992.644 350.641 991.92 351.125 991.123 351.455C990.327 351.785 989.473 351.955 988.611 351.955Z" fill="#CCCCCC"/>
<path d="M1133.76 351.955H1016.95C1015.21 351.955 1013.54 351.263 1012.31 350.031C1011.07 348.8 1010.38 347.13 1010.38 345.388C1010.38 343.647 1011.07 341.977 1012.31 340.745C1013.54 339.514 1015.21 338.822 1016.95 338.822H1133.76C1134.62 338.822 1135.47 338.992 1136.27 339.322C1137.07 339.652 1137.79 340.136 1138.4 340.745C1139.01 341.355 1139.49 342.079 1139.82 342.876C1140.15 343.672 1140.32 344.526 1140.32 345.388C1140.32 346.251 1140.15 347.105 1139.82 347.901C1139.49 348.698 1139.01 349.422 1138.4 350.031C1137.79 350.641 1137.07 351.125 1136.27 351.455C1135.47 351.785 1134.62 351.955 1133.76 351.955Z" fill="#CCCCCC"/>
<path d="M1133.76 376.837H930.552C928.811 376.837 927.14 376.145 925.909 374.913C924.678 373.682 923.986 372.012 923.986 370.27C923.986 368.529 924.678 366.859 925.909 365.628C927.14 364.396 928.811 363.704 930.552 363.704H1133.76C1134.62 363.703 1135.47 363.872 1136.27 364.202C1137.07 364.531 1137.79 365.015 1138.4 365.625C1139.02 366.234 1139.5 366.959 1139.83 367.756C1140.16 368.553 1140.33 369.407 1140.33 370.27C1140.33 371.133 1140.16 371.988 1139.83 372.785C1139.5 373.582 1139.02 374.306 1138.4 374.916C1137.79 375.526 1137.07 376.01 1136.27 376.339C1135.47 376.669 1134.62 376.838 1133.76 376.837Z" fill="#CCCCCC"/>
<path d="M988.611 326.727H871.802C870.061 326.727 868.391 326.035 867.159 324.804C865.928 323.572 865.236 321.902 865.236 320.161C865.236 318.419 865.928 316.749 867.159 315.518C868.391 314.286 870.061 313.594 871.802 313.594H988.611C990.352 313.594 992.022 314.286 993.254 315.518C994.485 316.749 995.177 318.419 995.177 320.161C995.177 321.902 994.485 323.572 993.254 324.804C992.022 326.035 990.352 326.727 988.611 326.727Z" fill="#CCCCCC"/>
<path d="M1052.89 327.072H1019.71C1017.97 327.072 1016.3 326.38 1015.07 325.149C1013.84 323.918 1013.15 322.248 1013.15 320.506C1013.15 318.765 1013.84 317.095 1015.07 315.863C1016.3 314.632 1017.97 313.94 1019.71 313.94H1052.89C1054.63 313.94 1056.3 314.632 1057.53 315.863C1058.76 317.095 1059.46 318.765 1059.46 320.506C1059.46 322.248 1058.76 323.918 1057.53 325.149C1056.3 326.38 1054.63 327.072 1052.89 327.072Z" fill="#CCCCCC"/>
<path d="M904.979 376.837H871.802C870.061 376.837 868.391 376.145 867.159 374.913C865.928 373.682 865.236 372.012 865.236 370.27C865.236 368.529 865.928 366.859 867.159 365.628C868.391 364.396 870.061 363.704 871.802 363.704H904.979C905.842 363.703 906.696 363.872 907.494 364.202C908.292 364.531 909.016 365.015 909.627 365.625C910.237 366.234 910.722 366.959 911.052 367.756C911.383 368.553 911.553 369.407 911.553 370.27C911.553 371.133 911.383 371.988 911.052 372.785C910.722 373.582 910.237 374.306 909.627 374.916C909.016 375.526 908.292 376.01 907.494 376.339C906.696 376.669 905.842 376.838 904.979 376.837Z" fill="#CCCCCC"/>
<path d="M958.104 281.462C955.625 281.467 953.244 280.493 951.48 278.752L907.572 235.392C906.71 234.541 906.025 233.527 905.558 232.409C905.091 231.291 904.85 230.092 904.85 228.881C904.85 227.669 905.091 226.47 905.558 225.352C906.025 224.234 906.71 223.22 907.572 222.369L951.303 179.185C953.125 177.394 955.579 176.395 958.133 176.403C960.688 176.411 963.136 177.426 964.946 179.228C966.759 181.044 967.776 183.505 967.776 186.071C967.776 188.637 966.759 191.098 964.946 192.914L932.45 225.411C931.438 226.426 930.869 227.801 930.869 229.234C930.869 230.668 931.438 232.043 932.45 233.057L964.77 265.378C966.09 266.695 966.989 268.374 967.354 270.203C967.718 272.031 967.532 273.927 966.818 275.65C966.104 277.372 964.894 278.844 963.343 279.879C961.792 280.913 959.968 281.464 958.104 281.462Z" fill="#2FA4DA"/>
<path d="M1028.07 281.462C1026.2 281.464 1024.38 280.913 1022.83 279.879C1021.28 278.844 1020.07 277.372 1019.36 275.65C1018.64 273.927 1018.46 272.031 1018.82 270.203C1019.18 268.374 1020.08 266.695 1021.4 265.378L1053.72 233.057C1054.74 232.043 1055.3 230.668 1055.3 229.234C1055.3 227.801 1054.74 226.426 1053.72 225.411L1021.23 192.914C1020.33 192.016 1019.62 190.949 1019.13 189.774C1018.64 188.6 1018.39 187.342 1018.39 186.071C1018.39 184.8 1018.64 183.541 1019.13 182.367C1019.62 181.193 1020.33 180.126 1021.23 179.228C1023.04 177.426 1025.49 176.411 1028.04 176.403C1030.59 176.395 1033.05 177.394 1034.87 179.185L1078.6 222.369C1079.46 223.22 1080.15 224.234 1080.62 225.352C1081.08 226.47 1081.32 227.669 1081.32 228.881C1081.32 230.092 1081.08 231.292 1080.62 232.409C1080.15 233.527 1079.46 234.541 1078.6 235.392L1034.69 278.752C1032.93 280.493 1030.55 281.467 1028.07 281.462Z" fill="#2FA4DA"/>
<path d="M482.66 371.744C482.66 371.744 474.128 345.227 478.535 309.754C482.942 274.281 523.028 214.901 563.537 201.819C604.046 188.737 646.741 199.245 664.192 218.251C681.644 237.257 703.009 268.71 730.438 274.528C757.867 280.346 770.947 271.672 772.745 256.298C772.745 256.298 786.319 293.957 777.646 330.699C769.008 367.477 742.355 390.926 714.644 390.644C686.968 390.397 674.663 372.625 662.253 372.696C649.843 372.766 630.17 379.959 625.622 416.279C621.074 452.598 588.216 494.947 588.216 494.947L484.74 374.846L482.66 371.744Z" fill="#DD6628"/>
<path d="M588.322 498.191L483.189 376.187L480.721 372.378C480.368 371.285 472.083 345.015 476.49 309.507C481.179 271.989 522.781 212.856 562.902 199.915C604.998 186.339 648.221 197.87 665.673 216.911C669.093 220.613 672.583 224.739 676.32 229.111C691.833 247.341 709.39 268.04 730.861 272.589C745.281 275.656 756.457 274.704 763.191 269.873C767.492 266.806 770.031 262.151 770.736 256.086L771.723 247.553L774.649 255.628C775.213 257.179 788.328 294.274 779.62 331.193C771.053 367.477 744.576 392.689 715.102 392.689C714.926 392.689 714.785 392.689 714.608 392.689C697.58 392.548 686.298 386.024 677.237 380.806C671.385 377.421 666.766 374.776 662.289 374.776C662.253 374.776 662.253 374.776 662.218 374.776C653.369 374.811 632.286 379.007 627.597 416.596C623.049 453.056 591.142 494.524 589.802 496.287L588.322 498.191ZM484.528 370.862L486.432 373.718L588.145 491.773C594.562 483.028 619.77 447.027 623.648 416.067C628.725 375.305 652.346 370.756 662.253 370.686C662.289 370.686 662.324 370.686 662.324 370.686C667.859 370.686 673.147 373.753 679.282 377.28C687.92 382.251 698.708 388.457 714.679 388.634C714.82 388.634 714.961 388.634 715.137 388.634C742.707 388.634 767.598 364.691 775.707 330.276C781.982 303.689 776.306 276.291 772.922 263.879C771.335 267.687 768.867 270.79 765.553 273.188C757.762 278.795 745.81 279.923 730.015 276.573C707.205 271.742 689.154 250.515 673.218 231.756C669.516 227.419 666.026 223.293 662.676 219.661C646.071 201.572 604.68 190.712 564.136 203.794C525.319 216.311 485.022 273.646 480.509 310.036C476.455 342.794 483.682 368.076 484.528 370.862Z" fill="black"/>
<path opacity="0.17" d="M478.923 349.071C475.538 335.354 475.82 320.72 479.733 307.145C479.98 317.406 481.567 327.632 484.387 337.505C485.233 340.467 486.785 343.922 489.852 344.346C492.073 344.628 494.224 343.041 495.281 341.031C496.339 339.056 496.586 336.729 496.868 334.508C499.653 311.552 508.538 289.232 523.169 271.319C537.8 253.406 558.213 240.113 580.742 235C568.649 239.76 556.732 245.755 547.566 254.993C538.435 264.232 532.335 277.243 533.887 290.149C534.204 292.899 535.579 296.179 538.329 296.284C540.127 296.355 541.608 294.909 542.842 293.604C555.322 280.522 569.037 268.393 584.902 259.718C600.732 251.009 618.924 245.896 636.904 247.447C654.92 248.964 672.654 257.673 683.16 272.377C669.304 260.776 648.504 259.225 632.11 266.771C615.68 274.281 603.693 289.867 598.299 307.11C592.905 324.352 593.681 343.111 598.052 360.636C591.424 352.632 581.658 347.766 571.575 345.227C561.492 342.688 551.021 342.3 540.656 341.948" fill="#660000"/>
<path d="M777.681 330.735C786.354 293.992 772.781 256.333 772.781 256.333C770.983 271.742 757.903 280.417 730.474 274.563C721.166 272.589 712.599 267.652 704.596 261.27C705.442 272.236 711.012 282.744 719.685 289.514C715.173 292.582 710.625 295.614 706.112 298.682C708.862 297.941 711.823 297.906 714.573 298.541C711.118 302.279 708.298 306.616 706.288 311.306C710.413 312.258 714.75 312.187 718.839 311.129C716.83 320.086 710.307 327.914 701.881 331.475C706.676 331.616 711.33 334.19 714.009 338.21C711.788 337.646 709.426 337.752 707.275 338.563C712.141 342.406 715.842 347.731 717.782 353.584C709.602 353.161 701.352 354.712 693.843 358.062C697.122 360.495 700.365 362.928 703.644 365.361C701.705 365.185 699.731 365.044 697.791 364.868C699.731 367.018 701.705 369.169 703.644 371.32C701.74 370.897 699.872 370.509 697.968 370.086C700.048 373.683 702.833 376.856 706.147 379.395C701.599 381.017 696.769 381.828 691.939 381.722C697.086 385.425 702.798 388.246 708.791 390.291C710.66 390.503 712.599 390.644 714.644 390.644C742.355 390.926 769.008 367.477 777.681 330.735Z" fill="#FEF7D7"/>
<path d="M715.137 392.689C714.961 392.689 714.82 392.689 714.644 392.689C712.74 392.653 710.765 392.548 708.58 392.336L708.157 392.23C701.81 390.079 695.958 387.117 690.775 383.415L685.522 379.642L692.009 379.748C695.464 379.818 698.814 379.43 702.093 378.584C699.801 376.398 697.827 373.859 696.275 371.144L693.984 367.159L697.932 368.041L692.891 362.47L696.804 362.787L689.929 357.639L693.102 356.228C699.942 353.196 707.381 351.574 714.855 351.539C712.881 347.131 709.849 343.182 706.076 340.184L703.291 337.963L706.641 336.694C707.451 336.376 708.298 336.165 709.144 336.024C707.028 334.507 704.49 333.626 701.881 333.52L692.644 333.238L701.141 329.641C708.015 326.715 713.515 320.791 716.019 313.774C712.634 314.232 709.179 314.056 705.865 313.315L703.503 312.751L704.455 310.53C706.041 306.792 708.121 303.336 710.589 300.128C709.249 300.128 707.91 300.304 706.641 300.656L694.9 303.795L716.336 289.338C708.474 282.25 703.397 271.989 702.586 261.411L702.234 256.756L705.865 259.647C714.573 266.594 722.752 270.825 730.897 272.553C745.316 275.621 756.492 274.669 763.226 269.838C767.527 266.77 770.066 262.116 770.771 256.051L771.758 247.518L774.684 255.592C775.249 257.144 788.364 294.239 779.656 331.158C771.088 367.477 744.611 392.689 715.137 392.689ZM709.214 388.316C711.189 388.528 712.951 388.634 714.679 388.634C714.82 388.634 714.961 388.634 715.137 388.634C742.707 388.634 767.598 364.691 775.707 330.276C781.982 303.689 776.306 276.291 772.922 263.879C771.335 267.687 768.867 270.79 765.553 273.188C757.762 278.794 745.81 279.923 730.015 276.573C722.541 274.986 715.031 271.46 707.275 265.889C709.108 274.528 713.974 282.532 720.919 287.962L723.105 289.69L713.304 296.284C713.868 296.355 714.432 296.46 714.996 296.601L718.381 297.377L716.019 299.916C713.304 302.878 711.012 306.193 709.214 309.754C712.246 310.142 715.349 309.93 718.31 309.154L721.518 308.308L720.778 311.552C719.051 319.31 714.185 326.221 707.628 330.629C710.871 331.898 713.727 334.155 715.666 337.046L718.628 341.489L713.445 340.149C712.881 340.008 712.281 339.902 711.717 339.867C715.278 343.57 718.063 348.083 719.685 352.949L720.637 355.77L717.676 355.629C711.012 355.312 704.243 356.299 697.968 358.591L710.554 367.97L702.762 367.3L709.39 374.635L702.586 373.154C703.996 374.882 705.618 376.433 707.381 377.773L710.342 380.03L706.852 381.264C704.067 382.251 701.211 382.957 698.285 383.344C701.705 385.354 705.371 386.976 709.214 388.316Z" fill="black"/>
<path opacity="0.17" d="M768.021 302.878C762.063 319.521 750.076 334.966 733.329 340.714C741.932 339.973 750.322 337.258 757.726 332.85C751.486 344.874 737.207 351.01 723.634 351.257C716.512 351.398 709.426 350.199 702.551 348.365C696.487 346.743 689.718 345.192 684.535 341.63C679.458 338.104 673.042 336.87 666.872 336.376C661.936 335.989 652.029 335.319 647.763 338.351C658.34 330.84 670.644 325.798 683.442 323.718C669.586 321.919 655.237 321.884 641.946 326.221C628.654 330.523 616.491 339.691 610.85 352.456C614.411 339.303 618.007 326.151 621.568 312.998C609.687 326.856 601.543 343.887 598.229 361.835C598.405 361.341 598.616 360.883 598.793 360.389L610.78 429.149C614.587 430.066 618.43 430.736 622.238 431.3C623.754 426.258 624.882 421.251 625.517 416.314C630.029 379.995 649.702 372.801 662.147 372.731C674.558 372.66 686.862 390.397 714.538 390.679C742.214 390.926 768.867 367.512 777.54 330.77C783.886 303.865 778.316 276.538 774.861 263.773C774.12 277.067 772.534 290.36 768.021 302.878Z" fill="#660000"/>
<path d="M496.621 357.145C495.07 357.145 431.926 396.497 437.109 473.085C436.087 477.739 430.904 525.377 459.356 554.856C487.807 584.334 579.931 589.024 616.703 562.12C653.439 535.215 648.257 490.151 648.257 490.151C648.257 490.151 666.872 462.189 644.132 418.712C621.357 375.234 597.03 359.684 597.03 359.684C597.03 359.684 574.255 393.323 558.213 397.978C542.172 402.632 528.21 398.507 521.477 390.714C514.743 383.027 496.621 357.145 496.621 357.145Z" fill="#DD6628"/>
<path d="M544.463 582.113C509.631 582.113 474.234 573.192 457.91 556.302C430.446 527.846 433.266 481.759 435.064 472.979C432.103 427.456 452.692 395.192 470.496 376.116C482.519 363.245 494.717 355.1 496.621 355.1H497.679L498.278 355.982C498.454 356.228 516.4 381.863 522.993 389.48C528.739 396.109 541.713 400.728 557.649 396.109C572.809 391.701 595.126 358.944 595.338 358.626L596.431 357.004L598.088 358.062C599.11 358.697 623.119 374.388 645.895 417.83C667.365 458.839 653.016 486.167 650.302 490.715C650.76 496.745 652.523 538.389 617.866 563.812C600.979 576.154 572.915 582.113 544.463 582.113ZM496.022 359.79C487.349 365.361 434.394 402.915 439.154 472.944L439.189 473.226L439.119 473.508C439.013 473.966 431.644 523.156 460.872 553.445C488.83 582.43 579.931 586.591 615.539 560.462C650.936 534.545 646.353 490.821 646.282 490.363L646.212 489.622L646.635 488.988C646.811 488.705 664.263 461.413 642.404 419.628C623.507 383.521 603.305 366.772 597.594 362.505C592.623 369.557 573.444 395.686 558.848 399.917C543.3 404.431 528.069 401.328 519.996 392.054C514.073 385.354 500.006 365.467 496.022 359.79Z" fill="black"/>
<path d="M539.88 252.701C561.316 223.575 603.27 218.427 635.917 228.159C601.931 224.457 565.582 228.018 539.88 252.701Z" fill="black"/>
<path d="M529.198 274.563C534.486 261.622 545.45 250.903 558.495 245.896C546.861 253.371 536.954 263.068 529.198 274.563Z" fill="black"/>
<path d="M635.6 246.53C652.664 243.075 667.612 255.839 677.907 268.004C665.779 258.061 652.276 245.931 635.6 246.53Z" fill="black"/>
<path d="M641.558 380.418C649.808 370.862 664.439 367.124 676.25 371.638C663.981 370.086 651.571 373.224 641.558 380.418Z" fill="black"/>
<path d="M619.876 370.862C624.776 354.324 641.135 341.666 658.34 341.101C641.805 344.592 627.385 355.735 619.876 370.862Z" fill="black"/>
<path opacity="0.47" d="M542.489 219.062C559.764 208.307 579.896 202.136 600.273 201.361C581.059 206.156 562.232 212.997 545.309 223.223C532.582 230.91 520.948 240.571 511.57 252.102C510.441 253.512 507.127 259.648 505.188 258.837C502.826 257.849 507.691 252.349 508.573 251.114C512.768 245.155 517.563 239.584 522.781 234.506C528.774 228.688 535.403 223.505 542.489 219.062Z" fill="#DD6628"/>
<path opacity="0.75" d="M477.971 379.219C468.452 392.689 458.862 406.229 451.67 421.039C444.513 435.778 439.789 451.998 440.388 468.501C439.507 455.666 440.071 444.558 443.878 432.076C447.827 419.064 454.138 406.723 462.352 395.898C467.006 389.833 472.224 384.191 477.971 379.219Z" fill="#DD6628"/>
<path opacity="0.75" d="M455.583 420.087C456.359 420.228 457.064 419.593 457.558 418.959C459.638 416.314 460.872 412.964 460.977 409.579C461.118 404.748 455.583 407.816 454.526 410.461C453.821 412.259 453.115 419.629 455.583 420.087Z" fill="#DD6628"/>
<path opacity="0.75" d="M449.731 430.313C449.096 431.864 448.462 433.416 447.827 434.967Z" fill="#DD6628"/>
<path opacity="0.75" d="M461.259 566.598C460.977 567.374 461.048 568.29 461.436 569.031Z" fill="#DD6628"/>
<path opacity="0.75" d="M620.369 537.084C621.286 538.001 622.203 538.953 623.119 539.87Z" fill="#DD6628"/>
<path opacity="0.17" d="M543.3 577.317C543.688 567.62 539.633 558.206 533.816 550.413C527.999 542.655 520.56 536.308 513.156 530.067C520.912 538.53 532.124 543.643 543.582 543.995C555.04 544.313 566.533 539.835 574.748 531.865C567.873 537.93 561.316 544.665 557.191 552.881C553.101 561.097 551.691 571.041 555.287 579.504C549.752 579.504 544.216 580.315 538.928 581.901" fill="#660000"/>
<path d="M600.802 362.011C604.081 352.597 606.196 342.794 607.113 332.885C604.575 342.406 606.619 353.055 612.507 360.989C613.741 362.646 615.398 364.303 617.443 364.198C618.924 364.127 620.158 363.104 621.286 362.152C627.985 356.511 634.648 350.834 641.347 345.192C633.908 352.068 625.975 359.86 624.812 369.945C623.754 379.36 628.901 388.246 633.837 396.321C622.908 385.707 611.943 375.093 601.014 364.515C598.652 367.865 596.325 371.25 593.963 374.6C597.03 367.9 600.132 361.236 603.2 354.536" fill="black"/>
<path d="M554.405 407.604C553.947 407.498 553.489 407.393 553.031 407.287Z" fill="black"/>
<path d="M482.025 370.968C485.057 370.545 488.089 372.061 490.381 374.106C492.672 376.151 494.4 378.725 496.374 381.088C503.848 390.08 514.531 395.651 524.932 401.011C514.249 395.51 504.871 382.005 499.089 371.885C496.762 367.794 495.105 359.614 489.076 361.906C483.4 364.057 479.24 372.096 476.666 377.068C476.314 374.036 479.134 371.391 482.025 370.968Z" fill="black"/>
<path d="M532.97 544.948C537.06 551.506 541.149 558.065 545.239 564.588C545.909 565.681 546.861 566.88 548.13 566.739C549.54 566.563 550.104 564.87 550.457 563.53C551.761 558.453 554.37 553.728 557.931 549.884C550.457 557.994 551.902 572.169 556.098 581.231C549.117 578.34 544.922 585.78 543.3 577.353C541.431 567.621 538.012 553.446 532.97 544.948Z" fill="black"/>
<path d="M436.51 480.666C436.263 499.46 439.612 518.325 446.381 535.85C443.385 525.025 442.221 513.67 442.997 502.457C450.965 507.888 461.859 508.699 470.567 504.503C461.436 504.503 452.41 500.412 446.346 493.607C440.282 486.801 437.285 477.351 438.343 468.289C436.862 475.412 436.686 482.817 437.885 490.01" fill="black"/>
<path d="M629.501 495.793C624.917 495.194 620.405 494.206 615.998 492.831C621.039 494.7 625.975 496.816 630.77 499.213C632.251 499.954 633.767 500.765 634.824 502.034C636.481 504.044 636.728 506.865 636.728 509.474C636.763 518.537 634.824 527.564 631.792 536.132C628.831 534.722 625.869 533.346 622.908 531.936C627.738 534.475 630.558 539.658 633.097 544.489C637.856 539.552 640.571 533.029 643.074 526.611C645.366 520.723 647.622 514.799 648.927 508.593C649.491 505.878 649.878 503.127 650.019 500.377C650.09 498.543 650.654 494.982 649.314 493.501C648.221 492.267 646.318 492.69 644.978 493.254C642.686 494.171 640.853 495.476 638.35 495.899C635.424 496.428 632.427 496.181 629.501 495.793Z" fill="black"/>
<path opacity="0.47" d="M549.012 257.638C576.159 236.798 613.142 229.393 646.247 238.209C616.068 237.68 585.819 247.588 561.845 265.889C564.912 260.67 568.861 255.945 573.444 251.996C562.197 254.358 551.761 260.6 544.428 269.45C548.236 262.504 553.454 256.333 559.694 251.432" fill="#DD6628"/>
<path opacity="0.47" d="M651.641 268.287C669.445 271.002 686.58 278.195 700.929 289.091C696.205 292.159 691.445 295.226 686.721 298.294C689.788 297.236 692.82 296.178 695.887 295.121C687.144 303.195 676.426 309.19 664.968 312.363C671.314 308.449 678.4 303.336 678.647 295.896C678.788 291.136 675.862 286.728 672.09 283.837C668.317 280.945 663.769 279.323 659.292 277.772C661.583 277.208 663.875 276.679 666.167 276.115C656.542 275.409 646.811 276.22 637.433 278.548C645.436 274.069 654.955 272.306 664.016 273.646" fill="#DD6628"/>
<path opacity="0.47" d="M599.604 206.262C616.386 204.323 633.802 208.272 648.116 217.263C633.203 212.644 616.985 212.292 601.895 216.276C605.95 214.654 609.969 213.032 614.023 211.375C597.911 209.859 581.447 212.609 566.71 219.203C579.085 212.397 592.87 208.131 606.972 206.826" fill="#DD6628"/>
<path opacity="0.47" d="M660.455 227.101C664.369 229.781 668.282 232.461 672.196 235.141Z" fill="#DD6628"/>
<path opacity="0.47" d="M513.72 387.823C520.525 395.721 529.515 401.751 539.422 405.066Z" fill="#DD6628"/>
<path d="M483.189 591.281C483.189 591.281 467.993 599.215 458.157 585.428C448.32 571.64 456.747 537.119 485.233 530.385C513.72 523.65 540.973 547.451 542.701 568.008C544.428 588.531 523.028 604.927 506.986 595.442C506.986 595.442 500.076 597.699 492.849 595.794C485.621 593.89 483.189 591.281 483.189 591.281Z" fill="#DD6628"/>
<path d="M517.069 600.202C513.473 600.202 509.948 599.356 506.739 597.628C504.554 598.192 498.595 599.391 492.355 597.769C487.243 596.429 484.317 594.737 482.871 593.679C478.746 595.336 465.525 599.285 456.535 586.626C451.317 579.292 450.788 566.986 455.16 555.314C460.378 541.457 471.166 531.654 484.775 528.445C498.243 525.236 512.98 528.516 525.214 537.366C536.354 545.441 543.829 557.113 544.745 567.867C545.697 579.045 540.092 590.188 530.467 596.218C526.165 598.827 521.547 600.202 517.069 600.202ZM507.233 593.22L508.009 593.679C514.143 597.311 521.547 596.958 528.281 592.727C536.601 587.508 541.467 577.846 540.656 568.15C539.845 558.558 533.005 548.015 522.781 540.61C511.534 532.43 497.996 529.432 485.656 532.359C473.387 535.251 463.621 544.136 458.897 556.725C455.019 567.021 455.372 578.093 459.779 584.264C468.487 596.5 481.637 589.8 482.201 589.518L483.576 588.813L484.599 589.906C484.74 590.012 487.031 592.198 493.307 593.82C499.9 595.548 506.246 593.538 506.316 593.502L507.233 593.22Z" fill="black"/>
<path d="M509.771 556.513C507.057 567.197 505.294 578.093 506.316 589.059C506.739 592.515 507.832 595.935 510.759 598.474C496.762 593.114 501.839 565.54 509.771 556.513Z" fill="black"/>
<path d="M481.249 553.551C478.535 567.55 479.945 580.35 485.551 593.467C474.833 583.841 472.859 565.223 481.249 553.551Z" fill="black"/>
<path d="M505.435 565.893C503.849 562.12 502.227 558.77 500.288 555.209C504.272 556.796 506.704 561.767 505.435 565.893Z" fill="black"/>
<path d="M478.218 562.473C477.583 558.594 476.278 555.314 474.057 552.106C478.288 553.093 480.58 558.841 478.218 562.473Z" fill="black"/>
<path opacity="0.17" d="M542.701 567.973C542.63 567.339 542.489 566.704 542.383 566.069C541.396 561.979 539.739 558.03 537.165 554.715C537.236 559.793 536.284 565.011 533.393 569.172C530.502 573.333 525.425 576.189 520.419 575.484C515.624 574.814 511.534 570.759 510.653 565.999C509.771 561.238 512.134 556.09 516.223 553.481C511.887 552.529 508.573 559.616 504.342 558.241C501.028 557.148 501.099 551.894 498.067 550.166C500.041 554.433 502.05 558.805 502.791 563.46C503.496 568.114 502.756 573.227 499.724 576.824C496.692 580.456 491.086 582.007 487.031 579.61C484.07 577.811 482.483 574.356 481.743 570.971C480.192 563.812 481.602 556.055 485.621 549.955C483.717 552.141 480.685 553.305 477.794 552.881C474.903 552.494 472.294 550.554 471.06 547.945C475.397 553.975 476.314 562.296 473.423 569.137C472.118 572.169 469.58 575.237 466.301 575.131C463.163 575.026 460.836 572.134 459.673 569.207C457.24 563.143 458.016 555.879 461.718 550.484C459.638 552.599 457.91 554.997 456.57 557.606C453.045 568.114 453.609 579.01 458.192 585.428C468.028 599.215 483.224 591.281 483.224 591.281C483.224 591.281 485.656 593.855 492.884 595.759C500.147 597.663 507.022 595.407 507.022 595.407C523.028 604.927 544.428 588.531 542.701 567.973Z" fill="#660000"/>
<path opacity="0.75" d="M477.512 536.661C485.903 532.676 495.669 532.006 504.73 534.016C494.894 533.241 484.81 535.815 476.525 541.245C468.17 546.71 462.141 554.785 458.615 564.094C459.144 558.311 460.202 553.869 463.375 548.967C467.112 543.22 472.012 540.328 477.512 536.661Z" fill="#DD6628"/>
<path d="M612.684 588.848C612.684 588.848 627.879 596.782 637.715 582.995C647.552 569.207 639.126 534.687 610.639 527.952C582.152 521.217 554.899 545.018 553.172 565.576C551.444 586.133 572.845 602.494 588.886 593.009C588.886 593.009 595.796 595.266 603.024 593.362C610.251 591.457 612.684 588.848 612.684 588.848Z" fill="#DD6628"/>
<path d="M578.803 597.769C574.29 597.769 569.671 596.429 565.405 593.749C555.781 587.72 550.21 576.577 551.127 565.399C552.043 554.68 559.518 542.973 570.659 534.898C582.857 526.047 597.594 522.768 611.097 525.977C624.706 529.186 635.494 538.988 640.712 552.846C645.119 564.518 644.59 576.824 639.337 584.158C630.312 596.817 617.126 592.832 613.001 591.21C611.555 592.268 608.629 593.961 603.517 595.301C597.277 596.923 591.319 595.724 589.133 595.16C585.924 596.888 582.399 597.769 578.803 597.769ZM600.767 528.798C591.213 528.798 581.517 532.042 573.056 538.142C562.832 545.547 555.992 556.09 555.181 565.681C554.37 575.378 559.236 585.04 567.556 590.258C574.29 594.49 581.694 594.842 587.828 591.21L588.604 590.752L589.485 591.034C589.556 591.069 595.937 593.079 602.495 591.352C608.911 589.659 611.203 587.438 611.203 587.438L612.261 586.38L613.6 587.05C614.164 587.332 627.35 593.961 636.023 581.796C640.43 575.625 640.783 564.553 636.904 554.257C632.18 541.668 622.414 532.782 610.145 529.891C607.078 529.186 603.94 528.798 600.767 528.798Z" fill="black"/>
<path d="M586.101 554.08C594.033 563.072 599.145 590.681 585.078 596.041C588.005 593.502 589.098 590.047 589.521 586.626C590.578 575.66 588.815 564.764 586.101 554.08Z" fill="black"/>
<path d="M614.623 551.118C623.049 562.79 621.039 581.408 610.322 591.034C615.927 577.917 617.337 565.117 614.623 551.118Z" fill="black"/>
<path d="M590.472 563.46C589.203 559.334 591.6 554.327 595.62 552.776C593.645 556.372 592.024 559.687 590.472 563.46Z" fill="black"/>
<path d="M617.655 560.039C615.293 556.408 617.584 550.66 621.815 549.673C619.629 552.881 618.289 556.161 617.655 560.039Z" fill="black"/>
<path opacity="0.17" d="M637.363 582.959C640.642 578.34 641.84 571.429 640.994 563.989C640.007 565.117 638.914 566.14 637.715 567.021C634.155 569.56 629.183 570.653 625.341 568.537C622.168 566.774 620.37 563.142 620.052 559.546C619.735 555.949 620.652 552.352 621.85 548.932C620.934 550.73 618.889 551.929 616.879 551.859C614.87 551.788 612.931 550.519 612.084 548.65C613.882 553.622 615.716 558.77 615.293 564.024C614.87 569.278 611.52 574.708 606.373 575.766C601.12 576.859 595.761 572.98 593.751 568.008C591.742 563.037 592.482 557.359 594.139 552.247C593.575 554.644 591.424 556.548 589.027 556.901C586.594 557.218 584.021 555.949 582.857 553.798C585.184 557.43 587.299 561.309 588.075 565.54C588.815 569.771 588.005 574.497 585.078 577.635C580.495 582.501 572.563 582.113 566.357 579.645C562.62 578.128 559.024 575.942 556.592 572.733C554.159 569.489 553.031 565.117 554.37 561.309C553.701 564.2 553.242 567.127 552.96 570.054C554.441 588.354 573.796 601.718 588.639 592.938C588.639 592.938 595.549 595.195 602.777 593.291C610.04 591.387 612.437 588.813 612.437 588.813C612.437 588.813 627.526 596.782 637.363 582.959Z" fill="#660000"/>
<path opacity="0.75" d="M557.12 560.357C560.787 550.695 567.732 542.303 576.582 536.979C585.431 531.619 596.078 529.362 606.338 530.596C595.937 533.558 585.607 537.296 576.723 543.396C567.803 549.496 560.364 558.276 557.614 568.714C557.861 565.223 558.777 561.767 560.258 558.629" fill="#DD6628"/>
<path opacity="0.17" d="M435.981 484.968C435.664 502.246 441.446 519.595 452.093 533.241C450.295 527.775 448.532 522.345 446.804 516.844C446.311 515.257 445.888 513.389 446.945 512.119C448.426 510.321 451.282 511.343 453.397 512.295C463.939 517.091 476.631 516.844 486.961 511.625C492.144 509.016 496.903 505.173 502.65 504.256C511.076 502.916 519.009 508.17 525.672 513.459C532.371 518.748 539.563 524.602 548.059 524.707C557.649 524.848 565.546 517.726 573.444 512.225C585.431 503.868 600.273 498.508 614.623 501.153C628.972 503.797 641.981 516.139 642.122 530.737C645.824 517.902 647.904 504.573 648.257 491.209C644.061 494.947 638.244 496.428 632.638 496.252C627.033 496.075 621.568 494.453 616.28 492.655C603.27 488.212 590.472 482.641 576.828 481.23C566.71 480.172 556.309 481.477 546.367 479.291C538.364 477.528 530.22 473.508 522.358 475.906C517.528 477.387 513.72 481.054 509.983 484.474C503.108 490.751 495.634 496.569 487.031 500.166C478.429 503.762 468.593 504.996 459.743 502.105C447.862 498.191 439.013 486.449 438.484 473.966" fill="#660000"/>
<path d="M512.698 476.082C513.473 481.583 514.284 487.119 516.082 492.337C517.88 497.591 520.736 502.599 525.073 506.089C529.339 509.545 534.733 511.308 539.351 514.27C541.537 515.645 543.723 516.738 545.803 518.29C546.438 518.748 547.072 519.277 547.848 519.348C548.483 519.383 549.082 519.136 549.611 518.819C551.691 517.655 554.723 516.703 555.569 514.446C559.095 512.719 561.28 510.603 564.877 509.016C568.473 507.429 571.963 505.384 574.572 502.457C577.322 499.354 578.944 495.37 579.79 491.28C580.601 487.436 580.706 483.522 580.953 479.643C581.059 477.81 581.024 476.047 581.482 474.248C581.94 472.344 582.61 470.475 583.245 468.607C584.444 465.01 585.395 461.061 584.091 457.534C583.033 454.678 580.601 452.563 578.062 450.87C573.585 447.873 568.402 445.898 563.043 445.087C554.441 443.818 545.979 443.148 537.306 443.359C528.633 443.571 519.855 445.158 512.098 449.107" fill="#DC9A6A"/>
<path d="M547.954 520.37C547.883 520.37 547.813 520.37 547.742 520.37C546.684 520.3 545.838 519.665 545.204 519.136C543.899 518.149 542.63 517.408 541.255 516.597C540.444 516.104 539.598 515.645 538.787 515.116C536.918 513.917 534.874 512.895 532.899 511.908C530.008 510.462 527.012 508.981 524.403 506.865C520.313 503.551 517.21 498.79 515.095 492.655C513.262 487.295 512.451 481.653 511.675 476.188L513.685 475.906C514.46 481.265 515.236 486.801 517.034 491.985C519.008 497.732 521.899 502.211 525.707 505.278C528.14 507.253 530.89 508.628 533.816 510.074C535.826 511.097 537.941 512.119 539.88 513.388C540.691 513.917 541.466 514.376 542.277 514.834C543.652 515.61 545.027 516.421 546.367 517.444C546.931 517.867 547.425 518.255 547.883 518.29C548.341 518.36 548.764 518.078 549.082 517.902C549.54 517.62 550.069 517.373 550.598 517.126C552.29 516.28 554.053 515.434 554.582 514.058L554.723 513.671L555.075 513.494C556.662 512.719 558.037 511.802 559.341 510.955C560.857 509.968 562.444 508.91 564.418 508.029C568.684 506.125 571.646 504.115 573.796 501.717C576.158 499.037 577.851 495.44 578.767 490.998C579.472 487.718 579.649 484.263 579.825 480.913L579.966 478.374C580.036 476.928 580.107 475.447 580.46 473.896C580.847 472.309 581.376 470.757 581.87 469.241L582.222 468.148C583.315 464.834 584.302 461.025 583.068 457.746C582.222 455.525 580.46 453.55 577.428 451.54C573.056 448.613 568.014 446.674 562.832 445.933C553.559 444.558 545.204 443.994 537.271 444.206C527.681 444.453 519.361 446.357 512.521 449.847L511.605 448.049C518.726 444.417 527.329 442.443 537.236 442.196C545.274 441.984 553.771 442.548 563.149 443.924C568.614 444.735 573.972 446.78 578.556 449.847C581.94 452.104 583.985 454.396 584.972 457.006C586.418 460.849 585.36 465.116 584.161 468.748L583.809 469.841C583.315 471.286 582.822 472.803 582.434 474.284C582.117 475.624 582.046 476.963 581.976 478.374L581.835 480.913C581.658 484.333 581.447 487.859 580.742 491.315C579.754 496.075 577.921 499.989 575.312 502.951C572.985 505.596 569.777 507.747 565.264 509.757C563.431 510.568 561.985 511.52 560.469 512.507C559.2 513.353 557.896 514.199 556.309 515.011C555.393 516.879 553.312 517.902 551.479 518.784C550.986 519.03 550.492 519.277 550.069 519.524C549.575 520.018 548.835 520.37 547.954 520.37Z" fill="black"/>
<path d="M569.777 482.641C567.521 487.965 563.537 492.584 558.566 495.582C557.05 496.498 555.322 497.274 553.595 497.063C550.527 496.639 548.765 493.395 547.672 490.469C544.358 481.442 542.842 471.745 543.194 462.118C541.996 468.113 541.326 474.248 541.185 480.349C539.21 474.425 537.201 468.254 538.117 462.118C539.034 455.948 543.794 449.883 550.034 449.742C547.707 449.248 545.662 447.485 544.816 445.264C544.534 446.568 544.287 447.873 544.005 449.178C541.22 447.52 539.105 444.735 538.188 441.632C537.976 442.266 537.589 442.866 536.989 443.183C535.438 443.924 533.358 442.76 533.182 441.067C533.111 440.574 533.287 440.115 533.499 439.657C530.22 440.433 527.047 441.526 524.05 443.042L524.579 466.491C525.249 471.251 525.954 476.082 527.505 480.631C529.057 485.179 531.56 489.552 535.297 492.584C538.999 495.582 543.688 497.133 547.707 499.707C549.611 500.906 551.515 501.823 553.313 503.198C553.842 503.621 554.441 504.08 555.111 504.115C555.64 504.15 556.168 503.938 556.662 503.656C558.495 502.634 561.104 501.788 561.845 499.848C564.912 498.332 566.816 496.498 569.918 495.123C569.953 495.123 569.989 495.088 570.024 495.088C572.88 489.27 574.255 482.852 575.594 476.54C573.479 480.56 571.328 484.58 569.213 488.6C568.684 486.59 568.896 484.439 569.777 482.641Z" fill="#976A49"/>
<path d="M547.425 419.628C547.354 418.148 547.319 416.596 548.13 415.362C548.8 414.339 549.928 413.775 551.021 413.246C552.537 412.47 554.053 411.73 555.639 411.06C556.521 410.672 557.473 410.319 558.425 410.425C559.376 410.531 560.364 411.236 560.434 412.188C560.505 412.964 559.976 413.705 559.341 414.163C558.707 414.621 557.966 414.903 557.261 415.291C556.556 415.679 555.886 416.208 555.675 416.949C555.393 417.865 555.78 418.888 555.569 419.805C555.357 420.616 554.723 421.215 553.982 421.603C553.242 421.991 552.431 422.097 551.62 422.238" fill="#9B6D28"/>
<path d="M547.425 419.628C547.284 418.253 547.143 416.737 547.848 415.397C548.624 414.057 550.034 413.352 551.233 412.717C553.771 411.624 559.835 407.287 560.928 412.294C560.928 414.903 557.438 415.15 556.274 416.631C555.428 417.513 556.45 419.205 555.499 420.616C554.547 421.92 552.96 422.132 551.585 422.273C552.925 421.991 554.441 421.533 555.075 420.369C555.816 419.311 554.652 417.76 555.64 416.208C556.662 414.833 558.108 414.551 559.165 413.775C560.223 412.999 560.188 411.659 559.024 411.166C557.085 410.249 553.489 412.788 551.55 413.458C548.588 414.41 547.213 416.455 547.425 419.628Z" fill="black"/>
<path d="M506.14 435.99C505.611 435.813 505.435 430.313 511.323 427.703C511.323 427.703 512.169 423.719 517.881 424.248C517.881 424.248 520.631 421.497 523.063 423.225C523.063 423.225 527.858 419.17 531.031 421.991C531.031 421.991 534.275 419.628 537.236 420.827C537.236 420.827 540.938 418.641 544.04 420.475C544.04 420.475 548.13 418.288 550.774 421.074C550.774 421.074 554.793 418.747 557.966 421.074C557.966 421.074 561.14 418.888 564.031 422.061C564.031 422.061 567.345 421.074 569.601 423.366C569.601 423.366 573.162 421.674 575.877 425.376C575.877 425.376 580.283 424.459 582.469 427.386C584.655 430.313 586.171 433.592 585.889 433.662C585.642 433.733 584.091 452.88 584.091 452.88L572.316 453.867C572.316 453.867 568.12 456.97 566.675 452.175C566.675 452.175 562.726 456.159 560.716 455.454C558.707 454.749 558.636 451.716 558.636 451.716C558.636 451.716 556.063 456.3 553.524 455.524C550.986 454.749 550.986 451.963 550.986 451.963C550.986 451.963 549.364 455.948 547.425 455.454C545.486 454.96 543.794 451.54 543.794 451.54C543.794 451.54 543.864 455.912 540.691 455.454C537.518 455.031 536.566 451.857 536.566 451.857C536.566 451.857 537.271 456.829 534.768 456.371C532.23 455.912 529.198 451.469 529.198 451.469C529.198 451.469 530.96 456.688 528.493 456.406C526.025 456.124 522.922 451.646 522.922 451.646C522.922 451.646 525.002 456.441 522.922 456.406C520.842 456.371 518.409 453.091 518.409 453.091L508.855 455.842L504.131 451.716L503.743 447.591" fill="#74401B"/>
<path d="M528.669 456.864C528.598 456.864 528.492 456.864 528.422 456.864C526.976 456.688 525.39 455.278 524.227 454.008C524.403 454.89 524.438 455.771 524.05 456.3C523.874 456.547 523.557 456.864 522.957 456.864H522.922C520.983 456.829 518.903 454.502 518.233 453.656L508.749 456.371L503.637 451.928L503.249 447.591L504.272 447.485L504.624 451.434L508.996 455.242L518.621 452.492L518.832 452.774C519.467 453.62 521.477 455.842 522.957 455.877C523.098 455.842 523.204 455.807 523.239 455.771C523.627 455.172 523.028 453.056 522.464 451.822L520.489 447.203L523.345 451.328C524.156 452.527 526.73 455.666 528.563 455.877C528.88 455.912 528.986 455.807 529.092 455.736C529.585 455.101 529.198 452.95 528.739 451.611L527.576 448.155L529.621 451.152C530.432 452.351 532.97 455.525 534.839 455.842C535.262 455.912 535.438 455.771 535.579 455.666C536.249 455.031 536.214 453.021 536.073 451.893L537.06 451.681C537.095 451.787 537.976 454.537 540.797 454.925C541.431 454.996 541.925 454.89 542.313 454.537C543.335 453.62 543.335 451.505 543.335 451.505L543.3 449.248L544.287 451.258C544.71 452.139 546.191 454.573 547.566 454.925C548.835 455.278 550.14 452.668 550.527 451.752L551.479 449.389V451.928C551.479 452.034 551.515 454.361 553.63 454.996C555.393 455.56 557.473 452.598 558.143 451.399L559.059 449.777L559.095 451.611C559.095 451.646 559.165 454.29 560.822 454.89C562.056 455.313 564.806 453.197 566.252 451.716L566.851 451.117L567.098 451.928C567.45 453.127 568.014 453.867 568.79 454.114C570.2 454.608 571.928 453.338 571.963 453.338L572.069 453.268H572.21L583.562 452.351C584.69 438.388 585.078 434.615 585.396 433.557C585.36 433.134 584.056 430.313 582.046 427.633C580.072 425.023 575.982 425.799 575.947 425.834L575.63 425.905L575.453 425.658C573.021 422.379 569.918 423.754 569.812 423.825L569.495 423.966L569.248 423.719C567.239 421.709 564.207 422.555 564.171 422.555L563.854 422.661L563.643 422.414C561.069 419.593 558.354 421.427 558.213 421.533L557.931 421.744L557.649 421.533C554.793 419.417 551.056 421.533 551.021 421.568L550.668 421.779L550.386 421.497C548.024 419.029 544.428 420.898 544.252 421.004L544.005 421.145L543.758 421.004C540.938 419.346 537.483 421.321 537.447 421.356L537.236 421.497L536.989 421.392C534.345 420.298 531.313 422.485 531.278 422.485L530.96 422.731L530.643 422.449C527.823 419.981 523.38 423.684 523.345 423.719L523.028 423.966L522.711 423.754C520.666 422.308 518.198 424.706 518.198 424.741L518.057 424.777H517.81C512.663 424.318 511.816 427.809 511.781 427.844L511.711 428.091L511.464 428.197C508.502 429.502 507.268 431.512 506.74 432.993C506.246 434.368 506.317 435.461 506.422 435.672C506.422 435.637 506.352 435.567 506.246 435.531L505.929 436.483C505.576 436.378 505.4 435.954 505.365 435.249C505.259 433.275 506.317 429.466 510.865 427.351C511.182 426.434 512.627 423.366 517.634 423.754C518.727 422.767 520.948 421.497 522.957 422.626C524.05 421.779 527.999 419.135 530.996 421.356C531.912 420.792 534.557 419.346 537.13 420.263C537.976 419.84 541.149 418.394 544.005 419.911C544.957 419.487 548.342 418.218 550.809 420.475C551.867 419.946 555.111 418.641 557.931 420.51C558.848 420.016 561.598 418.923 564.136 421.533C565.018 421.356 567.627 421.004 569.636 422.802C570.623 422.485 573.62 421.815 576.017 424.847C577.11 424.706 580.777 424.389 582.787 427.104C584.549 429.431 586.559 433.098 586.312 433.839L586.242 434.05C585.96 435.637 585.078 446.039 584.514 452.95L584.479 453.374L584.056 453.409L572.421 454.361C571.928 454.678 570.13 455.771 568.473 455.207C567.556 454.89 566.886 454.185 566.393 453.092C565.159 454.22 562.303 456.582 560.505 455.948C559.165 455.489 558.566 454.149 558.284 453.127C557.261 454.537 555.322 456.653 553.313 456.053C551.867 455.595 551.092 454.537 550.739 453.55C549.999 454.784 548.765 456.371 547.249 455.983C545.944 455.63 544.781 454.22 544.076 453.127C543.899 453.903 543.547 454.784 542.912 455.348C542.278 455.877 541.502 456.089 540.585 455.983C538.928 455.736 537.8 454.855 537.095 453.973C537.024 454.89 536.813 455.912 536.214 456.477C535.931 456.759 535.403 457.076 534.592 456.9C533.005 456.618 531.313 454.996 530.15 453.62C530.291 454.643 530.291 455.771 529.762 456.406C529.621 456.582 529.268 456.864 528.669 456.864Z" fill="black"/>
<path d="M511.711 426.892C510.97 428.726 510.265 431.088 510.512 432.922C510.547 433.557 511.817 433.239 512.698 432.852C513.65 432.464 514.567 431.864 515.342 431.124C514.849 432.111 514.038 432.993 513.051 433.557C507.656 436.554 509.419 428.937 511.711 426.892Z" fill="black"/>
<path d="M518.268 423.895C515.518 428.937 514.743 438.317 521.653 429.643C521.018 430.947 520.313 432.252 519.185 433.275C518.621 433.768 517.88 434.297 516.858 434.121C513.368 432.64 516.329 425.729 518.268 423.895Z" fill="black"/>
<path d="M523.768 422.59C522.605 425.376 521.864 428.267 521.9 431.194C521.9 431.864 522.041 432.534 522.464 432.746C524.332 433.063 526.483 431.265 528.069 430.207C527.117 431.406 525.954 432.428 524.579 433.169C518.162 436.166 521.582 424.741 523.768 422.59Z" fill="black"/>
<path d="M531.172 421.885C530.432 424.741 528.387 427.668 529.021 430.63C530.185 434.65 533.746 430.736 535.579 429.361C534.486 430.454 533.851 432.005 532.265 432.852C530.608 433.909 528.281 432.816 528.034 430.877C527.435 427.421 529.585 424.671 531.172 421.885Z" fill="black"/>
<path d="M537.412 420.827C536.46 423.93 536.354 427.245 537.483 430.171C539.104 434.191 542.454 432.076 543.37 428.761C543.159 430.312 542.701 432.217 540.902 433.028C534.838 434.297 535.05 424.071 537.412 420.827Z" fill="black"/>
<path d="M543.652 420.545C543.688 423.472 543.406 426.469 544.675 428.937C546.156 432.287 548.87 432.111 549.999 428.585C549.893 429.29 549.752 430.03 549.399 430.736C549.011 431.406 548.341 432.04 547.46 432.146C542.172 431.547 542.489 424.318 543.652 420.545Z" fill="black"/>
<path d="M550.422 421.039C550.21 424.248 550.492 427.633 552.537 429.96C554.97 432.957 558.107 432.746 558.46 428.444C558.495 429.255 558.53 430.101 558.284 430.912C557.226 434.227 553.242 432.569 551.761 430.595C549.575 427.95 549.399 424.212 550.422 421.039Z" fill="black"/>
<path d="M557.649 421.18C558.107 424.424 558.777 427.739 560.963 430.066C561.915 431.159 563.466 432.393 564.63 431.864C565.864 431.159 565.229 429.114 565.617 427.527C565.546 428.373 565.828 429.114 565.934 429.995C566.287 432.323 564.207 433.627 562.232 432.358C558.354 430.207 557.155 425.306 557.649 421.18Z" fill="black"/>
<path d="M563.643 421.956C564.912 424.812 565.828 427.809 567.873 429.995C570.024 432.711 573.761 433.592 572.457 428.938C572.809 429.643 573.197 430.348 573.162 431.23C573.162 432.076 572.421 433.028 571.399 433.063C566.216 432.358 564.312 426.328 563.643 421.956Z" fill="black"/>
<path d="M569.707 423.507C571.822 426.645 574.29 431.582 578.168 431.864C578.485 429.889 576.617 427.033 574.995 425.588C576.546 426.469 577.815 427.879 578.556 429.537C579.402 431.053 579.508 433.451 577.04 432.781C573.126 431.3 571.082 427.245 569.707 423.507Z" fill="black"/>
<path d="M579.226 430.63C580.495 431.265 581.165 431.617 582.364 432.393C581.059 433.134 579.261 432.111 579.226 430.63Z" fill="black"/>
<path d="M510.688 433.733C510.124 437.047 510.829 440.503 512.804 443.042C514.179 444.664 514.637 442.407 514.707 441.138C514.919 439.445 515.201 437.788 515.518 436.131C515.342 438.811 516.047 441.385 514.884 443.923C514.214 444.981 512.592 444.664 511.993 443.712C509.877 440.82 509.313 436.906 510.688 433.733Z" fill="black"/>
<path d="M516.259 433.592C515.483 436.413 515.835 439.375 517.351 441.702C518.021 442.795 519.15 444.206 520.101 443.853C521.23 443.395 520.948 441.491 521.653 440.221C521.23 441.702 522.076 443.5 520.454 444.558C519.537 445.087 518.55 444.488 517.986 444.029C515.13 441.491 514.284 436.871 516.259 433.592Z" fill="black"/>
<path d="M523.38 433.169C522.393 436.096 523.063 439.34 525.178 441.35C526.166 442.443 527.505 443.148 528.457 441.984C529.409 440.997 529.409 439.234 530.255 437.929C529.726 439.375 530.149 441.032 529.057 442.478C527.928 444.276 525.566 443.36 524.473 442.09C522.111 439.763 521.547 435.884 523.38 433.169Z" fill="black"/>
<path d="M530.678 432.852C529.585 436.448 531.595 440.08 534.345 442.266C534.979 442.795 535.79 443.183 536.319 442.831C537.835 440.997 537.906 437.612 538.928 435.355C538.717 437.224 538.435 439.058 538.117 440.856C537.976 443.465 535.896 444.946 533.71 443.077C530.819 440.715 528.704 436.378 530.678 432.852Z" fill="black"/>
<path d="M539.14 433.345C539.457 436.801 541.044 440.397 543.97 442.16C545.521 442.407 545.627 438.423 546.402 437.224C546.261 438.705 546.12 440.115 545.803 441.596C545.239 444.029 542.806 442.971 541.749 441.667C539.704 439.48 538.576 436.307 539.14 433.345Z" fill="black"/>
<path d="M546.579 431.97C546.332 435.884 547.954 440.221 551.127 442.478C553.383 443.677 553.242 440.468 553.806 439.093C554.335 437.118 554.934 435.143 555.604 433.169C555.322 435.214 554.97 437.259 554.582 439.269C554.229 441.42 553.736 444.911 550.668 443.359C547.072 440.75 545.556 436.096 546.579 431.97Z" fill="black"/>
<path d="M562.937 433.028C563.149 436.413 563.643 441.843 567.274 442.971C568.014 443.077 568.649 442.442 568.966 441.561C569.777 438.775 569.425 435.284 571.575 432.992C570.447 434.72 570.447 436.765 570.271 438.811C570.412 442.901 567.768 446.357 564.453 442.09C562.585 439.445 562.55 436.025 562.937 433.028Z" fill="black"/>
<path d="M555.216 434.121C555.111 437.048 556.204 441.314 558.918 442.548C560.399 443.077 560.752 441.032 561.139 439.445C561.562 437.823 561.915 436.131 562.197 434.438C562.268 437.048 562.127 439.622 561.28 442.16C560.998 443.112 559.694 443.853 558.672 443.5C555.287 442.019 554.406 437.4 555.216 434.121Z" fill="black"/>
<path d="M570.623 435.179C571.751 436.519 573.126 443.783 575.242 441.244C577.04 438.67 576.969 435.073 577.075 431.97C577.78 435.285 578.027 438.881 576.053 441.878C572.21 445.405 571.399 437.541 570.623 435.179Z" fill="black"/>
<path d="M513.473 444.241C514.461 446.497 515.941 448.437 517.951 449.671C518.762 450.27 520.419 451.081 520.384 450.447C520.419 449.354 520.489 448.014 520.595 446.815C520.842 448.049 521.053 449.177 521.159 450.553C521.194 450.94 520.771 451.575 520.278 451.575C516.717 451.222 513.826 447.661 513.473 444.241Z" fill="black"/>
<path d="M519.996 444.347C521.477 446.815 523.698 448.966 526.307 450.024C526.941 450.235 527.223 450.165 527.329 449.53C527.47 447.379 527.611 445.087 527.964 442.936C528.105 444.417 528.21 445.898 528.246 447.414C529.233 455.56 520.56 448.12 519.996 444.347Z" fill="black"/>
<path d="M528.281 444.065C529.656 446.286 532.3 449.283 534.909 448.79C535.191 448.613 535.262 447.908 535.438 447.309C536.355 443.395 536.707 443.465 536.214 447.45C536.108 448.049 536.214 448.754 535.544 449.46C534.803 450.059 533.922 449.918 533.287 449.707C530.784 448.754 528.775 446.604 528.281 444.065Z" fill="black"/>
<path d="M536.778 444.735C537.729 446.603 539.069 449.777 541.396 449.53C542.242 449.46 542.277 447.838 542.595 446.639C544.005 440.327 543.617 445.299 543.088 448.719C542.595 451.857 538.928 450.412 538.012 448.472C537.271 447.309 536.989 446.004 536.778 444.735Z" fill="black"/>
<path d="M544.252 444.1C544.745 446.744 549.047 451.822 550.704 447.414C551.091 446.357 551.479 444.84 552.713 444.311C551.761 445.158 551.761 446.427 551.444 447.626C549.893 453.374 543.652 447.943 544.252 444.1Z" fill="black"/>
<path d="M552.467 445.087C553.454 446.745 557.191 453.162 558.072 448.613C558.566 446.603 559.447 444.664 560.611 442.936C559.976 444.84 559.412 446.886 558.954 448.825C557.72 454.678 553.066 448.684 552.467 445.087Z" fill="black"/>
<path d="M560.364 444.594C561.809 454.643 564.771 448.331 567.662 443.359C566.957 446.039 566.075 448.508 563.995 450.553C563.325 451.046 562.232 451.011 561.598 450.517C559.729 449.142 560.364 446.568 560.364 444.594Z" fill="black"/>
<path d="M567.732 444.347C568.226 446.074 566.604 452.069 569.742 450.306C572.139 448.825 574.008 446.462 575.242 443.853C574.748 446.815 572.844 449.46 570.235 451.187C565.405 453.197 567.344 446.815 567.732 444.347Z" fill="black"/>
<path d="M575.312 443.042C576.017 444.029 576.37 444.876 576.969 445.757C577.11 445.969 577.251 446.392 577.674 446.286C576.511 447.696 574.572 444.276 575.312 443.042Z" fill="black"/>
<path d="M526.553 474.777C527.611 481.865 529.656 488.529 532.758 494.982C528.457 489.305 526.201 481.9 526.553 474.777Z" fill="black"/>
<path d="M534.38 489.34C536.39 495.37 538.681 501.117 541.396 506.865C537.518 501.858 535.05 495.652 534.38 489.34Z" fill="black"/>
<path d="M542.454 465.574C542.806 472.979 542.912 480.278 542.771 487.683C541.537 480.384 541.431 472.908 542.454 465.574Z" fill="black"/>
<path d="M536.073 511.555C539.845 513.353 543.653 514.235 547.848 514.305C543.899 515.681 539.034 514.552 536.073 511.555Z" fill="black"/>
<path d="M571.646 480.842C572.562 488.071 570.517 495.828 566.075 501.611C569.319 495.053 571.187 488.141 571.646 480.842Z" fill="black"/>
<path d="M561.281 503.974C562.338 502.175 563.361 500.835 564.771 499.284C564.665 501.364 563.22 503.268 561.281 503.974Z" fill="black"/>
<path d="M567.062 458.451C567.627 460.919 567.521 463.494 566.71 465.891C566.146 463.353 566.252 460.919 567.062 458.451Z" fill="black"/>
<path opacity="0.17" d="M527.787 444.312C527.858 445.405 528.069 446.462 528.351 447.485C528.704 446.392 528.598 445.123 527.787 444.312Z" fill="#660000"/>
<path d="M505.611 434.615C506.246 433.486 506.881 432.323 507.515 431.194C506.775 432.993 507.409 435.214 508.961 436.342C509.243 433.028 510.23 429.749 511.852 426.857C511.076 427.844 510.23 428.938 510.265 430.172C510.265 431.441 511.675 432.675 512.768 432.041C513.156 431.829 513.403 431.476 513.614 431.124C515.166 428.797 516.717 426.434 518.268 424.107C517.528 425.94 517.175 427.95 517.211 429.925C517.211 430.489 517.316 431.159 517.845 431.406C518.621 431.794 519.361 430.877 519.749 430.101C520.912 427.739 522.076 425.376 523.239 423.014C523.698 424.036 523.416 425.2 523.028 426.258C522.64 427.316 522.182 428.373 522.252 429.467C522.323 430.56 523.169 431.723 524.297 431.653C525.143 431.582 525.778 430.842 526.307 430.172C527.611 428.409 528.845 426.575 529.973 424.671C528.387 427.421 528.915 431.23 531.207 433.451C528.951 433.098 526.518 434.192 525.249 436.096C523.98 438 523.909 440.644 525.073 442.619C523.733 441.984 523.31 440.327 522.922 438.881C522.534 437.436 521.864 435.778 520.419 435.461C518.938 435.144 517.528 436.484 517.211 437.964C516.893 439.445 517.387 440.962 517.845 442.407C516.047 440.75 514.743 438.599 514.108 436.237C511.887 437.753 511.076 441.032 512.345 443.395C510.794 441.385 509.243 439.375 507.691 437.365C507.55 437.577 507.409 437.823 507.268 438.035" fill="#502C13"/>
<path d="M523.803 448.825C525.249 449.107 526.8 448.225 527.364 446.85C527.893 445.475 527.435 443.818 526.307 442.866C528.105 443.395 530.185 441.843 530.185 440.009C529.092 442.09 529.656 444.911 531.454 446.392C532.476 447.238 534.204 447.591 534.979 446.498C535.614 445.651 535.226 444.382 534.627 443.536C534.028 442.654 533.181 441.878 532.899 440.856C533.005 442.478 535.191 443.289 536.601 442.513C538.011 441.737 538.646 440.009 538.646 438.387C537.941 440.609 537.765 442.971 538.152 445.263C538.294 446.004 538.505 446.78 539.069 447.238C540.021 448.014 541.572 447.485 542.277 446.462C542.983 445.475 543.088 444.17 543.194 442.936C543.265 446.11 543.335 449.248 543.406 452.421C542.595 450.87 540.797 449.706 539.069 450.165C537.342 450.623 536.425 453.056 537.694 454.255C536.742 452.704 535.297 451.434 533.64 450.658C533.076 450.412 532.441 450.2 531.877 450.412C531.066 450.729 530.784 451.752 530.996 452.598C531.207 453.444 531.842 454.079 532.441 454.713C531.031 453.726 529.656 452.739 528.246 451.716C528.316 453.127 528.387 454.537 528.422 455.948C528.387 453.726 526.342 452.175 524.579 450.835C523.239 449.847 520.948 447.979 521.371 446.11C521.723 447.344 522.393 448.543 523.803 448.825Z" fill="#502C13"/>
<path d="M537.201 429.431C537.906 430.348 539.316 430.806 540.233 430.101C540.867 429.643 541.079 428.796 541.255 428.021C541.749 425.975 542.207 423.895 542.701 421.85C542.912 423.86 543.335 425.834 544.005 427.738C544.252 428.479 544.604 429.255 545.345 429.607C546.649 430.207 548.059 428.832 548.447 427.421C548.835 426.046 548.694 424.494 549.47 423.26C549.611 426.011 550.704 428.691 552.502 430.806C548.87 432.111 546.684 436.483 547.813 440.186C547.566 438.387 547.319 436.483 546.226 435.038C545.133 433.592 542.912 432.781 541.431 433.839C539.81 435.002 539.986 437.4 540.338 439.375C539.951 437.224 539.387 434.967 537.871 433.345C536.39 431.723 533.675 431.018 531.948 432.358C534.098 430.7 534.204 426.822 536.284 425.482C536.531 426.822 536.319 428.267 537.201 429.431Z" fill="#502C13"/>
<path d="M559.518 438.74C560.716 438.423 561.351 437.153 561.739 435.99C562.127 434.826 562.444 433.521 563.431 432.781C562.797 436.237 564.489 439.974 567.486 441.773C567.662 442.019 567.274 442.372 566.992 442.302C566.675 442.231 566.463 441.984 566.252 441.773C565.264 440.856 563.607 441.032 562.585 441.878C561.563 442.725 561.104 444.135 561.104 445.475C561.104 446.815 561.457 448.12 561.809 449.424C562.127 448.12 560.505 446.921 559.236 447.344C557.966 447.767 557.297 449.283 557.508 450.623C557.861 449.178 558.213 447.697 558.037 446.216C557.861 444.735 557.085 443.218 555.71 442.619C554.335 442.019 552.431 442.654 552.043 444.1C552.467 442.619 554.547 435.602 555.922 435.426C556.45 436.871 557.297 439.34 559.518 438.74Z" fill="#502C13"/>
<path d="M563.22 432.428C561.633 432.217 557.367 429.572 558.707 427.527C559.87 425.693 561.668 432.217 563.22 432.428Z" fill="#502C13"/>
<path opacity="0.75" d="M525.672 422.943C526.342 422.379 527.47 421.991 528.034 422.696C528.351 423.119 528.246 423.754 528.105 424.283C527.682 425.799 525.531 433.028 522.957 429.96C521.23 427.95 524.191 424.142 525.672 422.943Z" fill="#DD6628"/>
<path opacity="0.29" d="M518.585 425.023C517.704 426.046 517.175 427.28 516.999 428.62C516.928 429.255 516.999 429.995 517.528 430.313C518.303 430.736 519.15 429.96 519.678 429.255C520.172 428.585 520.701 427.844 520.912 427.033C521.124 426.222 520.912 425.2 520.242 424.706C519.573 424.212 518.339 424.494 518.162 425.341" fill="#DD6628"/>
<path opacity="0.29" d="M529.938 427.95C529.903 428.655 530.008 429.466 530.643 429.784C531.031 429.995 531.489 429.889 531.877 429.643C532.194 429.466 532.476 429.219 532.688 428.937C533.534 427.985 534.169 426.892 534.627 425.693C535.226 424.107 533.816 423.86 532.547 424.212C530.714 424.741 530.044 426.187 529.938 427.95Z" fill="#DD6628"/>
<path opacity="0.29" d="M538.646 421.674C537.624 423.084 537.201 424.918 537.553 426.61C537.694 427.315 538.047 428.056 538.717 428.197C539.21 428.303 539.739 428.021 540.056 427.633C540.374 427.245 540.515 426.751 540.656 426.222C540.867 425.341 540.973 424.459 540.973 423.578C540.973 422.943 540.938 422.273 540.479 421.85C540.021 421.427 539.105 421.532 538.999 422.167" fill="#DD6628"/>
<path opacity="0.29" d="M533.287 440.609C533.781 441.103 534.556 441.561 535.191 441.244C535.755 440.961 535.931 440.292 536.002 439.692C536.143 438.705 536.249 437.717 536.284 436.73C536.39 434.332 533.816 431.265 531.701 434.015C530.326 435.813 531.947 439.269 533.287 440.609Z" fill="#DD6628"/>
<path opacity="0.29" d="M525.39 436.801C524.649 438 525.002 439.798 526.165 440.609Z" fill="#DD6628"/>
<path opacity="0.29" d="M513.72 426.998C512.733 427.456 512.098 428.55 512.169 429.607Z" fill="#DD6628"/>
<path opacity="0.29" d="M541.29 434.826C540.903 436.378 541.149 438.07 541.995 439.445C542.489 440.256 543.511 440.962 544.287 440.468C544.851 440.08 544.886 439.269 544.886 438.564C544.851 437.718 544.816 436.871 544.816 436.025C544.781 435.32 544.745 434.579 544.358 434.015C543.97 433.451 543.053 433.169 542.56 433.627" fill="#DD6628"/>
<path opacity="0.29" d="M546.473 428.373C547.072 428.303 547.354 427.633 547.531 427.069C548.06 425.482 550.598 419.664 546.685 421.744C544.816 422.767 543.512 428.726 546.473 428.373Z" fill="#DD6628"/>
<path opacity="0.29" d="M551.55 425.729C551.761 426.857 552.361 427.844 553.03 428.761C553.348 429.22 553.736 429.643 554.194 429.89C554.652 430.136 555.322 430.172 555.745 429.819C556.45 429.255 556.168 428.162 556.027 427.245C555.886 426.293 555.992 425.306 555.886 424.354C555.428 420.298 550.845 421.956 551.55 425.729Z" fill="#DD6628"/>
<path opacity="0.29" d="M549.434 439.445C549.857 440.186 550.598 440.891 551.409 440.68C552.114 440.503 552.466 439.727 552.678 439.022C553.066 437.788 553.383 436.554 553.594 435.285C553.735 434.438 553.806 433.451 553.207 432.852C552.043 431.758 549.752 433.239 549.082 434.332C548.165 435.813 548.659 438.035 549.434 439.445Z" fill="#DD6628"/>
<path opacity="0.29" d="M563.361 429.854C563.925 429.466 563.784 428.585 563.572 427.915C563.149 426.54 562.268 421.956 560.364 424.953C559.447 426.399 561.527 431.088 563.361 429.854Z" fill="#DD6628"/>
<path opacity="0.29" d="M565.899 424.812C566.463 426.222 567.274 427.562 568.296 428.655Z" fill="#DD6628"/>
<path opacity="0.29" d="M538.364 440.785C538.188 442.654 538.717 444.594 539.88 446.075C540.127 446.392 540.479 446.709 540.832 446.639C541.29 446.533 541.431 445.934 541.467 445.44C541.537 444.488 541.608 443.501 541.361 442.548C541.114 441.596 540.515 440.715 539.598 440.362C538.681 440.01 537.483 440.433 537.201 441.35" fill="#DD6628"/>
<path opacity="0.29" d="M521.864 443.113C522.005 444.664 522.605 446.18 523.557 447.414C524.121 448.12 524.967 448.754 525.813 448.472C526.73 448.155 526.906 446.956 526.8 445.969C526.694 445.017 526.377 443.994 525.566 443.43C524.755 442.866 523.416 443.183 523.204 444.1" fill="#DD6628"/>
<path opacity="0.29" d="M518.303 436.201C517.316 437.682 517.246 439.692 518.057 441.244C518.268 441.632 518.55 442.055 518.938 442.266C519.326 442.478 519.89 442.478 520.242 442.196C520.56 441.914 520.63 441.491 520.701 441.067C520.807 440.327 520.948 439.586 521.053 438.846C521.194 438.035 521.3 437.189 520.842 436.483C520.419 435.813 519.185 435.672 518.868 436.413" fill="#DD6628"/>
<path opacity="0.29" d="M513.65 426.751C512.627 427.527 511.852 428.655 511.534 429.925C511.323 430.771 511.534 431.899 512.38 432.04C513.121 432.146 513.65 431.335 513.932 430.665C514.425 429.502 514.884 428.303 515.236 427.069C515.307 426.892 515.342 426.681 515.271 426.504C515.166 426.187 514.707 426.046 514.39 426.187C514.073 426.328 513.826 426.575 513.614 426.857" fill="#DD6628"/>
<path opacity="0.29" d="M557.332 412.365C556.627 413.704 555.111 414.374 553.771 415.044C552.431 415.75 551.021 416.702 550.739 418.218C550.704 418.429 550.668 418.641 550.563 418.817C549.857 419.875 548.976 418.147 548.976 417.513C549.011 416.561 549.752 416.173 550.422 415.679C551.444 414.868 552.678 414.233 553.841 413.669C554.441 413.387 557.12 412.788 557.332 412.365Z" fill="#DD6628"/>
<path opacity="0.29" d="M553.383 418.923C553.665 418.888 553.947 418.817 554.264 418.782Z" fill="#DD6628"/>
<path d="M638.808 461.695C638.808 461.695 620.687 461.872 612.225 456.864C603.764 451.857 605.491 447.027 603.411 442.372C601.331 437.718 593.927 431.335 586.841 432.534C579.755 433.733 576.652 442.548 582.363 444.1C588.04 445.651 589.45 449.777 589.45 449.777C589.45 449.777 581.165 445.299 575.982 449.248C570.8 453.197 573.091 458.204 573.937 460.285C574.783 462.365 580.988 462.542 583.069 464.763C583.069 464.763 573.585 464.41 571.681 468.465C569.777 472.521 570.87 478.233 573.937 479.784C577.005 481.336 584.091 479.608 586.488 481.512C588.921 483.416 593.575 488.776 599.427 489.975C605.28 491.174 608.241 488.6 608.241 488.6C608.241 488.6 619.453 496.005 630.84 496.181C642.228 496.357 647.234 493.325 650.09 484.862" fill="#DD6628"/>
<path d="M631.757 498.226C631.44 498.226 631.122 498.226 630.805 498.226C620.969 498.085 611.45 492.902 608.241 490.998C606.62 491.844 603.517 492.902 599.04 491.985C593.892 490.927 589.732 487.154 586.982 484.65C586.312 484.051 585.748 483.522 585.255 483.134C584.549 482.57 581.976 482.57 580.107 482.57C577.569 482.57 574.925 482.57 573.021 481.618C568.966 479.573 567.415 472.803 569.812 467.655C570.764 465.574 572.915 464.375 575.207 463.705C573.761 463.141 572.562 462.401 572.069 461.096C571.046 458.557 568.543 452.457 574.748 447.697C576.546 446.321 578.626 445.757 580.671 445.651C578.485 444.629 577.287 442.548 577.392 439.974C577.569 436.06 581.059 431.476 586.524 430.56C594.527 429.184 602.812 436.06 605.28 441.561C605.95 443.042 606.232 444.453 606.549 445.828C607.254 449.107 607.889 451.963 613.248 455.137C621.11 459.791 638.597 459.65 638.773 459.685L638.808 463.74C638.068 463.74 620.017 463.846 611.203 458.628C604.293 454.537 603.411 450.376 602.6 446.709C602.318 445.475 602.072 444.311 601.578 443.218C599.745 439.093 593.117 433.557 587.194 434.544C583.597 435.143 581.553 438.211 581.447 440.186C581.412 441.279 581.835 441.878 582.892 442.161C589.556 443.994 591.283 448.966 591.354 449.178L592.976 454.008L588.463 451.611C588.392 451.575 581.271 447.802 577.216 450.905C573.761 453.55 574.572 456.512 575.735 459.333C576.088 459.791 577.78 460.32 578.803 460.637C580.953 461.272 583.174 461.977 584.549 463.458L587.828 467.02L582.963 466.843C579.684 466.738 574.396 467.443 573.479 469.382C571.963 472.626 572.95 477.069 574.819 478.021C575.841 478.55 578.098 478.515 580.072 478.55C583.104 478.586 585.924 478.55 587.722 479.961C588.251 480.384 588.921 480.983 589.662 481.653C592.094 483.839 595.726 487.189 599.815 488.036C604.504 488.988 606.796 487.189 606.902 487.084L608.065 486.131L609.334 486.942C609.44 487.013 620.193 494.03 630.84 494.206C641.347 494.418 645.542 491.95 648.116 484.263L651.959 485.567C648.927 494.735 643.392 498.226 631.757 498.226Z" fill="black"/>
<path d="M581.165 463.106C583.915 462.824 586.629 464.516 587.969 466.843C588.428 467.619 588.745 468.501 588.78 469.453C588.004 468.924 587.405 468.36 586.77 467.866C584.972 466.35 582.892 464.692 581.165 463.106Z" fill="black"/>
<path d="M585.149 446.815C589.344 447.767 592.94 451.223 594.033 455.419C590.684 452.88 587.828 450.094 585.149 446.815Z" fill="black"/>
<path d="M602.918 441.173C603.059 441.173 603.87 441.208 603.94 441.244C603.87 441.314 603.059 441.314 602.918 441.314C602.777 441.314 601.966 441.279 601.895 441.244C601.966 441.173 602.777 441.173 602.918 441.173Z" fill="#231F20"/>
<path d="M603.094 489.129C607.536 487.189 611.837 484.897 615.998 482.358C613.741 487.013 608.171 489.94 603.094 489.129Z" fill="black"/>
<path d="M632.215 460.214C635.177 458.698 637.045 456.406 637.927 453.197C640.254 456.688 636.093 461.766 632.215 460.214Z" fill="black"/>
<path d="M631.017 460.673C635.811 460.179 640.571 461.131 644.661 457.816C642.792 463.317 635.283 463.176 631.017 460.673Z" fill="black"/>
<path d="M651.253 478.198C649.667 481.83 648.292 485.532 647.093 489.305C649.209 488.6 650.795 486.731 651.677 484.686C652.558 482.641 652.875 480.384 653.157 478.162" fill="black"/>
<path opacity="0.17" d="M588.921 435.249C587.194 435.743 585.572 436.907 585.078 438.634C583.738 443.077 590.155 446.392 590.437 451.046C588.322 448.649 584.162 448.79 581.799 450.976C579.437 453.162 578.908 456.865 579.966 459.897C581.024 462.929 583.492 465.292 586.277 466.879C583.597 465.75 580.283 465.609 577.992 467.408C575.7 469.206 575.312 473.261 577.674 474.918C582.258 474.319 587.052 475.588 590.754 478.374C593.716 480.595 596.043 483.769 599.392 485.32C603.446 487.189 608.312 486.308 612.225 484.122C616.103 481.935 619.206 478.621 622.238 475.341C619.417 476.893 619.594 481.406 621.921 483.628C624.247 485.849 627.808 486.202 630.981 485.849C637.01 485.179 642.827 482.359 646.917 477.88C651.007 473.402 653.298 467.267 652.946 461.237C654.427 470.052 652.558 479.044 650.689 487.789C649.032 495.546 647.411 503.304 645.754 511.097C645.683 507.218 645.26 502.669 641.981 500.624C639.266 498.967 635.811 499.778 632.638 500.236C625.763 501.223 618.607 500.06 612.401 496.957C609.546 495.546 606.725 493.677 603.517 493.607C601.155 493.536 598.828 494.488 596.501 494.242C591.248 493.642 588.568 487.542 583.95 484.968C581.341 483.522 578.168 483.24 575.524 481.83C572.033 479.925 569.812 475.941 570.024 471.956C570.235 468.007 572.915 464.269 576.617 462.788C572.844 460.637 571.716 455.243 573.655 451.328C575.594 447.414 579.896 445.193 584.126 444.84C578.626 444.629 577.639 438.282 580.883 434.932C584.162 431.512 591.142 430.383 594.033 434.932C592.341 434.932 590.613 434.791 588.921 435.249Z" fill="#660000"/>
<path d="M628.337 466.244C627.315 466.032 626.398 465.503 625.482 465.01C623.719 464.058 621.956 463.07 620.193 462.118C623.401 462.647 626.645 463.141 629.924 463.211C633.203 463.282 636.517 462.894 639.513 461.66C642.545 460.426 645.26 458.31 646.847 455.454C647.693 458.416 647.164 461.73 645.436 464.269C643.603 466.984 640.571 468.712 637.398 469.594C634.225 470.475 630.946 470.616 627.667 470.757" fill="#DD6628"/>
<path d="M637.504 452.598C638.173 453.832 638.35 455.348 638.032 456.723C637.715 458.099 636.834 459.333 635.635 460.109C637.01 460.92 638.773 460.426 640.289 459.897C641.911 459.333 643.568 458.733 644.978 457.746C646.388 456.759 647.587 455.313 647.869 453.62" fill="#DD6628"/>
<path opacity="0.75" d="M592.059 435.672C596.466 436.413 600.027 440.503 600.238 444.946Z" fill="#DD6628"/>
<path opacity="0.17" d="M606.69 450.341C609.652 453.127 612.648 455.912 616.209 457.781C619.805 459.65 624.107 460.532 627.914 459.192C631.546 457.922 634.296 454.855 636.023 451.399C637.715 447.943 638.526 444.135 639.302 440.397C639.76 443.007 639.231 445.722 639.196 448.367C639.126 451.046 639.654 453.938 641.699 455.666C643.744 457.393 647.552 456.935 648.327 454.396C643.638 459.015 637.292 461.907 630.735 462.365C624.177 462.824 617.478 460.814 612.225 456.865" fill="#660000"/>
<path d="M457.487 471.004C457.487 471.004 474.903 472.203 483.012 459.438C483.012 459.438 483.858 448.754 491.121 443.394C498.384 438.035 505.788 434.755 508.044 438.211C510.3 441.667 510.477 447.167 508.044 450.129C508.044 450.129 516.858 446.674 518.409 453.056C519.96 459.438 516.858 462.365 516.858 462.365C516.858 462.365 522.71 465.186 521.864 471.039C521.018 476.893 515.307 476.011 512.909 478.762C510.512 481.512 504.448 493.43 500.676 494.805C496.868 496.181 494.294 494.629 494.294 494.629C494.294 494.629 481.461 505.49 466.477 504.643C451.494 503.797 440.106 493.783 437.814 470.757" fill="#DD6628"/>
<path d="M468.134 506.724C467.535 506.724 466.9 506.724 466.301 506.689C448.779 505.666 437.92 493.007 435.734 470.969L439.753 470.581C441.728 490.68 451 501.752 466.513 502.669C480.474 503.48 492.778 493.254 492.884 493.148L493.977 492.231L495.211 492.972C495.246 493.007 497.079 493.995 499.865 492.972C501.768 492.267 505.682 486.025 507.762 482.676C509.207 480.348 510.371 478.515 511.252 477.492C512.451 476.117 514.108 475.447 515.554 474.883C518.057 473.896 519.361 473.261 519.714 470.793C520.348 466.491 515.871 464.269 515.836 464.269L513.191 463L515.342 460.99C515.412 460.919 517.528 458.663 516.329 453.62C516.047 452.386 515.413 451.963 514.989 451.751C513.086 450.764 509.736 451.716 508.679 452.104L501.416 454.96L506.387 448.93C508.15 446.78 508.079 442.231 506.246 439.41C506.14 439.234 505.964 439.057 505.47 438.952C503.672 438.669 499.124 440.045 492.249 445.122C485.868 449.847 484.951 459.615 484.951 459.685L484.987 460.108L484.705 460.531C476.032 474.178 458.051 473.085 457.311 473.014L457.593 468.959C457.734 468.959 473.564 469.876 481.038 458.733C481.32 456.371 482.871 446.921 489.922 441.737C493.906 438.775 501.345 433.944 506.281 434.861C507.762 435.143 508.961 435.884 509.736 437.083C511.64 440.009 512.239 443.923 511.534 447.203C513.262 447.026 515.236 447.132 516.964 448.014C518.691 448.895 519.855 450.482 520.384 452.527C521.441 456.864 520.595 459.897 519.678 461.73C521.723 463.317 524.579 466.455 523.874 471.286C523.169 476.152 519.714 477.527 517.211 478.55C516.082 479.008 514.989 479.432 514.425 480.066C513.755 480.842 512.557 482.746 511.288 484.756C507.339 491.068 504.307 495.617 501.31 496.71C498.56 497.697 496.163 497.45 494.541 496.956C491.333 499.425 480.685 506.724 468.134 506.724Z" fill="black"/>
<path d="M516.823 462.436C512.099 464.41 507.797 466.526 503.32 469.065C505.858 464.445 511.605 461.625 516.823 462.436Z" fill="black"/>
<path d="M498.878 494.629C495.422 496.005 491.615 493.818 488.512 492.478C487.49 492.02 486.432 491.667 485.198 491.385C486.326 490.821 487.666 490.786 488.9 490.962C492.602 491.526 495.317 493.713 498.878 494.629Z" fill="black"/>
<path d="M508.82 448.966C505.224 452.421 501.945 455.771 498.595 459.509C499.442 454.396 503.743 449.953 508.82 448.966Z" fill="black"/>
<path d="M468.663 469.1C463.727 470.44 458.756 464.622 460.907 459.968C462.07 464.446 464.432 467.231 468.663 469.1Z" fill="black"/>
<path d="M455.478 467.584C458.792 470.123 463.163 470.969 467.359 470.793C471.554 470.581 475.609 469.417 479.628 468.289C476.49 472.344 471.801 475.165 466.795 476.082C461.788 476.999 456.394 475.976 452.022 473.331" fill="#DD6628"/>
<path opacity="0.17" d="M438.837 450.341C438.696 458.275 439.859 466.35 443.138 473.578C446.417 480.807 451.881 487.189 459.003 490.786C466.09 494.347 474.868 494.876 482.025 491.42C480.544 489.481 479.099 487.577 477.618 485.638C481.814 486.872 486.009 488.141 490.381 488.458C494.753 488.776 499.265 488.141 502.967 485.849C506.563 483.592 509.067 479.996 511.358 476.399C512.522 474.53 513.72 472.273 512.909 470.228C512.204 468.536 510.3 467.619 508.467 467.584C506.634 467.548 504.871 468.218 503.179 468.853C505.4 467.302 507.48 465.327 508.432 462.788C509.384 460.249 508.961 457.041 506.845 455.348C504.73 453.655 500.958 454.29 500.041 456.864C502.932 454.008 503.884 449.107 501.557 445.792C499.23 442.478 493.554 441.913 491.192 445.228C492.99 443.077 494.788 440.891 497.115 439.339C499.442 437.753 502.333 436.871 505.047 437.541C507.762 438.211 510.054 440.82 509.842 443.606C509.736 444.734 509.278 445.863 509.701 446.921C510.406 448.684 512.839 448.684 514.566 449.424C516.788 450.376 518.057 452.88 518.233 455.313C518.409 457.746 517.704 460.144 516.999 462.471C520.031 461.907 522.605 465.362 522.217 468.395C521.829 471.427 519.502 473.86 516.999 475.694C514.531 477.492 511.746 479.008 509.772 481.336C506.493 485.25 505.717 491.279 501.345 493.959C499.547 495.052 497.362 495.405 495.387 496.181C491.862 497.556 489.076 500.306 485.833 502.281C480.474 505.56 473.987 506.618 467.711 506.124C461.471 505.631 455.407 503.621 449.625 501.153C448.18 500.518 446.734 499.883 445.148 499.707C443.596 499.566 441.869 499.989 440.882 501.223C440 502.351 439.894 503.868 439.859 505.313C439.824 510.462 440.67 515.61 442.292 520.476C439.084 510.99 435.946 502.387 435.452 492.231C435.241 487.894 435.241 483.91 436.757 479.819C438.202 475.87 437.356 472.274 437.215 468.113C437.003 462.118 437.568 456.124 438.837 450.341Z" fill="#660000"/>
<path opacity="0.75" d="M485.762 459.474C485.762 459.474 487.314 449.601 490.487 446.921C493.66 444.206 502.58 438.952 504.06 438.917C505.541 438.917 506.845 440.503 506.634 440.186C506.422 439.869 505.4 439.728 503.003 440.644C500.605 441.561 492.32 445.722 490.275 449.389C488.23 453.056 485.762 459.721 485.762 459.721" fill="#DD6628"/>
<path opacity="0.75" d="M499.406 460.144C500.358 457.217 502.897 454.855 505.894 454.114Z" fill="#DD6628"/>
<path opacity="0.17" d="M447.439 461.166C449.096 461.766 450.33 463.106 451.846 464.022C453.327 464.939 455.478 465.327 456.712 464.093C457.628 463.176 457.734 461.766 457.769 460.461C457.91 456.582 458.016 452.703 458.157 448.825C457.205 453.197 458.792 458.028 462.176 460.955C465.561 463.881 470.567 464.763 474.763 463.176C478.958 461.589 482.096 457.57 482.66 453.127C484.775 462.33 476.455 467.125 468.84 468.853C465.032 469.735 460.872 469.453 457.205 468.218C455.16 467.513 453.221 466.526 451.494 465.257C450.33 464.41 448.638 461.625 447.439 461.166Z" fill="#660000"/>
<path opacity="0.17" d="M489.605 361.447C476.349 371.814 465.702 385.496 458.897 400.87C462.916 393.853 467.993 387.435 473.916 381.934C475.538 380.453 477.336 378.937 479.487 378.549C484.211 377.703 488.019 382.075 491.051 385.813C502.368 399.847 517.493 410.778 534.38 417.125C543.265 420.475 553.066 422.555 562.197 420.016C573.408 416.878 581.553 407.499 589.168 398.719C596.783 389.939 605.456 380.806 616.879 378.62C609.898 373.965 603.799 368.006 598.969 361.13C593.575 375.235 583.844 387.682 571.434 396.286C566.921 399.424 561.739 402.139 556.274 401.751C551.373 401.398 547.037 398.648 543.194 395.58C530.925 385.813 521.864 372.096 517.634 357.004" fill="#660000"/>
<path d="M487.313 314.162C487.313 314.162 460.413 295.544 467.641 260.846C470.743 266.03 503.355 261.869 513.72 285.177C513.72 285.177 555.639 268.604 577.886 287.504C577.886 287.504 590.296 263.949 605.315 260.846C620.334 257.743 627.562 253.089 627.562 253.089C627.562 253.089 637.398 292.441 604.257 314.162C604.257 314.162 616.808 388.175 547.636 408.874C535.438 410.46 481.637 386.13 487.313 314.162Z" fill="#DD6628"/>
<path d="M546.649 410.954C539.316 410.954 525.143 405.736 511.887 393.077C498.066 379.889 482.307 355.735 485.198 315.114C480.368 311.27 459.003 292.229 465.666 260.459L466.724 255.381L469.403 259.824C470.038 260.705 474.762 261.552 478.217 262.151C489.006 264.091 506.775 267.264 514.743 282.638C522.922 279.747 556.521 269.203 577.286 284.436C580.812 278.407 591.741 261.587 604.927 258.837C619.312 255.875 626.433 251.396 626.504 251.361L628.866 249.845L629.536 252.595C629.642 252.983 639.125 292.723 606.443 315.149C607.712 325.34 613.177 391.419 548.236 410.848C547.777 410.919 547.248 410.954 546.649 410.954ZM469.086 264.232C464.256 295.332 488.195 312.328 488.477 312.504L489.429 313.174L489.323 314.338C486.185 354.007 501.381 377.456 514.672 390.15C528.351 403.197 542.736 407.499 547.389 406.899C613.671 387.012 602.741 317.476 602.248 314.514L602.036 313.21L603.129 312.469C630.17 294.697 627.597 265.148 626.081 256.192C622.731 257.849 615.997 260.705 605.668 262.856C591.777 265.713 579.754 288.245 579.613 288.491L578.45 290.713L576.511 289.091C555.428 271.178 514.813 286.94 514.39 287.116L512.592 287.821L511.816 286.058C505.188 271.143 488.477 268.146 477.442 266.206C473.987 265.501 471.131 265.007 469.086 264.232Z" fill="black"/>
<path d="M493.765 303.76C494.47 301.644 495.74 299.705 497.467 298.224C497.044 299.281 496.621 300.339 496.198 301.397C497.256 299.105 499.054 297.131 501.239 295.826C500.323 296.355 492.849 279.676 488.371 284.26C484.387 288.28 491.685 300.092 493.765 303.76Z" fill="#EB7A8B"/>
<path d="M611.696 274.21C611.591 274.14 611.485 274.034 611.379 273.964C606.267 277.631 601.684 282.038 597.841 287.116C595.831 289.761 592.799 292.546 592.552 296.073C592.447 297.589 596.818 309.401 597.665 308.696C602.918 303.971 607.924 298.435 609.511 291.559C610.533 287.116 610.11 282.462 611.097 278.019C611.379 276.82 611.802 275.656 612.366 274.528C612.119 274.387 611.908 274.281 611.696 274.21Z" fill="#EB7A8B"/>
<path d="M537.201 389.304C537.236 389.48 539.351 396.003 540.303 397.731C541.255 399.459 541.572 399.706 541.572 399.706C541.572 399.706 546.05 399.67 546.05 399.494C546.05 399.318 546.191 398.154 546.191 398.154L546.72 399.283C546.72 399.283 550.422 399.635 551.056 399.459C551.691 399.283 554.335 389.48 554.088 389.339C553.841 389.198 550.386 388.775 548.941 387.928C547.495 387.082 546.05 386.447 545.592 386.306C545.133 386.201 543.582 387.117 543.582 387.117C543.582 387.117 539.457 388.88 539.281 388.739" fill="white"/>
<path d="M541.431 400.235L541.29 400.094C541.149 399.988 540.762 399.6 539.88 397.943C538.893 396.144 536.778 389.621 536.742 389.409L537.73 389.163C537.8 389.409 539.88 395.792 540.797 397.449C541.361 398.507 541.714 398.965 541.855 399.177C543.371 399.177 544.992 399.106 545.662 399.071C545.697 398.648 545.768 398.084 545.768 398.084L545.944 396.321L547.108 398.789C548.624 398.93 550.351 399.036 550.88 398.965C551.515 397.978 553.383 391.349 553.63 389.691C553.454 389.656 553.242 389.621 553.031 389.586C551.761 389.339 549.787 388.986 548.729 388.316C547.319 387.47 545.909 386.871 545.521 386.765C545.345 386.765 544.569 387.117 543.899 387.505C539.457 389.409 539.281 389.304 539.034 389.092L539.351 388.669V388.175C539.669 388.14 541.714 387.329 543.476 386.588C544.217 386.165 545.274 385.636 545.803 385.777C546.332 385.918 547.813 386.553 549.258 387.435C550.175 387.999 552.079 388.352 553.207 388.563C554.018 388.704 554.265 388.775 554.406 388.88C554.723 389.092 554.652 389.48 554.582 389.868C554.582 389.974 552.396 399.635 551.233 399.952C550.527 400.129 547.601 399.882 546.72 399.811H546.579C546.438 400.129 545.662 400.235 541.608 400.27L541.431 400.235Z" fill="black"/>
<path d="M473.987 277.102C485.974 273.928 500.006 283.731 501.134 296.108C494.118 286.235 485.692 280.275 473.987 277.102Z" fill="black"/>
<path d="M592.623 296.425C594.456 283.061 606.443 271.213 619.841 269.591C608.523 276.89 600.062 285.212 592.623 296.425Z" fill="black"/>
<path d="M562.126 300.163C572.104 297.906 583.315 307.25 582.857 317.476C577.287 309.26 571.222 304.183 562.126 300.163Z" fill="black"/>
<path d="M504.201 317.97C506.281 309.331 515.166 302.984 524.015 303.054C525.284 303.16 527.118 303.795 527.223 305.24C526.271 304.359 525.178 304.712 524.227 305.029C516.611 308.167 510.618 312.469 504.201 317.97Z" fill="black"/>
<path d="M488.371 281.792C489.323 289.232 491.227 296.284 494.118 303.195C488.759 297.73 486.503 289.232 488.371 281.792Z" fill="black"/>
<path d="M609.405 275.586C613.177 280.593 612.719 288.456 608.382 293.005C610.039 287.222 610.392 281.474 609.405 275.586Z" fill="black"/>
<path d="M543.653 334.684C543.653 345.58 534.803 354.43 523.909 354.43C513.015 354.43 505.294 345.58 505.294 334.684C505.294 323.788 513.015 314.938 523.909 314.938C534.839 314.938 543.653 323.788 543.653 334.684Z" fill="white"/>
<path d="M523.944 355.418C512.733 355.418 504.307 346.496 504.307 334.684C504.307 322.871 512.733 313.95 523.944 313.95C535.367 313.95 544.675 323.259 544.675 334.684C544.675 346.109 535.367 355.418 523.944 355.418ZM523.944 315.96C513.897 315.96 506.352 324 506.352 334.684C506.352 345.368 513.932 353.408 523.944 353.408C534.274 353.408 542.665 345.015 542.665 334.684C542.63 324.352 534.239 315.96 523.944 315.96Z" fill="black"/>
<path d="M586.806 332.744C586.806 343.64 578.944 352.491 568.049 352.491C557.155 352.491 548.306 343.64 548.306 332.744C548.306 321.849 557.155 312.998 568.049 312.998C578.944 312.998 586.806 321.849 586.806 332.744Z" fill="white"/>
<path d="M568.05 353.478C556.627 353.478 547.319 344.169 547.319 332.744C547.319 321.32 556.627 312.011 568.05 312.011C579.331 312.011 587.828 320.932 587.828 332.744C587.828 344.557 579.331 353.478 568.05 353.478ZM568.05 314.021C557.72 314.021 549.329 322.413 549.329 332.744C549.329 343.076 557.72 351.468 568.05 351.468C578.168 351.468 585.819 343.429 585.819 332.744C585.819 322.06 578.168 314.021 568.05 314.021Z" fill="black"/>
<path d="M533.111 367.477C532.864 368.006 539.316 376.927 544.075 377.174C548.8 377.421 553.947 369.028 555.005 366.172C556.062 363.316 538.822 355.982 533.111 367.477Z" fill="#70574B"/>
<path d="M544.287 378.196C544.181 378.196 544.111 378.196 544.005 378.196C538.999 377.914 533.358 370.121 532.512 368.676C532.194 368.112 531.912 367.583 532.194 367.018C535.967 359.367 544.886 358.944 551.55 361.8C554.829 363.21 556.486 364.973 555.922 366.525C555.04 369.064 549.858 378.196 544.287 378.196ZM534.204 367.583C535.121 369.346 540.55 375.975 544.111 376.186C544.181 376.186 544.217 376.186 544.287 376.186C548.201 376.186 553.031 368.57 554.018 365.855C553.877 365.22 550.633 363.034 546.085 362.399C542.877 361.976 537.165 362.082 534.204 367.583Z" fill="black"/>
<path d="M523.803 382.745C528.598 388.598 539.598 390.115 545.063 384.579C548.377 387.117 552.96 388.069 557.014 386.835C560.857 385.636 564.383 383.168 567.556 380.418C564.982 383.768 561.668 386.694 557.543 388.352C553.277 390.009 548.377 389.304 544.604 386.73L545.979 386.588C539.527 392.16 527.822 390.044 523.803 382.745Z" fill="black"/>
<path d="M542.524 377.209C544.604 379.995 544.992 383.944 543.476 387.047C543.934 386.483 544.675 386.13 545.38 386.13C546.085 386.13 546.825 386.483 547.284 387.082C546.332 386.024 545.944 384.508 545.873 383.098C545.768 380.418 546.72 377.738 548.447 375.728C547.389 376.292 546.12 377.315 544.922 377.209" fill="black"/>
<path d="M565.441 382.357C565.687 381.969 566.075 381.722 566.428 381.44C566.78 381.158 567.098 380.735 567.027 380.277C566.992 379.889 566.674 379.572 566.357 379.325C566.04 379.078 565.687 378.902 565.441 378.584C566.428 379.007 567.697 378.972 568.367 379.818C568.755 380.277 568.86 380.947 568.79 381.511C568.719 382.11 568.473 382.675 568.261 383.239C568.12 382.745 567.944 382.216 567.803 381.722C567.732 381.546 567.697 381.37 567.521 381.264C567.309 381.158 567.062 381.299 566.851 381.44C565.793 382.146 564.735 382.851 563.678 383.556" fill="black"/>
<path d="M525.425 384.508C525.178 384.297 524.967 384.05 524.791 383.803C524.614 383.521 524.544 383.168 524.65 382.886C524.755 382.604 524.967 382.392 525.214 382.251C525.461 382.11 525.743 382.04 526.025 381.969C525.461 382.04 524.896 381.934 524.332 381.934C523.768 381.934 523.134 382.11 522.852 382.569C522.57 382.992 522.605 383.556 522.746 384.05C522.887 384.543 523.063 385.037 523.028 385.531C523.063 385.037 523.134 384.579 523.239 384.12C523.275 383.979 523.345 383.803 523.451 383.732C523.627 383.627 523.874 383.732 524.05 383.838C524.826 384.297 525.496 384.896 526.06 385.601" fill="black"/>
<path d="M535.156 367.583C539.422 368.676 543.899 368.887 548.236 368.253Z" fill="black"/>
<path d="M542.736 402.985C545.451 403.408 547.777 403.302 550.422 402.668C548.447 404.642 544.851 404.783 542.736 402.985Z" fill="black"/>
<path d="M561.386 342.406C564.054 342.406 566.216 340.243 566.216 337.575C566.216 334.907 564.054 332.744 561.386 332.744C558.719 332.744 556.556 334.907 556.556 337.575C556.556 340.243 558.719 342.406 561.386 342.406Z" fill="black"/>
<path d="M530.996 342.406C533.663 342.406 535.826 340.243 535.826 337.575C535.826 334.907 533.663 332.744 530.996 332.744C528.328 332.744 526.166 334.907 526.166 337.575C526.166 340.243 528.328 342.406 530.996 342.406Z" fill="black"/>
<path opacity="0.49" d="M554.617 366.208C552.819 369.98 550.527 373.471 547.742 376.574C546.931 377.491 545.979 378.408 544.781 378.443C543.688 378.478 542.736 377.844 541.89 377.139C539.633 375.305 528.175 368.006 534.486 367.336C537.095 367.054 543.37 368.782 546.05 368.535C549.011 368.288 551.938 367.512 554.617 366.208Z" fill="black"/>
<path opacity="0.17" d="M592.94 295.614C595.479 290.748 600.203 287.046 605.562 285.776C604.328 293.851 601.402 301.644 597.03 308.52C588.921 292.37 572.457 280.769 554.547 278.548C561.668 282.991 568.437 288.033 574.748 293.569C576.969 295.544 579.191 297.589 580.671 300.198C582.152 302.772 582.822 305.981 581.799 308.767C575.912 304.782 569.53 301.574 562.797 299.246C568.825 301.256 574.043 305.593 577.146 311.165C568.79 308.873 559.271 311.835 553.665 318.393C559.165 315.008 566.569 315.008 572.069 318.428C577.569 321.849 580.812 328.513 580.178 334.931C579.473 341.877 574.784 347.66 570.271 352.985C572.316 351.222 575.03 350.869 577.569 349.952C580.107 349.035 582.681 347.731 584.655 349.6C586.841 351.68 587.017 355.065 586.771 358.062C585.184 376.01 573.832 391.878 559.906 403.303C576.123 395.439 589.626 382.075 597.665 365.926C605.703 349.776 608.241 330.982 604.751 313.28C622.485 301.644 631.687 278.372 626.716 257.744C627.526 261.093 621.11 266.7 618.853 268.357C615.293 271.037 610.745 272.166 607.325 275.022C604.998 276.961 603.623 279.747 601.86 282.18C598.652 286.552 595.479 290.819 592.94 295.614Z" fill="#660000"/>
<path opacity="0.23" d="M533.534 385.319C536.566 385.108 539.492 382.992 540.233 380.065C540.973 377.139 539.069 373.648 536.108 373.048C538.258 375.587 541.643 376.998 544.957 376.786C548.271 376.539 551.409 374.67 553.172 371.849C550.598 374.423 547.813 377.809 548.87 381.299C549.858 384.508 553.806 385.954 557.085 385.284C560.364 384.614 562.691 383.556 565.229 381.405C566.851 379.325 564.771 378.69 563.607 377.985C567.239 378.091 571.293 379.924 569.037 385.002C569.425 384.085 568.367 383.098 567.344 383.133C566.357 383.168 565.511 383.874 564.736 384.508C559.941 388.599 555.569 392.865 551.268 397.802C552.784 396.744 551.444 393.147 550.034 391.984C548.588 390.785 546.614 390.608 544.745 390.538C543.053 390.467 541.995 390.185 540.691 391.278C539.387 392.407 538.505 396.391 540.127 396.885C537.483 396.074 534.415 391.772 532.124 390.15C529.339 388.211 526.553 385.919 523.592 384.297C523.31 385.319 523.698 385.213 523.31 386.307C521.653 384.332 521.829 380.277 526.976 381.158C526.553 381.405 525.954 382.04 525.601 382.357C527.258 384.649 530.714 385.531 533.534 385.319Z" fill="#660000"/>
<path opacity="0.17" d="M527.223 317.547C529.127 317.194 531.101 317.159 533.04 317.265C530.291 315.819 527.259 314.938 523.944 314.938C513.05 314.938 505.329 323.788 505.329 334.684C505.329 345.58 513.05 354.43 523.944 354.43C526.342 354.43 528.634 353.937 530.749 353.161C530.784 353.055 530.855 352.949 530.855 352.843C530.89 351.927 530.008 351.221 529.127 351.045C528.246 350.869 527.329 351.116 526.412 351.221C520.666 352.068 514.672 348.647 512.028 343.464C509.384 338.281 509.948 331.757 513.015 326.821C516.118 321.849 521.512 318.569 527.223 317.547Z" fill="black"/>
<path opacity="0.17" d="M476.983 277.172C475.679 276.749 473.987 276.467 473.246 277.596C472.612 278.512 473.07 279.711 473.564 280.699C477.971 289.655 483.858 297.836 490.91 304.888C491.438 305.417 492.002 305.946 492.743 306.052C493.659 306.193 494.541 305.593 495.211 304.994C498.736 301.785 500.252 296.566 498.983 291.982C496.409 282.673 484.916 279.711 476.983 277.172Z" fill="black"/>
<path opacity="0.47" d="M606.69 264.02C612.648 262.01 619.135 261.375 624.494 258.096C621.356 261.799 618.183 265.466 615.046 269.168C615.433 268.322 615.856 267.44 616.244 266.594C605.456 266.418 595.302 272.553 588.322 280.769C586.77 282.603 585.29 284.613 584.867 286.975C584.443 289.232 585.184 291.912 587.299 293.075C584.69 290.96 582.011 288.562 583.104 285.036C584.091 281.898 586.841 278.618 588.956 276.15C593.61 270.614 599.815 266.347 606.69 264.02Z" fill="#DD6628"/>
<path opacity="0.47" d="M508.044 285.776C504.659 276.961 496.586 270.12 487.384 268.216C481.708 267.052 475.679 267.617 470.214 265.677C471.942 266.277 473.282 267.969 474.974 268.604C476.49 269.168 478.112 269.098 479.733 269.309C483.435 269.768 487.067 270.755 490.522 272.201C497.432 275.092 503.566 279.782 508.044 285.776Z" fill="#DD6628"/>
<path opacity="0.47" d="M531.384 283.59C536.989 282.709 543.088 283.026 547.777 286.235C535.473 286.481 523.239 290.113 512.804 296.602C512.063 297.06 511.006 297.518 510.406 296.884C509.983 296.46 510.089 295.755 510.23 295.191C512.804 285.812 523.098 284.895 531.384 283.59Z" fill="#DD6628"/>
<path opacity="0.75" d="M507.339 380.982C502.05 373.083 497.326 365.396 494.188 356.369C491.403 348.4 488.054 337.61 489.217 329.077C492.073 330.029 491.403 337.716 491.756 340.255C492.461 345.086 493.518 349.881 494.929 354.536C497.714 363.915 501.909 372.872 507.339 380.982Z" fill="#DD6628"/>
<path opacity="0.75" d="M538.646 365.326C539.915 364.867 541.29 364.762 542.595 365.008C543.194 365.114 543.899 365.467 543.899 366.066C543.899 366.666 543.265 366.983 542.665 367.124C541.749 367.371 540.797 367.406 539.845 367.3C539.386 367.23 538.928 367.124 538.54 366.877C538.152 366.631 537.906 366.137 538.047 365.678C538.152 365.22 538.717 364.903 539.104 365.15" fill="#DD6628"/>
<path d="M572.139 285.529C577.604 289.338 582.293 294.31 585.854 299.951C584.232 293.322 580.354 287.257 575.03 283.026" fill="black"/>
<path d="M513.473 283.132C508.538 286.481 504.589 291.242 502.227 296.707C507.938 290.572 515.271 285.917 523.239 283.308" fill="black"/>
</g>
<defs>
<clipPath id="clip0_501_48">
<rect width="1787" height="600" fill="white"/>
</clipPath>
</defs>
</svg>
