<svg width="1998" height="457" viewBox="0 0 1998 457" fill="none" xmlns="http://www.w3.org/2000/svg">
<rect x="1398" y="288.366" width="117.366" height="310.569" transform="rotate(-90 1398 288.366)" fill="#2FA4DA"/>
<path d="M1517.82 209.314L1500.82 258.611H1490.55L1511.96 201.736H1518.52L1517.82 209.314ZM1532.03 258.611L1515 209.314L1514.26 201.736H1520.86L1542.35 258.611L1532.03 258.611ZM1531.21 237.518L1531.21 245.291H1500.28L1500.28 237.518H1531.21ZM1570.32 237.4H1555.51L1555.51 229.627H1570.32C1572.89 229.627 1574.98 229.21 1576.57 228.377C1578.15 227.544 1579.31 226.398 1580.04 224.939C1580.8 223.455 1581.18 221.762 1581.18 219.861C1581.18 218.064 1580.8 216.385 1580.04 214.822C1579.31 213.234 1578.15 211.958 1576.57 210.994C1574.98 210.031 1572.89 209.549 1570.32 209.549H1558.52L1558.52 258.611H1548.71L1548.71 201.736L1570.32 201.736C1574.72 201.736 1578.45 202.518 1581.53 204.08C1584.63 205.617 1586.98 207.752 1588.6 210.486C1590.21 213.195 1591.02 216.294 1591.02 219.783C1591.02 223.455 1590.21 226.606 1588.6 229.236C1586.98 231.867 1584.63 233.885 1581.53 235.291C1578.45 236.697 1574.72 237.4 1570.32 237.4ZM1610.28 201.736L1610.28 258.611H1600.47L1600.47 201.736H1610.28Z" fill="white"/>
<rect x="485" y="288.366" width="117.366" height="310.569" transform="rotate(-90 485 288.366)" fill="#2FA4DA"/>
<path d="M570.324 201.736L570.324 258.611H560.519L560.519 201.736H570.324ZM593.527 226.619L593.527 234.393H567.824L567.824 226.619H593.527ZM596.769 201.736L596.769 209.549H567.824L567.824 201.736H596.769ZM613.722 198.611L613.722 258.611H604.269L604.269 198.611H613.722ZM634.113 216.346L634.113 258.611H624.66L624.66 216.346H634.113ZM624.035 205.252C624.035 203.82 624.503 202.635 625.441 201.697C626.404 200.734 627.733 200.252 629.425 200.252C631.092 200.252 632.407 200.734 633.371 201.697C634.334 202.635 634.816 203.82 634.816 205.252C634.816 206.658 634.334 207.83 633.371 208.768C632.407 209.705 631.092 210.174 629.425 210.174C627.733 210.174 626.404 209.705 625.441 208.768C624.503 207.83 624.035 206.658 624.035 205.252ZM653.761 225.369L653.761 258.611H644.347L644.347 216.346H653.214L653.761 225.369ZM652.081 235.916L649.035 235.877C649.061 232.882 649.477 230.135 650.285 227.635C651.118 225.135 652.264 222.986 653.722 221.189C655.206 219.393 656.977 218.012 659.035 217.049C661.092 216.059 663.384 215.564 665.91 215.564C667.941 215.564 669.777 215.851 671.417 216.424C673.084 216.971 674.503 217.869 675.675 219.119C676.873 220.369 677.785 221.997 678.41 224.002C679.035 225.981 679.347 228.416 679.347 231.307L679.347 258.611H669.894L669.894 231.268C669.894 229.236 669.595 227.635 668.996 226.463C668.423 225.265 667.576 224.419 666.456 223.924C665.363 223.403 663.996 223.143 662.355 223.143C660.74 223.143 659.295 223.481 658.019 224.158C656.743 224.835 655.662 225.76 654.777 226.932C653.917 228.104 653.253 229.458 652.785 230.994C652.316 232.531 652.081 234.171 652.081 235.916ZM698.449 198.611L698.449 258.611H688.996L688.996 198.611H698.449ZM724.699 216.346L706.3 236.736L696.222 247.049L693.761 239.08L701.378 229.666L713.331 216.346H724.699ZM715.363 258.611L701.652 238.768L707.589 232.166L726.261 258.611H715.363Z" fill="white"/>
<rect x="879" y="288.367" width="117.366" height="435.158" transform="rotate(-90 879 288.367)" fill="#2FA4DA"/>
<path d="M950.212 258.611H938.063L938.142 250.838H950.212C953.727 250.838 956.67 250.07 959.04 248.533C961.436 246.997 963.233 244.796 964.431 241.932C965.655 239.067 966.267 235.656 966.267 231.697L966.267 228.611C966.267 225.538 965.915 222.817 965.212 220.447C964.535 218.077 963.519 216.085 962.165 214.471C960.837 212.856 959.196 211.632 957.243 210.799C955.316 209.965 953.089 209.549 950.563 209.549L937.829 209.549L937.829 201.736L950.563 201.736C954.339 201.736 957.79 202.374 960.915 203.65C964.04 204.9 966.735 206.71 969.001 209.08C971.293 211.45 973.05 214.288 974.274 217.596C975.498 220.903 976.11 224.601 976.11 228.689L976.11 231.697C976.11 235.786 975.498 239.484 974.274 242.791C973.05 246.098 971.293 248.937 969.001 251.307C966.709 253.65 963.975 255.46 960.798 256.736C957.647 257.986 954.118 258.611 950.212 258.611ZM943.493 201.736L943.493 258.611H933.688L933.688 201.736L943.493 201.736ZM1008.84 250.135L1008.84 229.979C1008.84 228.468 1008.57 227.166 1008.02 226.072C1007.48 224.979 1006.64 224.132 1005.52 223.533C1004.43 222.934 1003.05 222.635 1001.38 222.635C999.847 222.635 998.519 222.895 997.399 223.416C996.28 223.937 995.407 224.64 994.782 225.525C994.157 226.411 993.845 227.413 993.845 228.533H984.47C984.47 226.867 984.873 225.252 985.681 223.689C986.488 222.127 987.66 220.734 989.196 219.51C990.733 218.286 992.569 217.322 994.704 216.619C996.839 215.916 999.235 215.564 1001.89 215.564C1005.07 215.564 1007.88 216.098 1010.33 217.166C1012.8 218.234 1014.74 219.848 1016.15 222.01C1017.58 224.145 1018.3 226.827 1018.3 230.057L1018.3 248.846C1018.3 250.773 1018.43 252.505 1018.69 254.041C1018.97 255.551 1019.38 256.867 1019.9 257.986L1019.9 258.611L1010.25 258.611C1009.81 257.596 1009.46 256.307 1009.2 254.744C1008.96 253.156 1008.84 251.619 1008.84 250.135ZM1010.21 232.908L1010.29 238.729H1003.53C1001.79 238.729 1000.25 238.898 998.923 239.236C997.595 239.549 996.488 240.018 995.602 240.643C994.717 241.268 994.053 242.023 993.61 242.908C993.168 243.794 992.946 244.796 992.946 245.916C992.946 247.036 993.207 248.064 993.727 249.002C994.248 249.913 995.004 250.63 995.993 251.15C997.009 251.671 998.233 251.932 999.665 251.932C1001.59 251.932 1003.27 251.541 1004.7 250.76C1006.16 249.952 1007.31 248.976 1008.14 247.83C1008.97 246.658 1009.42 245.551 1009.47 244.51L1012.52 248.689C1012.2 249.757 1011.67 250.903 1010.91 252.127C1010.16 253.351 1009.17 254.523 1007.95 255.643C1006.75 256.736 1005.3 257.635 1003.61 258.338C1001.94 259.041 1000.02 259.393 997.829 259.393C995.069 259.393 992.608 258.846 990.446 257.752C988.285 256.632 986.592 255.135 985.368 253.26C984.144 251.359 983.532 249.21 983.532 246.814C983.532 244.575 983.949 242.596 984.782 240.877C985.642 239.132 986.892 237.674 988.532 236.502C990.199 235.33 992.23 234.445 994.626 233.846C997.022 233.221 999.756 232.908 1002.83 232.908H1010.21ZM1047.52 216.346L1047.52 223.221L1023.69 223.221L1023.69 216.346L1047.52 216.346ZM1030.56 205.994L1039.98 205.994L1039.98 246.932C1039.98 248.234 1040.16 249.236 1040.52 249.939C1040.91 250.617 1041.45 251.072 1042.13 251.307C1042.8 251.541 1043.6 251.658 1044.51 251.658C1045.16 251.658 1045.78 251.619 1046.38 251.541C1046.98 251.463 1047.46 251.385 1047.83 251.307L1047.87 258.494C1047.09 258.729 1046.18 258.937 1045.13 259.119C1044.12 259.301 1042.95 259.393 1041.62 259.393C1039.46 259.393 1037.54 259.015 1035.88 258.26C1034.21 257.479 1032.91 256.215 1031.97 254.471C1031.03 252.726 1030.56 250.408 1030.56 247.518L1030.56 205.994ZM1078.61 250.135L1078.61 229.979C1078.61 228.468 1078.34 227.166 1077.79 226.072C1077.24 224.979 1076.41 224.132 1075.29 223.533C1074.2 222.934 1072.82 222.635 1071.15 222.635C1069.61 222.635 1068.28 222.895 1067.16 223.416C1066.05 223.937 1065.17 224.64 1064.55 225.525C1063.92 226.411 1063.61 227.413 1063.61 228.533H1054.24C1054.24 226.867 1054.64 225.252 1055.45 223.689C1056.25 222.127 1057.43 220.734 1058.96 219.51C1060.5 218.286 1062.33 217.322 1064.47 216.619C1066.61 215.916 1069 215.564 1071.66 215.564C1074.83 215.564 1077.65 216.098 1080.09 217.166C1082.57 218.234 1084.51 219.848 1085.91 222.01C1087.35 224.145 1088.06 226.827 1088.06 230.057L1088.06 248.846C1088.06 250.773 1088.19 252.505 1088.45 254.041C1088.74 255.551 1089.14 256.867 1089.66 257.986L1089.66 258.611H1080.02C1079.57 257.596 1079.22 256.307 1078.96 254.744C1078.73 253.156 1078.61 251.619 1078.61 250.135ZM1079.98 232.908L1080.06 238.729H1073.3C1071.55 238.729 1070.02 238.898 1068.69 239.236C1067.36 239.549 1066.25 240.018 1065.37 240.643C1064.48 241.268 1063.82 242.023 1063.38 242.908C1062.93 243.794 1062.71 244.796 1062.71 245.916C1062.71 247.036 1062.97 248.064 1063.49 249.002C1064.01 249.913 1064.77 250.63 1065.76 251.15C1066.77 251.671 1068 251.932 1069.43 251.932C1071.36 251.932 1073.04 251.541 1074.47 250.76C1075.93 249.952 1077.07 248.976 1077.91 247.83C1078.74 246.658 1079.18 245.551 1079.24 244.51L1082.28 248.689C1081.97 249.757 1081.44 250.903 1080.68 252.127C1079.93 253.351 1078.94 254.523 1077.71 255.643C1076.51 256.736 1075.07 257.635 1073.38 258.338C1071.71 259.041 1069.78 259.393 1067.59 259.393C1064.83 259.393 1062.37 258.846 1060.21 257.752C1058.05 256.632 1056.36 255.135 1055.13 253.26C1053.91 251.359 1053.3 249.21 1053.3 246.814C1053.3 244.575 1053.71 242.596 1054.55 240.877C1055.41 239.132 1056.66 237.674 1058.3 236.502C1059.96 235.33 1062 234.445 1064.39 233.846C1066.79 233.221 1069.52 232.908 1072.59 232.908H1079.98ZM1097.95 198.611H1107.36L1107.36 249.588L1106.46 258.611H1097.95L1097.95 198.611ZM1134.94 237.088L1134.94 237.908C1134.94 241.033 1134.59 243.911 1133.88 246.541C1133.21 249.145 1132.16 251.411 1130.76 253.338C1129.38 255.265 1127.66 256.762 1125.6 257.83C1123.57 258.872 1121.21 259.393 1118.53 259.393C1115.9 259.393 1113.61 258.898 1111.66 257.908C1109.7 256.919 1108.06 255.512 1106.74 253.689C1105.43 251.867 1104.38 249.692 1103.57 247.166C1102.76 244.64 1102.19 241.854 1101.85 238.807L1101.85 236.189C1102.19 233.117 1102.76 230.33 1103.57 227.83C1104.38 225.304 1105.43 223.13 1106.74 221.307C1108.06 219.458 1109.69 218.038 1111.62 217.049C1113.57 216.059 1115.85 215.564 1118.45 215.564C1121.16 215.564 1123.55 216.085 1125.6 217.127C1127.69 218.169 1129.42 219.653 1130.8 221.58C1132.18 223.481 1133.21 225.747 1133.88 228.377C1134.59 231.007 1134.94 233.911 1134.94 237.088ZM1125.52 237.908L1125.52 237.088C1125.52 235.187 1125.37 233.403 1125.06 231.736C1124.74 230.044 1124.22 228.559 1123.49 227.283C1122.79 226.007 1121.83 225.005 1120.6 224.275C1119.4 223.52 1117.91 223.143 1116.11 223.143C1114.44 223.143 1113.01 223.429 1111.81 224.002C1110.62 224.575 1109.61 225.356 1108.81 226.346C1108 227.335 1107.36 228.481 1106.89 229.783C1106.45 231.085 1106.15 232.492 1105.99 234.002L1105.99 241.072C1106.23 243.025 1106.72 244.822 1107.48 246.463C1108.26 248.077 1109.35 249.38 1110.76 250.369C1112.16 251.333 1113.97 251.814 1116.19 251.814C1117.93 251.814 1119.4 251.463 1120.6 250.76C1121.8 250.057 1122.75 249.08 1123.45 247.83C1124.18 246.554 1124.7 245.07 1125.02 243.377C1125.36 241.684 1125.52 239.861 1125.52 237.908ZM1166.74 250.135L1166.74 229.979C1166.74 228.468 1166.46 227.166 1165.91 226.072C1165.37 224.979 1164.53 224.132 1163.41 223.533C1162.32 222.934 1160.94 222.635 1159.27 222.635C1157.74 222.635 1156.41 222.895 1155.29 223.416C1154.17 223.937 1153.3 224.64 1152.67 225.525C1152.05 226.411 1151.74 227.413 1151.74 228.533H1142.36C1142.36 226.867 1142.76 225.252 1143.57 223.689C1144.38 222.127 1145.55 220.734 1147.09 219.51C1148.62 218.286 1150.46 217.322 1152.59 216.619C1154.73 215.916 1157.13 215.564 1159.78 215.564C1162.96 215.564 1165.77 216.098 1168.22 217.166C1170.69 218.234 1172.63 219.848 1174.04 222.01C1175.47 224.145 1176.19 226.827 1176.19 230.057L1176.19 248.846C1176.19 250.773 1176.32 252.505 1176.58 254.041C1176.87 255.551 1177.27 256.867 1177.79 257.986L1177.79 258.611H1168.14C1167.7 257.596 1167.35 256.307 1167.09 254.744C1166.85 253.156 1166.74 251.619 1166.74 250.135ZM1168.1 232.908L1168.18 238.729H1161.42C1159.68 238.729 1158.14 238.898 1156.81 239.236C1155.49 239.549 1154.38 240.018 1153.49 240.643C1152.61 241.268 1151.94 242.023 1151.5 242.908C1151.06 243.794 1150.84 244.796 1150.84 245.916C1150.84 247.036 1151.1 248.064 1151.62 249.002C1152.14 249.913 1152.89 250.63 1153.88 251.15C1154.9 251.671 1156.12 251.932 1157.56 251.932C1159.48 251.932 1161.16 251.541 1162.59 250.76C1164.05 249.952 1165.2 248.976 1166.03 247.83C1166.87 246.658 1167.31 245.551 1167.36 244.51L1170.41 248.689C1170.09 249.757 1169.56 250.903 1168.81 252.127C1168.05 253.351 1167.06 254.523 1165.84 255.643C1164.64 256.736 1163.19 257.635 1161.5 258.338C1159.83 259.041 1157.91 259.393 1155.72 259.393C1152.96 259.393 1150.5 258.846 1148.34 257.752C1146.18 256.632 1144.48 255.135 1143.26 253.26C1142.03 251.359 1141.42 249.21 1141.42 246.814C1141.42 244.575 1141.84 242.596 1142.67 240.877C1143.53 239.132 1144.78 237.674 1146.42 236.502C1148.09 235.33 1150.12 234.445 1152.52 233.846C1154.91 233.221 1157.65 232.908 1160.72 232.908H1168.1ZM1209.74 247.166C1209.74 246.229 1209.51 245.382 1209.04 244.627C1208.57 243.846 1207.67 243.143 1206.34 242.518C1205.04 241.893 1203.12 241.32 1200.56 240.799C1198.32 240.304 1196.27 239.718 1194.39 239.041C1192.54 238.338 1190.95 237.492 1189.63 236.502C1188.3 235.512 1187.27 234.34 1186.54 232.986C1185.81 231.632 1185.45 230.07 1185.45 228.299C1185.45 226.58 1185.82 224.952 1186.58 223.416C1187.33 221.88 1188.41 220.525 1189.82 219.354C1191.23 218.182 1192.93 217.257 1194.94 216.58C1196.97 215.903 1199.24 215.564 1201.74 215.564C1205.28 215.564 1208.31 216.163 1210.84 217.361C1213.39 218.533 1215.34 220.135 1216.7 222.166C1218.05 224.171 1218.73 226.437 1218.73 228.963H1209.31C1209.31 227.843 1209.03 226.801 1208.45 225.838C1207.91 224.848 1207.07 224.054 1205.95 223.455C1204.83 222.83 1203.43 222.518 1201.74 222.518C1200.12 222.518 1198.78 222.778 1197.71 223.299C1196.67 223.794 1195.89 224.445 1195.37 225.252C1194.87 226.059 1194.63 226.945 1194.63 227.908C1194.63 228.611 1194.76 229.249 1195.02 229.822C1195.3 230.369 1195.77 230.877 1196.42 231.346C1197.07 231.788 1197.96 232.205 1199.08 232.596C1200.22 232.986 1201.66 233.364 1203.38 233.729C1206.61 234.406 1209.38 235.278 1211.7 236.346C1214.04 237.387 1215.84 238.742 1217.09 240.408C1218.34 242.049 1218.96 244.132 1218.96 246.658C1218.96 248.533 1218.56 250.252 1217.75 251.814C1216.97 253.351 1215.82 254.692 1214.31 255.838C1212.8 256.958 1210.99 257.83 1208.88 258.455C1206.8 259.08 1204.46 259.393 1201.85 259.393C1198.02 259.393 1194.78 258.715 1192.13 257.361C1189.47 255.981 1187.45 254.223 1186.07 252.088C1184.72 249.926 1184.04 247.687 1184.04 245.369L1193.14 245.369C1193.25 247.114 1193.73 248.507 1194.59 249.549C1195.47 250.564 1196.57 251.307 1197.87 251.775C1199.2 252.218 1200.56 252.439 1201.97 252.439C1203.66 252.439 1205.08 252.218 1206.23 251.775C1207.37 251.307 1208.25 250.682 1208.84 249.9C1209.44 249.093 1209.74 248.182 1209.74 247.166ZM1245.84 259.393C1242.71 259.393 1239.89 258.885 1237.36 257.869C1234.86 256.827 1232.72 255.382 1230.95 253.533C1229.21 251.684 1227.87 249.51 1226.93 247.01C1225.99 244.51 1225.52 241.814 1225.52 238.924L1225.52 237.361C1225.52 234.054 1226.01 231.059 1226.97 228.377C1227.93 225.695 1229.27 223.403 1230.99 221.502C1232.71 219.575 1234.74 218.104 1237.09 217.088C1239.43 216.072 1241.97 215.564 1244.7 215.564C1247.72 215.564 1250.37 216.072 1252.63 217.088C1254.9 218.104 1256.77 219.536 1258.26 221.385C1259.77 223.208 1260.89 225.382 1261.62 227.908C1262.37 230.434 1262.75 233.221 1262.75 236.268L1262.75 240.291L1230.09 240.291L1230.09 233.533H1253.45L1253.45 232.791C1253.4 231.098 1253.06 229.51 1252.44 228.025C1251.84 226.541 1250.91 225.343 1249.66 224.432C1248.41 223.52 1246.75 223.064 1244.66 223.064C1243.1 223.064 1241.71 223.403 1240.49 224.08C1239.29 224.731 1238.28 225.682 1237.48 226.932C1236.67 228.182 1236.05 229.692 1235.6 231.463C1235.19 233.208 1234.98 235.174 1234.98 237.361L1234.98 238.924C1234.98 240.773 1235.22 242.492 1235.72 244.08C1236.24 245.643 1237 247.01 1237.99 248.182C1238.97 249.354 1240.17 250.278 1241.58 250.955C1242.99 251.606 1244.59 251.932 1246.38 251.932C1248.65 251.932 1250.67 251.476 1252.44 250.564C1254.21 249.653 1255.75 248.364 1257.05 246.697L1262.01 251.502C1261.1 252.83 1259.91 254.106 1258.45 255.33C1257 256.528 1255.21 257.505 1253.1 258.26C1251.02 259.015 1248.6 259.393 1245.84 259.393Z" fill="white"/>
<rect x="30" y="148.367" width="117.366" height="328.626" transform="rotate(-90 30 148.367)" fill="#2FA4DA"/>
<path d="M122.965 67.4004L122.965 113.611H114.999L114.999 67.4004H122.965ZM150.736 67.4004L132.011 89.6489L121.346 100.948L119.95 93.0449L127.567 83.6504L141.024 67.4004H150.736ZM142.167 113.611L126.964 91.7119L132.455 86.2847L151.625 113.611H142.167ZM174.667 106.724L174.667 90.3472C174.667 89.12 174.445 88.062 174 87.1733C173.556 86.2847 172.879 85.597 171.969 85.1104C171.08 84.6237 169.959 84.3804 168.605 84.3804C167.356 84.3804 166.277 84.592 165.367 85.0151C164.458 85.4383 163.749 86.0096 163.241 86.729C162.733 87.4484 162.479 88.263 162.479 89.1729H154.862C154.862 87.8187 155.19 86.5068 155.846 85.2373C156.502 83.9678 157.454 82.8358 158.702 81.8413C159.951 80.8468 161.443 80.064 163.178 79.4927C164.913 78.9214 166.859 78.6357 169.017 78.6357C171.599 78.6357 173.884 79.0695 175.873 79.937C177.883 80.8045 179.459 82.1164 180.602 83.8726C181.766 85.6076 182.347 87.7869 182.347 90.4106L182.347 105.677C182.347 107.243 182.453 108.65 182.665 109.898C182.898 111.125 183.226 112.194 183.649 113.104L183.649 113.611H175.809C175.45 112.786 175.164 111.739 174.952 110.469C174.762 109.179 174.667 107.93 174.667 106.724ZM175.778 92.7275L175.841 97.4565H170.35C168.933 97.4565 167.684 97.5941 166.605 97.8691C165.526 98.123 164.627 98.5039 163.908 99.0117C163.188 99.5195 162.649 100.133 162.289 100.853C161.929 101.572 161.749 102.387 161.749 103.296C161.749 104.206 161.961 105.042 162.384 105.804C162.807 106.544 163.421 107.126 164.225 107.549C165.05 107.972 166.045 108.184 167.208 108.184C168.774 108.184 170.139 107.867 171.303 107.232C172.487 106.576 173.418 105.783 174.096 104.852C174.773 103.899 175.132 103 175.175 102.154L177.65 105.55C177.396 106.417 176.963 107.348 176.349 108.343C175.735 109.337 174.931 110.289 173.937 111.199C172.964 112.088 171.789 112.818 170.414 113.389C169.06 113.96 167.494 114.246 165.717 114.246C163.474 114.246 161.474 113.802 159.718 112.913C157.962 112.003 156.587 110.787 155.592 109.263C154.598 107.719 154.1 105.973 154.1 104.026C154.1 102.207 154.439 100.599 155.116 99.2021C155.814 97.7845 156.83 96.5996 158.163 95.6475C159.517 94.6953 161.167 93.9759 163.114 93.4893C165.061 92.9814 167.282 92.7275 169.779 92.7275H175.778ZM200.692 113.611H193.043L193.043 75.9697C193.043 73.4095 193.519 71.2619 194.471 69.5269C195.445 67.7707 196.831 66.4482 198.629 65.5596C200.428 64.6497 202.554 64.1948 205.009 64.1948C205.77 64.1948 206.521 64.2477 207.262 64.3535C208.003 64.4382 208.722 64.5757 209.42 64.7661L209.23 70.6694C208.807 70.5636 208.341 70.4896 207.833 70.4473C207.347 70.4049 206.818 70.3838 206.246 70.3838C205.083 70.3838 204.078 70.606 203.231 71.0503C202.406 71.4735 201.771 72.0977 201.327 72.9229C200.904 73.748 200.692 74.7637 200.692 75.9697L200.692 113.611ZM207.77 79.2705L207.77 84.8564H187.775L187.775 79.2705H207.77ZM221.036 64.8613L221.036 113.611H213.356L213.356 64.8613L221.036 64.8613ZM242.365 79.2705L227.416 95.8379L219.227 104.217L217.228 97.7422L223.417 90.0933L233.129 79.2705H242.365ZM234.779 113.611L223.639 97.4883L228.463 92.1245L243.634 113.611H234.779ZM266.581 106.724L266.581 90.3472C266.581 89.12 266.359 88.062 265.914 87.1733C265.47 86.2847 264.793 85.597 263.883 85.1104C262.994 84.6237 261.873 84.3804 260.519 84.3804C259.27 84.3804 258.191 84.592 257.282 85.0151C256.372 85.4383 255.663 86.0096 255.155 86.729C254.647 87.4484 254.393 88.263 254.393 89.1729H246.776C246.776 87.8187 247.104 86.5068 247.76 85.2373C248.416 83.9678 249.368 82.8358 250.617 81.8413C251.865 80.8468 253.357 80.064 255.092 79.4927C256.827 78.9214 258.773 78.6357 260.931 78.6357C263.513 78.6357 265.798 79.0695 267.787 79.937C269.797 80.8045 271.373 82.1164 272.516 83.8726C273.68 85.6076 274.262 87.7869 274.262 90.4106L274.262 105.677C274.262 107.243 274.367 108.65 274.579 109.898C274.812 111.125 275.14 112.194 275.563 113.104L275.563 113.611H267.723C267.364 112.786 267.078 111.739 266.867 110.469C266.676 109.179 266.581 107.93 266.581 106.724ZM267.692 92.7275L267.755 97.4565H262.264C260.847 97.4565 259.598 97.5941 258.519 97.8691C257.44 98.123 256.541 98.5039 255.822 99.0117C255.102 99.5195 254.563 100.133 254.203 100.853C253.843 101.572 253.663 102.387 253.663 103.296C253.663 104.206 253.875 105.042 254.298 105.804C254.721 106.544 255.335 107.126 256.139 107.549C256.964 107.972 257.959 108.184 259.122 108.184C260.688 108.184 262.053 107.867 263.217 107.232C264.401 106.576 265.332 105.783 266.01 104.852C266.687 103.899 267.046 103 267.089 102.154L269.564 105.55C269.31 106.417 268.877 107.348 268.263 108.343C267.649 109.337 266.845 110.289 265.851 111.199C264.878 112.088 263.703 112.818 262.328 113.389C260.974 113.96 259.408 114.246 257.631 114.246C255.388 114.246 253.388 113.802 251.632 112.913C249.876 112.003 248.501 110.787 247.506 109.263C246.512 107.719 246.014 105.973 246.014 104.026C246.014 102.207 246.353 100.599 247.03 99.2021C247.728 97.7845 248.744 96.5996 250.077 95.6475C251.431 94.6953 253.082 93.9759 255.028 93.4893C256.975 92.9814 259.196 92.7275 261.693 92.7275H267.692Z" fill="white"/>
<rect x="30" y="288.367" width="117.366" height="328.626" transform="rotate(-90 30 288.367)" fill="#2FA4DA"/>
<path d="M138.358 207.4L138.358 253.611H130.392L130.392 207.4H138.358ZM157.211 227.618L157.211 233.934H136.327L136.327 227.618H157.211ZM159.845 207.4L159.845 213.748H136.327L136.327 207.4H159.845ZM173.619 219.271L173.619 253.611L165.939 253.611L165.939 219.271H173.619ZM165.431 210.257C165.431 209.093 165.812 208.13 166.574 207.369C167.356 206.586 168.436 206.194 169.811 206.194C171.165 206.194 172.234 206.586 173.016 207.369C173.799 208.13 174.191 209.093 174.191 210.257C174.191 211.399 173.799 212.352 173.016 213.113C172.234 213.875 171.165 214.256 169.811 214.256C168.436 214.256 167.356 213.875 166.574 213.113C165.812 212.352 165.431 211.399 165.431 210.257ZM190.187 204.861L190.187 253.611H182.506L182.506 204.861H190.187ZM213.705 254.246C211.166 254.246 208.87 253.833 206.818 253.008C204.786 252.162 203.051 250.988 201.613 249.485C200.195 247.983 199.105 246.216 198.344 244.185C197.582 242.154 197.201 239.964 197.201 237.615L197.201 236.346C197.201 233.659 197.592 231.225 198.375 229.046C199.158 226.867 200.248 225.005 201.644 223.46C203.041 221.894 204.691 220.699 206.596 219.874C208.5 219.048 210.563 218.636 212.784 218.636C215.239 218.636 217.387 219.048 219.227 219.874C221.068 220.699 222.592 221.862 223.798 223.365C225.025 224.846 225.935 226.613 226.527 228.665C227.141 230.717 227.448 232.981 227.448 235.457L227.448 238.726H200.914L200.914 233.235H219.894L219.894 232.632C219.852 231.257 219.576 229.966 219.069 228.76C218.582 227.554 217.831 226.581 216.815 225.84C215.8 225.1 214.445 224.729 212.753 224.729C211.483 224.729 210.351 225.005 209.357 225.555C208.383 226.084 207.569 226.856 206.913 227.872C206.257 228.887 205.749 230.114 205.389 231.553C205.051 232.971 204.882 234.568 204.882 236.346L204.882 237.615C204.882 239.118 205.083 240.514 205.485 241.805C205.908 243.074 206.521 244.185 207.325 245.137C208.13 246.089 209.103 246.84 210.245 247.391C211.388 247.92 212.689 248.184 214.149 248.184C215.99 248.184 217.63 247.814 219.069 247.073C220.507 246.333 221.756 245.285 222.814 243.931L226.845 247.835C226.104 248.914 225.141 249.951 223.956 250.945C222.771 251.919 221.322 252.712 219.608 253.326C217.915 253.939 215.948 254.246 213.705 254.246ZM252.679 244.312C252.679 243.55 252.489 242.863 252.108 242.249C251.727 241.614 250.997 241.043 249.918 240.535C248.86 240.027 247.295 239.562 245.221 239.139C243.401 238.737 241.73 238.261 240.206 237.71C238.704 237.139 237.413 236.451 236.334 235.647C235.255 234.843 234.419 233.891 233.827 232.791C233.235 231.691 232.938 230.421 232.938 228.982C232.938 227.586 233.245 226.264 233.859 225.015C234.472 223.767 235.35 222.667 236.493 221.714C237.636 220.762 239.021 220.011 240.651 219.461C242.301 218.911 244.142 218.636 246.173 218.636C249.051 218.636 251.516 219.122 253.568 220.096C255.642 221.048 257.229 222.349 258.329 224C259.429 225.629 259.979 227.47 259.979 229.522H252.33C252.33 228.612 252.098 227.766 251.632 226.983C251.188 226.179 250.511 225.534 249.601 225.047C248.691 224.539 247.548 224.285 246.173 224.285C244.861 224.285 243.772 224.497 242.904 224.92C242.058 225.322 241.423 225.851 241 226.507C240.598 227.163 240.397 227.882 240.397 228.665C240.397 229.236 240.503 229.755 240.714 230.22C240.947 230.665 241.328 231.077 241.857 231.458C242.386 231.818 243.105 232.156 244.015 232.474C244.946 232.791 246.11 233.098 247.506 233.394C250.13 233.944 252.383 234.653 254.266 235.521C256.171 236.367 257.631 237.467 258.646 238.821C259.662 240.154 260.17 241.847 260.17 243.899C260.17 245.423 259.842 246.819 259.186 248.089C258.551 249.337 257.62 250.427 256.393 251.358C255.166 252.268 253.695 252.977 251.981 253.484C250.289 253.992 248.384 254.246 246.268 254.246C243.158 254.246 240.524 253.696 238.366 252.596C236.207 251.474 234.568 250.046 233.446 248.311C232.346 246.555 231.796 244.735 231.796 242.852H239.191C239.275 244.27 239.667 245.402 240.365 246.248C241.084 247.073 241.973 247.676 243.031 248.057C244.11 248.417 245.221 248.597 246.364 248.597C247.739 248.597 248.892 248.417 249.823 248.057C250.754 247.676 251.463 247.168 251.95 246.534C252.436 245.878 252.679 245.137 252.679 244.312Z" fill="white"/>
<rect x="30" y="428.367" width="117.366" height="328.626" transform="rotate(-90 30 428.367)" fill="#2FA4DA"/>
<path d="M60.0916 393.611H50.221L50.2845 387.295H60.0916C62.948 387.295 65.339 386.671 67.2645 385.423C69.2111 384.174 70.671 382.387 71.6443 380.059C72.6388 377.732 73.136 374.96 73.136 371.744L73.136 369.236C73.136 366.74 72.8504 364.528 72.2791 362.603C71.729 360.678 70.9038 359.059 69.8035 357.747C68.7244 356.435 67.3914 355.441 65.8045 354.764C64.2387 354.087 62.4297 353.748 60.3772 353.748H50.0306L50.0306 347.4H60.3772C63.4453 347.4 66.2488 347.919 68.7879 348.956C71.327 349.971 73.5169 351.442 75.3577 353.367C77.2197 355.293 78.6479 357.599 79.6424 360.286C80.6368 362.973 81.1341 365.978 81.1341 369.3L81.1341 371.744C81.1341 375.066 80.6368 378.07 79.6424 380.757C78.6479 383.444 77.2197 385.751 75.3577 387.676C73.4957 389.581 71.2741 391.051 68.6927 392.088C66.1325 393.104 63.2654 393.611 60.0916 393.611ZM54.6326 347.4L54.6326 393.611H46.6663L46.6663 347.4H54.6326ZM107.731 386.724L107.731 370.347C107.731 369.12 107.509 368.062 107.064 367.173C106.62 366.285 105.943 365.597 105.033 365.11C104.144 364.624 103.023 364.38 101.669 364.38C100.42 364.38 99.3413 364.592 98.4314 365.015C97.5216 365.438 96.8128 366.01 96.305 366.729C95.7972 367.448 95.5433 368.263 95.5433 369.173H87.9261C87.9261 367.819 88.254 366.507 88.91 365.237C89.5659 363.968 90.518 362.836 91.7664 361.841C93.0148 360.847 94.5065 360.064 96.2415 359.493C97.9765 358.921 99.9231 358.636 102.081 358.636C104.663 358.636 106.948 359.069 108.937 359.937C110.947 360.805 112.523 362.116 113.666 363.873C114.83 365.608 115.411 367.787 115.411 370.411L115.411 385.677C115.411 387.243 115.517 388.65 115.729 389.898C115.962 391.125 116.29 392.194 116.713 393.104L116.713 393.611H108.873C108.514 392.786 108.228 391.739 108.016 390.469C107.826 389.179 107.731 387.93 107.731 386.724ZM108.842 372.728L108.905 377.457H103.414C101.997 377.457 100.748 377.594 99.6692 377.869C98.5901 378.123 97.6909 378.504 96.9715 379.012C96.2521 379.52 95.7125 380.133 95.3528 380.853C94.9931 381.572 94.8133 382.387 94.8133 383.296C94.8133 384.206 95.0249 385.042 95.448 385.804C95.8712 386.544 96.4848 387.126 97.2889 387.549C98.1141 387.972 99.1085 388.184 100.272 388.184C101.838 388.184 103.203 387.867 104.367 387.232C105.551 386.576 106.482 385.783 107.159 384.852C107.837 383.899 108.196 383 108.239 382.154L110.714 385.55C110.46 386.417 110.026 387.348 109.413 388.343C108.799 389.337 107.995 390.289 107.001 391.199C106.027 392.088 104.853 392.818 103.478 393.389C102.124 393.96 100.558 394.246 98.7806 394.246C96.5377 394.246 94.5382 393.802 92.782 392.913C91.0258 392.003 89.6505 390.787 88.6561 389.263C87.6616 387.719 87.1644 385.973 87.1644 384.026C87.1644 382.207 87.5029 380.599 88.18 379.202C88.8782 377.785 89.8938 376.6 91.2269 375.647C92.581 374.695 94.2314 373.976 96.178 373.489C98.1246 372.981 100.346 372.728 102.843 372.728H108.842ZM139.152 359.271L139.152 364.856H119.791L119.791 359.271H139.152ZM125.377 350.86H133.026L133.026 384.122C133.026 385.18 133.174 385.994 133.471 386.565C133.788 387.116 134.222 387.486 134.772 387.676C135.322 387.867 135.967 387.962 136.708 387.962C137.237 387.962 137.745 387.93 138.231 387.867C138.718 387.803 139.109 387.74 139.406 387.676L139.437 393.516C138.803 393.707 138.062 393.876 137.216 394.024C136.39 394.172 135.438 394.246 134.359 394.246C132.603 394.246 131.048 393.939 129.694 393.326C128.339 392.691 127.282 391.665 126.52 390.247C125.758 388.829 125.377 386.946 125.377 384.598L125.377 350.86ZM164.415 386.724L164.415 370.347C164.415 369.12 164.193 368.062 163.749 367.173C163.304 366.285 162.627 365.597 161.718 365.11C160.829 364.624 159.707 364.38 158.353 364.38C157.105 364.38 156.026 364.592 155.116 365.015C154.206 365.438 153.497 366.01 152.99 366.729C152.482 367.448 152.228 368.263 152.228 369.173H144.611C144.611 367.819 144.939 366.507 145.595 365.237C146.25 363.968 147.203 362.836 148.451 361.841C149.699 360.847 151.191 360.064 152.926 359.493C154.661 358.921 156.608 358.636 158.766 358.636C161.347 358.636 163.632 359.069 165.621 359.937C167.631 360.805 169.208 362.116 170.35 363.873C171.514 365.608 172.096 367.787 172.096 370.411L172.096 385.677C172.096 387.243 172.202 388.65 172.413 389.898C172.646 391.125 172.974 392.194 173.397 393.104L173.397 393.611L165.558 393.611C165.198 392.786 164.913 391.739 164.701 390.469C164.511 389.179 164.415 387.93 164.415 386.724ZM165.526 372.728L165.59 377.457H160.099C158.681 377.457 157.433 377.594 156.354 377.869C155.275 378.123 154.375 378.504 153.656 379.012C152.937 379.52 152.397 380.133 152.037 380.853C151.678 381.572 151.498 382.387 151.498 383.296C151.498 384.206 151.709 385.042 152.133 385.804C152.556 386.544 153.169 387.126 153.973 387.549C154.799 387.972 155.793 388.184 156.957 388.184C158.523 388.184 159.887 387.867 161.051 387.232C162.236 386.576 163.167 385.783 163.844 384.852C164.521 383.899 164.881 383 164.923 382.154L167.399 385.55C167.145 386.417 166.711 387.348 166.097 388.343C165.484 389.337 164.68 390.289 163.685 391.199C162.712 392.088 161.538 392.818 160.162 393.389C158.808 393.96 157.242 394.246 155.465 394.246C153.222 394.246 151.223 393.802 149.467 392.913C147.71 392.003 146.335 390.787 145.341 389.263C144.346 387.719 143.849 385.973 143.849 384.026C143.849 382.207 144.187 380.599 144.865 379.202C145.563 377.785 146.578 376.6 147.911 375.647C149.266 374.695 150.916 373.976 152.863 373.489C154.809 372.981 157.031 372.728 159.528 372.728H165.526ZM221.354 381.709C221.354 380.757 221.206 379.911 220.909 379.17C220.634 378.43 220.137 377.753 219.418 377.139C218.698 376.526 217.683 375.933 216.371 375.362C215.08 374.769 213.43 374.166 211.42 373.553C209.219 372.876 207.188 372.125 205.326 371.299C203.485 370.453 201.877 369.48 200.502 368.379C199.126 367.258 198.058 365.978 197.296 364.539C196.534 363.079 196.154 361.397 196.154 359.493C196.154 357.61 196.545 355.896 197.328 354.351C198.132 352.806 199.264 351.473 200.724 350.352C202.205 349.209 203.951 348.331 205.961 347.718C207.971 347.083 210.193 346.766 212.626 346.766C216.054 346.766 219.005 347.4 221.481 348.67C223.978 349.939 225.892 351.643 227.225 353.78C228.58 355.917 229.257 358.276 229.257 360.857H221.354C221.354 359.334 221.026 357.99 220.37 356.827C219.735 355.642 218.762 354.711 217.45 354.034C216.159 353.357 214.519 353.018 212.531 353.018C210.647 353.018 209.082 353.304 207.833 353.875C206.585 354.446 205.654 355.219 205.04 356.192C204.427 357.165 204.12 358.265 204.12 359.493C204.12 360.36 204.321 361.154 204.723 361.873C205.125 362.571 205.739 363.227 206.564 363.841C207.389 364.433 208.426 364.994 209.674 365.523C210.922 366.052 212.393 366.56 214.086 367.046C216.646 367.808 218.878 368.654 220.783 369.585C222.687 370.495 224.274 371.532 225.543 372.696C226.813 373.86 227.765 375.182 228.4 376.663C229.034 378.123 229.352 379.784 229.352 381.646C229.352 383.593 228.96 385.349 228.178 386.915C227.395 388.459 226.273 389.782 224.813 390.882C223.374 391.961 221.639 392.797 219.608 393.389C217.598 393.96 215.355 394.246 212.88 394.246C210.658 394.246 208.468 393.95 206.31 393.357C204.173 392.765 202.226 391.866 200.47 390.66C198.714 389.432 197.317 387.909 196.281 386.089C195.244 384.249 194.725 382.101 194.725 379.646H202.692C202.692 381.149 202.946 382.429 203.453 383.487C203.982 384.545 204.712 385.412 205.643 386.089C206.574 386.745 207.653 387.232 208.881 387.549C210.129 387.867 211.462 388.025 212.88 388.025C214.742 388.025 216.297 387.761 217.545 387.232C218.815 386.703 219.767 385.962 220.402 385.01C221.036 384.058 221.354 382.958 221.354 381.709ZM251.378 359.271L251.378 364.856H232.018L232.018 359.271H251.378ZM237.604 350.86H245.253L245.253 384.122C245.253 385.18 245.401 385.994 245.697 386.565C246.014 387.116 246.448 387.486 246.998 387.676C247.548 387.867 248.194 387.962 248.934 387.962C249.463 387.962 249.971 387.93 250.458 387.867C250.944 387.803 251.336 387.74 251.632 387.676L251.664 393.516C251.029 393.707 250.289 393.876 249.442 394.024C248.617 394.172 247.665 394.246 246.586 394.246C244.83 394.246 243.274 393.939 241.92 393.326C240.566 392.691 239.508 391.665 238.746 390.247C237.985 388.829 237.604 386.946 237.604 384.598L237.604 350.86ZM255.06 376.822L255.06 376.092C255.06 373.616 255.42 371.32 256.139 369.205C256.858 367.068 257.895 365.216 259.249 363.65C260.625 362.063 262.296 360.836 264.264 359.969C266.253 359.08 268.496 358.636 270.992 358.636C273.51 358.636 275.753 359.08 277.721 359.969C279.71 360.836 281.392 362.063 282.767 363.65C284.143 365.216 285.19 367.068 285.909 369.205C286.629 371.32 286.989 373.616 286.989 376.092L286.989 376.822C286.989 379.297 286.629 381.593 285.909 383.709C285.19 385.825 284.143 387.676 282.767 389.263C281.392 390.829 279.721 392.056 277.753 392.945C275.785 393.812 273.553 394.246 271.056 394.246C268.538 394.246 266.285 393.812 264.296 392.945C262.328 392.056 260.656 390.829 259.281 389.263C257.906 387.676 256.858 385.825 256.139 383.709C255.42 381.593 255.06 379.297 255.06 376.822ZM262.709 376.092L262.709 376.822C262.709 378.366 262.867 379.826 263.185 381.202C263.502 382.577 263.999 383.783 264.677 384.82C265.354 385.857 266.221 386.671 267.279 387.264C268.337 387.856 269.596 388.152 271.056 388.152C272.474 388.152 273.701 387.856 274.738 387.264C275.796 386.671 276.663 385.857 277.34 384.82C278.017 383.783 278.514 382.577 278.832 381.202C279.17 379.826 279.34 378.366 279.34 376.822L279.34 376.092C279.34 374.568 279.17 373.13 278.832 371.775C278.514 370.4 278.007 369.183 277.308 368.125C276.631 367.068 275.764 366.242 274.706 365.65C273.669 365.036 272.431 364.729 270.992 364.729C269.554 364.729 268.305 365.036 267.247 365.65C266.211 366.242 265.354 367.068 264.677 368.125C263.999 369.183 263.502 370.4 263.185 371.775C262.867 373.13 262.709 374.568 262.709 376.092ZM301.08 365.809L301.08 393.611H293.431L293.431 359.271H300.731L301.08 365.809ZM311.586 359.048L311.522 366.158C311.057 366.073 310.549 366.01 309.999 365.967C309.47 365.925 308.941 365.904 308.412 365.904C307.1 365.904 305.947 366.094 304.952 366.475C303.958 366.835 303.122 367.364 302.445 368.062C301.789 368.739 301.281 369.564 300.922 370.538C300.562 371.511 300.35 372.601 300.287 373.807L298.541 373.934C298.541 371.775 298.753 369.776 299.176 367.935C299.599 366.094 300.234 364.476 301.08 363.079C301.948 361.683 303.027 360.593 304.318 359.81C305.63 359.027 307.142 358.636 308.856 358.636C309.322 358.636 309.819 358.678 310.348 358.763C310.898 358.847 311.311 358.943 311.586 359.048ZM330.883 394.246C328.344 394.246 326.048 393.833 323.995 393.008C321.964 392.162 320.229 390.988 318.79 389.485C317.373 387.983 316.283 386.216 315.521 384.185C314.76 382.154 314.379 379.964 314.379 377.615L314.379 376.346C314.379 373.659 314.77 371.225 315.553 369.046C316.336 366.867 317.426 365.005 318.822 363.46C320.219 361.894 321.869 360.699 323.773 359.874C325.678 359.048 327.741 358.636 329.962 358.636C332.417 358.636 334.564 359.048 336.405 359.874C338.246 360.699 339.769 361.862 340.975 363.365C342.203 364.846 343.112 366.613 343.705 368.665C344.319 370.717 344.625 372.981 344.625 375.457L344.625 378.726L318.092 378.726L318.092 373.235H337.072L337.072 372.632C337.029 371.257 336.754 369.966 336.246 368.76C335.76 367.554 335.009 366.581 333.993 365.84C332.977 365.1 331.623 364.729 329.93 364.729C328.661 364.729 327.529 365.005 326.534 365.555C325.561 366.084 324.747 366.856 324.091 367.872C323.435 368.887 322.927 370.114 322.567 371.553C322.229 372.971 322.059 374.568 322.059 376.346L322.059 377.615C322.059 379.118 322.26 380.514 322.662 381.805C323.086 383.074 323.699 384.185 324.503 385.137C325.307 386.089 326.281 386.84 327.423 387.391C328.566 387.92 329.867 388.184 331.327 388.184C333.168 388.184 334.808 387.814 336.246 387.073C337.685 386.333 338.934 385.285 339.992 383.931L344.022 387.835C343.282 388.914 342.319 389.951 341.134 390.945C339.949 391.919 338.5 392.712 336.786 393.326C335.093 393.939 333.125 394.246 330.883 394.246Z" fill="white"/>
<path d="M476 231L426 202.132V259.868L476 231ZM371 236H431V226H371V236Z" fill="#2FA4DA"/>
<path d="M460.623 289.877L404.855 304.82L445.68 345.645L460.623 289.877ZM389.912 367.659L432.339 325.232L425.268 318.161L382.841 360.588L389.912 367.659Z" fill="#2FA4DA"/>
<path d="M460.623 168.123L445.68 112.355L404.855 153.18L460.623 168.123ZM382.841 97.4125L425.268 139.839L432.339 132.768L389.912 90.3414L382.841 97.4125Z" fill="#2FA4DA"/>
<path d="M1825 231L1775 202.132V259.868L1825 231ZM1720 236H1780V226H1720V236Z" fill="#2FA4DA"/>
<path d="M877 231L827 202.132V259.868L877 231ZM795 236H832V226H795V236Z" fill="#2FA4DA"/>
<path d="M1397 231L1347 202.132V259.868L1397 231ZM1315 236H1352V226H1315V236Z" fill="#2FA4DA"/>
<g clip-path="url(#clip0_954_55)">
<path fill-rule="evenodd" clip-rule="evenodd" d="M1902.08 163.16C1878.71 163.384 1859.82 182.371 1859.69 205.81C1880 200.568 1894.92 184.679 1902.08 163.16ZM1902.5 248.947C1884.73 248.947 1869.49 238.104 1863.02 222.663C1891.26 215.777 1910.61 193.65 1919.01 166.463C1934.46 172.937 1945.31 188.225 1945.31 206.053C1945.31 229.743 1926.14 248.947 1902.5 248.947ZM1962.43 206.749C1962.44 206.518 1962.44 206.285 1962.44 206.053C1962.44 172.887 1935.6 146 1902.5 146C1869.4 146 1842.56 172.887 1842.56 206.053C1842.56 206.283 1842.56 206.512 1842.57 206.742C1842.56 206.814 1842.56 206.887 1842.56 206.959C1842.52 214.146 1842.54 224.975 1842.55 235.197C1842.56 240.07 1842.56 244.811 1842.56 248.947C1842.56 253.686 1846.4 257.526 1851.12 257.526H1863.82C1845.35 266.812 1834 282.691 1834 300.421C1834 305.159 1837.83 309 1842.56 309C1847.29 309 1851.12 305.159 1851.12 300.421C1851.12 285.58 1867.66 266.105 1902.5 266.105C1937.34 266.105 1953.88 285.58 1953.88 300.421C1953.88 305.159 1957.71 309 1962.44 309C1967.17 309 1971 305.159 1971 300.421C1971 282.691 1959.65 266.812 1941.18 257.526H1953.88C1958.6 257.526 1962.44 253.686 1962.44 248.947C1962.44 244.808 1962.44 240.069 1962.45 235.192V235.179C1962.46 224.962 1962.48 214.142 1962.44 206.959C1962.44 206.888 1962.44 206.819 1962.43 206.749Z" fill="#D07839"/>
</g>
<rect x="3" y="3" width="1738" height="451" stroke="#2FA4DA" stroke-width="6"/>
<defs>
<clipPath id="clip0_954_55">
<rect width="137" height="163" fill="white" transform="translate(1834 146)"/>
</clipPath>
</defs>
</svg>
