<svg width="1787" height="600" viewBox="0 0 1787 600" fill="none" xmlns="http://www.w3.org/2000/svg">
<g clip-path="url(#clip0_501_48)">
<path d="M671 600.085H413C412.735 600.085 412.48 599.98 412.293 599.792C412.105 599.605 412 599.35 412 599.085C412 598.82 412.105 598.565 412.293 598.378C412.48 598.19 412.735 598.085 413 598.085H671C671.265 598.085 671.52 598.19 671.707 598.378C671.895 598.565 672 598.82 672 599.085C672 599.35 671.895 599.605 671.707 599.792C671.52 599.98 671.265 600.085 671 600.085Z" fill="#CCCCCC"/>
<path d="M1322.12 434.548H681.283C676.909 434.543 672.715 432.803 669.621 429.71C666.528 426.616 664.788 422.422 664.783 418.048V22.894C664.787 19.6892 666.061 16.6166 668.328 14.3504C670.594 12.0842 673.666 10.8094 676.871 10.8057H1326.32C1329.58 10.8094 1332.71 12.1062 1335.02 14.4116C1337.32 16.717 1338.62 19.8427 1338.62 23.103V418.048C1338.62 422.422 1336.88 426.616 1333.78 429.71C1330.69 432.803 1326.5 434.543 1322.12 434.548Z" fill="#F2F2F2"/>
<path d="M1301.4 413.716H704.157C695.402 413.716 688.28 407.046 688.28 398.847V54.7424C688.28 48.6624 693.558 43.7156 700.045 43.7156H1305.32C1311.91 43.7156 1317.28 48.7439 1317.28 54.9241V398.847C1317.28 407.046 1310.16 413.716 1301.4 413.716Z" fill="white"/>
<path d="M1338.39 24.9502H664.552V16.5498C664.558 12.1607 666.305 7.95333 669.409 4.85072C672.514 1.74811 676.722 0.00363937 681.112 0H1321.83C1326.22 0.00360236 1330.43 1.74806 1333.53 4.85068C1336.64 7.95329 1338.39 12.1607 1338.39 16.5498V24.9502Z" fill="#3F3D56"/>
<path d="M694.647 16.7834C697.013 16.7834 698.93 14.8656 698.93 12.5C698.93 10.1343 697.013 8.21655 694.647 8.21655C692.281 8.21655 690.364 10.1343 690.364 12.5C690.364 14.8656 692.281 16.7834 694.647 16.7834Z" fill="white"/>
<path d="M710.906 16.7834C713.271 16.7834 715.189 14.8656 715.189 12.5C715.189 10.1343 713.271 8.21655 710.906 8.21655C708.54 8.21655 706.622 10.1343 706.622 12.5C706.622 14.8656 708.54 16.7834 710.906 16.7834Z" fill="white"/>
<path d="M727.165 16.7834C729.53 16.7834 731.448 14.8656 731.448 12.5C731.448 10.1343 729.53 8.21655 727.165 8.21655C724.799 8.21655 722.881 10.1343 722.881 12.5C722.881 14.8656 724.799 16.7834 727.165 16.7834Z" fill="white"/>
<path d="M988.611 118.955H871.802C870.061 118.955 868.391 118.263 867.159 117.031C865.928 115.8 865.236 114.13 865.236 112.388C865.236 110.647 865.928 108.977 867.159 107.745C868.391 106.514 870.061 105.822 871.802 105.822H988.611C990.352 105.822 992.022 106.514 993.254 107.745C994.485 108.977 995.177 110.647 995.177 112.388C995.177 114.13 994.485 115.8 993.254 117.031C992.022 118.263 990.352 118.955 988.611 118.955Z" fill="#CCCCCC"/>
<path d="M1133.76 118.955H1016.95C1015.21 118.955 1013.54 118.263 1012.31 117.031C1011.07 115.8 1010.38 114.13 1010.38 112.388C1010.38 110.647 1011.07 108.977 1012.31 107.745C1013.54 106.514 1015.21 105.822 1016.95 105.822H1133.76C1135.5 105.822 1137.17 106.514 1138.4 107.745C1139.63 108.977 1140.32 110.647 1140.32 112.388C1140.32 114.13 1139.63 115.8 1138.4 117.031C1137.17 118.263 1135.5 118.955 1133.76 118.955Z" fill="#CCCCCC"/>
<path d="M1133.76 143.837H930.552C928.811 143.837 927.14 143.145 925.909 141.913C924.678 140.682 923.986 139.012 923.986 137.27C923.986 135.529 924.678 133.859 925.909 132.628C927.14 131.396 928.811 130.704 930.552 130.704H1133.76C1135.5 130.704 1137.17 131.396 1138.4 132.628C1139.63 133.859 1140.32 135.529 1140.32 137.27C1140.32 139.012 1139.63 140.682 1138.4 141.913C1137.17 143.145 1135.5 143.837 1133.76 143.837Z" fill="#CCCCCC"/>
<path d="M988.611 93.7268H871.802C870.062 93.7246 868.394 93.0319 867.165 91.8007C865.935 90.5696 865.244 88.9007 865.244 87.1606C865.244 85.4206 865.935 83.7517 867.165 82.5205C868.394 81.2894 870.062 80.5966 871.802 80.5945H988.611C989.474 80.5934 990.328 80.7625 991.126 81.092C991.923 81.4215 992.648 81.905 993.259 82.5148C993.869 83.1246 994.354 83.8488 994.684 84.646C995.015 85.4432 995.185 86.2977 995.185 87.1606C995.185 88.0236 995.015 88.8781 994.684 89.6752C994.354 90.4724 993.869 91.1966 993.259 91.8064C992.648 92.4163 991.923 92.8998 991.126 93.2293C990.328 93.5588 989.474 93.7278 988.611 93.7268Z" fill="#CCCCCC"/>
<path d="M1052.89 94.0722H1019.71C1017.97 94.0722 1016.3 93.3804 1015.07 92.149C1013.84 90.9176 1013.15 89.2475 1013.15 87.5061C1013.15 85.7646 1013.84 84.0945 1015.07 82.8631C1016.3 81.6317 1017.97 80.9399 1019.71 80.9399H1052.89C1054.63 80.9399 1056.3 81.6317 1057.53 82.8631C1058.76 84.0945 1059.46 85.7646 1059.46 87.5061C1059.46 89.2475 1058.76 90.9176 1057.53 92.149C1056.3 93.3804 1054.63 94.0722 1052.89 94.0722Z" fill="#CCCCCC"/>
<path d="M904.979 143.837H871.802C870.062 143.834 868.394 143.142 867.165 141.911C865.935 140.679 865.244 139.011 865.244 137.27C865.244 135.53 865.935 133.862 867.165 132.63C868.394 131.399 870.062 130.706 871.802 130.704H904.979C905.842 130.703 906.696 130.872 907.494 131.202C908.292 131.531 909.016 132.015 909.627 132.625C910.237 133.234 910.722 133.959 911.052 134.756C911.383 135.553 911.553 136.408 911.553 137.27C911.553 138.133 911.383 138.988 911.052 139.785C910.722 140.582 910.237 141.306 909.627 141.916C909.016 142.526 908.292 143.01 907.494 143.339C906.696 143.669 905.842 143.838 904.979 143.837Z" fill="#CCCCCC"/>
<path d="M988.611 351.955H871.802C870.061 351.955 868.391 351.263 867.159 350.031C865.928 348.8 865.236 347.13 865.236 345.388C865.236 343.647 865.928 341.977 867.159 340.745C868.391 339.514 870.061 338.822 871.802 338.822H988.611C989.473 338.822 990.327 338.992 991.123 339.322C991.92 339.652 992.644 340.136 993.254 340.745C993.863 341.355 994.347 342.079 994.677 342.876C995.007 343.672 995.177 344.526 995.177 345.388C995.177 346.251 995.007 347.105 994.677 347.901C994.347 348.698 993.863 349.422 993.254 350.031C992.644 350.641 991.92 351.125 991.123 351.455C990.327 351.785 989.473 351.955 988.611 351.955Z" fill="#CCCCCC"/>
<path d="M1133.76 351.955H1016.95C1015.21 351.955 1013.54 351.263 1012.31 350.031C1011.07 348.8 1010.38 347.13 1010.38 345.388C1010.38 343.647 1011.07 341.977 1012.31 340.745C1013.54 339.514 1015.21 338.822 1016.95 338.822H1133.76C1134.62 338.822 1135.47 338.992 1136.27 339.322C1137.07 339.652 1137.79 340.136 1138.4 340.745C1139.01 341.355 1139.49 342.079 1139.82 342.876C1140.15 343.672 1140.32 344.526 1140.32 345.388C1140.32 346.251 1140.15 347.105 1139.82 347.901C1139.49 348.698 1139.01 349.422 1138.4 350.031C1137.79 350.641 1137.07 351.125 1136.27 351.455C1135.47 351.785 1134.62 351.955 1133.76 351.955Z" fill="#CCCCCC"/>
<path d="M1133.76 376.837H930.552C928.811 376.837 927.14 376.145 925.909 374.913C924.678 373.682 923.986 372.012 923.986 370.27C923.986 368.529 924.678 366.859 925.909 365.628C927.14 364.396 928.811 363.704 930.552 363.704H1133.76C1134.62 363.703 1135.47 363.872 1136.27 364.202C1137.07 364.531 1137.79 365.015 1138.4 365.625C1139.02 366.234 1139.5 366.959 1139.83 367.756C1140.16 368.553 1140.33 369.407 1140.33 370.27C1140.33 371.133 1140.16 371.988 1139.83 372.785C1139.5 373.582 1139.02 374.306 1138.4 374.916C1137.79 375.526 1137.07 376.01 1136.27 376.339C1135.47 376.669 1134.62 376.838 1133.76 376.837Z" fill="#CCCCCC"/>
<path d="M988.611 326.727H871.802C870.061 326.727 868.391 326.035 867.159 324.804C865.928 323.572 865.236 321.902 865.236 320.161C865.236 318.419 865.928 316.749 867.159 315.518C868.391 314.286 870.061 313.594 871.802 313.594H988.611C990.352 313.594 992.022 314.286 993.254 315.518C994.485 316.749 995.177 318.419 995.177 320.161C995.177 321.902 994.485 323.572 993.254 324.804C992.022 326.035 990.352 326.727 988.611 326.727Z" fill="#CCCCCC"/>
<path d="M1052.89 327.072H1019.71C1017.97 327.072 1016.3 326.38 1015.07 325.149C1013.84 323.918 1013.15 322.248 1013.15 320.506C1013.15 318.765 1013.84 317.095 1015.07 315.863C1016.3 314.632 1017.97 313.94 1019.71 313.94H1052.89C1054.63 313.94 1056.3 314.632 1057.53 315.863C1058.76 317.095 1059.46 318.765 1059.46 320.506C1059.46 322.248 1058.76 323.918 1057.53 325.149C1056.3 326.38 1054.63 327.072 1052.89 327.072Z" fill="#CCCCCC"/>
<path d="M904.979 376.837H871.802C870.061 376.837 868.391 376.145 867.159 374.913C865.928 373.682 865.236 372.012 865.236 370.27C865.236 368.529 865.928 366.859 867.159 365.628C868.391 364.396 870.061 363.704 871.802 363.704H904.979C905.842 363.703 906.696 363.872 907.494 364.202C908.292 364.531 909.016 365.015 909.627 365.625C910.237 366.234 910.722 366.959 911.052 367.756C911.383 368.553 911.553 369.407 911.553 370.27C911.553 371.133 911.383 371.988 911.052 372.785C910.722 373.582 910.237 374.306 909.627 374.916C909.016 375.526 908.292 376.01 907.494 376.339C906.696 376.669 905.842 376.838 904.979 376.837Z" fill="#CCCCCC"/>
<path d="M958.104 281.462C955.625 281.467 953.244 280.493 951.48 278.752L907.572 235.392C906.71 234.541 906.025 233.527 905.558 232.409C905.091 231.291 904.85 230.092 904.85 228.881C904.85 227.669 905.091 226.47 905.558 225.352C906.025 224.234 906.71 223.22 907.572 222.369L951.303 179.185C953.125 177.394 955.579 176.395 958.133 176.403C960.688 176.411 963.136 177.426 964.946 179.228C966.759 181.044 967.776 183.505 967.776 186.071C967.776 188.637 966.759 191.098 964.946 192.914L932.45 225.411C931.438 226.426 930.869 227.801 930.869 229.234C930.869 230.668 931.438 232.043 932.45 233.057L964.77 265.378C966.09 266.695 966.989 268.374 967.354 270.203C967.718 272.031 967.532 273.927 966.818 275.65C966.104 277.372 964.894 278.844 963.343 279.879C961.792 280.913 959.968 281.464 958.104 281.462Z" fill="#2FA4DA"/>
<path d="M1028.07 281.462C1026.2 281.464 1024.38 280.913 1022.83 279.879C1021.28 278.844 1020.07 277.372 1019.36 275.65C1018.64 273.927 1018.46 272.031 1018.82 270.203C1019.18 268.374 1020.08 266.695 1021.4 265.378L1053.72 233.057C1054.74 232.043 1055.3 230.668 1055.3 229.234C1055.3 227.801 1054.74 226.426 1053.72 225.411L1021.23 192.914C1020.33 192.016 1019.62 190.949 1019.13 189.774C1018.64 188.6 1018.39 187.342 1018.39 186.071C1018.39 184.8 1018.64 183.541 1019.13 182.367C1019.62 181.193 1020.33 180.126 1021.23 179.228C1023.04 177.426 1025.49 176.411 1028.04 176.403C1030.59 176.395 1033.05 177.394 1034.87 179.185L1078.6 222.369C1079.46 223.22 1080.15 224.234 1080.62 225.352C1081.08 226.47 1081.32 227.669 1081.32 228.881C1081.32 230.092 1081.08 231.292 1080.62 232.409C1080.15 233.527 1079.46 234.541 1078.6 235.392L1034.69 278.752C1032.93 280.493 1030.55 281.467 1028.07 281.462Z" fill="#2FA4DA"/>
<path d="M756.959 345.51C755.821 410.002 712.477 438.032 711.765 410.803C710.881 376.362 696.029 287.037 637.735 314.429C568.019 347.186 630.866 546.712 610.684 546.712C529.94 546.712 464.408 456.578 464.408 345.51C464.408 234.451 529.94 144.316 610.684 144.316C691.428 144.316 758.892 235.865 756.959 345.51V345.51Z" fill="url(#paint0_linear_501_48)" stroke="black" stroke-width="0.8" stroke-linecap="round" stroke-linejoin="round"/>
<path d="M717.455 207.491C736.18 241.336 745.472 283.774 746.308 328.33C747.085 369.493 735.86 408.366 715.048 419.381C724.766 422.488 755.821 409.993 756.951 345.502C757.893 292.507 742.607 243.74 717.455 207.491ZM646.962 292.123C640.977 292.237 634.37 293.84 627.083 297.258C557.367 330.015 620.222 529.54 600.04 529.54C558.456 529.54 520.909 505.631 494.267 467.265C520.999 515.525 563.205 546.712 610.683 546.712C630.865 546.712 568.011 347.186 637.726 314.429C659.341 304.282 674.987 310.169 686.163 323.35C677.828 305.394 665.301 291.779 646.962 292.123V292.123Z" fill="black" fill-opacity="0.31373"/>
<path d="M681.155 461.103C681.155 496.516 667.082 530.479 642.031 555.52C616.98 580.561 583.004 594.629 547.577 594.629C512.151 594.629 478.175 580.561 453.124 555.52C428.073 530.479 414 496.516 414 461.103C414 425.689 428.073 391.726 453.124 366.685C478.175 341.644 512.151 327.576 547.577 327.576C583.004 327.576 616.98 341.644 642.031 366.685C667.082 391.726 681.155 425.689 681.155 461.103V461.103Z" fill="url(#paint1_linear_501_48)" stroke="black" stroke-width="0.799968" stroke-linecap="round" stroke-linejoin="round"/>
<path d="M547.583 327.594C533.37 327.594 519.689 329.835 506.835 333.948C518.395 331.25 530.586 329.794 543.187 329.794C577.754 329.794 609.275 340.653 632.994 358.471C609.84 339.189 580.055 327.594 547.583 327.594ZM674.087 418.13C675.839 425.26 676.772 432.619 676.772 440.175C676.772 501.109 616.922 550.555 543.187 550.555C481.528 550.555 429.603 515.983 414.244 469.023C418.337 539.059 476.501 594.654 547.583 594.654C621.319 594.654 681.169 534.831 681.169 461.124C681.169 446.087 678.68 431.622 674.087 418.13Z" fill="black" fill-opacity="0.31373"/>
<path d="M547.584 327.594C524.806 327.594 503.347 333.294 484.573 343.36C493.465 374.408 519.444 403.117 550.13 403.117C579.997 403.117 605.452 375.92 614.99 345.829C595.201 334.242 572.162 327.594 547.584 327.594V327.594Z" fill="black" fill-opacity="0.31373"/>
<path fill-rule="evenodd" clip-rule="evenodd" d="M639.11 216.371C622.891 216.371 589.945 224.99 584.181 247.337C584.091 247.509 583.919 248.131 583.731 249.087C573.3 242.717 561.035 239.013 547.927 239.013C534.238 239.013 521.515 243.053 510.798 249.938C510.576 248.539 510.306 247.558 510.2 247.337C504.436 224.99 471.49 216.396 455.262 216.388C452.683 216.388 450.547 216.608 448.983 217.017C440.28 218.228 430.749 221.703 431.445 223.6C437.832 222.512 441.057 223.755 440.959 224.785C440.763 226.715 436.915 227.23 438.151 234.189C440.484 230.812 443.735 229.651 446.289 229.111C448.909 245.539 460.371 274.215 481.822 275.703C483.665 275.834 485.384 275.826 487.005 275.793C481.945 285.377 479.071 296.293 479.071 307.88C479.071 345.878 509.913 389.911 547.927 389.911C585.933 389.911 616.816 345.878 616.816 307.88C616.816 296.301 613.934 285.409 608.874 275.834C610.045 275.826 611.281 275.793 612.559 275.703C633.936 274.223 645.398 245.71 648.067 229.266C650.507 229.863 653.422 231.09 655.559 234.189C656.795 227.23 652.947 226.715 652.75 224.785C652.652 223.755 655.878 222.512 662.264 223.6C662.927 221.801 654.421 218.587 646.119 217.222C644.538 216.666 642.115 216.371 639.11 216.371V216.371Z" fill="url(#paint2_linear_501_48)" stroke="black" stroke-width="0.8" stroke-linejoin="round"/>
<path d="M574.184 420.28C562.771 408.873 542.458 408.293 530.373 419.013C521.867 426.462 518.477 437.901 517.364 448.736C516.578 456.545 517.044 464.926 521.056 471.885C525.084 477.053 532.101 478.14 538.258 478.451C550.531 478.999 563.5 476.039 573.308 468.279C585.131 458.147 587.89 439.283 579.211 426.355C577.795 424.148 576.084 422.112 574.184 420.28V420.28Z" fill="black" fill-opacity="0.31373"/>
<path d="M533.66 443.381C533.66 450.078 530.998 456.502 526.261 461.238C521.523 465.974 515.097 468.635 508.397 468.635C501.696 468.635 495.27 465.974 490.533 461.238C485.795 456.502 483.133 450.078 483.133 443.381C483.133 436.683 485.795 430.26 490.533 425.524C495.27 420.788 501.696 418.127 508.397 418.127C515.097 418.127 521.523 420.788 526.261 425.524C530.998 430.26 533.66 436.683 533.66 443.381V443.381Z" fill="black" fill-opacity="0.31373"/>
<path d="M570.091 412.103C558.677 400.696 538.364 400.116 526.28 410.836C517.773 418.285 514.384 429.724 513.27 440.559C512.484 448.368 512.951 456.749 516.963 463.708C520.991 468.876 528.007 469.963 534.164 470.274C546.437 470.822 559.406 467.862 569.215 460.102C581.037 449.97 583.796 431.106 575.118 418.178C573.701 415.971 571.99 413.935 570.091 412.103V412.103Z" fill="#DC9A6A" stroke="black" stroke-width="0.8" stroke-linecap="round" stroke-linejoin="round"/>
<path d="M544.349 403.297C546.781 403.877 549.139 404.768 551.341 406.011C553.478 407.164 555.5 408.546 557.31 410.157C568.224 419.479 570.475 436.896 562.509 448.801C555.721 458.115 544.939 463.945 533.91 466.496C529.44 467.502 524.347 468.197 519.992 466.545C524.02 469.309 529.35 470.037 534.156 470.274C546.429 470.822 559.398 467.862 569.214 460.102C581.037 449.971 583.796 431.106 575.117 418.179C573.701 415.963 571.99 413.935 570.09 412.095C563.418 405.423 553.691 402.463 544.349 403.297V403.297Z" fill="black" fill-opacity="0.31373"/>
<path fill-rule="evenodd" clip-rule="evenodd" d="M570.393 409.233C572.645 402.25 584.001 395.798 587.366 398.227C590.731 400.663 590.993 406.453 590.395 407.311C589.806 408.162 583.731 405.537 579.899 408.701C576.075 411.858 574.151 414.556 574.151 414.556L570.393 409.233Z" fill="url(#paint3_linear_501_48)" stroke="black" stroke-width="0.8"/>
<path fill-rule="evenodd" clip-rule="evenodd" d="M589.683 401.26C589.757 402.021 589.65 402.65 589.445 402.896C588.864 403.591 583.043 402.912 579.309 405.798C575.584 408.685 573.701 410.893 573.701 410.893L570.721 408.391C570.606 408.677 570.483 408.955 570.393 409.233L574.151 414.564C574.151 414.564 576.075 411.858 579.899 408.693C583.731 405.537 589.806 408.162 590.395 407.303C590.804 406.722 590.804 403.811 589.683 401.26V401.26Z" fill="black" fill-opacity="0.31373"/>
<path d="M573.013 409.274C561.805 398.186 543.228 395.324 530.161 403.64C527.205 405.267 528.097 409.347 528.13 409.282C533.067 405.381 538.184 409.674 544.906 414.49C553.134 420.386 562.182 429.43 568.822 438.22C573.472 444.369 576.796 450.412 574.135 454.639C574.274 454.68 578.139 455.768 579.907 452.17C588.815 435.399 583.78 419.29 573.013 409.274V409.274Z" fill="url(#paint4_linear_501_48)" stroke="black" stroke-width="0.8" stroke-linecap="round" stroke-linejoin="round"/>
<path d="M572.129 408.039C575.682 417.246 575.216 425.955 570.705 434.361C569.681 436.274 568.109 435.653 566.791 435.628C567.487 436.487 568.167 437.362 568.821 438.22C573.464 444.377 576.796 450.42 574.135 454.639C574.274 454.68 578.139 455.776 579.907 452.178C588.062 436.806 584.484 420.084 572.129 408.039V408.039Z" fill="black" fill-opacity="0.31373"/>
<path d="M526.105 425.63C527.765 428.502 528.843 431.672 529.277 434.959C529.712 438.247 529.494 441.587 528.636 444.789C527.779 447.991 526.298 450.993 524.279 453.623C522.26 456.252 519.742 458.459 516.869 460.115C513.996 461.772 510.824 462.847 507.534 463.278C504.244 463.71 500.901 463.49 497.695 462.63C494.49 461.771 491.484 460.289 488.851 458.27C486.217 456.25 484.007 453.733 482.347 450.861C480.687 447.989 479.609 444.819 479.174 441.531C478.74 438.244 478.958 434.904 479.815 431.701C480.673 428.499 482.154 425.497 484.173 422.868C486.192 420.238 488.71 418.032 491.583 416.375C494.456 414.718 497.628 413.644 500.918 413.212C504.208 412.781 507.551 413.001 510.756 413.86C513.962 414.719 516.967 416.201 519.601 418.221C522.234 420.24 524.444 422.758 526.105 425.63V425.63Z" fill="url(#paint5_linear_501_48)" stroke="black" stroke-width="0.800002" stroke-linecap="round" stroke-linejoin="round"/>
<path d="M628.436 443.773C628.436 450.471 625.774 456.894 621.036 461.63C616.298 466.366 609.873 469.027 603.172 469.027C596.472 469.027 590.046 466.366 585.308 461.63C580.57 456.894 577.909 450.471 577.909 443.773C577.909 437.076 580.57 430.652 585.308 425.916C590.046 421.18 596.472 418.52 603.172 418.52C609.873 418.52 616.298 421.18 621.036 425.916C625.774 430.652 628.436 437.076 628.436 443.773V443.773Z" fill="black" fill-opacity="0.31373"/>
<path d="M616.953 456.086C612.211 460.822 605.781 463.484 599.078 463.487C592.375 463.49 585.947 460.833 581.21 456.101C576.472 451.37 573.812 444.95 573.815 438.256C573.818 431.561 576.483 425.139 581.225 420.403C585.967 415.667 592.397 413.005 599.1 413.002C605.803 412.999 612.231 415.656 616.969 420.388C621.707 425.119 624.367 431.539 624.364 438.233C624.361 444.928 621.695 451.35 616.953 456.086Z" fill="url(#paint6_linear_501_48)" stroke="black" stroke-width="0.799998" stroke-linecap="round" stroke-linejoin="round"/>
<path d="M612.313 518.551C578.884 518.551 551.742 545.682 551.742 579.093C551.742 586.002 552.905 592.626 555.042 598.808H669.551C671.688 592.626 672.85 586.002 672.85 579.093C672.85 545.682 645.742 518.551 612.313 518.551V518.551Z" fill="url(#paint7_linear_501_48)" stroke="black" stroke-width="0.8" stroke-linecap="round" stroke-linejoin="round"/>
<path d="M491.172 518.551C457.743 518.551 430.635 545.682 430.635 579.093C430.635 586.002 431.797 592.626 433.934 598.808H548.443C550.58 592.626 551.742 586.002 551.742 579.093C551.742 545.682 524.601 518.551 491.172 518.551Z" fill="url(#paint8_linear_501_48)" stroke="black" stroke-width="0.8" stroke-linecap="round" stroke-linejoin="round"/>
<path d="M545.526 302.362C545.527 305.316 544.946 308.242 543.816 310.972C542.686 313.702 541.029 316.183 538.939 318.272C536.85 320.362 534.369 322.019 531.639 323.15C528.909 324.281 525.982 324.863 523.026 324.863C520.071 324.863 517.144 324.281 514.414 323.15C511.684 322.019 509.203 320.362 507.113 318.272C505.024 316.183 503.367 313.702 502.237 310.972C501.107 308.242 500.526 305.316 500.527 302.362C500.526 299.408 501.107 296.482 502.237 293.752C503.367 291.022 505.024 288.542 507.113 286.452C509.203 284.363 511.684 282.705 514.414 281.574C517.144 280.443 520.071 279.861 523.026 279.861C525.982 279.861 528.909 280.443 531.639 281.574C534.369 282.705 536.85 284.363 538.939 286.452C541.029 288.542 542.686 291.022 543.816 293.752C544.946 296.482 545.527 299.408 545.526 302.362V302.362Z" fill="white" stroke="black" stroke-width="0.800004" stroke-linecap="round" stroke-linejoin="round"/>
<path d="M595.354 302.362C595.355 305.316 594.774 308.242 593.644 310.972C592.514 313.702 590.857 316.183 588.768 318.272C586.679 320.362 584.198 322.019 581.467 323.15C578.737 324.281 575.81 324.863 572.855 324.863C569.899 324.863 566.973 324.281 564.242 323.15C561.512 322.019 559.031 320.362 556.942 318.272C554.852 316.183 553.195 313.702 552.065 310.972C550.935 308.242 550.354 305.316 550.356 302.362C550.354 299.408 550.935 296.482 552.065 293.752C553.195 291.022 554.852 288.542 556.942 286.452C559.031 284.363 561.512 282.705 564.242 281.574C566.973 280.443 569.899 279.861 572.855 279.861C575.81 279.861 578.737 280.443 581.467 281.574C584.198 282.705 586.679 284.363 588.768 286.452C590.857 288.542 592.514 291.022 593.644 293.752C594.774 296.482 595.355 299.408 595.354 302.362Z" fill="white" stroke="black" stroke-width="0.800004" stroke-linecap="round" stroke-linejoin="round"/>
<path d="M538.555 305.095C538.556 306.049 538.369 306.994 538.004 307.876C537.639 308.758 537.104 309.56 536.429 310.235C535.754 310.91 534.953 311.446 534.07 311.811C533.188 312.177 532.243 312.365 531.288 312.365C530.333 312.365 529.388 312.177 528.506 311.811C527.624 311.446 526.822 310.91 526.147 310.235C525.472 309.56 524.937 308.758 524.572 307.876C524.208 306.994 524.02 306.049 524.021 305.095C524.02 304.14 524.208 303.195 524.572 302.313C524.937 301.431 525.472 300.629 526.147 299.954C526.822 299.279 527.624 298.743 528.506 298.378C529.388 298.013 530.333 297.824 531.288 297.824C532.243 297.824 533.188 298.013 534.07 298.378C534.953 298.743 535.754 299.279 536.429 299.954C537.104 300.629 537.639 301.431 538.004 302.313C538.369 303.195 538.556 304.14 538.555 305.095V305.095Z" fill="black"/>
<path d="M571.796 305.095C571.797 306.049 571.609 306.994 571.244 307.876C570.88 308.758 570.344 309.56 569.67 310.235C568.995 310.91 568.193 311.446 567.311 311.811C566.429 312.177 565.484 312.365 564.529 312.365C563.574 312.365 562.629 312.177 561.746 311.811C560.864 311.446 560.063 310.91 559.388 310.235C558.713 309.56 558.178 308.758 557.813 307.876C557.448 306.994 557.261 306.049 557.262 305.095C557.261 304.14 557.448 303.195 557.813 302.313C558.178 301.431 558.713 300.629 559.388 299.954C560.063 299.279 560.864 298.743 561.746 298.378C562.629 298.013 563.574 297.824 564.529 297.824C565.484 297.824 566.429 298.013 567.311 298.378C568.193 298.743 568.995 299.279 569.67 299.954C570.344 300.629 570.88 301.431 571.244 302.313C571.609 303.195 571.797 304.14 571.796 305.095Z" fill="black"/>
<path fill-rule="evenodd" clip-rule="evenodd" d="M536.31 345.51C539.977 341.593 555.558 340.743 558.817 345.992C562.075 351.25 553.929 362.142 547.559 361.651C541.222 361.161 532.871 349.165 536.31 345.51Z" fill="black"/>
<path fill-rule="evenodd" clip-rule="evenodd" d="M495.331 265.67C492.916 230.738 456.924 222.782 455.189 226.928C453.461 231.082 461.763 277.78 495.331 265.67Z" fill="#74401B" stroke="black" stroke-width="0.8" stroke-linejoin="round"/>
<path fill-rule="evenodd" clip-rule="evenodd" d="M597.903 265.67C600.318 230.738 636.31 222.782 638.046 226.928C639.773 231.082 631.463 277.78 597.903 265.67Z" fill="url(#paint9_linear_501_48)" stroke="black" stroke-width="0.8" stroke-linejoin="round"/>
<path d="M485.807 581.333C485.807 586.434 484.099 591.326 481.058 594.932C478.016 598.539 473.892 600.565 469.591 600.565C465.29 600.565 461.165 598.539 458.124 594.932C455.083 591.326 453.375 586.434 453.375 581.333C453.375 576.233 455.083 571.341 458.124 567.734C461.165 564.127 465.29 562.101 469.591 562.101C473.892 562.101 478.016 564.127 481.058 567.734C484.099 571.341 485.807 576.233 485.807 581.333V581.333Z" fill="url(#paint10_linear_501_48)" stroke="black" stroke-width="0.734432" stroke-linecap="round" stroke-linejoin="round"/>
<path d="M526.482 581.333C526.482 586.434 524.774 591.326 521.733 594.932C518.691 598.539 514.567 600.565 510.266 600.565C505.965 600.565 501.84 598.539 498.799 594.932C495.758 591.326 494.05 586.434 494.05 581.333C494.05 576.233 495.758 571.341 498.799 567.734C501.84 564.127 505.965 562.101 510.266 562.101C514.567 562.101 518.691 564.127 521.733 567.734C524.774 571.341 526.482 576.233 526.482 581.333V581.333Z" fill="url(#paint11_linear_501_48)" stroke="black" stroke-width="0.734432" stroke-linecap="round" stroke-linejoin="round"/>
<path d="M507.242 581.333C507.242 586.434 505.533 591.326 502.492 594.932C499.451 598.539 495.326 600.565 491.026 600.565C486.725 600.565 482.6 598.539 479.559 594.932C476.518 591.326 474.809 586.434 474.809 581.333C474.809 576.233 476.518 571.341 479.559 567.734C482.6 564.127 486.725 562.101 491.026 562.101C495.326 562.101 499.451 564.127 502.492 567.734C505.533 571.341 507.242 576.233 507.242 581.333V581.333Z" fill="url(#paint12_linear_501_48)" stroke="black" stroke-width="0.734432" stroke-linecap="round" stroke-linejoin="round"/>
<path d="M610.59 581.333C610.59 586.434 608.882 591.326 605.841 594.932C602.8 598.539 598.675 600.565 594.374 600.565C590.073 600.565 585.949 598.539 582.907 594.932C579.866 591.326 578.158 586.434 578.158 581.333C578.158 576.233 579.866 571.341 582.907 567.734C585.949 564.127 590.073 562.101 594.374 562.101C598.675 562.101 602.8 564.127 605.841 567.734C608.882 571.341 610.59 576.233 610.59 581.333V581.333Z" fill="url(#paint13_linear_501_48)" stroke="black" stroke-width="0.734432" stroke-linecap="round" stroke-linejoin="round"/>
<path d="M651.27 581.333C651.27 586.434 649.561 591.326 646.52 594.932C643.479 598.539 639.354 600.565 635.053 600.565C630.752 600.565 626.628 598.539 623.587 594.932C620.545 591.326 618.837 586.434 618.837 581.333C618.837 576.233 620.545 571.341 623.587 567.734C626.628 564.127 630.752 562.101 635.053 562.101C639.354 562.101 643.479 564.127 646.52 567.734C649.561 571.341 651.27 576.233 651.27 581.333V581.333Z" fill="url(#paint14_linear_501_48)" stroke="black" stroke-width="0.734432" stroke-linecap="round" stroke-linejoin="round"/>
<path d="M632.029 581.333C632.029 586.434 630.32 591.326 627.279 594.932C624.238 598.539 620.113 600.565 615.813 600.565C611.512 600.565 607.387 598.539 604.346 594.932C601.305 591.326 599.596 586.434 599.596 581.333C599.596 576.233 601.305 571.341 604.346 567.734C607.387 564.127 611.512 562.101 615.813 562.101C620.113 562.101 624.238 564.127 627.279 567.734C630.32 571.341 632.029 576.233 632.029 581.333V581.333Z" fill="url(#paint15_linear_501_48)" stroke="black" stroke-width="0.734432" stroke-linecap="round" stroke-linejoin="round"/>
<path d="M611.388 281.231C612.64 286.415 613.312 291.845 613.312 297.405C613.312 335.403 582.437 379.42 544.423 379.42C516.717 379.42 492.851 356.026 481.929 328.625C490.386 360.261 516.733 389.927 547.927 389.927C585.941 389.927 616.816 345.878 616.816 307.88C616.816 298.427 614.884 289.432 611.421 281.231H611.388Z" fill="black" fill-opacity="0.31373"/>
<path d="M512.18 444.296C513.305 444.946 514.308 445.784 515.13 446.762C515.951 447.74 516.576 448.84 516.969 449.998C517.362 451.156 517.514 452.35 517.418 453.511C517.321 454.673 516.978 455.779 516.407 456.767C515.837 457.755 515.05 458.605 514.092 459.269C513.134 459.933 512.023 460.398 510.824 460.637C509.624 460.876 508.359 460.885 507.101 460.663C505.842 460.441 504.615 459.992 503.489 459.342C502.363 458.692 501.361 457.854 500.539 456.876C499.717 455.898 499.092 454.798 498.7 453.64C498.307 452.482 498.155 451.288 498.251 450.127C498.348 448.966 498.691 447.859 499.261 446.871C499.832 445.883 500.619 445.033 501.577 444.369C502.535 443.705 503.645 443.24 504.845 443.001C506.045 442.762 507.31 442.753 508.568 442.975C509.827 443.197 511.054 443.646 512.18 444.296V444.296Z" fill="url(#paint16_linear_501_48)" stroke="black" stroke-width="0.734456" stroke-linecap="round" stroke-linejoin="round"/>
<path d="M523.077 425.424C525.351 426.736 527.074 428.787 527.866 431.126C528.659 433.464 528.457 435.899 527.305 437.894C526.152 439.89 524.144 441.282 521.721 441.765C519.299 442.248 516.66 441.782 514.387 440.47C512.113 439.158 510.39 437.107 509.597 434.768C508.805 432.429 509.007 429.994 510.159 427.999C511.311 426.004 513.32 424.611 515.742 424.129C518.165 423.646 520.803 424.111 523.077 425.424V425.424Z" fill="url(#paint17_linear_501_48)" stroke="black" stroke-width="0.734456" stroke-linecap="round" stroke-linejoin="round"/>
<path d="M522.308 437.534C524.581 438.846 526.304 440.897 527.097 443.236C527.89 445.574 527.688 448.009 526.535 450.005C525.383 452 523.374 453.392 520.952 453.875C518.529 454.358 515.891 453.892 513.617 452.58C511.343 451.268 509.621 449.217 508.828 446.878C508.035 444.539 508.237 442.104 509.389 440.109C510.542 438.114 512.55 436.722 514.973 436.239C517.396 435.756 520.034 436.221 522.308 437.534V437.534Z" fill="url(#paint18_linear_501_48)" stroke="black" stroke-width="0.734456" stroke-linecap="round" stroke-linejoin="round"/>
<path d="M590.514 442.714C589.259 443.051 588.073 443.601 587.026 444.334C585.979 445.066 585.09 445.967 584.411 446.984C583.731 448.001 583.275 449.115 583.067 450.262C582.859 451.408 582.904 452.566 583.199 453.668C583.494 454.769 584.034 455.794 584.787 456.683C585.54 457.572 586.492 458.308 587.589 458.849C588.686 459.391 589.905 459.726 591.179 459.837C592.452 459.947 593.753 459.831 595.009 459.494C596.265 459.158 597.451 458.607 598.498 457.875C599.545 457.142 600.434 456.242 601.113 455.225C601.792 454.208 602.249 453.094 602.457 451.947C602.665 450.8 602.62 449.643 602.325 448.541C602.03 447.439 601.49 446.415 600.737 445.526C599.984 444.636 599.031 443.9 597.935 443.359C596.838 442.818 595.618 442.483 594.345 442.372C593.072 442.261 591.77 442.378 590.514 442.714V442.714Z" fill="url(#paint19_linear_501_48)" stroke="black" stroke-width="0.734456" stroke-linecap="round" stroke-linejoin="round"/>
<path d="M584.881 421.667C583.625 422.004 582.44 422.554 581.393 423.287C580.345 424.019 579.457 424.92 578.777 425.937C578.098 426.954 577.642 428.068 577.434 429.215C577.226 430.361 577.271 431.519 577.566 432.62C577.861 433.722 578.4 434.747 579.154 435.636C579.907 436.525 580.859 437.261 581.956 437.802C583.053 438.343 584.272 438.679 585.546 438.79C586.819 438.9 588.12 438.784 589.376 438.447C591.913 437.768 594.108 436.232 595.48 434.178C596.852 432.123 597.288 429.719 596.692 427.494C596.096 425.269 594.517 423.405 592.302 422.312C590.087 421.219 587.418 420.987 584.881 421.667V421.667Z" fill="url(#paint20_linear_501_48)" stroke="black" stroke-width="0.734456" stroke-linecap="round" stroke-linejoin="round"/>
<path d="M582.491 433.564C579.954 434.244 577.759 435.78 576.387 437.834C575.015 439.888 574.579 442.292 575.175 444.518C575.771 446.743 577.35 448.607 579.565 449.7C581.78 450.792 584.449 451.024 586.986 450.345C589.522 449.665 591.718 448.129 593.089 446.075C594.461 444.021 594.897 441.617 594.301 439.391C594.006 438.29 593.466 437.265 592.713 436.376C591.96 435.487 591.008 434.75 589.911 434.209C587.696 433.117 585.027 432.885 582.491 433.564V433.564Z" fill="url(#paint21_linear_501_48)" stroke="black" stroke-width="0.734456" stroke-linecap="round" stroke-linejoin="round"/>
</g>
<defs>
<linearGradient id="paint0_linear_501_48" x1="462.77" y1="345.514" x2="758.637" y2="345.514" gradientUnits="userSpaceOnUse">
<stop stop-color="#D07839"/>
</linearGradient>
<linearGradient id="paint1_linear_501_48" x1="412.363" y1="461.103" x2="682.792" y2="461.103" gradientUnits="userSpaceOnUse">
<stop stop-color="#D07839"/>
</linearGradient>
<linearGradient id="paint2_linear_501_48" x1="429.782" y1="303.141" x2="663.927" y2="303.141" gradientUnits="userSpaceOnUse">
<stop stop-color="#D07839"/>
</linearGradient>
<linearGradient id="paint3_linear_501_48" x1="152.302" y1="507.3" x2="153.152" y2="510.085" gradientUnits="userSpaceOnUse">
<stop stop-color="#74401B"/>
</linearGradient>
<linearGradient id="paint4_linear_501_48" x1="151.418" y1="501.197" x2="153.788" y2="508.966" gradientUnits="userSpaceOnUse">
<stop stop-color="#74401B"/>
</linearGradient>
<linearGradient id="paint5_linear_501_48" x1="488.928" y1="-335.063" x2="508.202" y2="-329.884" gradientUnits="userSpaceOnUse">
<stop stop-color="#D07839"/>
</linearGradient>
<linearGradient id="paint6_linear_501_48" x1="525.118" y1="-325.391" x2="544.396" y2="-320.211" gradientUnits="userSpaceOnUse">
<stop stop-color="#D07839"/>
</linearGradient>
<linearGradient id="paint7_linear_501_48" x1="505.864" y1="-287.325" x2="552.053" y2="-274.915" gradientUnits="userSpaceOnUse">
<stop stop-color="#D07839"/>
</linearGradient>
<linearGradient id="paint8_linear_501_48" x1="459.658" y1="-299.671" x2="505.847" y2="-287.261" gradientUnits="userSpaceOnUse">
<stop stop-color="#D07839"/>
</linearGradient>
<linearGradient id="paint9_linear_501_48" x1="76.1033" y1="534.678" x2="77.7956" y2="540.226" gradientUnits="userSpaceOnUse">
<stop stop-color="#74401B"/>
</linearGradient>
<linearGradient id="paint10_linear_501_48" x1="222.25" y1="468.38" x2="223.61" y2="472.839" gradientUnits="userSpaceOnUse">
<stop stop-color="#74401B"/>
</linearGradient>
<linearGradient id="paint11_linear_501_48" x1="223.587" y1="474.084" x2="224.947" y2="478.543" gradientUnits="userSpaceOnUse">
<stop stop-color="#74401B"/>
</linearGradient>
<linearGradient id="paint12_linear_501_48" x1="222.956" y1="471.386" x2="224.316" y2="475.845" gradientUnits="userSpaceOnUse">
<stop stop-color="#74401B"/>
</linearGradient>
<linearGradient id="paint13_linear_501_48" x1="226.35" y1="485.88" x2="227.71" y2="490.339" gradientUnits="userSpaceOnUse">
<stop stop-color="#74401B"/>
</linearGradient>
<linearGradient id="paint14_linear_501_48" x1="227.685" y1="491.586" x2="229.045" y2="496.044" gradientUnits="userSpaceOnUse">
<stop stop-color="#74401B"/>
</linearGradient>
<linearGradient id="paint15_linear_501_48" x1="227.053" y1="488.887" x2="228.413" y2="493.346" gradientUnits="userSpaceOnUse">
<stop stop-color="#74401B"/>
</linearGradient>
<linearGradient id="paint16_linear_501_48" x1="170.181" y1="491.002" x2="170.988" y2="493.645" gradientUnits="userSpaceOnUse">
<stop stop-color="#74401B"/>
</linearGradient>
<linearGradient id="paint17_linear_501_48" x1="162.068" y1="495.115" x2="162.874" y2="497.757" gradientUnits="userSpaceOnUse">
<stop stop-color="#74401B"/>
</linearGradient>
<linearGradient id="paint18_linear_501_48" x1="167.478" y1="493.348" x2="168.284" y2="495.991" gradientUnits="userSpaceOnUse">
<stop stop-color="#74401B"/>
</linearGradient>
<linearGradient id="paint19_linear_501_48" x1="172.746" y1="502.949" x2="173.57" y2="505.65" gradientUnits="userSpaceOnUse">
<stop stop-color="#74401B"/>
</linearGradient>
<linearGradient id="paint20_linear_501_48" x1="163.114" y1="505.041" x2="163.938" y2="507.742" gradientUnits="userSpaceOnUse">
<stop stop-color="#74401B"/>
</linearGradient>
<linearGradient id="paint21_linear_501_48" x1="168.376" y1="503.077" x2="169.2" y2="505.778" gradientUnits="userSpaceOnUse">
<stop stop-color="#74401B"/>
</linearGradient>
<clipPath id="clip0_501_48">
<rect width="1787" height="600" fill="white"/>
</clipPath>
</defs>
</svg>
