<svg width="615" height="880" viewBox="0 0 615 880" fill="none" xmlns="http://www.w3.org/2000/svg">
<path d="M203.265 619.491C186.811 635.945 179.643 662.414 176.705 675.631M176.705 675.631C149.601 772.403 226.21 829.306 266.256 848.863C231.605 831.94 195.139 831.844 167.111 836.896M176.705 675.631C27.8115 630.5 -33.6875 452.5 176.705 282.651C291.851 189.695 315.312 136 331.976 35C403.476 61 529.976 124 455.976 235.5" stroke="url(#paint0_linear_1452_140)" stroke-width="25"/>
<path d="M534.459 655.28C566.539 778.467 490.301 829.412 449.447 849.364C485.81 831.605 524.17 832.377 552.683 838.182M534.459 655.28C579.496 595.061 595.411 538.188 502.379 443.552M534.459 655.28C525.989 665.726 515.309 676.865 506.076 686M502.379 443.552L467.091 464.404M502.379 443.552C502.379 443.552 574.412 443.361 574.412 392.046C574.412 340.731 548.852 358.665 526.964 320.908C505.075 283.15 481.024 275.388 426.991 271.924C422.713 249.469 405.497 199.424 370.851 178.893C341.444 246.795 229.244 443.552 205.639 496.484C188.98 533.841 183.867 611.972 272.352 611.972M371.945 514.128H427.427C453.091 515.223 471.204 536.509 471.204 562.758C471.204 589.006 452.544 610.878 427.427 611.972H316.13C310.488 611.972 277.407 612.426 272.352 611.972M371.945 514.128C371.945 496.484 364.99 470.971 394.539 470.971M371.945 514.128H316.315C290.569 515.223 272.353 539.358 272.353 563.852M272.352 611.972C283.045 643.213 328.326 705.004 371.945 705.004C381.954 705.004 400.559 705.004 430.71 669.716" stroke="url(#paint1_linear_1452_140)" stroke-width="25"/>
<defs>
<linearGradient id="paint0_linear_1452_140" x1="447.281" y1="50.6361" x2="137.476" y2="848.501" gradientUnits="userSpaceOnUse">
<stop stop-color="#1D3557"/>
</linearGradient>
<linearGradient id="paint1_linear_1452_140" x1="369.914" y1="163.859" x2="587.704" y2="856.08" gradientUnits="userSpaceOnUse">
<stop stop-color="#1D3557"/>
</linearGradient>
</defs>
</svg>
