<svg width="307" height="307" viewBox="0 0 307 307" fill="none" xmlns="http://www.w3.org/2000/svg">
<rect width="307" height="307"/>
<path d="M56.0584 128.248C56.0584 128.248 12.4571 98.0709 24.1717 41.8319C29.2004 50.2335 82.0592 43.4894 98.8597 81.2678C98.8597 81.2678 166.805 54.4057 202.863 85.0399C202.863 85.0399 222.978 46.8614 247.321 41.8319C271.665 36.8024 283.38 29.2582 283.38 29.2582C283.38 29.2582 299.323 93.0414 245.607 128.248C245.607 128.248 265.95 248.213 153.833 281.762C134.061 284.334 46.8581 244.898 56.0584 128.248Z" fill="#DD6628"/>
<path d="M152.233 285.134C140.347 285.134 117.375 276.675 95.8883 256.157C73.4876 234.782 47.944 195.632 52.6299 129.791C44.8011 123.561 10.1714 92.6985 20.9718 41.2032L22.6861 32.9731L27.0291 40.1744C28.0577 41.6033 35.7151 42.975 41.3152 43.9466C58.8015 47.09 87.6024 52.2338 100.517 77.1527C113.775 72.4661 168.233 55.3773 201.892 80.0676C207.606 70.2943 225.321 43.0321 246.693 38.5741C270.008 33.7732 281.551 26.5148 281.665 26.4576L285.494 24L286.58 28.458C286.751 29.0867 302.123 93.4986 249.15 129.848C251.207 146.366 260.065 253.471 154.804 284.963C154.062 285.077 153.204 285.134 152.233 285.134ZM26.5148 47.3186C18.686 97.728 57.4872 125.276 57.9443 125.562L59.4872 126.648L59.3158 128.534C54.2299 192.831 78.8592 230.838 100.403 251.414C122.575 272.56 145.89 279.533 153.433 278.562C260.865 246.327 243.15 133.62 242.35 128.819L242.007 126.705L243.779 125.505C287.608 96.6992 283.437 48.8046 280.98 34.2876C275.551 36.9738 264.636 41.6033 247.893 45.0896C225.378 49.7191 205.892 86.2401 205.663 86.6402L203.777 90.2409L200.634 87.6118C166.462 58.5779 100.631 84.1254 99.9456 84.4112L97.0312 85.5543L95.774 82.6966C85.0308 58.5207 57.9443 53.6626 40.058 50.5192C34.4579 49.3761 29.8292 48.576 26.5148 47.3186Z" fill="black"/>
<path d="M66.5162 111.388C67.6591 107.958 69.7163 104.815 72.5164 102.415C71.8307 104.129 71.1449 105.844 70.4592 107.558C72.1735 103.843 75.0879 100.643 78.6309 98.5282C77.1451 99.3855 65.0305 72.3519 57.7731 79.7818C51.3158 86.2973 63.1447 105.444 66.5162 111.388Z" fill="#EB7A8B"/>
<path d="M257.665 63.4931C257.493 63.3788 257.322 63.2073 257.151 63.093C248.865 69.037 241.436 76.1812 235.207 84.4113C231.95 88.6978 227.035 93.2129 226.635 98.9282C226.464 101.386 233.55 120.532 234.921 119.389C243.436 111.731 251.55 102.758 254.122 91.6126C255.779 84.4113 255.093 76.867 256.693 69.6657C257.151 67.7225 257.836 65.8364 258.751 64.0075C258.351 63.7789 258.008 63.6074 257.665 63.4931Z" fill="#EB7A8B"/>
<path d="M136.918 250.042C136.975 250.328 140.404 260.901 141.947 263.702C143.49 266.502 144.004 266.902 144.004 266.902C144.004 266.902 151.261 266.845 151.261 266.559C151.261 266.274 151.49 264.388 151.49 264.388L152.347 266.216C152.347 266.216 158.347 266.788 159.376 266.502C160.404 266.216 164.69 250.328 164.29 250.099C163.89 249.871 158.29 249.185 155.947 247.813C153.604 246.441 151.261 245.413 150.518 245.184C149.776 245.012 147.261 246.498 147.261 246.498C147.261 246.498 140.575 249.356 140.29 249.128" fill="white"/>
<path d="M143.776 267.76L143.547 267.531C143.318 267.359 142.69 266.731 141.261 264.045C139.661 261.13 136.232 250.556 136.175 250.213L137.775 249.813C137.89 250.213 141.261 260.558 142.747 263.244C143.661 264.959 144.233 265.702 144.461 266.045C146.918 266.045 149.547 265.931 150.633 265.873C150.69 265.188 150.804 264.273 150.804 264.273L151.09 261.416L152.976 265.416C155.433 265.645 158.233 265.816 159.09 265.702C160.119 264.102 163.148 253.357 163.548 250.671C163.262 250.614 162.919 250.556 162.576 250.499C160.519 250.099 157.319 249.528 155.604 248.442C153.319 247.07 151.033 246.098 150.404 245.927C150.119 245.927 148.861 246.498 147.776 247.127C140.575 250.213 140.29 250.042 139.89 249.699L140.404 249.013V248.213C140.918 248.156 144.233 246.841 147.09 245.641C148.29 244.955 150.004 244.098 150.861 244.327C151.719 244.555 154.119 245.584 156.462 247.013C157.947 247.927 161.033 248.499 162.862 248.842C164.176 249.07 164.576 249.185 164.805 249.356C165.319 249.699 165.205 250.328 165.09 250.956C165.09 251.128 161.547 266.788 159.662 267.302C158.519 267.588 153.776 267.188 152.347 267.074H152.119C151.89 267.588 150.633 267.76 144.061 267.817L143.776 267.76Z" fill="black"/>
<path d="M34.458 68.1796C53.8872 63.0358 76.6307 78.9245 78.4593 98.9853C67.0876 82.9823 53.43 73.3234 34.458 68.1796Z" fill="black"/>
<path d="M226.75 99.4997C229.721 77.8386 249.15 58.635 270.865 56.006C252.522 67.8367 238.807 81.3249 226.75 99.4997Z" fill="black"/>
<path d="M177.319 105.558C193.491 101.9 211.663 117.046 210.92 133.62C201.892 120.304 192.063 112.074 177.319 105.558Z" fill="black"/>
<path d="M83.4307 134.421C86.8022 120.418 101.203 110.13 115.546 110.245C117.603 110.416 120.575 111.445 120.746 113.788C119.203 112.359 117.432 112.931 115.889 113.445C103.546 118.532 93.831 125.505 83.4307 134.421Z" fill="black"/>
<path d="M57.7727 75.781C59.3156 87.8404 62.4014 99.2711 67.0873 110.473C58.4013 101.614 54.7441 87.8404 57.7727 75.781Z" fill="black"/>
<path d="M253.95 65.722C260.065 73.8378 259.322 86.5831 252.293 93.9559C254.979 84.5827 255.55 75.2667 253.95 65.722Z" fill="black"/>
<path d="M147.375 161.511C147.375 179.172 133.032 193.517 115.375 193.517C97.7168 193.517 85.2021 179.172 85.2021 161.511C85.2021 143.851 97.7168 129.505 115.375 129.505C133.089 129.505 147.375 143.851 147.375 161.511Z" fill="white"/>
<path d="M115.432 195.118C97.2596 195.118 83.6021 180.658 83.6021 161.511C83.6021 142.365 97.2596 127.905 115.432 127.905C133.946 127.905 149.033 142.994 149.033 161.511C149.033 180.029 133.946 195.118 115.432 195.118ZM115.432 131.163C99.1454 131.163 86.9164 144.194 86.9164 161.511C86.9164 178.829 99.2025 191.86 115.432 191.86C132.175 191.86 145.775 178.257 145.775 161.511C145.718 144.765 132.118 131.163 115.432 131.163Z" fill="black"/>
<path d="M217.321 158.368C217.321 176.028 204.578 190.374 186.92 190.374C169.262 190.374 154.919 176.028 154.919 158.368C154.919 140.707 169.262 126.362 186.92 126.362C204.578 126.362 217.321 140.707 217.321 158.368Z" fill="white"/>
<path d="M186.92 191.974C168.405 191.974 153.319 176.886 153.319 158.368C153.319 139.85 168.405 124.762 186.92 124.762C205.206 124.762 218.978 139.221 218.978 158.368C218.978 177.514 205.206 191.974 186.92 191.974ZM186.92 128.019C170.176 128.019 156.576 141.622 156.576 158.368C156.576 175.114 170.176 188.716 186.92 188.716C203.32 188.716 215.721 175.685 215.721 158.368C215.721 141.05 203.32 128.019 186.92 128.019Z" fill="black"/>
<path d="M130.289 214.664C129.889 215.521 140.347 229.981 148.061 230.381C155.719 230.781 164.062 217.179 165.776 212.549C167.491 207.92 139.547 196.032 130.289 214.664Z" fill="#70574B"/>
<path d="M148.404 232.039C148.233 232.039 148.119 232.039 147.947 232.039C139.833 231.581 130.689 218.95 129.318 216.607C128.804 215.693 128.347 214.835 128.804 213.921C134.918 201.519 149.376 200.833 160.176 205.462C165.49 207.748 168.176 210.606 167.262 213.121C165.833 217.236 157.433 232.039 148.404 232.039ZM132.061 214.835C133.547 217.693 142.347 228.438 148.119 228.781C148.233 228.781 148.29 228.781 148.404 228.781C154.747 228.781 162.576 216.436 164.176 212.035C163.948 211.006 158.69 207.463 151.319 206.434C146.118 205.748 136.861 205.919 132.061 214.835Z" fill="black"/>
<path d="M115.203 239.411C122.975 248.899 140.804 251.356 149.661 242.383C155.033 246.498 162.462 248.042 169.033 246.041C175.262 244.098 180.977 240.097 186.12 235.639C181.948 241.069 176.576 245.813 169.89 248.499C162.976 251.185 155.033 250.042 148.918 245.87L151.147 245.641C140.69 254.671 121.718 251.242 115.203 239.411Z" fill="black"/>
<path d="M145.547 230.438C148.918 234.953 149.547 241.355 147.09 246.384C147.833 245.47 149.033 244.898 150.176 244.898C151.318 244.898 152.519 245.47 153.261 246.441C151.718 244.727 151.09 242.269 150.976 239.983C150.804 235.639 152.347 231.296 155.147 228.038C153.433 228.952 151.376 230.61 149.433 230.438" fill="black"/>
<path d="M182.691 238.783C183.091 238.154 183.719 237.754 184.291 237.297C184.862 236.839 185.377 236.154 185.262 235.411C185.205 234.782 184.691 234.268 184.176 233.867C183.662 233.467 183.091 233.182 182.691 232.667C184.291 233.353 186.348 233.296 187.434 234.668C188.062 235.411 188.234 236.497 188.119 237.411C188.005 238.383 187.605 239.297 187.262 240.211C187.034 239.411 186.748 238.554 186.519 237.754C186.405 237.468 186.348 237.182 186.062 237.011C185.719 236.839 185.319 237.068 184.977 237.297C183.262 238.44 181.548 239.583 179.833 240.726" fill="black"/>
<path d="M117.832 242.269C117.432 241.926 117.089 241.526 116.803 241.126C116.517 240.669 116.403 240.097 116.574 239.64C116.746 239.183 117.089 238.84 117.489 238.611C117.889 238.383 118.346 238.268 118.803 238.154C117.889 238.268 116.975 238.097 116.06 238.097C115.146 238.097 114.117 238.383 113.66 239.126C113.203 239.812 113.26 240.726 113.489 241.526C113.717 242.326 114.003 243.126 113.946 243.927C114.003 243.126 114.117 242.383 114.289 241.64C114.346 241.412 114.46 241.126 114.632 241.012C114.917 240.84 115.317 241.012 115.603 241.183C116.86 241.926 117.946 242.898 118.86 244.041" fill="black"/>
<path d="M133.604 214.835C140.518 216.607 147.776 216.95 154.805 215.921Z" fill="black"/>
<path d="M145.89 272.217C150.29 272.903 154.061 272.732 158.347 271.703C155.147 274.904 149.318 275.132 145.89 272.217Z" fill="black"/>
<path d="M176.119 174.028C180.443 174.028 183.948 170.522 183.948 166.198C183.948 161.873 180.443 158.368 176.119 158.368C171.796 158.368 168.291 161.873 168.291 166.198C168.291 170.522 171.796 174.028 176.119 174.028Z" fill="black"/>
<path d="M126.861 174.028C131.184 174.028 134.689 170.522 134.689 166.198C134.689 161.873 131.184 158.368 126.861 158.368C122.537 158.368 119.032 161.873 119.032 166.198C119.032 170.522 122.537 174.028 126.861 174.028Z" fill="black"/>
<path opacity="0.49" d="M165.147 212.606C162.233 218.722 158.519 224.38 154.004 229.41C152.69 230.896 151.147 232.382 149.204 232.439C147.433 232.496 145.89 231.467 144.518 230.324C140.861 227.352 122.289 215.521 132.518 214.435C136.747 213.978 146.918 216.779 151.261 216.379C156.061 215.979 160.804 214.721 165.147 212.606Z" fill="black"/>
<path opacity="0.17" d="M227.264 98.1852C231.378 90.298 239.035 84.2969 247.721 82.2394C245.721 95.3275 240.978 107.958 233.892 119.103C220.749 92.9271 194.063 74.1236 165.033 70.5229C176.576 77.7242 187.548 85.8972 197.777 94.8703C201.377 98.0709 204.977 101.386 207.377 105.615C209.777 109.787 210.863 114.988 209.206 119.503C199.663 113.045 189.32 107.844 178.405 104.072C188.177 107.33 196.634 114.36 201.663 123.39C188.12 119.675 172.69 124.476 163.604 135.106C172.519 129.62 184.519 129.62 193.434 135.163C202.348 140.707 207.606 151.509 206.577 161.911C205.434 173.171 197.834 182.544 190.52 191.174C193.834 188.316 198.234 187.745 202.349 186.259C206.463 184.773 210.634 182.658 213.835 185.687C217.378 189.059 217.663 194.546 217.263 199.404C214.692 228.495 196.291 254.214 173.719 272.732C200.006 259.987 221.892 238.325 234.921 212.149C247.95 185.973 252.064 155.51 246.407 126.819C275.151 107.958 290.065 70.2371 282.008 36.8024C283.322 42.2319 272.922 51.3193 269.265 54.0056C263.493 58.3492 256.122 60.1781 250.579 64.8076C246.807 67.951 244.578 72.4661 241.721 76.4097C236.521 83.4967 231.378 90.4123 227.264 98.1852Z" fill="#660000"/>
<path opacity="0.23" d="M130.975 243.584C135.889 243.241 140.632 239.811 141.832 235.068C143.033 230.324 139.947 224.666 135.147 223.694C138.632 227.809 144.118 230.095 149.49 229.752C154.861 229.352 159.947 226.323 162.805 221.751C158.633 225.923 154.119 231.41 155.833 237.068C157.433 242.269 163.833 244.612 169.148 243.526C174.462 242.441 178.234 240.726 182.348 237.24C184.977 233.868 181.605 232.839 179.719 231.696C185.605 231.867 192.177 234.839 188.52 243.069C189.148 241.583 187.434 239.983 185.777 240.04C184.177 240.097 182.805 241.24 181.548 242.269C173.776 248.899 166.69 255.814 159.719 263.816C162.176 262.101 160.004 256.272 157.719 254.386C155.376 252.442 152.176 252.157 149.147 252.042C146.404 251.928 144.69 251.471 142.575 253.243C140.461 255.071 139.032 261.53 141.661 262.33C137.375 261.015 132.404 254.043 128.689 251.414C124.175 248.27 119.66 244.555 114.86 241.926C114.403 243.584 115.032 243.412 114.403 245.184C111.717 241.983 112.003 235.411 120.346 236.839C119.66 237.24 118.689 238.268 118.117 238.783C120.803 242.498 126.403 243.927 130.975 243.584Z" fill="#660000"/>
<path opacity="0.17" d="M120.746 133.735C123.832 133.163 127.032 133.106 130.175 133.277C125.718 130.934 120.803 129.505 115.432 129.505C97.774 129.505 85.2593 143.851 85.2593 161.511C85.2593 179.172 97.774 193.517 115.432 193.517C119.317 193.517 123.032 192.717 126.461 191.46C126.518 191.288 126.632 191.117 126.632 190.945C126.689 189.459 125.26 188.316 123.832 188.03C122.403 187.745 120.917 188.145 119.432 188.316C110.117 189.688 100.403 184.144 96.1167 175.742C91.8309 167.341 92.7452 156.767 97.7168 148.766C102.746 140.707 111.489 135.392 120.746 133.735Z" fill="black"/>
<path opacity="0.17" d="M39.3152 68.294C37.2009 67.6081 34.4579 67.1509 33.2579 68.9798C32.2293 70.4658 32.9722 72.409 33.7722 74.0093C40.9153 88.5263 50.4584 101.786 61.8873 113.217C62.7445 114.074 63.6588 114.931 64.8589 115.103C66.3446 115.331 67.7732 114.36 68.859 113.388C74.5734 108.187 77.0307 99.7284 74.9735 92.2984C70.8019 77.2099 52.1728 72.409 39.3152 68.294Z" fill="black"/>
<path opacity="0.47" d="M249.55 46.9757C259.208 43.7179 269.722 42.6892 278.408 37.3739C273.322 43.375 268.179 49.319 263.093 55.3201C263.722 53.9484 264.408 52.5196 265.036 51.1479C247.55 50.8621 231.092 60.8068 219.778 74.1236C217.263 77.0956 214.863 80.3533 214.178 84.1826C213.492 87.8404 214.692 92.1841 218.121 94.0701C213.892 90.6409 209.549 86.7545 211.32 81.0391C212.92 75.9525 217.378 70.6372 220.806 66.6365C228.349 57.6634 238.407 50.7478 249.55 46.9757Z" fill="#DD6628"/>
<path opacity="0.47" d="M89.6594 82.2393C84.1735 67.951 71.0874 56.8632 56.1727 53.7769C46.9724 51.8908 37.2007 52.8053 28.3433 49.6619C31.1433 50.6335 33.3148 53.3768 36.0578 54.4056C38.515 55.32 41.1436 55.2057 43.7723 55.5487C49.7725 56.2917 55.6584 57.892 61.2585 60.2352C72.4589 64.9218 82.402 72.5233 89.6594 82.2393Z" fill="#DD6628"/>
<path opacity="0.47" d="M127.489 78.6958C136.575 77.267 146.461 77.7814 154.061 82.9823C134.118 83.3824 114.289 89.2692 97.3739 99.7855C96.1739 100.528 94.4595 101.271 93.4881 100.243C92.8023 99.5568 92.9738 98.4138 93.2023 97.4993C97.3739 82.2965 114.06 80.8105 127.489 78.6958Z" fill="#DD6628"/>
<path opacity="0.75" d="M88.5166 236.554C79.9449 223.751 72.2875 211.292 67.2017 196.661C62.6872 183.744 57.2585 166.255 59.1443 152.424C63.773 153.967 62.6872 166.426 63.2587 170.541C64.4016 178.371 66.1159 186.144 68.4017 193.689C72.9161 208.891 79.7163 223.408 88.5166 236.554Z" fill="#DD6628"/>
<path opacity="0.75" d="M139.261 211.178C141.318 210.435 143.547 210.263 145.661 210.663C146.633 210.835 147.776 211.406 147.776 212.378C147.776 213.349 146.747 213.864 145.776 214.092C144.29 214.492 142.747 214.55 141.204 214.378C140.461 214.264 139.718 214.092 139.09 213.692C138.461 213.292 138.061 212.492 138.29 211.749C138.461 211.006 139.375 210.492 140.004 210.892" fill="#DD6628"/>
<path d="M193.548 81.8393C202.406 88.0118 210.006 96.0705 215.778 105.215C213.149 94.4702 206.863 84.6398 198.234 77.7814" fill="black"/>
<path d="M98.4596 77.9529C90.4594 83.3825 84.0592 91.0982 80.2305 99.957C89.4879 90.0123 101.374 82.468 114.289 78.2386" fill="black"/>
</svg>
